  0
SECTION
  2
HEADER
  9
$ANGBASE
  50
0.0
  9
$ANGDIR
  70
1
  9
$MEASUREMENT
  70
1
  0
ENDSEC
  0
SECTION
  2
TABLES
  0
TABLE
  2
LTYPE
  70
4
  0
LTYPE
  5
40F
  2
CONTINUOUS
  70
0
  3
Solid line
  72
65
  73
0
  40
0.0
  0
LTYPE
  5
410
  2
DASHDOT
 70
0
  3
Dash Dot ____ _ ____ _
 72
65
 73
4
 40
2.0
 49
1.25
 49
-0.25
 49
0.25
 49
-0.25
  0
LTYPE
  5
411
  2
DASHED
 70
0
  3
Dashed __ __ __ __ __
 72
65
 73
2
 40
0.75
 49
0.5
 49
-0.25
  0
LTYPE
  5
43B
  2
DOTTED
 70
0
  3
Dotted .  .  .  .
 72
65
 73
2
 40
0.2
 49
0.0
 49
-0.2
  0
ENDTAB
  0
TABLE
  2
STYLE
  70
4
  0
STYLE
  2
KICAD
  70
0
  40
0
  41
1
  42
1
  50
0
  71
0
  3
isocp.shx
  0
STYLE
  2
KICADB
  70
0
  40
0
  41
1
  42
1
  50
0
  71
0
  3
isocp.shx
  0
STYLE
  2
KICADI
  70
0
  40
0
  41
1
  42
1
  50
15
  71
0
  3
isocp.shx
  0
STYLE
  2
KICADBI
  70
0
  40
0
  41
1
  42
1
  50
15
  71
0
  3
isocp.shx
  0
ENDTAB
  0
TABLE
  2
LAYER
  70
1
  0
LAYER
  2
BLACK
  70
0
  62
7
  6
CONTINUOUS
  0
ENDTAB
  0
ENDSEC
  0
SECTION
  2
ENTITIES
0
LINE
8
BLACK
6
CONTINUOUS
10
52.0567
20
-121.92
11
52.0496
21
-121.919
0
LINE
8
BLACK
6
CONTINUOUS
10
52.0496
20
-121.919
11
51.7856
21
-121.904
0
LINE
8
BLACK
6
CONTINUOUS
10
51.7856
20
-121.904
11
51.5048
21
-121.856
0
LINE
8
BLACK
6
CONTINUOUS
10
51.5048
20
-121.856
11
51.2311
21
-121.777
0
LINE
8
BLACK
6
CONTINUOUS
10
51.2311
20
-121.777
11
50.9679
21
-121.668
0
LINE
8
BLACK
6
CONTINUOUS
10
50.9679
20
-121.668
11
50.7186
21
-121.531
0
LINE
8
BLACK
6
CONTINUOUS
10
50.7186
20
-121.531
11
50.4863
21
-121.366
0
LINE
8
BLACK
6
CONTINUOUS
10
50.4863
20
-121.366
11
50.2739
21
-121.176
0
LINE
8
BLACK
6
CONTINUOUS
10
50.2739
20
-121.176
11
50.0841
21
-120.964
0
LINE
8
BLACK
6
CONTINUOUS
10
50.0841
20
-120.964
11
49.9193
21
-120.731
0
LINE
8
BLACK
6
CONTINUOUS
10
49.9193
20
-120.731
11
49.7815
21
-120.482
0
LINE
8
BLACK
6
CONTINUOUS
10
49.7815
20
-120.482
11
49.6725
21
-120.219
0
LINE
8
BLACK
6
CONTINUOUS
10
49.6725
20
-120.219
11
49.5937
21
-119.945
0
LINE
8
BLACK
6
CONTINUOUS
10
49.5937
20
-119.945
11
49.546
21
-119.664
0
LINE
8
BLACK
6
CONTINUOUS
10
49.546
20
-119.664
11
49.53
21
-119.38
0
LINE
8
BLACK
6
CONTINUOUS
10
49.53
20
-119.38
11
49.53
21
-73.66
0
LINE
8
BLACK
6
CONTINUOUS
10
49.53
20
-73.66
11
49.5303
21
-73.6554
0
LINE
8
BLACK
6
CONTINUOUS
10
49.5303
20
-73.6554
11
49.53
21
-73.6534
0
LINE
8
BLACK
6
CONTINUOUS
10
49.53
20
-73.6534
11
49.5306
21
-73.6489
0
LINE
8
BLACK
6
CONTINUOUS
10
49.5306
20
-73.6489
11
49.546
21
-73.3756
0
LINE
8
BLACK
6
CONTINUOUS
10
49.546
20
-73.3756
11
49.5937
21
-73.0948
0
LINE
8
BLACK
6
CONTINUOUS
10
49.5937
20
-73.0948
11
49.6725
21
-72.8211
0
LINE
8
BLACK
6
CONTINUOUS
10
49.6725
20
-72.8211
11
49.7815
21
-72.5579
0
LINE
8
BLACK
6
CONTINUOUS
10
49.7815
20
-72.5579
11
49.9193
21
-72.3086
0
LINE
8
BLACK
6
CONTINUOUS
10
49.9193
20
-72.3086
11
50.0841
21
-72.0763
0
LINE
8
BLACK
6
CONTINUOUS
10
50.0841
20
-72.0763
11
50.2739
21
-71.8639
0
LINE
8
BLACK
6
CONTINUOUS
10
50.2739
20
-71.8639
11
50.4863
21
-71.6741
0
LINE
8
BLACK
6
CONTINUOUS
10
50.4863
20
-71.6741
11
50.7186
21
-71.5093
0
LINE
8
BLACK
6
CONTINUOUS
10
50.7186
20
-71.5093
11
50.9679
21
-71.3715
0
LINE
8
BLACK
6
CONTINUOUS
10
50.9679
20
-71.3715
11
51.2311
21
-71.2625
0
LINE
8
BLACK
6
CONTINUOUS
10
51.2311
20
-71.2625
11
51.5048
21
-71.1837
0
LINE
8
BLACK
6
CONTINUOUS
10
51.5048
20
-71.1837
11
51.7856
21
-71.136
0
LINE
8
BLACK
6
CONTINUOUS
10
51.7856
20
-71.136
11
52.07
21
-71.12
0
LINE
8
BLACK
6
CONTINUOUS
10
52.07
20
-71.12
11
243.84
21
-71.12
0
LINE
8
BLACK
6
CONTINUOUS
10
243.84
20
-71.12
11
243.853
21
-71.1201
0
LINE
8
BLACK
6
CONTINUOUS
10
243.853
20
-71.1201
11
243.86
21
-71.1211
0
LINE
8
BLACK
6
CONTINUOUS
10
243.86
20
-71.1211
11
244.124
21
-71.136
0
LINE
8
BLACK
6
CONTINUOUS
10
244.124
20
-71.136
11
244.405
21
-71.1837
0
LINE
8
BLACK
6
CONTINUOUS
10
244.405
20
-71.1837
11
244.679
21
-71.2625
0
LINE
8
BLACK
6
CONTINUOUS
10
244.679
20
-71.2625
11
244.942
21
-71.3715
0
LINE
8
BLACK
6
CONTINUOUS
10
244.942
20
-71.3715
11
245.191
21
-71.5093
0
LINE
8
BLACK
6
CONTINUOUS
10
245.191
20
-71.5093
11
245.424
21
-71.6741
0
LINE
8
BLACK
6
CONTINUOUS
10
245.424
20
-71.6741
11
245.636
21
-71.8639
0
LINE
8
BLACK
6
CONTINUOUS
10
245.636
20
-71.8639
11
245.826
21
-72.0763
0
LINE
8
BLACK
6
CONTINUOUS
10
245.826
20
-72.0763
11
245.991
21
-72.3086
0
LINE
8
BLACK
6
CONTINUOUS
10
245.991
20
-72.3086
11
246.128
21
-72.5579
0
LINE
8
BLACK
6
CONTINUOUS
10
246.128
20
-72.5579
11
246.237
21
-72.8211
0
LINE
8
BLACK
6
CONTINUOUS
10
246.237
20
-72.8211
11
246.316
21
-73.0948
0
LINE
8
BLACK
6
CONTINUOUS
10
246.316
20
-73.0948
11
246.364
21
-73.3756
0
LINE
8
BLACK
6
CONTINUOUS
10
246.364
20
-73.3756
11
246.38
21
-73.66
0
LINE
8
BLACK
6
CONTINUOUS
10
246.38
20
-73.66
11
246.38
21
-119.38
0
LINE
8
BLACK
6
CONTINUOUS
10
246.38
20
-119.38
11
246.38
21
-119.393
0
LINE
8
BLACK
6
CONTINUOUS
10
246.38
20
-119.393
11
246.379
21
-119.4
0
LINE
8
BLACK
6
CONTINUOUS
10
246.379
20
-119.4
11
246.364
21
-119.664
0
LINE
8
BLACK
6
CONTINUOUS
10
246.364
20
-119.664
11
246.316
21
-119.945
0
LINE
8
BLACK
6
CONTINUOUS
10
246.316
20
-119.945
11
246.237
21
-120.219
0
LINE
8
BLACK
6
CONTINUOUS
10
246.237
20
-120.219
11
246.128
21
-120.482
0
LINE
8
BLACK
6
CONTINUOUS
10
246.128
20
-120.482
11
245.991
21
-120.731
0
LINE
8
BLACK
6
CONTINUOUS
10
245.991
20
-120.731
11
245.826
21
-120.964
0
LINE
8
BLACK
6
CONTINUOUS
10
245.826
20
-120.964
11
245.636
21
-121.176
0
LINE
8
BLACK
6
CONTINUOUS
10
245.636
20
-121.176
11
245.424
21
-121.366
0
LINE
8
BLACK
6
CONTINUOUS
10
245.424
20
-121.366
11
245.191
21
-121.531
0
LINE
8
BLACK
6
CONTINUOUS
10
245.191
20
-121.531
11
244.942
21
-121.668
0
LINE
8
BLACK
6
CONTINUOUS
10
244.942
20
-121.668
11
244.679
21
-121.777
0
LINE
8
BLACK
6
CONTINUOUS
10
244.679
20
-121.777
11
244.405
21
-121.856
0
LINE
8
BLACK
6
CONTINUOUS
10
244.405
20
-121.856
11
244.124
21
-121.904
0
LINE
8
BLACK
6
CONTINUOUS
10
244.124
20
-121.904
11
243.84
21
-121.92
0
LINE
8
BLACK
6
CONTINUOUS
10
243.84
20
-121.92
11
52.07
21
-121.92
0
LINE
8
BLACK
6
CONTINUOUS
10
52.07
20
-121.92
11
52.0567
21
-121.92
0
LINE
8
BLACK
6
CONTINUOUS
10
243.84
20
-72.39
11
52.07
21
-72.39
0
LINE
8
BLACK
6
CONTINUOUS
10
52.07
20
-72.39
11
52.0656
21
-72.3897
0
LINE
8
BLACK
6
CONTINUOUS
10
52.0656
20
-72.3897
11
52.0633
21
-72.39
0
LINE
8
BLACK
6
CONTINUOUS
10
52.0633
20
-72.39
11
52.0578
21
-72.3892
0
LINE
8
BLACK
6
CONTINUOUS
10
52.0578
20
-72.3892
11
52.0423
21
-72.3883
0
LINE
8
BLACK
6
CONTINUOUS
10
52.0423
20
-72.3883
11
51.8707
21
-72.4018
0
LINE
8
BLACK
6
CONTINUOUS
10
51.8707
20
-72.4018
11
51.6763
21
-72.4484
0
LINE
8
BLACK
6
CONTINUOUS
10
51.6763
20
-72.4484
11
51.4916
21
-72.5249
0
LINE
8
BLACK
6
CONTINUOUS
10
51.4916
20
-72.5249
11
51.3212
21
-72.6294
0
LINE
8
BLACK
6
CONTINUOUS
10
51.3212
20
-72.6294
11
51.1692
21
-72.7592
0
LINE
8
BLACK
6
CONTINUOUS
10
51.1692
20
-72.7592
11
51.0394
21
-72.9112
0
LINE
8
BLACK
6
CONTINUOUS
10
51.0394
20
-72.9112
11
50.9349
21
-73.0816
0
LINE
8
BLACK
6
CONTINUOUS
10
50.9349
20
-73.0816
11
50.8584
21
-73.2663
0
LINE
8
BLACK
6
CONTINUOUS
10
50.8584
20
-73.2663
11
50.8118
21
-73.4607
0
LINE
8
BLACK
6
CONTINUOUS
10
50.8118
20
-73.4607
11
50.7976
21
-73.6403
0
LINE
8
BLACK
6
CONTINUOUS
10
50.7976
20
-73.6403
11
50.8
21
-73.66
0
LINE
8
BLACK
6
CONTINUOUS
10
50.8
20
-73.66
11
50.8
21
-119.38
0
LINE
8
BLACK
6
CONTINUOUS
10
50.8
20
-119.38
11
50.7999
21
-119.393
0
LINE
8
BLACK
6
CONTINUOUS
10
50.7999
20
-119.393
11
50.7986
21
-119.402
0
LINE
8
BLACK
6
CONTINUOUS
10
50.7986
20
-119.402
11
50.7983
21
-119.408
0
LINE
8
BLACK
6
CONTINUOUS
10
50.7983
20
-119.408
11
50.8118
21
-119.579
0
LINE
8
BLACK
6
CONTINUOUS
10
50.8118
20
-119.579
11
50.8584
21
-119.774
0
LINE
8
BLACK
6
CONTINUOUS
10
50.8584
20
-119.774
11
50.9349
21
-119.958
0
LINE
8
BLACK
6
CONTINUOUS
10
50.9349
20
-119.958
11
51.0394
21
-120.129
0
LINE
8
BLACK
6
CONTINUOUS
10
51.0394
20
-120.129
11
51.1692
21
-120.281
0
LINE
8
BLACK
6
CONTINUOUS
10
51.1692
20
-120.281
11
51.3212
21
-120.411
0
LINE
8
BLACK
6
CONTINUOUS
10
51.3212
20
-120.411
11
51.4916
21
-120.515
0
LINE
8
BLACK
6
CONTINUOUS
10
51.4916
20
-120.515
11
51.6763
21
-120.592
0
LINE
8
BLACK
6
CONTINUOUS
10
51.6763
20
-120.592
11
51.8707
21
-120.638
0
LINE
8
BLACK
6
CONTINUOUS
10
51.8707
20
-120.638
11
52.0508
21
-120.652
0
LINE
8
BLACK
6
CONTINUOUS
10
52.0508
20
-120.652
11
52.07
21
-120.65
0
LINE
8
BLACK
6
CONTINUOUS
10
52.07
20
-120.65
11
243.84
21
-120.65
0
LINE
8
BLACK
6
CONTINUOUS
10
243.84
20
-120.65
11
243.844
21
-120.65
0
LINE
8
BLACK
6
CONTINUOUS
10
243.844
20
-120.65
11
243.847
21
-120.65
0
LINE
8
BLACK
6
CONTINUOUS
10
243.847
20
-120.65
11
243.852
21
-120.651
0
LINE
8
BLACK
6
CONTINUOUS
10
243.852
20
-120.651
11
243.868
21
-120.652
0
LINE
8
BLACK
6
CONTINUOUS
10
243.868
20
-120.652
11
244.039
21
-120.638
0
LINE
8
BLACK
6
CONTINUOUS
10
244.039
20
-120.638
11
244.234
21
-120.592
0
LINE
8
BLACK
6
CONTINUOUS
10
244.234
20
-120.592
11
244.418
21
-120.515
0
LINE
8
BLACK
6
CONTINUOUS
10
244.418
20
-120.515
11
244.589
21
-120.411
0
LINE
8
BLACK
6
CONTINUOUS
10
244.589
20
-120.411
11
244.741
21
-120.281
0
LINE
8
BLACK
6
CONTINUOUS
10
244.741
20
-120.281
11
244.871
21
-120.129
0
LINE
8
BLACK
6
CONTINUOUS
10
244.871
20
-120.129
11
244.975
21
-119.958
0
LINE
8
BLACK
6
CONTINUOUS
10
244.975
20
-119.958
11
245.052
21
-119.774
0
LINE
8
BLACK
6
CONTINUOUS
10
245.052
20
-119.774
11
245.098
21
-119.579
0
LINE
8
BLACK
6
CONTINUOUS
10
245.098
20
-119.579
11
245.112
21
-119.399
0
LINE
8
BLACK
6
CONTINUOUS
10
245.112
20
-119.399
11
245.11
21
-119.38
0
LINE
8
BLACK
6
CONTINUOUS
10
245.11
20
-119.38
11
245.11
21
-73.66
0
LINE
8
BLACK
6
CONTINUOUS
10
245.11
20
-73.66
11
245.11
21
-73.6556
0
LINE
8
BLACK
6
CONTINUOUS
10
245.11
20
-73.6556
11
245.11
21
-73.6534
0
LINE
8
BLACK
6
CONTINUOUS
10
245.11
20
-73.6534
11
245.111
21
-73.6478
0
LINE
8
BLACK
6
CONTINUOUS
10
245.111
20
-73.6478
11
245.112
21
-73.6323
0
LINE
8
BLACK
6
CONTINUOUS
10
245.112
20
-73.6323
11
245.098
21
-73.4607
0
LINE
8
BLACK
6
CONTINUOUS
10
245.098
20
-73.4607
11
245.052
21
-73.2663
0
LINE
8
BLACK
6
CONTINUOUS
10
245.052
20
-73.2663
11
244.975
21
-73.0816
0
LINE
8
BLACK
6
CONTINUOUS
10
244.975
20
-73.0816
11
244.871
21
-72.9112
0
LINE
8
BLACK
6
CONTINUOUS
10
244.871
20
-72.9112
11
244.741
21
-72.7592
0
LINE
8
BLACK
6
CONTINUOUS
10
244.741
20
-72.7592
11
244.589
21
-72.6294
0
LINE
8
BLACK
6
CONTINUOUS
10
244.589
20
-72.6294
11
244.418
21
-72.5249
0
LINE
8
BLACK
6
CONTINUOUS
10
244.418
20
-72.5249
11
244.234
21
-72.4484
0
LINE
8
BLACK
6
CONTINUOUS
10
244.234
20
-72.4484
11
244.039
21
-72.4018
0
LINE
8
BLACK
6
CONTINUOUS
10
244.039
20
-72.4018
11
243.859
21
-72.3876
0
LINE
8
BLACK
6
CONTINUOUS
10
243.859
20
-72.3876
11
243.84
21
-72.39
0
LINE
8
BLACK
6
CONTINUOUS
10
234.141
20
-113.676
11
234.207
21
-113.729
0
LINE
8
BLACK
6
CONTINUOUS
10
234.207
20
-113.729
11
234.244
21
-113.805
0
LINE
8
BLACK
6
CONTINUOUS
10
234.244
20
-113.805
11
234.244
21
-113.89
0
LINE
8
BLACK
6
CONTINUOUS
10
234.244
20
-113.89
11
234.207
21
-113.966
0
LINE
8
BLACK
6
CONTINUOUS
10
234.207
20
-113.966
11
234.141
21
-114.019
0
LINE
8
BLACK
6
CONTINUOUS
10
234.141
20
-114.019
11
234.058
21
-114.038
0
LINE
8
BLACK
6
CONTINUOUS
10
234.058
20
-114.038
11
232.737
21
-114.038
0
LINE
8
BLACK
6
CONTINUOUS
10
232.737
20
-114.038
11
232.737
21
-115.169
0
LINE
8
BLACK
6
CONTINUOUS
10
232.737
20
-115.169
11
233.605
21
-115.169
0
LINE
8
BLACK
6
CONTINUOUS
10
233.605
20
-115.169
11
233.687
21
-115.188
0
LINE
8
BLACK
6
CONTINUOUS
10
233.687
20
-115.188
11
233.753
21
-115.24
0
LINE
8
BLACK
6
CONTINUOUS
10
233.753
20
-115.24
11
233.79
21
-115.317
0
LINE
8
BLACK
6
CONTINUOUS
10
233.79
20
-115.317
11
233.79
21
-115.402
0
LINE
8
BLACK
6
CONTINUOUS
10
233.79
20
-115.402
11
233.753
21
-115.478
0
LINE
8
BLACK
6
CONTINUOUS
10
233.753
20
-115.478
11
233.687
21
-115.531
0
LINE
8
BLACK
6
CONTINUOUS
10
233.687
20
-115.531
11
233.604
21
-115.55
0
LINE
8
BLACK
6
CONTINUOUS
10
233.604
20
-115.55
11
232.737
21
-115.55
0
LINE
8
BLACK
6
CONTINUOUS
10
232.737
20
-115.55
11
232.737
21
-116.832
0
LINE
8
BLACK
6
CONTINUOUS
10
232.737
20
-116.832
11
234.058
21
-116.832
0
LINE
8
BLACK
6
CONTINUOUS
10
234.058
20
-116.832
11
234.141
21
-116.851
0
LINE
8
BLACK
6
CONTINUOUS
10
234.141
20
-116.851
11
234.207
21
-116.904
0
LINE
8
BLACK
6
CONTINUOUS
10
234.207
20
-116.904
11
234.244
21
-116.98
0
LINE
8
BLACK
6
CONTINUOUS
10
234.244
20
-116.98
11
234.244
21
-117.065
0
LINE
8
BLACK
6
CONTINUOUS
10
234.244
20
-117.065
11
234.207
21
-117.141
0
LINE
8
BLACK
6
CONTINUOUS
10
234.207
20
-117.141
11
234.141
21
-117.194
0
LINE
8
BLACK
6
CONTINUOUS
10
234.141
20
-117.194
11
234.058
21
-117.213
0
LINE
8
BLACK
6
CONTINUOUS
10
234.058
20
-117.213
11
232.546
21
-117.213
0
LINE
8
BLACK
6
CONTINUOUS
10
232.546
20
-117.213
11
232.525
21
-117.208
0
LINE
8
BLACK
6
CONTINUOUS
10
232.525
20
-117.208
11
232.504
21
-117.208
0
LINE
8
BLACK
6
CONTINUOUS
10
232.504
20
-117.208
11
232.484
21
-117.199
0
LINE
8
BLACK
6
CONTINUOUS
10
232.484
20
-117.199
11
232.463
21
-117.194
0
LINE
8
BLACK
6
CONTINUOUS
10
232.463
20
-117.194
11
232.446
21
-117.18
0
LINE
8
BLACK
6
CONTINUOUS
10
232.446
20
-117.18
11
232.427
21
-117.171
0
LINE
8
BLACK
6
CONTINUOUS
10
232.427
20
-117.171
11
232.414
21
-117.154
0
LINE
8
BLACK
6
CONTINUOUS
10
232.414
20
-117.154
11
232.397
21
-117.141
0
LINE
8
BLACK
6
CONTINUOUS
10
232.397
20
-117.141
11
232.388
21
-117.122
0
LINE
8
BLACK
6
CONTINUOUS
10
232.388
20
-117.122
11
232.374
21
-117.105
0
LINE
8
BLACK
6
CONTINUOUS
10
232.374
20
-117.105
11
232.37
21
-117.084
0
LINE
8
BLACK
6
CONTINUOUS
10
232.37
20
-117.084
11
232.36
21
-117.064
0
LINE
8
BLACK
6
CONTINUOUS
10
232.36
20
-117.064
11
232.36
21
-117.043
0
LINE
8
BLACK
6
CONTINUOUS
10
232.36
20
-117.043
11
232.356
21
-117.022
0
LINE
8
BLACK
6
CONTINUOUS
10
232.356
20
-117.022
11
232.356
21
-113.847
0
LINE
8
BLACK
6
CONTINUOUS
10
232.356
20
-113.847
11
232.36
21
-113.826
0
LINE
8
BLACK
6
CONTINUOUS
10
232.36
20
-113.826
11
232.36
21
-113.805
0
LINE
8
BLACK
6
CONTINUOUS
10
232.36
20
-113.805
11
232.37
21
-113.785
0
LINE
8
BLACK
6
CONTINUOUS
10
232.37
20
-113.785
11
232.375
21
-113.764
0
LINE
8
BLACK
6
CONTINUOUS
10
232.375
20
-113.764
11
232.388
21
-113.748
0
LINE
8
BLACK
6
CONTINUOUS
10
232.388
20
-113.748
11
232.397
21
-113.728
0
LINE
8
BLACK
6
CONTINUOUS
10
232.397
20
-113.728
11
232.414
21
-113.715
0
LINE
8
BLACK
6
CONTINUOUS
10
232.414
20
-113.715
11
232.427
21
-113.698
0
LINE
8
BLACK
6
CONTINUOUS
10
232.427
20
-113.698
11
232.447
21
-113.689
0
LINE
8
BLACK
6
CONTINUOUS
10
232.447
20
-113.689
11
232.463
21
-113.676
0
LINE
8
BLACK
6
CONTINUOUS
10
232.463
20
-113.676
11
232.484
21
-113.671
0
LINE
8
BLACK
6
CONTINUOUS
10
232.484
20
-113.671
11
232.504
21
-113.661
0
LINE
8
BLACK
6
CONTINUOUS
10
232.504
20
-113.661
11
232.525
21
-113.661
0
LINE
8
BLACK
6
CONTINUOUS
10
232.525
20
-113.661
11
232.546
21
-113.657
0
LINE
8
BLACK
6
CONTINUOUS
10
232.546
20
-113.657
11
234.058
21
-113.657
0
LINE
8
BLACK
6
CONTINUOUS
10
234.058
20
-113.657
11
234.141
21
-113.676
0
LINE
8
BLACK
6
CONTINUOUS
10
225.372
20
-113.676
11
225.438
21
-113.729
0
LINE
8
BLACK
6
CONTINUOUS
10
225.438
20
-113.729
11
225.475
21
-113.805
0
LINE
8
BLACK
6
CONTINUOUS
10
225.475
20
-113.805
11
225.475
21
-113.89
0
LINE
8
BLACK
6
CONTINUOUS
10
225.475
20
-113.89
11
225.438
21
-113.966
0
LINE
8
BLACK
6
CONTINUOUS
10
225.438
20
-113.966
11
225.372
21
-114.019
0
LINE
8
BLACK
6
CONTINUOUS
10
225.372
20
-114.019
11
225.289
21
-114.038
0
LINE
8
BLACK
6
CONTINUOUS
10
225.289
20
-114.038
11
223.968
21
-114.038
0
LINE
8
BLACK
6
CONTINUOUS
10
223.968
20
-114.038
11
223.968
21
-115.169
0
LINE
8
BLACK
6
CONTINUOUS
10
223.968
20
-115.169
11
224.836
21
-115.169
0
LINE
8
BLACK
6
CONTINUOUS
10
224.836
20
-115.169
11
224.918
21
-115.188
0
LINE
8
BLACK
6
CONTINUOUS
10
224.918
20
-115.188
11
224.984
21
-115.24
0
LINE
8
BLACK
6
CONTINUOUS
10
224.984
20
-115.24
11
225.021
21
-115.317
0
LINE
8
BLACK
6
CONTINUOUS
10
225.021
20
-115.317
11
225.021
21
-115.402
0
LINE
8
BLACK
6
CONTINUOUS
10
225.021
20
-115.402
11
224.984
21
-115.478
0
LINE
8
BLACK
6
CONTINUOUS
10
224.984
20
-115.478
11
224.918
21
-115.531
0
LINE
8
BLACK
6
CONTINUOUS
10
224.918
20
-115.531
11
224.835
21
-115.55
0
LINE
8
BLACK
6
CONTINUOUS
10
224.835
20
-115.55
11
223.968
21
-115.55
0
LINE
8
BLACK
6
CONTINUOUS
10
223.968
20
-115.55
11
223.968
21
-116.832
0
LINE
8
BLACK
6
CONTINUOUS
10
223.968
20
-116.832
11
225.289
21
-116.832
0
LINE
8
BLACK
6
CONTINUOUS
10
225.289
20
-116.832
11
225.372
21
-116.851
0
LINE
8
BLACK
6
CONTINUOUS
10
225.372
20
-116.851
11
225.438
21
-116.904
0
LINE
8
BLACK
6
CONTINUOUS
10
225.438
20
-116.904
11
225.475
21
-116.98
0
LINE
8
BLACK
6
CONTINUOUS
10
225.475
20
-116.98
11
225.475
21
-117.065
0
LINE
8
BLACK
6
CONTINUOUS
10
225.475
20
-117.065
11
225.438
21
-117.141
0
LINE
8
BLACK
6
CONTINUOUS
10
225.438
20
-117.141
11
225.372
21
-117.194
0
LINE
8
BLACK
6
CONTINUOUS
10
225.372
20
-117.194
11
225.289
21
-117.213
0
LINE
8
BLACK
6
CONTINUOUS
10
225.289
20
-117.213
11
223.777
21
-117.213
0
LINE
8
BLACK
6
CONTINUOUS
10
223.777
20
-117.213
11
223.756
21
-117.208
0
LINE
8
BLACK
6
CONTINUOUS
10
223.756
20
-117.208
11
223.734
21
-117.208
0
LINE
8
BLACK
6
CONTINUOUS
10
223.734
20
-117.208
11
223.715
21
-117.199
0
LINE
8
BLACK
6
CONTINUOUS
10
223.715
20
-117.199
11
223.694
21
-117.194
0
LINE
8
BLACK
6
CONTINUOUS
10
223.694
20
-117.194
11
223.677
21
-117.18
0
LINE
8
BLACK
6
CONTINUOUS
10
223.677
20
-117.18
11
223.658
21
-117.171
0
LINE
8
BLACK
6
CONTINUOUS
10
223.658
20
-117.171
11
223.645
21
-117.154
0
LINE
8
BLACK
6
CONTINUOUS
10
223.645
20
-117.154
11
223.628
21
-117.141
0
LINE
8
BLACK
6
CONTINUOUS
10
223.628
20
-117.141
11
223.619
21
-117.122
0
LINE
8
BLACK
6
CONTINUOUS
10
223.619
20
-117.122
11
223.605
21
-117.105
0
LINE
8
BLACK
6
CONTINUOUS
10
223.605
20
-117.105
11
223.601
21
-117.084
0
LINE
8
BLACK
6
CONTINUOUS
10
223.601
20
-117.084
11
223.591
21
-117.064
0
LINE
8
BLACK
6
CONTINUOUS
10
223.591
20
-117.064
11
223.591
21
-117.043
0
LINE
8
BLACK
6
CONTINUOUS
10
223.591
20
-117.043
11
223.587
21
-117.022
0
LINE
8
BLACK
6
CONTINUOUS
10
223.587
20
-117.022
11
223.587
21
-113.847
0
LINE
8
BLACK
6
CONTINUOUS
10
223.587
20
-113.847
11
223.591
21
-113.826
0
LINE
8
BLACK
6
CONTINUOUS
10
223.591
20
-113.826
11
223.591
21
-113.805
0
LINE
8
BLACK
6
CONTINUOUS
10
223.591
20
-113.805
11
223.601
21
-113.785
0
LINE
8
BLACK
6
CONTINUOUS
10
223.601
20
-113.785
11
223.606
21
-113.764
0
LINE
8
BLACK
6
CONTINUOUS
10
223.606
20
-113.764
11
223.619
21
-113.748
0
LINE
8
BLACK
6
CONTINUOUS
10
223.619
20
-113.748
11
223.628
21
-113.728
0
LINE
8
BLACK
6
CONTINUOUS
10
223.628
20
-113.728
11
223.645
21
-113.715
0
LINE
8
BLACK
6
CONTINUOUS
10
223.645
20
-113.715
11
223.658
21
-113.698
0
LINE
8
BLACK
6
CONTINUOUS
10
223.658
20
-113.698
11
223.678
21
-113.689
0
LINE
8
BLACK
6
CONTINUOUS
10
223.678
20
-113.689
11
223.694
21
-113.676
0
LINE
8
BLACK
6
CONTINUOUS
10
223.694
20
-113.676
11
223.715
21
-113.671
0
LINE
8
BLACK
6
CONTINUOUS
10
223.715
20
-113.671
11
223.735
21
-113.661
0
LINE
8
BLACK
6
CONTINUOUS
10
223.735
20
-113.661
11
223.756
21
-113.661
0
LINE
8
BLACK
6
CONTINUOUS
10
223.756
20
-113.661
11
223.777
21
-113.657
0
LINE
8
BLACK
6
CONTINUOUS
10
223.777
20
-113.657
11
225.289
21
-113.657
0
LINE
8
BLACK
6
CONTINUOUS
10
225.289
20
-113.657
11
225.372
21
-113.676
0
LINE
8
BLACK
6
CONTINUOUS
10
218.818
20
-113.664
11
218.848
21
-113.666
0
LINE
8
BLACK
6
CONTINUOUS
10
218.848
20
-113.666
11
219.302
21
-113.818
0
LINE
8
BLACK
6
CONTINUOUS
10
219.302
20
-113.818
11
219.374
21
-113.862
0
LINE
8
BLACK
6
CONTINUOUS
10
219.374
20
-113.862
11
219.42
21
-113.933
0
LINE
8
BLACK
6
CONTINUOUS
10
219.42
20
-113.933
11
219.431
21
-114.017
0
LINE
8
BLACK
6
CONTINUOUS
10
219.431
20
-114.017
11
219.404
21
-114.097
0
LINE
8
BLACK
6
CONTINUOUS
10
219.404
20
-114.097
11
219.345
21
-114.158
0
LINE
8
BLACK
6
CONTINUOUS
10
219.345
20
-114.158
11
219.265
21
-114.187
0
LINE
8
BLACK
6
CONTINUOUS
10
219.265
20
-114.187
11
219.181
21
-114.179
0
LINE
8
BLACK
6
CONTINUOUS
10
219.181
20
-114.179
11
218.757
21
-114.038
0
LINE
8
BLACK
6
CONTINUOUS
10
218.757
20
-114.038
11
218.077
21
-114.038
0
LINE
8
BLACK
6
CONTINUOUS
10
218.077
20
-114.038
11
217.842
21
-114.155
0
LINE
8
BLACK
6
CONTINUOUS
10
217.842
20
-114.155
11
217.735
21
-114.262
0
LINE
8
BLACK
6
CONTINUOUS
10
217.735
20
-114.262
11
217.618
21
-114.497
0
LINE
8
BLACK
6
CONTINUOUS
10
217.618
20
-114.497
11
217.618
21
-114.709
0
LINE
8
BLACK
6
CONTINUOUS
10
217.618
20
-114.709
11
217.735
21
-114.944
0
LINE
8
BLACK
6
CONTINUOUS
10
217.735
20
-114.944
11
217.842
21
-115.051
0
LINE
8
BLACK
6
CONTINUOUS
10
217.842
20
-115.051
11
218.098
21
-115.179
0
LINE
8
BLACK
6
CONTINUOUS
10
218.098
20
-115.179
11
218.683
21
-115.326
0
LINE
8
BLACK
6
CONTINUOUS
10
218.683
20
-115.326
11
218.702
21
-115.335
0
LINE
8
BLACK
6
CONTINUOUS
10
218.702
20
-115.335
11
218.722
21
-115.34
0
LINE
8
BLACK
6
CONTINUOUS
10
218.722
20
-115.34
11
219.024
21
-115.491
0
LINE
8
BLACK
6
CONTINUOUS
10
219.024
20
-115.491
11
219.048
21
-115.511
0
LINE
8
BLACK
6
CONTINUOUS
10
219.048
20
-115.511
11
219.074
21
-115.527
0
LINE
8
BLACK
6
CONTINUOUS
10
219.074
20
-115.527
11
219.225
21
-115.678
0
LINE
8
BLACK
6
CONTINUOUS
10
219.225
20
-115.678
11
219.241
21
-115.704
0
LINE
8
BLACK
6
CONTINUOUS
10
219.241
20
-115.704
11
219.261
21
-115.727
0
LINE
8
BLACK
6
CONTINUOUS
10
219.261
20
-115.727
11
219.412
21
-116.03
0
LINE
8
BLACK
6
CONTINUOUS
10
219.412
20
-116.03
11
219.412
21
-116.031
0
LINE
8
BLACK
6
CONTINUOUS
10
219.412
20
-116.031
11
219.413
21
-116.032
0
LINE
8
BLACK
6
CONTINUOUS
10
219.413
20
-116.032
11
219.422
21
-116.073
0
LINE
8
BLACK
6
CONTINUOUS
10
219.422
20
-116.073
11
219.432
21
-116.112
0
LINE
8
BLACK
6
CONTINUOUS
10
219.432
20
-116.112
11
219.432
21
-116.114
0
LINE
8
BLACK
6
CONTINUOUS
10
219.432
20
-116.114
11
219.432
21
-116.115
0
LINE
8
BLACK
6
CONTINUOUS
10
219.432
20
-116.115
11
219.432
21
-116.418
0
LINE
8
BLACK
6
CONTINUOUS
10
219.432
20
-116.418
11
219.432
21
-116.419
0
LINE
8
BLACK
6
CONTINUOUS
10
219.432
20
-116.419
11
219.432
21
-116.42
0
LINE
8
BLACK
6
CONTINUOUS
10
219.432
20
-116.42
11
219.422
21
-116.46
0
LINE
8
BLACK
6
CONTINUOUS
10
219.422
20
-116.46
11
219.413
21
-116.5
0
LINE
8
BLACK
6
CONTINUOUS
10
219.413
20
-116.5
11
219.412
21
-116.501
0
LINE
8
BLACK
6
CONTINUOUS
10
219.412
20
-116.501
11
219.412
21
-116.503
0
LINE
8
BLACK
6
CONTINUOUS
10
219.412
20
-116.503
11
219.26
21
-116.805
0
LINE
8
BLACK
6
CONTINUOUS
10
219.26
20
-116.805
11
219.241
21
-116.829
0
LINE
8
BLACK
6
CONTINUOUS
10
219.241
20
-116.829
11
219.225
21
-116.855
0
LINE
8
BLACK
6
CONTINUOUS
10
219.225
20
-116.855
11
219.073
21
-117.006
0
LINE
8
BLACK
6
CONTINUOUS
10
219.073
20
-117.006
11
219.048
21
-117.022
0
LINE
8
BLACK
6
CONTINUOUS
10
219.048
20
-117.022
11
219.024
21
-117.041
0
LINE
8
BLACK
6
CONTINUOUS
10
219.024
20
-117.041
11
218.721
21
-117.193
0
LINE
8
BLACK
6
CONTINUOUS
10
218.721
20
-117.193
11
218.72
21
-117.193
0
LINE
8
BLACK
6
CONTINUOUS
10
218.72
20
-117.193
11
218.719
21
-117.194
0
LINE
8
BLACK
6
CONTINUOUS
10
218.719
20
-117.194
11
218.679
21
-117.203
0
LINE
8
BLACK
6
CONTINUOUS
10
218.679
20
-117.203
11
218.639
21
-117.213
0
LINE
8
BLACK
6
CONTINUOUS
10
218.639
20
-117.213
11
218.638
21
-117.212
0
LINE
8
BLACK
6
CONTINUOUS
10
218.638
20
-117.212
11
218.637
21
-117.213
0
LINE
8
BLACK
6
CONTINUOUS
10
218.637
20
-117.213
11
217.88
21
-117.213
0
LINE
8
BLACK
6
CONTINUOUS
10
217.88
20
-117.213
11
217.851
21
-117.206
0
LINE
8
BLACK
6
CONTINUOUS
10
217.851
20
-117.206
11
217.82
21
-117.203
0
LINE
8
BLACK
6
CONTINUOUS
10
217.82
20
-117.203
11
217.366
21
-117.052
0
LINE
8
BLACK
6
CONTINUOUS
10
217.366
20
-117.052
11
217.294
21
-117.007
0
LINE
8
BLACK
6
CONTINUOUS
10
217.294
20
-117.007
11
217.248
21
-116.936
0
LINE
8
BLACK
6
CONTINUOUS
10
217.248
20
-116.936
11
217.237
21
-116.852
0
LINE
8
BLACK
6
CONTINUOUS
10
217.237
20
-116.852
11
217.264
21
-116.772
0
LINE
8
BLACK
6
CONTINUOUS
10
217.264
20
-116.772
11
217.323
21
-116.711
0
LINE
8
BLACK
6
CONTINUOUS
10
217.323
20
-116.711
11
217.403
21
-116.682
0
LINE
8
BLACK
6
CONTINUOUS
10
217.403
20
-116.682
11
217.487
21
-116.69
0
LINE
8
BLACK
6
CONTINUOUS
10
217.487
20
-116.69
11
217.912
21
-116.832
0
LINE
8
BLACK
6
CONTINUOUS
10
217.912
20
-116.832
11
218.592
21
-116.832
0
LINE
8
BLACK
6
CONTINUOUS
10
218.592
20
-116.832
11
218.826
21
-116.714
0
LINE
8
BLACK
6
CONTINUOUS
10
218.826
20
-116.714
11
218.934
21
-116.607
0
LINE
8
BLACK
6
CONTINUOUS
10
218.934
20
-116.607
11
219.051
21
-116.372
0
LINE
8
BLACK
6
CONTINUOUS
10
219.051
20
-116.372
11
219.051
21
-116.16
0
LINE
8
BLACK
6
CONTINUOUS
10
219.051
20
-116.16
11
218.934
21
-115.926
0
LINE
8
BLACK
6
CONTINUOUS
10
218.934
20
-115.926
11
218.826
21
-115.818
0
LINE
8
BLACK
6
CONTINUOUS
10
218.826
20
-115.818
11
218.57
21
-115.69
0
LINE
8
BLACK
6
CONTINUOUS
10
218.57
20
-115.69
11
217.985
21
-115.544
0
LINE
8
BLACK
6
CONTINUOUS
10
217.985
20
-115.544
11
217.967
21
-115.534
0
LINE
8
BLACK
6
CONTINUOUS
10
217.967
20
-115.534
11
217.947
21
-115.529
0
LINE
8
BLACK
6
CONTINUOUS
10
217.947
20
-115.529
11
217.644
21
-115.378
0
LINE
8
BLACK
6
CONTINUOUS
10
217.644
20
-115.378
11
217.62
21
-115.359
0
LINE
8
BLACK
6
CONTINUOUS
10
217.62
20
-115.359
11
217.595
21
-115.343
0
LINE
8
BLACK
6
CONTINUOUS
10
217.595
20
-115.343
11
217.443
21
-115.191
0
LINE
8
BLACK
6
CONTINUOUS
10
217.443
20
-115.191
11
217.427
21
-115.165
0
LINE
8
BLACK
6
CONTINUOUS
10
217.427
20
-115.165
11
217.408
21
-115.142
0
LINE
8
BLACK
6
CONTINUOUS
10
217.408
20
-115.142
11
217.256
21
-114.839
0
LINE
8
BLACK
6
CONTINUOUS
10
217.256
20
-114.839
11
217.256
21
-114.838
0
LINE
8
BLACK
6
CONTINUOUS
10
217.256
20
-114.838
11
217.255
21
-114.837
0
LINE
8
BLACK
6
CONTINUOUS
10
217.255
20
-114.837
11
217.246
21
-114.797
0
LINE
8
BLACK
6
CONTINUOUS
10
217.246
20
-114.797
11
217.237
21
-114.757
0
LINE
8
BLACK
6
CONTINUOUS
10
217.237
20
-114.757
11
217.237
21
-114.756
0
LINE
8
BLACK
6
CONTINUOUS
10
217.237
20
-114.756
11
217.237
21
-114.754
0
LINE
8
BLACK
6
CONTINUOUS
10
217.237
20
-114.754
11
217.237
21
-114.452
0
LINE
8
BLACK
6
CONTINUOUS
10
217.237
20
-114.452
11
217.237
21
-114.45
0
LINE
8
BLACK
6
CONTINUOUS
10
217.237
20
-114.45
11
217.237
21
-114.449
0
LINE
8
BLACK
6
CONTINUOUS
10
217.237
20
-114.449
11
217.246
21
-114.409
0
LINE
8
BLACK
6
CONTINUOUS
10
217.246
20
-114.409
11
217.256
21
-114.369
0
LINE
8
BLACK
6
CONTINUOUS
10
217.256
20
-114.369
11
217.256
21
-114.368
0
LINE
8
BLACK
6
CONTINUOUS
10
217.256
20
-114.368
11
217.257
21
-114.367
0
LINE
8
BLACK
6
CONTINUOUS
10
217.257
20
-114.367
11
217.408
21
-114.064
0
LINE
8
BLACK
6
CONTINUOUS
10
217.408
20
-114.064
11
217.427
21
-114.041
0
LINE
8
BLACK
6
CONTINUOUS
10
217.427
20
-114.041
11
217.444
21
-114.015
0
LINE
8
BLACK
6
CONTINUOUS
10
217.444
20
-114.015
11
217.595
21
-113.863
0
LINE
8
BLACK
6
CONTINUOUS
10
217.595
20
-113.863
11
217.621
21
-113.847
0
LINE
8
BLACK
6
CONTINUOUS
10
217.621
20
-113.847
11
217.644
21
-113.828
0
LINE
8
BLACK
6
CONTINUOUS
10
217.644
20
-113.828
11
217.947
21
-113.677
0
LINE
8
BLACK
6
CONTINUOUS
10
217.947
20
-113.677
11
217.948
21
-113.676
0
LINE
8
BLACK
6
CONTINUOUS
10
217.948
20
-113.676
11
217.949
21
-113.676
0
LINE
8
BLACK
6
CONTINUOUS
10
217.949
20
-113.676
11
217.989
21
-113.666
0
LINE
8
BLACK
6
CONTINUOUS
10
217.989
20
-113.666
11
218.029
21
-113.657
0
LINE
8
BLACK
6
CONTINUOUS
10
218.029
20
-113.657
11
218.031
21
-113.657
0
LINE
8
BLACK
6
CONTINUOUS
10
218.031
20
-113.657
11
218.032
21
-113.657
0
LINE
8
BLACK
6
CONTINUOUS
10
218.032
20
-113.657
11
218.788
21
-113.657
0
LINE
8
BLACK
6
CONTINUOUS
10
218.788
20
-113.657
11
218.818
21
-113.664
0
LINE
8
BLACK
6
CONTINUOUS
10
231.287
20
-113.686
11
231.347
21
-113.746
0
LINE
8
BLACK
6
CONTINUOUS
10
231.347
20
-113.746
11
231.375
21
-113.826
0
LINE
8
BLACK
6
CONTINUOUS
10
231.375
20
-113.826
11
231.365
21
-113.91
0
LINE
8
BLACK
6
CONTINUOUS
10
231.365
20
-113.91
11
231.32
21
-113.982
0
LINE
8
BLACK
6
CONTINUOUS
10
231.32
20
-113.982
11
230.076
21
-115.226
0
LINE
8
BLACK
6
CONTINUOUS
10
230.076
20
-115.226
11
231.338
21
-116.908
0
LINE
8
BLACK
6
CONTINUOUS
10
231.338
20
-116.908
11
231.372
21
-116.986
0
LINE
8
BLACK
6
CONTINUOUS
10
231.372
20
-116.986
11
231.37
21
-117.07
0
LINE
8
BLACK
6
CONTINUOUS
10
231.37
20
-117.07
11
231.331
21
-117.145
0
LINE
8
BLACK
6
CONTINUOUS
10
231.331
20
-117.145
11
231.263
21
-117.196
0
LINE
8
BLACK
6
CONTINUOUS
10
231.263
20
-117.196
11
231.18
21
-117.213
0
LINE
8
BLACK
6
CONTINUOUS
10
231.18
20
-117.213
11
231.098
21
-117.191
0
LINE
8
BLACK
6
CONTINUOUS
10
231.098
20
-117.191
11
231.033
21
-117.136
0
LINE
8
BLACK
6
CONTINUOUS
10
231.033
20
-117.136
11
229.804
21
-115.498
0
LINE
8
BLACK
6
CONTINUOUS
10
229.804
20
-115.498
11
229.562
21
-115.74
0
LINE
8
BLACK
6
CONTINUOUS
10
229.562
20
-115.74
11
229.562
21
-117.023
0
LINE
8
BLACK
6
CONTINUOUS
10
229.562
20
-117.023
11
229.543
21
-117.105
0
LINE
8
BLACK
6
CONTINUOUS
10
229.543
20
-117.105
11
229.49
21
-117.171
0
LINE
8
BLACK
6
CONTINUOUS
10
229.49
20
-117.171
11
229.413
21
-117.208
0
LINE
8
BLACK
6
CONTINUOUS
10
229.413
20
-117.208
11
229.329
21
-117.208
0
LINE
8
BLACK
6
CONTINUOUS
10
229.329
20
-117.208
11
229.252
21
-117.171
0
LINE
8
BLACK
6
CONTINUOUS
10
229.252
20
-117.171
11
229.199
21
-117.105
0
LINE
8
BLACK
6
CONTINUOUS
10
229.199
20
-117.105
11
229.181
21
-117.022
0
LINE
8
BLACK
6
CONTINUOUS
10
229.181
20
-117.022
11
229.181
21
-113.847
0
LINE
8
BLACK
6
CONTINUOUS
10
229.181
20
-113.847
11
229.2
21
-113.764
0
LINE
8
BLACK
6
CONTINUOUS
10
229.2
20
-113.764
11
229.252
21
-113.698
0
LINE
8
BLACK
6
CONTINUOUS
10
229.252
20
-113.698
11
229.329
21
-113.661
0
LINE
8
BLACK
6
CONTINUOUS
10
229.329
20
-113.661
11
229.414
21
-113.661
0
LINE
8
BLACK
6
CONTINUOUS
10
229.414
20
-113.661
11
229.49
21
-113.698
0
LINE
8
BLACK
6
CONTINUOUS
10
229.49
20
-113.698
11
229.543
21
-113.765
0
LINE
8
BLACK
6
CONTINUOUS
10
229.543
20
-113.765
11
229.562
21
-113.847
0
LINE
8
BLACK
6
CONTINUOUS
10
229.562
20
-113.847
11
229.562
21
-115.202
0
LINE
8
BLACK
6
CONTINUOUS
10
229.562
20
-115.202
11
231.051
21
-113.712
0
LINE
8
BLACK
6
CONTINUOUS
10
231.051
20
-113.712
11
231.123
21
-113.667
0
LINE
8
BLACK
6
CONTINUOUS
10
231.123
20
-113.667
11
231.207
21
-113.658
0
LINE
8
BLACK
6
CONTINUOUS
10
231.207
20
-113.658
11
231.287
21
-113.686
0
LINE
8
BLACK
6
CONTINUOUS
10
236.63
20
-113.657
11
236.631
21
-113.657
0
LINE
8
BLACK
6
CONTINUOUS
10
236.631
20
-113.657
11
236.671
21
-113.666
0
LINE
8
BLACK
6
CONTINUOUS
10
236.671
20
-113.666
11
236.711
21
-113.676
0
LINE
8
BLACK
6
CONTINUOUS
10
236.711
20
-113.676
11
236.712
21
-113.676
0
LINE
8
BLACK
6
CONTINUOUS
10
236.712
20
-113.676
11
236.713
21
-113.677
0
LINE
8
BLACK
6
CONTINUOUS
10
236.713
20
-113.677
11
237.016
21
-113.828
0
LINE
8
BLACK
6
CONTINUOUS
10
237.016
20
-113.828
11
237.04
21
-113.847
0
LINE
8
BLACK
6
CONTINUOUS
10
237.04
20
-113.847
11
237.065
21
-113.864
0
LINE
8
BLACK
6
CONTINUOUS
10
237.065
20
-113.864
11
237.217
21
-114.015
0
LINE
8
BLACK
6
CONTINUOUS
10
237.217
20
-114.015
11
237.233
21
-114.041
0
LINE
8
BLACK
6
CONTINUOUS
10
237.233
20
-114.041
11
237.252
21
-114.064
0
LINE
8
BLACK
6
CONTINUOUS
10
237.252
20
-114.064
11
237.404
21
-114.367
0
LINE
8
BLACK
6
CONTINUOUS
10
237.404
20
-114.367
11
237.404
21
-114.368
0
LINE
8
BLACK
6
CONTINUOUS
10
237.404
20
-114.368
11
237.405
21
-114.369
0
LINE
8
BLACK
6
CONTINUOUS
10
237.405
20
-114.369
11
237.414
21
-114.409
0
LINE
8
BLACK
6
CONTINUOUS
10
237.414
20
-114.409
11
237.423
21
-114.449
0
LINE
8
BLACK
6
CONTINUOUS
10
237.423
20
-114.449
11
237.423
21
-114.451
0
LINE
8
BLACK
6
CONTINUOUS
10
237.423
20
-114.451
11
237.423
21
-114.452
0
LINE
8
BLACK
6
CONTINUOUS
10
237.423
20
-114.452
11
237.423
21
-114.906
0
LINE
8
BLACK
6
CONTINUOUS
10
237.423
20
-114.906
11
237.423
21
-114.907
0
LINE
8
BLACK
6
CONTINUOUS
10
237.423
20
-114.907
11
237.423
21
-114.908
0
LINE
8
BLACK
6
CONTINUOUS
10
237.423
20
-114.908
11
237.414
21
-114.948
0
LINE
8
BLACK
6
CONTINUOUS
10
237.414
20
-114.948
11
237.404
21
-114.988
0
LINE
8
BLACK
6
CONTINUOUS
10
237.404
20
-114.988
11
237.404
21
-114.989
0
LINE
8
BLACK
6
CONTINUOUS
10
237.404
20
-114.989
11
237.403
21
-114.991
0
LINE
8
BLACK
6
CONTINUOUS
10
237.403
20
-114.991
11
237.252
21
-115.293
0
LINE
8
BLACK
6
CONTINUOUS
10
237.252
20
-115.293
11
237.233
21
-115.317
0
LINE
8
BLACK
6
CONTINUOUS
10
237.233
20
-115.317
11
237.216
21
-115.343
0
LINE
8
BLACK
6
CONTINUOUS
10
237.216
20
-115.343
11
237.065
21
-115.494
0
LINE
8
BLACK
6
CONTINUOUS
10
237.065
20
-115.494
11
237.039
21
-115.51
0
LINE
8
BLACK
6
CONTINUOUS
10
237.039
20
-115.51
11
237.016
21
-115.529
0
LINE
8
BLACK
6
CONTINUOUS
10
237.016
20
-115.529
11
236.713
21
-115.681
0
LINE
8
BLACK
6
CONTINUOUS
10
236.713
20
-115.681
11
236.712
21
-115.681
0
LINE
8
BLACK
6
CONTINUOUS
10
236.712
20
-115.681
11
236.711
21
-115.682
0
LINE
8
BLACK
6
CONTINUOUS
10
236.711
20
-115.682
11
236.671
21
-115.691
0
LINE
8
BLACK
6
CONTINUOUS
10
236.671
20
-115.691
11
236.631
21
-115.701
0
LINE
8
BLACK
6
CONTINUOUS
10
236.631
20
-115.701
11
236.629
21
-115.7
0
LINE
8
BLACK
6
CONTINUOUS
10
236.629
20
-115.7
11
236.628
21
-115.701
0
LINE
8
BLACK
6
CONTINUOUS
10
236.628
20
-115.701
11
236.541
21
-115.701
0
LINE
8
BLACK
6
CONTINUOUS
10
236.541
20
-115.701
11
237.389
21
-116.913
0
LINE
8
BLACK
6
CONTINUOUS
10
237.389
20
-116.913
11
237.421
21
-116.992
0
LINE
8
BLACK
6
CONTINUOUS
10
237.421
20
-116.992
11
237.416
21
-117.076
0
LINE
8
BLACK
6
CONTINUOUS
10
237.416
20
-117.076
11
237.374
21
-117.15
0
LINE
8
BLACK
6
CONTINUOUS
10
237.374
20
-117.15
11
237.305
21
-117.199
0
LINE
8
BLACK
6
CONTINUOUS
10
237.305
20
-117.199
11
237.221
21
-117.212
0
LINE
8
BLACK
6
CONTINUOUS
10
237.221
20
-117.212
11
237.14
21
-117.188
0
LINE
8
BLACK
6
CONTINUOUS
10
237.14
20
-117.188
11
237.077
21
-117.131
0
LINE
8
BLACK
6
CONTINUOUS
10
237.077
20
-117.131
11
236.075
21
-115.701
0
LINE
8
BLACK
6
CONTINUOUS
10
236.075
20
-115.701
11
235.609
21
-115.701
0
LINE
8
BLACK
6
CONTINUOUS
10
235.609
20
-115.701
11
235.609
21
-117.023
0
LINE
8
BLACK
6
CONTINUOUS
10
235.609
20
-117.023
11
235.59
21
-117.105
0
LINE
8
BLACK
6
CONTINUOUS
10
235.59
20
-117.105
11
235.537
21
-117.171
0
LINE
8
BLACK
6
CONTINUOUS
10
235.537
20
-117.171
11
235.461
21
-117.208
0
LINE
8
BLACK
6
CONTINUOUS
10
235.461
20
-117.208
11
235.376
21
-117.208
0
LINE
8
BLACK
6
CONTINUOUS
10
235.376
20
-117.208
11
235.3
21
-117.171
0
LINE
8
BLACK
6
CONTINUOUS
10
235.3
20
-117.171
11
235.247
21
-117.105
0
LINE
8
BLACK
6
CONTINUOUS
10
235.247
20
-117.105
11
235.228
21
-117.022
0
LINE
8
BLACK
6
CONTINUOUS
10
235.228
20
-117.022
11
235.228
21
-113.847
0
LINE
8
BLACK
6
CONTINUOUS
10
235.228
20
-113.847
11
235.233
21
-113.826
0
LINE
8
BLACK
6
CONTINUOUS
10
235.233
20
-113.826
11
235.233
21
-113.805
0
LINE
8
BLACK
6
CONTINUOUS
10
235.233
20
-113.805
11
235.242
21
-113.785
0
LINE
8
BLACK
6
CONTINUOUS
10
235.242
20
-113.785
11
235.247
21
-113.764
0
LINE
8
BLACK
6
CONTINUOUS
10
235.247
20
-113.764
11
235.261
21
-113.748
0
LINE
8
BLACK
6
CONTINUOUS
10
235.261
20
-113.748
11
235.27
21
-113.728
0
LINE
8
BLACK
6
CONTINUOUS
10
235.27
20
-113.728
11
235.287
21
-113.715
0
LINE
8
BLACK
6
CONTINUOUS
10
235.287
20
-113.715
11
235.3
21
-113.698
0
LINE
8
BLACK
6
CONTINUOUS
10
235.3
20
-113.698
11
235.319
21
-113.689
0
LINE
8
BLACK
6
CONTINUOUS
10
235.319
20
-113.689
11
235.336
21
-113.676
0
LINE
8
BLACK
6
CONTINUOUS
10
235.336
20
-113.676
11
235.357
21
-113.671
0
LINE
8
BLACK
6
CONTINUOUS
10
235.357
20
-113.671
11
235.376
21
-113.661
0
LINE
8
BLACK
6
CONTINUOUS
10
235.376
20
-113.661
11
235.398
21
-113.661
0
LINE
8
BLACK
6
CONTINUOUS
10
235.398
20
-113.661
11
235.419
21
-113.657
0
LINE
8
BLACK
6
CONTINUOUS
10
235.419
20
-113.657
11
236.629
21
-113.657
0
LINE
8
BLACK
6
CONTINUOUS
10
236.629
20
-113.657
11
236.63
21
-113.657
0
LINE
8
BLACK
6
CONTINUOUS
10
235.609
20
-114.038
11
235.609
21
-115.32
0
LINE
8
BLACK
6
CONTINUOUS
10
235.609
20
-115.32
11
236.583
21
-115.32
0
LINE
8
BLACK
6
CONTINUOUS
10
236.583
20
-115.32
11
236.818
21
-115.203
0
LINE
8
BLACK
6
CONTINUOUS
10
236.818
20
-115.203
11
236.925
21
-115.095
0
LINE
8
BLACK
6
CONTINUOUS
10
236.925
20
-115.095
11
237.042
21
-114.861
0
LINE
8
BLACK
6
CONTINUOUS
10
237.042
20
-114.861
11
237.042
21
-114.497
0
LINE
8
BLACK
6
CONTINUOUS
10
237.042
20
-114.497
11
236.925
21
-114.262
0
LINE
8
BLACK
6
CONTINUOUS
10
236.925
20
-114.262
11
236.818
21
-114.155
0
LINE
8
BLACK
6
CONTINUOUS
10
236.818
20
-114.155
11
236.583
21
-114.038
0
LINE
8
BLACK
6
CONTINUOUS
10
236.583
20
-114.038
11
235.609
21
-114.038
0
LINE
8
BLACK
6
CONTINUOUS
10
227.255
20
-113.66
11
227.273
21
-113.658
0
LINE
8
BLACK
6
CONTINUOUS
10
227.273
20
-113.658
11
227.296
21
-113.665
0
LINE
8
BLACK
6
CONTINUOUS
10
227.296
20
-113.665
11
227.32
21
-113.668
0
LINE
8
BLACK
6
CONTINUOUS
10
227.32
20
-113.668
11
227.336
21
-113.679
0
LINE
8
BLACK
6
CONTINUOUS
10
227.336
20
-113.679
11
227.353
21
-113.684
0
LINE
8
BLACK
6
CONTINUOUS
10
227.353
20
-113.684
11
227.371
21
-113.701
0
LINE
8
BLACK
6
CONTINUOUS
10
227.371
20
-113.701
11
227.391
21
-113.715
0
LINE
8
BLACK
6
CONTINUOUS
10
227.391
20
-113.715
11
227.401
21
-113.73
0
LINE
8
BLACK
6
CONTINUOUS
10
227.401
20
-113.73
11
227.414
21
-113.744
0
LINE
8
BLACK
6
CONTINUOUS
10
227.414
20
-113.744
11
227.423
21
-113.766
0
LINE
8
BLACK
6
CONTINUOUS
10
227.423
20
-113.766
11
227.435
21
-113.787
0
LINE
8
BLACK
6
CONTINUOUS
10
227.435
20
-113.787
11
228.494
21
-116.962
0
LINE
8
BLACK
6
CONTINUOUS
10
228.494
20
-116.962
11
228.502
21
-117.047
0
LINE
8
BLACK
6
CONTINUOUS
10
228.502
20
-117.047
11
228.472
21
-117.126
0
LINE
8
BLACK
6
CONTINUOUS
10
228.472
20
-117.126
11
228.412
21
-117.185
0
LINE
8
BLACK
6
CONTINUOUS
10
228.412
20
-117.185
11
228.331
21
-117.212
0
LINE
8
BLACK
6
CONTINUOUS
10
228.331
20
-117.212
11
228.247
21
-117.201
0
LINE
8
BLACK
6
CONTINUOUS
10
228.247
20
-117.201
11
228.176
21
-117.155
0
LINE
8
BLACK
6
CONTINUOUS
10
228.176
20
-117.155
11
228.132
21
-117.082
0
LINE
8
BLACK
6
CONTINUOUS
10
228.132
20
-117.082
11
227.873
21
-116.306
0
LINE
8
BLACK
6
CONTINUOUS
10
227.873
20
-116.306
11
226.636
21
-116.306
0
LINE
8
BLACK
6
CONTINUOUS
10
226.636
20
-116.306
11
226.377
21
-117.083
0
LINE
8
BLACK
6
CONTINUOUS
10
226.377
20
-117.083
11
226.333
21
-117.155
0
LINE
8
BLACK
6
CONTINUOUS
10
226.333
20
-117.155
11
226.261
21
-117.201
0
LINE
8
BLACK
6
CONTINUOUS
10
226.261
20
-117.201
11
226.177
21
-117.212
0
LINE
8
BLACK
6
CONTINUOUS
10
226.177
20
-117.212
11
226.097
21
-117.185
0
LINE
8
BLACK
6
CONTINUOUS
10
226.097
20
-117.185
11
226.036
21
-117.126
0
LINE
8
BLACK
6
CONTINUOUS
10
226.036
20
-117.126
11
226.007
21
-117.046
0
LINE
8
BLACK
6
CONTINUOUS
10
226.007
20
-117.046
11
226.015
21
-116.962
0
LINE
8
BLACK
6
CONTINUOUS
10
226.015
20
-116.962
11
227.074
21
-113.787
0
LINE
8
BLACK
6
CONTINUOUS
10
227.074
20
-113.787
11
227.086
21
-113.766
0
LINE
8
BLACK
6
CONTINUOUS
10
227.086
20
-113.766
11
227.095
21
-113.743
0
LINE
8
BLACK
6
CONTINUOUS
10
227.095
20
-113.743
11
227.108
21
-113.73
0
LINE
8
BLACK
6
CONTINUOUS
10
227.108
20
-113.73
11
227.118
21
-113.714
0
LINE
8
BLACK
6
CONTINUOUS
10
227.118
20
-113.714
11
227.138
21
-113.701
0
LINE
8
BLACK
6
CONTINUOUS
10
227.138
20
-113.701
11
227.156
21
-113.684
0
LINE
8
BLACK
6
CONTINUOUS
10
227.156
20
-113.684
11
227.173
21
-113.678
0
LINE
8
BLACK
6
CONTINUOUS
10
227.173
20
-113.678
11
227.189
21
-113.668
0
LINE
8
BLACK
6
CONTINUOUS
10
227.189
20
-113.668
11
227.213
21
-113.665
0
LINE
8
BLACK
6
CONTINUOUS
10
227.213
20
-113.665
11
227.236
21
-113.658
0
LINE
8
BLACK
6
CONTINUOUS
10
227.236
20
-113.658
11
227.255
21
-113.66
0
LINE
8
BLACK
6
CONTINUOUS
10
226.763
20
-115.925
11
227.746
21
-115.925
0
LINE
8
BLACK
6
CONTINUOUS
10
227.746
20
-115.925
11
227.254
21
-114.45
0
LINE
8
BLACK
6
CONTINUOUS
10
227.254
20
-114.45
11
226.763
21
-115.925
0
LINE
8
BLACK
6
CONTINUOUS
10
221.813
20
-113.657
11
221.814
21
-113.657
0
LINE
8
BLACK
6
CONTINUOUS
10
221.814
20
-113.657
11
221.854
21
-113.666
0
LINE
8
BLACK
6
CONTINUOUS
10
221.854
20
-113.666
11
221.894
21
-113.676
0
LINE
8
BLACK
6
CONTINUOUS
10
221.894
20
-113.676
11
221.895
21
-113.676
0
LINE
8
BLACK
6
CONTINUOUS
10
221.895
20
-113.676
11
221.897
21
-113.677
0
LINE
8
BLACK
6
CONTINUOUS
10
221.897
20
-113.677
11
222.199
21
-113.828
0
LINE
8
BLACK
6
CONTINUOUS
10
222.199
20
-113.828
11
222.223
21
-113.847
0
LINE
8
BLACK
6
CONTINUOUS
10
222.223
20
-113.847
11
222.249
21
-113.864
0
LINE
8
BLACK
6
CONTINUOUS
10
222.249
20
-113.864
11
222.4
21
-114.015
0
LINE
8
BLACK
6
CONTINUOUS
10
222.4
20
-114.015
11
222.416
21
-114.041
0
LINE
8
BLACK
6
CONTINUOUS
10
222.416
20
-114.041
11
222.436
21
-114.064
0
LINE
8
BLACK
6
CONTINUOUS
10
222.436
20
-114.064
11
222.587
21
-114.367
0
LINE
8
BLACK
6
CONTINUOUS
10
222.587
20
-114.367
11
222.587
21
-114.368
0
LINE
8
BLACK
6
CONTINUOUS
10
222.587
20
-114.368
11
222.588
21
-114.369
0
LINE
8
BLACK
6
CONTINUOUS
10
222.588
20
-114.369
11
222.597
21
-114.409
0
LINE
8
BLACK
6
CONTINUOUS
10
222.597
20
-114.409
11
222.607
21
-114.449
0
LINE
8
BLACK
6
CONTINUOUS
10
222.607
20
-114.449
11
222.607
21
-114.451
0
LINE
8
BLACK
6
CONTINUOUS
10
222.607
20
-114.451
11
222.607
21
-114.452
0
LINE
8
BLACK
6
CONTINUOUS
10
222.607
20
-114.452
11
222.607
21
-114.906
0
LINE
8
BLACK
6
CONTINUOUS
10
222.607
20
-114.906
11
222.607
21
-114.907
0
LINE
8
BLACK
6
CONTINUOUS
10
222.607
20
-114.907
11
222.607
21
-114.908
0
LINE
8
BLACK
6
CONTINUOUS
10
222.607
20
-114.908
11
222.597
21
-114.948
0
LINE
8
BLACK
6
CONTINUOUS
10
222.597
20
-114.948
11
222.588
21
-114.988
0
LINE
8
BLACK
6
CONTINUOUS
10
222.588
20
-114.988
11
222.587
21
-114.989
0
LINE
8
BLACK
6
CONTINUOUS
10
222.587
20
-114.989
11
222.587
21
-114.991
0
LINE
8
BLACK
6
CONTINUOUS
10
222.587
20
-114.991
11
222.435
21
-115.293
0
LINE
8
BLACK
6
CONTINUOUS
10
222.435
20
-115.293
11
222.416
21
-115.317
0
LINE
8
BLACK
6
CONTINUOUS
10
222.416
20
-115.317
11
222.4
21
-115.343
0
LINE
8
BLACK
6
CONTINUOUS
10
222.4
20
-115.343
11
222.248
21
-115.494
0
LINE
8
BLACK
6
CONTINUOUS
10
222.248
20
-115.494
11
222.223
21
-115.51
0
LINE
8
BLACK
6
CONTINUOUS
10
222.223
20
-115.51
11
222.199
21
-115.529
0
LINE
8
BLACK
6
CONTINUOUS
10
222.199
20
-115.529
11
221.896
21
-115.681
0
LINE
8
BLACK
6
CONTINUOUS
10
221.896
20
-115.681
11
221.895
21
-115.681
0
LINE
8
BLACK
6
CONTINUOUS
10
221.895
20
-115.681
11
221.894
21
-115.682
0
LINE
8
BLACK
6
CONTINUOUS
10
221.894
20
-115.682
11
221.854
21
-115.691
0
LINE
8
BLACK
6
CONTINUOUS
10
221.854
20
-115.691
11
221.814
21
-115.701
0
LINE
8
BLACK
6
CONTINUOUS
10
221.814
20
-115.701
11
221.813
21
-115.7
0
LINE
8
BLACK
6
CONTINUOUS
10
221.813
20
-115.7
11
221.812
21
-115.701
0
LINE
8
BLACK
6
CONTINUOUS
10
221.812
20
-115.701
11
220.793
21
-115.701
0
LINE
8
BLACK
6
CONTINUOUS
10
220.793
20
-115.701
11
220.793
21
-117.023
0
LINE
8
BLACK
6
CONTINUOUS
10
220.793
20
-117.023
11
220.774
21
-117.105
0
LINE
8
BLACK
6
CONTINUOUS
10
220.774
20
-117.105
11
220.721
21
-117.171
0
LINE
8
BLACK
6
CONTINUOUS
10
220.721
20
-117.171
11
220.644
21
-117.208
0
LINE
8
BLACK
6
CONTINUOUS
10
220.644
20
-117.208
11
220.559
21
-117.208
0
LINE
8
BLACK
6
CONTINUOUS
10
220.559
20
-117.208
11
220.483
21
-117.171
0
LINE
8
BLACK
6
CONTINUOUS
10
220.483
20
-117.171
11
220.43
21
-117.105
0
LINE
8
BLACK
6
CONTINUOUS
10
220.43
20
-117.105
11
220.412
21
-117.022
0
LINE
8
BLACK
6
CONTINUOUS
10
220.412
20
-117.022
11
220.412
21
-113.847
0
LINE
8
BLACK
6
CONTINUOUS
10
220.412
20
-113.847
11
220.416
21
-113.826
0
LINE
8
BLACK
6
CONTINUOUS
10
220.416
20
-113.826
11
220.416
21
-113.805
0
LINE
8
BLACK
6
CONTINUOUS
10
220.416
20
-113.805
11
220.426
21
-113.785
0
LINE
8
BLACK
6
CONTINUOUS
10
220.426
20
-113.785
11
220.431
21
-113.764
0
LINE
8
BLACK
6
CONTINUOUS
10
220.431
20
-113.764
11
220.444
21
-113.748
0
LINE
8
BLACK
6
CONTINUOUS
10
220.444
20
-113.748
11
220.453
21
-113.728
0
LINE
8
BLACK
6
CONTINUOUS
10
220.453
20
-113.728
11
220.47
21
-113.715
0
LINE
8
BLACK
6
CONTINUOUS
10
220.47
20
-113.715
11
220.483
21
-113.698
0
LINE
8
BLACK
6
CONTINUOUS
10
220.483
20
-113.698
11
220.503
21
-113.689
0
LINE
8
BLACK
6
CONTINUOUS
10
220.503
20
-113.689
11
220.519
21
-113.676
0
LINE
8
BLACK
6
CONTINUOUS
10
220.519
20
-113.676
11
220.54
21
-113.671
0
LINE
8
BLACK
6
CONTINUOUS
10
220.54
20
-113.671
11
220.56
21
-113.661
0
LINE
8
BLACK
6
CONTINUOUS
10
220.56
20
-113.661
11
220.581
21
-113.661
0
LINE
8
BLACK
6
CONTINUOUS
10
220.581
20
-113.661
11
220.602
21
-113.657
0
LINE
8
BLACK
6
CONTINUOUS
10
220.602
20
-113.657
11
221.812
21
-113.657
0
LINE
8
BLACK
6
CONTINUOUS
10
221.812
20
-113.657
11
221.813
21
-113.657
0
LINE
8
BLACK
6
CONTINUOUS
10
220.793
20
-114.038
11
220.793
21
-115.32
0
LINE
8
BLACK
6
CONTINUOUS
10
220.793
20
-115.32
11
221.767
21
-115.32
0
LINE
8
BLACK
6
CONTINUOUS
10
221.767
20
-115.32
11
222.001
21
-115.203
0
LINE
8
BLACK
6
CONTINUOUS
10
222.001
20
-115.203
11
222.109
21
-115.095
0
LINE
8
BLACK
6
CONTINUOUS
10
222.109
20
-115.095
11
222.226
21
-114.861
0
LINE
8
BLACK
6
CONTINUOUS
10
222.226
20
-114.861
11
222.226
21
-114.497
0
LINE
8
BLACK
6
CONTINUOUS
10
222.226
20
-114.497
11
222.109
21
-114.262
0
LINE
8
BLACK
6
CONTINUOUS
10
222.109
20
-114.262
11
222.001
21
-114.155
0
LINE
8
BLACK
6
CONTINUOUS
10
222.001
20
-114.155
11
221.767
21
-114.038
0
LINE
8
BLACK
6
CONTINUOUS
10
221.767
20
-114.038
11
220.793
21
-114.038
0
LINE
8
BLACK
6
CONTINUOUS
10
93.307
20
-112.39
11
93.3731
21
-112.443
0
LINE
8
BLACK
6
CONTINUOUS
10
93.3731
20
-112.443
11
93.4098
21
-112.519
0
LINE
8
BLACK
6
CONTINUOUS
10
93.4098
20
-112.519
11
93.4097
21
-112.604
0
LINE
8
BLACK
6
CONTINUOUS
10
93.4097
20
-112.604
11
93.3729
21
-112.68
0
LINE
8
BLACK
6
CONTINUOUS
10
93.3729
20
-112.68
11
93.3067
21
-112.733
0
LINE
8
BLACK
6
CONTINUOUS
10
93.3067
20
-112.733
11
93.224
21
-112.752
0
LINE
8
BLACK
6
CONTINUOUS
10
93.224
20
-112.752
11
92.6643
21
-112.752
0
LINE
8
BLACK
6
CONTINUOUS
10
92.6643
20
-112.752
11
92.4297
21
-112.869
0
LINE
8
BLACK
6
CONTINUOUS
10
92.4297
20
-112.869
11
92.3138
21
-112.985
0
LINE
8
BLACK
6
CONTINUOUS
10
92.3138
20
-112.985
11
92.0401
21
-113.395
0
LINE
8
BLACK
6
CONTINUOUS
10
92.0401
20
-113.395
11
91.9542
21
-113.739
0
LINE
8
BLACK
6
CONTINUOUS
10
91.9542
20
-113.739
11
92.232
21
-113.6
0
LINE
8
BLACK
6
CONTINUOUS
10
92.232
20
-113.6
11
92.2333
21
-113.6
0
LINE
8
BLACK
6
CONTINUOUS
10
92.2333
20
-113.6
11
92.2343
21
-113.599
0
LINE
8
BLACK
6
CONTINUOUS
10
92.2343
20
-113.599
11
92.2744
21
-113.59
0
LINE
8
BLACK
6
CONTINUOUS
10
92.2744
20
-113.59
11
92.3144
21
-113.58
0
LINE
8
BLACK
6
CONTINUOUS
10
92.3144
20
-113.58
11
92.3156
21
-113.581
0
LINE
8
BLACK
6
CONTINUOUS
10
92.3156
20
-113.581
11
92.3169
21
-113.58
0
LINE
8
BLACK
6
CONTINUOUS
10
92.3169
20
-113.58
11
92.922
21
-113.58
0
LINE
8
BLACK
6
CONTINUOUS
10
92.922
20
-113.58
11
92.9233
21
-113.581
0
LINE
8
BLACK
6
CONTINUOUS
10
92.9233
20
-113.581
11
92.9245
21
-113.58
0
LINE
8
BLACK
6
CONTINUOUS
10
92.9245
20
-113.58
11
92.9645
21
-113.59
0
LINE
8
BLACK
6
CONTINUOUS
10
92.9645
20
-113.59
11
93.0046
21
-113.599
0
LINE
8
BLACK
6
CONTINUOUS
10
93.0046
20
-113.599
11
93.0056
21
-113.6
0
LINE
8
BLACK
6
CONTINUOUS
10
93.0056
20
-113.6
11
93.0069
21
-113.6
0
LINE
8
BLACK
6
CONTINUOUS
10
93.0069
20
-113.6
11
93.3095
21
-113.752
0
LINE
8
BLACK
6
CONTINUOUS
10
93.3095
20
-113.752
11
93.333
21
-113.771
0
LINE
8
BLACK
6
CONTINUOUS
10
93.333
20
-113.771
11
93.3588
21
-113.787
0
LINE
8
BLACK
6
CONTINUOUS
10
93.3588
20
-113.787
11
93.5102
21
-113.939
0
LINE
8
BLACK
6
CONTINUOUS
10
93.5102
20
-113.939
11
93.5263
21
-113.965
0
LINE
8
BLACK
6
CONTINUOUS
10
93.5263
20
-113.965
11
93.5456
21
-113.988
0
LINE
8
BLACK
6
CONTINUOUS
10
93.5456
20
-113.988
11
93.697
21
-114.291
0
LINE
8
BLACK
6
CONTINUOUS
10
93.697
20
-114.291
11
93.6973
21
-114.292
0
LINE
8
BLACK
6
CONTINUOUS
10
93.6973
20
-114.292
11
93.6981
21
-114.293
0
LINE
8
BLACK
6
CONTINUOUS
10
93.6981
20
-114.293
11
93.7072
21
-114.333
0
LINE
8
BLACK
6
CONTINUOUS
10
93.7072
20
-114.333
11
93.7169
21
-114.373
0
LINE
8
BLACK
6
CONTINUOUS
10
93.7169
20
-114.373
11
93.7166
21
-114.374
0
LINE
8
BLACK
6
CONTINUOUS
10
93.7166
20
-114.374
11
93.7169
21
-114.376
0
LINE
8
BLACK
6
CONTINUOUS
10
93.7169
20
-114.376
11
93.7169
21
-115.132
0
LINE
8
BLACK
6
CONTINUOUS
10
93.7169
20
-115.132
11
93.7166
21
-115.133
0
LINE
8
BLACK
6
CONTINUOUS
10
93.7166
20
-115.133
11
93.7169
21
-115.134
0
LINE
8
BLACK
6
CONTINUOUS
10
93.7169
20
-115.134
11
93.7072
21
-115.174
0
LINE
8
BLACK
6
CONTINUOUS
10
93.7072
20
-115.174
11
93.6979
21
-115.214
0
LINE
8
BLACK
6
CONTINUOUS
10
93.6979
20
-115.214
11
93.6971
21
-115.215
0
LINE
8
BLACK
6
CONTINUOUS
10
93.6971
20
-115.215
11
93.6968
21
-115.217
0
LINE
8
BLACK
6
CONTINUOUS
10
93.6968
20
-115.217
11
93.5455
21
-115.519
0
LINE
8
BLACK
6
CONTINUOUS
10
93.5455
20
-115.519
11
93.5261
21
-115.543
0
LINE
8
BLACK
6
CONTINUOUS
10
93.5261
20
-115.543
11
93.5099
21
-115.569
0
LINE
8
BLACK
6
CONTINUOUS
10
93.5099
20
-115.569
11
93.3585
21
-115.72
0
LINE
8
BLACK
6
CONTINUOUS
10
93.3585
20
-115.72
11
93.3327
21
-115.736
0
LINE
8
BLACK
6
CONTINUOUS
10
93.3327
20
-115.736
11
93.3092
21
-115.756
0
LINE
8
BLACK
6
CONTINUOUS
10
93.3092
20
-115.756
11
93.0066
21
-115.907
0
LINE
8
BLACK
6
CONTINUOUS
10
93.0066
20
-115.907
11
93.0053
21
-115.907
0
LINE
8
BLACK
6
CONTINUOUS
10
93.0053
20
-115.907
11
93.0043
21
-115.908
0
LINE
8
BLACK
6
CONTINUOUS
10
93.0043
20
-115.908
11
92.9642
21
-115.917
0
LINE
8
BLACK
6
CONTINUOUS
10
92.9642
20
-115.917
11
92.9242
21
-115.927
0
LINE
8
BLACK
6
CONTINUOUS
10
92.9242
20
-115.927
11
92.9229
21
-115.927
0
LINE
8
BLACK
6
CONTINUOUS
10
92.9229
20
-115.927
11
92.9217
21
-115.927
0
LINE
8
BLACK
6
CONTINUOUS
10
92.9217
20
-115.927
11
92.3166
21
-115.927
0
LINE
8
BLACK
6
CONTINUOUS
10
92.3166
20
-115.927
11
92.3153
21
-115.927
0
LINE
8
BLACK
6
CONTINUOUS
10
92.3153
20
-115.927
11
92.314
21
-115.927
0
LINE
8
BLACK
6
CONTINUOUS
10
92.314
20
-115.927
11
92.2741
21
-115.917
0
LINE
8
BLACK
6
CONTINUOUS
10
92.2741
20
-115.917
11
92.234
21
-115.908
0
LINE
8
BLACK
6
CONTINUOUS
10
92.234
20
-115.908
11
92.233
21
-115.907
0
LINE
8
BLACK
6
CONTINUOUS
10
92.233
20
-115.907
11
92.2317
21
-115.907
0
LINE
8
BLACK
6
CONTINUOUS
10
92.2317
20
-115.907
11
91.929
21
-115.755
0
LINE
8
BLACK
6
CONTINUOUS
10
91.929
20
-115.755
11
91.9056
21
-115.736
0
LINE
8
BLACK
6
CONTINUOUS
10
91.9056
20
-115.736
11
91.8798
21
-115.72
0
LINE
8
BLACK
6
CONTINUOUS
10
91.8798
20
-115.72
11
91.7284
21
-115.568
0
LINE
8
BLACK
6
CONTINUOUS
10
91.7284
20
-115.568
11
91.7123
21
-115.543
0
LINE
8
BLACK
6
CONTINUOUS
10
91.7123
20
-115.543
11
91.6929
21
-115.519
0
LINE
8
BLACK
6
CONTINUOUS
10
91.6929
20
-115.519
11
91.5416
21
-115.216
0
LINE
8
BLACK
6
CONTINUOUS
10
91.5416
20
-115.216
11
91.5413
21
-115.215
0
LINE
8
BLACK
6
CONTINUOUS
10
91.5413
20
-115.215
11
91.5405
21
-115.214
0
LINE
8
BLACK
6
CONTINUOUS
10
91.5405
20
-115.214
11
91.5313
21
-115.174
0
LINE
8
BLACK
6
CONTINUOUS
10
91.5313
20
-115.174
11
91.5217
21
-115.134
0
LINE
8
BLACK
6
CONTINUOUS
10
91.5217
20
-115.134
11
91.5219
21
-115.133
0
LINE
8
BLACK
6
CONTINUOUS
10
91.5219
20
-115.133
11
91.5216
21
-115.132
0
LINE
8
BLACK
6
CONTINUOUS
10
91.5216
20
-115.132
11
91.5216
21
-113.922
0
LINE
8
BLACK
6
CONTINUOUS
10
91.5216
20
-113.922
11
91.5268
21
-113.899
0
LINE
8
BLACK
6
CONTINUOUS
10
91.5268
20
-113.899
11
91.5273
21
-113.876
0
LINE
8
BLACK
6
CONTINUOUS
10
91.5273
20
-113.876
11
91.6786
21
-113.271
0
LINE
8
BLACK
6
CONTINUOUS
10
91.6786
20
-113.271
11
91.6933
21
-113.242
0
LINE
8
BLACK
6
CONTINUOUS
10
91.6933
20
-113.242
11
91.7048
21
-113.212
0
LINE
8
BLACK
6
CONTINUOUS
10
91.7048
20
-113.212
11
92.0074
21
-112.758
0
LINE
8
BLACK
6
CONTINUOUS
10
92.0074
20
-112.758
11
92.021
21
-112.745
0
LINE
8
BLACK
6
CONTINUOUS
10
92.021
20
-112.745
11
92.031
21
-112.729
0
LINE
8
BLACK
6
CONTINUOUS
10
92.031
20
-112.729
11
92.1824
21
-112.578
0
LINE
8
BLACK
6
CONTINUOUS
10
92.1824
20
-112.578
11
92.2082
21
-112.561
0
LINE
8
BLACK
6
CONTINUOUS
10
92.2082
20
-112.561
11
92.2317
21
-112.542
0
LINE
8
BLACK
6
CONTINUOUS
10
92.2317
20
-112.542
11
92.5344
21
-112.391
0
LINE
8
BLACK
6
CONTINUOUS
10
92.5344
20
-112.391
11
92.5357
21
-112.39
0
LINE
8
BLACK
6
CONTINUOUS
10
92.5357
20
-112.39
11
92.5367
21
-112.39
0
LINE
8
BLACK
6
CONTINUOUS
10
92.5367
20
-112.39
11
92.5767
21
-112.381
0
LINE
8
BLACK
6
CONTINUOUS
10
92.5767
20
-112.381
11
92.6167
21
-112.371
0
LINE
8
BLACK
6
CONTINUOUS
10
92.6167
20
-112.371
11
92.618
21
-112.371
0
LINE
8
BLACK
6
CONTINUOUS
10
92.618
20
-112.371
11
92.6193
21
-112.371
0
LINE
8
BLACK
6
CONTINUOUS
10
92.6193
20
-112.371
11
93.2244
21
-112.371
0
LINE
8
BLACK
6
CONTINUOUS
10
93.2244
20
-112.371
11
93.307
21
-112.39
0
LINE
8
BLACK
6
CONTINUOUS
10
92.3619
20
-113.961
11
92.1274
21
-114.079
0
LINE
8
BLACK
6
CONTINUOUS
10
92.1274
20
-114.079
11
92.0199
21
-114.186
0
LINE
8
BLACK
6
CONTINUOUS
10
92.0199
20
-114.186
11
91.9026
21
-114.421
0
LINE
8
BLACK
6
CONTINUOUS
10
91.9026
20
-114.421
11
91.9026
21
-115.087
0
LINE
8
BLACK
6
CONTINUOUS
10
91.9026
20
-115.087
11
92.0199
21
-115.321
0
LINE
8
BLACK
6
CONTINUOUS
10
92.0199
20
-115.321
11
92.1274
21
-115.429
0
LINE
8
BLACK
6
CONTINUOUS
10
92.1274
20
-115.429
11
92.3619
21
-115.546
0
LINE
8
BLACK
6
CONTINUOUS
10
92.3619
20
-115.546
11
92.8767
21
-115.546
0
LINE
8
BLACK
6
CONTINUOUS
10
92.8767
20
-115.546
11
93.1112
21
-115.429
0
LINE
8
BLACK
6
CONTINUOUS
10
93.1112
20
-115.429
11
93.2187
21
-115.321
0
LINE
8
BLACK
6
CONTINUOUS
10
93.2187
20
-115.321
11
93.3359
21
-115.087
0
LINE
8
BLACK
6
CONTINUOUS
10
93.3359
20
-115.087
11
93.3359
21
-114.421
0
LINE
8
BLACK
6
CONTINUOUS
10
93.3359
20
-114.421
11
93.2187
21
-114.186
0
LINE
8
BLACK
6
CONTINUOUS
10
93.2187
20
-114.186
11
93.1112
21
-114.079
0
LINE
8
BLACK
6
CONTINUOUS
10
93.1112
20
-114.079
11
92.8767
21
-113.961
0
LINE
8
BLACK
6
CONTINUOUS
10
92.8767
20
-113.961
11
92.3619
21
-113.961
0
LINE
8
BLACK
6
CONTINUOUS
10
102.639
20
-113.438
11
102.679
21
-113.447
0
LINE
8
BLACK
6
CONTINUOUS
10
102.679
20
-113.447
11
102.68
21
-113.448
0
LINE
8
BLACK
6
CONTINUOUS
10
102.68
20
-113.448
11
102.681
21
-113.448
0
LINE
8
BLACK
6
CONTINUOUS
10
102.681
20
-113.448
11
102.713
21
-113.474
0
LINE
8
BLACK
6
CONTINUOUS
10
102.713
20
-113.474
11
102.746
21
-113.5
0
LINE
8
BLACK
6
CONTINUOUS
10
102.746
20
-113.5
11
102.746
21
-113.501
0
LINE
8
BLACK
6
CONTINUOUS
10
102.746
20
-113.501
11
102.747
21
-113.501
0
LINE
8
BLACK
6
CONTINUOUS
10
102.747
20
-113.501
11
102.765
21
-113.539
0
LINE
8
BLACK
6
CONTINUOUS
10
102.765
20
-113.539
11
102.783
21
-113.576
0
LINE
8
BLACK
6
CONTINUOUS
10
102.783
20
-113.576
11
102.783
21
-113.577
0
LINE
8
BLACK
6
CONTINUOUS
10
102.783
20
-113.577
11
102.784
21
-113.577
0
LINE
8
BLACK
6
CONTINUOUS
10
102.784
20
-113.577
11
102.784
21
-113.619
0
LINE
8
BLACK
6
CONTINUOUS
10
102.784
20
-113.619
11
102.784
21
-113.661
0
LINE
8
BLACK
6
CONTINUOUS
10
102.784
20
-113.661
11
102.784
21
-113.661
0
LINE
8
BLACK
6
CONTINUOUS
10
102.784
20
-113.661
11
102.784
21
-113.662
0
LINE
8
BLACK
6
CONTINUOUS
10
102.784
20
-113.662
11
102.765
21
-113.7
0
LINE
8
BLACK
6
CONTINUOUS
10
102.765
20
-113.7
11
102.748
21
-113.737
0
LINE
8
BLACK
6
CONTINUOUS
10
102.748
20
-113.737
11
101.327
21
-115.546
0
LINE
8
BLACK
6
CONTINUOUS
10
101.327
20
-115.546
11
102.598
21
-115.546
0
LINE
8
BLACK
6
CONTINUOUS
10
102.598
20
-115.546
11
102.681
21
-115.565
0
LINE
8
BLACK
6
CONTINUOUS
10
102.681
20
-115.565
11
102.747
21
-115.618
0
LINE
8
BLACK
6
CONTINUOUS
10
102.747
20
-115.618
11
102.784
21
-115.694
0
LINE
8
BLACK
6
CONTINUOUS
10
102.784
20
-115.694
11
102.784
21
-115.779
0
LINE
8
BLACK
6
CONTINUOUS
10
102.784
20
-115.779
11
102.747
21
-115.855
0
LINE
8
BLACK
6
CONTINUOUS
10
102.747
20
-115.855
11
102.68
21
-115.908
0
LINE
8
BLACK
6
CONTINUOUS
10
102.68
20
-115.908
11
102.598
21
-115.927
0
LINE
8
BLACK
6
CONTINUOUS
10
102.598
20
-115.927
11
100.934
21
-115.927
0
LINE
8
BLACK
6
CONTINUOUS
10
100.934
20
-115.927
11
100.894
21
-115.917
0
LINE
8
BLACK
6
CONTINUOUS
10
100.894
20
-115.917
11
100.853
21
-115.908
0
LINE
8
BLACK
6
CONTINUOUS
10
100.853
20
-115.908
11
100.853
21
-115.908
0
LINE
8
BLACK
6
CONTINUOUS
10
100.853
20
-115.908
11
100.852
21
-115.908
0
LINE
8
BLACK
6
CONTINUOUS
10
100.852
20
-115.908
11
100.819
21
-115.882
0
LINE
8
BLACK
6
CONTINUOUS
10
100.819
20
-115.882
11
100.787
21
-115.856
0
LINE
8
BLACK
6
CONTINUOUS
10
100.787
20
-115.856
11
100.786
21
-115.855
0
LINE
8
BLACK
6
CONTINUOUS
10
100.786
20
-115.855
11
100.786
21
-115.855
0
LINE
8
BLACK
6
CONTINUOUS
10
100.786
20
-115.855
11
100.768
21
-115.817
0
LINE
8
BLACK
6
CONTINUOUS
10
100.768
20
-115.817
11
100.749
21
-115.78
0
LINE
8
BLACK
6
CONTINUOUS
10
100.749
20
-115.78
11
100.749
21
-115.779
0
LINE
8
BLACK
6
CONTINUOUS
10
100.749
20
-115.779
11
100.749
21
-115.779
0
LINE
8
BLACK
6
CONTINUOUS
10
100.749
20
-115.779
11
100.749
21
-115.737
0
LINE
8
BLACK
6
CONTINUOUS
10
100.749
20
-115.737
11
100.749
21
-115.695
0
LINE
8
BLACK
6
CONTINUOUS
10
100.749
20
-115.695
11
100.749
21
-115.695
0
LINE
8
BLACK
6
CONTINUOUS
10
100.749
20
-115.695
11
100.749
21
-115.694
0
LINE
8
BLACK
6
CONTINUOUS
10
100.749
20
-115.694
11
100.767
21
-115.656
0
LINE
8
BLACK
6
CONTINUOUS
10
100.767
20
-115.656
11
100.785
21
-115.619
0
LINE
8
BLACK
6
CONTINUOUS
10
100.785
20
-115.619
11
102.206
21
-113.81
0
LINE
8
BLACK
6
CONTINUOUS
10
102.206
20
-113.81
11
100.934
21
-113.81
0
LINE
8
BLACK
6
CONTINUOUS
10
100.934
20
-113.81
11
100.852
21
-113.791
0
LINE
8
BLACK
6
CONTINUOUS
10
100.852
20
-113.791
11
100.786
21
-113.738
0
LINE
8
BLACK
6
CONTINUOUS
10
100.786
20
-113.738
11
100.749
21
-113.662
0
LINE
8
BLACK
6
CONTINUOUS
10
100.749
20
-113.662
11
100.749
21
-113.577
0
LINE
8
BLACK
6
CONTINUOUS
10
100.749
20
-113.577
11
100.786
21
-113.501
0
LINE
8
BLACK
6
CONTINUOUS
10
100.786
20
-113.501
11
100.852
21
-113.448
0
LINE
8
BLACK
6
CONTINUOUS
10
100.852
20
-113.448
11
100.935
21
-113.429
0
LINE
8
BLACK
6
CONTINUOUS
10
100.935
20
-113.429
11
102.598
21
-113.429
0
LINE
8
BLACK
6
CONTINUOUS
10
102.598
20
-113.429
11
102.639
21
-113.438
0
LINE
8
BLACK
6
CONTINUOUS
10
95.7959
20
-112.371
11
95.7972
21
-112.371
0
LINE
8
BLACK
6
CONTINUOUS
10
95.7972
20
-112.371
11
95.8371
21
-112.381
0
LINE
8
BLACK
6
CONTINUOUS
10
95.8371
20
-112.381
11
95.8772
21
-112.39
0
LINE
8
BLACK
6
CONTINUOUS
10
95.8772
20
-112.39
11
95.8782
21
-112.391
0
LINE
8
BLACK
6
CONTINUOUS
10
95.8782
20
-112.391
11
95.8795
21
-112.391
0
LINE
8
BLACK
6
CONTINUOUS
10
95.8795
20
-112.391
11
96.1822
21
-112.542
0
LINE
8
BLACK
6
CONTINUOUS
10
96.1822
20
-112.542
11
96.2056
21
-112.562
0
LINE
8
BLACK
6
CONTINUOUS
10
96.2056
20
-112.562
11
96.2314
21
-112.578
0
LINE
8
BLACK
6
CONTINUOUS
10
96.2314
20
-112.578
11
96.3828
21
-112.729
0
LINE
8
BLACK
6
CONTINUOUS
10
96.3828
20
-112.729
11
96.3989
21
-112.755
0
LINE
8
BLACK
6
CONTINUOUS
10
96.3989
20
-112.755
11
96.4182
21
-112.778
0
LINE
8
BLACK
6
CONTINUOUS
10
96.4182
20
-112.778
11
96.5696
21
-113.081
0
LINE
8
BLACK
6
CONTINUOUS
10
96.5696
20
-113.081
11
96.5745
21
-113.101
0
LINE
8
BLACK
6
CONTINUOUS
10
96.5745
20
-113.101
11
96.5839
21
-113.12
0
LINE
8
BLACK
6
CONTINUOUS
10
96.5839
20
-113.12
11
96.7351
21
-113.725
0
LINE
8
BLACK
6
CONTINUOUS
10
96.7351
20
-113.725
11
96.7356
21
-113.748
0
LINE
8
BLACK
6
CONTINUOUS
10
96.7356
20
-113.748
11
96.7407
21
-113.771
0
LINE
8
BLACK
6
CONTINUOUS
10
96.7407
20
-113.771
11
96.7407
21
-114.527
0
LINE
8
BLACK
6
CONTINUOUS
10
96.7407
20
-114.527
11
96.7355
21
-114.55
0
LINE
8
BLACK
6
CONTINUOUS
10
96.7355
20
-114.55
11
96.7351
21
-114.573
0
LINE
8
BLACK
6
CONTINUOUS
10
96.7351
20
-114.573
11
96.5838
21
-115.178
0
LINE
8
BLACK
6
CONTINUOUS
10
96.5838
20
-115.178
11
96.5744
21
-115.197
0
LINE
8
BLACK
6
CONTINUOUS
10
96.5744
20
-115.197
11
96.5694
21
-115.217
0
LINE
8
BLACK
6
CONTINUOUS
10
96.5694
20
-115.217
11
96.4181
21
-115.519
0
LINE
8
BLACK
6
CONTINUOUS
10
96.4181
20
-115.519
11
96.3987
21
-115.543
0
LINE
8
BLACK
6
CONTINUOUS
10
96.3987
20
-115.543
11
96.3826
21
-115.569
0
LINE
8
BLACK
6
CONTINUOUS
10
96.3826
20
-115.569
11
96.2311
21
-115.72
0
LINE
8
BLACK
6
CONTINUOUS
10
96.2311
20
-115.72
11
96.2054
21
-115.736
0
LINE
8
BLACK
6
CONTINUOUS
10
96.2054
20
-115.736
11
96.1819
21
-115.756
0
LINE
8
BLACK
6
CONTINUOUS
10
96.1819
20
-115.756
11
95.8792
21
-115.907
0
LINE
8
BLACK
6
CONTINUOUS
10
95.8792
20
-115.907
11
95.8779
21
-115.907
0
LINE
8
BLACK
6
CONTINUOUS
10
95.8779
20
-115.907
11
95.8769
21
-115.908
0
LINE
8
BLACK
6
CONTINUOUS
10
95.8769
20
-115.908
11
95.8368
21
-115.917
0
LINE
8
BLACK
6
CONTINUOUS
10
95.8368
20
-115.917
11
95.7968
21
-115.927
0
LINE
8
BLACK
6
CONTINUOUS
10
95.7968
20
-115.927
11
95.7956
21
-115.927
0
LINE
8
BLACK
6
CONTINUOUS
10
95.7956
20
-115.927
11
95.7943
21
-115.927
0
LINE
8
BLACK
6
CONTINUOUS
10
95.7943
20
-115.927
11
95.4916
21
-115.927
0
LINE
8
BLACK
6
CONTINUOUS
10
95.4916
20
-115.927
11
95.4903
21
-115.927
0
LINE
8
BLACK
6
CONTINUOUS
10
95.4903
20
-115.927
11
95.489
21
-115.927
0
LINE
8
BLACK
6
CONTINUOUS
10
95.489
20
-115.927
11
95.4491
21
-115.917
0
LINE
8
BLACK
6
CONTINUOUS
10
95.4491
20
-115.917
11
95.409
21
-115.908
0
LINE
8
BLACK
6
CONTINUOUS
10
95.409
20
-115.908
11
95.408
21
-115.907
0
LINE
8
BLACK
6
CONTINUOUS
10
95.408
20
-115.907
11
95.4067
21
-115.907
0
LINE
8
BLACK
6
CONTINUOUS
10
95.4067
20
-115.907
11
95.104
21
-115.755
0
LINE
8
BLACK
6
CONTINUOUS
10
95.104
20
-115.755
11
95.0806
21
-115.736
0
LINE
8
BLACK
6
CONTINUOUS
10
95.0806
20
-115.736
11
95.0548
21
-115.72
0
LINE
8
BLACK
6
CONTINUOUS
10
95.0548
20
-115.72
11
94.9034
21
-115.568
0
LINE
8
BLACK
6
CONTINUOUS
10
94.9034
20
-115.568
11
94.8873
21
-115.543
0
LINE
8
BLACK
6
CONTINUOUS
10
94.8873
20
-115.543
11
94.8679
21
-115.519
0
LINE
8
BLACK
6
CONTINUOUS
10
94.8679
20
-115.519
11
94.7166
21
-115.216
0
LINE
8
BLACK
6
CONTINUOUS
10
94.7166
20
-115.216
11
94.7117
21
-115.196
0
LINE
8
BLACK
6
CONTINUOUS
10
94.7117
20
-115.196
11
94.7023
21
-115.178
0
LINE
8
BLACK
6
CONTINUOUS
10
94.7023
20
-115.178
11
94.5511
21
-114.573
0
LINE
8
BLACK
6
CONTINUOUS
10
94.5511
20
-114.573
11
94.5506
21
-114.549
0
LINE
8
BLACK
6
CONTINUOUS
10
94.5506
20
-114.549
11
94.5455
21
-114.527
0
LINE
8
BLACK
6
CONTINUOUS
10
94.5455
20
-114.527
11
94.5455
21
-113.771
0
LINE
8
BLACK
6
CONTINUOUS
10
94.5455
20
-113.771
11
94.5507
21
-113.748
0
LINE
8
BLACK
6
CONTINUOUS
10
94.5507
20
-113.748
11
94.5511
21
-113.725
0
LINE
8
BLACK
6
CONTINUOUS
10
94.5511
20
-113.725
11
94.7024
21
-113.12
0
LINE
8
BLACK
6
CONTINUOUS
10
94.7024
20
-113.12
11
94.7118
21
-113.101
0
LINE
8
BLACK
6
CONTINUOUS
10
94.7118
20
-113.101
11
94.7168
21
-113.081
0
LINE
8
BLACK
6
CONTINUOUS
10
94.7168
20
-113.081
11
94.8681
21
-112.778
0
LINE
8
BLACK
6
CONTINUOUS
10
94.8681
20
-112.778
11
94.8874
21
-112.755
0
LINE
8
BLACK
6
CONTINUOUS
10
94.8874
20
-112.755
11
94.9036
21
-112.729
0
LINE
8
BLACK
6
CONTINUOUS
10
94.9036
20
-112.729
11
95.0551
21
-112.578
0
LINE
8
BLACK
6
CONTINUOUS
10
95.0551
20
-112.578
11
95.0808
21
-112.561
0
LINE
8
BLACK
6
CONTINUOUS
10
95.0808
20
-112.561
11
95.1043
21
-112.542
0
LINE
8
BLACK
6
CONTINUOUS
10
95.1043
20
-112.542
11
95.407
21
-112.391
0
LINE
8
BLACK
6
CONTINUOUS
10
95.407
20
-112.391
11
95.4083
21
-112.39
0
LINE
8
BLACK
6
CONTINUOUS
10
95.4083
20
-112.39
11
95.4093
21
-112.39
0
LINE
8
BLACK
6
CONTINUOUS
10
95.4093
20
-112.39
11
95.4494
21
-112.381
0
LINE
8
BLACK
6
CONTINUOUS
10
95.4494
20
-112.381
11
95.4894
21
-112.371
0
LINE
8
BLACK
6
CONTINUOUS
10
95.4894
20
-112.371
11
95.4906
21
-112.371
0
LINE
8
BLACK
6
CONTINUOUS
10
95.4906
20
-112.371
11
95.4919
21
-112.371
0
LINE
8
BLACK
6
CONTINUOUS
10
95.4919
20
-112.371
11
95.7946
21
-112.371
0
LINE
8
BLACK
6
CONTINUOUS
10
95.7946
20
-112.371
11
95.7959
21
-112.371
0
LINE
8
BLACK
6
CONTINUOUS
10
95.5369
20
-112.752
11
95.3024
21
-112.869
0
LINE
8
BLACK
6
CONTINUOUS
10
95.3024
20
-112.869
11
95.1949
21
-112.977
0
LINE
8
BLACK
6
CONTINUOUS
10
95.1949
20
-112.977
11
95.0669
21
-113.233
0
LINE
8
BLACK
6
CONTINUOUS
10
95.0669
20
-113.233
11
94.9265
21
-113.794
0
LINE
8
BLACK
6
CONTINUOUS
10
94.9265
20
-113.794
11
94.9265
21
-114.503
0
LINE
8
BLACK
6
CONTINUOUS
10
94.9265
20
-114.503
11
95.0669
21
-115.065
0
LINE
8
BLACK
6
CONTINUOUS
10
95.0669
20
-115.065
11
95.1949
21
-115.321
0
LINE
8
BLACK
6
CONTINUOUS
10
95.1949
20
-115.321
11
95.3024
21
-115.429
0
LINE
8
BLACK
6
CONTINUOUS
10
95.3024
20
-115.429
11
95.5369
21
-115.546
0
LINE
8
BLACK
6
CONTINUOUS
10
95.5369
20
-115.546
11
95.7493
21
-115.546
0
LINE
8
BLACK
6
CONTINUOUS
10
95.7493
20
-115.546
11
95.9838
21
-115.429
0
LINE
8
BLACK
6
CONTINUOUS
10
95.9838
20
-115.429
11
96.0913
21
-115.321
0
LINE
8
BLACK
6
CONTINUOUS
10
96.0913
20
-115.321
11
96.2193
21
-115.065
0
LINE
8
BLACK
6
CONTINUOUS
10
96.2193
20
-115.065
11
96.3597
21
-114.503
0
LINE
8
BLACK
6
CONTINUOUS
10
96.3597
20
-114.503
11
96.3597
21
-113.794
0
LINE
8
BLACK
6
CONTINUOUS
10
96.3597
20
-113.794
11
96.2193
21
-113.233
0
LINE
8
BLACK
6
CONTINUOUS
10
96.2193
20
-113.233
11
96.0913
21
-112.977
0
LINE
8
BLACK
6
CONTINUOUS
10
96.0913
20
-112.977
11
95.9838
21
-112.869
0
LINE
8
BLACK
6
CONTINUOUS
10
95.9838
20
-112.869
11
95.7493
21
-112.752
0
LINE
8
BLACK
6
CONTINUOUS
10
95.7493
20
-112.752
11
95.5369
21
-112.752
0
LINE
8
BLACK
6
CONTINUOUS
10
77.0483
20
-112.371
11
77.0495
21
-112.371
0
LINE
8
BLACK
6
CONTINUOUS
10
77.0495
20
-112.371
11
77.0895
21
-112.381
0
LINE
8
BLACK
6
CONTINUOUS
10
77.0895
20
-112.381
11
77.1296
21
-112.39
0
LINE
8
BLACK
6
CONTINUOUS
10
77.1296
20
-112.39
11
77.1306
21
-112.391
0
LINE
8
BLACK
6
CONTINUOUS
10
77.1306
20
-112.391
11
77.1319
21
-112.391
0
LINE
8
BLACK
6
CONTINUOUS
10
77.1319
20
-112.391
11
77.4345
21
-112.542
0
LINE
8
BLACK
6
CONTINUOUS
10
77.4345
20
-112.542
11
77.458
21
-112.562
0
LINE
8
BLACK
6
CONTINUOUS
10
77.458
20
-112.562
11
77.4838
21
-112.578
0
LINE
8
BLACK
6
CONTINUOUS
10
77.4838
20
-112.578
11
77.6352
21
-112.729
0
LINE
8
BLACK
6
CONTINUOUS
10
77.6352
20
-112.729
11
77.6513
21
-112.755
0
LINE
8
BLACK
6
CONTINUOUS
10
77.6513
20
-112.755
11
77.6706
21
-112.778
0
LINE
8
BLACK
6
CONTINUOUS
10
77.6706
20
-112.778
11
77.822
21
-113.081
0
LINE
8
BLACK
6
CONTINUOUS
10
77.822
20
-113.081
11
77.8223
21
-113.082
0
LINE
8
BLACK
6
CONTINUOUS
10
77.8223
20
-113.082
11
77.8231
21
-113.083
0
LINE
8
BLACK
6
CONTINUOUS
10
77.8231
20
-113.083
11
77.8322
21
-113.124
0
LINE
8
BLACK
6
CONTINUOUS
10
77.8322
20
-113.124
11
77.8419
21
-113.164
0
LINE
8
BLACK
6
CONTINUOUS
10
77.8419
20
-113.164
11
77.8416
21
-113.165
0
LINE
8
BLACK
6
CONTINUOUS
10
77.8416
20
-113.165
11
77.8419
21
-113.166
0
LINE
8
BLACK
6
CONTINUOUS
10
77.8419
20
-113.166
11
77.8419
21
-113.469
0
LINE
8
BLACK
6
CONTINUOUS
10
77.8419
20
-113.469
11
77.8351
21
-113.498
0
LINE
8
BLACK
6
CONTINUOUS
10
77.8351
20
-113.498
11
77.8322
21
-113.529
0
LINE
8
BLACK
6
CONTINUOUS
10
77.8322
20
-113.529
11
77.6809
21
-113.983
0
LINE
8
BLACK
6
CONTINUOUS
10
77.6809
20
-113.983
11
77.6802
21
-113.984
0
LINE
8
BLACK
6
CONTINUOUS
10
77.6802
20
-113.984
11
77.68
21
-113.985
0
LINE
8
BLACK
6
CONTINUOUS
10
77.68
20
-113.985
11
77.6582
21
-114.02
0
LINE
8
BLACK
6
CONTINUOUS
10
77.6582
20
-114.02
11
77.6367
21
-114.055
0
LINE
8
BLACK
6
CONTINUOUS
10
77.6367
20
-114.055
11
77.6356
21
-114.056
0
LINE
8
BLACK
6
CONTINUOUS
10
77.6356
20
-114.056
11
77.6349
21
-114.057
0
LINE
8
BLACK
6
CONTINUOUS
10
77.6349
20
-114.057
11
76.1459
21
-115.546
0
LINE
8
BLACK
6
CONTINUOUS
10
76.1459
20
-115.546
11
77.6518
21
-115.546
0
LINE
8
BLACK
6
CONTINUOUS
10
77.6518
20
-115.546
11
77.7343
21
-115.565
0
LINE
8
BLACK
6
CONTINUOUS
10
77.7343
20
-115.565
11
77.8005
21
-115.618
0
LINE
8
BLACK
6
CONTINUOUS
10
77.8005
20
-115.618
11
77.8372
21
-115.694
0
LINE
8
BLACK
6
CONTINUOUS
10
77.8372
20
-115.694
11
77.8371
21
-115.779
0
LINE
8
BLACK
6
CONTINUOUS
10
77.8371
20
-115.779
11
77.8003
21
-115.855
0
LINE
8
BLACK
6
CONTINUOUS
10
77.8003
20
-115.855
11
77.734
21
-115.908
0
LINE
8
BLACK
6
CONTINUOUS
10
77.734
20
-115.908
11
77.6514
21
-115.927
0
LINE
8
BLACK
6
CONTINUOUS
10
77.6514
20
-115.927
11
75.6856
21
-115.927
0
LINE
8
BLACK
6
CONTINUOUS
10
75.6856
20
-115.927
11
75.6751
21
-115.924
0
LINE
8
BLACK
6
CONTINUOUS
10
75.6751
20
-115.924
11
75.6644
21
-115.926
0
LINE
8
BLACK
6
CONTINUOUS
10
75.6644
20
-115.926
11
75.6342
21
-115.915
0
LINE
8
BLACK
6
CONTINUOUS
10
75.6342
20
-115.915
11
75.603
21
-115.908
0
LINE
8
BLACK
6
CONTINUOUS
10
75.603
20
-115.908
11
75.5946
21
-115.901
0
LINE
8
BLACK
6
CONTINUOUS
10
75.5946
20
-115.901
11
75.5844
21
-115.898
0
LINE
8
BLACK
6
CONTINUOUS
10
75.5844
20
-115.898
11
75.5618
21
-115.875
0
LINE
8
BLACK
6
CONTINUOUS
10
75.5618
20
-115.875
11
75.5369
21
-115.855
0
LINE
8
BLACK
6
CONTINUOUS
10
75.5369
20
-115.855
11
75.5322
21
-115.845
0
LINE
8
BLACK
6
CONTINUOUS
10
75.5322
20
-115.845
11
75.5246
21
-115.838
0
LINE
8
BLACK
6
CONTINUOUS
10
75.5246
20
-115.838
11
75.514
21
-115.807
0
LINE
8
BLACK
6
CONTINUOUS
10
75.514
20
-115.807
11
75.5002
21
-115.779
0
LINE
8
BLACK
6
CONTINUOUS
10
75.5002
20
-115.779
11
75.5002
21
-115.768
0
LINE
8
BLACK
6
CONTINUOUS
10
75.5002
20
-115.768
11
75.4966
21
-115.758
0
LINE
8
BLACK
6
CONTINUOUS
10
75.4966
20
-115.758
11
75.5002
21
-115.726
0
LINE
8
BLACK
6
CONTINUOUS
10
75.5002
20
-115.726
11
75.5003
21
-115.694
0
LINE
8
BLACK
6
CONTINUOUS
10
75.5003
20
-115.694
11
75.5049
21
-115.684
0
LINE
8
BLACK
6
CONTINUOUS
10
75.5049
20
-115.684
11
75.5062
21
-115.673
0
LINE
8
BLACK
6
CONTINUOUS
10
75.5062
20
-115.673
11
75.5232
21
-115.646
0
LINE
8
BLACK
6
CONTINUOUS
10
75.5232
20
-115.646
11
75.5371
21
-115.617
0
LINE
8
BLACK
6
CONTINUOUS
10
75.5371
20
-115.617
11
75.5455
21
-115.611
0
LINE
8
BLACK
6
CONTINUOUS
10
75.5455
20
-115.611
11
75.5512
21
-115.602
0
LINE
8
BLACK
6
CONTINUOUS
10
75.5512
20
-115.602
11
77.3337
21
-113.819
0
LINE
8
BLACK
6
CONTINUOUS
10
77.3337
20
-113.819
11
77.4609
21
-113.438
0
LINE
8
BLACK
6
CONTINUOUS
10
77.4609
20
-113.438
11
77.4609
21
-113.211
0
LINE
8
BLACK
6
CONTINUOUS
10
77.4609
20
-113.211
11
77.3437
21
-112.977
0
LINE
8
BLACK
6
CONTINUOUS
10
77.3437
20
-112.977
11
77.2362
21
-112.869
0
LINE
8
BLACK
6
CONTINUOUS
10
77.2362
20
-112.869
11
77.0017
21
-112.752
0
LINE
8
BLACK
6
CONTINUOUS
10
77.0017
20
-112.752
11
76.3357
21
-112.752
0
LINE
8
BLACK
6
CONTINUOUS
10
76.3357
20
-112.752
11
76.1012
21
-112.869
0
LINE
8
BLACK
6
CONTINUOUS
10
76.1012
20
-112.869
11
75.9716
21
-112.999
0
LINE
8
BLACK
6
CONTINUOUS
10
75.9716
20
-112.999
11
75.8998
21
-113.044
0
LINE
8
BLACK
6
CONTINUOUS
10
75.8998
20
-113.044
11
75.8156
21
-113.053
0
LINE
8
BLACK
6
CONTINUOUS
10
75.8156
20
-113.053
11
75.7356
21
-113.025
0
LINE
8
BLACK
6
CONTINUOUS
10
75.7356
20
-113.025
11
75.6758
21
-112.965
0
LINE
8
BLACK
6
CONTINUOUS
10
75.6758
20
-112.965
11
75.6478
21
-112.885
0
LINE
8
BLACK
6
CONTINUOUS
10
75.6478
20
-112.885
11
75.6573
21
-112.801
0
LINE
8
BLACK
6
CONTINUOUS
10
75.6573
20
-112.801
11
75.7024
21
-112.729
0
LINE
8
BLACK
6
CONTINUOUS
10
75.7024
20
-112.729
11
75.8539
21
-112.578
0
LINE
8
BLACK
6
CONTINUOUS
10
75.8539
20
-112.578
11
75.8796
21
-112.561
0
LINE
8
BLACK
6
CONTINUOUS
10
75.8796
20
-112.561
11
75.9031
21
-112.542
0
LINE
8
BLACK
6
CONTINUOUS
10
75.9031
20
-112.542
11
76.2058
21
-112.391
0
LINE
8
BLACK
6
CONTINUOUS
10
76.2058
20
-112.391
11
76.2071
21
-112.39
0
LINE
8
BLACK
6
CONTINUOUS
10
76.2071
20
-112.39
11
76.2081
21
-112.39
0
LINE
8
BLACK
6
CONTINUOUS
10
76.2081
20
-112.39
11
76.2482
21
-112.381
0
LINE
8
BLACK
6
CONTINUOUS
10
76.2482
20
-112.381
11
76.2882
21
-112.371
0
LINE
8
BLACK
6
CONTINUOUS
10
76.2882
20
-112.371
11
76.2894
21
-112.371
0
LINE
8
BLACK
6
CONTINUOUS
10
76.2894
20
-112.371
11
76.2907
21
-112.371
0
LINE
8
BLACK
6
CONTINUOUS
10
76.2907
20
-112.371
11
77.047
21
-112.371
0
LINE
8
BLACK
6
CONTINUOUS
10
77.047
20
-112.371
11
77.0483
21
-112.371
0
LINE
8
BLACK
6
CONTINUOUS
10
73.7336
20
-112.376
11
73.763
21
-112.376
0
LINE
8
BLACK
6
CONTINUOUS
10
73.763
20
-112.376
11
73.7751
21
-112.381
0
LINE
8
BLACK
6
CONTINUOUS
10
73.7751
20
-112.381
11
73.7884
21
-112.383
0
LINE
8
BLACK
6
CONTINUOUS
10
73.7884
20
-112.383
11
73.8128
21
-112.4
0
LINE
8
BLACK
6
CONTINUOUS
10
73.8128
20
-112.4
11
73.8393
21
-112.412
0
LINE
8
BLACK
6
CONTINUOUS
10
73.8393
20
-112.412
11
73.8477
21
-112.423
0
LINE
8
BLACK
6
CONTINUOUS
10
73.8477
20
-112.423
11
73.8589
21
-112.43
0
LINE
8
BLACK
6
CONTINUOUS
10
73.8589
20
-112.43
11
73.8738
21
-112.456
0
LINE
8
BLACK
6
CONTINUOUS
10
73.8738
20
-112.456
11
73.8921
21
-112.479
0
LINE
8
BLACK
6
CONTINUOUS
10
73.8921
20
-112.479
11
73.8951
21
-112.492
0
LINE
8
BLACK
6
CONTINUOUS
10
73.8951
20
-112.492
11
73.9019
21
-112.503
0
LINE
8
BLACK
6
CONTINUOUS
10
73.9019
20
-112.503
11
73.9044
21
-112.533
0
LINE
8
BLACK
6
CONTINUOUS
10
73.9044
20
-112.533
11
73.911
21
-112.561
0
LINE
8
BLACK
6
CONTINUOUS
10
73.911
20
-112.561
11
73.911
21
-115.546
0
LINE
8
BLACK
6
CONTINUOUS
10
73.911
20
-115.546
11
74.628
21
-115.546
0
LINE
8
BLACK
6
CONTINUOUS
10
74.628
20
-115.546
11
74.7105
21
-115.565
0
LINE
8
BLACK
6
CONTINUOUS
10
74.7105
20
-115.565
11
74.7767
21
-115.618
0
LINE
8
BLACK
6
CONTINUOUS
10
74.7767
20
-115.618
11
74.8134
21
-115.694
0
LINE
8
BLACK
6
CONTINUOUS
10
74.8134
20
-115.694
11
74.8133
21
-115.779
0
LINE
8
BLACK
6
CONTINUOUS
10
74.8133
20
-115.779
11
74.7765
21
-115.855
0
LINE
8
BLACK
6
CONTINUOUS
10
74.7765
20
-115.855
11
74.7102
21
-115.908
0
LINE
8
BLACK
6
CONTINUOUS
10
74.7102
20
-115.908
11
74.6276
21
-115.927
0
LINE
8
BLACK
6
CONTINUOUS
10
74.6276
20
-115.927
11
72.813
21
-115.927
0
LINE
8
BLACK
6
CONTINUOUS
10
72.813
20
-115.927
11
72.7304
21
-115.908
0
LINE
8
BLACK
6
CONTINUOUS
10
72.7304
20
-115.908
11
72.6642
21
-115.855
0
LINE
8
BLACK
6
CONTINUOUS
10
72.6642
20
-115.855
11
72.6276
21
-115.779
0
LINE
8
BLACK
6
CONTINUOUS
10
72.6276
20
-115.779
11
72.6276
21
-115.694
0
LINE
8
BLACK
6
CONTINUOUS
10
72.6276
20
-115.694
11
72.6645
21
-115.617
0
LINE
8
BLACK
6
CONTINUOUS
10
72.6645
20
-115.617
11
72.7307
21
-115.565
0
LINE
8
BLACK
6
CONTINUOUS
10
72.7307
20
-115.565
11
72.8133
21
-115.546
0
LINE
8
BLACK
6
CONTINUOUS
10
72.8133
20
-115.546
11
73.53
21
-115.546
0
LINE
8
BLACK
6
CONTINUOUS
10
73.53
20
-115.546
11
73.53
21
-113.172
0
LINE
8
BLACK
6
CONTINUOUS
10
73.53
20
-113.172
11
73.2502
21
-113.452
0
LINE
8
BLACK
6
CONTINUOUS
10
73.2502
20
-113.452
11
73.2244
21
-113.468
0
LINE
8
BLACK
6
CONTINUOUS
10
73.2244
20
-113.468
11
73.2009
21
-113.488
0
LINE
8
BLACK
6
CONTINUOUS
10
73.2009
20
-113.488
11
72.8982
21
-113.639
0
LINE
8
BLACK
6
CONTINUOUS
10
72.8982
20
-113.639
11
72.8159
21
-113.659
0
LINE
8
BLACK
6
CONTINUOUS
10
72.8159
20
-113.659
11
72.733
21
-113.641
0
LINE
8
BLACK
6
CONTINUOUS
10
72.733
20
-113.641
11
72.6661
21
-113.589
0
LINE
8
BLACK
6
CONTINUOUS
10
72.6661
20
-113.589
11
72.6282
21
-113.513
0
LINE
8
BLACK
6
CONTINUOUS
10
72.6282
20
-113.513
11
72.627
21
-113.429
0
LINE
8
BLACK
6
CONTINUOUS
10
72.627
20
-113.429
11
72.6627
21
-113.352
0
LINE
8
BLACK
6
CONTINUOUS
10
72.6627
20
-113.352
11
72.7281
21
-113.298
0
LINE
8
BLACK
6
CONTINUOUS
10
72.7281
20
-113.298
11
73.0029
21
-113.161
0
LINE
8
BLACK
6
CONTINUOUS
10
73.0029
20
-113.161
11
73.2701
21
-112.894
0
LINE
8
BLACK
6
CONTINUOUS
10
73.2701
20
-112.894
11
73.5622
21
-112.455
0
LINE
8
BLACK
6
CONTINUOUS
10
73.5622
20
-112.455
11
73.5835
21
-112.435
0
LINE
8
BLACK
6
CONTINUOUS
10
73.5835
20
-112.435
11
73.6019
21
-112.412
0
LINE
8
BLACK
6
CONTINUOUS
10
73.6019
20
-112.412
11
73.614
21
-112.406
0
LINE
8
BLACK
6
CONTINUOUS
10
73.614
20
-112.406
11
73.6238
21
-112.397
0
LINE
8
BLACK
6
CONTINUOUS
10
73.6238
20
-112.397
11
73.6518
21
-112.388
0
LINE
8
BLACK
6
CONTINUOUS
10
73.6518
20
-112.388
11
73.6783
21
-112.376
0
LINE
8
BLACK
6
CONTINUOUS
10
73.6783
20
-112.376
11
73.6917
21
-112.376
0
LINE
8
BLACK
6
CONTINUOUS
10
73.6917
20
-112.376
11
73.7045
21
-112.371
0
LINE
8
BLACK
6
CONTINUOUS
10
73.7045
20
-112.371
11
73.7336
21
-112.376
0
LINE
8
BLACK
6
CONTINUOUS
10
79.9209
20
-112.371
11
79.9222
21
-112.371
0
LINE
8
BLACK
6
CONTINUOUS
10
79.9222
20
-112.371
11
79.9621
21
-112.381
0
LINE
8
BLACK
6
CONTINUOUS
10
79.9621
20
-112.381
11
80.0022
21
-112.39
0
LINE
8
BLACK
6
CONTINUOUS
10
80.0022
20
-112.39
11
80.0032
21
-112.391
0
LINE
8
BLACK
6
CONTINUOUS
10
80.0032
20
-112.391
11
80.0045
21
-112.391
0
LINE
8
BLACK
6
CONTINUOUS
10
80.0045
20
-112.391
11
80.3072
21
-112.542
0
LINE
8
BLACK
6
CONTINUOUS
10
80.3072
20
-112.542
11
80.3306
21
-112.562
0
LINE
8
BLACK
6
CONTINUOUS
10
80.3306
20
-112.562
11
80.3564
21
-112.578
0
LINE
8
BLACK
6
CONTINUOUS
10
80.3564
20
-112.578
11
80.5078
21
-112.729
0
LINE
8
BLACK
6
CONTINUOUS
10
80.5078
20
-112.729
11
80.5239
21
-112.755
0
LINE
8
BLACK
6
CONTINUOUS
10
80.5239
20
-112.755
11
80.5432
21
-112.778
0
LINE
8
BLACK
6
CONTINUOUS
10
80.5432
20
-112.778
11
80.6946
21
-113.081
0
LINE
8
BLACK
6
CONTINUOUS
10
80.6946
20
-113.081
11
80.6995
21
-113.101
0
LINE
8
BLACK
6
CONTINUOUS
10
80.6995
20
-113.101
11
80.7089
21
-113.12
0
LINE
8
BLACK
6
CONTINUOUS
10
80.7089
20
-113.12
11
80.8601
21
-113.725
0
LINE
8
BLACK
6
CONTINUOUS
10
80.8601
20
-113.725
11
80.8606
21
-113.748
0
LINE
8
BLACK
6
CONTINUOUS
10
80.8606
20
-113.748
11
80.8657
21
-113.771
0
LINE
8
BLACK
6
CONTINUOUS
10
80.8657
20
-113.771
11
80.8657
21
-114.527
0
LINE
8
BLACK
6
CONTINUOUS
10
80.8657
20
-114.527
11
80.8605
21
-114.55
0
LINE
8
BLACK
6
CONTINUOUS
10
80.8605
20
-114.55
11
80.8601
21
-114.573
0
LINE
8
BLACK
6
CONTINUOUS
10
80.8601
20
-114.573
11
80.7088
21
-115.178
0
LINE
8
BLACK
6
CONTINUOUS
10
80.7088
20
-115.178
11
80.6994
21
-115.197
0
LINE
8
BLACK
6
CONTINUOUS
10
80.6994
20
-115.197
11
80.6944
21
-115.217
0
LINE
8
BLACK
6
CONTINUOUS
10
80.6944
20
-115.217
11
80.5431
21
-115.519
0
LINE
8
BLACK
6
CONTINUOUS
10
80.5431
20
-115.519
11
80.5237
21
-115.543
0
LINE
8
BLACK
6
CONTINUOUS
10
80.5237
20
-115.543
11
80.5076
21
-115.569
0
LINE
8
BLACK
6
CONTINUOUS
10
80.5076
20
-115.569
11
80.3561
21
-115.72
0
LINE
8
BLACK
6
CONTINUOUS
10
80.3561
20
-115.72
11
80.3304
21
-115.736
0
LINE
8
BLACK
6
CONTINUOUS
10
80.3304
20
-115.736
11
80.3069
21
-115.756
0
LINE
8
BLACK
6
CONTINUOUS
10
80.3069
20
-115.756
11
80.0042
21
-115.907
0
LINE
8
BLACK
6
CONTINUOUS
10
80.0042
20
-115.907
11
80.0029
21
-115.907
0
LINE
8
BLACK
6
CONTINUOUS
10
80.0029
20
-115.907
11
80.0019
21
-115.908
0
LINE
8
BLACK
6
CONTINUOUS
10
80.0019
20
-115.908
11
79.9618
21
-115.917
0
LINE
8
BLACK
6
CONTINUOUS
10
79.9618
20
-115.917
11
79.9218
21
-115.927
0
LINE
8
BLACK
6
CONTINUOUS
10
79.9218
20
-115.927
11
79.9206
21
-115.927
0
LINE
8
BLACK
6
CONTINUOUS
10
79.9206
20
-115.927
11
79.9193
21
-115.927
0
LINE
8
BLACK
6
CONTINUOUS
10
79.9193
20
-115.927
11
79.6166
21
-115.927
0
LINE
8
BLACK
6
CONTINUOUS
10
79.6166
20
-115.927
11
79.6153
21
-115.927
0
LINE
8
BLACK
6
CONTINUOUS
10
79.6153
20
-115.927
11
79.614
21
-115.927
0
LINE
8
BLACK
6
CONTINUOUS
10
79.614
20
-115.927
11
79.5741
21
-115.917
0
LINE
8
BLACK
6
CONTINUOUS
10
79.5741
20
-115.917
11
79.534
21
-115.908
0
LINE
8
BLACK
6
CONTINUOUS
10
79.534
20
-115.908
11
79.533
21
-115.907
0
LINE
8
BLACK
6
CONTINUOUS
10
79.533
20
-115.907
11
79.5317
21
-115.907
0
LINE
8
BLACK
6
CONTINUOUS
10
79.5317
20
-115.907
11
79.229
21
-115.755
0
LINE
8
BLACK
6
CONTINUOUS
10
79.229
20
-115.755
11
79.2056
21
-115.736
0
LINE
8
BLACK
6
CONTINUOUS
10
79.2056
20
-115.736
11
79.1798
21
-115.72
0
LINE
8
BLACK
6
CONTINUOUS
10
79.1798
20
-115.72
11
79.0284
21
-115.568
0
LINE
8
BLACK
6
CONTINUOUS
10
79.0284
20
-115.568
11
79.0123
21
-115.543
0
LINE
8
BLACK
6
CONTINUOUS
10
79.0123
20
-115.543
11
78.9929
21
-115.519
0
LINE
8
BLACK
6
CONTINUOUS
10
78.9929
20
-115.519
11
78.8416
21
-115.216
0
LINE
8
BLACK
6
CONTINUOUS
10
78.8416
20
-115.216
11
78.8367
21
-115.196
0
LINE
8
BLACK
6
CONTINUOUS
10
78.8367
20
-115.196
11
78.8273
21
-115.178
0
LINE
8
BLACK
6
CONTINUOUS
10
78.8273
20
-115.178
11
78.6761
21
-114.573
0
LINE
8
BLACK
6
CONTINUOUS
10
78.6761
20
-114.573
11
78.6756
21
-114.549
0
LINE
8
BLACK
6
CONTINUOUS
10
78.6756
20
-114.549
11
78.6705
21
-114.527
0
LINE
8
BLACK
6
CONTINUOUS
10
78.6705
20
-114.527
11
78.6705
21
-113.771
0
LINE
8
BLACK
6
CONTINUOUS
10
78.6705
20
-113.771
11
78.6757
21
-113.748
0
LINE
8
BLACK
6
CONTINUOUS
10
78.6757
20
-113.748
11
78.6761
21
-113.725
0
LINE
8
BLACK
6
CONTINUOUS
10
78.6761
20
-113.725
11
78.8274
21
-113.12
0
LINE
8
BLACK
6
CONTINUOUS
10
78.8274
20
-113.12
11
78.8368
21
-113.101
0
LINE
8
BLACK
6
CONTINUOUS
10
78.8368
20
-113.101
11
78.8418
21
-113.081
0
LINE
8
BLACK
6
CONTINUOUS
10
78.8418
20
-113.081
11
78.9931
21
-112.778
0
LINE
8
BLACK
6
CONTINUOUS
10
78.9931
20
-112.778
11
79.0124
21
-112.755
0
LINE
8
BLACK
6
CONTINUOUS
10
79.0124
20
-112.755
11
79.0286
21
-112.729
0
LINE
8
BLACK
6
CONTINUOUS
10
79.0286
20
-112.729
11
79.1801
21
-112.578
0
LINE
8
BLACK
6
CONTINUOUS
10
79.1801
20
-112.578
11
79.2058
21
-112.561
0
LINE
8
BLACK
6
CONTINUOUS
10
79.2058
20
-112.561
11
79.2293
21
-112.542
0
LINE
8
BLACK
6
CONTINUOUS
10
79.2293
20
-112.542
11
79.532
21
-112.391
0
LINE
8
BLACK
6
CONTINUOUS
10
79.532
20
-112.391
11
79.5333
21
-112.39
0
LINE
8
BLACK
6
CONTINUOUS
10
79.5333
20
-112.39
11
79.5343
21
-112.39
0
LINE
8
BLACK
6
CONTINUOUS
10
79.5343
20
-112.39
11
79.5744
21
-112.381
0
LINE
8
BLACK
6
CONTINUOUS
10
79.5744
20
-112.381
11
79.6144
21
-112.371
0
LINE
8
BLACK
6
CONTINUOUS
10
79.6144
20
-112.371
11
79.6156
21
-112.371
0
LINE
8
BLACK
6
CONTINUOUS
10
79.6156
20
-112.371
11
79.6169
21
-112.371
0
LINE
8
BLACK
6
CONTINUOUS
10
79.6169
20
-112.371
11
79.9196
21
-112.371
0
LINE
8
BLACK
6
CONTINUOUS
10
79.9196
20
-112.371
11
79.9209
21
-112.371
0
LINE
8
BLACK
6
CONTINUOUS
10
79.6619
20
-112.752
11
79.4274
21
-112.869
0
LINE
8
BLACK
6
CONTINUOUS
10
79.4274
20
-112.869
11
79.3199
21
-112.977
0
LINE
8
BLACK
6
CONTINUOUS
10
79.3199
20
-112.977
11
79.1919
21
-113.233
0
LINE
8
BLACK
6
CONTINUOUS
10
79.1919
20
-113.233
11
79.0515
21
-113.794
0
LINE
8
BLACK
6
CONTINUOUS
10
79.0515
20
-113.794
11
79.0515
21
-114.503
0
LINE
8
BLACK
6
CONTINUOUS
10
79.0515
20
-114.503
11
79.1919
21
-115.065
0
LINE
8
BLACK
6
CONTINUOUS
10
79.1919
20
-115.065
11
79.3199
21
-115.321
0
LINE
8
BLACK
6
CONTINUOUS
10
79.3199
20
-115.321
11
79.4274
21
-115.429
0
LINE
8
BLACK
6
CONTINUOUS
10
79.4274
20
-115.429
11
79.6619
21
-115.546
0
LINE
8
BLACK
6
CONTINUOUS
10
79.6619
20
-115.546
11
79.8743
21
-115.546
0
LINE
8
BLACK
6
CONTINUOUS
10
79.8743
20
-115.546
11
80.1088
21
-115.429
0
LINE
8
BLACK
6
CONTINUOUS
10
80.1088
20
-115.429
11
80.2163
21
-115.321
0
LINE
8
BLACK
6
CONTINUOUS
10
80.2163
20
-115.321
11
80.3443
21
-115.065
0
LINE
8
BLACK
6
CONTINUOUS
10
80.3443
20
-115.065
11
80.4847
21
-114.503
0
LINE
8
BLACK
6
CONTINUOUS
10
80.4847
20
-114.503
11
80.4847
21
-113.794
0
LINE
8
BLACK
6
CONTINUOUS
10
80.4847
20
-113.794
11
80.3443
21
-113.233
0
LINE
8
BLACK
6
CONTINUOUS
10
80.3443
20
-113.233
11
80.2163
21
-112.977
0
LINE
8
BLACK
6
CONTINUOUS
10
80.2163
20
-112.977
11
80.1088
21
-112.869
0
LINE
8
BLACK
6
CONTINUOUS
10
80.1088
20
-112.869
11
79.8743
21
-112.752
0
LINE
8
BLACK
6
CONTINUOUS
10
79.8743
20
-112.752
11
79.6619
21
-112.752
0
LINE
8
BLACK
6
CONTINUOUS
10
81.648
20
-112.382
11
81.7191
21
-112.429
0
LINE
8
BLACK
6
CONTINUOUS
10
81.7191
20
-112.429
11
81.7631
21
-112.501
0
LINE
8
BLACK
6
CONTINUOUS
10
81.7631
20
-112.501
11
82.6407
21
-115.134
0
LINE
8
BLACK
6
CONTINUOUS
10
82.6407
20
-115.134
11
83.5184
21
-112.501
0
LINE
8
BLACK
6
CONTINUOUS
10
83.5184
20
-112.501
11
83.5626
21
-112.428
0
LINE
8
BLACK
6
CONTINUOUS
10
83.5626
20
-112.428
11
83.6337
21
-112.382
0
LINE
8
BLACK
6
CONTINUOUS
10
83.6337
20
-112.382
11
83.7178
21
-112.372
0
LINE
8
BLACK
6
CONTINUOUS
10
83.7178
20
-112.372
11
83.7981
21
-112.399
0
LINE
8
BLACK
6
CONTINUOUS
10
83.7981
20
-112.399
11
83.8589
21
-112.458
0
LINE
8
BLACK
6
CONTINUOUS
10
83.8589
20
-112.458
11
83.888
21
-112.537
0
LINE
8
BLACK
6
CONTINUOUS
10
83.888
20
-112.537
11
83.8798
21
-112.622
0
LINE
8
BLACK
6
CONTINUOUS
10
83.8798
20
-112.622
11
82.8213
21
-115.797
0
LINE
8
BLACK
6
CONTINUOUS
10
82.8213
20
-115.797
11
82.8087
21
-115.818
0
LINE
8
BLACK
6
CONTINUOUS
10
82.8087
20
-115.818
11
82.8004
21
-115.84
0
LINE
8
BLACK
6
CONTINUOUS
10
82.8004
20
-115.84
11
82.7869
21
-115.853
0
LINE
8
BLACK
6
CONTINUOUS
10
82.7869
20
-115.853
11
82.7772
21
-115.869
0
LINE
8
BLACK
6
CONTINUOUS
10
82.7772
20
-115.869
11
82.7569
21
-115.882
0
LINE
8
BLACK
6
CONTINUOUS
10
82.7569
20
-115.882
11
82.7395
21
-115.899
0
LINE
8
BLACK
6
CONTINUOUS
10
82.7395
20
-115.899
11
82.7218
21
-115.905
0
LINE
8
BLACK
6
CONTINUOUS
10
82.7218
20
-115.905
11
82.7061
21
-115.915
0
LINE
8
BLACK
6
CONTINUOUS
10
82.7061
20
-115.915
11
82.6821
21
-115.918
0
LINE
8
BLACK
6
CONTINUOUS
10
82.6821
20
-115.918
11
82.6591
21
-115.926
0
LINE
8
BLACK
6
CONTINUOUS
10
82.6591
20
-115.926
11
82.6405
21
-115.924
0
LINE
8
BLACK
6
CONTINUOUS
10
82.6405
20
-115.924
11
82.622
21
-115.926
0
LINE
8
BLACK
6
CONTINUOUS
10
82.622
20
-115.926
11
82.5991
21
-115.918
0
LINE
8
BLACK
6
CONTINUOUS
10
82.5991
20
-115.918
11
82.575
21
-115.915
0
LINE
8
BLACK
6
CONTINUOUS
10
82.575
20
-115.915
11
82.5594
21
-115.905
0
LINE
8
BLACK
6
CONTINUOUS
10
82.5594
20
-115.905
11
82.5416
21
-115.899
0
LINE
8
BLACK
6
CONTINUOUS
10
82.5416
20
-115.899
11
82.5243
21
-115.882
0
LINE
8
BLACK
6
CONTINUOUS
10
82.5243
20
-115.882
11
82.504
21
-115.869
0
LINE
8
BLACK
6
CONTINUOUS
10
82.504
20
-115.869
11
82.4943
21
-115.853
0
LINE
8
BLACK
6
CONTINUOUS
10
82.4943
20
-115.853
11
82.4809
21
-115.84
0
LINE
8
BLACK
6
CONTINUOUS
10
82.4809
20
-115.84
11
82.4726
21
-115.817
0
LINE
8
BLACK
6
CONTINUOUS
10
82.4726
20
-115.817
11
82.46
21
-115.797
0
LINE
8
BLACK
6
CONTINUOUS
10
82.46
20
-115.797
11
81.4016
21
-112.621
0
LINE
8
BLACK
6
CONTINUOUS
10
81.4016
20
-112.621
11
81.3935
21
-112.537
0
LINE
8
BLACK
6
CONTINUOUS
10
81.3935
20
-112.537
11
81.4227
21
-112.457
0
LINE
8
BLACK
6
CONTINUOUS
10
81.4227
20
-112.457
11
81.4836
21
-112.398
0
LINE
8
BLACK
6
CONTINUOUS
10
81.4836
20
-112.398
11
81.564
21
-112.372
0
LINE
8
BLACK
6
CONTINUOUS
10
81.564
20
-112.372
11
81.648
21
-112.382
0
LINE
8
BLACK
6
CONTINUOUS
10
99.7678
20
-112.376
11
99.8441
21
-112.412
0
LINE
8
BLACK
6
CONTINUOUS
10
99.8441
20
-112.412
11
99.8969
21
-112.479
0
LINE
8
BLACK
6
CONTINUOUS
10
99.8969
20
-112.479
11
99.9157
21
-112.561
0
LINE
8
BLACK
6
CONTINUOUS
10
99.9157
20
-112.561
11
99.9157
21
-115.737
0
LINE
8
BLACK
6
CONTINUOUS
10
99.9157
20
-115.737
11
99.8967
21
-115.819
0
LINE
8
BLACK
6
CONTINUOUS
10
99.8967
20
-115.819
11
99.8438
21
-115.885
0
LINE
8
BLACK
6
CONTINUOUS
10
99.8438
20
-115.885
11
99.7674
21
-115.922
0
LINE
8
BLACK
6
CONTINUOUS
10
99.7674
20
-115.922
11
99.6827
21
-115.922
0
LINE
8
BLACK
6
CONTINUOUS
10
99.6827
20
-115.922
11
99.6064
21
-115.885
0
LINE
8
BLACK
6
CONTINUOUS
10
99.6064
20
-115.885
11
99.5536
21
-115.819
0
LINE
8
BLACK
6
CONTINUOUS
10
99.5536
20
-115.819
11
99.5347
21
-115.736
0
LINE
8
BLACK
6
CONTINUOUS
10
99.5347
20
-115.736
11
99.5347
21
-114.264
0
LINE
8
BLACK
6
CONTINUOUS
10
99.5347
20
-114.264
11
98.1015
21
-114.264
0
LINE
8
BLACK
6
CONTINUOUS
10
98.1015
20
-114.264
11
98.1015
21
-115.737
0
LINE
8
BLACK
6
CONTINUOUS
10
98.1015
20
-115.737
11
98.0825
21
-115.819
0
LINE
8
BLACK
6
CONTINUOUS
10
98.0825
20
-115.819
11
98.0295
21
-115.885
0
LINE
8
BLACK
6
CONTINUOUS
10
98.0295
20
-115.885
11
97.9532
21
-115.922
0
LINE
8
BLACK
6
CONTINUOUS
10
97.9532
20
-115.922
11
97.8684
21
-115.922
0
LINE
8
BLACK
6
CONTINUOUS
10
97.8684
20
-115.922
11
97.7921
21
-115.885
0
LINE
8
BLACK
6
CONTINUOUS
10
97.7921
20
-115.885
11
97.7393
21
-115.819
0
LINE
8
BLACK
6
CONTINUOUS
10
97.7393
20
-115.819
11
97.7205
21
-115.736
0
LINE
8
BLACK
6
CONTINUOUS
10
97.7205
20
-115.736
11
97.7205
21
-112.561
0
LINE
8
BLACK
6
CONTINUOUS
10
97.7205
20
-112.561
11
97.7394
21
-112.478
0
LINE
8
BLACK
6
CONTINUOUS
10
97.7394
20
-112.478
11
97.7924
21
-112.412
0
LINE
8
BLACK
6
CONTINUOUS
10
97.7924
20
-112.412
11
97.8687
21
-112.376
0
LINE
8
BLACK
6
CONTINUOUS
10
97.8687
20
-112.376
11
97.9535
21
-112.376
0
LINE
8
BLACK
6
CONTINUOUS
10
97.9535
20
-112.376
11
98.0298
21
-112.412
0
LINE
8
BLACK
6
CONTINUOUS
10
98.0298
20
-112.412
11
98.0826
21
-112.479
0
LINE
8
BLACK
6
CONTINUOUS
10
98.0826
20
-112.479
11
98.1015
21
-112.561
0
LINE
8
BLACK
6
CONTINUOUS
10
98.1015
20
-112.561
11
98.1015
21
-113.883
0
LINE
8
BLACK
6
CONTINUOUS
10
98.1015
20
-113.883
11
99.5347
21
-113.883
0
LINE
8
BLACK
6
CONTINUOUS
10
99.5347
20
-113.883
11
99.5347
21
-112.561
0
LINE
8
BLACK
6
CONTINUOUS
10
99.5347
20
-112.561
11
99.5537
21
-112.478
0
LINE
8
BLACK
6
CONTINUOUS
10
99.5537
20
-112.478
11
99.6066
21
-112.412
0
LINE
8
BLACK
6
CONTINUOUS
10
99.6066
20
-112.412
11
99.683
21
-112.376
0
LINE
8
BLACK
6
CONTINUOUS
10
99.683
20
-112.376
11
99.7678
21
-112.376
0
LINE
8
BLACK
6
CONTINUOUS
10
87.1766
20
-114.035
11
87.1793
21
-114.034
0
LINE
8
BLACK
6
CONTINUOUS
10
87.1793
20
-114.034
11
87.2179
21
-114.043
0
LINE
8
BLACK
6
CONTINUOUS
10
87.2179
20
-114.043
11
87.2567
21
-114.052
0
LINE
8
BLACK
6
CONTINUOUS
10
87.2567
20
-114.052
11
87.2589
21
-114.053
0
LINE
8
BLACK
6
CONTINUOUS
10
87.2589
20
-114.053
11
87.2616
21
-114.054
0
LINE
8
BLACK
6
CONTINUOUS
10
87.2616
20
-114.054
11
87.7812
21
-114.314
0
LINE
8
BLACK
6
CONTINUOUS
10
87.7812
20
-114.314
11
87.9707
21
-114.219
0
LINE
8
BLACK
6
CONTINUOUS
10
87.9707
20
-114.219
11
88.1003
21
-114.089
0
LINE
8
BLACK
6
CONTINUOUS
10
88.1003
20
-114.089
11
88.1721
21
-114.044
0
LINE
8
BLACK
6
CONTINUOUS
10
88.1721
20
-114.044
11
88.2563
21
-114.035
0
LINE
8
BLACK
6
CONTINUOUS
10
88.2563
20
-114.035
11
88.3363
21
-114.063
0
LINE
8
BLACK
6
CONTINUOUS
10
88.3363
20
-114.063
11
88.3961
21
-114.123
0
LINE
8
BLACK
6
CONTINUOUS
10
88.3961
20
-114.123
11
88.4241
21
-114.203
0
LINE
8
BLACK
6
CONTINUOUS
10
88.4241
20
-114.203
11
88.4146
21
-114.287
0
LINE
8
BLACK
6
CONTINUOUS
10
88.4146
20
-114.287
11
88.3695
21
-114.359
0
LINE
8
BLACK
6
CONTINUOUS
10
88.3695
20
-114.359
11
88.218
21
-114.511
0
LINE
8
BLACK
6
CONTINUOUS
10
88.218
20
-114.511
11
88.1923
21
-114.527
0
LINE
8
BLACK
6
CONTINUOUS
10
88.1923
20
-114.527
11
88.1688
21
-114.546
0
LINE
8
BLACK
6
CONTINUOUS
10
88.1688
20
-114.546
11
87.8661
21
-114.697
0
LINE
8
BLACK
6
CONTINUOUS
10
87.8661
20
-114.697
11
87.8634
21
-114.698
0
LINE
8
BLACK
6
CONTINUOUS
10
87.8634
20
-114.698
11
87.8612
21
-114.7
0
LINE
8
BLACK
6
CONTINUOUS
10
87.8612
20
-114.7
11
87.8223
21
-114.708
0
LINE
8
BLACK
6
CONTINUOUS
10
87.8223
20
-114.708
11
87.7837
21
-114.717
0
LINE
8
BLACK
6
CONTINUOUS
10
87.7837
20
-114.717
11
87.781
21
-114.717
0
LINE
8
BLACK
6
CONTINUOUS
10
87.781
20
-114.717
11
87.7783
21
-114.717
0
LINE
8
BLACK
6
CONTINUOUS
10
87.7783
20
-114.717
11
87.7397
21
-114.708
0
LINE
8
BLACK
6
CONTINUOUS
10
87.7397
20
-114.708
11
87.7009
21
-114.7
0
LINE
8
BLACK
6
CONTINUOUS
10
87.7009
20
-114.7
11
87.6987
21
-114.698
0
LINE
8
BLACK
6
CONTINUOUS
10
87.6987
20
-114.698
11
87.696
21
-114.697
0
LINE
8
BLACK
6
CONTINUOUS
10
87.696
20
-114.697
11
87.1764
21
-114.437
0
LINE
8
BLACK
6
CONTINUOUS
10
87.1764
20
-114.437
11
86.9869
21
-114.532
0
LINE
8
BLACK
6
CONTINUOUS
10
86.9869
20
-114.532
11
86.8573
21
-114.662
0
LINE
8
BLACK
6
CONTINUOUS
10
86.8573
20
-114.662
11
86.7855
21
-114.707
0
LINE
8
BLACK
6
CONTINUOUS
10
86.7855
20
-114.707
11
86.7013
21
-114.716
0
LINE
8
BLACK
6
CONTINUOUS
10
86.7013
20
-114.716
11
86.6213
21
-114.688
0
LINE
8
BLACK
6
CONTINUOUS
10
86.6213
20
-114.688
11
86.5615
21
-114.628
0
LINE
8
BLACK
6
CONTINUOUS
10
86.5615
20
-114.628
11
86.5335
21
-114.548
0
LINE
8
BLACK
6
CONTINUOUS
10
86.5335
20
-114.548
11
86.5431
21
-114.464
0
LINE
8
BLACK
6
CONTINUOUS
10
86.5431
20
-114.464
11
86.5882
21
-114.392
0
LINE
8
BLACK
6
CONTINUOUS
10
86.5882
20
-114.392
11
86.7396
21
-114.241
0
LINE
8
BLACK
6
CONTINUOUS
10
86.7396
20
-114.241
11
86.7654
21
-114.225
0
LINE
8
BLACK
6
CONTINUOUS
10
86.7654
20
-114.225
11
86.7889
21
-114.205
0
LINE
8
BLACK
6
CONTINUOUS
10
86.7889
20
-114.205
11
87.0915
21
-114.054
0
LINE
8
BLACK
6
CONTINUOUS
10
87.0915
20
-114.054
11
87.0942
21
-114.053
0
LINE
8
BLACK
6
CONTINUOUS
10
87.0942
20
-114.053
11
87.0964
21
-114.052
0
LINE
8
BLACK
6
CONTINUOUS
10
87.0964
20
-114.052
11
87.1353
21
-114.043
0
LINE
8
BLACK
6
CONTINUOUS
10
87.1353
20
-114.043
11
87.1739
21
-114.034
0
LINE
8
BLACK
6
CONTINUOUS
10
87.1739
20
-114.034
11
87.1766
21
-114.035
0
LINE
8
BLACK
6
CONTINUOUS
10
148.713
20
-109.831
11
148.714
21
-109.831
0
LINE
8
BLACK
6
CONTINUOUS
10
148.714
20
-109.831
11
148.754
21
-109.841
0
LINE
8
BLACK
6
CONTINUOUS
10
148.754
20
-109.841
11
148.794
21
-109.85
0
LINE
8
BLACK
6
CONTINUOUS
10
148.794
20
-109.85
11
148.795
21
-109.851
0
LINE
8
BLACK
6
CONTINUOUS
10
148.795
20
-109.851
11
148.796
21
-109.851
0
LINE
8
BLACK
6
CONTINUOUS
10
148.796
20
-109.851
11
149.099
21
-110.002
0
LINE
8
BLACK
6
CONTINUOUS
10
149.099
20
-110.002
11
149.122
21
-110.022
0
LINE
8
BLACK
6
CONTINUOUS
10
149.122
20
-110.022
11
149.148
21
-110.038
0
LINE
8
BLACK
6
CONTINUOUS
10
149.148
20
-110.038
11
149.451
21
-110.34
0
LINE
8
BLACK
6
CONTINUOUS
10
149.451
20
-110.34
11
149.455
21
-110.348
0
LINE
8
BLACK
6
CONTINUOUS
10
149.455
20
-110.348
11
149.462
21
-110.353
0
LINE
8
BLACK
6
CONTINUOUS
10
149.462
20
-110.353
11
149.478
21
-110.383
0
LINE
8
BLACK
6
CONTINUOUS
10
149.478
20
-110.383
11
149.496
21
-110.412
0
LINE
8
BLACK
6
CONTINUOUS
10
149.496
20
-110.412
11
149.497
21
-110.421
0
LINE
8
BLACK
6
CONTINUOUS
10
149.497
20
-110.421
11
149.501
21
-110.429
0
LINE
8
BLACK
6
CONTINUOUS
10
149.501
20
-110.429
11
149.652
21
-111.034
0
LINE
8
BLACK
6
CONTINUOUS
10
149.652
20
-111.034
11
149.652
21
-111.057
0
LINE
8
BLACK
6
CONTINUOUS
10
149.652
20
-111.057
11
149.657
21
-111.08
0
LINE
8
BLACK
6
CONTINUOUS
10
149.657
20
-111.08
11
149.657
21
-112.138
0
LINE
8
BLACK
6
CONTINUOUS
10
149.657
20
-112.138
11
149.652
21
-112.161
0
LINE
8
BLACK
6
CONTINUOUS
10
149.652
20
-112.161
11
149.652
21
-112.184
0
LINE
8
BLACK
6
CONTINUOUS
10
149.652
20
-112.184
11
149.5
21
-112.789
0
LINE
8
BLACK
6
CONTINUOUS
10
149.5
20
-112.789
11
149.496
21
-112.797
0
LINE
8
BLACK
6
CONTINUOUS
10
149.496
20
-112.797
11
149.496
21
-112.806
0
LINE
8
BLACK
6
CONTINUOUS
10
149.496
20
-112.806
11
149.477
21
-112.834
0
LINE
8
BLACK
6
CONTINUOUS
10
149.477
20
-112.834
11
149.462
21
-112.865
0
LINE
8
BLACK
6
CONTINUOUS
10
149.462
20
-112.865
11
149.455
21
-112.87
0
LINE
8
BLACK
6
CONTINUOUS
10
149.455
20
-112.87
11
149.45
21
-112.877
0
LINE
8
BLACK
6
CONTINUOUS
10
149.45
20
-112.877
11
149.148
21
-113.18
0
LINE
8
BLACK
6
CONTINUOUS
10
149.148
20
-113.18
11
149.122
21
-113.196
0
LINE
8
BLACK
6
CONTINUOUS
10
149.122
20
-113.196
11
149.099
21
-113.216
0
LINE
8
BLACK
6
CONTINUOUS
10
149.099
20
-113.216
11
148.796
21
-113.367
0
LINE
8
BLACK
6
CONTINUOUS
10
148.796
20
-113.367
11
148.795
21
-113.367
0
LINE
8
BLACK
6
CONTINUOUS
10
148.795
20
-113.367
11
148.794
21
-113.368
0
LINE
8
BLACK
6
CONTINUOUS
10
148.794
20
-113.368
11
148.753
21
-113.377
0
LINE
8
BLACK
6
CONTINUOUS
10
148.753
20
-113.377
11
148.713
21
-113.387
0
LINE
8
BLACK
6
CONTINUOUS
10
148.713
20
-113.387
11
148.712
21
-113.387
0
LINE
8
BLACK
6
CONTINUOUS
10
148.712
20
-113.387
11
148.711
21
-113.387
0
LINE
8
BLACK
6
CONTINUOUS
10
148.711
20
-113.387
11
148.106
21
-113.387
0
LINE
8
BLACK
6
CONTINUOUS
10
148.106
20
-113.387
11
148.105
21
-113.387
0
LINE
8
BLACK
6
CONTINUOUS
10
148.105
20
-113.387
11
148.103
21
-113.387
0
LINE
8
BLACK
6
CONTINUOUS
10
148.103
20
-113.387
11
148.063
21
-113.377
0
LINE
8
BLACK
6
CONTINUOUS
10
148.063
20
-113.377
11
148.023
21
-113.368
0
LINE
8
BLACK
6
CONTINUOUS
10
148.023
20
-113.368
11
148.022
21
-113.367
0
LINE
8
BLACK
6
CONTINUOUS
10
148.022
20
-113.367
11
148.021
21
-113.367
0
LINE
8
BLACK
6
CONTINUOUS
10
148.021
20
-113.367
11
147.718
21
-113.215
0
LINE
8
BLACK
6
CONTINUOUS
10
147.718
20
-113.215
11
147.695
21
-113.196
0
LINE
8
BLACK
6
CONTINUOUS
10
147.695
20
-113.196
11
147.669
21
-113.18
0
LINE
8
BLACK
6
CONTINUOUS
10
147.669
20
-113.18
11
147.366
21
-112.877
0
LINE
8
BLACK
6
CONTINUOUS
10
147.366
20
-112.877
11
147.362
21
-112.87
0
LINE
8
BLACK
6
CONTINUOUS
10
147.362
20
-112.87
11
147.355
21
-112.865
0
LINE
8
BLACK
6
CONTINUOUS
10
147.355
20
-112.865
11
147.34
21
-112.834
0
LINE
8
BLACK
6
CONTINUOUS
10
147.34
20
-112.834
11
147.322
21
-112.805
0
LINE
8
BLACK
6
CONTINUOUS
10
147.322
20
-112.805
11
147.321
21
-112.797
0
LINE
8
BLACK
6
CONTINUOUS
10
147.321
20
-112.797
11
147.317
21
-112.789
0
LINE
8
BLACK
6
CONTINUOUS
10
147.317
20
-112.789
11
147.165
21
-112.184
0
LINE
8
BLACK
6
CONTINUOUS
10
147.165
20
-112.184
11
147.165
21
-112.161
0
LINE
8
BLACK
6
CONTINUOUS
10
147.165
20
-112.161
11
147.16
21
-112.138
0
LINE
8
BLACK
6
CONTINUOUS
10
147.16
20
-112.138
11
147.16
21
-111.079
0
LINE
8
BLACK
6
CONTINUOUS
10
147.16
20
-111.079
11
147.165
21
-111.057
0
LINE
8
BLACK
6
CONTINUOUS
10
147.165
20
-111.057
11
147.165
21
-111.033
0
LINE
8
BLACK
6
CONTINUOUS
10
147.165
20
-111.033
11
147.317
21
-110.428
0
LINE
8
BLACK
6
CONTINUOUS
10
147.317
20
-110.428
11
147.321
21
-110.421
0
LINE
8
BLACK
6
CONTINUOUS
10
147.321
20
-110.421
11
147.322
21
-110.412
0
LINE
8
BLACK
6
CONTINUOUS
10
147.322
20
-110.412
11
147.34
21
-110.383
0
LINE
8
BLACK
6
CONTINUOUS
10
147.34
20
-110.383
11
147.355
21
-110.353
0
LINE
8
BLACK
6
CONTINUOUS
10
147.355
20
-110.353
11
147.362
21
-110.348
0
LINE
8
BLACK
6
CONTINUOUS
10
147.362
20
-110.348
11
147.367
21
-110.34
0
LINE
8
BLACK
6
CONTINUOUS
10
147.367
20
-110.34
11
147.669
21
-110.038
0
LINE
8
BLACK
6
CONTINUOUS
10
147.669
20
-110.038
11
147.695
21
-110.021
0
LINE
8
BLACK
6
CONTINUOUS
10
147.695
20
-110.021
11
147.719
21
-110.002
0
LINE
8
BLACK
6
CONTINUOUS
10
147.719
20
-110.002
11
148.021
21
-109.851
0
LINE
8
BLACK
6
CONTINUOUS
10
148.021
20
-109.851
11
148.023
21
-109.85
0
LINE
8
BLACK
6
CONTINUOUS
10
148.023
20
-109.85
11
148.024
21
-109.85
0
LINE
8
BLACK
6
CONTINUOUS
10
148.024
20
-109.85
11
148.064
21
-109.841
0
LINE
8
BLACK
6
CONTINUOUS
10
148.064
20
-109.841
11
148.104
21
-109.831
0
LINE
8
BLACK
6
CONTINUOUS
10
148.104
20
-109.831
11
148.105
21
-109.831
0
LINE
8
BLACK
6
CONTINUOUS
10
148.105
20
-109.831
11
148.106
21
-109.831
0
LINE
8
BLACK
6
CONTINUOUS
10
148.106
20
-109.831
11
148.711
21
-109.831
0
LINE
8
BLACK
6
CONTINUOUS
10
148.711
20
-109.831
11
148.713
21
-109.831
0
LINE
8
BLACK
6
CONTINUOUS
10
148.151
20
-110.212
11
147.917
21
-110.329
0
LINE
8
BLACK
6
CONTINUOUS
10
147.917
20
-110.329
11
147.673
21
-110.572
0
LINE
8
BLACK
6
CONTINUOUS
10
147.673
20
-110.572
11
147.541
21
-111.103
0
LINE
8
BLACK
6
CONTINUOUS
10
147.541
20
-111.103
11
147.541
21
-112.115
0
LINE
8
BLACK
6
CONTINUOUS
10
147.541
20
-112.115
11
147.673
21
-112.645
0
LINE
8
BLACK
6
CONTINUOUS
10
147.673
20
-112.645
11
147.917
21
-112.889
0
LINE
8
BLACK
6
CONTINUOUS
10
147.917
20
-112.889
11
148.151
21
-113.006
0
LINE
8
BLACK
6
CONTINUOUS
10
148.151
20
-113.006
11
148.666
21
-113.006
0
LINE
8
BLACK
6
CONTINUOUS
10
148.666
20
-113.006
11
148.9
21
-112.889
0
LINE
8
BLACK
6
CONTINUOUS
10
148.9
20
-112.889
11
149.144
21
-112.645
0
LINE
8
BLACK
6
CONTINUOUS
10
149.144
20
-112.645
11
149.276
21
-112.115
0
LINE
8
BLACK
6
CONTINUOUS
10
149.276
20
-112.115
11
149.276
21
-111.103
0
LINE
8
BLACK
6
CONTINUOUS
10
149.276
20
-111.103
11
149.144
21
-110.572
0
LINE
8
BLACK
6
CONTINUOUS
10
149.144
20
-110.572
11
148.9
21
-110.329
0
LINE
8
BLACK
6
CONTINUOUS
10
148.9
20
-110.329
11
148.666
21
-110.212
0
LINE
8
BLACK
6
CONTINUOUS
10
148.666
20
-110.212
11
148.151
21
-110.212
0
LINE
8
BLACK
6
CONTINUOUS
10
131.552
20
-109.831
11
131.554
21
-109.831
0
LINE
8
BLACK
6
CONTINUOUS
10
131.554
20
-109.831
11
131.594
21
-109.841
0
LINE
8
BLACK
6
CONTINUOUS
10
131.594
20
-109.841
11
131.634
21
-109.85
0
LINE
8
BLACK
6
CONTINUOUS
10
131.634
20
-109.85
11
131.635
21
-109.851
0
LINE
8
BLACK
6
CONTINUOUS
10
131.635
20
-109.851
11
131.636
21
-109.851
0
LINE
8
BLACK
6
CONTINUOUS
10
131.636
20
-109.851
11
131.939
21
-110.002
0
LINE
8
BLACK
6
CONTINUOUS
10
131.939
20
-110.002
11
131.962
21
-110.022
0
LINE
8
BLACK
6
CONTINUOUS
10
131.962
20
-110.022
11
131.988
21
-110.038
0
LINE
8
BLACK
6
CONTINUOUS
10
131.988
20
-110.038
11
132.139
21
-110.189
0
LINE
8
BLACK
6
CONTINUOUS
10
132.139
20
-110.189
11
132.155
21
-110.215
0
LINE
8
BLACK
6
CONTINUOUS
10
132.155
20
-110.215
11
132.175
21
-110.238
0
LINE
8
BLACK
6
CONTINUOUS
10
132.175
20
-110.238
11
132.326
21
-110.541
0
LINE
8
BLACK
6
CONTINUOUS
10
132.326
20
-110.541
11
132.326
21
-110.542
0
LINE
8
BLACK
6
CONTINUOUS
10
132.326
20
-110.542
11
132.327
21
-110.543
0
LINE
8
BLACK
6
CONTINUOUS
10
132.327
20
-110.543
11
132.336
21
-110.584
0
LINE
8
BLACK
6
CONTINUOUS
10
132.336
20
-110.584
11
132.346
21
-110.624
0
LINE
8
BLACK
6
CONTINUOUS
10
132.346
20
-110.624
11
132.346
21
-110.625
0
LINE
8
BLACK
6
CONTINUOUS
10
132.346
20
-110.625
11
132.346
21
-110.626
0
LINE
8
BLACK
6
CONTINUOUS
10
132.346
20
-110.626
11
132.346
21
-110.929
0
LINE
8
BLACK
6
CONTINUOUS
10
132.346
20
-110.929
11
132.346
21
-110.93
0
LINE
8
BLACK
6
CONTINUOUS
10
132.346
20
-110.93
11
132.346
21
-110.931
0
LINE
8
BLACK
6
CONTINUOUS
10
132.346
20
-110.931
11
132.336
21
-110.971
0
LINE
8
BLACK
6
CONTINUOUS
10
132.336
20
-110.971
11
132.327
21
-111.011
0
LINE
8
BLACK
6
CONTINUOUS
10
132.327
20
-111.011
11
132.326
21
-111.012
0
LINE
8
BLACK
6
CONTINUOUS
10
132.326
20
-111.012
11
132.326
21
-111.014
0
LINE
8
BLACK
6
CONTINUOUS
10
132.326
20
-111.014
11
132.175
21
-111.316
0
LINE
8
BLACK
6
CONTINUOUS
10
132.175
20
-111.316
11
132.155
21
-111.34
0
LINE
8
BLACK
6
CONTINUOUS
10
132.155
20
-111.34
11
132.139
21
-111.366
0
LINE
8
BLACK
6
CONTINUOUS
10
132.139
20
-111.366
11
132.017
21
-111.488
0
LINE
8
BLACK
6
CONTINUOUS
10
132.017
20
-111.488
11
132.065
21
-111.504
0
LINE
8
BLACK
6
CONTINUOUS
10
132.065
20
-111.504
11
132.066
21
-111.504
0
LINE
8
BLACK
6
CONTINUOUS
10
132.066
20
-111.504
11
132.067
21
-111.505
0
LINE
8
BLACK
6
CONTINUOUS
10
132.067
20
-111.505
11
132.102
21
-111.526
0
LINE
8
BLACK
6
CONTINUOUS
10
132.102
20
-111.526
11
132.137
21
-111.548
0
LINE
8
BLACK
6
CONTINUOUS
10
132.137
20
-111.548
11
132.138
21
-111.549
0
LINE
8
BLACK
6
CONTINUOUS
10
132.138
20
-111.549
11
132.139
21
-111.55
0
LINE
8
BLACK
6
CONTINUOUS
10
132.139
20
-111.55
11
132.291
21
-111.701
0
LINE
8
BLACK
6
CONTINUOUS
10
132.291
20
-111.701
11
132.307
21
-111.727
0
LINE
8
BLACK
6
CONTINUOUS
10
132.307
20
-111.727
11
132.326
21
-111.75
0
LINE
8
BLACK
6
CONTINUOUS
10
132.326
20
-111.75
11
132.477
21
-112.053
0
LINE
8
BLACK
6
CONTINUOUS
10
132.477
20
-112.053
11
132.478
21
-112.054
0
LINE
8
BLACK
6
CONTINUOUS
10
132.478
20
-112.054
11
132.478
21
-112.055
0
LINE
8
BLACK
6
CONTINUOUS
10
132.478
20
-112.055
11
132.488
21
-112.095
0
LINE
8
BLACK
6
CONTINUOUS
10
132.488
20
-112.095
11
132.497
21
-112.135
0
LINE
8
BLACK
6
CONTINUOUS
10
132.497
20
-112.135
11
132.497
21
-112.137
0
LINE
8
BLACK
6
CONTINUOUS
10
132.497
20
-112.137
11
132.497
21
-112.138
0
LINE
8
BLACK
6
CONTINUOUS
10
132.497
20
-112.138
11
132.497
21
-112.592
0
LINE
8
BLACK
6
CONTINUOUS
10
132.497
20
-112.592
11
132.497
21
-112.593
0
LINE
8
BLACK
6
CONTINUOUS
10
132.497
20
-112.593
11
132.497
21
-112.594
0
LINE
8
BLACK
6
CONTINUOUS
10
132.497
20
-112.594
11
132.488
21
-112.634
0
LINE
8
BLACK
6
CONTINUOUS
10
132.488
20
-112.634
11
132.478
21
-112.674
0
LINE
8
BLACK
6
CONTINUOUS
10
132.478
20
-112.674
11
132.477
21
-112.675
0
LINE
8
BLACK
6
CONTINUOUS
10
132.477
20
-112.675
11
132.477
21
-112.677
0
LINE
8
BLACK
6
CONTINUOUS
10
132.477
20
-112.677
11
132.326
21
-112.979
0
LINE
8
BLACK
6
CONTINUOUS
10
132.326
20
-112.979
11
132.306
21
-113.003
0
LINE
8
BLACK
6
CONTINUOUS
10
132.306
20
-113.003
11
132.29
21
-113.029
0
LINE
8
BLACK
6
CONTINUOUS
10
132.29
20
-113.029
11
132.139
21
-113.18
0
LINE
8
BLACK
6
CONTINUOUS
10
132.139
20
-113.18
11
132.113
21
-113.196
0
LINE
8
BLACK
6
CONTINUOUS
10
132.113
20
-113.196
11
132.09
21
-113.216
0
LINE
8
BLACK
6
CONTINUOUS
10
132.09
20
-113.216
11
131.787
21
-113.367
0
LINE
8
BLACK
6
CONTINUOUS
10
131.787
20
-113.367
11
131.786
21
-113.367
0
LINE
8
BLACK
6
CONTINUOUS
10
131.786
20
-113.367
11
131.785
21
-113.368
0
LINE
8
BLACK
6
CONTINUOUS
10
131.785
20
-113.368
11
131.745
21
-113.377
0
LINE
8
BLACK
6
CONTINUOUS
10
131.745
20
-113.377
11
131.705
21
-113.387
0
LINE
8
BLACK
6
CONTINUOUS
10
131.705
20
-113.387
11
131.703
21
-113.387
0
LINE
8
BLACK
6
CONTINUOUS
10
131.703
20
-113.387
11
131.702
21
-113.387
0
LINE
8
BLACK
6
CONTINUOUS
10
131.702
20
-113.387
11
130.492
21
-113.387
0
LINE
8
BLACK
6
CONTINUOUS
10
130.492
20
-113.387
11
130.471
21
-113.382
0
LINE
8
BLACK
6
CONTINUOUS
10
130.471
20
-113.382
11
130.45
21
-113.382
0
LINE
8
BLACK
6
CONTINUOUS
10
130.45
20
-113.382
11
130.431
21
-113.373
0
LINE
8
BLACK
6
CONTINUOUS
10
130.431
20
-113.373
11
130.41
21
-113.368
0
LINE
8
BLACK
6
CONTINUOUS
10
130.41
20
-113.368
11
130.393
21
-113.354
0
LINE
8
BLACK
6
CONTINUOUS
10
130.393
20
-113.354
11
130.374
21
-113.345
0
LINE
8
BLACK
6
CONTINUOUS
10
130.374
20
-113.345
11
130.36
21
-113.328
0
LINE
8
BLACK
6
CONTINUOUS
10
130.36
20
-113.328
11
130.343
21
-113.315
0
LINE
8
BLACK
6
CONTINUOUS
10
130.343
20
-113.315
11
130.334
21
-113.296
0
LINE
8
BLACK
6
CONTINUOUS
10
130.334
20
-113.296
11
130.321
21
-113.279
0
LINE
8
BLACK
6
CONTINUOUS
10
130.321
20
-113.279
11
130.316
21
-113.258
0
LINE
8
BLACK
6
CONTINUOUS
10
130.316
20
-113.258
11
130.307
21
-113.239
0
LINE
8
BLACK
6
CONTINUOUS
10
130.307
20
-113.239
11
130.307
21
-113.217
0
LINE
8
BLACK
6
CONTINUOUS
10
130.307
20
-113.217
11
130.302
21
-113.196
0
LINE
8
BLACK
6
CONTINUOUS
10
130.302
20
-113.196
11
130.302
21
-110.021
0
LINE
8
BLACK
6
CONTINUOUS
10
130.302
20
-110.021
11
130.307
21
-110
0
LINE
8
BLACK
6
CONTINUOUS
10
130.307
20
-110
11
130.307
21
-109.979
0
LINE
8
BLACK
6
CONTINUOUS
10
130.307
20
-109.979
11
130.316
21
-109.959
0
LINE
8
BLACK
6
CONTINUOUS
10
130.316
20
-109.959
11
130.321
21
-109.938
0
LINE
8
BLACK
6
CONTINUOUS
10
130.321
20
-109.938
11
130.334
21
-109.922
0
LINE
8
BLACK
6
CONTINUOUS
10
130.334
20
-109.922
11
130.344
21
-109.902
0
LINE
8
BLACK
6
CONTINUOUS
10
130.344
20
-109.902
11
130.36
21
-109.889
0
LINE
8
BLACK
6
CONTINUOUS
10
130.36
20
-109.889
11
130.374
21
-109.872
0
LINE
8
BLACK
6
CONTINUOUS
10
130.374
20
-109.872
11
130.393
21
-109.863
0
LINE
8
BLACK
6
CONTINUOUS
10
130.393
20
-109.863
11
130.41
21
-109.85
0
LINE
8
BLACK
6
CONTINUOUS
10
130.41
20
-109.85
11
130.431
21
-109.845
0
LINE
8
BLACK
6
CONTINUOUS
10
130.431
20
-109.845
11
130.45
21
-109.836
0
LINE
8
BLACK
6
CONTINUOUS
10
130.45
20
-109.836
11
130.472
21
-109.836
0
LINE
8
BLACK
6
CONTINUOUS
10
130.472
20
-109.836
11
130.493
21
-109.831
0
LINE
8
BLACK
6
CONTINUOUS
10
130.493
20
-109.831
11
131.551
21
-109.831
0
LINE
8
BLACK
6
CONTINUOUS
10
131.551
20
-109.831
11
131.552
21
-109.831
0
LINE
8
BLACK
6
CONTINUOUS
10
130.683
20
-111.724
11
130.683
21
-113.006
0
LINE
8
BLACK
6
CONTINUOUS
10
130.683
20
-113.006
11
131.657
21
-113.006
0
LINE
8
BLACK
6
CONTINUOUS
10
131.657
20
-113.006
11
131.892
21
-112.889
0
LINE
8
BLACK
6
CONTINUOUS
10
131.892
20
-112.889
11
131.999
21
-112.781
0
LINE
8
BLACK
6
CONTINUOUS
10
131.999
20
-112.781
11
132.116
21
-112.547
0
LINE
8
BLACK
6
CONTINUOUS
10
132.116
20
-112.547
11
132.116
21
-112.183
0
LINE
8
BLACK
6
CONTINUOUS
10
132.116
20
-112.183
11
131.999
21
-111.948
0
LINE
8
BLACK
6
CONTINUOUS
10
131.999
20
-111.948
11
131.901
21
-111.851
0
LINE
8
BLACK
6
CONTINUOUS
10
131.901
20
-111.851
11
131.52
21
-111.724
0
LINE
8
BLACK
6
CONTINUOUS
10
131.52
20
-111.724
11
130.683
21
-111.724
0
LINE
8
BLACK
6
CONTINUOUS
10
130.683
20
-110.212
11
130.683
21
-111.343
0
LINE
8
BLACK
6
CONTINUOUS
10
130.683
20
-111.343
11
131.506
21
-111.343
0
LINE
8
BLACK
6
CONTINUOUS
10
131.506
20
-111.343
11
131.74
21
-111.225
0
LINE
8
BLACK
6
CONTINUOUS
10
131.74
20
-111.225
11
131.848
21
-111.118
0
LINE
8
BLACK
6
CONTINUOUS
10
131.848
20
-111.118
11
131.965
21
-110.883
0
LINE
8
BLACK
6
CONTINUOUS
10
131.965
20
-110.883
11
131.965
21
-110.671
0
LINE
8
BLACK
6
CONTINUOUS
10
131.965
20
-110.671
11
131.848
21
-110.437
0
LINE
8
BLACK
6
CONTINUOUS
10
131.848
20
-110.437
11
131.74
21
-110.329
0
LINE
8
BLACK
6
CONTINUOUS
10
131.74
20
-110.329
11
131.506
21
-110.212
0
LINE
8
BLACK
6
CONTINUOUS
10
131.506
20
-110.212
11
130.683
21
-110.212
0
LINE
8
BLACK
6
CONTINUOUS
10
128.708
20
-109.838
11
128.738
21
-109.841
0
LINE
8
BLACK
6
CONTINUOUS
10
128.738
20
-109.841
11
129.192
21
-109.992
0
LINE
8
BLACK
6
CONTINUOUS
10
129.192
20
-109.992
11
129.265
21
-110.036
0
LINE
8
BLACK
6
CONTINUOUS
10
129.265
20
-110.036
11
129.311
21
-110.107
0
LINE
8
BLACK
6
CONTINUOUS
10
129.311
20
-110.107
11
129.321
21
-110.191
0
LINE
8
BLACK
6
CONTINUOUS
10
129.321
20
-110.191
11
129.294
21
-110.272
0
LINE
8
BLACK
6
CONTINUOUS
10
129.294
20
-110.272
11
129.235
21
-110.332
0
LINE
8
BLACK
6
CONTINUOUS
10
129.235
20
-110.332
11
129.156
21
-110.361
0
LINE
8
BLACK
6
CONTINUOUS
10
129.156
20
-110.361
11
129.072
21
-110.353
0
LINE
8
BLACK
6
CONTINUOUS
10
129.072
20
-110.353
11
128.647
21
-110.212
0
LINE
8
BLACK
6
CONTINUOUS
10
128.647
20
-110.212
11
127.967
21
-110.212
0
LINE
8
BLACK
6
CONTINUOUS
10
127.967
20
-110.212
11
127.733
21
-110.329
0
LINE
8
BLACK
6
CONTINUOUS
10
127.733
20
-110.329
11
127.625
21
-110.437
0
LINE
8
BLACK
6
CONTINUOUS
10
127.625
20
-110.437
11
127.508
21
-110.671
0
LINE
8
BLACK
6
CONTINUOUS
10
127.508
20
-110.671
11
127.508
21
-110.883
0
LINE
8
BLACK
6
CONTINUOUS
10
127.508
20
-110.883
11
127.625
21
-111.118
0
LINE
8
BLACK
6
CONTINUOUS
10
127.625
20
-111.118
11
127.733
21
-111.225
0
LINE
8
BLACK
6
CONTINUOUS
10
127.733
20
-111.225
11
127.989
21
-111.353
0
LINE
8
BLACK
6
CONTINUOUS
10
127.989
20
-111.353
11
128.574
21
-111.5
0
LINE
8
BLACK
6
CONTINUOUS
10
128.574
20
-111.5
11
128.592
21
-111.509
0
LINE
8
BLACK
6
CONTINUOUS
10
128.592
20
-111.509
11
128.612
21
-111.514
0
LINE
8
BLACK
6
CONTINUOUS
10
128.612
20
-111.514
11
128.915
21
-111.665
0
LINE
8
BLACK
6
CONTINUOUS
10
128.915
20
-111.665
11
128.938
21
-111.685
0
LINE
8
BLACK
6
CONTINUOUS
10
128.938
20
-111.685
11
128.964
21
-111.701
0
LINE
8
BLACK
6
CONTINUOUS
10
128.964
20
-111.701
11
129.116
21
-111.852
0
LINE
8
BLACK
6
CONTINUOUS
10
129.116
20
-111.852
11
129.132
21
-111.878
0
LINE
8
BLACK
6
CONTINUOUS
10
129.132
20
-111.878
11
129.151
21
-111.902
0
LINE
8
BLACK
6
CONTINUOUS
10
129.151
20
-111.902
11
129.302
21
-112.204
0
LINE
8
BLACK
6
CONTINUOUS
10
129.302
20
-112.204
11
129.303
21
-112.206
0
LINE
8
BLACK
6
CONTINUOUS
10
129.303
20
-112.206
11
129.303
21
-112.207
0
LINE
8
BLACK
6
CONTINUOUS
10
129.303
20
-112.207
11
129.313
21
-112.247
0
LINE
8
BLACK
6
CONTINUOUS
10
129.313
20
-112.247
11
129.322
21
-112.287
0
LINE
8
BLACK
6
CONTINUOUS
10
129.322
20
-112.287
11
129.322
21
-112.288
0
LINE
8
BLACK
6
CONTINUOUS
10
129.322
20
-112.288
11
129.322
21
-112.289
0
LINE
8
BLACK
6
CONTINUOUS
10
129.322
20
-112.289
11
129.322
21
-112.592
0
LINE
8
BLACK
6
CONTINUOUS
10
129.322
20
-112.592
11
129.322
21
-112.593
0
LINE
8
BLACK
6
CONTINUOUS
10
129.322
20
-112.593
11
129.322
21
-112.594
0
LINE
8
BLACK
6
CONTINUOUS
10
129.322
20
-112.594
11
129.313
21
-112.634
0
LINE
8
BLACK
6
CONTINUOUS
10
129.313
20
-112.634
11
129.303
21
-112.674
0
LINE
8
BLACK
6
CONTINUOUS
10
129.303
20
-112.674
11
129.302
21
-112.675
0
LINE
8
BLACK
6
CONTINUOUS
10
129.302
20
-112.675
11
129.302
21
-112.677
0
LINE
8
BLACK
6
CONTINUOUS
10
129.302
20
-112.677
11
129.151
21
-112.979
0
LINE
8
BLACK
6
CONTINUOUS
10
129.151
20
-112.979
11
129.131
21
-113.003
0
LINE
8
BLACK
6
CONTINUOUS
10
129.131
20
-113.003
11
129.115
21
-113.029
0
LINE
8
BLACK
6
CONTINUOUS
10
129.115
20
-113.029
11
128.964
21
-113.18
0
LINE
8
BLACK
6
CONTINUOUS
10
128.964
20
-113.18
11
128.938
21
-113.196
0
LINE
8
BLACK
6
CONTINUOUS
10
128.938
20
-113.196
11
128.915
21
-113.216
0
LINE
8
BLACK
6
CONTINUOUS
10
128.915
20
-113.216
11
128.612
21
-113.367
0
LINE
8
BLACK
6
CONTINUOUS
10
128.612
20
-113.367
11
128.611
21
-113.367
0
LINE
8
BLACK
6
CONTINUOUS
10
128.611
20
-113.367
11
128.61
21
-113.368
0
LINE
8
BLACK
6
CONTINUOUS
10
128.61
20
-113.368
11
128.57
21
-113.377
0
LINE
8
BLACK
6
CONTINUOUS
10
128.57
20
-113.377
11
128.53
21
-113.387
0
LINE
8
BLACK
6
CONTINUOUS
10
128.53
20
-113.387
11
128.528
21
-113.387
0
LINE
8
BLACK
6
CONTINUOUS
10
128.528
20
-113.387
11
128.527
21
-113.387
0
LINE
8
BLACK
6
CONTINUOUS
10
128.527
20
-113.387
11
127.771
21
-113.387
0
LINE
8
BLACK
6
CONTINUOUS
10
127.771
20
-113.387
11
127.741
21
-113.38
0
LINE
8
BLACK
6
CONTINUOUS
10
127.741
20
-113.38
11
127.711
21
-113.377
0
LINE
8
BLACK
6
CONTINUOUS
10
127.711
20
-113.377
11
127.257
21
-113.226
0
LINE
8
BLACK
6
CONTINUOUS
10
127.257
20
-113.226
11
127.185
21
-113.182
0
LINE
8
BLACK
6
CONTINUOUS
10
127.185
20
-113.182
11
127.139
21
-113.11
0
LINE
8
BLACK
6
CONTINUOUS
10
127.139
20
-113.11
11
127.128
21
-113.026
0
LINE
8
BLACK
6
CONTINUOUS
10
127.128
20
-113.026
11
127.155
21
-112.946
0
LINE
8
BLACK
6
CONTINUOUS
10
127.155
20
-112.946
11
127.214
21
-112.885
0
LINE
8
BLACK
6
CONTINUOUS
10
127.214
20
-112.885
11
127.293
21
-112.856
0
LINE
8
BLACK
6
CONTINUOUS
10
127.293
20
-112.856
11
127.378
21
-112.864
0
LINE
8
BLACK
6
CONTINUOUS
10
127.378
20
-112.864
11
127.802
21
-113.006
0
LINE
8
BLACK
6
CONTINUOUS
10
127.802
20
-113.006
11
128.482
21
-113.006
0
LINE
8
BLACK
6
CONTINUOUS
10
128.482
20
-113.006
11
128.717
21
-112.889
0
LINE
8
BLACK
6
CONTINUOUS
10
128.717
20
-112.889
11
128.824
21
-112.781
0
LINE
8
BLACK
6
CONTINUOUS
10
128.824
20
-112.781
11
128.941
21
-112.547
0
LINE
8
BLACK
6
CONTINUOUS
10
128.941
20
-112.547
11
128.941
21
-112.334
0
LINE
8
BLACK
6
CONTINUOUS
10
128.941
20
-112.334
11
128.824
21
-112.1
0
LINE
8
BLACK
6
CONTINUOUS
10
128.824
20
-112.1
11
128.717
21
-111.992
0
LINE
8
BLACK
6
CONTINUOUS
10
128.717
20
-111.992
11
128.461
21
-111.864
0
LINE
8
BLACK
6
CONTINUOUS
10
128.461
20
-111.864
11
127.876
21
-111.718
0
LINE
8
BLACK
6
CONTINUOUS
10
127.876
20
-111.718
11
127.857
21
-111.709
0
LINE
8
BLACK
6
CONTINUOUS
10
127.857
20
-111.709
11
127.837
21
-111.704
0
LINE
8
BLACK
6
CONTINUOUS
10
127.837
20
-111.704
11
127.534
21
-111.552
0
LINE
8
BLACK
6
CONTINUOUS
10
127.534
20
-111.552
11
127.511
21
-111.533
0
LINE
8
BLACK
6
CONTINUOUS
10
127.511
20
-111.533
11
127.485
21
-111.517
0
LINE
8
BLACK
6
CONTINUOUS
10
127.485
20
-111.517
11
127.334
21
-111.365
0
LINE
8
BLACK
6
CONTINUOUS
10
127.334
20
-111.365
11
127.318
21
-111.34
0
LINE
8
BLACK
6
CONTINUOUS
10
127.318
20
-111.34
11
127.298
21
-111.316
0
LINE
8
BLACK
6
CONTINUOUS
10
127.298
20
-111.316
11
127.147
21
-111.013
0
LINE
8
BLACK
6
CONTINUOUS
10
127.147
20
-111.013
11
127.147
21
-111.012
0
LINE
8
BLACK
6
CONTINUOUS
10
127.147
20
-111.012
11
127.146
21
-111.011
0
LINE
8
BLACK
6
CONTINUOUS
10
127.146
20
-111.011
11
127.137
21
-110.971
0
LINE
8
BLACK
6
CONTINUOUS
10
127.137
20
-110.971
11
127.127
21
-110.931
0
LINE
8
BLACK
6
CONTINUOUS
10
127.127
20
-110.931
11
127.127
21
-110.93
0
LINE
8
BLACK
6
CONTINUOUS
10
127.127
20
-110.93
11
127.127
21
-110.928
0
LINE
8
BLACK
6
CONTINUOUS
10
127.127
20
-110.928
11
127.127
21
-110.626
0
LINE
8
BLACK
6
CONTINUOUS
10
127.127
20
-110.626
11
127.127
21
-110.624
0
LINE
8
BLACK
6
CONTINUOUS
10
127.127
20
-110.624
11
127.127
21
-110.623
0
LINE
8
BLACK
6
CONTINUOUS
10
127.127
20
-110.623
11
127.137
21
-110.583
0
LINE
8
BLACK
6
CONTINUOUS
10
127.137
20
-110.583
11
127.146
21
-110.543
0
LINE
8
BLACK
6
CONTINUOUS
10
127.146
20
-110.543
11
127.147
21
-110.542
0
LINE
8
BLACK
6
CONTINUOUS
10
127.147
20
-110.542
11
127.147
21
-110.541
0
LINE
8
BLACK
6
CONTINUOUS
10
127.147
20
-110.541
11
127.298
21
-110.238
0
LINE
8
BLACK
6
CONTINUOUS
10
127.298
20
-110.238
11
127.318
21
-110.215
0
LINE
8
BLACK
6
CONTINUOUS
10
127.318
20
-110.215
11
127.334
21
-110.189
0
LINE
8
BLACK
6
CONTINUOUS
10
127.334
20
-110.189
11
127.485
21
-110.038
0
LINE
8
BLACK
6
CONTINUOUS
10
127.485
20
-110.038
11
127.511
21
-110.021
0
LINE
8
BLACK
6
CONTINUOUS
10
127.511
20
-110.021
11
127.535
21
-110.002
0
LINE
8
BLACK
6
CONTINUOUS
10
127.535
20
-110.002
11
127.837
21
-109.851
0
LINE
8
BLACK
6
CONTINUOUS
10
127.837
20
-109.851
11
127.839
21
-109.85
0
LINE
8
BLACK
6
CONTINUOUS
10
127.839
20
-109.85
11
127.84
21
-109.85
0
LINE
8
BLACK
6
CONTINUOUS
10
127.84
20
-109.85
11
127.88
21
-109.841
0
LINE
8
BLACK
6
CONTINUOUS
10
127.88
20
-109.841
11
127.92
21
-109.831
0
LINE
8
BLACK
6
CONTINUOUS
10
127.92
20
-109.831
11
127.921
21
-109.831
0
LINE
8
BLACK
6
CONTINUOUS
10
127.921
20
-109.831
11
127.922
21
-109.831
0
LINE
8
BLACK
6
CONTINUOUS
10
127.922
20
-109.831
11
128.679
21
-109.831
0
LINE
8
BLACK
6
CONTINUOUS
10
128.679
20
-109.831
11
128.708
21
-109.838
0
LINE
8
BLACK
6
CONTINUOUS
10
120.364
20
-109.831
11
120.366
21
-109.831
0
LINE
8
BLACK
6
CONTINUOUS
10
120.366
20
-109.831
11
120.406
21
-109.841
0
LINE
8
BLACK
6
CONTINUOUS
10
120.406
20
-109.841
11
120.446
21
-109.85
0
LINE
8
BLACK
6
CONTINUOUS
10
120.446
20
-109.85
11
120.447
21
-109.851
0
LINE
8
BLACK
6
CONTINUOUS
10
120.447
20
-109.851
11
120.448
21
-109.851
0
LINE
8
BLACK
6
CONTINUOUS
10
120.448
20
-109.851
11
120.751
21
-110.002
0
LINE
8
BLACK
6
CONTINUOUS
10
120.751
20
-110.002
11
120.774
21
-110.022
0
LINE
8
BLACK
6
CONTINUOUS
10
120.774
20
-110.022
11
120.8
21
-110.038
0
LINE
8
BLACK
6
CONTINUOUS
10
120.8
20
-110.038
11
120.951
21
-110.189
0
LINE
8
BLACK
6
CONTINUOUS
10
120.951
20
-110.189
11
120.967
21
-110.215
0
LINE
8
BLACK
6
CONTINUOUS
10
120.967
20
-110.215
11
120.987
21
-110.238
0
LINE
8
BLACK
6
CONTINUOUS
10
120.987
20
-110.238
11
121.138
21
-110.541
0
LINE
8
BLACK
6
CONTINUOUS
10
121.138
20
-110.541
11
121.138
21
-110.542
0
LINE
8
BLACK
6
CONTINUOUS
10
121.138
20
-110.542
11
121.139
21
-110.543
0
LINE
8
BLACK
6
CONTINUOUS
10
121.139
20
-110.543
11
121.148
21
-110.584
0
LINE
8
BLACK
6
CONTINUOUS
10
121.148
20
-110.584
11
121.158
21
-110.624
0
LINE
8
BLACK
6
CONTINUOUS
10
121.158
20
-110.624
11
121.158
21
-110.625
0
LINE
8
BLACK
6
CONTINUOUS
10
121.158
20
-110.625
11
121.158
21
-110.626
0
LINE
8
BLACK
6
CONTINUOUS
10
121.158
20
-110.626
11
121.158
21
-110.929
0
LINE
8
BLACK
6
CONTINUOUS
10
121.158
20
-110.929
11
121.151
21
-110.958
0
LINE
8
BLACK
6
CONTINUOUS
10
121.151
20
-110.958
11
121.148
21
-110.989
0
LINE
8
BLACK
6
CONTINUOUS
10
121.148
20
-110.989
11
120.997
21
-111.443
0
LINE
8
BLACK
6
CONTINUOUS
10
120.997
20
-111.443
11
120.996
21
-111.444
0
LINE
8
BLACK
6
CONTINUOUS
10
120.996
20
-111.444
11
120.996
21
-111.445
0
LINE
8
BLACK
6
CONTINUOUS
10
120.996
20
-111.445
11
120.974
21
-111.48
0
LINE
8
BLACK
6
CONTINUOUS
10
120.974
20
-111.48
11
120.953
21
-111.515
0
LINE
8
BLACK
6
CONTINUOUS
10
120.953
20
-111.515
11
120.952
21
-111.516
0
LINE
8
BLACK
6
CONTINUOUS
10
120.952
20
-111.516
11
120.951
21
-111.517
0
LINE
8
BLACK
6
CONTINUOUS
10
120.951
20
-111.517
11
119.462
21
-113.006
0
LINE
8
BLACK
6
CONTINUOUS
10
119.462
20
-113.006
11
120.968
21
-113.006
0
LINE
8
BLACK
6
CONTINUOUS
10
120.968
20
-113.006
11
121.05
21
-113.025
0
LINE
8
BLACK
6
CONTINUOUS
10
121.05
20
-113.025
11
121.117
21
-113.078
0
LINE
8
BLACK
6
CONTINUOUS
10
121.117
20
-113.078
11
121.153
21
-113.154
0
LINE
8
BLACK
6
CONTINUOUS
10
121.153
20
-113.154
11
121.153
21
-113.239
0
LINE
8
BLACK
6
CONTINUOUS
10
121.153
20
-113.239
11
121.116
21
-113.315
0
LINE
8
BLACK
6
CONTINUOUS
10
121.116
20
-113.315
11
121.05
21
-113.368
0
LINE
8
BLACK
6
CONTINUOUS
10
121.05
20
-113.368
11
120.968
21
-113.387
0
LINE
8
BLACK
6
CONTINUOUS
10
120.968
20
-113.387
11
119.002
21
-113.387
0
LINE
8
BLACK
6
CONTINUOUS
10
119.002
20
-113.387
11
118.991
21
-113.384
0
LINE
8
BLACK
6
CONTINUOUS
10
118.991
20
-113.384
11
118.98
21
-113.386
0
LINE
8
BLACK
6
CONTINUOUS
10
118.98
20
-113.386
11
118.95
21
-113.375
0
LINE
8
BLACK
6
CONTINUOUS
10
118.95
20
-113.375
11
118.919
21
-113.368
0
LINE
8
BLACK
6
CONTINUOUS
10
118.919
20
-113.368
11
118.911
21
-113.361
0
LINE
8
BLACK
6
CONTINUOUS
10
118.911
20
-113.361
11
118.901
21
-113.358
0
LINE
8
BLACK
6
CONTINUOUS
10
118.901
20
-113.358
11
118.878
21
-113.335
0
LINE
8
BLACK
6
CONTINUOUS
10
118.878
20
-113.335
11
118.853
21
-113.315
0
LINE
8
BLACK
6
CONTINUOUS
10
118.853
20
-113.315
11
118.848
21
-113.305
0
LINE
8
BLACK
6
CONTINUOUS
10
118.848
20
-113.305
11
118.841
21
-113.298
0
LINE
8
BLACK
6
CONTINUOUS
10
118.841
20
-113.298
11
118.83
21
-113.267
0
LINE
8
BLACK
6
CONTINUOUS
10
118.83
20
-113.267
11
118.816
21
-113.239
0
LINE
8
BLACK
6
CONTINUOUS
10
118.816
20
-113.239
11
118.816
21
-113.228
0
LINE
8
BLACK
6
CONTINUOUS
10
118.816
20
-113.228
11
118.813
21
-113.218
0
LINE
8
BLACK
6
CONTINUOUS
10
118.813
20
-113.218
11
118.816
21
-113.186
0
LINE
8
BLACK
6
CONTINUOUS
10
118.816
20
-113.186
11
118.816
21
-113.154
0
LINE
8
BLACK
6
CONTINUOUS
10
118.816
20
-113.154
11
118.821
21
-113.144
0
LINE
8
BLACK
6
CONTINUOUS
10
118.821
20
-113.144
11
118.822
21
-113.133
0
LINE
8
BLACK
6
CONTINUOUS
10
118.822
20
-113.133
11
118.839
21
-113.106
0
LINE
8
BLACK
6
CONTINUOUS
10
118.839
20
-113.106
11
118.853
21
-113.077
0
LINE
8
BLACK
6
CONTINUOUS
10
118.853
20
-113.077
11
118.862
21
-113.071
0
LINE
8
BLACK
6
CONTINUOUS
10
118.862
20
-113.071
11
118.867
21
-113.062
0
LINE
8
BLACK
6
CONTINUOUS
10
118.867
20
-113.062
11
120.65
21
-111.279
0
LINE
8
BLACK
6
CONTINUOUS
10
120.65
20
-111.279
11
120.777
21
-110.898
0
LINE
8
BLACK
6
CONTINUOUS
10
120.777
20
-110.898
11
120.777
21
-110.671
0
LINE
8
BLACK
6
CONTINUOUS
10
120.777
20
-110.671
11
120.66
21
-110.437
0
LINE
8
BLACK
6
CONTINUOUS
10
120.66
20
-110.437
11
120.552
21
-110.329
0
LINE
8
BLACK
6
CONTINUOUS
10
120.552
20
-110.329
11
120.318
21
-110.212
0
LINE
8
BLACK
6
CONTINUOUS
10
120.318
20
-110.212
11
119.652
21
-110.212
0
LINE
8
BLACK
6
CONTINUOUS
10
119.652
20
-110.212
11
119.417
21
-110.329
0
LINE
8
BLACK
6
CONTINUOUS
10
119.417
20
-110.329
11
119.288
21
-110.459
0
LINE
8
BLACK
6
CONTINUOUS
10
119.288
20
-110.459
11
119.216
21
-110.504
0
LINE
8
BLACK
6
CONTINUOUS
10
119.216
20
-110.504
11
119.132
21
-110.513
0
LINE
8
BLACK
6
CONTINUOUS
10
119.132
20
-110.513
11
119.052
21
-110.485
0
LINE
8
BLACK
6
CONTINUOUS
10
119.052
20
-110.485
11
118.992
21
-110.425
0
LINE
8
BLACK
6
CONTINUOUS
10
118.992
20
-110.425
11
118.964
21
-110.345
0
LINE
8
BLACK
6
CONTINUOUS
10
118.964
20
-110.345
11
118.973
21
-110.261
0
LINE
8
BLACK
6
CONTINUOUS
10
118.973
20
-110.261
11
119.019
21
-110.189
0
LINE
8
BLACK
6
CONTINUOUS
10
119.019
20
-110.189
11
119.17
21
-110.038
0
LINE
8
BLACK
6
CONTINUOUS
10
119.17
20
-110.038
11
119.196
21
-110.021
0
LINE
8
BLACK
6
CONTINUOUS
10
119.196
20
-110.021
11
119.219
21
-110.002
0
LINE
8
BLACK
6
CONTINUOUS
10
119.219
20
-110.002
11
119.522
21
-109.851
0
LINE
8
BLACK
6
CONTINUOUS
10
119.522
20
-109.851
11
119.523
21
-109.85
0
LINE
8
BLACK
6
CONTINUOUS
10
119.523
20
-109.85
11
119.524
21
-109.85
0
LINE
8
BLACK
6
CONTINUOUS
10
119.524
20
-109.85
11
119.564
21
-109.841
0
LINE
8
BLACK
6
CONTINUOUS
10
119.564
20
-109.841
11
119.604
21
-109.831
0
LINE
8
BLACK
6
CONTINUOUS
10
119.604
20
-109.831
11
119.606
21
-109.831
0
LINE
8
BLACK
6
CONTINUOUS
10
119.606
20
-109.831
11
119.607
21
-109.831
0
LINE
8
BLACK
6
CONTINUOUS
10
119.607
20
-109.831
11
120.363
21
-109.831
0
LINE
8
BLACK
6
CONTINUOUS
10
120.363
20
-109.831
11
120.364
21
-109.831
0
LINE
8
BLACK
6
CONTINUOUS
10
122.933
20
-109.834
11
122.952
21
-109.832
0
LINE
8
BLACK
6
CONTINUOUS
10
122.952
20
-109.832
11
122.975
21
-109.839
0
LINE
8
BLACK
6
CONTINUOUS
10
122.975
20
-109.839
11
122.999
21
-109.842
0
LINE
8
BLACK
6
CONTINUOUS
10
122.999
20
-109.842
11
123.014
21
-109.853
0
LINE
8
BLACK
6
CONTINUOUS
10
123.014
20
-109.853
11
123.032
21
-109.859
0
LINE
8
BLACK
6
CONTINUOUS
10
123.032
20
-109.859
11
123.049
21
-109.875
0
LINE
8
BLACK
6
CONTINUOUS
10
123.049
20
-109.875
11
123.07
21
-109.889
0
LINE
8
BLACK
6
CONTINUOUS
10
123.07
20
-109.889
11
123.079
21
-109.905
0
LINE
8
BLACK
6
CONTINUOUS
10
123.079
20
-109.905
11
123.093
21
-109.918
0
LINE
8
BLACK
6
CONTINUOUS
10
123.093
20
-109.918
11
123.101
21
-109.94
0
LINE
8
BLACK
6
CONTINUOUS
10
123.101
20
-109.94
11
123.114
21
-109.961
0
LINE
8
BLACK
6
CONTINUOUS
10
123.114
20
-109.961
11
124.172
21
-113.136
0
LINE
8
BLACK
6
CONTINUOUS
10
124.172
20
-113.136
11
124.18
21
-113.221
0
LINE
8
BLACK
6
CONTINUOUS
10
124.18
20
-113.221
11
124.151
21
-113.3
0
LINE
8
BLACK
6
CONTINUOUS
10
124.151
20
-113.3
11
124.09
21
-113.359
0
LINE
8
BLACK
6
CONTINUOUS
10
124.09
20
-113.359
11
124.01
21
-113.386
0
LINE
8
BLACK
6
CONTINUOUS
10
124.01
20
-113.386
11
123.926
21
-113.375
0
LINE
8
BLACK
6
CONTINUOUS
10
123.926
20
-113.375
11
123.855
21
-113.329
0
LINE
8
BLACK
6
CONTINUOUS
10
123.855
20
-113.329
11
123.811
21
-113.257
0
LINE
8
BLACK
6
CONTINUOUS
10
123.811
20
-113.257
11
123.552
21
-112.48
0
LINE
8
BLACK
6
CONTINUOUS
10
123.552
20
-112.48
11
122.314
21
-112.48
0
LINE
8
BLACK
6
CONTINUOUS
10
122.314
20
-112.48
11
122.055
21
-113.257
0
LINE
8
BLACK
6
CONTINUOUS
10
122.055
20
-113.257
11
122.011
21
-113.329
0
LINE
8
BLACK
6
CONTINUOUS
10
122.011
20
-113.329
11
121.94
21
-113.375
0
LINE
8
BLACK
6
CONTINUOUS
10
121.94
20
-113.375
11
121.856
21
-113.386
0
LINE
8
BLACK
6
CONTINUOUS
10
121.856
20
-113.386
11
121.776
21
-113.359
0
LINE
8
BLACK
6
CONTINUOUS
10
121.776
20
-113.359
11
121.715
21
-113.3
0
LINE
8
BLACK
6
CONTINUOUS
10
121.715
20
-113.3
11
121.686
21
-113.22
0
LINE
8
BLACK
6
CONTINUOUS
10
121.686
20
-113.22
11
121.694
21
-113.136
0
LINE
8
BLACK
6
CONTINUOUS
10
121.694
20
-113.136
11
122.752
21
-109.961
0
LINE
8
BLACK
6
CONTINUOUS
10
122.752
20
-109.961
11
122.765
21
-109.94
0
LINE
8
BLACK
6
CONTINUOUS
10
122.765
20
-109.94
11
122.773
21
-109.917
0
LINE
8
BLACK
6
CONTINUOUS
10
122.773
20
-109.917
11
122.787
21
-109.904
0
LINE
8
BLACK
6
CONTINUOUS
10
122.787
20
-109.904
11
122.796
21
-109.888
0
LINE
8
BLACK
6
CONTINUOUS
10
122.796
20
-109.888
11
122.817
21
-109.875
0
LINE
8
BLACK
6
CONTINUOUS
10
122.817
20
-109.875
11
122.834
21
-109.858
0
LINE
8
BLACK
6
CONTINUOUS
10
122.834
20
-109.858
11
122.852
21
-109.853
0
LINE
8
BLACK
6
CONTINUOUS
10
122.852
20
-109.853
11
122.868
21
-109.842
0
LINE
8
BLACK
6
CONTINUOUS
10
122.868
20
-109.842
11
122.892
21
-109.839
0
LINE
8
BLACK
6
CONTINUOUS
10
122.892
20
-109.839
11
122.915
21
-109.832
0
LINE
8
BLACK
6
CONTINUOUS
10
122.915
20
-109.832
11
122.933
21
-109.834
0
LINE
8
BLACK
6
CONTINUOUS
10
122.441
20
-112.099
11
123.425
21
-112.099
0
LINE
8
BLACK
6
CONTINUOUS
10
123.425
20
-112.099
11
122.933
21
-110.624
0
LINE
8
BLACK
6
CONTINUOUS
10
122.933
20
-110.624
11
122.441
21
-112.099
0
LINE
8
BLACK
6
CONTINUOUS
10
152.422
20
-109.85
11
152.489
21
-109.903
0
LINE
8
BLACK
6
CONTINUOUS
10
152.489
20
-109.903
11
152.525
21
-109.979
0
LINE
8
BLACK
6
CONTINUOUS
10
152.525
20
-109.979
11
152.525
21
-110.064
0
LINE
8
BLACK
6
CONTINUOUS
10
152.525
20
-110.064
11
152.488
21
-110.14
0
LINE
8
BLACK
6
CONTINUOUS
10
152.488
20
-110.14
11
152.422
21
-110.193
0
LINE
8
BLACK
6
CONTINUOUS
10
152.422
20
-110.193
11
152.34
21
-110.212
0
LINE
8
BLACK
6
CONTINUOUS
10
152.34
20
-110.212
11
151.018
21
-110.212
0
LINE
8
BLACK
6
CONTINUOUS
10
151.018
20
-110.212
11
151.018
21
-111.343
0
LINE
8
BLACK
6
CONTINUOUS
10
151.018
20
-111.343
11
151.886
21
-111.343
0
LINE
8
BLACK
6
CONTINUOUS
10
151.886
20
-111.343
11
151.969
21
-111.362
0
LINE
8
BLACK
6
CONTINUOUS
10
151.969
20
-111.362
11
152.035
21
-111.415
0
LINE
8
BLACK
6
CONTINUOUS
10
152.035
20
-111.415
11
152.072
21
-111.491
0
LINE
8
BLACK
6
CONTINUOUS
10
152.072
20
-111.491
11
152.072
21
-111.576
0
LINE
8
BLACK
6
CONTINUOUS
10
152.072
20
-111.576
11
152.035
21
-111.652
0
LINE
8
BLACK
6
CONTINUOUS
10
152.035
20
-111.652
11
151.969
21
-111.705
0
LINE
8
BLACK
6
CONTINUOUS
10
151.969
20
-111.705
11
151.886
21
-111.724
0
LINE
8
BLACK
6
CONTINUOUS
10
151.886
20
-111.724
11
151.018
21
-111.724
0
LINE
8
BLACK
6
CONTINUOUS
10
151.018
20
-111.724
11
151.018
21
-113.197
0
LINE
8
BLACK
6
CONTINUOUS
10
151.018
20
-113.197
11
150.999
21
-113.279
0
LINE
8
BLACK
6
CONTINUOUS
10
150.999
20
-113.279
11
150.946
21
-113.345
0
LINE
8
BLACK
6
CONTINUOUS
10
150.946
20
-113.345
11
150.87
21
-113.382
0
LINE
8
BLACK
6
CONTINUOUS
10
150.87
20
-113.382
11
150.785
21
-113.382
0
LINE
8
BLACK
6
CONTINUOUS
10
150.785
20
-113.382
11
150.709
21
-113.345
0
LINE
8
BLACK
6
CONTINUOUS
10
150.709
20
-113.345
11
150.656
21
-113.279
0
LINE
8
BLACK
6
CONTINUOUS
10
150.656
20
-113.279
11
150.637
21
-113.196
0
LINE
8
BLACK
6
CONTINUOUS
10
150.637
20
-113.196
11
150.637
21
-110.021
0
LINE
8
BLACK
6
CONTINUOUS
10
150.637
20
-110.021
11
150.642
21
-110
0
LINE
8
BLACK
6
CONTINUOUS
10
150.642
20
-110
11
150.642
21
-109.979
0
LINE
8
BLACK
6
CONTINUOUS
10
150.642
20
-109.979
11
150.651
21
-109.959
0
LINE
8
BLACK
6
CONTINUOUS
10
150.651
20
-109.959
11
150.656
21
-109.938
0
LINE
8
BLACK
6
CONTINUOUS
10
150.656
20
-109.938
11
150.669
21
-109.922
0
LINE
8
BLACK
6
CONTINUOUS
10
150.669
20
-109.922
11
150.679
21
-109.902
0
LINE
8
BLACK
6
CONTINUOUS
10
150.679
20
-109.902
11
150.696
21
-109.889
0
LINE
8
BLACK
6
CONTINUOUS
10
150.696
20
-109.889
11
150.709
21
-109.872
0
LINE
8
BLACK
6
CONTINUOUS
10
150.709
20
-109.872
11
150.728
21
-109.863
0
LINE
8
BLACK
6
CONTINUOUS
10
150.728
20
-109.863
11
150.745
21
-109.85
0
LINE
8
BLACK
6
CONTINUOUS
10
150.745
20
-109.85
11
150.766
21
-109.845
0
LINE
8
BLACK
6
CONTINUOUS
10
150.766
20
-109.845
11
150.785
21
-109.836
0
LINE
8
BLACK
6
CONTINUOUS
10
150.785
20
-109.836
11
150.807
21
-109.836
0
LINE
8
BLACK
6
CONTINUOUS
10
150.807
20
-109.836
11
150.828
21
-109.831
0
LINE
8
BLACK
6
CONTINUOUS
10
150.828
20
-109.831
11
152.34
21
-109.831
0
LINE
8
BLACK
6
CONTINUOUS
10
152.34
20
-109.831
11
152.422
21
-109.85
0
LINE
8
BLACK
6
CONTINUOUS
10
155.144
20
-109.85
11
155.21
21
-109.903
0
LINE
8
BLACK
6
CONTINUOUS
10
155.21
20
-109.903
11
155.247
21
-109.979
0
LINE
8
BLACK
6
CONTINUOUS
10
155.247
20
-109.979
11
155.247
21
-110.064
0
LINE
8
BLACK
6
CONTINUOUS
10
155.247
20
-110.064
11
155.21
21
-110.14
0
LINE
8
BLACK
6
CONTINUOUS
10
155.21
20
-110.14
11
155.144
21
-110.193
0
LINE
8
BLACK
6
CONTINUOUS
10
155.144
20
-110.193
11
155.061
21
-110.212
0
LINE
8
BLACK
6
CONTINUOUS
10
155.061
20
-110.212
11
153.74
21
-110.212
0
LINE
8
BLACK
6
CONTINUOUS
10
153.74
20
-110.212
11
153.74
21
-111.343
0
LINE
8
BLACK
6
CONTINUOUS
10
153.74
20
-111.343
11
154.608
21
-111.343
0
LINE
8
BLACK
6
CONTINUOUS
10
154.608
20
-111.343
11
154.69
21
-111.362
0
LINE
8
BLACK
6
CONTINUOUS
10
154.69
20
-111.362
11
154.756
21
-111.415
0
LINE
8
BLACK
6
CONTINUOUS
10
154.756
20
-111.415
11
154.793
21
-111.491
0
LINE
8
BLACK
6
CONTINUOUS
10
154.793
20
-111.491
11
154.793
21
-111.576
0
LINE
8
BLACK
6
CONTINUOUS
10
154.793
20
-111.576
11
154.756
21
-111.652
0
LINE
8
BLACK
6
CONTINUOUS
10
154.756
20
-111.652
11
154.69
21
-111.705
0
LINE
8
BLACK
6
CONTINUOUS
10
154.69
20
-111.705
11
154.607
21
-111.724
0
LINE
8
BLACK
6
CONTINUOUS
10
154.607
20
-111.724
11
153.74
21
-111.724
0
LINE
8
BLACK
6
CONTINUOUS
10
153.74
20
-111.724
11
153.74
21
-113.197
0
LINE
8
BLACK
6
CONTINUOUS
10
153.74
20
-113.197
11
153.721
21
-113.279
0
LINE
8
BLACK
6
CONTINUOUS
10
153.721
20
-113.279
11
153.668
21
-113.345
0
LINE
8
BLACK
6
CONTINUOUS
10
153.668
20
-113.345
11
153.591
21
-113.382
0
LINE
8
BLACK
6
CONTINUOUS
10
153.591
20
-113.382
11
153.507
21
-113.382
0
LINE
8
BLACK
6
CONTINUOUS
10
153.507
20
-113.382
11
153.43
21
-113.345
0
LINE
8
BLACK
6
CONTINUOUS
10
153.43
20
-113.345
11
153.377
21
-113.279
0
LINE
8
BLACK
6
CONTINUOUS
10
153.377
20
-113.279
11
153.359
21
-113.196
0
LINE
8
BLACK
6
CONTINUOUS
10
153.359
20
-113.196
11
153.359
21
-110.021
0
LINE
8
BLACK
6
CONTINUOUS
10
153.359
20
-110.021
11
153.363
21
-110
0
LINE
8
BLACK
6
CONTINUOUS
10
153.363
20
-110
11
153.363
21
-109.979
0
LINE
8
BLACK
6
CONTINUOUS
10
153.363
20
-109.979
11
153.373
21
-109.959
0
LINE
8
BLACK
6
CONTINUOUS
10
153.373
20
-109.959
11
153.378
21
-109.938
0
LINE
8
BLACK
6
CONTINUOUS
10
153.378
20
-109.938
11
153.391
21
-109.922
0
LINE
8
BLACK
6
CONTINUOUS
10
153.391
20
-109.922
11
153.4
21
-109.902
0
LINE
8
BLACK
6
CONTINUOUS
10
153.4
20
-109.902
11
153.417
21
-109.889
0
LINE
8
BLACK
6
CONTINUOUS
10
153.417
20
-109.889
11
153.43
21
-109.872
0
LINE
8
BLACK
6
CONTINUOUS
10
153.43
20
-109.872
11
153.45
21
-109.863
0
LINE
8
BLACK
6
CONTINUOUS
10
153.45
20
-109.863
11
153.466
21
-109.85
0
LINE
8
BLACK
6
CONTINUOUS
10
153.466
20
-109.85
11
153.487
21
-109.845
0
LINE
8
BLACK
6
CONTINUOUS
10
153.487
20
-109.845
11
153.507
21
-109.836
0
LINE
8
BLACK
6
CONTINUOUS
10
153.507
20
-109.836
11
153.528
21
-109.836
0
LINE
8
BLACK
6
CONTINUOUS
10
153.528
20
-109.836
11
153.549
21
-109.831
0
LINE
8
BLACK
6
CONTINUOUS
10
153.549
20
-109.831
11
155.061
21
-109.831
0
LINE
8
BLACK
6
CONTINUOUS
10
155.061
20
-109.831
11
155.144
21
-109.85
0
LINE
8
BLACK
6
CONTINUOUS
10
220.074
20
-108.545
11
220.076
21
-108.545
0
LINE
8
BLACK
6
CONTINUOUS
10
220.076
20
-108.545
11
220.116
21
-108.555
0
LINE
8
BLACK
6
CONTINUOUS
10
220.116
20
-108.555
11
220.156
21
-108.564
0
LINE
8
BLACK
6
CONTINUOUS
10
220.156
20
-108.564
11
220.157
21
-108.565
0
LINE
8
BLACK
6
CONTINUOUS
10
220.157
20
-108.565
11
220.158
21
-108.565
0
LINE
8
BLACK
6
CONTINUOUS
10
220.158
20
-108.565
11
220.461
21
-108.716
0
LINE
8
BLACK
6
CONTINUOUS
10
220.461
20
-108.716
11
220.484
21
-108.736
0
LINE
8
BLACK
6
CONTINUOUS
10
220.484
20
-108.736
11
220.51
21
-108.752
0
LINE
8
BLACK
6
CONTINUOUS
10
220.51
20
-108.752
11
220.661
21
-108.903
0
LINE
8
BLACK
6
CONTINUOUS
10
220.661
20
-108.903
11
220.678
21
-108.929
0
LINE
8
BLACK
6
CONTINUOUS
10
220.678
20
-108.929
11
220.697
21
-108.953
0
LINE
8
BLACK
6
CONTINUOUS
10
220.697
20
-108.953
11
220.848
21
-109.255
0
LINE
8
BLACK
6
CONTINUOUS
10
220.848
20
-109.255
11
220.848
21
-109.257
0
LINE
8
BLACK
6
CONTINUOUS
10
220.848
20
-109.257
11
220.849
21
-109.258
0
LINE
8
BLACK
6
CONTINUOUS
10
220.849
20
-109.258
11
220.858
21
-109.298
0
LINE
8
BLACK
6
CONTINUOUS
10
220.858
20
-109.298
11
220.868
21
-109.338
0
LINE
8
BLACK
6
CONTINUOUS
10
220.868
20
-109.338
11
220.868
21
-109.339
0
LINE
8
BLACK
6
CONTINUOUS
10
220.868
20
-109.339
11
220.868
21
-109.34
0
LINE
8
BLACK
6
CONTINUOUS
10
220.868
20
-109.34
11
220.868
21
-109.492
0
LINE
8
BLACK
6
CONTINUOUS
10
220.868
20
-109.492
11
220.868
21
-109.493
0
LINE
8
BLACK
6
CONTINUOUS
10
220.868
20
-109.493
11
220.868
21
-109.494
0
LINE
8
BLACK
6
CONTINUOUS
10
220.868
20
-109.494
11
220.858
21
-109.534
0
LINE
8
BLACK
6
CONTINUOUS
10
220.858
20
-109.534
11
220.849
21
-109.574
0
LINE
8
BLACK
6
CONTINUOUS
10
220.849
20
-109.574
11
220.848
21
-109.575
0
LINE
8
BLACK
6
CONTINUOUS
10
220.848
20
-109.575
11
220.848
21
-109.577
0
LINE
8
BLACK
6
CONTINUOUS
10
220.848
20
-109.577
11
220.697
21
-109.879
0
LINE
8
BLACK
6
CONTINUOUS
10
220.697
20
-109.879
11
220.677
21
-109.903
0
LINE
8
BLACK
6
CONTINUOUS
10
220.677
20
-109.903
11
220.661
21
-109.928
0
LINE
8
BLACK
6
CONTINUOUS
10
220.661
20
-109.928
11
220.51
21
-110.08
0
LINE
8
BLACK
6
CONTINUOUS
10
220.51
20
-110.08
11
220.484
21
-110.096
0
LINE
8
BLACK
6
CONTINUOUS
10
220.484
20
-110.096
11
220.484
21
-110.096
0
LINE
8
BLACK
6
CONTINUOUS
10
220.484
20
-110.096
11
220.484
21
-110.096
0
LINE
8
BLACK
6
CONTINUOUS
10
220.484
20
-110.096
11
220.51
21
-110.113
0
LINE
8
BLACK
6
CONTINUOUS
10
220.51
20
-110.113
11
220.661
21
-110.264
0
LINE
8
BLACK
6
CONTINUOUS
10
220.661
20
-110.264
11
220.678
21
-110.29
0
LINE
8
BLACK
6
CONTINUOUS
10
220.678
20
-110.29
11
220.697
21
-110.313
0
LINE
8
BLACK
6
CONTINUOUS
10
220.697
20
-110.313
11
220.848
21
-110.616
0
LINE
8
BLACK
6
CONTINUOUS
10
220.848
20
-110.616
11
220.848
21
-110.617
0
LINE
8
BLACK
6
CONTINUOUS
10
220.848
20
-110.617
11
220.849
21
-110.618
0
LINE
8
BLACK
6
CONTINUOUS
10
220.849
20
-110.618
11
220.858
21
-110.658
0
LINE
8
BLACK
6
CONTINUOUS
10
220.858
20
-110.658
11
220.868
21
-110.698
0
LINE
8
BLACK
6
CONTINUOUS
10
220.868
20
-110.698
11
220.868
21
-110.7
0
LINE
8
BLACK
6
CONTINUOUS
10
220.868
20
-110.7
11
220.868
21
-110.701
0
LINE
8
BLACK
6
CONTINUOUS
10
220.868
20
-110.701
11
220.868
21
-111.306
0
LINE
8
BLACK
6
CONTINUOUS
10
220.868
20
-111.306
11
220.868
21
-111.307
0
LINE
8
BLACK
6
CONTINUOUS
10
220.868
20
-111.307
11
220.868
21
-111.309
0
LINE
8
BLACK
6
CONTINUOUS
10
220.868
20
-111.309
11
220.858
21
-111.348
0
LINE
8
BLACK
6
CONTINUOUS
10
220.858
20
-111.348
11
220.849
21
-111.389
0
LINE
8
BLACK
6
CONTINUOUS
10
220.849
20
-111.389
11
220.848
21
-111.39
0
LINE
8
BLACK
6
CONTINUOUS
10
220.848
20
-111.39
11
220.848
21
-111.391
0
LINE
8
BLACK
6
CONTINUOUS
10
220.848
20
-111.391
11
220.697
21
-111.694
0
LINE
8
BLACK
6
CONTINUOUS
10
220.697
20
-111.694
11
220.677
21
-111.717
0
LINE
8
BLACK
6
CONTINUOUS
10
220.677
20
-111.717
11
220.661
21
-111.743
0
LINE
8
BLACK
6
CONTINUOUS
10
220.661
20
-111.743
11
220.51
21
-111.894
0
LINE
8
BLACK
6
CONTINUOUS
10
220.51
20
-111.894
11
220.484
21
-111.91
0
LINE
8
BLACK
6
CONTINUOUS
10
220.484
20
-111.91
11
220.46
21
-111.93
0
LINE
8
BLACK
6
CONTINUOUS
10
220.46
20
-111.93
11
220.158
21
-112.081
0
LINE
8
BLACK
6
CONTINUOUS
10
220.158
20
-112.081
11
220.156
21
-112.081
0
LINE
8
BLACK
6
CONTINUOUS
10
220.156
20
-112.081
11
220.155
21
-112.082
0
LINE
8
BLACK
6
CONTINUOUS
10
220.155
20
-112.082
11
220.115
21
-112.091
0
LINE
8
BLACK
6
CONTINUOUS
10
220.115
20
-112.091
11
220.075
21
-112.101
0
LINE
8
BLACK
6
CONTINUOUS
10
220.075
20
-112.101
11
220.074
21
-112.101
0
LINE
8
BLACK
6
CONTINUOUS
10
220.074
20
-112.101
11
220.073
21
-112.101
0
LINE
8
BLACK
6
CONTINUOUS
10
220.073
20
-112.101
11
219.468
21
-112.101
0
LINE
8
BLACK
6
CONTINUOUS
10
219.468
20
-112.101
11
219.466
21
-112.101
0
LINE
8
BLACK
6
CONTINUOUS
10
219.466
20
-112.101
11
219.465
21
-112.101
0
LINE
8
BLACK
6
CONTINUOUS
10
219.465
20
-112.101
11
219.425
21
-112.091
0
LINE
8
BLACK
6
CONTINUOUS
10
219.425
20
-112.091
11
219.385
21
-112.082
0
LINE
8
BLACK
6
CONTINUOUS
10
219.385
20
-112.082
11
219.384
21
-112.081
0
LINE
8
BLACK
6
CONTINUOUS
10
219.384
20
-112.081
11
219.383
21
-112.081
0
LINE
8
BLACK
6
CONTINUOUS
10
219.383
20
-112.081
11
219.08
21
-111.929
0
LINE
8
BLACK
6
CONTINUOUS
10
219.08
20
-111.929
11
219.057
21
-111.91
0
LINE
8
BLACK
6
CONTINUOUS
10
219.057
20
-111.91
11
219.031
21
-111.894
0
LINE
8
BLACK
6
CONTINUOUS
10
219.031
20
-111.894
11
218.88
21
-111.743
0
LINE
8
BLACK
6
CONTINUOUS
10
218.88
20
-111.743
11
218.863
21
-111.717
0
LINE
8
BLACK
6
CONTINUOUS
10
218.863
20
-111.717
11
218.844
21
-111.693
0
LINE
8
BLACK
6
CONTINUOUS
10
218.844
20
-111.693
11
218.693
21
-111.391
0
LINE
8
BLACK
6
CONTINUOUS
10
218.693
20
-111.391
11
218.692
21
-111.389
0
LINE
8
BLACK
6
CONTINUOUS
10
218.692
20
-111.389
11
218.692
21
-111.388
0
LINE
8
BLACK
6
CONTINUOUS
10
218.692
20
-111.388
11
218.683
21
-111.348
0
LINE
8
BLACK
6
CONTINUOUS
10
218.683
20
-111.348
11
218.673
21
-111.308
0
LINE
8
BLACK
6
CONTINUOUS
10
218.673
20
-111.308
11
218.673
21
-111.307
0
LINE
8
BLACK
6
CONTINUOUS
10
218.673
20
-111.307
11
218.673
21
-111.306
0
LINE
8
BLACK
6
CONTINUOUS
10
218.673
20
-111.306
11
218.673
21
-110.701
0
LINE
8
BLACK
6
CONTINUOUS
10
218.673
20
-110.701
11
218.673
21
-110.699
0
LINE
8
BLACK
6
CONTINUOUS
10
218.673
20
-110.699
11
218.673
21
-110.698
0
LINE
8
BLACK
6
CONTINUOUS
10
218.673
20
-110.698
11
218.683
21
-110.658
0
LINE
8
BLACK
6
CONTINUOUS
10
218.683
20
-110.658
11
218.692
21
-110.618
0
LINE
8
BLACK
6
CONTINUOUS
10
218.692
20
-110.618
11
218.693
21
-110.617
0
LINE
8
BLACK
6
CONTINUOUS
10
218.693
20
-110.617
11
218.693
21
-110.616
0
LINE
8
BLACK
6
CONTINUOUS
10
218.693
20
-110.616
11
218.844
21
-110.313
0
LINE
8
BLACK
6
CONTINUOUS
10
218.844
20
-110.313
11
218.864
21
-110.29
0
LINE
8
BLACK
6
CONTINUOUS
10
218.864
20
-110.29
11
218.88
21
-110.264
0
LINE
8
BLACK
6
CONTINUOUS
10
218.88
20
-110.264
11
219.031
21
-110.112
0
LINE
8
BLACK
6
CONTINUOUS
10
219.031
20
-110.112
11
219.057
21
-110.096
0
LINE
8
BLACK
6
CONTINUOUS
10
219.057
20
-110.096
11
219.057
21
-110.096
0
LINE
8
BLACK
6
CONTINUOUS
10
219.057
20
-110.096
11
219.057
21
-110.096
0
LINE
8
BLACK
6
CONTINUOUS
10
219.057
20
-110.096
11
219.031
21
-110.08
0
LINE
8
BLACK
6
CONTINUOUS
10
219.031
20
-110.08
11
218.88
21
-109.928
0
LINE
8
BLACK
6
CONTINUOUS
10
218.88
20
-109.928
11
218.863
21
-109.902
0
LINE
8
BLACK
6
CONTINUOUS
10
218.863
20
-109.902
11
218.844
21
-109.879
0
LINE
8
BLACK
6
CONTINUOUS
10
218.844
20
-109.879
11
218.693
21
-109.576
0
LINE
8
BLACK
6
CONTINUOUS
10
218.693
20
-109.576
11
218.692
21
-109.575
0
LINE
8
BLACK
6
CONTINUOUS
10
218.692
20
-109.575
11
218.692
21
-109.574
0
LINE
8
BLACK
6
CONTINUOUS
10
218.692
20
-109.574
11
218.683
21
-109.534
0
LINE
8
BLACK
6
CONTINUOUS
10
218.683
20
-109.534
11
218.673
21
-109.494
0
LINE
8
BLACK
6
CONTINUOUS
10
218.673
20
-109.494
11
218.673
21
-109.493
0
LINE
8
BLACK
6
CONTINUOUS
10
218.673
20
-109.493
11
218.673
21
-109.491
0
LINE
8
BLACK
6
CONTINUOUS
10
218.673
20
-109.491
11
218.673
21
-109.34
0
LINE
8
BLACK
6
CONTINUOUS
10
218.673
20
-109.34
11
218.673
21
-109.339
0
LINE
8
BLACK
6
CONTINUOUS
10
218.673
20
-109.339
11
218.673
21
-109.337
0
LINE
8
BLACK
6
CONTINUOUS
10
218.673
20
-109.337
11
218.683
21
-109.297
0
LINE
8
BLACK
6
CONTINUOUS
10
218.683
20
-109.297
11
218.692
21
-109.257
0
LINE
8
BLACK
6
CONTINUOUS
10
218.692
20
-109.257
11
218.693
21
-109.256
0
LINE
8
BLACK
6
CONTINUOUS
10
218.693
20
-109.256
11
218.693
21
-109.255
0
LINE
8
BLACK
6
CONTINUOUS
10
218.693
20
-109.255
11
218.844
21
-108.952
0
LINE
8
BLACK
6
CONTINUOUS
10
218.844
20
-108.952
11
218.864
21
-108.929
0
LINE
8
BLACK
6
CONTINUOUS
10
218.864
20
-108.929
11
218.88
21
-108.903
0
LINE
8
BLACK
6
CONTINUOUS
10
218.88
20
-108.903
11
219.031
21
-108.752
0
LINE
8
BLACK
6
CONTINUOUS
10
219.031
20
-108.752
11
219.057
21
-108.736
0
LINE
8
BLACK
6
CONTINUOUS
10
219.057
20
-108.736
11
219.081
21
-108.716
0
LINE
8
BLACK
6
CONTINUOUS
10
219.081
20
-108.716
11
219.383
21
-108.565
0
LINE
8
BLACK
6
CONTINUOUS
10
219.383
20
-108.565
11
219.384
21
-108.565
0
LINE
8
BLACK
6
CONTINUOUS
10
219.384
20
-108.565
11
219.385
21
-108.564
0
LINE
8
BLACK
6
CONTINUOUS
10
219.385
20
-108.564
11
219.426
21
-108.555
0
LINE
8
BLACK
6
CONTINUOUS
10
219.426
20
-108.555
11
219.466
21
-108.545
0
LINE
8
BLACK
6
CONTINUOUS
10
219.466
20
-108.545
11
219.467
21
-108.545
0
LINE
8
BLACK
6
CONTINUOUS
10
219.467
20
-108.545
11
219.468
21
-108.545
0
LINE
8
BLACK
6
CONTINUOUS
10
219.468
20
-108.545
11
220.073
21
-108.545
0
LINE
8
BLACK
6
CONTINUOUS
10
220.073
20
-108.545
11
220.074
21
-108.545
0
LINE
8
BLACK
6
CONTINUOUS
10
219.513
20
-110.287
11
219.279
21
-110.404
0
LINE
8
BLACK
6
CONTINUOUS
10
219.279
20
-110.404
11
219.171
21
-110.511
0
LINE
8
BLACK
6
CONTINUOUS
10
219.171
20
-110.511
11
219.054
21
-110.746
0
LINE
8
BLACK
6
CONTINUOUS
10
219.054
20
-110.746
11
219.054
21
-111.261
0
LINE
8
BLACK
6
CONTINUOUS
10
219.054
20
-111.261
11
219.171
21
-111.495
0
LINE
8
BLACK
6
CONTINUOUS
10
219.171
20
-111.495
11
219.279
21
-111.603
0
LINE
8
BLACK
6
CONTINUOUS
10
219.279
20
-111.603
11
219.513
21
-111.72
0
LINE
8
BLACK
6
CONTINUOUS
10
219.513
20
-111.72
11
220.028
21
-111.72
0
LINE
8
BLACK
6
CONTINUOUS
10
220.028
20
-111.72
11
220.262
21
-111.603
0
LINE
8
BLACK
6
CONTINUOUS
10
220.262
20
-111.603
11
220.37
21
-111.495
0
LINE
8
BLACK
6
CONTINUOUS
10
220.37
20
-111.495
11
220.487
21
-111.261
0
LINE
8
BLACK
6
CONTINUOUS
10
220.487
20
-111.261
11
220.487
21
-110.746
0
LINE
8
BLACK
6
CONTINUOUS
10
220.487
20
-110.746
11
220.37
21
-110.511
0
LINE
8
BLACK
6
CONTINUOUS
10
220.37
20
-110.511
11
220.262
21
-110.404
0
LINE
8
BLACK
6
CONTINUOUS
10
220.262
20
-110.404
11
220.028
21
-110.287
0
LINE
8
BLACK
6
CONTINUOUS
10
220.028
20
-110.287
11
219.513
21
-110.287
0
LINE
8
BLACK
6
CONTINUOUS
10
219.513
20
-108.926
11
219.279
21
-109.043
0
LINE
8
BLACK
6
CONTINUOUS
10
219.279
20
-109.043
11
219.171
21
-109.151
0
LINE
8
BLACK
6
CONTINUOUS
10
219.171
20
-109.151
11
219.054
21
-109.385
0
LINE
8
BLACK
6
CONTINUOUS
10
219.054
20
-109.385
11
219.054
21
-109.446
0
LINE
8
BLACK
6
CONTINUOUS
10
219.054
20
-109.446
11
219.171
21
-109.681
0
LINE
8
BLACK
6
CONTINUOUS
10
219.171
20
-109.681
11
219.279
21
-109.788
0
LINE
8
BLACK
6
CONTINUOUS
10
219.279
20
-109.788
11
219.513
21
-109.906
0
LINE
8
BLACK
6
CONTINUOUS
10
219.513
20
-109.906
11
220.028
21
-109.906
0
LINE
8
BLACK
6
CONTINUOUS
10
220.028
20
-109.906
11
220.262
21
-109.788
0
LINE
8
BLACK
6
CONTINUOUS
10
220.262
20
-109.788
11
220.37
21
-109.681
0
LINE
8
BLACK
6
CONTINUOUS
10
220.37
20
-109.681
11
220.487
21
-109.446
0
LINE
8
BLACK
6
CONTINUOUS
10
220.487
20
-109.446
11
220.487
21
-109.385
0
LINE
8
BLACK
6
CONTINUOUS
10
220.487
20
-109.385
11
220.37
21
-109.151
0
LINE
8
BLACK
6
CONTINUOUS
10
220.37
20
-109.151
11
220.262
21
-109.043
0
LINE
8
BLACK
6
CONTINUOUS
10
220.262
20
-109.043
11
220.028
21
-108.926
0
LINE
8
BLACK
6
CONTINUOUS
10
220.028
20
-108.926
11
219.513
21
-108.926
0
LINE
8
BLACK
6
CONTINUOUS
10
225.669
20
-108.545
11
225.67
21
-108.545
0
LINE
8
BLACK
6
CONTINUOUS
10
225.67
20
-108.545
11
225.71
21
-108.555
0
LINE
8
BLACK
6
CONTINUOUS
10
225.71
20
-108.555
11
225.75
21
-108.564
0
LINE
8
BLACK
6
CONTINUOUS
10
225.75
20
-108.564
11
225.751
21
-108.565
0
LINE
8
BLACK
6
CONTINUOUS
10
225.751
20
-108.565
11
225.752
21
-108.565
0
LINE
8
BLACK
6
CONTINUOUS
10
225.752
20
-108.565
11
226.055
21
-108.716
0
LINE
8
BLACK
6
CONTINUOUS
10
226.055
20
-108.716
11
226.078
21
-108.736
0
LINE
8
BLACK
6
CONTINUOUS
10
226.078
20
-108.736
11
226.104
21
-108.752
0
LINE
8
BLACK
6
CONTINUOUS
10
226.104
20
-108.752
11
226.407
21
-109.055
0
LINE
8
BLACK
6
CONTINUOUS
10
226.407
20
-109.055
11
226.411
21
-109.062
0
LINE
8
BLACK
6
CONTINUOUS
10
226.411
20
-109.062
11
226.418
21
-109.067
0
LINE
8
BLACK
6
CONTINUOUS
10
226.418
20
-109.067
11
226.434
21
-109.098
0
LINE
8
BLACK
6
CONTINUOUS
10
226.434
20
-109.098
11
226.452
21
-109.126
0
LINE
8
BLACK
6
CONTINUOUS
10
226.452
20
-109.126
11
226.453
21
-109.135
0
LINE
8
BLACK
6
CONTINUOUS
10
226.453
20
-109.135
11
226.456
21
-109.143
0
LINE
8
BLACK
6
CONTINUOUS
10
226.456
20
-109.143
11
226.608
21
-109.748
0
LINE
8
BLACK
6
CONTINUOUS
10
226.608
20
-109.748
11
226.608
21
-109.771
0
LINE
8
BLACK
6
CONTINUOUS
10
226.608
20
-109.771
11
226.613
21
-109.794
0
LINE
8
BLACK
6
CONTINUOUS
10
226.613
20
-109.794
11
226.613
21
-110.852
0
LINE
8
BLACK
6
CONTINUOUS
10
226.613
20
-110.852
11
226.608
21
-110.875
0
LINE
8
BLACK
6
CONTINUOUS
10
226.608
20
-110.875
11
226.608
21
-110.898
0
LINE
8
BLACK
6
CONTINUOUS
10
226.608
20
-110.898
11
226.456
21
-111.503
0
LINE
8
BLACK
6
CONTINUOUS
10
226.456
20
-111.503
11
226.452
21
-111.511
0
LINE
8
BLACK
6
CONTINUOUS
10
226.452
20
-111.511
11
226.451
21
-111.52
0
LINE
8
BLACK
6
CONTINUOUS
10
226.451
20
-111.52
11
226.433
21
-111.549
0
LINE
8
BLACK
6
CONTINUOUS
10
226.433
20
-111.549
11
226.418
21
-111.579
0
LINE
8
BLACK
6
CONTINUOUS
10
226.418
20
-111.579
11
226.411
21
-111.584
0
LINE
8
BLACK
6
CONTINUOUS
10
226.411
20
-111.584
11
226.406
21
-111.592
0
LINE
8
BLACK
6
CONTINUOUS
10
226.406
20
-111.592
11
226.104
21
-111.894
0
LINE
8
BLACK
6
CONTINUOUS
10
226.104
20
-111.894
11
226.078
21
-111.91
0
LINE
8
BLACK
6
CONTINUOUS
10
226.078
20
-111.91
11
226.054
21
-111.93
0
LINE
8
BLACK
6
CONTINUOUS
10
226.054
20
-111.93
11
225.752
21
-112.081
0
LINE
8
BLACK
6
CONTINUOUS
10
225.752
20
-112.081
11
225.751
21
-112.081
0
LINE
8
BLACK
6
CONTINUOUS
10
225.751
20
-112.081
11
225.75
21
-112.082
0
LINE
8
BLACK
6
CONTINUOUS
10
225.75
20
-112.082
11
225.709
21
-112.091
0
LINE
8
BLACK
6
CONTINUOUS
10
225.709
20
-112.091
11
225.669
21
-112.101
0
LINE
8
BLACK
6
CONTINUOUS
10
225.669
20
-112.101
11
225.668
21
-112.101
0
LINE
8
BLACK
6
CONTINUOUS
10
225.668
20
-112.101
11
225.667
21
-112.101
0
LINE
8
BLACK
6
CONTINUOUS
10
225.667
20
-112.101
11
225.062
21
-112.101
0
LINE
8
BLACK
6
CONTINUOUS
10
225.062
20
-112.101
11
225.061
21
-112.101
0
LINE
8
BLACK
6
CONTINUOUS
10
225.061
20
-112.101
11
225.059
21
-112.101
0
LINE
8
BLACK
6
CONTINUOUS
10
225.059
20
-112.101
11
225.019
21
-112.091
0
LINE
8
BLACK
6
CONTINUOUS
10
225.019
20
-112.091
11
224.979
21
-112.082
0
LINE
8
BLACK
6
CONTINUOUS
10
224.979
20
-112.082
11
224.978
21
-112.081
0
LINE
8
BLACK
6
CONTINUOUS
10
224.978
20
-112.081
11
224.977
21
-112.081
0
LINE
8
BLACK
6
CONTINUOUS
10
224.977
20
-112.081
11
224.674
21
-111.929
0
LINE
8
BLACK
6
CONTINUOUS
10
224.674
20
-111.929
11
224.651
21
-111.91
0
LINE
8
BLACK
6
CONTINUOUS
10
224.651
20
-111.91
11
224.625
21
-111.894
0
LINE
8
BLACK
6
CONTINUOUS
10
224.625
20
-111.894
11
224.322
21
-111.591
0
LINE
8
BLACK
6
CONTINUOUS
10
224.322
20
-111.591
11
224.318
21
-111.584
0
LINE
8
BLACK
6
CONTINUOUS
10
224.318
20
-111.584
11
224.311
21
-111.579
0
LINE
8
BLACK
6
CONTINUOUS
10
224.311
20
-111.579
11
224.296
21
-111.548
0
LINE
8
BLACK
6
CONTINUOUS
10
224.296
20
-111.548
11
224.277
21
-111.52
0
LINE
8
BLACK
6
CONTINUOUS
10
224.277
20
-111.52
11
224.277
21
-111.511
0
LINE
8
BLACK
6
CONTINUOUS
10
224.277
20
-111.511
11
224.273
21
-111.503
0
LINE
8
BLACK
6
CONTINUOUS
10
224.273
20
-111.503
11
224.121
21
-110.898
0
LINE
8
BLACK
6
CONTINUOUS
10
224.121
20
-110.898
11
224.121
21
-110.875
0
LINE
8
BLACK
6
CONTINUOUS
10
224.121
20
-110.875
11
224.116
21
-110.852
0
LINE
8
BLACK
6
CONTINUOUS
10
224.116
20
-110.852
11
224.116
21
-109.793
0
LINE
8
BLACK
6
CONTINUOUS
10
224.116
20
-109.793
11
224.121
21
-109.771
0
LINE
8
BLACK
6
CONTINUOUS
10
224.121
20
-109.771
11
224.121
21
-109.748
0
LINE
8
BLACK
6
CONTINUOUS
10
224.121
20
-109.748
11
224.273
21
-109.142
0
LINE
8
BLACK
6
CONTINUOUS
10
224.273
20
-109.142
11
224.277
21
-109.135
0
LINE
8
BLACK
6
CONTINUOUS
10
224.277
20
-109.135
11
224.278
21
-109.126
0
LINE
8
BLACK
6
CONTINUOUS
10
224.278
20
-109.126
11
224.296
21
-109.097
0
LINE
8
BLACK
6
CONTINUOUS
10
224.296
20
-109.097
11
224.311
21
-109.067
0
LINE
8
BLACK
6
CONTINUOUS
10
224.311
20
-109.067
11
224.318
21
-109.062
0
LINE
8
BLACK
6
CONTINUOUS
10
224.318
20
-109.062
11
224.323
21
-109.054
0
LINE
8
BLACK
6
CONTINUOUS
10
224.323
20
-109.054
11
224.625
21
-108.752
0
LINE
8
BLACK
6
CONTINUOUS
10
224.625
20
-108.752
11
224.651
21
-108.736
0
LINE
8
BLACK
6
CONTINUOUS
10
224.651
20
-108.736
11
224.675
21
-108.716
0
LINE
8
BLACK
6
CONTINUOUS
10
224.675
20
-108.716
11
224.977
21
-108.565
0
LINE
8
BLACK
6
CONTINUOUS
10
224.977
20
-108.565
11
224.979
21
-108.565
0
LINE
8
BLACK
6
CONTINUOUS
10
224.979
20
-108.565
11
224.98
21
-108.564
0
LINE
8
BLACK
6
CONTINUOUS
10
224.98
20
-108.564
11
225.02
21
-108.555
0
LINE
8
BLACK
6
CONTINUOUS
10
225.02
20
-108.555
11
225.06
21
-108.545
0
LINE
8
BLACK
6
CONTINUOUS
10
225.06
20
-108.545
11
225.061
21
-108.545
0
LINE
8
BLACK
6
CONTINUOUS
10
225.061
20
-108.545
11
225.062
21
-108.545
0
LINE
8
BLACK
6
CONTINUOUS
10
225.062
20
-108.545
11
225.667
21
-108.545
0
LINE
8
BLACK
6
CONTINUOUS
10
225.667
20
-108.545
11
225.669
21
-108.545
0
LINE
8
BLACK
6
CONTINUOUS
10
225.107
20
-108.926
11
224.873
21
-109.043
0
LINE
8
BLACK
6
CONTINUOUS
10
224.873
20
-109.043
11
224.629
21
-109.286
0
LINE
8
BLACK
6
CONTINUOUS
10
224.629
20
-109.286
11
224.497
21
-109.817
0
LINE
8
BLACK
6
CONTINUOUS
10
224.497
20
-109.817
11
224.497
21
-110.829
0
LINE
8
BLACK
6
CONTINUOUS
10
224.497
20
-110.829
11
224.629
21
-111.359
0
LINE
8
BLACK
6
CONTINUOUS
10
224.629
20
-111.359
11
224.873
21
-111.603
0
LINE
8
BLACK
6
CONTINUOUS
10
224.873
20
-111.603
11
225.107
21
-111.72
0
LINE
8
BLACK
6
CONTINUOUS
10
225.107
20
-111.72
11
225.622
21
-111.72
0
LINE
8
BLACK
6
CONTINUOUS
10
225.622
20
-111.72
11
225.856
21
-111.603
0
LINE
8
BLACK
6
CONTINUOUS
10
225.856
20
-111.603
11
226.1
21
-111.359
0
LINE
8
BLACK
6
CONTINUOUS
10
226.1
20
-111.359
11
226.232
21
-110.829
0
LINE
8
BLACK
6
CONTINUOUS
10
226.232
20
-110.829
11
226.232
21
-109.817
0
LINE
8
BLACK
6
CONTINUOUS
10
226.232
20
-109.817
11
226.1
21
-109.286
0
LINE
8
BLACK
6
CONTINUOUS
10
226.1
20
-109.286
11
225.856
21
-109.043
0
LINE
8
BLACK
6
CONTINUOUS
10
225.856
20
-109.043
11
225.622
21
-108.926
0
LINE
8
BLACK
6
CONTINUOUS
10
225.622
20
-108.926
11
225.107
21
-108.926
0
LINE
8
BLACK
6
CONTINUOUS
10
231.111
20
-108.55
11
231.152
21
-108.55
0
LINE
8
BLACK
6
CONTINUOUS
10
231.152
20
-108.55
11
231.153
21
-108.55
0
LINE
8
BLACK
6
CONTINUOUS
10
231.153
20
-108.55
11
231.155
21
-108.55
0
LINE
8
BLACK
6
CONTINUOUS
10
231.155
20
-108.55
11
231.191
21
-108.569
0
LINE
8
BLACK
6
CONTINUOUS
10
231.191
20
-108.569
11
231.229
21
-108.587
0
LINE
8
BLACK
6
CONTINUOUS
10
231.229
20
-108.587
11
231.229
21
-108.587
0
LINE
8
BLACK
6
CONTINUOUS
10
231.229
20
-108.587
11
231.23
21
-108.588
0
LINE
8
BLACK
6
CONTINUOUS
10
231.23
20
-108.588
11
231.256
21
-108.621
0
LINE
8
BLACK
6
CONTINUOUS
10
231.256
20
-108.621
11
231.281
21
-108.653
0
LINE
8
BLACK
6
CONTINUOUS
10
231.281
20
-108.653
11
231.282
21
-108.654
0
LINE
8
BLACK
6
CONTINUOUS
10
231.282
20
-108.654
11
231.282
21
-108.655
0
LINE
8
BLACK
6
CONTINUOUS
10
231.282
20
-108.655
11
232.168
21
-110.553
0
LINE
8
BLACK
6
CONTINUOUS
10
232.168
20
-110.553
11
233.054
21
-108.655
0
LINE
8
BLACK
6
CONTINUOUS
10
233.054
20
-108.655
11
233.055
21
-108.654
0
LINE
8
BLACK
6
CONTINUOUS
10
233.055
20
-108.654
11
233.055
21
-108.653
0
LINE
8
BLACK
6
CONTINUOUS
10
233.055
20
-108.653
11
233.081
21
-108.62
0
LINE
8
BLACK
6
CONTINUOUS
10
233.081
20
-108.62
11
233.106
21
-108.588
0
LINE
8
BLACK
6
CONTINUOUS
10
233.106
20
-108.588
11
233.107
21
-108.587
0
LINE
8
BLACK
6
CONTINUOUS
10
233.107
20
-108.587
11
233.108
21
-108.586
0
LINE
8
BLACK
6
CONTINUOUS
10
233.108
20
-108.586
11
233.145
21
-108.568
0
LINE
8
BLACK
6
CONTINUOUS
10
233.145
20
-108.568
11
233.182
21
-108.55
0
LINE
8
BLACK
6
CONTINUOUS
10
233.182
20
-108.55
11
233.183
21
-108.55
0
LINE
8
BLACK
6
CONTINUOUS
10
233.183
20
-108.55
11
233.184
21
-108.55
0
LINE
8
BLACK
6
CONTINUOUS
10
233.184
20
-108.55
11
233.226
21
-108.55
0
LINE
8
BLACK
6
CONTINUOUS
10
233.226
20
-108.55
11
233.267
21
-108.549
0
LINE
8
BLACK
6
CONTINUOUS
10
233.267
20
-108.549
11
233.268
21
-108.55
0
LINE
8
BLACK
6
CONTINUOUS
10
233.268
20
-108.55
11
233.269
21
-108.55
0
LINE
8
BLACK
6
CONTINUOUS
10
233.269
20
-108.55
11
233.306
21
-108.568
0
LINE
8
BLACK
6
CONTINUOUS
10
233.306
20
-108.568
11
233.343
21
-108.585
0
LINE
8
BLACK
6
CONTINUOUS
10
233.343
20
-108.585
11
233.344
21
-108.586
0
LINE
8
BLACK
6
CONTINUOUS
10
233.344
20
-108.586
11
233.345
21
-108.587
0
LINE
8
BLACK
6
CONTINUOUS
10
233.345
20
-108.587
11
233.371
21
-108.619
0
LINE
8
BLACK
6
CONTINUOUS
10
233.371
20
-108.619
11
233.397
21
-108.651
0
LINE
8
BLACK
6
CONTINUOUS
10
233.397
20
-108.651
11
233.397
21
-108.652
0
LINE
8
BLACK
6
CONTINUOUS
10
233.397
20
-108.652
11
233.398
21
-108.653
0
LINE
8
BLACK
6
CONTINUOUS
10
233.398
20
-108.653
11
233.407
21
-108.693
0
LINE
8
BLACK
6
CONTINUOUS
10
233.407
20
-108.693
11
233.417
21
-108.733
0
LINE
8
BLACK
6
CONTINUOUS
10
233.417
20
-108.733
11
233.417
21
-108.734
0
LINE
8
BLACK
6
CONTINUOUS
10
233.417
20
-108.734
11
233.417
21
-108.735
0
LINE
8
BLACK
6
CONTINUOUS
10
233.417
20
-108.735
11
233.417
21
-111.911
0
LINE
8
BLACK
6
CONTINUOUS
10
233.417
20
-111.911
11
233.398
21
-111.993
0
LINE
8
BLACK
6
CONTINUOUS
10
233.398
20
-111.993
11
233.345
21
-112.06
0
LINE
8
BLACK
6
CONTINUOUS
10
233.345
20
-112.06
11
233.269
21
-112.096
0
LINE
8
BLACK
6
CONTINUOUS
10
233.269
20
-112.096
11
233.184
21
-112.096
0
LINE
8
BLACK
6
CONTINUOUS
10
233.184
20
-112.096
11
233.108
21
-112.059
0
LINE
8
BLACK
6
CONTINUOUS
10
233.108
20
-112.059
11
233.055
21
-111.993
0
LINE
8
BLACK
6
CONTINUOUS
10
233.055
20
-111.993
11
233.036
21
-111.91
0
LINE
8
BLACK
6
CONTINUOUS
10
233.036
20
-111.91
11
233.036
21
-109.594
0
LINE
8
BLACK
6
CONTINUOUS
10
233.036
20
-109.594
11
232.341
21
-111.084
0
LINE
8
BLACK
6
CONTINUOUS
10
232.341
20
-111.084
11
232.339
21
-111.086
0
LINE
8
BLACK
6
CONTINUOUS
10
232.339
20
-111.086
11
232.339
21
-111.088
0
LINE
8
BLACK
6
CONTINUOUS
10
232.339
20
-111.088
11
232.313
21
-111.119
0
LINE
8
BLACK
6
CONTINUOUS
10
232.313
20
-111.119
11
232.288
21
-111.151
0
LINE
8
BLACK
6
CONTINUOUS
10
232.288
20
-111.151
11
232.286
21
-111.152
0
LINE
8
BLACK
6
CONTINUOUS
10
232.286
20
-111.152
11
232.285
21
-111.154
0
LINE
8
BLACK
6
CONTINUOUS
10
232.285
20
-111.154
11
232.249
21
-111.171
0
LINE
8
BLACK
6
CONTINUOUS
10
232.249
20
-111.171
11
232.213
21
-111.189
0
LINE
8
BLACK
6
CONTINUOUS
10
232.213
20
-111.189
11
232.21
21
-111.189
0
LINE
8
BLACK
6
CONTINUOUS
10
232.21
20
-111.189
11
232.208
21
-111.19
0
LINE
8
BLACK
6
CONTINUOUS
10
232.208
20
-111.19
11
232.168
21
-111.189
0
LINE
8
BLACK
6
CONTINUOUS
10
232.168
20
-111.189
11
232.128
21
-111.189
0
LINE
8
BLACK
6
CONTINUOUS
10
232.128
20
-111.189
11
232.126
21
-111.188
0
LINE
8
BLACK
6
CONTINUOUS
10
232.126
20
-111.188
11
232.123
21
-111.188
0
LINE
8
BLACK
6
CONTINUOUS
10
232.123
20
-111.188
11
232.087
21
-111.171
0
LINE
8
BLACK
6
CONTINUOUS
10
232.087
20
-111.171
11
232.051
21
-111.154
0
LINE
8
BLACK
6
CONTINUOUS
10
232.051
20
-111.154
11
232.05
21
-111.152
0
LINE
8
BLACK
6
CONTINUOUS
10
232.05
20
-111.152
11
232.047
21
-111.151
0
LINE
8
BLACK
6
CONTINUOUS
10
232.047
20
-111.151
11
232.023
21
-111.119
0
LINE
8
BLACK
6
CONTINUOUS
10
232.023
20
-111.119
11
231.997
21
-111.088
0
LINE
8
BLACK
6
CONTINUOUS
10
231.997
20
-111.088
11
231.997
21
-111.086
0
LINE
8
BLACK
6
CONTINUOUS
10
231.997
20
-111.086
11
231.995
21
-111.084
0
LINE
8
BLACK
6
CONTINUOUS
10
231.995
20
-111.084
11
231.3
21
-109.594
0
LINE
8
BLACK
6
CONTINUOUS
10
231.3
20
-109.594
11
231.3
21
-111.911
0
LINE
8
BLACK
6
CONTINUOUS
10
231.3
20
-111.911
11
231.281
21
-111.993
0
LINE
8
BLACK
6
CONTINUOUS
10
231.281
20
-111.993
11
231.228
21
-112.06
0
LINE
8
BLACK
6
CONTINUOUS
10
231.228
20
-112.06
11
231.152
21
-112.096
0
LINE
8
BLACK
6
CONTINUOUS
10
231.152
20
-112.096
11
231.067
21
-112.096
0
LINE
8
BLACK
6
CONTINUOUS
10
231.067
20
-112.096
11
230.991
21
-112.059
0
LINE
8
BLACK
6
CONTINUOUS
10
230.991
20
-112.059
11
230.938
21
-111.993
0
LINE
8
BLACK
6
CONTINUOUS
10
230.938
20
-111.993
11
230.919
21
-111.91
0
LINE
8
BLACK
6
CONTINUOUS
10
230.919
20
-111.91
11
230.919
21
-108.735
0
LINE
8
BLACK
6
CONTINUOUS
10
230.919
20
-108.735
11
230.92
21
-108.734
0
LINE
8
BLACK
6
CONTINUOUS
10
230.92
20
-108.734
11
230.919
21
-108.733
0
LINE
8
BLACK
6
CONTINUOUS
10
230.919
20
-108.733
11
230.929
21
-108.693
0
LINE
8
BLACK
6
CONTINUOUS
10
230.929
20
-108.693
11
230.938
21
-108.653
0
LINE
8
BLACK
6
CONTINUOUS
10
230.938
20
-108.653
11
230.939
21
-108.652
0
LINE
8
BLACK
6
CONTINUOUS
10
230.939
20
-108.652
11
230.939
21
-108.65
0
LINE
8
BLACK
6
CONTINUOUS
10
230.939
20
-108.65
11
230.965
21
-108.619
0
LINE
8
BLACK
6
CONTINUOUS
10
230.965
20
-108.619
11
230.991
21
-108.586
0
LINE
8
BLACK
6
CONTINUOUS
10
230.991
20
-108.586
11
230.992
21
-108.586
0
LINE
8
BLACK
6
CONTINUOUS
10
230.992
20
-108.586
11
230.993
21
-108.585
0
LINE
8
BLACK
6
CONTINUOUS
10
230.993
20
-108.585
11
231.03
21
-108.568
0
LINE
8
BLACK
6
CONTINUOUS
10
231.03
20
-108.568
11
231.068
21
-108.55
0
LINE
8
BLACK
6
CONTINUOUS
10
231.068
20
-108.55
11
231.069
21
-108.55
0
LINE
8
BLACK
6
CONTINUOUS
10
231.069
20
-108.55
11
231.07
21
-108.549
0
LINE
8
BLACK
6
CONTINUOUS
10
231.07
20
-108.549
11
231.111
21
-108.55
0
LINE
8
BLACK
6
CONTINUOUS
10
229.64
20
-108.55
11
229.717
21
-108.587
0
LINE
8
BLACK
6
CONTINUOUS
10
229.717
20
-108.587
11
229.77
21
-108.653
0
LINE
8
BLACK
6
CONTINUOUS
10
229.77
20
-108.653
11
229.788
21
-108.735
0
LINE
8
BLACK
6
CONTINUOUS
10
229.788
20
-108.735
11
229.788
21
-111.911
0
LINE
8
BLACK
6
CONTINUOUS
10
229.788
20
-111.911
11
229.769
21
-111.993
0
LINE
8
BLACK
6
CONTINUOUS
10
229.769
20
-111.993
11
229.716
21
-112.06
0
LINE
8
BLACK
6
CONTINUOUS
10
229.716
20
-112.06
11
229.64
21
-112.096
0
LINE
8
BLACK
6
CONTINUOUS
10
229.64
20
-112.096
11
229.555
21
-112.096
0
LINE
8
BLACK
6
CONTINUOUS
10
229.555
20
-112.096
11
229.479
21
-112.059
0
LINE
8
BLACK
6
CONTINUOUS
10
229.479
20
-112.059
11
229.426
21
-111.993
0
LINE
8
BLACK
6
CONTINUOUS
10
229.426
20
-111.993
11
229.407
21
-111.91
0
LINE
8
BLACK
6
CONTINUOUS
10
229.407
20
-111.91
11
229.407
21
-110.438
0
LINE
8
BLACK
6
CONTINUOUS
10
229.407
20
-110.438
11
227.974
21
-110.438
0
LINE
8
BLACK
6
CONTINUOUS
10
227.974
20
-110.438
11
227.974
21
-111.911
0
LINE
8
BLACK
6
CONTINUOUS
10
227.974
20
-111.911
11
227.955
21
-111.993
0
LINE
8
BLACK
6
CONTINUOUS
10
227.955
20
-111.993
11
227.902
21
-112.06
0
LINE
8
BLACK
6
CONTINUOUS
10
227.902
20
-112.06
11
227.826
21
-112.096
0
LINE
8
BLACK
6
CONTINUOUS
10
227.826
20
-112.096
11
227.741
21
-112.096
0
LINE
8
BLACK
6
CONTINUOUS
10
227.741
20
-112.096
11
227.665
21
-112.059
0
LINE
8
BLACK
6
CONTINUOUS
10
227.665
20
-112.059
11
227.612
21
-111.993
0
LINE
8
BLACK
6
CONTINUOUS
10
227.612
20
-111.993
11
227.593
21
-111.91
0
LINE
8
BLACK
6
CONTINUOUS
10
227.593
20
-111.91
11
227.593
21
-108.735
0
LINE
8
BLACK
6
CONTINUOUS
10
227.593
20
-108.735
11
227.612
21
-108.653
0
LINE
8
BLACK
6
CONTINUOUS
10
227.612
20
-108.653
11
227.665
21
-108.586
0
LINE
8
BLACK
6
CONTINUOUS
10
227.665
20
-108.586
11
227.741
21
-108.55
0
LINE
8
BLACK
6
CONTINUOUS
10
227.741
20
-108.55
11
227.826
21
-108.55
0
LINE
8
BLACK
6
CONTINUOUS
10
227.826
20
-108.55
11
227.902
21
-108.587
0
LINE
8
BLACK
6
CONTINUOUS
10
227.902
20
-108.587
11
227.955
21
-108.653
0
LINE
8
BLACK
6
CONTINUOUS
10
227.955
20
-108.653
11
227.974
21
-108.735
0
LINE
8
BLACK
6
CONTINUOUS
10
227.974
20
-108.735
11
227.974
21
-110.057
0
LINE
8
BLACK
6
CONTINUOUS
10
227.974
20
-110.057
11
229.407
21
-110.057
0
LINE
8
BLACK
6
CONTINUOUS
10
229.407
20
-110.057
11
229.407
21
-108.735
0
LINE
8
BLACK
6
CONTINUOUS
10
229.407
20
-108.735
11
229.426
21
-108.653
0
LINE
8
BLACK
6
CONTINUOUS
10
229.426
20
-108.653
11
229.479
21
-108.586
0
LINE
8
BLACK
6
CONTINUOUS
10
229.479
20
-108.586
11
229.556
21
-108.55
0
LINE
8
BLACK
6
CONTINUOUS
10
229.556
20
-108.55
11
229.64
21
-108.55
0
LINE
8
BLACK
6
CONTINUOUS
10
149.771
20
-79.3511
11
149.772
21
-79.3508
0
LINE
8
BLACK
6
CONTINUOUS
10
149.772
20
-79.3508
11
149.812
21
-79.3606
0
LINE
8
BLACK
6
CONTINUOUS
10
149.812
20
-79.3606
11
149.852
21
-79.3698
0
LINE
8
BLACK
6
CONTINUOUS
10
149.852
20
-79.3698
11
149.853
21
-79.3706
0
LINE
8
BLACK
6
CONTINUOUS
10
149.853
20
-79.3706
11
149.854
21
-79.3709
0
LINE
8
BLACK
6
CONTINUOUS
10
149.854
20
-79.3709
11
150.157
21
-79.5223
0
LINE
8
BLACK
6
CONTINUOUS
10
150.157
20
-79.5223
11
150.181
21
-79.5416
0
LINE
8
BLACK
6
CONTINUOUS
10
150.181
20
-79.5416
11
150.206
21
-79.5578
0
LINE
8
BLACK
6
CONTINUOUS
10
150.206
20
-79.5578
11
150.509
21
-79.8604
0
LINE
8
BLACK
6
CONTINUOUS
10
150.509
20
-79.8604
11
150.514
21
-79.8678
0
LINE
8
BLACK
6
CONTINUOUS
10
150.514
20
-79.8678
11
150.521
21
-79.8731
0
LINE
8
BLACK
6
CONTINUOUS
10
150.521
20
-79.8731
11
150.536
21
-79.9034
0
LINE
8
BLACK
6
CONTINUOUS
10
150.536
20
-79.9034
11
150.554
21
-79.9322
0
LINE
8
BLACK
6
CONTINUOUS
10
150.554
20
-79.9322
11
150.555
21
-79.9409
0
LINE
8
BLACK
6
CONTINUOUS
10
150.555
20
-79.9409
11
150.559
21
-79.9487
0
LINE
8
BLACK
6
CONTINUOUS
10
150.559
20
-79.9487
11
150.71
21
-80.5538
0
LINE
8
BLACK
6
CONTINUOUS
10
150.71
20
-80.5538
11
150.711
21
-80.577
0
LINE
8
BLACK
6
CONTINUOUS
10
150.711
20
-80.577
11
150.716
21
-80.5996
0
LINE
8
BLACK
6
CONTINUOUS
10
150.716
20
-80.5996
11
150.716
21
-81.6583
0
LINE
8
BLACK
6
CONTINUOUS
10
150.716
20
-81.6583
11
150.711
21
-81.681
0
LINE
8
BLACK
6
CONTINUOUS
10
150.711
20
-81.681
11
150.71
21
-81.7042
0
LINE
8
BLACK
6
CONTINUOUS
10
150.71
20
-81.7042
11
150.559
21
-82.3093
0
LINE
8
BLACK
6
CONTINUOUS
10
150.559
20
-82.3093
11
150.555
21
-82.317
0
LINE
8
BLACK
6
CONTINUOUS
10
150.555
20
-82.317
11
150.554
21
-82.3257
0
LINE
8
BLACK
6
CONTINUOUS
10
150.554
20
-82.3257
11
150.536
21
-82.3545
0
LINE
8
BLACK
6
CONTINUOUS
10
150.536
20
-82.3545
11
150.52
21
-82.3848
0
LINE
8
BLACK
6
CONTINUOUS
10
150.52
20
-82.3848
11
150.513
21
-82.3901
0
LINE
8
BLACK
6
CONTINUOUS
10
150.513
20
-82.3901
11
150.509
21
-82.3974
0
LINE
8
BLACK
6
CONTINUOUS
10
150.509
20
-82.3974
11
150.206
21
-82.7001
0
LINE
8
BLACK
6
CONTINUOUS
10
150.206
20
-82.7001
11
150.18
21
-82.7162
0
LINE
8
BLACK
6
CONTINUOUS
10
150.18
20
-82.7162
11
150.157
21
-82.7355
0
LINE
8
BLACK
6
CONTINUOUS
10
150.157
20
-82.7355
11
149.854
21
-82.8868
0
LINE
8
BLACK
6
CONTINUOUS
10
149.854
20
-82.8868
11
149.853
21
-82.8872
0
LINE
8
BLACK
6
CONTINUOUS
10
149.853
20
-82.8872
11
149.852
21
-82.888
0
LINE
8
BLACK
6
CONTINUOUS
10
149.852
20
-82.888
11
149.812
21
-82.8971
0
LINE
8
BLACK
6
CONTINUOUS
10
149.812
20
-82.8971
11
149.772
21
-82.9068
0
LINE
8
BLACK
6
CONTINUOUS
10
149.772
20
-82.9068
11
149.771
21
-82.9065
0
LINE
8
BLACK
6
CONTINUOUS
10
149.771
20
-82.9065
11
149.769
21
-82.9068
0
LINE
8
BLACK
6
CONTINUOUS
10
149.769
20
-82.9068
11
149.164
21
-82.9068
0
LINE
8
BLACK
6
CONTINUOUS
10
149.164
20
-82.9068
11
149.163
21
-82.9065
0
LINE
8
BLACK
6
CONTINUOUS
10
149.163
20
-82.9065
11
149.162
21
-82.9068
0
LINE
8
BLACK
6
CONTINUOUS
10
149.162
20
-82.9068
11
149.122
21
-82.897
0
LINE
8
BLACK
6
CONTINUOUS
10
149.122
20
-82.897
11
149.082
21
-82.8878
0
LINE
8
BLACK
6
CONTINUOUS
10
149.082
20
-82.8878
11
149.081
21
-82.887
0
LINE
8
BLACK
6
CONTINUOUS
10
149.081
20
-82.887
11
149.079
21
-82.8867
0
LINE
8
BLACK
6
CONTINUOUS
10
149.079
20
-82.8867
11
148.777
21
-82.7354
0
LINE
8
BLACK
6
CONTINUOUS
10
148.777
20
-82.7354
11
148.753
21
-82.716
0
LINE
8
BLACK
6
CONTINUOUS
10
148.753
20
-82.716
11
148.727
21
-82.6998
0
LINE
8
BLACK
6
CONTINUOUS
10
148.727
20
-82.6998
11
148.425
21
-82.3972
0
LINE
8
BLACK
6
CONTINUOUS
10
148.425
20
-82.3972
11
148.42
21
-82.3898
0
LINE
8
BLACK
6
CONTINUOUS
10
148.42
20
-82.3898
11
148.413
21
-82.3845
0
LINE
8
BLACK
6
CONTINUOUS
10
148.413
20
-82.3845
11
148.398
21
-82.3542
0
LINE
8
BLACK
6
CONTINUOUS
10
148.398
20
-82.3542
11
148.38
21
-82.3254
0
LINE
8
BLACK
6
CONTINUOUS
10
148.38
20
-82.3254
11
148.379
21
-82.3167
0
LINE
8
BLACK
6
CONTINUOUS
10
148.379
20
-82.3167
11
148.375
21
-82.3089
0
LINE
8
BLACK
6
CONTINUOUS
10
148.375
20
-82.3089
11
148.224
21
-81.7039
0
LINE
8
BLACK
6
CONTINUOUS
10
148.224
20
-81.7039
11
148.223
21
-81.6806
0
LINE
8
BLACK
6
CONTINUOUS
10
148.223
20
-81.6806
11
148.218
21
-81.658
0
LINE
8
BLACK
6
CONTINUOUS
10
148.218
20
-81.658
11
148.218
21
-80.5993
0
LINE
8
BLACK
6
CONTINUOUS
10
148.218
20
-80.5993
11
148.223
21
-80.5767
0
LINE
8
BLACK
6
CONTINUOUS
10
148.223
20
-80.5767
11
148.224
21
-80.5534
0
LINE
8
BLACK
6
CONTINUOUS
10
148.224
20
-80.5534
11
148.375
21
-79.9484
0
LINE
8
BLACK
6
CONTINUOUS
10
148.375
20
-79.9484
11
148.379
21
-79.9406
0
LINE
8
BLACK
6
CONTINUOUS
10
148.379
20
-79.9406
11
148.38
21
-79.9319
0
LINE
8
BLACK
6
CONTINUOUS
10
148.38
20
-79.9319
11
148.398
21
-79.9031
0
LINE
8
BLACK
6
CONTINUOUS
10
148.398
20
-79.9031
11
148.413
21
-79.8728
0
LINE
8
BLACK
6
CONTINUOUS
10
148.413
20
-79.8728
11
148.42
21
-79.8676
0
LINE
8
BLACK
6
CONTINUOUS
10
148.42
20
-79.8676
11
148.425
21
-79.8602
0
LINE
8
BLACK
6
CONTINUOUS
10
148.425
20
-79.8602
11
148.728
21
-79.5576
0
LINE
8
BLACK
6
CONTINUOUS
10
148.728
20
-79.5576
11
148.753
21
-79.5414
0
LINE
8
BLACK
6
CONTINUOUS
10
148.753
20
-79.5414
11
148.777
21
-79.5221
0
LINE
8
BLACK
6
CONTINUOUS
10
148.777
20
-79.5221
11
149.08
21
-79.3708
0
LINE
8
BLACK
6
CONTINUOUS
10
149.08
20
-79.3708
11
149.081
21
-79.3705
0
LINE
8
BLACK
6
CONTINUOUS
10
149.081
20
-79.3705
11
149.082
21
-79.3697
0
LINE
8
BLACK
6
CONTINUOUS
10
149.082
20
-79.3697
11
149.122
21
-79.3605
0
LINE
8
BLACK
6
CONTINUOUS
10
149.122
20
-79.3605
11
149.162
21
-79.3508
0
LINE
8
BLACK
6
CONTINUOUS
10
149.162
20
-79.3508
11
149.163
21
-79.3511
0
LINE
8
BLACK
6
CONTINUOUS
10
149.163
20
-79.3511
11
149.165
21
-79.3508
0
LINE
8
BLACK
6
CONTINUOUS
10
149.165
20
-79.3508
11
149.77
21
-79.3508
0
LINE
8
BLACK
6
CONTINUOUS
10
149.77
20
-79.3508
11
149.771
21
-79.3511
0
LINE
8
BLACK
6
CONTINUOUS
10
149.209
20
-79.7318
11
148.975
21
-79.8491
0
LINE
8
BLACK
6
CONTINUOUS
10
148.975
20
-79.8491
11
148.732
21
-80.0923
0
LINE
8
BLACK
6
CONTINUOUS
10
148.732
20
-80.0923
11
148.599
21
-80.6231
0
LINE
8
BLACK
6
CONTINUOUS
10
148.599
20
-80.6231
11
148.599
21
-81.6345
0
LINE
8
BLACK
6
CONTINUOUS
10
148.599
20
-81.6345
11
148.732
21
-82.1653
0
LINE
8
BLACK
6
CONTINUOUS
10
148.732
20
-82.1653
11
148.975
21
-82.4086
0
LINE
8
BLACK
6
CONTINUOUS
10
148.975
20
-82.4086
11
149.209
21
-82.5258
0
LINE
8
BLACK
6
CONTINUOUS
10
149.209
20
-82.5258
11
149.724
21
-82.5258
0
LINE
8
BLACK
6
CONTINUOUS
10
149.724
20
-82.5258
11
149.959
21
-82.4086
0
LINE
8
BLACK
6
CONTINUOUS
10
149.959
20
-82.4086
11
150.202
21
-82.1653
0
LINE
8
BLACK
6
CONTINUOUS
10
150.202
20
-82.1653
11
150.335
21
-81.6345
0
LINE
8
BLACK
6
CONTINUOUS
10
150.335
20
-81.6345
11
150.335
21
-80.6231
0
LINE
8
BLACK
6
CONTINUOUS
10
150.335
20
-80.6231
11
150.202
21
-80.0923
0
LINE
8
BLACK
6
CONTINUOUS
10
150.202
20
-80.0923
11
149.959
21
-79.8491
0
LINE
8
BLACK
6
CONTINUOUS
10
149.959
20
-79.8491
11
149.724
21
-79.7318
0
LINE
8
BLACK
6
CONTINUOUS
10
149.724
20
-79.7318
11
149.209
21
-79.7318
0
LINE
8
BLACK
6
CONTINUOUS
10
151.922
20
-79.3556
11
151.928
21
-79.3556
0
LINE
8
BLACK
6
CONTINUOUS
10
151.928
20
-79.3556
11
151.961
21
-79.3712
0
LINE
8
BLACK
6
CONTINUOUS
10
151.961
20
-79.3712
11
151.994
21
-79.3844
0
LINE
8
BLACK
6
CONTINUOUS
10
151.994
20
-79.3844
11
151.999
21
-79.3895
0
LINE
8
BLACK
6
CONTINUOUS
10
151.999
20
-79.3895
11
152.005
21
-79.3924
0
LINE
8
BLACK
6
CONTINUOUS
10
152.005
20
-79.3924
11
152.027
21
-79.4204
0
LINE
8
BLACK
6
CONTINUOUS
10
152.027
20
-79.4204
11
152.051
21
-79.4468
0
LINE
8
BLACK
6
CONTINUOUS
10
152.051
20
-79.4468
11
153.51
21
-81.999
0
LINE
8
BLACK
6
CONTINUOUS
10
153.51
20
-81.999
11
153.51
21
-79.541
0
LINE
8
BLACK
6
CONTINUOUS
10
153.51
20
-79.541
11
153.529
21
-79.4584
0
LINE
8
BLACK
6
CONTINUOUS
10
153.529
20
-79.4584
11
153.582
21
-79.3922
0
LINE
8
BLACK
6
CONTINUOUS
10
153.582
20
-79.3922
11
153.658
21
-79.3555
0
LINE
8
BLACK
6
CONTINUOUS
10
153.658
20
-79.3555
11
153.743
21
-79.3556
0
LINE
8
BLACK
6
CONTINUOUS
10
153.743
20
-79.3556
11
153.819
21
-79.3924
0
LINE
8
BLACK
6
CONTINUOUS
10
153.819
20
-79.3924
11
153.872
21
-79.4587
0
LINE
8
BLACK
6
CONTINUOUS
10
153.872
20
-79.4587
11
153.891
21
-79.5413
0
LINE
8
BLACK
6
CONTINUOUS
10
153.891
20
-79.5413
11
153.891
21
-82.7166
0
LINE
8
BLACK
6
CONTINUOUS
10
153.891
20
-82.7166
11
153.883
21
-82.7515
0
LINE
8
BLACK
6
CONTINUOUS
10
153.883
20
-82.7515
11
153.877
21
-82.7869
0
LINE
8
BLACK
6
CONTINUOUS
10
153.877
20
-82.7869
11
153.873
21
-82.7925
0
LINE
8
BLACK
6
CONTINUOUS
10
153.873
20
-82.7925
11
153.872
21
-82.7992
0
LINE
8
BLACK
6
CONTINUOUS
10
153.872
20
-82.7992
11
153.849
21
-82.8272
0
LINE
8
BLACK
6
CONTINUOUS
10
153.849
20
-82.8272
11
153.829
21
-82.8567
0
LINE
8
BLACK
6
CONTINUOUS
10
153.829
20
-82.8567
11
153.823
21
-82.8601
0
LINE
8
BLACK
6
CONTINUOUS
10
153.823
20
-82.8601
11
153.819
21
-82.8654
0
LINE
8
BLACK
6
CONTINUOUS
10
153.819
20
-82.8654
11
153.787
21
-82.8809
0
LINE
8
BLACK
6
CONTINUOUS
10
153.787
20
-82.8809
11
153.755
21
-82.8986
0
LINE
8
BLACK
6
CONTINUOUS
10
153.755
20
-82.8986
11
153.749
21
-82.8991
0
LINE
8
BLACK
6
CONTINUOUS
10
153.749
20
-82.8991
11
153.742
21
-82.9021
0
LINE
8
BLACK
6
CONTINUOUS
10
153.742
20
-82.9021
11
153.707
21
-82.902
0
LINE
8
BLACK
6
CONTINUOUS
10
153.707
20
-82.902
11
153.671
21
-82.9045
0
LINE
8
BLACK
6
CONTINUOUS
10
153.671
20
-82.9045
11
153.665
21
-82.902
0
LINE
8
BLACK
6
CONTINUOUS
10
153.665
20
-82.902
11
153.658
21
-82.902
0
LINE
8
BLACK
6
CONTINUOUS
10
153.658
20
-82.902
11
153.625
21
-82.8864
0
LINE
8
BLACK
6
CONTINUOUS
10
153.625
20
-82.8864
11
153.592
21
-82.8732
0
LINE
8
BLACK
6
CONTINUOUS
10
153.592
20
-82.8732
11
153.588
21
-82.8682
0
LINE
8
BLACK
6
CONTINUOUS
10
153.588
20
-82.8682
11
153.581
21
-82.8652
0
LINE
8
BLACK
6
CONTINUOUS
10
153.581
20
-82.8652
11
153.559
21
-82.8372
0
LINE
8
BLACK
6
CONTINUOUS
10
153.559
20
-82.8372
11
153.535
21
-82.8108
0
LINE
8
BLACK
6
CONTINUOUS
10
153.535
20
-82.8108
11
152.076
21
-80.2586
0
LINE
8
BLACK
6
CONTINUOUS
10
152.076
20
-80.2586
11
152.076
21
-82.7166
0
LINE
8
BLACK
6
CONTINUOUS
10
152.076
20
-82.7166
11
152.057
21
-82.7992
0
LINE
8
BLACK
6
CONTINUOUS
10
152.057
20
-82.7992
11
152.005
21
-82.8654
0
LINE
8
BLACK
6
CONTINUOUS
10
152.005
20
-82.8654
11
151.928
21
-82.9021
0
LINE
8
BLACK
6
CONTINUOUS
10
151.928
20
-82.9021
11
151.843
21
-82.902
0
LINE
8
BLACK
6
CONTINUOUS
10
151.843
20
-82.902
11
151.767
21
-82.8652
0
LINE
8
BLACK
6
CONTINUOUS
10
151.767
20
-82.8652
11
151.714
21
-82.7989
0
LINE
8
BLACK
6
CONTINUOUS
10
151.714
20
-82.7989
11
151.695
21
-82.7163
0
LINE
8
BLACK
6
CONTINUOUS
10
151.695
20
-82.7163
11
151.695
21
-79.541
0
LINE
8
BLACK
6
CONTINUOUS
10
151.695
20
-79.541
11
151.703
21
-79.5061
0
LINE
8
BLACK
6
CONTINUOUS
10
151.703
20
-79.5061
11
151.709
21
-79.4707
0
LINE
8
BLACK
6
CONTINUOUS
10
151.709
20
-79.4707
11
151.713
21
-79.4651
0
LINE
8
BLACK
6
CONTINUOUS
10
151.713
20
-79.4651
11
151.714
21
-79.4584
0
LINE
8
BLACK
6
CONTINUOUS
10
151.714
20
-79.4584
11
151.737
21
-79.4304
0
LINE
8
BLACK
6
CONTINUOUS
10
151.737
20
-79.4304
11
151.757
21
-79.401
0
LINE
8
BLACK
6
CONTINUOUS
10
151.757
20
-79.401
11
151.763
21
-79.3976
0
LINE
8
BLACK
6
CONTINUOUS
10
151.763
20
-79.3976
11
151.767
21
-79.3922
0
LINE
8
BLACK
6
CONTINUOUS
10
151.767
20
-79.3922
11
151.8
21
-79.3767
0
LINE
8
BLACK
6
CONTINUOUS
10
151.8
20
-79.3767
11
151.831
21
-79.359
0
LINE
8
BLACK
6
CONTINUOUS
10
151.831
20
-79.359
11
151.838
21
-79.3585
0
LINE
8
BLACK
6
CONTINUOUS
10
151.838
20
-79.3585
11
151.844
21
-79.3555
0
LINE
8
BLACK
6
CONTINUOUS
10
151.844
20
-79.3555
11
151.88
21
-79.3556
0
LINE
8
BLACK
6
CONTINUOUS
10
151.88
20
-79.3556
11
151.915
21
-79.3531
0
LINE
8
BLACK
6
CONTINUOUS
10
151.915
20
-79.3531
11
151.922
21
-79.3556
0
LINE
8
BLACK
6
CONTINUOUS
10
102.437
20
-96.2436
11
102.502
21
-96.0107
0
LINE
8
BLACK
6
CONTINUOUS
10
102.502
20
-96.0107
11
102.603
21
-95.7914
0
LINE
8
BLACK
6
CONTINUOUS
10
102.603
20
-95.7914
11
102.74
21
-95.5918
0
LINE
8
BLACK
6
CONTINUOUS
10
102.74
20
-95.5918
11
102.907
21
-95.417
0
LINE
8
BLACK
6
CONTINUOUS
10
102.907
20
-95.417
11
103.1
21
-95.2719
0
LINE
8
BLACK
6
CONTINUOUS
10
103.1
20
-95.2719
11
103.314
21
-95.1603
0
LINE
8
BLACK
6
CONTINUOUS
10
103.314
20
-95.1603
11
103.544
21
-95.0852
0
LINE
8
BLACK
6
CONTINUOUS
10
103.544
20
-95.0852
11
103.783
21
-95.0486
0
LINE
8
BLACK
6
CONTINUOUS
10
103.783
20
-95.0486
11
104.025
21
-95.0515
0
LINE
8
BLACK
6
CONTINUOUS
10
104.025
20
-95.0515
11
104.263
21
-95.0939
0
LINE
8
BLACK
6
CONTINUOUS
10
104.263
20
-95.0939
11
104.491
21
-95.1746
0
LINE
8
BLACK
6
CONTINUOUS
10
104.491
20
-95.1746
11
104.702
21
-95.2914
0
LINE
8
BLACK
6
CONTINUOUS
10
104.702
20
-95.2914
11
104.892
21
-95.4413
0
LINE
8
BLACK
6
CONTINUOUS
10
104.892
20
-95.4413
11
105.055
21
-95.62
0
LINE
8
BLACK
6
CONTINUOUS
10
105.055
20
-95.62
11
105.186
21
-95.823
0
LINE
8
BLACK
6
CONTINUOUS
10
105.186
20
-95.823
11
105.282
21
-96.0447
0
LINE
8
BLACK
6
CONTINUOUS
10
105.282
20
-96.0447
11
105.341
21
-96.2791
0
LINE
8
BLACK
6
CONTINUOUS
10
105.341
20
-96.2791
11
105.361
21
-96.52
0
LINE
8
BLACK
6
CONTINUOUS
10
105.361
20
-96.52
11
105.359
21
-96.5921
0
LINE
8
BLACK
6
CONTINUOUS
10
105.359
20
-96.5921
11
105.328
21
-96.8317
0
LINE
8
BLACK
6
CONTINUOUS
10
105.328
20
-96.8317
11
105.257
21
-97.063
0
LINE
8
BLACK
6
CONTINUOUS
10
105.257
20
-97.063
11
105.15
21
-97.2797
0
LINE
8
BLACK
6
CONTINUOUS
10
105.15
20
-97.2797
11
105.009
21
-97.476
0
LINE
8
BLACK
6
CONTINUOUS
10
105.009
20
-97.476
11
104.838
21
-97.6466
0
LINE
8
BLACK
6
CONTINUOUS
10
104.838
20
-97.6466
11
104.641
21
-97.787
0
LINE
8
BLACK
6
CONTINUOUS
10
104.641
20
-97.787
11
104.424
21
-97.8933
0
LINE
8
BLACK
6
CONTINUOUS
10
104.424
20
-97.8933
11
104.193
21
-97.9628
0
LINE
8
BLACK
6
CONTINUOUS
10
104.193
20
-97.9628
11
103.953
21
-97.9935
0
LINE
8
BLACK
6
CONTINUOUS
10
103.953
20
-97.9935
11
103.711
21
-97.9846
0
LINE
8
BLACK
6
CONTINUOUS
10
103.711
20
-97.9846
11
103.474
21
-97.9364
0
LINE
8
BLACK
6
CONTINUOUS
10
103.474
20
-97.9364
11
103.249
21
-97.8502
0
LINE
8
BLACK
6
CONTINUOUS
10
103.249
20
-97.8502
11
103.04
21
-97.7282
0
LINE
8
BLACK
6
CONTINUOUS
10
103.04
20
-97.7282
11
102.854
21
-97.5738
0
LINE
8
BLACK
6
CONTINUOUS
10
102.854
20
-97.5738
11
102.696
21
-97.3911
0
LINE
8
BLACK
6
CONTINUOUS
10
102.696
20
-97.3911
11
102.569
21
-97.185
0
LINE
8
BLACK
6
CONTINUOUS
10
102.569
20
-97.185
11
102.478
21
-96.9611
0
LINE
8
BLACK
6
CONTINUOUS
10
102.478
20
-96.9611
11
102.425
21
-96.7253
0
LINE
8
BLACK
6
CONTINUOUS
10
102.425
20
-96.7253
11
102.414
21
-96.52
0
LINE
8
BLACK
6
CONTINUOUS
10
102.414
20
-96.52
11
102.411
21
-96.484
0
LINE
8
BLACK
6
CONTINUOUS
10
102.411
20
-96.484
11
102.437
21
-96.2436
0
LINE
8
BLACK
6
CONTINUOUS
10
102.636
20
-96.9749
11
102.734
21
-97.185
0
LINE
8
BLACK
6
CONTINUOUS
10
102.734
20
-97.185
11
102.867
21
-97.3749
0
LINE
8
BLACK
6
CONTINUOUS
10
102.867
20
-97.3749
11
103.031
21
-97.5389
0
LINE
8
BLACK
6
CONTINUOUS
10
103.031
20
-97.5389
11
103.221
21
-97.6719
0
LINE
8
BLACK
6
CONTINUOUS
10
103.221
20
-97.6719
11
103.431
21
-97.7698
0
LINE
8
BLACK
6
CONTINUOUS
10
103.431
20
-97.7698
11
103.655
21
-97.8299
0
LINE
8
BLACK
6
CONTINUOUS
10
103.655
20
-97.8299
11
103.886
21
-97.8501
0
LINE
8
BLACK
6
CONTINUOUS
10
103.886
20
-97.8501
11
104.117
21
-97.8299
0
LINE
8
BLACK
6
CONTINUOUS
10
104.117
20
-97.8299
11
104.341
21
-97.7698
0
LINE
8
BLACK
6
CONTINUOUS
10
104.341
20
-97.7698
11
104.551
21
-97.6719
0
LINE
8
BLACK
6
CONTINUOUS
10
104.551
20
-97.6719
11
104.741
21
-97.5389
0
LINE
8
BLACK
6
CONTINUOUS
10
104.741
20
-97.5389
11
104.905
21
-97.3749
0
LINE
8
BLACK
6
CONTINUOUS
10
104.905
20
-97.3749
11
105.038
21
-97.185
0
LINE
8
BLACK
6
CONTINUOUS
10
105.038
20
-97.185
11
105.136
21
-96.9749
0
LINE
8
BLACK
6
CONTINUOUS
10
105.136
20
-96.9749
11
105.196
21
-96.751
0
LINE
8
BLACK
6
CONTINUOUS
10
105.196
20
-96.751
11
105.216
21
-96.52
0
LINE
8
BLACK
6
CONTINUOUS
10
105.216
20
-96.52
11
105.196
21
-96.289
0
LINE
8
BLACK
6
CONTINUOUS
10
105.196
20
-96.289
11
105.136
21
-96.0651
0
LINE
8
BLACK
6
CONTINUOUS
10
105.136
20
-96.0651
11
105.038
21
-95.855
0
LINE
8
BLACK
6
CONTINUOUS
10
105.038
20
-95.855
11
104.905
21
-95.6651
0
LINE
8
BLACK
6
CONTINUOUS
10
104.905
20
-95.6651
11
104.741
21
-95.5011
0
LINE
8
BLACK
6
CONTINUOUS
10
104.741
20
-95.5011
11
104.551
21
-95.3681
0
LINE
8
BLACK
6
CONTINUOUS
10
104.551
20
-95.3681
11
104.341
21
-95.2702
0
LINE
8
BLACK
6
CONTINUOUS
10
104.341
20
-95.2702
11
104.117
21
-95.2101
0
LINE
8
BLACK
6
CONTINUOUS
10
104.117
20
-95.2101
11
103.886
21
-95.1899
0
LINE
8
BLACK
6
CONTINUOUS
10
103.886
20
-95.1899
11
103.655
21
-95.2101
0
LINE
8
BLACK
6
CONTINUOUS
10
103.655
20
-95.2101
11
103.431
21
-95.2702
0
LINE
8
BLACK
6
CONTINUOUS
10
103.431
20
-95.2702
11
103.221
21
-95.3681
0
LINE
8
BLACK
6
CONTINUOUS
10
103.221
20
-95.3681
11
103.031
21
-95.5011
0
LINE
8
BLACK
6
CONTINUOUS
10
103.031
20
-95.5011
11
102.867
21
-95.6651
0
LINE
8
BLACK
6
CONTINUOUS
10
102.867
20
-95.6651
11
102.734
21
-95.855
0
LINE
8
BLACK
6
CONTINUOUS
10
102.734
20
-95.855
11
102.636
21
-96.0651
0
LINE
8
BLACK
6
CONTINUOUS
10
102.636
20
-96.0651
11
102.576
21
-96.289
0
LINE
8
BLACK
6
CONTINUOUS
10
102.576
20
-96.289
11
102.556
21
-96.52
0
LINE
8
BLACK
6
CONTINUOUS
10
102.556
20
-96.52
11
102.576
21
-96.751
0
LINE
8
BLACK
6
CONTINUOUS
10
102.576
20
-96.751
11
102.636
21
-96.9749
0
CIRCLE
8
BLACK
10
103.886
20
-96.52
40
0.5
  0
ENDSEC
  0
EOF
