  0
SECTION
  2
HEADER
  9
$ANGBASE
  50
0.0
  9
$ANGDIR
  70
1
  9
$MEASUREMENT
  70
1
  0
ENDSEC
  0
SECTION
  2
TABLES
  0
TABLE
  2
LTYPE
  70
4
  0
LTYPE
  5
40F
  2
CONTINUOUS
  70
0
  3
Solid line
  72
65
  73
0
  40
0.0
  0
LTYPE
  5
410
  2
DASHDOT
 70
0
  3
Dash Dot ____ _ ____ _
 72
65
 73
4
 40
2.0
 49
1.25
 49
-0.25
 49
0.25
 49
-0.25
  0
LTYPE
  5
411
  2
DASHED
 70
0
  3
Dashed __ __ __ __ __
 72
65
 73
2
 40
0.75
 49
0.5
 49
-0.25
  0
LTYPE
  5
43B
  2
DOTTED
 70
0
  3
Dotted .  .  .  .
 72
65
 73
2
 40
0.2
 49
0.0
 49
-0.2
  0
ENDTAB
  0
TABLE
  2
STYLE
  70
4
  0
STYLE
  2
KICAD
  70
0
  40
0
  41
1
  42
1
  50
0
  71
0
  3
isocp.shx
  0
STYLE
  2
KICADB
  70
0
  40
0
  41
1
  42
1
  50
0
  71
0
  3
isocp.shx
  0
STYLE
  2
KICADI
  70
0
  40
0
  41
1
  42
1
  50
15
  71
0
  3
isocp.shx
  0
STYLE
  2
KICADBI
  70
0
  40
0
  41
1
  42
1
  50
15
  71
0
  3
isocp.shx
  0
ENDTAB
  0
TABLE
  2
LAYER
  70
1
  0
LAYER
  2
BLACK
  70
0
  62
7
  6
CONTINUOUS
  0
ENDTAB
  0
ENDSEC
  0
SECTION
  2
ENTITIES
0
LINE
8
BLACK
6
CONTINUOUS
10
89.2843
20
-107.811
11
89.3018
21
-107.86
0
LINE
8
BLACK
6
CONTINUOUS
10
89.3018
20
-107.86
11
89.3018
21
-108.86
0
LINE
8
BLACK
6
CONTINUOUS
10
89.3018
20
-108.86
11
89.3001
21
-108.869
0
LINE
8
BLACK
6
CONTINUOUS
10
89.3001
20
-108.869
11
89.3007
21
-108.873
0
LINE
8
BLACK
6
CONTINUOUS
10
89.3007
20
-108.873
11
89.299
21
-108.875
0
LINE
8
BLACK
6
CONTINUOUS
10
89.299
20
-108.875
11
89.2973
21
-108.885
0
LINE
8
BLACK
6
CONTINUOUS
10
89.2973
20
-108.885
11
89.2848
21
-108.9
0
LINE
8
BLACK
6
CONTINUOUS
10
89.2848
20
-108.9
11
89.275
21
-108.917
0
LINE
8
BLACK
6
CONTINUOUS
10
89.275
20
-108.917
11
89.2687
21
-108.919
0
LINE
8
BLACK
6
CONTINUOUS
10
89.2687
20
-108.919
11
89.2643
21
-108.925
0
LINE
8
BLACK
6
CONTINUOUS
10
89.2643
20
-108.925
11
89.2451
21
-108.928
0
LINE
8
BLACK
6
CONTINUOUS
10
89.2451
20
-108.928
11
89.2268
21
-108.935
0
LINE
8
BLACK
6
CONTINUOUS
10
89.2268
20
-108.935
11
88.7506
21
-108.935
0
LINE
8
BLACK
6
CONTINUOUS
10
88.7506
20
-108.935
11
88.725
21
-108.93
0
LINE
8
BLACK
6
CONTINUOUS
10
88.725
20
-108.93
11
88.6857
21
-108.897
0
LINE
8
BLACK
6
CONTINUOUS
10
88.6857
20
-108.897
11
88.6768
21
-108.847
0
LINE
8
BLACK
6
CONTINUOUS
10
88.6768
20
-108.847
11
88.7024
21
-108.802
0
LINE
8
BLACK
6
CONTINUOUS
10
88.7024
20
-108.802
11
88.7506
21
-108.785
0
LINE
8
BLACK
6
CONTINUOUS
10
88.7506
20
-108.785
11
89.1518
21
-108.785
0
LINE
8
BLACK
6
CONTINUOUS
10
89.1518
20
-108.785
11
89.1518
21
-107.86
0
LINE
8
BLACK
6
CONTINUOUS
10
89.1518
20
-107.86
11
89.1564
21
-107.834
0
LINE
8
BLACK
6
CONTINUOUS
10
89.1564
20
-107.834
11
89.1893
21
-107.795
0
LINE
8
BLACK
6
CONTINUOUS
10
89.1893
20
-107.795
11
89.2399
21
-107.786
0
LINE
8
BLACK
6
CONTINUOUS
10
89.2399
20
-107.786
11
89.2843
21
-107.811
0
LINE
8
BLACK
6
CONTINUOUS
10
85.5822
20
-107.788
11
85.5839
21
-107.788
0
LINE
8
BLACK
6
CONTINUOUS
10
85.5839
20
-107.788
11
85.7267
21
-107.836
0
LINE
8
BLACK
6
CONTINUOUS
10
85.7267
20
-107.836
11
85.7496
21
-107.848
0
LINE
8
BLACK
6
CONTINUOUS
10
85.7496
20
-107.848
11
85.752
21
-107.852
0
LINE
8
BLACK
6
CONTINUOUS
10
85.752
20
-107.852
11
85.7561
21
-107.854
0
LINE
8
BLACK
6
CONTINUOUS
10
85.7561
20
-107.854
11
85.8513
21
-107.949
0
LINE
8
BLACK
6
CONTINUOUS
10
85.8513
20
-107.949
11
85.8642
21
-107.968
0
LINE
8
BLACK
6
CONTINUOUS
10
85.8642
20
-107.968
11
85.8653
21
-107.969
0
LINE
8
BLACK
6
CONTINUOUS
10
85.8653
20
-107.969
11
85.913
21
-108.064
0
LINE
8
BLACK
6
CONTINUOUS
10
85.913
20
-108.064
11
85.9166
21
-108.077
0
LINE
8
BLACK
6
CONTINUOUS
10
85.9166
20
-108.077
11
85.9186
21
-108.079
0
LINE
8
BLACK
6
CONTINUOUS
10
85.9186
20
-108.079
11
85.9663
21
-108.27
0
LINE
8
BLACK
6
CONTINUOUS
10
85.9663
20
-108.27
11
85.9673
21
-108.285
0
LINE
8
BLACK
6
CONTINUOUS
10
85.9673
20
-108.285
11
85.9685
21
-108.288
0
LINE
8
BLACK
6
CONTINUOUS
10
85.9685
20
-108.288
11
85.9685
21
-108.431
0
LINE
8
BLACK
6
CONTINUOUS
10
85.9685
20
-108.431
11
85.9659
21
-108.446
0
LINE
8
BLACK
6
CONTINUOUS
10
85.9659
20
-108.446
11
85.9663
21
-108.449
0
LINE
8
BLACK
6
CONTINUOUS
10
85.9663
20
-108.449
11
85.9186
21
-108.64
0
LINE
8
BLACK
6
CONTINUOUS
10
85.9186
20
-108.64
11
85.9134
21
-108.651
0
LINE
8
BLACK
6
CONTINUOUS
10
85.9134
20
-108.651
11
85.913
21
-108.655
0
LINE
8
BLACK
6
CONTINUOUS
10
85.913
20
-108.655
11
85.8653
21
-108.75
0
LINE
8
BLACK
6
CONTINUOUS
10
85.8653
20
-108.75
11
85.852
21
-108.768
0
LINE
8
BLACK
6
CONTINUOUS
10
85.852
20
-108.768
11
85.8513
21
-108.77
0
LINE
8
BLACK
6
CONTINUOUS
10
85.8513
20
-108.77
11
85.7561
21
-108.865
0
LINE
8
BLACK
6
CONTINUOUS
10
85.7561
20
-108.865
11
85.7347
21
-108.88
0
LINE
8
BLACK
6
CONTINUOUS
10
85.7347
20
-108.88
11
85.7302
21
-108.88
0
LINE
8
BLACK
6
CONTINUOUS
10
85.7302
20
-108.88
11
85.7267
21
-108.883
0
LINE
8
BLACK
6
CONTINUOUS
10
85.7267
20
-108.883
11
85.5839
21
-108.931
0
LINE
8
BLACK
6
CONTINUOUS
10
85.5839
20
-108.931
11
85.5617
21
-108.934
0
LINE
8
BLACK
6
CONTINUOUS
10
85.5617
20
-108.934
11
85.5602
21
-108.935
0
LINE
8
BLACK
6
CONTINUOUS
10
85.5602
20
-108.935
11
85.4649
21
-108.935
0
LINE
8
BLACK
6
CONTINUOUS
10
85.4649
20
-108.935
11
85.4428
21
-108.931
0
LINE
8
BLACK
6
CONTINUOUS
10
85.4428
20
-108.931
11
85.4412
21
-108.931
0
LINE
8
BLACK
6
CONTINUOUS
10
85.4412
20
-108.931
11
85.2983
21
-108.883
0
LINE
8
BLACK
6
CONTINUOUS
10
85.2983
20
-108.883
11
85.2754
21
-108.871
0
LINE
8
BLACK
6
CONTINUOUS
10
85.2754
20
-108.871
11
85.2731
21
-108.867
0
LINE
8
BLACK
6
CONTINUOUS
10
85.2731
20
-108.867
11
85.269
21
-108.865
0
LINE
8
BLACK
6
CONTINUOUS
10
85.269
20
-108.865
11
85.2214
21
-108.817
0
LINE
8
BLACK
6
CONTINUOUS
10
85.2214
20
-108.817
11
85.2065
21
-108.796
0
LINE
8
BLACK
6
CONTINUOUS
10
85.2065
20
-108.796
11
85.202
21
-108.745
0
LINE
8
BLACK
6
CONTINUOUS
10
85.202
20
-108.745
11
85.2314
21
-108.703
0
LINE
8
BLACK
6
CONTINUOUS
10
85.2314
20
-108.703
11
85.281
21
-108.69
0
LINE
8
BLACK
6
CONTINUOUS
10
85.281
20
-108.69
11
85.3275
21
-108.711
0
LINE
8
BLACK
6
CONTINUOUS
10
85.3275
20
-108.711
11
85.3626
21
-108.746
0
LINE
8
BLACK
6
CONTINUOUS
10
85.3626
20
-108.746
11
85.4771
21
-108.785
0
LINE
8
BLACK
6
CONTINUOUS
10
85.4771
20
-108.785
11
85.548
21
-108.785
0
LINE
8
BLACK
6
CONTINUOUS
10
85.548
20
-108.785
11
85.6625
21
-108.746
0
LINE
8
BLACK
6
CONTINUOUS
10
85.6625
20
-108.746
11
85.7366
21
-108.672
0
LINE
8
BLACK
6
CONTINUOUS
10
85.7366
20
-108.672
11
85.7751
21
-108.595
0
LINE
8
BLACK
6
CONTINUOUS
10
85.7751
20
-108.595
11
85.8185
21
-108.422
0
LINE
8
BLACK
6
CONTINUOUS
10
85.8185
20
-108.422
11
85.8185
21
-108.297
0
LINE
8
BLACK
6
CONTINUOUS
10
85.8185
20
-108.297
11
85.7751
21
-108.124
0
LINE
8
BLACK
6
CONTINUOUS
10
85.7751
20
-108.124
11
85.7366
21
-108.047
0
LINE
8
BLACK
6
CONTINUOUS
10
85.7366
20
-108.047
11
85.6625
21
-107.973
0
LINE
8
BLACK
6
CONTINUOUS
10
85.6625
20
-107.973
11
85.548
21
-107.935
0
LINE
8
BLACK
6
CONTINUOUS
10
85.548
20
-107.935
11
85.4771
21
-107.935
0
LINE
8
BLACK
6
CONTINUOUS
10
85.4771
20
-107.935
11
85.3626
21
-107.973
0
LINE
8
BLACK
6
CONTINUOUS
10
85.3626
20
-107.973
11
85.3275
21
-108.008
0
LINE
8
BLACK
6
CONTINUOUS
10
85.3275
20
-108.008
11
85.3061
21
-108.023
0
LINE
8
BLACK
6
CONTINUOUS
10
85.3061
20
-108.023
11
85.255
21
-108.027
0
LINE
8
BLACK
6
CONTINUOUS
10
85.255
20
-108.027
11
85.213
21
-107.998
0
LINE
8
BLACK
6
CONTINUOUS
10
85.213
20
-107.998
11
85.1997
21
-107.948
0
LINE
8
BLACK
6
CONTINUOUS
10
85.1997
20
-107.948
11
85.2214
21
-107.902
0
LINE
8
BLACK
6
CONTINUOUS
10
85.2214
20
-107.902
11
85.269
21
-107.854
0
LINE
8
BLACK
6
CONTINUOUS
10
85.269
20
-107.854
11
85.2904
21
-107.839
0
LINE
8
BLACK
6
CONTINUOUS
10
85.2904
20
-107.839
11
85.2948
21
-107.839
0
LINE
8
BLACK
6
CONTINUOUS
10
85.2948
20
-107.839
11
85.2983
21
-107.836
0
LINE
8
BLACK
6
CONTINUOUS
10
85.2983
20
-107.836
11
85.4412
21
-107.788
0
LINE
8
BLACK
6
CONTINUOUS
10
85.4412
20
-107.788
11
85.4634
21
-107.785
0
LINE
8
BLACK
6
CONTINUOUS
10
85.4634
20
-107.785
11
85.4649
21
-107.785
0
LINE
8
BLACK
6
CONTINUOUS
10
85.4649
20
-107.785
11
85.5602
21
-107.785
0
LINE
8
BLACK
6
CONTINUOUS
10
85.5602
20
-107.785
11
85.5822
21
-107.788
0
LINE
8
BLACK
6
CONTINUOUS
10
86.7129
20
-107.811
11
86.7304
21
-107.86
0
LINE
8
BLACK
6
CONTINUOUS
10
86.7304
20
-107.86
11
86.7304
21
-108.86
0
LINE
8
BLACK
6
CONTINUOUS
10
86.7304
20
-108.86
11
86.7287
21
-108.869
0
LINE
8
BLACK
6
CONTINUOUS
10
86.7287
20
-108.869
11
86.7293
21
-108.873
0
LINE
8
BLACK
6
CONTINUOUS
10
86.7293
20
-108.873
11
86.7276
21
-108.875
0
LINE
8
BLACK
6
CONTINUOUS
10
86.7276
20
-108.875
11
86.7259
21
-108.885
0
LINE
8
BLACK
6
CONTINUOUS
10
86.7259
20
-108.885
11
86.7134
21
-108.9
0
LINE
8
BLACK
6
CONTINUOUS
10
86.7134
20
-108.9
11
86.7036
21
-108.917
0
LINE
8
BLACK
6
CONTINUOUS
10
86.7036
20
-108.917
11
86.6972
21
-108.919
0
LINE
8
BLACK
6
CONTINUOUS
10
86.6972
20
-108.919
11
86.6929
21
-108.925
0
LINE
8
BLACK
6
CONTINUOUS
10
86.6929
20
-108.925
11
86.6737
21
-108.928
0
LINE
8
BLACK
6
CONTINUOUS
10
86.6737
20
-108.928
11
86.6554
21
-108.935
0
LINE
8
BLACK
6
CONTINUOUS
10
86.6554
20
-108.935
11
86.1792
21
-108.935
0
LINE
8
BLACK
6
CONTINUOUS
10
86.1792
20
-108.935
11
86.1536
21
-108.93
0
LINE
8
BLACK
6
CONTINUOUS
10
86.1536
20
-108.93
11
86.1143
21
-108.897
0
LINE
8
BLACK
6
CONTINUOUS
10
86.1143
20
-108.897
11
86.1053
21
-108.847
0
LINE
8
BLACK
6
CONTINUOUS
10
86.1053
20
-108.847
11
86.131
21
-108.802
0
LINE
8
BLACK
6
CONTINUOUS
10
86.131
20
-108.802
11
86.1792
21
-108.785
0
LINE
8
BLACK
6
CONTINUOUS
10
86.1792
20
-108.785
11
86.5804
21
-108.785
0
LINE
8
BLACK
6
CONTINUOUS
10
86.5804
20
-108.785
11
86.5804
21
-107.86
0
LINE
8
BLACK
6
CONTINUOUS
10
86.5804
20
-107.86
11
86.5849
21
-107.834
0
LINE
8
BLACK
6
CONTINUOUS
10
86.5849
20
-107.834
11
86.6179
21
-107.795
0
LINE
8
BLACK
6
CONTINUOUS
10
86.6179
20
-107.795
11
86.6684
21
-107.786
0
LINE
8
BLACK
6
CONTINUOUS
10
86.6684
20
-107.786
11
86.7129
21
-107.811
0
LINE
8
BLACK
6
CONTINUOUS
10
87.189
20
-107.811
11
87.2066
21
-107.86
0
LINE
8
BLACK
6
CONTINUOUS
10
87.2066
20
-107.86
11
87.2066
21
-108.562
0
LINE
8
BLACK
6
CONTINUOUS
10
87.2066
20
-108.562
11
87.2448
21
-108.676
0
LINE
8
BLACK
6
CONTINUOUS
10
87.2448
20
-108.676
11
87.315
21
-108.746
0
LINE
8
BLACK
6
CONTINUOUS
10
87.315
20
-108.746
11
87.4295
21
-108.785
0
LINE
8
BLACK
6
CONTINUOUS
10
87.4295
20
-108.785
11
87.5125
21
-108.785
0
LINE
8
BLACK
6
CONTINUOUS
10
87.5125
20
-108.785
11
87.5382
21
-108.789
0
LINE
8
BLACK
6
CONTINUOUS
10
87.5382
20
-108.789
11
87.5775
21
-108.822
0
LINE
8
BLACK
6
CONTINUOUS
10
87.5775
20
-108.822
11
87.5864
21
-108.873
0
LINE
8
BLACK
6
CONTINUOUS
10
87.5864
20
-108.873
11
87.5608
21
-108.917
0
LINE
8
BLACK
6
CONTINUOUS
10
87.5608
20
-108.917
11
87.5125
21
-108.935
0
LINE
8
BLACK
6
CONTINUOUS
10
87.5125
20
-108.935
11
87.4173
21
-108.935
0
LINE
8
BLACK
6
CONTINUOUS
10
87.4173
20
-108.935
11
87.3952
21
-108.931
0
LINE
8
BLACK
6
CONTINUOUS
10
87.3952
20
-108.931
11
87.3936
21
-108.931
0
LINE
8
BLACK
6
CONTINUOUS
10
87.3936
20
-108.931
11
87.2507
21
-108.883
0
LINE
8
BLACK
6
CONTINUOUS
10
87.2507
20
-108.883
11
87.2278
21
-108.871
0
LINE
8
BLACK
6
CONTINUOUS
10
87.2278
20
-108.871
11
87.2255
21
-108.867
0
LINE
8
BLACK
6
CONTINUOUS
10
87.2255
20
-108.867
11
87.2214
21
-108.865
0
LINE
8
BLACK
6
CONTINUOUS
10
87.2214
20
-108.865
11
87.1262
21
-108.77
0
LINE
8
BLACK
6
CONTINUOUS
10
87.1262
20
-108.77
11
87.1112
21
-108.748
0
LINE
8
BLACK
6
CONTINUOUS
10
87.1112
20
-108.748
11
87.1108
21
-108.744
0
LINE
8
BLACK
6
CONTINUOUS
10
87.1108
20
-108.744
11
87.1081
21
-108.74
0
LINE
8
BLACK
6
CONTINUOUS
10
87.1081
20
-108.74
11
87.0604
21
-108.598
0
LINE
8
BLACK
6
CONTINUOUS
10
87.0604
20
-108.598
11
87.0571
21
-108.575
0
LINE
8
BLACK
6
CONTINUOUS
10
87.0571
20
-108.575
11
87.0566
21
-108.574
0
LINE
8
BLACK
6
CONTINUOUS
10
87.0566
20
-108.574
11
87.0566
21
-107.86
0
LINE
8
BLACK
6
CONTINUOUS
10
87.0566
20
-107.86
11
87.0611
21
-107.834
0
LINE
8
BLACK
6
CONTINUOUS
10
87.0611
20
-107.834
11
87.0941
21
-107.795
0
LINE
8
BLACK
6
CONTINUOUS
10
87.0941
20
-107.795
11
87.1446
21
-107.786
0
LINE
8
BLACK
6
CONTINUOUS
10
87.1446
20
-107.786
11
87.189
21
-107.811
0
LINE
8
BLACK
6
CONTINUOUS
10
84.6176
20
-107.811
11
84.6352
21
-107.86
0
LINE
8
BLACK
6
CONTINUOUS
10
84.6352
20
-107.86
11
84.6352
21
-108.562
0
LINE
8
BLACK
6
CONTINUOUS
10
84.6352
20
-108.562
11
84.6733
21
-108.676
0
LINE
8
BLACK
6
CONTINUOUS
10
84.6733
20
-108.676
11
84.7435
21
-108.746
0
LINE
8
BLACK
6
CONTINUOUS
10
84.7435
20
-108.746
11
84.858
21
-108.785
0
LINE
8
BLACK
6
CONTINUOUS
10
84.858
20
-108.785
11
84.9411
21
-108.785
0
LINE
8
BLACK
6
CONTINUOUS
10
84.9411
20
-108.785
11
84.9668
21
-108.789
0
LINE
8
BLACK
6
CONTINUOUS
10
84.9668
20
-108.789
11
85.0061
21
-108.822
0
LINE
8
BLACK
6
CONTINUOUS
10
85.0061
20
-108.822
11
85.015
21
-108.873
0
LINE
8
BLACK
6
CONTINUOUS
10
85.015
20
-108.873
11
84.9893
21
-108.917
0
LINE
8
BLACK
6
CONTINUOUS
10
84.9893
20
-108.917
11
84.9411
21
-108.935
0
LINE
8
BLACK
6
CONTINUOUS
10
84.9411
20
-108.935
11
84.8459
21
-108.935
0
LINE
8
BLACK
6
CONTINUOUS
10
84.8459
20
-108.935
11
84.8238
21
-108.931
0
LINE
8
BLACK
6
CONTINUOUS
10
84.8238
20
-108.931
11
84.8222
21
-108.931
0
LINE
8
BLACK
6
CONTINUOUS
10
84.8222
20
-108.931
11
84.6793
21
-108.883
0
LINE
8
BLACK
6
CONTINUOUS
10
84.6793
20
-108.883
11
84.6564
21
-108.871
0
LINE
8
BLACK
6
CONTINUOUS
10
84.6564
20
-108.871
11
84.6541
21
-108.867
0
LINE
8
BLACK
6
CONTINUOUS
10
84.6541
20
-108.867
11
84.65
21
-108.865
0
LINE
8
BLACK
6
CONTINUOUS
10
84.65
20
-108.865
11
84.5547
21
-108.77
0
LINE
8
BLACK
6
CONTINUOUS
10
84.5547
20
-108.77
11
84.5398
21
-108.748
0
LINE
8
BLACK
6
CONTINUOUS
10
84.5398
20
-108.748
11
84.5394
21
-108.744
0
LINE
8
BLACK
6
CONTINUOUS
10
84.5394
20
-108.744
11
84.5366
21
-108.74
0
LINE
8
BLACK
6
CONTINUOUS
10
84.5366
20
-108.74
11
84.489
21
-108.598
0
LINE
8
BLACK
6
CONTINUOUS
10
84.489
20
-108.598
11
84.4857
21
-108.575
0
LINE
8
BLACK
6
CONTINUOUS
10
84.4857
20
-108.575
11
84.4852
21
-108.574
0
LINE
8
BLACK
6
CONTINUOUS
10
84.4852
20
-108.574
11
84.4852
21
-107.86
0
LINE
8
BLACK
6
CONTINUOUS
10
84.4852
20
-107.86
11
84.4897
21
-107.834
0
LINE
8
BLACK
6
CONTINUOUS
10
84.4897
20
-107.834
11
84.5227
21
-107.795
0
LINE
8
BLACK
6
CONTINUOUS
10
84.5227
20
-107.795
11
84.5732
21
-107.786
0
LINE
8
BLACK
6
CONTINUOUS
10
84.5732
20
-107.786
11
84.6176
21
-107.811
0
LINE
8
BLACK
6
CONTINUOUS
10
88.1537
20
-107.788
11
88.1553
21
-107.788
0
LINE
8
BLACK
6
CONTINUOUS
10
88.1553
20
-107.788
11
88.2982
21
-107.836
0
LINE
8
BLACK
6
CONTINUOUS
10
88.2982
20
-107.836
11
88.3211
21
-107.848
0
LINE
8
BLACK
6
CONTINUOUS
10
88.3211
20
-107.848
11
88.3234
21
-107.852
0
LINE
8
BLACK
6
CONTINUOUS
10
88.3234
20
-107.852
11
88.3275
21
-107.854
0
LINE
8
BLACK
6
CONTINUOUS
10
88.3275
20
-107.854
11
88.4227
21
-107.949
0
LINE
8
BLACK
6
CONTINUOUS
10
88.4227
20
-107.949
11
88.4356
21
-107.968
0
LINE
8
BLACK
6
CONTINUOUS
10
88.4356
20
-107.968
11
88.4368
21
-107.969
0
LINE
8
BLACK
6
CONTINUOUS
10
88.4368
20
-107.969
11
88.4844
21
-108.064
0
LINE
8
BLACK
6
CONTINUOUS
10
88.4844
20
-108.064
11
88.4881
21
-108.077
0
LINE
8
BLACK
6
CONTINUOUS
10
88.4881
20
-108.077
11
88.4901
21
-108.079
0
LINE
8
BLACK
6
CONTINUOUS
10
88.4901
20
-108.079
11
88.5377
21
-108.27
0
LINE
8
BLACK
6
CONTINUOUS
10
88.5377
20
-108.27
11
88.5387
21
-108.285
0
LINE
8
BLACK
6
CONTINUOUS
10
88.5387
20
-108.285
11
88.5399
21
-108.288
0
LINE
8
BLACK
6
CONTINUOUS
10
88.5399
20
-108.288
11
88.5399
21
-108.431
0
LINE
8
BLACK
6
CONTINUOUS
10
88.5399
20
-108.431
11
88.5373
21
-108.446
0
LINE
8
BLACK
6
CONTINUOUS
10
88.5373
20
-108.446
11
88.5377
21
-108.449
0
LINE
8
BLACK
6
CONTINUOUS
10
88.5377
20
-108.449
11
88.4901
21
-108.64
0
LINE
8
BLACK
6
CONTINUOUS
10
88.4901
20
-108.64
11
88.4848
21
-108.651
0
LINE
8
BLACK
6
CONTINUOUS
10
88.4848
20
-108.651
11
88.4844
21
-108.655
0
LINE
8
BLACK
6
CONTINUOUS
10
88.4844
20
-108.655
11
88.4368
21
-108.75
0
LINE
8
BLACK
6
CONTINUOUS
10
88.4368
20
-108.75
11
88.4234
21
-108.768
0
LINE
8
BLACK
6
CONTINUOUS
10
88.4234
20
-108.768
11
88.4227
21
-108.77
0
LINE
8
BLACK
6
CONTINUOUS
10
88.4227
20
-108.77
11
88.3275
21
-108.865
0
LINE
8
BLACK
6
CONTINUOUS
10
88.3275
20
-108.865
11
88.3061
21
-108.88
0
LINE
8
BLACK
6
CONTINUOUS
10
88.3061
20
-108.88
11
88.3017
21
-108.88
0
LINE
8
BLACK
6
CONTINUOUS
10
88.3017
20
-108.88
11
88.2982
21
-108.883
0
LINE
8
BLACK
6
CONTINUOUS
10
88.2982
20
-108.883
11
88.1553
21
-108.931
0
LINE
8
BLACK
6
CONTINUOUS
10
88.1553
20
-108.931
11
88.1331
21
-108.934
0
LINE
8
BLACK
6
CONTINUOUS
10
88.1331
20
-108.934
11
88.1316
21
-108.935
0
LINE
8
BLACK
6
CONTINUOUS
10
88.1316
20
-108.935
11
88.0364
21
-108.935
0
LINE
8
BLACK
6
CONTINUOUS
10
88.0364
20
-108.935
11
88.0143
21
-108.931
0
LINE
8
BLACK
6
CONTINUOUS
10
88.0143
20
-108.931
11
88.0126
21
-108.931
0
LINE
8
BLACK
6
CONTINUOUS
10
88.0126
20
-108.931
11
87.8698
21
-108.883
0
LINE
8
BLACK
6
CONTINUOUS
10
87.8698
20
-108.883
11
87.8469
21
-108.871
0
LINE
8
BLACK
6
CONTINUOUS
10
87.8469
20
-108.871
11
87.8445
21
-108.867
0
LINE
8
BLACK
6
CONTINUOUS
10
87.8445
20
-108.867
11
87.8405
21
-108.865
0
LINE
8
BLACK
6
CONTINUOUS
10
87.8405
20
-108.865
11
87.7928
21
-108.817
0
LINE
8
BLACK
6
CONTINUOUS
10
87.7928
20
-108.817
11
87.7779
21
-108.796
0
LINE
8
BLACK
6
CONTINUOUS
10
87.7779
20
-108.796
11
87.7734
21
-108.745
0
LINE
8
BLACK
6
CONTINUOUS
10
87.7734
20
-108.745
11
87.8029
21
-108.703
0
LINE
8
BLACK
6
CONTINUOUS
10
87.8029
20
-108.703
11
87.8524
21
-108.69
0
LINE
8
BLACK
6
CONTINUOUS
10
87.8524
20
-108.69
11
87.8989
21
-108.711
0
LINE
8
BLACK
6
CONTINUOUS
10
87.8989
20
-108.711
11
87.934
21
-108.746
0
LINE
8
BLACK
6
CONTINUOUS
10
87.934
20
-108.746
11
88.0485
21
-108.785
0
LINE
8
BLACK
6
CONTINUOUS
10
88.0485
20
-108.785
11
88.1194
21
-108.785
0
LINE
8
BLACK
6
CONTINUOUS
10
88.1194
20
-108.785
11
88.2339
21
-108.746
0
LINE
8
BLACK
6
CONTINUOUS
10
88.2339
20
-108.746
11
88.308
21
-108.672
0
LINE
8
BLACK
6
CONTINUOUS
10
88.308
20
-108.672
11
88.3465
21
-108.595
0
LINE
8
BLACK
6
CONTINUOUS
10
88.3465
20
-108.595
11
88.3899
21
-108.422
0
LINE
8
BLACK
6
CONTINUOUS
10
88.3899
20
-108.422
11
88.3899
21
-108.297
0
LINE
8
BLACK
6
CONTINUOUS
10
88.3899
20
-108.297
11
88.3465
21
-108.124
0
LINE
8
BLACK
6
CONTINUOUS
10
88.3465
20
-108.124
11
88.308
21
-108.047
0
LINE
8
BLACK
6
CONTINUOUS
10
88.308
20
-108.047
11
88.2339
21
-107.973
0
LINE
8
BLACK
6
CONTINUOUS
10
88.2339
20
-107.973
11
88.1194
21
-107.935
0
LINE
8
BLACK
6
CONTINUOUS
10
88.1194
20
-107.935
11
88.0485
21
-107.935
0
LINE
8
BLACK
6
CONTINUOUS
10
88.0485
20
-107.935
11
87.934
21
-107.973
0
LINE
8
BLACK
6
CONTINUOUS
10
87.934
20
-107.973
11
87.8989
21
-108.008
0
LINE
8
BLACK
6
CONTINUOUS
10
87.8989
20
-108.008
11
87.8776
21
-108.023
0
LINE
8
BLACK
6
CONTINUOUS
10
87.8776
20
-108.023
11
87.8265
21
-108.027
0
LINE
8
BLACK
6
CONTINUOUS
10
87.8265
20
-108.027
11
87.7844
21
-107.998
0
LINE
8
BLACK
6
CONTINUOUS
10
87.7844
20
-107.998
11
87.7712
21
-107.948
0
LINE
8
BLACK
6
CONTINUOUS
10
87.7712
20
-107.948
11
87.7928
21
-107.902
0
LINE
8
BLACK
6
CONTINUOUS
10
87.7928
20
-107.902
11
87.8405
21
-107.854
0
LINE
8
BLACK
6
CONTINUOUS
10
87.8405
20
-107.854
11
87.8618
21
-107.839
0
LINE
8
BLACK
6
CONTINUOUS
10
87.8618
20
-107.839
11
87.8663
21
-107.839
0
LINE
8
BLACK
6
CONTINUOUS
10
87.8663
20
-107.839
11
87.8698
21
-107.836
0
LINE
8
BLACK
6
CONTINUOUS
10
87.8698
20
-107.836
11
88.0126
21
-107.788
0
LINE
8
BLACK
6
CONTINUOUS
10
88.0126
20
-107.788
11
88.0348
21
-107.785
0
LINE
8
BLACK
6
CONTINUOUS
10
88.0348
20
-107.785
11
88.0364
21
-107.785
0
LINE
8
BLACK
6
CONTINUOUS
10
88.0364
20
-107.785
11
88.1316
21
-107.785
0
LINE
8
BLACK
6
CONTINUOUS
10
88.1316
20
-107.785
11
88.1537
21
-107.788
0
LINE
8
BLACK
6
CONTINUOUS
10
89.7605
20
-107.811
11
89.778
21
-107.86
0
LINE
8
BLACK
6
CONTINUOUS
10
89.778
20
-107.86
11
89.778
21
-108.562
0
LINE
8
BLACK
6
CONTINUOUS
10
89.778
20
-108.562
11
89.8162
21
-108.676
0
LINE
8
BLACK
6
CONTINUOUS
10
89.8162
20
-108.676
11
89.8864
21
-108.746
0
LINE
8
BLACK
6
CONTINUOUS
10
89.8864
20
-108.746
11
90.0009
21
-108.785
0
LINE
8
BLACK
6
CONTINUOUS
10
90.0009
20
-108.785
11
90.084
21
-108.785
0
LINE
8
BLACK
6
CONTINUOUS
10
90.084
20
-108.785
11
90.1096
21
-108.789
0
LINE
8
BLACK
6
CONTINUOUS
10
90.1096
20
-108.789
11
90.1489
21
-108.822
0
LINE
8
BLACK
6
CONTINUOUS
10
90.1489
20
-108.822
11
90.1578
21
-108.873
0
LINE
8
BLACK
6
CONTINUOUS
10
90.1578
20
-108.873
11
90.1322
21
-108.917
0
LINE
8
BLACK
6
CONTINUOUS
10
90.1322
20
-108.917
11
90.084
21
-108.935
0
LINE
8
BLACK
6
CONTINUOUS
10
90.084
20
-108.935
11
89.9887
21
-108.935
0
LINE
8
BLACK
6
CONTINUOUS
10
89.9887
20
-108.935
11
89.9667
21
-108.931
0
LINE
8
BLACK
6
CONTINUOUS
10
89.9667
20
-108.931
11
89.965
21
-108.931
0
LINE
8
BLACK
6
CONTINUOUS
10
89.965
20
-108.931
11
89.8222
21
-108.883
0
LINE
8
BLACK
6
CONTINUOUS
10
89.8222
20
-108.883
11
89.7993
21
-108.871
0
LINE
8
BLACK
6
CONTINUOUS
10
89.7993
20
-108.871
11
89.7969
21
-108.867
0
LINE
8
BLACK
6
CONTINUOUS
10
89.7969
20
-108.867
11
89.7928
21
-108.865
0
LINE
8
BLACK
6
CONTINUOUS
10
89.7928
20
-108.865
11
89.6976
21
-108.77
0
LINE
8
BLACK
6
CONTINUOUS
10
89.6976
20
-108.77
11
89.6827
21
-108.748
0
LINE
8
BLACK
6
CONTINUOUS
10
89.6827
20
-108.748
11
89.6823
21
-108.744
0
LINE
8
BLACK
6
CONTINUOUS
10
89.6823
20
-108.744
11
89.6795
21
-108.74
0
LINE
8
BLACK
6
CONTINUOUS
10
89.6795
20
-108.74
11
89.6319
21
-108.598
0
LINE
8
BLACK
6
CONTINUOUS
10
89.6319
20
-108.598
11
89.6286
21
-108.575
0
LINE
8
BLACK
6
CONTINUOUS
10
89.6286
20
-108.575
11
89.628
21
-108.574
0
LINE
8
BLACK
6
CONTINUOUS
10
89.628
20
-108.574
11
89.628
21
-107.86
0
LINE
8
BLACK
6
CONTINUOUS
10
89.628
20
-107.86
11
89.6325
21
-107.834
0
LINE
8
BLACK
6
CONTINUOUS
10
89.6325
20
-107.834
11
89.6655
21
-107.795
0
LINE
8
BLACK
6
CONTINUOUS
10
89.6655
20
-107.795
11
89.716
21
-107.786
0
LINE
8
BLACK
6
CONTINUOUS
10
89.716
20
-107.786
11
89.7605
21
-107.811
0
LINE
8
BLACK
6
CONTINUOUS
10
84.1414
20
-107.811
11
84.159
21
-107.86
0
LINE
8
BLACK
6
CONTINUOUS
10
84.159
20
-107.86
11
84.159
21
-108.86
0
LINE
8
BLACK
6
CONTINUOUS
10
84.159
20
-108.86
11
84.1573
21
-108.869
0
LINE
8
BLACK
6
CONTINUOUS
10
84.1573
20
-108.869
11
84.1578
21
-108.873
0
LINE
8
BLACK
6
CONTINUOUS
10
84.1578
20
-108.873
11
84.1562
21
-108.875
0
LINE
8
BLACK
6
CONTINUOUS
10
84.1562
20
-108.875
11
84.1544
21
-108.885
0
LINE
8
BLACK
6
CONTINUOUS
10
84.1544
20
-108.885
11
84.1419
21
-108.9
0
LINE
8
BLACK
6
CONTINUOUS
10
84.1419
20
-108.9
11
84.1322
21
-108.917
0
LINE
8
BLACK
6
CONTINUOUS
10
84.1322
20
-108.917
11
84.1258
21
-108.919
0
LINE
8
BLACK
6
CONTINUOUS
10
84.1258
20
-108.919
11
84.1215
21
-108.925
0
LINE
8
BLACK
6
CONTINUOUS
10
84.1215
20
-108.925
11
84.1023
21
-108.928
0
LINE
8
BLACK
6
CONTINUOUS
10
84.1023
20
-108.928
11
84.084
21
-108.935
0
LINE
8
BLACK
6
CONTINUOUS
10
84.084
20
-108.935
11
83.6078
21
-108.935
0
LINE
8
BLACK
6
CONTINUOUS
10
83.6078
20
-108.935
11
83.5821
21
-108.93
0
LINE
8
BLACK
6
CONTINUOUS
10
83.5821
20
-108.93
11
83.5428
21
-108.897
0
LINE
8
BLACK
6
CONTINUOUS
10
83.5428
20
-108.897
11
83.5339
21
-108.847
0
LINE
8
BLACK
6
CONTINUOUS
10
83.5339
20
-108.847
11
83.5596
21
-108.802
0
LINE
8
BLACK
6
CONTINUOUS
10
83.5596
20
-108.802
11
83.6078
21
-108.785
0
LINE
8
BLACK
6
CONTINUOUS
10
83.6078
20
-108.785
11
84.009
21
-108.785
0
LINE
8
BLACK
6
CONTINUOUS
10
84.009
20
-108.785
11
84.009
21
-107.86
0
LINE
8
BLACK
6
CONTINUOUS
10
84.009
20
-107.86
11
84.0135
21
-107.834
0
LINE
8
BLACK
6
CONTINUOUS
10
84.0135
20
-107.834
11
84.0465
21
-107.795
0
LINE
8
BLACK
6
CONTINUOUS
10
84.0465
20
-107.795
11
84.097
21
-107.786
0
LINE
8
BLACK
6
CONTINUOUS
10
84.097
20
-107.786
11
84.1414
21
-107.811
0
LINE
8
BLACK
6
CONTINUOUS
10
83.0108
20
-107.788
11
83.0125
21
-107.788
0
LINE
8
BLACK
6
CONTINUOUS
10
83.0125
20
-107.788
11
83.1553
21
-107.836
0
LINE
8
BLACK
6
CONTINUOUS
10
83.1553
20
-107.836
11
83.1782
21
-107.848
0
LINE
8
BLACK
6
CONTINUOUS
10
83.1782
20
-107.848
11
83.1806
21
-107.852
0
LINE
8
BLACK
6
CONTINUOUS
10
83.1806
20
-107.852
11
83.1846
21
-107.854
0
LINE
8
BLACK
6
CONTINUOUS
10
83.1846
20
-107.854
11
83.2799
21
-107.949
0
LINE
8
BLACK
6
CONTINUOUS
10
83.2799
20
-107.949
11
83.2927
21
-107.968
0
LINE
8
BLACK
6
CONTINUOUS
10
83.2927
20
-107.968
11
83.2939
21
-107.969
0
LINE
8
BLACK
6
CONTINUOUS
10
83.2939
20
-107.969
11
83.3415
21
-108.064
0
LINE
8
BLACK
6
CONTINUOUS
10
83.3415
20
-108.064
11
83.3452
21
-108.077
0
LINE
8
BLACK
6
CONTINUOUS
10
83.3452
20
-108.077
11
83.3472
21
-108.079
0
LINE
8
BLACK
6
CONTINUOUS
10
83.3472
20
-108.079
11
83.3948
21
-108.27
0
LINE
8
BLACK
6
CONTINUOUS
10
83.3948
20
-108.27
11
83.3959
21
-108.285
0
LINE
8
BLACK
6
CONTINUOUS
10
83.3959
20
-108.285
11
83.3971
21
-108.288
0
LINE
8
BLACK
6
CONTINUOUS
10
83.3971
20
-108.288
11
83.3971
21
-108.431
0
LINE
8
BLACK
6
CONTINUOUS
10
83.3971
20
-108.431
11
83.3945
21
-108.446
0
LINE
8
BLACK
6
CONTINUOUS
10
83.3945
20
-108.446
11
83.3948
21
-108.449
0
LINE
8
BLACK
6
CONTINUOUS
10
83.3948
20
-108.449
11
83.3472
21
-108.64
0
LINE
8
BLACK
6
CONTINUOUS
10
83.3472
20
-108.64
11
83.3419
21
-108.651
0
LINE
8
BLACK
6
CONTINUOUS
10
83.3419
20
-108.651
11
83.3415
21
-108.655
0
LINE
8
BLACK
6
CONTINUOUS
10
83.3415
20
-108.655
11
83.2939
21
-108.75
0
LINE
8
BLACK
6
CONTINUOUS
10
83.2939
20
-108.75
11
83.2806
21
-108.768
0
LINE
8
BLACK
6
CONTINUOUS
10
83.2806
20
-108.768
11
83.2799
21
-108.77
0
LINE
8
BLACK
6
CONTINUOUS
10
83.2799
20
-108.77
11
83.1846
21
-108.865
0
LINE
8
BLACK
6
CONTINUOUS
10
83.1846
20
-108.865
11
83.1633
21
-108.88
0
LINE
8
BLACK
6
CONTINUOUS
10
83.1633
20
-108.88
11
83.1588
21
-108.88
0
LINE
8
BLACK
6
CONTINUOUS
10
83.1588
20
-108.88
11
83.1553
21
-108.883
0
LINE
8
BLACK
6
CONTINUOUS
10
83.1553
20
-108.883
11
83.0125
21
-108.931
0
LINE
8
BLACK
6
CONTINUOUS
10
83.0125
20
-108.931
11
82.9903
21
-108.934
0
LINE
8
BLACK
6
CONTINUOUS
10
82.9903
20
-108.934
11
82.9887
21
-108.935
0
LINE
8
BLACK
6
CONTINUOUS
10
82.9887
20
-108.935
11
82.8935
21
-108.935
0
LINE
8
BLACK
6
CONTINUOUS
10
82.8935
20
-108.935
11
82.8714
21
-108.931
0
LINE
8
BLACK
6
CONTINUOUS
10
82.8714
20
-108.931
11
82.8698
21
-108.931
0
LINE
8
BLACK
6
CONTINUOUS
10
82.8698
20
-108.931
11
82.7269
21
-108.883
0
LINE
8
BLACK
6
CONTINUOUS
10
82.7269
20
-108.883
11
82.704
21
-108.871
0
LINE
8
BLACK
6
CONTINUOUS
10
82.704
20
-108.871
11
82.7017
21
-108.867
0
LINE
8
BLACK
6
CONTINUOUS
10
82.7017
20
-108.867
11
82.6976
21
-108.865
0
LINE
8
BLACK
6
CONTINUOUS
10
82.6976
20
-108.865
11
82.65
21
-108.817
0
LINE
8
BLACK
6
CONTINUOUS
10
82.65
20
-108.817
11
82.635
21
-108.796
0
LINE
8
BLACK
6
CONTINUOUS
10
82.635
20
-108.796
11
82.6306
21
-108.745
0
LINE
8
BLACK
6
CONTINUOUS
10
82.6306
20
-108.745
11
82.66
21
-108.703
0
LINE
8
BLACK
6
CONTINUOUS
10
82.66
20
-108.703
11
82.7096
21
-108.69
0
LINE
8
BLACK
6
CONTINUOUS
10
82.7096
20
-108.69
11
82.7561
21
-108.711
0
LINE
8
BLACK
6
CONTINUOUS
10
82.7561
20
-108.711
11
82.7912
21
-108.746
0
LINE
8
BLACK
6
CONTINUOUS
10
82.7912
20
-108.746
11
82.9057
21
-108.785
0
LINE
8
BLACK
6
CONTINUOUS
10
82.9057
20
-108.785
11
82.9766
21
-108.785
0
LINE
8
BLACK
6
CONTINUOUS
10
82.9766
20
-108.785
11
83.0911
21
-108.746
0
LINE
8
BLACK
6
CONTINUOUS
10
83.0911
20
-108.746
11
83.1652
21
-108.672
0
LINE
8
BLACK
6
CONTINUOUS
10
83.1652
20
-108.672
11
83.2037
21
-108.595
0
LINE
8
BLACK
6
CONTINUOUS
10
83.2037
20
-108.595
11
83.2471
21
-108.422
0
LINE
8
BLACK
6
CONTINUOUS
10
83.2471
20
-108.422
11
83.2471
21
-108.297
0
LINE
8
BLACK
6
CONTINUOUS
10
83.2471
20
-108.297
11
83.2037
21
-108.124
0
LINE
8
BLACK
6
CONTINUOUS
10
83.2037
20
-108.124
11
83.1652
21
-108.047
0
LINE
8
BLACK
6
CONTINUOUS
10
83.1652
20
-108.047
11
83.0911
21
-107.973
0
LINE
8
BLACK
6
CONTINUOUS
10
83.0911
20
-107.973
11
82.9766
21
-107.935
0
LINE
8
BLACK
6
CONTINUOUS
10
82.9766
20
-107.935
11
82.9057
21
-107.935
0
LINE
8
BLACK
6
CONTINUOUS
10
82.9057
20
-107.935
11
82.7912
21
-107.973
0
LINE
8
BLACK
6
CONTINUOUS
10
82.7912
20
-107.973
11
82.7561
21
-108.008
0
LINE
8
BLACK
6
CONTINUOUS
10
82.7561
20
-108.008
11
82.7347
21
-108.023
0
LINE
8
BLACK
6
CONTINUOUS
10
82.7347
20
-108.023
11
82.6836
21
-108.027
0
LINE
8
BLACK
6
CONTINUOUS
10
82.6836
20
-108.027
11
82.6416
21
-107.998
0
LINE
8
BLACK
6
CONTINUOUS
10
82.6416
20
-107.998
11
82.6283
21
-107.948
0
LINE
8
BLACK
6
CONTINUOUS
10
82.6283
20
-107.948
11
82.65
21
-107.902
0
LINE
8
BLACK
6
CONTINUOUS
10
82.65
20
-107.902
11
82.6976
21
-107.854
0
LINE
8
BLACK
6
CONTINUOUS
10
82.6976
20
-107.854
11
82.7189
21
-107.839
0
LINE
8
BLACK
6
CONTINUOUS
10
82.7189
20
-107.839
11
82.7234
21
-107.839
0
LINE
8
BLACK
6
CONTINUOUS
10
82.7234
20
-107.839
11
82.7269
21
-107.836
0
LINE
8
BLACK
6
CONTINUOUS
10
82.7269
20
-107.836
11
82.8698
21
-107.788
0
LINE
8
BLACK
6
CONTINUOUS
10
82.8698
20
-107.788
11
82.892
21
-107.785
0
LINE
8
BLACK
6
CONTINUOUS
10
82.892
20
-107.785
11
82.8935
21
-107.785
0
LINE
8
BLACK
6
CONTINUOUS
10
82.8935
20
-107.785
11
82.9887
21
-107.785
0
LINE
8
BLACK
6
CONTINUOUS
10
82.9887
20
-107.785
11
83.0108
21
-107.788
0
LINE
8
BLACK
6
CONTINUOUS
10
90.7251
20
-107.788
11
90.7267
21
-107.788
0
LINE
8
BLACK
6
CONTINUOUS
10
90.7267
20
-107.788
11
90.8696
21
-107.836
0
LINE
8
BLACK
6
CONTINUOUS
10
90.8696
20
-107.836
11
90.8925
21
-107.848
0
LINE
8
BLACK
6
CONTINUOUS
10
90.8925
20
-107.848
11
90.8948
21
-107.852
0
LINE
8
BLACK
6
CONTINUOUS
10
90.8948
20
-107.852
11
90.8989
21
-107.854
0
LINE
8
BLACK
6
CONTINUOUS
10
90.8989
20
-107.854
11
90.9941
21
-107.949
0
LINE
8
BLACK
6
CONTINUOUS
10
90.9941
20
-107.949
11
91.007
21
-107.968
0
LINE
8
BLACK
6
CONTINUOUS
10
91.007
20
-107.968
11
91.0082
21
-107.969
0
LINE
8
BLACK
6
CONTINUOUS
10
91.0082
20
-107.969
11
91.0558
21
-108.064
0
LINE
8
BLACK
6
CONTINUOUS
10
91.0558
20
-108.064
11
91.0595
21
-108.077
0
LINE
8
BLACK
6
CONTINUOUS
10
91.0595
20
-108.077
11
91.0615
21
-108.079
0
LINE
8
BLACK
6
CONTINUOUS
10
91.0615
20
-108.079
11
91.1091
21
-108.27
0
LINE
8
BLACK
6
CONTINUOUS
10
91.1091
20
-108.27
11
91.1102
21
-108.285
0
LINE
8
BLACK
6
CONTINUOUS
10
91.1102
20
-108.285
11
91.1114
21
-108.288
0
LINE
8
BLACK
6
CONTINUOUS
10
91.1114
20
-108.288
11
91.1114
21
-108.431
0
LINE
8
BLACK
6
CONTINUOUS
10
91.1114
20
-108.431
11
91.1088
21
-108.446
0
LINE
8
BLACK
6
CONTINUOUS
10
91.1088
20
-108.446
11
91.1091
21
-108.449
0
LINE
8
BLACK
6
CONTINUOUS
10
91.1091
20
-108.449
11
91.0615
21
-108.64
0
LINE
8
BLACK
6
CONTINUOUS
10
91.0615
20
-108.64
11
91.0562
21
-108.651
0
LINE
8
BLACK
6
CONTINUOUS
10
91.0562
20
-108.651
11
91.0558
21
-108.655
0
LINE
8
BLACK
6
CONTINUOUS
10
91.0558
20
-108.655
11
91.0082
21
-108.75
0
LINE
8
BLACK
6
CONTINUOUS
10
91.0082
20
-108.75
11
90.9948
21
-108.768
0
LINE
8
BLACK
6
CONTINUOUS
10
90.9948
20
-108.768
11
90.9941
21
-108.77
0
LINE
8
BLACK
6
CONTINUOUS
10
90.9941
20
-108.77
11
90.8989
21
-108.865
0
LINE
8
BLACK
6
CONTINUOUS
10
90.8989
20
-108.865
11
90.8776
21
-108.88
0
LINE
8
BLACK
6
CONTINUOUS
10
90.8776
20
-108.88
11
90.8731
21
-108.88
0
LINE
8
BLACK
6
CONTINUOUS
10
90.8731
20
-108.88
11
90.8696
21
-108.883
0
LINE
8
BLACK
6
CONTINUOUS
10
90.8696
20
-108.883
11
90.7267
21
-108.931
0
LINE
8
BLACK
6
CONTINUOUS
10
90.7267
20
-108.931
11
90.7046
21
-108.934
0
LINE
8
BLACK
6
CONTINUOUS
10
90.7046
20
-108.934
11
90.703
21
-108.935
0
LINE
8
BLACK
6
CONTINUOUS
10
90.703
20
-108.935
11
90.6078
21
-108.935
0
LINE
8
BLACK
6
CONTINUOUS
10
90.6078
20
-108.935
11
90.5857
21
-108.931
0
LINE
8
BLACK
6
CONTINUOUS
10
90.5857
20
-108.931
11
90.5841
21
-108.931
0
LINE
8
BLACK
6
CONTINUOUS
10
90.5841
20
-108.931
11
90.4412
21
-108.883
0
LINE
8
BLACK
6
CONTINUOUS
10
90.4412
20
-108.883
11
90.4183
21
-108.871
0
LINE
8
BLACK
6
CONTINUOUS
10
90.4183
20
-108.871
11
90.416
21
-108.867
0
LINE
8
BLACK
6
CONTINUOUS
10
90.416
20
-108.867
11
90.4119
21
-108.865
0
LINE
8
BLACK
6
CONTINUOUS
10
90.4119
20
-108.865
11
90.3643
21
-108.817
0
LINE
8
BLACK
6
CONTINUOUS
10
90.3643
20
-108.817
11
90.3493
21
-108.796
0
LINE
8
BLACK
6
CONTINUOUS
10
90.3493
20
-108.796
11
90.3449
21
-108.745
0
LINE
8
BLACK
6
CONTINUOUS
10
90.3449
20
-108.745
11
90.3743
21
-108.703
0
LINE
8
BLACK
6
CONTINUOUS
10
90.3743
20
-108.703
11
90.4238
21
-108.69
0
LINE
8
BLACK
6
CONTINUOUS
10
90.4238
20
-108.69
11
90.4703
21
-108.711
0
LINE
8
BLACK
6
CONTINUOUS
10
90.4703
20
-108.711
11
90.5054
21
-108.746
0
LINE
8
BLACK
6
CONTINUOUS
10
90.5054
20
-108.746
11
90.62
21
-108.785
0
LINE
8
BLACK
6
CONTINUOUS
10
90.62
20
-108.785
11
90.6908
21
-108.785
0
LINE
8
BLACK
6
CONTINUOUS
10
90.6908
20
-108.785
11
90.8054
21
-108.746
0
LINE
8
BLACK
6
CONTINUOUS
10
90.8054
20
-108.746
11
90.8795
21
-108.672
0
LINE
8
BLACK
6
CONTINUOUS
10
90.8795
20
-108.672
11
90.918
21
-108.595
0
LINE
8
BLACK
6
CONTINUOUS
10
90.918
20
-108.595
11
90.9614
21
-108.422
0
LINE
8
BLACK
6
CONTINUOUS
10
90.9614
20
-108.422
11
90.9614
21
-108.297
0
LINE
8
BLACK
6
CONTINUOUS
10
90.9614
20
-108.297
11
90.918
21
-108.124
0
LINE
8
BLACK
6
CONTINUOUS
10
90.918
20
-108.124
11
90.8795
21
-108.047
0
LINE
8
BLACK
6
CONTINUOUS
10
90.8795
20
-108.047
11
90.8054
21
-107.973
0
LINE
8
BLACK
6
CONTINUOUS
10
90.8054
20
-107.973
11
90.6908
21
-107.935
0
LINE
8
BLACK
6
CONTINUOUS
10
90.6908
20
-107.935
11
90.62
21
-107.935
0
LINE
8
BLACK
6
CONTINUOUS
10
90.62
20
-107.935
11
90.5054
21
-107.973
0
LINE
8
BLACK
6
CONTINUOUS
10
90.5054
20
-107.973
11
90.4703
21
-108.008
0
LINE
8
BLACK
6
CONTINUOUS
10
90.4703
20
-108.008
11
90.449
21
-108.023
0
LINE
8
BLACK
6
CONTINUOUS
10
90.449
20
-108.023
11
90.3979
21
-108.027
0
LINE
8
BLACK
6
CONTINUOUS
10
90.3979
20
-108.027
11
90.3559
21
-107.998
0
LINE
8
BLACK
6
CONTINUOUS
10
90.3559
20
-107.998
11
90.3426
21
-107.948
0
LINE
8
BLACK
6
CONTINUOUS
10
90.3426
20
-107.948
11
90.3643
21
-107.902
0
LINE
8
BLACK
6
CONTINUOUS
10
90.3643
20
-107.902
11
90.4119
21
-107.854
0
LINE
8
BLACK
6
CONTINUOUS
10
90.4119
20
-107.854
11
90.4332
21
-107.839
0
LINE
8
BLACK
6
CONTINUOUS
10
90.4332
20
-107.839
11
90.4377
21
-107.839
0
LINE
8
BLACK
6
CONTINUOUS
10
90.4377
20
-107.839
11
90.4412
21
-107.836
0
LINE
8
BLACK
6
CONTINUOUS
10
90.4412
20
-107.836
11
90.5841
21
-107.788
0
LINE
8
BLACK
6
CONTINUOUS
10
90.5841
20
-107.788
11
90.6062
21
-107.785
0
LINE
8
BLACK
6
CONTINUOUS
10
90.6062
20
-107.785
11
90.6078
21
-107.785
0
LINE
8
BLACK
6
CONTINUOUS
10
90.6078
20
-107.785
11
90.703
21
-107.785
0
LINE
8
BLACK
6
CONTINUOUS
10
90.703
20
-107.785
11
90.7251
21
-107.788
0
LINE
8
BLACK
6
CONTINUOUS
10
92.3319
20
-107.811
11
92.3494
21
-107.86
0
LINE
8
BLACK
6
CONTINUOUS
10
92.3494
20
-107.86
11
92.3494
21
-108.562
0
LINE
8
BLACK
6
CONTINUOUS
10
92.3494
20
-108.562
11
92.3876
21
-108.676
0
LINE
8
BLACK
6
CONTINUOUS
10
92.3876
20
-108.676
11
92.4578
21
-108.746
0
LINE
8
BLACK
6
CONTINUOUS
10
92.4578
20
-108.746
11
92.5723
21
-108.785
0
LINE
8
BLACK
6
CONTINUOUS
10
92.5723
20
-108.785
11
92.6554
21
-108.785
0
LINE
8
BLACK
6
CONTINUOUS
10
92.6554
20
-108.785
11
92.6811
21
-108.789
0
LINE
8
BLACK
6
CONTINUOUS
10
92.6811
20
-108.789
11
92.7204
21
-108.822
0
LINE
8
BLACK
6
CONTINUOUS
10
92.7204
20
-108.822
11
92.7293
21
-108.873
0
LINE
8
BLACK
6
CONTINUOUS
10
92.7293
20
-108.873
11
92.7036
21
-108.917
0
LINE
8
BLACK
6
CONTINUOUS
10
92.7036
20
-108.917
11
92.6554
21
-108.935
0
LINE
8
BLACK
6
CONTINUOUS
10
92.6554
20
-108.935
11
92.5602
21
-108.935
0
LINE
8
BLACK
6
CONTINUOUS
10
92.5602
20
-108.935
11
92.5381
21
-108.931
0
LINE
8
BLACK
6
CONTINUOUS
10
92.5381
20
-108.931
11
92.5364
21
-108.931
0
LINE
8
BLACK
6
CONTINUOUS
10
92.5364
20
-108.931
11
92.3936
21
-108.883
0
LINE
8
BLACK
6
CONTINUOUS
10
92.3936
20
-108.883
11
92.3707
21
-108.871
0
LINE
8
BLACK
6
CONTINUOUS
10
92.3707
20
-108.871
11
92.3683
21
-108.867
0
LINE
8
BLACK
6
CONTINUOUS
10
92.3683
20
-108.867
11
92.3643
21
-108.865
0
LINE
8
BLACK
6
CONTINUOUS
10
92.3643
20
-108.865
11
92.269
21
-108.77
0
LINE
8
BLACK
6
CONTINUOUS
10
92.269
20
-108.77
11
92.2541
21
-108.748
0
LINE
8
BLACK
6
CONTINUOUS
10
92.2541
20
-108.748
11
92.2537
21
-108.744
0
LINE
8
BLACK
6
CONTINUOUS
10
92.2537
20
-108.744
11
92.2509
21
-108.74
0
LINE
8
BLACK
6
CONTINUOUS
10
92.2509
20
-108.74
11
92.2033
21
-108.598
0
LINE
8
BLACK
6
CONTINUOUS
10
92.2033
20
-108.598
11
92.2
21
-108.575
0
LINE
8
BLACK
6
CONTINUOUS
10
92.2
20
-108.575
11
92.1994
21
-108.574
0
LINE
8
BLACK
6
CONTINUOUS
10
92.1994
20
-108.574
11
92.1994
21
-107.86
0
LINE
8
BLACK
6
CONTINUOUS
10
92.1994
20
-107.86
11
92.204
21
-107.834
0
LINE
8
BLACK
6
CONTINUOUS
10
92.204
20
-107.834
11
92.2369
21
-107.795
0
LINE
8
BLACK
6
CONTINUOUS
10
92.2369
20
-107.795
11
92.2875
21
-107.786
0
LINE
8
BLACK
6
CONTINUOUS
10
92.2875
20
-107.786
11
92.3319
21
-107.811
0
LINE
8
BLACK
6
CONTINUOUS
10
91.8557
20
-107.811
11
91.8733
21
-107.86
0
LINE
8
BLACK
6
CONTINUOUS
10
91.8733
20
-107.86
11
91.8733
21
-108.86
0
LINE
8
BLACK
6
CONTINUOUS
10
91.8733
20
-108.86
11
91.8715
21
-108.869
0
LINE
8
BLACK
6
CONTINUOUS
10
91.8715
20
-108.869
11
91.8721
21
-108.873
0
LINE
8
BLACK
6
CONTINUOUS
10
91.8721
20
-108.873
11
91.8705
21
-108.875
0
LINE
8
BLACK
6
CONTINUOUS
10
91.8705
20
-108.875
11
91.8687
21
-108.885
0
LINE
8
BLACK
6
CONTINUOUS
10
91.8687
20
-108.885
11
91.8562
21
-108.9
0
LINE
8
BLACK
6
CONTINUOUS
10
91.8562
20
-108.9
11
91.8465
21
-108.917
0
LINE
8
BLACK
6
CONTINUOUS
10
91.8465
20
-108.917
11
91.8401
21
-108.919
0
LINE
8
BLACK
6
CONTINUOUS
10
91.8401
20
-108.919
11
91.8358
21
-108.925
0
LINE
8
BLACK
6
CONTINUOUS
10
91.8358
20
-108.925
11
91.8166
21
-108.928
0
LINE
8
BLACK
6
CONTINUOUS
10
91.8166
20
-108.928
11
91.7983
21
-108.935
0
LINE
8
BLACK
6
CONTINUOUS
10
91.7983
20
-108.935
11
91.3221
21
-108.935
0
LINE
8
BLACK
6
CONTINUOUS
10
91.3221
20
-108.935
11
91.2964
21
-108.93
0
LINE
8
BLACK
6
CONTINUOUS
10
91.2964
20
-108.93
11
91.2571
21
-108.897
0
LINE
8
BLACK
6
CONTINUOUS
10
91.2571
20
-108.897
11
91.2482
21
-108.847
0
LINE
8
BLACK
6
CONTINUOUS
10
91.2482
20
-108.847
11
91.2739
21
-108.802
0
LINE
8
BLACK
6
CONTINUOUS
10
91.2739
20
-108.802
11
91.3221
21
-108.785
0
LINE
8
BLACK
6
CONTINUOUS
10
91.3221
20
-108.785
11
91.7233
21
-108.785
0
LINE
8
BLACK
6
CONTINUOUS
10
91.7233
20
-108.785
11
91.7233
21
-107.86
0
LINE
8
BLACK
6
CONTINUOUS
10
91.7233
20
-107.86
11
91.7278
21
-107.834
0
LINE
8
BLACK
6
CONTINUOUS
10
91.7278
20
-107.834
11
91.7608
21
-107.795
0
LINE
8
BLACK
6
CONTINUOUS
10
91.7608
20
-107.795
11
91.8113
21
-107.786
0
LINE
8
BLACK
6
CONTINUOUS
10
91.8113
20
-107.786
11
91.8557
21
-107.811
0
CIRCLE
8
BLACK
10
103.886
20
-96.52
40
0.5
  0
ENDSEC
  0
EOF
