  0
SECTION
  2
HEADER
  9
$ANGBASE
  50
0.0
  9
$ANGDIR
  70
1
  9
$MEASUREMENT
  70
1
  0
ENDSEC
  0
SECTION
  2
TABLES
  0
TABLE
  2
LTYPE
  70
4
  0
LTYPE
  5
40F
  2
CONTINUOUS
  70
0
  3
Solid line
  72
65
  73
0
  40
0.0
  0
LTYPE
  5
410
  2
DASHDOT
 70
0
  3
Dash Dot ____ _ ____ _
 72
65
 73
4
 40
2.0
 49
1.25
 49
-0.25
 49
0.25
 49
-0.25
  0
LTYPE
  5
411
  2
DASHED
 70
0
  3
Dashed __ __ __ __ __
 72
65
 73
2
 40
0.75
 49
0.5
 49
-0.25
  0
LTYPE
  5
43B
  2
DOTTED
 70
0
  3
Dotted .  .  .  .
 72
65
 73
2
 40
0.2
 49
0.0
 49
-0.2
  0
ENDTAB
  0
TABLE
  2
STYLE
  70
4
  0
STYLE
  2
KICAD
  70
0
  40
0
  41
1
  42
1
  50
0
  71
0
  3
isocp.shx
  0
STYLE
  2
KICADB
  70
0
  40
0
  41
1
  42
1
  50
0
  71
0
  3
isocp.shx
  0
STYLE
  2
KICADI
  70
0
  40
0
  41
1
  42
1
  50
15
  71
0
  3
isocp.shx
  0
STYLE
  2
KICADBI
  70
0
  40
0
  41
1
  42
1
  50
15
  71
0
  3
isocp.shx
  0
ENDTAB
  0
TABLE
  2
LAYER
  70
1
  0
LAYER
  2
BLACK
  70
0
  62
7
  6
CONTINUOUS
  0
ENDTAB
  0
ENDSEC
  0
SECTION
  2
ENTITIES
0
LINE
8
BLACK
6
CONTINUOUS
10
51.7828
20
-121.929
11
51.4992
21
-121.881
0
LINE
8
BLACK
6
CONTINUOUS
10
51.4992
20
-121.881
11
51.2228
21
-121.801
0
LINE
8
BLACK
6
CONTINUOUS
10
51.2228
20
-121.801
11
50.9571
21
-121.691
0
LINE
8
BLACK
6
CONTINUOUS
10
50.9571
20
-121.691
11
50.7053
21
-121.552
0
LINE
8
BLACK
6
CONTINUOUS
10
50.7053
20
-121.552
11
50.4707
21
-121.385
0
LINE
8
BLACK
6
CONTINUOUS
10
50.4707
20
-121.385
11
50.2563
21
-121.194
0
LINE
8
BLACK
6
CONTINUOUS
10
50.2563
20
-121.194
11
50.0646
21
-120.979
0
LINE
8
BLACK
6
CONTINUOUS
10
50.0646
20
-120.979
11
49.8982
21
-120.745
0
LINE
8
BLACK
6
CONTINUOUS
10
49.8982
20
-120.745
11
49.759
21
-120.493
0
LINE
8
BLACK
6
CONTINUOUS
10
49.759
20
-120.493
11
49.6489
21
-120.227
0
LINE
8
BLACK
6
CONTINUOUS
10
49.6489
20
-120.227
11
49.5693
21
-119.951
0
LINE
8
BLACK
6
CONTINUOUS
10
49.5693
20
-119.951
11
49.5211
21
-119.667
0
LINE
8
BLACK
6
CONTINUOUS
10
49.5211
20
-119.667
11
49.505
21
-119.38
0
LINE
8
BLACK
6
CONTINUOUS
10
49.505
20
-119.38
11
49.505
21
-73.66
0
LINE
8
BLACK
6
CONTINUOUS
10
49.505
20
-73.66
11
49.5211
21
-73.3728
0
LINE
8
BLACK
6
CONTINUOUS
10
49.5211
20
-73.3728
11
49.5693
21
-73.0892
0
LINE
8
BLACK
6
CONTINUOUS
10
49.5693
20
-73.0892
11
49.6489
21
-72.8128
0
LINE
8
BLACK
6
CONTINUOUS
10
49.6489
20
-72.8128
11
49.759
21
-72.5471
0
LINE
8
BLACK
6
CONTINUOUS
10
49.759
20
-72.5471
11
49.8982
21
-72.2953
0
LINE
8
BLACK
6
CONTINUOUS
10
49.8982
20
-72.2953
11
50.0646
21
-72.0607
0
LINE
8
BLACK
6
CONTINUOUS
10
50.0646
20
-72.0607
11
50.2563
21
-71.8463
0
LINE
8
BLACK
6
CONTINUOUS
10
50.2563
20
-71.8463
11
50.4707
21
-71.6546
0
LINE
8
BLACK
6
CONTINUOUS
10
50.4707
20
-71.6546
11
50.7053
21
-71.4882
0
LINE
8
BLACK
6
CONTINUOUS
10
50.7053
20
-71.4882
11
50.9571
21
-71.349
0
LINE
8
BLACK
6
CONTINUOUS
10
50.9571
20
-71.349
11
51.2228
21
-71.2389
0
LINE
8
BLACK
6
CONTINUOUS
10
51.2228
20
-71.2389
11
51.4992
21
-71.1593
0
LINE
8
BLACK
6
CONTINUOUS
10
51.4992
20
-71.1593
11
51.7828
21
-71.1111
0
LINE
8
BLACK
6
CONTINUOUS
10
51.7828
20
-71.1111
11
52.07
21
-71.095
0
LINE
8
BLACK
6
CONTINUOUS
10
52.07
20
-71.095
11
243.84
21
-71.095
0
LINE
8
BLACK
6
CONTINUOUS
10
243.84
20
-71.095
11
244.127
21
-71.1111
0
LINE
8
BLACK
6
CONTINUOUS
10
244.127
20
-71.1111
11
244.411
21
-71.1593
0
LINE
8
BLACK
6
CONTINUOUS
10
244.411
20
-71.1593
11
244.687
21
-71.2389
0
LINE
8
BLACK
6
CONTINUOUS
10
244.687
20
-71.2389
11
244.953
21
-71.349
0
LINE
8
BLACK
6
CONTINUOUS
10
244.953
20
-71.349
11
245.205
21
-71.4882
0
LINE
8
BLACK
6
CONTINUOUS
10
245.205
20
-71.4882
11
245.439
21
-71.6546
0
LINE
8
BLACK
6
CONTINUOUS
10
245.439
20
-71.6546
11
245.654
21
-71.8463
0
LINE
8
BLACK
6
CONTINUOUS
10
245.654
20
-71.8463
11
245.845
21
-72.0607
0
LINE
8
BLACK
6
CONTINUOUS
10
245.845
20
-72.0607
11
246.012
21
-72.2953
0
LINE
8
BLACK
6
CONTINUOUS
10
246.012
20
-72.2953
11
246.151
21
-72.5471
0
LINE
8
BLACK
6
CONTINUOUS
10
246.151
20
-72.5471
11
246.261
21
-72.8128
0
LINE
8
BLACK
6
CONTINUOUS
10
246.261
20
-72.8128
11
246.341
21
-73.0892
0
LINE
8
BLACK
6
CONTINUOUS
10
246.341
20
-73.0892
11
246.389
21
-73.3728
0
LINE
8
BLACK
6
CONTINUOUS
10
246.389
20
-73.3728
11
246.405
21
-73.66
0
LINE
8
BLACK
6
CONTINUOUS
10
246.405
20
-73.66
11
246.405
21
-119.38
0
LINE
8
BLACK
6
CONTINUOUS
10
246.405
20
-119.38
11
246.389
21
-119.667
0
LINE
8
BLACK
6
CONTINUOUS
10
246.389
20
-119.667
11
246.341
21
-119.951
0
LINE
8
BLACK
6
CONTINUOUS
10
246.341
20
-119.951
11
246.261
21
-120.227
0
LINE
8
BLACK
6
CONTINUOUS
10
246.261
20
-120.227
11
246.151
21
-120.493
0
LINE
8
BLACK
6
CONTINUOUS
10
246.151
20
-120.493
11
246.012
21
-120.745
0
LINE
8
BLACK
6
CONTINUOUS
10
246.012
20
-120.745
11
245.845
21
-120.979
0
LINE
8
BLACK
6
CONTINUOUS
10
245.845
20
-120.979
11
245.654
21
-121.194
0
LINE
8
BLACK
6
CONTINUOUS
10
245.654
20
-121.194
11
245.439
21
-121.385
0
LINE
8
BLACK
6
CONTINUOUS
10
245.439
20
-121.385
11
245.205
21
-121.552
0
LINE
8
BLACK
6
CONTINUOUS
10
245.205
20
-121.552
11
244.953
21
-121.691
0
LINE
8
BLACK
6
CONTINUOUS
10
244.953
20
-121.691
11
244.687
21
-121.801
0
LINE
8
BLACK
6
CONTINUOUS
10
244.687
20
-121.801
11
244.411
21
-121.881
0
LINE
8
BLACK
6
CONTINUOUS
10
244.411
20
-121.881
11
244.127
21
-121.929
0
LINE
8
BLACK
6
CONTINUOUS
10
244.127
20
-121.929
11
243.84
21
-121.945
0
LINE
8
BLACK
6
CONTINUOUS
10
243.84
20
-121.945
11
52.07
21
-121.945
0
LINE
8
BLACK
6
CONTINUOUS
10
52.07
20
-121.945
11
51.7828
21
-121.929
0
LINE
8
BLACK
6
CONTINUOUS
10
52.0603
20
-71.141
11
51.7663
21
-71.1588
0
LINE
8
BLACK
6
CONTINUOUS
10
51.7663
20
-71.1588
11
51.467
21
-71.2136
0
LINE
8
BLACK
6
CONTINUOUS
10
51.467
20
-71.2136
11
51.1765
21
-71.3041
0
LINE
8
BLACK
6
CONTINUOUS
10
51.1765
20
-71.3041
11
50.8991
21
-71.429
0
LINE
8
BLACK
6
CONTINUOUS
10
50.8991
20
-71.429
11
50.6387
21
-71.5864
0
LINE
8
BLACK
6
CONTINUOUS
10
50.6387
20
-71.5864
11
50.3992
21
-71.7741
0
LINE
8
BLACK
6
CONTINUOUS
10
50.3992
20
-71.7741
11
50.1841
21
-71.9892
0
LINE
8
BLACK
6
CONTINUOUS
10
50.1841
20
-71.9892
11
49.9964
21
-72.2287
0
LINE
8
BLACK
6
CONTINUOUS
10
49.9964
20
-72.2287
11
49.839
21
-72.4891
0
LINE
8
BLACK
6
CONTINUOUS
10
49.839
20
-72.4891
11
49.7141
21
-72.7665
0
LINE
8
BLACK
6
CONTINUOUS
10
49.7141
20
-72.7665
11
49.6236
21
-73.057
0
LINE
8
BLACK
6
CONTINUOUS
10
49.6236
20
-73.057
11
49.5688
21
-73.3563
0
LINE
8
BLACK
6
CONTINUOUS
10
49.5688
20
-73.3563
11
49.551
21
-73.6503
0
LINE
8
BLACK
6
CONTINUOUS
10
49.551
20
-73.6503
11
49.555
21
-73.66
0
LINE
8
BLACK
6
CONTINUOUS
10
49.555
20
-73.66
11
49.555
21
-119.38
0
LINE
8
BLACK
6
CONTINUOUS
10
49.555
20
-119.38
11
49.551
21
-119.39
0
LINE
8
BLACK
6
CONTINUOUS
10
49.551
20
-119.39
11
49.5688
21
-119.684
0
LINE
8
BLACK
6
CONTINUOUS
10
49.5688
20
-119.684
11
49.6236
21
-119.983
0
LINE
8
BLACK
6
CONTINUOUS
10
49.6236
20
-119.983
11
49.7141
21
-120.273
0
LINE
8
BLACK
6
CONTINUOUS
10
49.7141
20
-120.273
11
49.839
21
-120.551
0
LINE
8
BLACK
6
CONTINUOUS
10
49.839
20
-120.551
11
49.9964
21
-120.811
0
LINE
8
BLACK
6
CONTINUOUS
10
49.9964
20
-120.811
11
50.1841
21
-121.051
0
LINE
8
BLACK
6
CONTINUOUS
10
50.1841
20
-121.051
11
50.3992
21
-121.266
0
LINE
8
BLACK
6
CONTINUOUS
10
50.3992
20
-121.266
11
50.6387
21
-121.454
0
LINE
8
BLACK
6
CONTINUOUS
10
50.6387
20
-121.454
11
50.8991
21
-121.611
0
LINE
8
BLACK
6
CONTINUOUS
10
50.8991
20
-121.611
11
51.1765
21
-121.736
0
LINE
8
BLACK
6
CONTINUOUS
10
51.1765
20
-121.736
11
51.467
21
-121.826
0
LINE
8
BLACK
6
CONTINUOUS
10
51.467
20
-121.826
11
51.7663
21
-121.881
0
LINE
8
BLACK
6
CONTINUOUS
10
51.7663
20
-121.881
11
52.0603
21
-121.899
0
LINE
8
BLACK
6
CONTINUOUS
10
52.0603
20
-121.899
11
52.07
21
-121.895
0
LINE
8
BLACK
6
CONTINUOUS
10
52.07
20
-121.895
11
243.84
21
-121.895
0
LINE
8
BLACK
6
CONTINUOUS
10
243.84
20
-121.895
11
243.85
21
-121.899
0
LINE
8
BLACK
6
CONTINUOUS
10
243.85
20
-121.899
11
244.144
21
-121.881
0
LINE
8
BLACK
6
CONTINUOUS
10
244.144
20
-121.881
11
244.443
21
-121.826
0
LINE
8
BLACK
6
CONTINUOUS
10
244.443
20
-121.826
11
244.733
21
-121.736
0
LINE
8
BLACK
6
CONTINUOUS
10
244.733
20
-121.736
11
245.011
21
-121.611
0
LINE
8
BLACK
6
CONTINUOUS
10
245.011
20
-121.611
11
245.271
21
-121.454
0
LINE
8
BLACK
6
CONTINUOUS
10
245.271
20
-121.454
11
245.511
21
-121.266
0
LINE
8
BLACK
6
CONTINUOUS
10
245.511
20
-121.266
11
245.726
21
-121.051
0
LINE
8
BLACK
6
CONTINUOUS
10
245.726
20
-121.051
11
245.914
21
-120.811
0
LINE
8
BLACK
6
CONTINUOUS
10
245.914
20
-120.811
11
246.071
21
-120.551
0
LINE
8
BLACK
6
CONTINUOUS
10
246.071
20
-120.551
11
246.196
21
-120.273
0
LINE
8
BLACK
6
CONTINUOUS
10
246.196
20
-120.273
11
246.286
21
-119.983
0
LINE
8
BLACK
6
CONTINUOUS
10
246.286
20
-119.983
11
246.341
21
-119.684
0
LINE
8
BLACK
6
CONTINUOUS
10
246.341
20
-119.684
11
246.359
21
-119.39
0
LINE
8
BLACK
6
CONTINUOUS
10
246.359
20
-119.39
11
246.355
21
-119.38
0
LINE
8
BLACK
6
CONTINUOUS
10
246.355
20
-119.38
11
246.355
21
-73.66
0
LINE
8
BLACK
6
CONTINUOUS
10
246.355
20
-73.66
11
246.359
21
-73.6503
0
LINE
8
BLACK
6
CONTINUOUS
10
246.359
20
-73.6503
11
246.341
21
-73.3563
0
LINE
8
BLACK
6
CONTINUOUS
10
246.341
20
-73.3563
11
246.286
21
-73.057
0
LINE
8
BLACK
6
CONTINUOUS
10
246.286
20
-73.057
11
246.196
21
-72.7665
0
LINE
8
BLACK
6
CONTINUOUS
10
246.196
20
-72.7665
11
246.071
21
-72.4891
0
LINE
8
BLACK
6
CONTINUOUS
10
246.071
20
-72.4891
11
245.914
21
-72.2287
0
LINE
8
BLACK
6
CONTINUOUS
10
245.914
20
-72.2287
11
245.726
21
-71.9892
0
LINE
8
BLACK
6
CONTINUOUS
10
245.726
20
-71.9892
11
245.511
21
-71.7741
0
LINE
8
BLACK
6
CONTINUOUS
10
245.511
20
-71.7741
11
245.271
21
-71.5864
0
LINE
8
BLACK
6
CONTINUOUS
10
245.271
20
-71.5864
11
245.011
21
-71.429
0
LINE
8
BLACK
6
CONTINUOUS
10
245.011
20
-71.429
11
244.733
21
-71.3041
0
LINE
8
BLACK
6
CONTINUOUS
10
244.733
20
-71.3041
11
244.443
21
-71.2136
0
LINE
8
BLACK
6
CONTINUOUS
10
244.443
20
-71.2136
11
244.144
21
-71.1588
0
LINE
8
BLACK
6
CONTINUOUS
10
244.144
20
-71.1588
11
243.85
21
-71.141
0
LINE
8
BLACK
6
CONTINUOUS
10
243.85
20
-71.141
11
243.84
21
-71.145
0
LINE
8
BLACK
6
CONTINUOUS
10
243.84
20
-71.145
11
52.07
21
-71.145
0
LINE
8
BLACK
6
CONTINUOUS
10
52.07
20
-71.145
11
52.0603
21
-71.141
0
LINE
8
BLACK
6
CONTINUOUS
10
75.2027
20
-106.69
11
74.9713
21
-106.644
0
LINE
8
BLACK
6
CONTINUOUS
10
74.9713
20
-106.644
11
74.748
21
-106.568
0
LINE
8
BLACK
6
CONTINUOUS
10
74.748
20
-106.568
11
74.5365
21
-106.463
0
LINE
8
BLACK
6
CONTINUOUS
10
74.5365
20
-106.463
11
74.3404
21
-106.332
0
LINE
8
BLACK
6
CONTINUOUS
10
74.3404
20
-106.332
11
74.1631
21
-106.177
0
LINE
8
BLACK
6
CONTINUOUS
10
74.1631
20
-106.177
11
74.0076
21
-106
0
LINE
8
BLACK
6
CONTINUOUS
10
74.0076
20
-106
11
73.8766
21
-105.803
0
LINE
8
BLACK
6
CONTINUOUS
10
73.8766
20
-105.803
11
73.7722
21
-105.592
0
LINE
8
BLACK
6
CONTINUOUS
10
73.7722
20
-105.592
11
73.6964
21
-105.369
0
LINE
8
BLACK
6
CONTINUOUS
10
73.6964
20
-105.369
11
73.6504
21
-105.137
0
LINE
8
BLACK
6
CONTINUOUS
10
73.6504
20
-105.137
11
73.635
21
-104.902
0
LINE
8
BLACK
6
CONTINUOUS
10
73.635
20
-104.902
11
73.635
21
-88.138
0
LINE
8
BLACK
6
CONTINUOUS
10
73.635
20
-88.138
11
73.6504
21
-87.9027
0
LINE
8
BLACK
6
CONTINUOUS
10
73.6504
20
-87.9027
11
73.6964
21
-87.6713
0
LINE
8
BLACK
6
CONTINUOUS
10
73.6964
20
-87.6713
11
73.7722
21
-87.448
0
LINE
8
BLACK
6
CONTINUOUS
10
73.7722
20
-87.448
11
73.8766
21
-87.2365
0
LINE
8
BLACK
6
CONTINUOUS
10
73.8766
20
-87.2365
11
74.0076
21
-87.0404
0
LINE
8
BLACK
6
CONTINUOUS
10
74.0076
20
-87.0404
11
74.1631
21
-86.8631
0
LINE
8
BLACK
6
CONTINUOUS
10
74.1631
20
-86.8631
11
74.3404
21
-86.7076
0
LINE
8
BLACK
6
CONTINUOUS
10
74.3404
20
-86.7076
11
74.5365
21
-86.5766
0
LINE
8
BLACK
6
CONTINUOUS
10
74.5365
20
-86.5766
11
74.748
21
-86.4722
0
LINE
8
BLACK
6
CONTINUOUS
10
74.748
20
-86.4722
11
74.9713
21
-86.3964
0
LINE
8
BLACK
6
CONTINUOUS
10
74.9713
20
-86.3964
11
75.2027
21
-86.3504
0
LINE
8
BLACK
6
CONTINUOUS
10
75.2027
20
-86.3504
11
75.438
21
-86.335
0
LINE
8
BLACK
6
CONTINUOUS
10
75.438
20
-86.335
11
99.822
21
-86.335
0
LINE
8
BLACK
6
CONTINUOUS
10
99.822
20
-86.335
11
100.057
21
-86.3504
0
LINE
8
BLACK
6
CONTINUOUS
10
100.057
20
-86.3504
11
100.289
21
-86.3964
0
LINE
8
BLACK
6
CONTINUOUS
10
100.289
20
-86.3964
11
100.512
21
-86.4722
0
LINE
8
BLACK
6
CONTINUOUS
10
100.512
20
-86.4722
11
100.724
21
-86.5766
0
LINE
8
BLACK
6
CONTINUOUS
10
100.724
20
-86.5766
11
100.92
21
-86.7076
0
LINE
8
BLACK
6
CONTINUOUS
10
100.92
20
-86.7076
11
101.097
21
-86.8631
0
LINE
8
BLACK
6
CONTINUOUS
10
101.097
20
-86.8631
11
101.252
21
-87.0404
0
LINE
8
BLACK
6
CONTINUOUS
10
101.252
20
-87.0404
11
101.383
21
-87.2365
0
LINE
8
BLACK
6
CONTINUOUS
10
101.383
20
-87.2365
11
101.488
21
-87.448
0
LINE
8
BLACK
6
CONTINUOUS
10
101.488
20
-87.448
11
101.564
21
-87.6713
0
LINE
8
BLACK
6
CONTINUOUS
10
101.564
20
-87.6713
11
101.61
21
-87.9027
0
LINE
8
BLACK
6
CONTINUOUS
10
101.61
20
-87.9027
11
101.625
21
-88.138
0
LINE
8
BLACK
6
CONTINUOUS
10
101.625
20
-88.138
11
101.625
21
-104.902
0
LINE
8
BLACK
6
CONTINUOUS
10
101.625
20
-104.902
11
101.61
21
-105.137
0
LINE
8
BLACK
6
CONTINUOUS
10
101.61
20
-105.137
11
101.564
21
-105.369
0
LINE
8
BLACK
6
CONTINUOUS
10
101.564
20
-105.369
11
101.488
21
-105.592
0
LINE
8
BLACK
6
CONTINUOUS
10
101.488
20
-105.592
11
101.383
21
-105.803
0
LINE
8
BLACK
6
CONTINUOUS
10
101.383
20
-105.803
11
101.252
21
-106
0
LINE
8
BLACK
6
CONTINUOUS
10
101.252
20
-106
11
101.097
21
-106.177
0
LINE
8
BLACK
6
CONTINUOUS
10
101.097
20
-106.177
11
100.92
21
-106.332
0
LINE
8
BLACK
6
CONTINUOUS
10
100.92
20
-106.332
11
100.724
21
-106.463
0
LINE
8
BLACK
6
CONTINUOUS
10
100.724
20
-106.463
11
100.512
21
-106.568
0
LINE
8
BLACK
6
CONTINUOUS
10
100.512
20
-106.568
11
100.289
21
-106.644
0
LINE
8
BLACK
6
CONTINUOUS
10
100.289
20
-106.644
11
100.057
21
-106.69
0
LINE
8
BLACK
6
CONTINUOUS
10
100.057
20
-106.69
11
99.822
21
-106.705
0
LINE
8
BLACK
6
CONTINUOUS
10
99.822
20
-106.705
11
75.438
21
-106.705
0
LINE
8
BLACK
6
CONTINUOUS
10
75.438
20
-106.705
11
75.2027
21
-106.69
0
LINE
8
BLACK
6
CONTINUOUS
10
75.4288
20
-86.3812
11
75.1879
21
-86.3984
0
LINE
8
BLACK
6
CONTINUOUS
10
75.1879
20
-86.3984
11
74.9429
21
-86.4517
0
LINE
8
BLACK
6
CONTINUOUS
10
74.9429
20
-86.4517
11
74.7079
21
-86.5393
0
LINE
8
BLACK
6
CONTINUOUS
10
74.7079
20
-86.5393
11
74.4878
21
-86.6595
0
LINE
8
BLACK
6
CONTINUOUS
10
74.4878
20
-86.6595
11
74.2871
21
-86.8098
0
LINE
8
BLACK
6
CONTINUOUS
10
74.2871
20
-86.8098
11
74.1098
21
-86.9871
0
LINE
8
BLACK
6
CONTINUOUS
10
74.1098
20
-86.9871
11
73.9595
21
-87.1878
0
LINE
8
BLACK
6
CONTINUOUS
10
73.9595
20
-87.1878
11
73.8393
21
-87.4079
0
LINE
8
BLACK
6
CONTINUOUS
10
73.8393
20
-87.4079
11
73.7517
21
-87.6429
0
LINE
8
BLACK
6
CONTINUOUS
10
73.7517
20
-87.6429
11
73.6984
21
-87.8879
0
LINE
8
BLACK
6
CONTINUOUS
10
73.6984
20
-87.8879
11
73.6812
21
-88.1288
0
LINE
8
BLACK
6
CONTINUOUS
10
73.6812
20
-88.1288
11
73.685
21
-88.138
0
LINE
8
BLACK
6
CONTINUOUS
10
73.685
20
-88.138
11
73.685
21
-104.902
0
LINE
8
BLACK
6
CONTINUOUS
10
73.685
20
-104.902
11
73.6812
21
-104.911
0
LINE
8
BLACK
6
CONTINUOUS
10
73.6812
20
-104.911
11
73.6984
21
-105.152
0
LINE
8
BLACK
6
CONTINUOUS
10
73.6984
20
-105.152
11
73.7517
21
-105.397
0
LINE
8
BLACK
6
CONTINUOUS
10
73.7517
20
-105.397
11
73.8393
21
-105.632
0
LINE
8
BLACK
6
CONTINUOUS
10
73.8393
20
-105.632
11
73.9595
21
-105.852
0
LINE
8
BLACK
6
CONTINUOUS
10
73.9595
20
-105.852
11
74.1098
21
-106.053
0
LINE
8
BLACK
6
CONTINUOUS
10
74.1098
20
-106.053
11
74.2871
21
-106.23
0
LINE
8
BLACK
6
CONTINUOUS
10
74.2871
20
-106.23
11
74.4878
21
-106.38
0
LINE
8
BLACK
6
CONTINUOUS
10
74.4878
20
-106.38
11
74.7079
21
-106.501
0
LINE
8
BLACK
6
CONTINUOUS
10
74.7079
20
-106.501
11
74.9429
21
-106.588
0
LINE
8
BLACK
6
CONTINUOUS
10
74.9429
20
-106.588
11
75.1879
21
-106.642
0
LINE
8
BLACK
6
CONTINUOUS
10
75.1879
20
-106.642
11
75.4288
21
-106.659
0
LINE
8
BLACK
6
CONTINUOUS
10
75.4288
20
-106.659
11
75.438
21
-106.655
0
LINE
8
BLACK
6
CONTINUOUS
10
75.438
20
-106.655
11
99.822
21
-106.655
0
LINE
8
BLACK
6
CONTINUOUS
10
99.822
20
-106.655
11
99.8312
21
-106.659
0
LINE
8
BLACK
6
CONTINUOUS
10
99.8312
20
-106.659
11
100.072
21
-106.642
0
LINE
8
BLACK
6
CONTINUOUS
10
100.072
20
-106.642
11
100.317
21
-106.588
0
LINE
8
BLACK
6
CONTINUOUS
10
100.317
20
-106.588
11
100.552
21
-106.501
0
LINE
8
BLACK
6
CONTINUOUS
10
100.552
20
-106.501
11
100.772
21
-106.38
0
LINE
8
BLACK
6
CONTINUOUS
10
100.772
20
-106.38
11
100.973
21
-106.23
0
LINE
8
BLACK
6
CONTINUOUS
10
100.973
20
-106.23
11
101.15
21
-106.053
0
LINE
8
BLACK
6
CONTINUOUS
10
101.15
20
-106.053
11
101.3
21
-105.852
0
LINE
8
BLACK
6
CONTINUOUS
10
101.3
20
-105.852
11
101.421
21
-105.632
0
LINE
8
BLACK
6
CONTINUOUS
10
101.421
20
-105.632
11
101.508
21
-105.397
0
LINE
8
BLACK
6
CONTINUOUS
10
101.508
20
-105.397
11
101.562
21
-105.152
0
LINE
8
BLACK
6
CONTINUOUS
10
101.562
20
-105.152
11
101.579
21
-104.911
0
LINE
8
BLACK
6
CONTINUOUS
10
101.579
20
-104.911
11
101.575
21
-104.902
0
LINE
8
BLACK
6
CONTINUOUS
10
101.575
20
-104.902
11
101.575
21
-88.138
0
LINE
8
BLACK
6
CONTINUOUS
10
101.575
20
-88.138
11
101.579
21
-88.1288
0
LINE
8
BLACK
6
CONTINUOUS
10
101.579
20
-88.1288
11
101.562
21
-87.8879
0
LINE
8
BLACK
6
CONTINUOUS
10
101.562
20
-87.8879
11
101.508
21
-87.6429
0
LINE
8
BLACK
6
CONTINUOUS
10
101.508
20
-87.6429
11
101.421
21
-87.4079
0
LINE
8
BLACK
6
CONTINUOUS
10
101.421
20
-87.4079
11
101.3
21
-87.1878
0
LINE
8
BLACK
6
CONTINUOUS
10
101.3
20
-87.1878
11
101.15
21
-86.9871
0
LINE
8
BLACK
6
CONTINUOUS
10
101.15
20
-86.9871
11
100.973
21
-86.8098
0
LINE
8
BLACK
6
CONTINUOUS
10
100.973
20
-86.8098
11
100.772
21
-86.6595
0
LINE
8
BLACK
6
CONTINUOUS
10
100.772
20
-86.6595
11
100.552
21
-86.5393
0
LINE
8
BLACK
6
CONTINUOUS
10
100.552
20
-86.5393
11
100.317
21
-86.4517
0
LINE
8
BLACK
6
CONTINUOUS
10
100.317
20
-86.4517
11
100.072
21
-86.3984
0
LINE
8
BLACK
6
CONTINUOUS
10
100.072
20
-86.3984
11
99.8312
21
-86.3812
0
LINE
8
BLACK
6
CONTINUOUS
10
99.8312
20
-86.3812
11
99.822
21
-86.385
0
LINE
8
BLACK
6
CONTINUOUS
10
99.822
20
-86.385
11
75.438
21
-86.385
0
LINE
8
BLACK
6
CONTINUOUS
10
75.438
20
-86.385
11
75.4288
21
-86.3812
0
LINE
8
BLACK
6
CONTINUOUS
10
129.547
20
-91.418
11
129.555
21
-91.42
0
LINE
8
BLACK
6
CONTINUOUS
10
129.555
20
-91.42
11
129.937
21
-91.7305
0
LINE
8
BLACK
6
CONTINUOUS
10
129.937
20
-91.7305
11
130.294
21
-92.0696
0
LINE
8
BLACK
6
CONTINUOUS
10
130.294
20
-92.0696
11
130.624
21
-92.4352
0
LINE
8
BLACK
6
CONTINUOUS
10
130.624
20
-92.4352
11
130.925
21
-92.8253
0
LINE
8
BLACK
6
CONTINUOUS
10
130.925
20
-92.8253
11
131.195
21
-93.2373
0
LINE
8
BLACK
6
CONTINUOUS
10
131.195
20
-93.2373
11
131.432
21
-93.669
0
LINE
8
BLACK
6
CONTINUOUS
10
131.432
20
-93.669
11
131.635
21
-94.1177
0
LINE
8
BLACK
6
CONTINUOUS
10
131.635
20
-94.1177
11
131.803
21
-94.5807
0
LINE
8
BLACK
6
CONTINUOUS
10
131.803
20
-94.5807
11
131.934
21
-95.0553
0
LINE
8
BLACK
6
CONTINUOUS
10
131.934
20
-95.0553
11
132.029
21
-95.5387
0
LINE
8
BLACK
6
CONTINUOUS
10
132.029
20
-95.5387
11
132.086
21
-96.0279
0
LINE
8
BLACK
6
CONTINUOUS
10
132.086
20
-96.0279
11
132.105
21
-96.52
0
LINE
8
BLACK
6
CONTINUOUS
10
132.105
20
-96.52
11
132.086
21
-97.0121
0
LINE
8
BLACK
6
CONTINUOUS
10
132.086
20
-97.0121
11
132.029
21
-97.5013
0
LINE
8
BLACK
6
CONTINUOUS
10
132.029
20
-97.5013
11
131.934
21
-97.9847
0
LINE
8
BLACK
6
CONTINUOUS
10
131.934
20
-97.9847
11
131.803
21
-98.4593
0
LINE
8
BLACK
6
CONTINUOUS
10
131.803
20
-98.4593
11
131.635
21
-98.9223
0
LINE
8
BLACK
6
CONTINUOUS
10
131.635
20
-98.9223
11
131.432
21
-99.371
0
LINE
8
BLACK
6
CONTINUOUS
10
131.432
20
-99.371
11
131.195
21
-99.8027
0
LINE
8
BLACK
6
CONTINUOUS
10
131.195
20
-99.8027
11
130.925
21
-100.215
0
LINE
8
BLACK
6
CONTINUOUS
10
130.925
20
-100.215
11
130.624
21
-100.605
0
LINE
8
BLACK
6
CONTINUOUS
10
130.624
20
-100.605
11
130.294
21
-100.97
0
LINE
8
BLACK
6
CONTINUOUS
10
130.294
20
-100.97
11
129.937
21
-101.309
0
LINE
8
BLACK
6
CONTINUOUS
10
129.937
20
-101.309
11
129.555
21
-101.62
0
LINE
8
BLACK
6
CONTINUOUS
10
129.555
20
-101.62
11
129.547
21
-101.622
0
LINE
8
BLACK
6
CONTINUOUS
10
129.547
20
-101.622
11
129.54
21
-101.625
0
LINE
8
BLACK
6
CONTINUOUS
10
129.54
20
-101.625
11
121.92
21
-101.625
0
LINE
8
BLACK
6
CONTINUOUS
10
121.92
20
-101.625
11
121.913
21
-101.622
0
LINE
8
BLACK
6
CONTINUOUS
10
121.913
20
-101.622
11
121.905
21
-101.62
0
LINE
8
BLACK
6
CONTINUOUS
10
121.905
20
-101.62
11
121.523
21
-101.309
0
LINE
8
BLACK
6
CONTINUOUS
10
121.523
20
-101.309
11
121.166
21
-100.97
0
LINE
8
BLACK
6
CONTINUOUS
10
121.166
20
-100.97
11
120.836
21
-100.605
0
LINE
8
BLACK
6
CONTINUOUS
10
120.836
20
-100.605
11
120.535
21
-100.215
0
LINE
8
BLACK
6
CONTINUOUS
10
120.535
20
-100.215
11
120.265
21
-99.8027
0
LINE
8
BLACK
6
CONTINUOUS
10
120.265
20
-99.8027
11
120.028
21
-99.371
0
LINE
8
BLACK
6
CONTINUOUS
10
120.028
20
-99.371
11
119.825
21
-98.9223
0
LINE
8
BLACK
6
CONTINUOUS
10
119.825
20
-98.9223
11
119.657
21
-98.4593
0
LINE
8
BLACK
6
CONTINUOUS
10
119.657
20
-98.4593
11
119.526
21
-97.9847
0
LINE
8
BLACK
6
CONTINUOUS
10
119.526
20
-97.9847
11
119.431
21
-97.5013
0
LINE
8
BLACK
6
CONTINUOUS
10
119.431
20
-97.5013
11
119.374
21
-97.0121
0
LINE
8
BLACK
6
CONTINUOUS
10
119.374
20
-97.0121
11
119.355
21
-96.52
0
LINE
8
BLACK
6
CONTINUOUS
10
119.355
20
-96.52
11
119.374
21
-96.0279
0
LINE
8
BLACK
6
CONTINUOUS
10
119.374
20
-96.0279
11
119.431
21
-95.5387
0
LINE
8
BLACK
6
CONTINUOUS
10
119.431
20
-95.5387
11
119.526
21
-95.0553
0
LINE
8
BLACK
6
CONTINUOUS
10
119.526
20
-95.0553
11
119.657
21
-94.5807
0
LINE
8
BLACK
6
CONTINUOUS
10
119.657
20
-94.5807
11
119.825
21
-94.1177
0
LINE
8
BLACK
6
CONTINUOUS
10
119.825
20
-94.1177
11
120.028
21
-93.669
0
LINE
8
BLACK
6
CONTINUOUS
10
120.028
20
-93.669
11
120.265
21
-93.2373
0
LINE
8
BLACK
6
CONTINUOUS
10
120.265
20
-93.2373
11
120.535
21
-92.8253
0
LINE
8
BLACK
6
CONTINUOUS
10
120.535
20
-92.8253
11
120.836
21
-92.4352
0
LINE
8
BLACK
6
CONTINUOUS
10
120.836
20
-92.4352
11
121.166
21
-92.0696
0
LINE
8
BLACK
6
CONTINUOUS
10
121.166
20
-92.0696
11
121.523
21
-91.7305
0
LINE
8
BLACK
6
CONTINUOUS
10
121.523
20
-91.7305
11
121.905
21
-91.42
0
LINE
8
BLACK
6
CONTINUOUS
10
121.905
20
-91.42
11
121.913
21
-91.418
0
LINE
8
BLACK
6
CONTINUOUS
10
121.913
20
-91.418
11
121.92
21
-91.415
0
LINE
8
BLACK
6
CONTINUOUS
10
121.92
20
-91.415
11
129.54
21
-91.415
0
LINE
8
BLACK
6
CONTINUOUS
10
129.54
20
-91.415
11
129.547
21
-91.418
0
LINE
8
BLACK
6
CONTINUOUS
10
121.921
20
-91.465
11
121.553
21
-91.7645
0
LINE
8
BLACK
6
CONTINUOUS
10
121.553
20
-91.7645
11
121.198
21
-92.1012
0
LINE
8
BLACK
6
CONTINUOUS
10
121.198
20
-92.1012
11
120.87
21
-92.4642
0
LINE
8
BLACK
6
CONTINUOUS
10
120.87
20
-92.4642
11
120.572
21
-92.8515
0
LINE
8
BLACK
6
CONTINUOUS
10
120.572
20
-92.8515
11
120.304
21
-93.2606
0
LINE
8
BLACK
6
CONTINUOUS
10
120.304
20
-93.2606
11
120.068
21
-93.6892
0
LINE
8
BLACK
6
CONTINUOUS
10
120.068
20
-93.6892
11
119.867
21
-94.1347
0
LINE
8
BLACK
6
CONTINUOUS
10
119.867
20
-94.1347
11
119.7
21
-94.5945
0
LINE
8
BLACK
6
CONTINUOUS
10
119.7
20
-94.5945
11
119.57
21
-95.0657
0
LINE
8
BLACK
6
CONTINUOUS
10
119.57
20
-95.0657
11
119.476
21
-95.5456
0
LINE
8
BLACK
6
CONTINUOUS
10
119.476
20
-95.5456
11
119.419
21
-96.0314
0
LINE
8
BLACK
6
CONTINUOUS
10
119.419
20
-96.0314
11
119.4
21
-96.52
0
LINE
8
BLACK
6
CONTINUOUS
10
119.4
20
-96.52
11
119.419
21
-97.0086
0
LINE
8
BLACK
6
CONTINUOUS
10
119.419
20
-97.0086
11
119.476
21
-97.4944
0
LINE
8
BLACK
6
CONTINUOUS
10
119.476
20
-97.4944
11
119.57
21
-97.9743
0
LINE
8
BLACK
6
CONTINUOUS
10
119.57
20
-97.9743
11
119.7
21
-98.4455
0
LINE
8
BLACK
6
CONTINUOUS
10
119.7
20
-98.4455
11
119.867
21
-98.9053
0
LINE
8
BLACK
6
CONTINUOUS
10
119.867
20
-98.9053
11
120.068
21
-99.3508
0
LINE
8
BLACK
6
CONTINUOUS
10
120.068
20
-99.3508
11
120.304
21
-99.7794
0
LINE
8
BLACK
6
CONTINUOUS
10
120.304
20
-99.7794
11
120.572
21
-100.189
0
LINE
8
BLACK
6
CONTINUOUS
10
120.572
20
-100.189
11
120.87
21
-100.576
0
LINE
8
BLACK
6
CONTINUOUS
10
120.87
20
-100.576
11
121.198
21
-100.939
0
LINE
8
BLACK
6
CONTINUOUS
10
121.198
20
-100.939
11
121.553
21
-101.276
0
LINE
8
BLACK
6
CONTINUOUS
10
121.553
20
-101.276
11
121.921
21
-101.575
0
LINE
8
BLACK
6
CONTINUOUS
10
121.921
20
-101.575
11
129.539
21
-101.575
0
LINE
8
BLACK
6
CONTINUOUS
10
129.539
20
-101.575
11
129.907
21
-101.276
0
LINE
8
BLACK
6
CONTINUOUS
10
129.907
20
-101.276
11
130.262
21
-100.939
0
LINE
8
BLACK
6
CONTINUOUS
10
130.262
20
-100.939
11
130.59
21
-100.576
0
LINE
8
BLACK
6
CONTINUOUS
10
130.59
20
-100.576
11
130.888
21
-100.189
0
LINE
8
BLACK
6
CONTINUOUS
10
130.888
20
-100.189
11
131.156
21
-99.7794
0
LINE
8
BLACK
6
CONTINUOUS
10
131.156
20
-99.7794
11
131.392
21
-99.3508
0
LINE
8
BLACK
6
CONTINUOUS
10
131.392
20
-99.3508
11
131.593
21
-98.9053
0
LINE
8
BLACK
6
CONTINUOUS
10
131.593
20
-98.9053
11
131.76
21
-98.4455
0
LINE
8
BLACK
6
CONTINUOUS
10
131.76
20
-98.4455
11
131.89
21
-97.9743
0
LINE
8
BLACK
6
CONTINUOUS
10
131.89
20
-97.9743
11
131.984
21
-97.4944
0
LINE
8
BLACK
6
CONTINUOUS
10
131.984
20
-97.4944
11
132.041
21
-97.0086
0
LINE
8
BLACK
6
CONTINUOUS
10
132.041
20
-97.0086
11
132.06
21
-96.52
0
LINE
8
BLACK
6
CONTINUOUS
10
132.06
20
-96.52
11
132.041
21
-96.0314
0
LINE
8
BLACK
6
CONTINUOUS
10
132.041
20
-96.0314
11
131.984
21
-95.5456
0
LINE
8
BLACK
6
CONTINUOUS
10
131.984
20
-95.5456
11
131.89
21
-95.0657
0
LINE
8
BLACK
6
CONTINUOUS
10
131.89
20
-95.0657
11
131.76
21
-94.5945
0
LINE
8
BLACK
6
CONTINUOUS
10
131.76
20
-94.5945
11
131.593
21
-94.1347
0
LINE
8
BLACK
6
CONTINUOUS
10
131.593
20
-94.1347
11
131.392
21
-93.6892
0
LINE
8
BLACK
6
CONTINUOUS
10
131.392
20
-93.6892
11
131.156
21
-93.2606
0
LINE
8
BLACK
6
CONTINUOUS
10
131.156
20
-93.2606
11
130.888
21
-92.8515
0
LINE
8
BLACK
6
CONTINUOUS
10
130.888
20
-92.8515
11
130.59
21
-92.4642
0
LINE
8
BLACK
6
CONTINUOUS
10
130.59
20
-92.4642
11
130.262
21
-92.1012
0
LINE
8
BLACK
6
CONTINUOUS
10
130.262
20
-92.1012
11
129.907
21
-91.7645
0
LINE
8
BLACK
6
CONTINUOUS
10
129.907
20
-91.7645
11
129.539
21
-91.465
0
LINE
8
BLACK
6
CONTINUOUS
10
129.539
20
-91.465
11
121.921
21
-91.465
0
LINE
8
BLACK
6
CONTINUOUS
10
144.833
20
-95.5227
11
144.931
21
-95.0318
0
LINE
8
BLACK
6
CONTINUOUS
10
144.931
20
-95.0318
11
145.067
21
-94.55
0
LINE
8
BLACK
6
CONTINUOUS
10
145.067
20
-94.55
11
145.24
21
-94.0804
0
LINE
8
BLACK
6
CONTINUOUS
10
145.24
20
-94.0804
11
145.45
21
-93.6258
0
LINE
8
BLACK
6
CONTINUOUS
10
145.45
20
-93.6258
11
145.694
21
-93.1891
0
LINE
8
BLACK
6
CONTINUOUS
10
145.694
20
-93.1891
11
145.973
21
-92.7729
0
LINE
8
BLACK
6
CONTINUOUS
10
145.973
20
-92.7729
11
146.282
21
-92.3798
0
LINE
8
BLACK
6
CONTINUOUS
10
146.282
20
-92.3798
11
146.622
21
-92.0122
0
LINE
8
BLACK
6
CONTINUOUS
10
146.622
20
-92.0122
11
146.99
21
-91.6724
0
LINE
8
BLACK
6
CONTINUOUS
10
146.99
20
-91.6724
11
147.383
21
-91.3625
0
LINE
8
BLACK
6
CONTINUOUS
10
147.383
20
-91.3625
11
147.799
21
-91.0844
0
LINE
8
BLACK
6
CONTINUOUS
10
147.799
20
-91.0844
11
148.236
21
-90.8398
0
LINE
8
BLACK
6
CONTINUOUS
10
148.236
20
-90.8398
11
148.69
21
-90.6303
0
LINE
8
BLACK
6
CONTINUOUS
10
148.69
20
-90.6303
11
149.16
21
-90.457
0
LINE
8
BLACK
6
CONTINUOUS
10
149.16
20
-90.457
11
149.642
21
-90.3211
0
LINE
8
BLACK
6
CONTINUOUS
10
149.642
20
-90.3211
11
150.133
21
-90.2235
0
LINE
8
BLACK
6
CONTINUOUS
10
150.133
20
-90.2235
11
150.63
21
-90.1647
0
LINE
8
BLACK
6
CONTINUOUS
10
150.63
20
-90.1647
11
151.13
21
-90.145
0
LINE
8
BLACK
6
CONTINUOUS
10
151.13
20
-90.145
11
151.63
21
-90.1647
0
LINE
8
BLACK
6
CONTINUOUS
10
151.63
20
-90.1647
11
152.127
21
-90.2235
0
LINE
8
BLACK
6
CONTINUOUS
10
152.127
20
-90.2235
11
152.618
21
-90.3211
0
LINE
8
BLACK
6
CONTINUOUS
10
152.618
20
-90.3211
11
153.1
21
-90.457
0
LINE
8
BLACK
6
CONTINUOUS
10
153.1
20
-90.457
11
153.57
21
-90.6303
0
LINE
8
BLACK
6
CONTINUOUS
10
153.57
20
-90.6303
11
154.024
21
-90.8398
0
LINE
8
BLACK
6
CONTINUOUS
10
154.024
20
-90.8398
11
154.461
21
-91.0844
0
LINE
8
BLACK
6
CONTINUOUS
10
154.461
20
-91.0844
11
154.877
21
-91.3625
0
LINE
8
BLACK
6
CONTINUOUS
10
154.877
20
-91.3625
11
155.27
21
-91.6724
0
LINE
8
BLACK
6
CONTINUOUS
10
155.27
20
-91.6724
11
155.638
21
-92.0122
0
LINE
8
BLACK
6
CONTINUOUS
10
155.638
20
-92.0122
11
155.978
21
-92.3798
0
LINE
8
BLACK
6
CONTINUOUS
10
155.978
20
-92.3798
11
156.287
21
-92.7729
0
LINE
8
BLACK
6
CONTINUOUS
10
156.287
20
-92.7729
11
156.566
21
-93.1891
0
LINE
8
BLACK
6
CONTINUOUS
10
156.566
20
-93.1891
11
156.81
21
-93.6258
0
LINE
8
BLACK
6
CONTINUOUS
10
156.81
20
-93.6258
11
157.02
21
-94.0804
0
LINE
8
BLACK
6
CONTINUOUS
10
157.02
20
-94.0804
11
157.193
21
-94.55
0
LINE
8
BLACK
6
CONTINUOUS
10
157.193
20
-94.55
11
157.329
21
-95.0318
0
LINE
8
BLACK
6
CONTINUOUS
10
157.329
20
-95.0318
11
157.427
21
-95.5227
0
LINE
8
BLACK
6
CONTINUOUS
10
157.427
20
-95.5227
11
157.485
21
-96.0198
0
LINE
8
BLACK
6
CONTINUOUS
10
157.485
20
-96.0198
11
157.505
21
-96.52
0
LINE
8
BLACK
6
CONTINUOUS
10
157.505
20
-96.52
11
157.485
21
-97.0202
0
LINE
8
BLACK
6
CONTINUOUS
10
157.485
20
-97.0202
11
157.427
21
-97.5173
0
LINE
8
BLACK
6
CONTINUOUS
10
157.427
20
-97.5173
11
157.329
21
-98.0082
0
LINE
8
BLACK
6
CONTINUOUS
10
157.329
20
-98.0082
11
157.193
21
-98.49
0
LINE
8
BLACK
6
CONTINUOUS
10
157.193
20
-98.49
11
157.02
21
-98.9596
0
LINE
8
BLACK
6
CONTINUOUS
10
157.02
20
-98.9596
11
156.81
21
-99.4142
0
LINE
8
BLACK
6
CONTINUOUS
10
156.81
20
-99.4142
11
156.566
21
-99.8509
0
LINE
8
BLACK
6
CONTINUOUS
10
156.566
20
-99.8509
11
156.287
21
-100.267
0
LINE
8
BLACK
6
CONTINUOUS
10
156.287
20
-100.267
11
155.978
21
-100.66
0
LINE
8
BLACK
6
CONTINUOUS
10
155.978
20
-100.66
11
155.638
21
-101.028
0
LINE
8
BLACK
6
CONTINUOUS
10
155.638
20
-101.028
11
155.27
21
-101.368
0
LINE
8
BLACK
6
CONTINUOUS
10
155.27
20
-101.368
11
154.877
21
-101.677
0
LINE
8
BLACK
6
CONTINUOUS
10
154.877
20
-101.677
11
154.461
21
-101.956
0
LINE
8
BLACK
6
CONTINUOUS
10
154.461
20
-101.956
11
154.024
21
-102.2
0
LINE
8
BLACK
6
CONTINUOUS
10
154.024
20
-102.2
11
153.57
21
-102.41
0
LINE
8
BLACK
6
CONTINUOUS
10
153.57
20
-102.41
11
153.1
21
-102.583
0
LINE
8
BLACK
6
CONTINUOUS
10
153.1
20
-102.583
11
152.618
21
-102.719
0
LINE
8
BLACK
6
CONTINUOUS
10
152.618
20
-102.719
11
152.127
21
-102.817
0
LINE
8
BLACK
6
CONTINUOUS
10
152.127
20
-102.817
11
151.63
21
-102.875
0
LINE
8
BLACK
6
CONTINUOUS
10
151.63
20
-102.875
11
151.13
21
-102.895
0
LINE
8
BLACK
6
CONTINUOUS
10
151.13
20
-102.895
11
150.63
21
-102.875
0
LINE
8
BLACK
6
CONTINUOUS
10
150.63
20
-102.875
11
150.133
21
-102.817
0
LINE
8
BLACK
6
CONTINUOUS
10
150.133
20
-102.817
11
149.642
21
-102.719
0
LINE
8
BLACK
6
CONTINUOUS
10
149.642
20
-102.719
11
149.16
21
-102.583
0
LINE
8
BLACK
6
CONTINUOUS
10
149.16
20
-102.583
11
148.69
21
-102.41
0
LINE
8
BLACK
6
CONTINUOUS
10
148.69
20
-102.41
11
148.236
21
-102.2
0
LINE
8
BLACK
6
CONTINUOUS
10
148.236
20
-102.2
11
147.799
21
-101.956
0
LINE
8
BLACK
6
CONTINUOUS
10
147.799
20
-101.956
11
147.383
21
-101.677
0
LINE
8
BLACK
6
CONTINUOUS
10
147.383
20
-101.677
11
146.99
21
-101.368
0
LINE
8
BLACK
6
CONTINUOUS
10
146.99
20
-101.368
11
146.622
21
-101.028
0
LINE
8
BLACK
6
CONTINUOUS
10
146.622
20
-101.028
11
146.282
21
-100.66
0
LINE
8
BLACK
6
CONTINUOUS
10
146.282
20
-100.66
11
145.973
21
-100.267
0
LINE
8
BLACK
6
CONTINUOUS
10
145.973
20
-100.267
11
145.694
21
-99.8509
0
LINE
8
BLACK
6
CONTINUOUS
10
145.694
20
-99.8509
11
145.45
21
-99.4142
0
LINE
8
BLACK
6
CONTINUOUS
10
145.45
20
-99.4142
11
145.24
21
-98.9596
0
LINE
8
BLACK
6
CONTINUOUS
10
145.24
20
-98.9596
11
145.067
21
-98.49
0
LINE
8
BLACK
6
CONTINUOUS
10
145.067
20
-98.49
11
144.931
21
-98.0082
0
LINE
8
BLACK
6
CONTINUOUS
10
144.931
20
-98.0082
11
144.833
21
-97.5173
0
LINE
8
BLACK
6
CONTINUOUS
10
144.833
20
-97.5173
11
144.775
21
-97.0202
0
LINE
8
BLACK
6
CONTINUOUS
10
144.775
20
-97.0202
11
144.755
21
-96.52
0
LINE
8
BLACK
6
CONTINUOUS
10
144.755
20
-96.52
11
144.775
21
-96.0198
0
LINE
8
BLACK
6
CONTINUOUS
10
144.775
20
-96.0198
11
144.833
21
-95.5227
0
LINE
8
BLACK
6
CONTINUOUS
10
144.878
20
-97.5102
11
144.975
21
-97.9977
0
LINE
8
BLACK
6
CONTINUOUS
10
144.975
20
-97.9977
11
145.11
21
-98.476
0
LINE
8
BLACK
6
CONTINUOUS
10
145.11
20
-98.476
11
145.282
21
-98.9423
0
LINE
8
BLACK
6
CONTINUOUS
10
145.282
20
-98.9423
11
145.49
21
-99.3937
0
LINE
8
BLACK
6
CONTINUOUS
10
145.49
20
-99.3937
11
145.733
21
-99.8274
0
LINE
8
BLACK
6
CONTINUOUS
10
145.733
20
-99.8274
11
146.009
21
-100.241
0
LINE
8
BLACK
6
CONTINUOUS
10
146.009
20
-100.241
11
146.317
21
-100.631
0
LINE
8
BLACK
6
CONTINUOUS
10
146.317
20
-100.631
11
146.654
21
-100.996
0
LINE
8
BLACK
6
CONTINUOUS
10
146.654
20
-100.996
11
147.019
21
-101.333
0
LINE
8
BLACK
6
CONTINUOUS
10
147.019
20
-101.333
11
147.409
21
-101.641
0
LINE
8
BLACK
6
CONTINUOUS
10
147.409
20
-101.641
11
147.823
21
-101.917
0
LINE
8
BLACK
6
CONTINUOUS
10
147.823
20
-101.917
11
148.256
21
-102.16
0
LINE
8
BLACK
6
CONTINUOUS
10
148.256
20
-102.16
11
148.708
21
-102.368
0
LINE
8
BLACK
6
CONTINUOUS
10
148.708
20
-102.368
11
149.174
21
-102.54
0
LINE
8
BLACK
6
CONTINUOUS
10
149.174
20
-102.54
11
149.652
21
-102.675
0
LINE
8
BLACK
6
CONTINUOUS
10
149.652
20
-102.675
11
150.14
21
-102.772
0
LINE
8
BLACK
6
CONTINUOUS
10
150.14
20
-102.772
11
150.633
21
-102.83
0
LINE
8
BLACK
6
CONTINUOUS
10
150.633
20
-102.83
11
151.13
21
-102.85
0
LINE
8
BLACK
6
CONTINUOUS
10
151.13
20
-102.85
11
151.627
21
-102.83
0
LINE
8
BLACK
6
CONTINUOUS
10
151.627
20
-102.83
11
152.12
21
-102.772
0
LINE
8
BLACK
6
CONTINUOUS
10
152.12
20
-102.772
11
152.608
21
-102.675
0
LINE
8
BLACK
6
CONTINUOUS
10
152.608
20
-102.675
11
153.086
21
-102.54
0
LINE
8
BLACK
6
CONTINUOUS
10
153.086
20
-102.54
11
153.552
21
-102.368
0
LINE
8
BLACK
6
CONTINUOUS
10
153.552
20
-102.368
11
154.004
21
-102.16
0
LINE
8
BLACK
6
CONTINUOUS
10
154.004
20
-102.16
11
154.437
21
-101.917
0
LINE
8
BLACK
6
CONTINUOUS
10
154.437
20
-101.917
11
154.851
21
-101.641
0
LINE
8
BLACK
6
CONTINUOUS
10
154.851
20
-101.641
11
155.241
21
-101.333
0
LINE
8
BLACK
6
CONTINUOUS
10
155.241
20
-101.333
11
155.606
21
-100.996
0
LINE
8
BLACK
6
CONTINUOUS
10
155.606
20
-100.996
11
155.943
21
-100.631
0
LINE
8
BLACK
6
CONTINUOUS
10
155.943
20
-100.631
11
156.251
21
-100.241
0
LINE
8
BLACK
6
CONTINUOUS
10
156.251
20
-100.241
11
156.527
21
-99.8274
0
LINE
8
BLACK
6
CONTINUOUS
10
156.527
20
-99.8274
11
156.77
21
-99.3937
0
LINE
8
BLACK
6
CONTINUOUS
10
156.77
20
-99.3937
11
156.978
21
-98.9423
0
LINE
8
BLACK
6
CONTINUOUS
10
156.978
20
-98.9423
11
157.15
21
-98.476
0
LINE
8
BLACK
6
CONTINUOUS
10
157.15
20
-98.476
11
157.285
21
-97.9977
0
LINE
8
BLACK
6
CONTINUOUS
10
157.285
20
-97.9977
11
157.382
21
-97.5102
0
LINE
8
BLACK
6
CONTINUOUS
10
157.382
20
-97.5102
11
157.44
21
-97.0166
0
LINE
8
BLACK
6
CONTINUOUS
10
157.44
20
-97.0166
11
157.46
21
-96.52
0
LINE
8
BLACK
6
CONTINUOUS
10
157.46
20
-96.52
11
157.44
21
-96.0234
0
LINE
8
BLACK
6
CONTINUOUS
10
157.44
20
-96.0234
11
157.382
21
-95.5298
0
LINE
8
BLACK
6
CONTINUOUS
10
157.382
20
-95.5298
11
157.285
21
-95.0423
0
LINE
8
BLACK
6
CONTINUOUS
10
157.285
20
-95.0423
11
157.15
21
-94.564
0
LINE
8
BLACK
6
CONTINUOUS
10
157.15
20
-94.564
11
156.978
21
-94.0977
0
LINE
8
BLACK
6
CONTINUOUS
10
156.978
20
-94.0977
11
156.77
21
-93.6463
0
LINE
8
BLACK
6
CONTINUOUS
10
156.77
20
-93.6463
11
156.527
21
-93.2126
0
LINE
8
BLACK
6
CONTINUOUS
10
156.527
20
-93.2126
11
156.251
21
-92.7994
0
LINE
8
BLACK
6
CONTINUOUS
10
156.251
20
-92.7994
11
155.943
21
-92.4091
0
LINE
8
BLACK
6
CONTINUOUS
10
155.943
20
-92.4091
11
155.606
21
-92.0441
0
LINE
8
BLACK
6
CONTINUOUS
10
155.606
20
-92.0441
11
155.241
21
-91.7067
0
LINE
8
BLACK
6
CONTINUOUS
10
155.241
20
-91.7067
11
154.851
21
-91.399
0
LINE
8
BLACK
6
CONTINUOUS
10
154.851
20
-91.399
11
154.437
21
-91.1229
0
LINE
8
BLACK
6
CONTINUOUS
10
154.437
20
-91.1229
11
154.004
21
-90.88
0
LINE
8
BLACK
6
CONTINUOUS
10
154.004
20
-90.88
11
153.552
21
-90.672
0
LINE
8
BLACK
6
CONTINUOUS
10
153.552
20
-90.672
11
153.086
21
-90.4999
0
LINE
8
BLACK
6
CONTINUOUS
10
153.086
20
-90.4999
11
152.608
21
-90.365
0
LINE
8
BLACK
6
CONTINUOUS
10
152.608
20
-90.365
11
152.12
21
-90.2681
0
LINE
8
BLACK
6
CONTINUOUS
10
152.12
20
-90.2681
11
151.627
21
-90.2096
0
LINE
8
BLACK
6
CONTINUOUS
10
151.627
20
-90.2096
11
151.13
21
-90.1901
0
LINE
8
BLACK
6
CONTINUOUS
10
151.13
20
-90.1901
11
150.633
21
-90.2096
0
LINE
8
BLACK
6
CONTINUOUS
10
150.633
20
-90.2096
11
150.14
21
-90.2681
0
LINE
8
BLACK
6
CONTINUOUS
10
150.14
20
-90.2681
11
149.652
21
-90.365
0
LINE
8
BLACK
6
CONTINUOUS
10
149.652
20
-90.365
11
149.174
21
-90.4999
0
LINE
8
BLACK
6
CONTINUOUS
10
149.174
20
-90.4999
11
148.708
21
-90.672
0
LINE
8
BLACK
6
CONTINUOUS
10
148.708
20
-90.672
11
148.256
21
-90.88
0
LINE
8
BLACK
6
CONTINUOUS
10
148.256
20
-90.88
11
147.823
21
-91.1229
0
LINE
8
BLACK
6
CONTINUOUS
10
147.823
20
-91.1229
11
147.409
21
-91.399
0
LINE
8
BLACK
6
CONTINUOUS
10
147.409
20
-91.399
11
147.019
21
-91.7067
0
LINE
8
BLACK
6
CONTINUOUS
10
147.019
20
-91.7067
11
146.654
21
-92.0441
0
LINE
8
BLACK
6
CONTINUOUS
10
146.654
20
-92.0441
11
146.317
21
-92.4091
0
LINE
8
BLACK
6
CONTINUOUS
10
146.317
20
-92.4091
11
146.009
21
-92.7994
0
LINE
8
BLACK
6
CONTINUOUS
10
146.009
20
-92.7994
11
145.733
21
-93.2126
0
LINE
8
BLACK
6
CONTINUOUS
10
145.733
20
-93.2126
11
145.49
21
-93.6463
0
LINE
8
BLACK
6
CONTINUOUS
10
145.49
20
-93.6463
11
145.282
21
-94.0977
0
LINE
8
BLACK
6
CONTINUOUS
10
145.282
20
-94.0977
11
145.11
21
-94.564
0
LINE
8
BLACK
6
CONTINUOUS
10
145.11
20
-94.564
11
144.975
21
-95.0423
0
LINE
8
BLACK
6
CONTINUOUS
10
144.975
20
-95.0423
11
144.878
21
-95.5298
0
LINE
8
BLACK
6
CONTINUOUS
10
144.878
20
-95.5298
11
144.82
21
-96.0234
0
LINE
8
BLACK
6
CONTINUOUS
10
144.82
20
-96.0234
11
144.8
21
-96.52
0
LINE
8
BLACK
6
CONTINUOUS
10
144.8
20
-96.52
11
144.82
21
-97.0166
0
LINE
8
BLACK
6
CONTINUOUS
10
144.82
20
-97.0166
11
144.878
21
-97.5102
0
LINE
8
BLACK
6
CONTINUOUS
10
65.7884
20
-96.2069
11
65.8542
21
-95.9479
0
LINE
8
BLACK
6
CONTINUOUS
10
65.8542
20
-95.9479
11
65.9575
21
-95.7015
0
LINE
8
BLACK
6
CONTINUOUS
10
65.9575
20
-95.7015
11
66.0961
21
-95.473
0
LINE
8
BLACK
6
CONTINUOUS
10
66.0961
20
-95.473
11
66.267
21
-95.2675
0
LINE
8
BLACK
6
CONTINUOUS
10
66.267
20
-95.2675
11
66.4664
21
-95.0896
0
LINE
8
BLACK
6
CONTINUOUS
10
66.4664
20
-95.0896
11
66.6899
21
-94.9431
0
LINE
8
BLACK
6
CONTINUOUS
10
66.6899
20
-94.9431
11
66.9326
21
-94.8312
0
LINE
8
BLACK
6
CONTINUOUS
10
66.9326
20
-94.8312
11
67.1891
21
-94.7564
0
LINE
8
BLACK
6
CONTINUOUS
10
67.1891
20
-94.7564
11
67.4539
21
-94.7204
0
LINE
8
BLACK
6
CONTINUOUS
10
67.4539
20
-94.7204
11
67.7211
21
-94.7239
0
LINE
8
BLACK
6
CONTINUOUS
10
67.7211
20
-94.7239
11
67.9849
21
-94.7668
0
LINE
8
BLACK
6
CONTINUOUS
10
67.9849
20
-94.7668
11
68.2394
21
-94.8483
0
LINE
8
BLACK
6
CONTINUOUS
10
68.2394
20
-94.8483
11
68.4791
21
-94.9665
0
LINE
8
BLACK
6
CONTINUOUS
10
68.4791
20
-94.9665
11
68.6987
21
-95.1188
0
LINE
8
BLACK
6
CONTINUOUS
10
68.6987
20
-95.1188
11
68.8933
21
-95.3019
0
LINE
8
BLACK
6
CONTINUOUS
10
68.8933
20
-95.3019
11
69.0588
21
-95.5118
0
LINE
8
BLACK
6
CONTINUOUS
10
69.0588
20
-95.5118
11
69.1914
21
-95.7438
0
LINE
8
BLACK
6
CONTINUOUS
10
69.1914
20
-95.7438
11
69.2882
21
-95.9929
0
LINE
8
BLACK
6
CONTINUOUS
10
69.2882
20
-95.9929
11
69.3472
21
-96.2535
0
LINE
8
BLACK
6
CONTINUOUS
10
69.3472
20
-96.2535
11
69.367
21
-96.52
0
LINE
8
BLACK
6
CONTINUOUS
10
69.367
20
-96.52
11
69.3645
21
-96.6144
0
LINE
8
BLACK
6
CONTINUOUS
10
69.3645
20
-96.6144
11
69.3308
21
-96.8795
0
LINE
8
BLACK
6
CONTINUOUS
10
69.3308
20
-96.8795
11
69.2583
21
-97.1367
0
LINE
8
BLACK
6
CONTINUOUS
10
69.2583
20
-97.1367
11
69.1485
21
-97.3803
0
LINE
8
BLACK
6
CONTINUOUS
10
69.1485
20
-97.3803
11
69.0039
21
-97.6051
0
LINE
8
BLACK
6
CONTINUOUS
10
69.0039
20
-97.6051
11
68.8277
21
-97.806
0
LINE
8
BLACK
6
CONTINUOUS
10
68.8277
20
-97.806
11
68.6238
21
-97.9787
0
LINE
8
BLACK
6
CONTINUOUS
10
68.6238
20
-97.9787
11
68.3965
21
-98.1193
0
LINE
8
BLACK
6
CONTINUOUS
10
68.3965
20
-98.1193
11
68.151
21
-98.2248
0
LINE
8
BLACK
6
CONTINUOUS
10
68.151
20
-98.2248
11
67.8926
21
-98.2928
0
LINE
8
BLACK
6
CONTINUOUS
10
67.8926
20
-98.2928
11
67.6269
21
-98.3219
0
LINE
8
BLACK
6
CONTINUOUS
10
67.6269
20
-98.3219
11
67.3599
21
-98.3114
0
LINE
8
BLACK
6
CONTINUOUS
10
67.3599
20
-98.3114
11
67.0973
21
-98.2616
0
LINE
8
BLACK
6
CONTINUOUS
10
67.0973
20
-98.2616
11
66.8451
21
-98.1735
0
LINE
8
BLACK
6
CONTINUOUS
10
66.8451
20
-98.1735
11
66.6086
21
-98.049
0
LINE
8
BLACK
6
CONTINUOUS
10
66.6086
20
-98.049
11
66.393
21
-97.891
0
LINE
8
BLACK
6
CONTINUOUS
10
66.393
20
-97.891
11
66.2033
21
-97.7029
0
LINE
8
BLACK
6
CONTINUOUS
10
66.2033
20
-97.7029
11
66.0434
21
-97.4888
0
LINE
8
BLACK
6
CONTINUOUS
10
66.0434
20
-97.4888
11
65.9169
21
-97.2533
0
LINE
8
BLACK
6
CONTINUOUS
10
65.9169
20
-97.2533
11
65.8266
21
-97.0018
0
LINE
8
BLACK
6
CONTINUOUS
10
65.8266
20
-97.0018
11
65.7744
21
-96.7397
0
LINE
8
BLACK
6
CONTINUOUS
10
65.7744
20
-96.7397
11
65.7617
21
-96.474
0
LINE
8
BLACK
6
CONTINUOUS
10
65.7617
20
-96.474
11
65.7616
21
-96.4728
0
LINE
8
BLACK
6
CONTINUOUS
10
65.7616
20
-96.4728
11
65.7884
21
-96.2069
0
LINE
8
BLACK
6
CONTINUOUS
10
65.87
20
-96.9898
11
65.9581
21
-97.235
0
LINE
8
BLACK
6
CONTINUOUS
10
65.9581
20
-97.235
11
66.0814
21
-97.4645
0
LINE
8
BLACK
6
CONTINUOUS
10
66.0814
20
-97.4645
11
66.2373
21
-97.6733
0
LINE
8
BLACK
6
CONTINUOUS
10
66.2373
20
-97.6733
11
66.4223
21
-97.8567
0
LINE
8
BLACK
6
CONTINUOUS
10
66.4223
20
-97.8567
11
66.6324
21
-98.0108
0
LINE
8
BLACK
6
CONTINUOUS
10
66.6324
20
-98.0108
11
66.863
21
-98.1321
0
LINE
8
BLACK
6
CONTINUOUS
10
66.863
20
-98.1321
11
67.109
21
-98.218
0
LINE
8
BLACK
6
CONTINUOUS
10
67.109
20
-98.218
11
67.365
21
-98.2666
0
LINE
8
BLACK
6
CONTINUOUS
10
67.365
20
-98.2666
11
67.6253
21
-98.2768
0
LINE
8
BLACK
6
CONTINUOUS
10
67.6253
20
-98.2768
11
67.8844
21
-98.2485
0
LINE
8
BLACK
6
CONTINUOUS
10
67.8844
20
-98.2485
11
68.1363
21
-98.1821
0
LINE
8
BLACK
6
CONTINUOUS
10
68.1363
20
-98.1821
11
68.3757
21
-98.0793
0
LINE
8
BLACK
6
CONTINUOUS
10
68.3757
20
-98.0793
11
68.5973
21
-97.9422
0
LINE
8
BLACK
6
CONTINUOUS
10
68.5973
20
-97.9422
11
68.7961
21
-97.7738
0
LINE
8
BLACK
6
CONTINUOUS
10
68.7961
20
-97.7738
11
68.9679
21
-97.5779
0
LINE
8
BLACK
6
CONTINUOUS
10
68.9679
20
-97.5779
11
69.1089
21
-97.3588
0
LINE
8
BLACK
6
CONTINUOUS
10
69.1089
20
-97.3588
11
69.2159
21
-97.1212
0
LINE
8
BLACK
6
CONTINUOUS
10
69.2159
20
-97.1212
11
69.2866
21
-96.8705
0
LINE
8
BLACK
6
CONTINUOUS
10
69.2866
20
-96.8705
11
69.3195
21
-96.612
0
LINE
8
BLACK
6
CONTINUOUS
10
69.3195
20
-96.612
11
69.3219
21
-96.52
0
LINE
8
BLACK
6
CONTINUOUS
10
69.3219
20
-96.52
11
69.3026
21
-96.2602
0
LINE
8
BLACK
6
CONTINUOUS
10
69.3026
20
-96.2602
11
69.2451
21
-96.006
0
LINE
8
BLACK
6
CONTINUOUS
10
69.2451
20
-96.006
11
69.1507
21
-95.7632
0
LINE
8
BLACK
6
CONTINUOUS
10
69.1507
20
-95.7632
11
69.0214
21
-95.537
0
LINE
8
BLACK
6
CONTINUOUS
10
69.0214
20
-95.537
11
68.8601
21
-95.3324
0
LINE
8
BLACK
6
CONTINUOUS
10
68.8601
20
-95.3324
11
68.6703
21
-95.1538
0
LINE
8
BLACK
6
CONTINUOUS
10
68.6703
20
-95.1538
11
68.4562
21
-95.0053
0
LINE
8
BLACK
6
CONTINUOUS
10
68.4562
20
-95.0053
11
68.2225
21
-94.8901
0
LINE
8
BLACK
6
CONTINUOUS
10
68.2225
20
-94.8901
11
67.9744
21
-94.8107
0
LINE
8
BLACK
6
CONTINUOUS
10
67.9744
20
-94.8107
11
67.7172
21
-94.7688
0
LINE
8
BLACK
6
CONTINUOUS
10
67.7172
20
-94.7688
11
67.4567
21
-94.7654
0
LINE
8
BLACK
6
CONTINUOUS
10
67.4567
20
-94.7654
11
67.1985
21
-94.8005
0
LINE
8
BLACK
6
CONTINUOUS
10
67.1985
20
-94.8005
11
66.9484
21
-94.8734
0
LINE
8
BLACK
6
CONTINUOUS
10
66.9484
20
-94.8734
11
66.7117
21
-94.9825
0
LINE
8
BLACK
6
CONTINUOUS
10
66.7117
20
-94.9825
11
66.4938
21
-95.1254
0
LINE
8
BLACK
6
CONTINUOUS
10
66.4938
20
-95.1254
11
66.2995
21
-95.2989
0
LINE
8
BLACK
6
CONTINUOUS
10
66.2995
20
-95.2989
11
66.1329
21
-95.4992
0
LINE
8
BLACK
6
CONTINUOUS
10
66.1329
20
-95.4992
11
65.9977
21
-95.7219
0
LINE
8
BLACK
6
CONTINUOUS
10
65.9977
20
-95.7219
11
65.8969
21
-95.9622
0
LINE
8
BLACK
6
CONTINUOUS
10
65.8969
20
-95.9622
11
65.8328
21
-96.2147
0
LINE
8
BLACK
6
CONTINUOUS
10
65.8328
20
-96.2147
11
65.8067
21
-96.474
0
LINE
8
BLACK
6
CONTINUOUS
10
65.8067
20
-96.474
11
65.8192
21
-96.7342
0
LINE
8
BLACK
6
CONTINUOUS
10
65.8192
20
-96.7342
11
65.87
21
-96.9898
0
LINE
8
BLACK
6
CONTINUOUS
10
105.92
20
-96.2069
11
105.986
21
-95.9479
0
LINE
8
BLACK
6
CONTINUOUS
10
105.986
20
-95.9479
11
106.09
21
-95.7015
0
LINE
8
BLACK
6
CONTINUOUS
10
106.09
20
-95.7015
11
106.228
21
-95.473
0
LINE
8
BLACK
6
CONTINUOUS
10
106.228
20
-95.473
11
106.399
21
-95.2675
0
LINE
8
BLACK
6
CONTINUOUS
10
106.399
20
-95.2675
11
106.598
21
-95.0896
0
LINE
8
BLACK
6
CONTINUOUS
10
106.598
20
-95.0896
11
106.822
21
-94.9431
0
LINE
8
BLACK
6
CONTINUOUS
10
106.822
20
-94.9431
11
107.065
21
-94.8312
0
LINE
8
BLACK
6
CONTINUOUS
10
107.065
20
-94.8312
11
107.321
21
-94.7564
0
LINE
8
BLACK
6
CONTINUOUS
10
107.321
20
-94.7564
11
107.586
21
-94.7204
0
LINE
8
BLACK
6
CONTINUOUS
10
107.586
20
-94.7204
11
107.853
21
-94.7239
0
LINE
8
BLACK
6
CONTINUOUS
10
107.853
20
-94.7239
11
108.117
21
-94.7668
0
LINE
8
BLACK
6
CONTINUOUS
10
108.117
20
-94.7668
11
108.371
21
-94.8483
0
LINE
8
BLACK
6
CONTINUOUS
10
108.371
20
-94.8483
11
108.611
21
-94.9665
0
LINE
8
BLACK
6
CONTINUOUS
10
108.611
20
-94.9665
11
108.831
21
-95.1188
0
LINE
8
BLACK
6
CONTINUOUS
10
108.831
20
-95.1188
11
109.025
21
-95.3019
0
LINE
8
BLACK
6
CONTINUOUS
10
109.025
20
-95.3019
11
109.191
21
-95.5118
0
LINE
8
BLACK
6
CONTINUOUS
10
109.191
20
-95.5118
11
109.323
21
-95.7438
0
LINE
8
BLACK
6
CONTINUOUS
10
109.323
20
-95.7438
11
109.42
21
-95.9929
0
LINE
8
BLACK
6
CONTINUOUS
10
109.42
20
-95.9929
11
109.479
21
-96.2535
0
LINE
8
BLACK
6
CONTINUOUS
10
109.479
20
-96.2535
11
109.499
21
-96.52
0
LINE
8
BLACK
6
CONTINUOUS
10
109.499
20
-96.52
11
109.497
21
-96.6144
0
LINE
8
BLACK
6
CONTINUOUS
10
109.497
20
-96.6144
11
109.463
21
-96.8795
0
LINE
8
BLACK
6
CONTINUOUS
10
109.463
20
-96.8795
11
109.39
21
-97.1367
0
LINE
8
BLACK
6
CONTINUOUS
10
109.39
20
-97.1367
11
109.281
21
-97.3803
0
LINE
8
BLACK
6
CONTINUOUS
10
109.281
20
-97.3803
11
109.136
21
-97.6051
0
LINE
8
BLACK
6
CONTINUOUS
10
109.136
20
-97.6051
11
108.96
21
-97.806
0
LINE
8
BLACK
6
CONTINUOUS
10
108.96
20
-97.806
11
108.756
21
-97.9787
0
LINE
8
BLACK
6
CONTINUOUS
10
108.756
20
-97.9787
11
108.529
21
-98.1193
0
LINE
8
BLACK
6
CONTINUOUS
10
108.529
20
-98.1193
11
108.283
21
-98.2248
0
LINE
8
BLACK
6
CONTINUOUS
10
108.283
20
-98.2248
11
108.025
21
-98.2928
0
LINE
8
BLACK
6
CONTINUOUS
10
108.025
20
-98.2928
11
107.759
21
-98.3219
0
LINE
8
BLACK
6
CONTINUOUS
10
107.759
20
-98.3219
11
107.492
21
-98.3114
0
LINE
8
BLACK
6
CONTINUOUS
10
107.492
20
-98.3114
11
107.229
21
-98.2616
0
LINE
8
BLACK
6
CONTINUOUS
10
107.229
20
-98.2616
11
106.977
21
-98.1735
0
LINE
8
BLACK
6
CONTINUOUS
10
106.977
20
-98.1735
11
106.741
21
-98.049
0
LINE
8
BLACK
6
CONTINUOUS
10
106.741
20
-98.049
11
106.525
21
-97.891
0
LINE
8
BLACK
6
CONTINUOUS
10
106.525
20
-97.891
11
106.335
21
-97.7029
0
LINE
8
BLACK
6
CONTINUOUS
10
106.335
20
-97.7029
11
106.175
21
-97.4888
0
LINE
8
BLACK
6
CONTINUOUS
10
106.175
20
-97.4888
11
106.049
21
-97.2533
0
LINE
8
BLACK
6
CONTINUOUS
10
106.049
20
-97.2533
11
105.959
21
-97.0018
0
LINE
8
BLACK
6
CONTINUOUS
10
105.959
20
-97.0018
11
105.906
21
-96.7397
0
LINE
8
BLACK
6
CONTINUOUS
10
105.906
20
-96.7397
11
105.894
21
-96.474
0
LINE
8
BLACK
6
CONTINUOUS
10
105.894
20
-96.474
11
105.894
21
-96.4728
0
LINE
8
BLACK
6
CONTINUOUS
10
105.894
20
-96.4728
11
105.92
21
-96.2069
0
LINE
8
BLACK
6
CONTINUOUS
10
106.002
20
-96.9898
11
106.09
21
-97.235
0
LINE
8
BLACK
6
CONTINUOUS
10
106.09
20
-97.235
11
106.213
21
-97.4645
0
LINE
8
BLACK
6
CONTINUOUS
10
106.213
20
-97.4645
11
106.369
21
-97.6733
0
LINE
8
BLACK
6
CONTINUOUS
10
106.369
20
-97.6733
11
106.554
21
-97.8567
0
LINE
8
BLACK
6
CONTINUOUS
10
106.554
20
-97.8567
11
106.764
21
-98.0108
0
LINE
8
BLACK
6
CONTINUOUS
10
106.764
20
-98.0108
11
106.995
21
-98.1321
0
LINE
8
BLACK
6
CONTINUOUS
10
106.995
20
-98.1321
11
107.241
21
-98.218
0
LINE
8
BLACK
6
CONTINUOUS
10
107.241
20
-98.218
11
107.497
21
-98.2666
0
LINE
8
BLACK
6
CONTINUOUS
10
107.497
20
-98.2666
11
107.757
21
-98.2768
0
LINE
8
BLACK
6
CONTINUOUS
10
107.757
20
-98.2768
11
108.016
21
-98.2485
0
LINE
8
BLACK
6
CONTINUOUS
10
108.016
20
-98.2485
11
108.268
21
-98.1821
0
LINE
8
BLACK
6
CONTINUOUS
10
108.268
20
-98.1821
11
108.508
21
-98.0793
0
LINE
8
BLACK
6
CONTINUOUS
10
108.508
20
-98.0793
11
108.729
21
-97.9422
0
LINE
8
BLACK
6
CONTINUOUS
10
108.729
20
-97.9422
11
108.928
21
-97.7738
0
LINE
8
BLACK
6
CONTINUOUS
10
108.928
20
-97.7738
11
109.1
21
-97.5779
0
LINE
8
BLACK
6
CONTINUOUS
10
109.1
20
-97.5779
11
109.241
21
-97.3588
0
LINE
8
BLACK
6
CONTINUOUS
10
109.241
20
-97.3588
11
109.348
21
-97.1212
0
LINE
8
BLACK
6
CONTINUOUS
10
109.348
20
-97.1212
11
109.419
21
-96.8705
0
LINE
8
BLACK
6
CONTINUOUS
10
109.419
20
-96.8705
11
109.452
21
-96.612
0
LINE
8
BLACK
6
CONTINUOUS
10
109.452
20
-96.612
11
109.454
21
-96.52
0
LINE
8
BLACK
6
CONTINUOUS
10
109.454
20
-96.52
11
109.435
21
-96.2602
0
LINE
8
BLACK
6
CONTINUOUS
10
109.435
20
-96.2602
11
109.377
21
-96.006
0
LINE
8
BLACK
6
CONTINUOUS
10
109.377
20
-96.006
11
109.283
21
-95.7632
0
LINE
8
BLACK
6
CONTINUOUS
10
109.283
20
-95.7632
11
109.153
21
-95.537
0
LINE
8
BLACK
6
CONTINUOUS
10
109.153
20
-95.537
11
108.992
21
-95.3324
0
LINE
8
BLACK
6
CONTINUOUS
10
108.992
20
-95.3324
11
108.802
21
-95.1538
0
LINE
8
BLACK
6
CONTINUOUS
10
108.802
20
-95.1538
11
108.588
21
-95.0053
0
LINE
8
BLACK
6
CONTINUOUS
10
108.588
20
-95.0053
11
108.355
21
-94.8901
0
LINE
8
BLACK
6
CONTINUOUS
10
108.355
20
-94.8901
11
108.106
21
-94.8107
0
LINE
8
BLACK
6
CONTINUOUS
10
108.106
20
-94.8107
11
107.849
21
-94.7688
0
LINE
8
BLACK
6
CONTINUOUS
10
107.849
20
-94.7688
11
107.589
21
-94.7654
0
LINE
8
BLACK
6
CONTINUOUS
10
107.589
20
-94.7654
11
107.331
21
-94.8005
0
LINE
8
BLACK
6
CONTINUOUS
10
107.331
20
-94.8005
11
107.08
21
-94.8734
0
LINE
8
BLACK
6
CONTINUOUS
10
107.08
20
-94.8734
11
106.844
21
-94.9825
0
LINE
8
BLACK
6
CONTINUOUS
10
106.844
20
-94.9825
11
106.626
21
-95.1254
0
LINE
8
BLACK
6
CONTINUOUS
10
106.626
20
-95.1254
11
106.431
21
-95.2989
0
LINE
8
BLACK
6
CONTINUOUS
10
106.431
20
-95.2989
11
106.265
21
-95.4992
0
LINE
8
BLACK
6
CONTINUOUS
10
106.265
20
-95.4992
11
106.13
21
-95.7219
0
LINE
8
BLACK
6
CONTINUOUS
10
106.13
20
-95.7219
11
106.029
21
-95.9622
0
LINE
8
BLACK
6
CONTINUOUS
10
106.029
20
-95.9622
11
105.965
21
-96.2147
0
LINE
8
BLACK
6
CONTINUOUS
10
105.965
20
-96.2147
11
105.939
21
-96.474
0
LINE
8
BLACK
6
CONTINUOUS
10
105.939
20
-96.474
11
105.951
21
-96.7342
0
LINE
8
BLACK
6
CONTINUOUS
10
105.951
20
-96.7342
11
106.002
21
-96.9898
0
LINE
8
BLACK
6
CONTINUOUS
10
222.365
20
-95.6446
11
222.46
21
-95.2152
0
LINE
8
BLACK
6
CONTINUOUS
10
222.46
20
-95.2152
11
222.593
21
-94.7957
0
LINE
8
BLACK
6
CONTINUOUS
10
222.593
20
-94.7957
11
222.761
21
-94.3894
0
LINE
8
BLACK
6
CONTINUOUS
10
222.761
20
-94.3894
11
222.964
21
-93.9992
0
LINE
8
BLACK
6
CONTINUOUS
10
222.964
20
-93.9992
11
223.2
21
-93.6283
0
LINE
8
BLACK
6
CONTINUOUS
10
223.2
20
-93.6283
11
223.468
21
-93.2794
0
LINE
8
BLACK
6
CONTINUOUS
10
223.468
20
-93.2794
11
223.765
21
-92.9551
0
LINE
8
BLACK
6
CONTINUOUS
10
223.765
20
-92.9551
11
224.089
21
-92.658
0
LINE
8
BLACK
6
CONTINUOUS
10
224.089
20
-92.658
11
224.438
21
-92.3902
0
LINE
8
BLACK
6
CONTINUOUS
10
224.438
20
-92.3902
11
224.809
21
-92.1539
0
LINE
8
BLACK
6
CONTINUOUS
10
224.809
20
-92.1539
11
225.199
21
-91.9508
0
LINE
8
BLACK
6
CONTINUOUS
10
225.199
20
-91.9508
11
225.606
21
-91.7825
0
LINE
8
BLACK
6
CONTINUOUS
10
225.606
20
-91.7825
11
226.025
21
-91.6503
0
LINE
8
BLACK
6
CONTINUOUS
10
226.025
20
-91.6503
11
226.455
21
-91.5551
0
LINE
8
BLACK
6
CONTINUOUS
10
226.455
20
-91.5551
11
226.891
21
-91.4977
0
LINE
8
BLACK
6
CONTINUOUS
10
226.891
20
-91.4977
11
227.33
21
-91.4785
0
LINE
8
BLACK
6
CONTINUOUS
10
227.33
20
-91.4785
11
227.769
21
-91.4977
0
LINE
8
BLACK
6
CONTINUOUS
10
227.769
20
-91.4977
11
228.205
21
-91.5551
0
LINE
8
BLACK
6
CONTINUOUS
10
228.205
20
-91.5551
11
228.635
21
-91.6503
0
LINE
8
BLACK
6
CONTINUOUS
10
228.635
20
-91.6503
11
229.054
21
-91.7825
0
LINE
8
BLACK
6
CONTINUOUS
10
229.054
20
-91.7825
11
229.461
21
-91.9508
0
LINE
8
BLACK
6
CONTINUOUS
10
229.461
20
-91.9508
11
229.851
21
-92.1539
0
LINE
8
BLACK
6
CONTINUOUS
10
229.851
20
-92.1539
11
230.222
21
-92.3902
0
LINE
8
BLACK
6
CONTINUOUS
10
230.222
20
-92.3902
11
230.571
21
-92.658
0
LINE
8
BLACK
6
CONTINUOUS
10
230.571
20
-92.658
11
230.895
21
-92.9551
0
LINE
8
BLACK
6
CONTINUOUS
10
230.895
20
-92.9551
11
231.192
21
-93.2794
0
LINE
8
BLACK
6
CONTINUOUS
10
231.192
20
-93.2794
11
231.46
21
-93.6283
0
LINE
8
BLACK
6
CONTINUOUS
10
231.46
20
-93.6283
11
231.696
21
-93.9992
0
LINE
8
BLACK
6
CONTINUOUS
10
231.696
20
-93.9992
11
231.899
21
-94.3894
0
LINE
8
BLACK
6
CONTINUOUS
10
231.899
20
-94.3894
11
232.067
21
-94.7957
0
LINE
8
BLACK
6
CONTINUOUS
10
232.067
20
-94.7957
11
232.2
21
-95.2152
0
LINE
8
BLACK
6
CONTINUOUS
10
232.2
20
-95.2152
11
232.295
21
-95.6446
0
LINE
8
BLACK
6
CONTINUOUS
10
232.295
20
-95.6446
11
232.352
21
-96.0806
0
LINE
8
BLACK
6
CONTINUOUS
10
232.352
20
-96.0806
11
232.371
21
-96.52
0
LINE
8
BLACK
6
CONTINUOUS
10
232.371
20
-96.52
11
232.352
21
-96.9594
0
LINE
8
BLACK
6
CONTINUOUS
10
232.352
20
-96.9594
11
232.295
21
-97.3954
0
LINE
8
BLACK
6
CONTINUOUS
10
232.295
20
-97.3954
11
232.2
21
-97.8248
0
LINE
8
BLACK
6
CONTINUOUS
10
232.2
20
-97.8248
11
232.067
21
-98.2443
0
LINE
8
BLACK
6
CONTINUOUS
10
232.067
20
-98.2443
11
231.899
21
-98.6506
0
LINE
8
BLACK
6
CONTINUOUS
10
231.899
20
-98.6506
11
231.696
21
-99.0407
0
LINE
8
BLACK
6
CONTINUOUS
10
231.696
20
-99.0407
11
231.46
21
-99.4117
0
LINE
8
BLACK
6
CONTINUOUS
10
231.46
20
-99.4117
11
231.192
21
-99.7606
0
LINE
8
BLACK
6
CONTINUOUS
10
231.192
20
-99.7606
11
230.895
21
-100.085
0
LINE
8
BLACK
6
CONTINUOUS
10
230.895
20
-100.085
11
230.571
21
-100.382
0
LINE
8
BLACK
6
CONTINUOUS
10
230.571
20
-100.382
11
230.222
21
-100.65
0
LINE
8
BLACK
6
CONTINUOUS
10
230.222
20
-100.65
11
229.851
21
-100.886
0
LINE
8
BLACK
6
CONTINUOUS
10
229.851
20
-100.886
11
229.461
21
-101.089
0
LINE
8
BLACK
6
CONTINUOUS
10
229.461
20
-101.089
11
229.054
21
-101.257
0
LINE
8
BLACK
6
CONTINUOUS
10
229.054
20
-101.257
11
228.635
21
-101.39
0
LINE
8
BLACK
6
CONTINUOUS
10
228.635
20
-101.39
11
228.205
21
-101.485
0
LINE
8
BLACK
6
CONTINUOUS
10
228.205
20
-101.485
11
227.769
21
-101.542
0
LINE
8
BLACK
6
CONTINUOUS
10
227.769
20
-101.542
11
227.33
21
-101.561
0
LINE
8
BLACK
6
CONTINUOUS
10
227.33
20
-101.561
11
226.891
21
-101.542
0
LINE
8
BLACK
6
CONTINUOUS
10
226.891
20
-101.542
11
226.455
21
-101.485
0
LINE
8
BLACK
6
CONTINUOUS
10
226.455
20
-101.485
11
226.025
21
-101.39
0
LINE
8
BLACK
6
CONTINUOUS
10
226.025
20
-101.39
11
225.606
21
-101.257
0
LINE
8
BLACK
6
CONTINUOUS
10
225.606
20
-101.257
11
225.199
21
-101.089
0
LINE
8
BLACK
6
CONTINUOUS
10
225.199
20
-101.089
11
224.809
21
-100.886
0
LINE
8
BLACK
6
CONTINUOUS
10
224.809
20
-100.886
11
224.438
21
-100.65
0
LINE
8
BLACK
6
CONTINUOUS
10
224.438
20
-100.65
11
224.089
21
-100.382
0
LINE
8
BLACK
6
CONTINUOUS
10
224.089
20
-100.382
11
223.765
21
-100.085
0
LINE
8
BLACK
6
CONTINUOUS
10
223.765
20
-100.085
11
223.468
21
-99.7606
0
LINE
8
BLACK
6
CONTINUOUS
10
223.468
20
-99.7606
11
223.2
21
-99.4117
0
LINE
8
BLACK
6
CONTINUOUS
10
223.2
20
-99.4117
11
222.964
21
-99.0407
0
LINE
8
BLACK
6
CONTINUOUS
10
222.964
20
-99.0407
11
222.761
21
-98.6506
0
LINE
8
BLACK
6
CONTINUOUS
10
222.761
20
-98.6506
11
222.593
21
-98.2443
0
LINE
8
BLACK
6
CONTINUOUS
10
222.593
20
-98.2443
11
222.46
21
-97.8248
0
LINE
8
BLACK
6
CONTINUOUS
10
222.46
20
-97.8248
11
222.365
21
-97.3954
0
LINE
8
BLACK
6
CONTINUOUS
10
222.365
20
-97.3954
11
222.308
21
-96.9594
0
LINE
8
BLACK
6
CONTINUOUS
10
222.308
20
-96.9594
11
222.288
21
-96.52
0
LINE
8
BLACK
6
CONTINUOUS
10
222.288
20
-96.52
11
222.294
21
-96.3892
0
LINE
8
BLACK
6
CONTINUOUS
10
222.294
20
-96.3892
11
222.308
21
-96.0806
0
LINE
8
BLACK
6
CONTINUOUS
10
222.308
20
-96.0806
11
222.365
21
-95.6446
0
LINE
8
BLACK
6
CONTINUOUS
10
222.391
20
-97.2758
11
222.478
21
-97.7118
0
LINE
8
BLACK
6
CONTINUOUS
10
222.478
20
-97.7118
11
222.603
21
-98.1385
0
LINE
8
BLACK
6
CONTINUOUS
10
222.603
20
-98.1385
11
222.765
21
-98.5523
0
LINE
8
BLACK
6
CONTINUOUS
10
222.765
20
-98.5523
11
222.964
21
-98.95
0
LINE
8
BLACK
6
CONTINUOUS
10
222.964
20
-98.95
11
223.197
21
-99.3285
0
LINE
8
BLACK
6
CONTINUOUS
10
223.197
20
-99.3285
11
223.463
21
-99.6847
0
LINE
8
BLACK
6
CONTINUOUS
10
223.463
20
-99.6847
11
223.76
21
-100.016
0
LINE
8
BLACK
6
CONTINUOUS
10
223.76
20
-100.016
11
224.085
21
-100.319
0
LINE
8
BLACK
6
CONTINUOUS
10
224.085
20
-100.319
11
224.436
21
-100.593
0
LINE
8
BLACK
6
CONTINUOUS
10
224.436
20
-100.593
11
224.809
21
-100.834
0
LINE
8
BLACK
6
CONTINUOUS
10
224.809
20
-100.834
11
225.203
21
-101.041
0
LINE
8
BLACK
6
CONTINUOUS
10
225.203
20
-101.041
11
225.613
21
-101.212
0
LINE
8
BLACK
6
CONTINUOUS
10
225.613
20
-101.212
11
226.037
21
-101.346
0
LINE
8
BLACK
6
CONTINUOUS
10
226.037
20
-101.346
11
226.471
21
-101.442
0
LINE
8
BLACK
6
CONTINUOUS
10
226.471
20
-101.442
11
226.912
21
-101.499
0
LINE
8
BLACK
6
CONTINUOUS
10
226.912
20
-101.499
11
227.356
21
-101.516
0
LINE
8
BLACK
6
CONTINUOUS
10
227.356
20
-101.516
11
227.8
21
-101.494
0
LINE
8
BLACK
6
CONTINUOUS
10
227.8
20
-101.494
11
228.241
21
-101.433
0
LINE
8
BLACK
6
CONTINUOUS
10
228.241
20
-101.433
11
228.674
21
-101.332
0
LINE
8
BLACK
6
CONTINUOUS
10
228.674
20
-101.332
11
229.096
21
-101.194
0
LINE
8
BLACK
6
CONTINUOUS
10
229.096
20
-101.194
11
229.505
21
-101.018
0
LINE
8
BLACK
6
CONTINUOUS
10
229.505
20
-101.018
11
229.896
21
-100.807
0
LINE
8
BLACK
6
CONTINUOUS
10
229.896
20
-100.807
11
230.267
21
-100.562
0
LINE
8
BLACK
6
CONTINUOUS
10
230.267
20
-100.562
11
230.615
21
-100.285
0
LINE
8
BLACK
6
CONTINUOUS
10
230.615
20
-100.285
11
230.936
21
-99.9783
0
LINE
8
BLACK
6
CONTINUOUS
10
230.936
20
-99.9783
11
231.229
21
-99.644
0
LINE
8
BLACK
6
CONTINUOUS
10
231.229
20
-99.644
11
231.492
21
-99.285
0
LINE
8
BLACK
6
CONTINUOUS
10
231.492
20
-99.285
11
231.721
21
-98.9041
0
LINE
8
BLACK
6
CONTINUOUS
10
231.721
20
-98.9041
11
231.916
21
-98.5044
0
LINE
8
BLACK
6
CONTINUOUS
10
231.916
20
-98.5044
11
232.074
21
-98.0889
0
LINE
8
BLACK
6
CONTINUOUS
10
232.074
20
-98.0889
11
232.195
21
-97.661
0
LINE
8
BLACK
6
CONTINUOUS
10
232.195
20
-97.661
11
232.277
21
-97.224
0
LINE
8
BLACK
6
CONTINUOUS
10
232.277
20
-97.224
11
232.32
21
-96.7815
0
LINE
8
BLACK
6
CONTINUOUS
10
232.32
20
-96.7815
11
232.327
21
-96.52
0
LINE
8
BLACK
6
CONTINUOUS
10
232.327
20
-96.52
11
232.307
21
-96.0758
0
LINE
8
BLACK
6
CONTINUOUS
10
232.307
20
-96.0758
11
232.248
21
-95.6352
0
LINE
8
BLACK
6
CONTINUOUS
10
232.248
20
-95.6352
11
232.149
21
-95.2015
0
LINE
8
BLACK
6
CONTINUOUS
10
232.149
20
-95.2015
11
232.013
21
-94.7783
0
LINE
8
BLACK
6
CONTINUOUS
10
232.013
20
-94.7783
11
231.84
21
-94.3689
0
LINE
8
BLACK
6
CONTINUOUS
10
231.84
20
-94.3689
11
231.631
21
-93.9766
0
LINE
8
BLACK
6
CONTINUOUS
10
231.631
20
-93.9766
11
231.388
21
-93.6043
0
LINE
8
BLACK
6
CONTINUOUS
10
231.388
20
-93.6043
11
231.112
21
-93.2552
0
LINE
8
BLACK
6
CONTINUOUS
10
231.112
20
-93.2552
11
230.807
21
-92.9319
0
LINE
8
BLACK
6
CONTINUOUS
10
230.807
20
-92.9319
11
230.474
21
-92.637
0
LINE
8
BLACK
6
CONTINUOUS
10
230.474
20
-92.637
11
230.117
21
-92.3728
0
LINE
8
BLACK
6
CONTINUOUS
10
230.117
20
-92.3728
11
229.737
21
-92.1415
0
LINE
8
BLACK
6
CONTINUOUS
10
229.737
20
-92.1415
11
229.338
21
-91.9449
0
LINE
8
BLACK
6
CONTINUOUS
10
229.338
20
-91.9449
11
228.924
21
-91.7844
0
LINE
8
BLACK
6
CONTINUOUS
10
228.924
20
-91.7844
11
228.496
21
-91.6615
0
LINE
8
BLACK
6
CONTINUOUS
10
228.496
20
-91.6615
11
228.06
21
-91.5771
0
LINE
8
BLACK
6
CONTINUOUS
10
228.06
20
-91.5771
11
227.618
21
-91.5318
0
LINE
8
BLACK
6
CONTINUOUS
10
227.618
20
-91.5318
11
227.173
21
-91.5259
0
LINE
8
BLACK
6
CONTINUOUS
10
227.173
20
-91.5259
11
226.73
21
-91.5597
0
LINE
8
BLACK
6
CONTINUOUS
10
226.73
20
-91.5597
11
226.291
21
-91.6327
0
LINE
8
BLACK
6
CONTINUOUS
10
226.291
20
-91.6327
11
225.861
21
-91.7444
0
LINE
8
BLACK
6
CONTINUOUS
10
225.861
20
-91.7444
11
225.442
21
-91.8939
0
LINE
8
BLACK
6
CONTINUOUS
10
225.442
20
-91.8939
11
225.038
21
-92.08
0
LINE
8
BLACK
6
CONTINUOUS
10
225.038
20
-92.08
11
224.653
21
-92.3013
0
LINE
8
BLACK
6
CONTINUOUS
10
224.653
20
-92.3013
11
224.288
21
-92.556
0
LINE
8
BLACK
6
CONTINUOUS
10
224.288
20
-92.556
11
223.948
21
-92.8421
0
LINE
8
BLACK
6
CONTINUOUS
10
223.948
20
-92.8421
11
223.634
21
-93.1573
0
LINE
8
BLACK
6
CONTINUOUS
10
223.634
20
-93.1573
11
223.35
21
-93.4991
0
LINE
8
BLACK
6
CONTINUOUS
10
223.35
20
-93.4991
11
223.097
21
-93.8649
0
LINE
8
BLACK
6
CONTINUOUS
10
223.097
20
-93.8649
11
222.878
21
-94.2516
0
LINE
8
BLACK
6
CONTINUOUS
10
222.878
20
-94.2516
11
222.694
21
-94.6564
0
LINE
8
BLACK
6
CONTINUOUS
10
222.694
20
-94.6564
11
222.547
21
-95.0758
0
LINE
8
BLACK
6
CONTINUOUS
10
222.547
20
-95.0758
11
222.437
21
-95.5068
0
LINE
8
BLACK
6
CONTINUOUS
10
222.437
20
-95.5068
11
222.367
21
-95.9457
0
LINE
8
BLACK
6
CONTINUOUS
10
222.367
20
-95.9457
11
222.335
21
-96.3892
0
LINE
8
BLACK
6
CONTINUOUS
10
222.335
20
-96.3892
11
222.343
21
-96.8337
0
LINE
8
BLACK
6
CONTINUOUS
10
222.343
20
-96.8337
11
222.391
21
-97.2758
  0
ENDSEC
  0
EOF
