  0
SECTION
  2
HEADER
  9
$ANGBASE
  50
0.0
  9
$ANGDIR
  70
1
  9
$MEASUREMENT
  70
1
  0
ENDSEC
  0
SECTION
  2
TABLES
  0
TABLE
  2
LTYPE
  70
4
  0
LTYPE
  5
40F
  2
CONTINUOUS
  70
0
  3
Solid line
  72
65
  73
0
  40
0.0
  0
LTYPE
  5
410
  2
DASHDOT
 70
0
  3
Dash Dot ____ _ ____ _
 72
65
 73
4
 40
2.0
 49
1.25
 49
-0.25
 49
0.25
 49
-0.25
  0
LTYPE
  5
411
  2
DASHED
 70
0
  3
Dashed __ __ __ __ __
 72
65
 73
2
 40
0.75
 49
0.5
 49
-0.25
  0
LTYPE
  5
43B
  2
DOTTED
 70
0
  3
Dotted .  .  .  .
 72
65
 73
2
 40
0.2
 49
0.0
 49
-0.2
  0
ENDTAB
  0
TABLE
  2
STYLE
  70
4
  0
STYLE
  2
KICAD
  70
0
  40
0
  41
1
  42
1
  50
0
  71
0
  3
isocp.shx
  0
STYLE
  2
KICADB
  70
0
  40
0
  41
1
  42
1
  50
0
  71
0
  3
isocp.shx
  0
STYLE
  2
KICADI
  70
0
  40
0
  41
1
  42
1
  50
15
  71
0
  3
isocp.shx
  0
STYLE
  2
KICADBI
  70
0
  40
0
  41
1
  42
1
  50
15
  71
0
  3
isocp.shx
  0
ENDTAB
  0
TABLE
  2
LAYER
  70
1
  0
LAYER
  2
BLACK
  70
0
  62
7
  6
CONTINUOUS
  0
ENDTAB
  0
ENDSEC
  0
SECTION
  2
ENTITIES
0
LINE
8
BLACK
6
CONTINUOUS
10
50.0395
20
-73.6899
11
50.0418
21
-73.6751
0
LINE
8
BLACK
6
CONTINUOUS
10
50.0418
20
-73.6751
11
50.0418
21
-73.6751
0
LINE
8
BLACK
6
CONTINUOUS
10
50.0418
20
-73.6751
11
50.0432
21
-73.6663
0
LINE
8
BLACK
6
CONTINUOUS
10
50.0432
20
-73.6663
11
50.0411
21
-73.65
0
LINE
8
BLACK
6
CONTINUOUS
10
50.0411
20
-73.65
11
50.0403
21
-73.6254
0
LINE
8
BLACK
6
CONTINUOUS
10
50.0403
20
-73.6254
11
50.0548
21
-73.403
0
LINE
8
BLACK
6
CONTINUOUS
10
50.0548
20
-73.403
11
50.057
21
-73.3867
0
LINE
8
BLACK
6
CONTINUOUS
10
50.057
20
-73.3867
11
50.1056
21
-73.1422
0
LINE
8
BLACK
6
CONTINUOUS
10
50.1056
20
-73.1422
11
50.1099
21
-73.1263
0
LINE
8
BLACK
6
CONTINUOUS
10
50.1099
20
-73.1263
11
50.19
21
-72.8902
0
LINE
8
BLACK
6
CONTINUOUS
10
50.19
20
-72.8902
11
50.1963
21
-72.875
0
LINE
8
BLACK
6
CONTINUOUS
10
50.1963
20
-72.875
11
50.3066
21
-72.6514
0
LINE
8
BLACK
6
CONTINUOUS
10
50.3066
20
-72.6514
11
50.3148
21
-72.6371
0
LINE
8
BLACK
6
CONTINUOUS
10
50.3148
20
-72.6371
11
50.4533
21
-72.4299
0
LINE
8
BLACK
6
CONTINUOUS
10
50.4533
20
-72.4299
11
50.4633
21
-72.4168
0
LINE
8
BLACK
6
CONTINUOUS
10
50.4633
20
-72.4168
11
50.6277
21
-72.2294
0
LINE
8
BLACK
6
CONTINUOUS
10
50.6277
20
-72.2294
11
50.6394
21
-72.2177
0
LINE
8
BLACK
6
CONTINUOUS
10
50.6394
20
-72.2177
11
50.8268
21
-72.0533
0
LINE
8
BLACK
6
CONTINUOUS
10
50.8268
20
-72.0533
11
50.8399
21
-72.0433
0
LINE
8
BLACK
6
CONTINUOUS
10
50.8399
20
-72.0433
11
51.0471
21
-71.9048
0
LINE
8
BLACK
6
CONTINUOUS
10
51.0471
20
-71.9048
11
51.0614
21
-71.8966
0
LINE
8
BLACK
6
CONTINUOUS
10
51.0614
20
-71.8966
11
51.285
21
-71.7863
0
LINE
8
BLACK
6
CONTINUOUS
10
51.285
20
-71.7863
11
51.3002
21
-71.78
0
LINE
8
BLACK
6
CONTINUOUS
10
51.3002
20
-71.78
11
51.5363
21
-71.6999
0
LINE
8
BLACK
6
CONTINUOUS
10
51.5363
20
-71.6999
11
51.5522
21
-71.6956
0
LINE
8
BLACK
6
CONTINUOUS
10
51.5522
20
-71.6956
11
51.7967
21
-71.647
0
LINE
8
BLACK
6
CONTINUOUS
10
51.7967
20
-71.647
11
51.813
21
-71.6448
0
LINE
8
BLACK
6
CONTINUOUS
10
51.813
20
-71.6448
11
52.0283
21
-71.6307
0
LINE
8
BLACK
6
CONTINUOUS
10
52.0283
20
-71.6307
11
52.0513
21
-71.6318
0
LINE
8
BLACK
6
CONTINUOUS
10
52.0513
20
-71.6318
11
52.0549
21
-71.6318
0
LINE
8
BLACK
6
CONTINUOUS
10
52.0549
20
-71.6318
11
52.0637
21
-71.6332
0
LINE
8
BLACK
6
CONTINUOUS
10
52.0637
20
-71.6332
11
52.0953
21
-71.6291
0
LINE
8
BLACK
6
CONTINUOUS
10
52.0953
20
-71.6291
11
52.1116
21
-71.628
0
LINE
8
BLACK
6
CONTINUOUS
10
52.1116
20
-71.628
11
243.791
21
-71.628
0
LINE
8
BLACK
6
CONTINUOUS
10
243.791
20
-71.628
11
243.81
21
-71.6295
0
LINE
8
BLACK
6
CONTINUOUS
10
243.81
20
-71.6295
11
243.825
21
-71.6318
0
LINE
8
BLACK
6
CONTINUOUS
10
243.825
20
-71.6318
11
243.825
21
-71.6318
0
LINE
8
BLACK
6
CONTINUOUS
10
243.825
20
-71.6318
11
243.834
21
-71.6332
0
LINE
8
BLACK
6
CONTINUOUS
10
243.834
20
-71.6332
11
243.85
21
-71.6311
0
LINE
8
BLACK
6
CONTINUOUS
10
243.85
20
-71.6311
11
243.875
21
-71.6303
0
LINE
8
BLACK
6
CONTINUOUS
10
243.875
20
-71.6303
11
244.097
21
-71.6448
0
LINE
8
BLACK
6
CONTINUOUS
10
244.097
20
-71.6448
11
244.113
21
-71.647
0
LINE
8
BLACK
6
CONTINUOUS
10
244.113
20
-71.647
11
244.358
21
-71.6956
0
LINE
8
BLACK
6
CONTINUOUS
10
244.358
20
-71.6956
11
244.374
21
-71.6999
0
LINE
8
BLACK
6
CONTINUOUS
10
244.374
20
-71.6999
11
244.61
21
-71.78
0
LINE
8
BLACK
6
CONTINUOUS
10
244.61
20
-71.78
11
244.625
21
-71.7863
0
LINE
8
BLACK
6
CONTINUOUS
10
244.625
20
-71.7863
11
244.849
21
-71.8966
0
LINE
8
BLACK
6
CONTINUOUS
10
244.849
20
-71.8966
11
244.863
21
-71.9048
0
LINE
8
BLACK
6
CONTINUOUS
10
244.863
20
-71.9048
11
245.07
21
-72.0433
0
LINE
8
BLACK
6
CONTINUOUS
10
245.07
20
-72.0433
11
245.083
21
-72.0533
0
LINE
8
BLACK
6
CONTINUOUS
10
245.083
20
-72.0533
11
245.271
21
-72.2177
0
LINE
8
BLACK
6
CONTINUOUS
10
245.271
20
-72.2177
11
245.282
21
-72.2294
0
LINE
8
BLACK
6
CONTINUOUS
10
245.282
20
-72.2294
11
245.447
21
-72.4168
0
LINE
8
BLACK
6
CONTINUOUS
10
245.447
20
-72.4168
11
245.457
21
-72.4299
0
LINE
8
BLACK
6
CONTINUOUS
10
245.457
20
-72.4299
11
245.595
21
-72.6371
0
LINE
8
BLACK
6
CONTINUOUS
10
245.595
20
-72.6371
11
245.603
21
-72.6514
0
LINE
8
BLACK
6
CONTINUOUS
10
245.603
20
-72.6514
11
245.714
21
-72.875
0
LINE
8
BLACK
6
CONTINUOUS
10
245.714
20
-72.875
11
245.72
21
-72.8902
0
LINE
8
BLACK
6
CONTINUOUS
10
245.72
20
-72.8902
11
245.8
21
-73.1263
0
LINE
8
BLACK
6
CONTINUOUS
10
245.8
20
-73.1263
11
245.804
21
-73.1422
0
LINE
8
BLACK
6
CONTINUOUS
10
245.804
20
-73.1422
11
245.853
21
-73.3867
0
LINE
8
BLACK
6
CONTINUOUS
10
245.853
20
-73.3867
11
245.855
21
-73.403
0
LINE
8
BLACK
6
CONTINUOUS
10
245.855
20
-73.403
11
245.869
21
-73.6183
0
LINE
8
BLACK
6
CONTINUOUS
10
245.869
20
-73.6183
11
245.868
21
-73.6413
0
LINE
8
BLACK
6
CONTINUOUS
10
245.868
20
-73.6413
11
245.868
21
-73.6449
0
LINE
8
BLACK
6
CONTINUOUS
10
245.868
20
-73.6449
11
245.867
21
-73.6537
0
LINE
8
BLACK
6
CONTINUOUS
10
245.867
20
-73.6537
11
245.868
21
-73.6663
0
LINE
8
BLACK
6
CONTINUOUS
10
245.868
20
-73.6663
11
245.871
21
-73.6853
0
LINE
8
BLACK
6
CONTINUOUS
10
245.871
20
-73.6853
11
245.872
21
-73.7016
0
LINE
8
BLACK
6
CONTINUOUS
10
245.872
20
-73.7016
11
245.872
21
-119.331
0
LINE
8
BLACK
6
CONTINUOUS
10
245.872
20
-119.331
11
245.87
21
-119.35
0
LINE
8
BLACK
6
CONTINUOUS
10
245.87
20
-119.35
11
245.867
21
-119.374
0
LINE
8
BLACK
6
CONTINUOUS
10
245.867
20
-119.374
11
245.869
21
-119.39
0
LINE
8
BLACK
6
CONTINUOUS
10
245.869
20
-119.39
11
245.87
21
-119.415
0
LINE
8
BLACK
6
CONTINUOUS
10
245.87
20
-119.415
11
245.855
21
-119.637
0
LINE
8
BLACK
6
CONTINUOUS
10
245.855
20
-119.637
11
245.853
21
-119.653
0
LINE
8
BLACK
6
CONTINUOUS
10
245.853
20
-119.653
11
245.804
21
-119.898
0
LINE
8
BLACK
6
CONTINUOUS
10
245.804
20
-119.898
11
245.8
21
-119.914
0
LINE
8
BLACK
6
CONTINUOUS
10
245.8
20
-119.914
11
245.72
21
-120.15
0
LINE
8
BLACK
6
CONTINUOUS
10
245.72
20
-120.15
11
245.714
21
-120.165
0
LINE
8
BLACK
6
CONTINUOUS
10
245.714
20
-120.165
11
245.603
21
-120.389
0
LINE
8
BLACK
6
CONTINUOUS
10
245.603
20
-120.389
11
245.595
21
-120.403
0
LINE
8
BLACK
6
CONTINUOUS
10
245.595
20
-120.403
11
245.457
21
-120.61
0
LINE
8
BLACK
6
CONTINUOUS
10
245.457
20
-120.61
11
245.447
21
-120.623
0
LINE
8
BLACK
6
CONTINUOUS
10
245.447
20
-120.623
11
245.282
21
-120.811
0
LINE
8
BLACK
6
CONTINUOUS
10
245.282
20
-120.811
11
245.271
21
-120.822
0
LINE
8
BLACK
6
CONTINUOUS
10
245.271
20
-120.822
11
245.083
21
-120.987
0
LINE
8
BLACK
6
CONTINUOUS
10
245.083
20
-120.987
11
245.07
21
-120.997
0
LINE
8
BLACK
6
CONTINUOUS
10
245.07
20
-120.997
11
244.863
21
-121.135
0
LINE
8
BLACK
6
CONTINUOUS
10
244.863
20
-121.135
11
244.849
21
-121.143
0
LINE
8
BLACK
6
CONTINUOUS
10
244.849
20
-121.143
11
244.625
21
-121.254
0
LINE
8
BLACK
6
CONTINUOUS
10
244.625
20
-121.254
11
244.61
21
-121.26
0
LINE
8
BLACK
6
CONTINUOUS
10
244.61
20
-121.26
11
244.374
21
-121.34
0
LINE
8
BLACK
6
CONTINUOUS
10
244.374
20
-121.34
11
244.358
21
-121.344
0
LINE
8
BLACK
6
CONTINUOUS
10
244.358
20
-121.344
11
244.113
21
-121.393
0
LINE
8
BLACK
6
CONTINUOUS
10
244.113
20
-121.393
11
244.097
21
-121.395
0
LINE
8
BLACK
6
CONTINUOUS
10
244.097
20
-121.395
11
243.882
21
-121.409
0
LINE
8
BLACK
6
CONTINUOUS
10
243.882
20
-121.409
11
243.859
21
-121.408
0
LINE
8
BLACK
6
CONTINUOUS
10
243.859
20
-121.408
11
243.855
21
-121.408
0
LINE
8
BLACK
6
CONTINUOUS
10
243.855
20
-121.408
11
243.846
21
-121.407
0
LINE
8
BLACK
6
CONTINUOUS
10
243.846
20
-121.407
11
243.818
21
-121.411
0
LINE
8
BLACK
6
CONTINUOUS
10
243.818
20
-121.411
11
243.815
21
-121.411
0
LINE
8
BLACK
6
CONTINUOUS
10
243.815
20
-121.411
11
243.798
21
-121.412
0
LINE
8
BLACK
6
CONTINUOUS
10
243.798
20
-121.412
11
52.1193
21
-121.412
0
LINE
8
BLACK
6
CONTINUOUS
10
52.1193
20
-121.412
11
52.0999
21
-121.41
0
LINE
8
BLACK
6
CONTINUOUS
10
52.0999
20
-121.41
11
52.0851
21
-121.408
0
LINE
8
BLACK
6
CONTINUOUS
10
52.0851
20
-121.408
11
52.0851
21
-121.408
0
LINE
8
BLACK
6
CONTINUOUS
10
52.0851
20
-121.408
11
52.0763
21
-121.407
0
LINE
8
BLACK
6
CONTINUOUS
10
52.0763
20
-121.407
11
52.06
21
-121.409
0
LINE
8
BLACK
6
CONTINUOUS
10
52.06
20
-121.409
11
52.0354
21
-121.41
0
LINE
8
BLACK
6
CONTINUOUS
10
52.0354
20
-121.41
11
51.813
21
-121.395
0
LINE
8
BLACK
6
CONTINUOUS
10
51.813
20
-121.395
11
51.7967
21
-121.393
0
LINE
8
BLACK
6
CONTINUOUS
10
51.7967
20
-121.393
11
51.5522
21
-121.344
0
LINE
8
BLACK
6
CONTINUOUS
10
51.5522
20
-121.344
11
51.5363
21
-121.34
0
LINE
8
BLACK
6
CONTINUOUS
10
51.5363
20
-121.34
11
51.3002
21
-121.26
0
LINE
8
BLACK
6
CONTINUOUS
10
51.3002
20
-121.26
11
51.285
21
-121.254
0
LINE
8
BLACK
6
CONTINUOUS
10
51.285
20
-121.254
11
51.0614
21
-121.143
0
LINE
8
BLACK
6
CONTINUOUS
10
51.0614
20
-121.143
11
51.0471
21
-121.135
0
LINE
8
BLACK
6
CONTINUOUS
10
51.0471
20
-121.135
11
50.8399
21
-120.997
0
LINE
8
BLACK
6
CONTINUOUS
10
50.8399
20
-120.997
11
50.8268
21
-120.987
0
LINE
8
BLACK
6
CONTINUOUS
10
50.8268
20
-120.987
11
50.6394
21
-120.822
0
LINE
8
BLACK
6
CONTINUOUS
10
50.6394
20
-120.822
11
50.6277
21
-120.811
0
LINE
8
BLACK
6
CONTINUOUS
10
50.6277
20
-120.811
11
50.4633
21
-120.623
0
LINE
8
BLACK
6
CONTINUOUS
10
50.4633
20
-120.623
11
50.4533
21
-120.61
0
LINE
8
BLACK
6
CONTINUOUS
10
50.4533
20
-120.61
11
50.3148
21
-120.403
0
LINE
8
BLACK
6
CONTINUOUS
10
50.3148
20
-120.403
11
50.3066
21
-120.389
0
LINE
8
BLACK
6
CONTINUOUS
10
50.3066
20
-120.389
11
50.1963
21
-120.165
0
LINE
8
BLACK
6
CONTINUOUS
10
50.1963
20
-120.165
11
50.19
21
-120.15
0
LINE
8
BLACK
6
CONTINUOUS
10
50.19
20
-120.15
11
50.1099
21
-119.914
0
LINE
8
BLACK
6
CONTINUOUS
10
50.1099
20
-119.914
11
50.1056
21
-119.898
0
LINE
8
BLACK
6
CONTINUOUS
10
50.1056
20
-119.898
11
50.057
21
-119.653
0
LINE
8
BLACK
6
CONTINUOUS
10
50.057
20
-119.653
11
50.0548
21
-119.637
0
LINE
8
BLACK
6
CONTINUOUS
10
50.0548
20
-119.637
11
50.0407
21
-119.422
0
LINE
8
BLACK
6
CONTINUOUS
10
50.0407
20
-119.422
11
50.0418
21
-119.399
0
LINE
8
BLACK
6
CONTINUOUS
10
50.0418
20
-119.399
11
50.0418
21
-119.395
0
LINE
8
BLACK
6
CONTINUOUS
10
50.0418
20
-119.395
11
50.0432
21
-119.386
0
LINE
8
BLACK
6
CONTINUOUS
10
50.0432
20
-119.386
11
50.0391
21
-119.355
0
LINE
8
BLACK
6
CONTINUOUS
10
50.0391
20
-119.355
11
50.038
21
-119.338
0
LINE
8
BLACK
6
CONTINUOUS
10
50.038
20
-119.338
11
50.038
21
-73.7093
0
LINE
8
BLACK
6
CONTINUOUS
10
50.038
20
-73.7093
11
50.0395
21
-73.6899
0
LINE
8
BLACK
6
CONTINUOUS
10
221.806
20
-96.7542
11
221.81
21
-96.8054
0
LINE
8
BLACK
6
CONTINUOUS
10
221.81
20
-96.8054
11
221.844
21
-97.213
0
LINE
8
BLACK
6
CONTINUOUS
10
221.844
20
-97.213
11
221.921
21
-97.6696
0
LINE
8
BLACK
6
CONTINUOUS
10
221.921
20
-97.6696
11
221.922
21
-97.6722
0
LINE
8
BLACK
6
CONTINUOUS
10
221.922
20
-97.6722
11
221.922
21
-97.6722
0
LINE
8
BLACK
6
CONTINUOUS
10
221.922
20
-97.6722
11
222.015
21
-98.0332
0
LINE
8
BLACK
6
CONTINUOUS
10
222.015
20
-98.0332
11
222.037
21
-98.1182
0
LINE
8
BLACK
6
CONTINUOUS
10
222.037
20
-98.1182
11
222.189
21
-98.5555
0
LINE
8
BLACK
6
CONTINUOUS
10
222.189
20
-98.5555
11
222.377
21
-98.9786
0
LINE
8
BLACK
6
CONTINUOUS
10
222.377
20
-98.9786
11
222.6
21
-99.3844
0
LINE
8
BLACK
6
CONTINUOUS
10
222.6
20
-99.3844
11
222.857
21
-99.7701
0
LINE
8
BLACK
6
CONTINUOUS
10
222.857
20
-99.7701
11
223.144
21
-100.133
0
LINE
8
BLACK
6
CONTINUOUS
10
223.144
20
-100.133
11
223.278
21
-100.276
0
LINE
8
BLACK
6
CONTINUOUS
10
223.278
20
-100.276
11
223.448
21
-100.456
0
LINE
8
BLACK
6
CONTINUOUS
10
223.448
20
-100.456
11
223.461
21
-100.471
0
LINE
8
BLACK
6
CONTINUOUS
10
223.461
20
-100.471
11
223.805
21
-100.781
0
LINE
8
BLACK
6
CONTINUOUS
10
223.805
20
-100.781
11
223.807
21
-100.782
0
LINE
8
BLACK
6
CONTINUOUS
10
223.807
20
-100.782
11
223.807
21
-100.782
0
LINE
8
BLACK
6
CONTINUOUS
10
223.807
20
-100.782
11
224.114
21
-101.015
0
LINE
8
BLACK
6
CONTINUOUS
10
224.114
20
-101.015
11
224.174
21
-101.061
0
LINE
8
BLACK
6
CONTINUOUS
10
224.174
20
-101.061
11
224.176
21
-101.062
0
LINE
8
BLACK
6
CONTINUOUS
10
224.176
20
-101.062
11
224.176
21
-101.062
0
LINE
8
BLACK
6
CONTINUOUS
10
224.176
20
-101.062
11
224.475
21
-101.251
0
LINE
8
BLACK
6
CONTINUOUS
10
224.475
20
-101.251
11
224.565
21
-101.309
0
LINE
8
BLACK
6
CONTINUOUS
10
224.565
20
-101.309
11
224.568
21
-101.31
0
LINE
8
BLACK
6
CONTINUOUS
10
224.568
20
-101.31
11
224.568
21
-101.31
0
LINE
8
BLACK
6
CONTINUOUS
10
224.568
20
-101.31
11
224.973
21
-101.522
0
LINE
8
BLACK
6
CONTINUOUS
10
224.973
20
-101.522
11
224.973
21
-101.522
0
LINE
8
BLACK
6
CONTINUOUS
10
224.973
20
-101.522
11
224.976
21
-101.523
0
LINE
8
BLACK
6
CONTINUOUS
10
224.976
20
-101.523
11
225.403
21
-101.703
0
LINE
8
BLACK
6
CONTINUOUS
10
225.403
20
-101.703
11
225.405
21
-101.703
0
LINE
8
BLACK
6
CONTINUOUS
10
225.405
20
-101.703
11
225.405
21
-101.703
0
LINE
8
BLACK
6
CONTINUOUS
10
225.405
20
-101.703
11
225.84
21
-101.845
0
LINE
8
BLACK
6
CONTINUOUS
10
225.84
20
-101.845
11
225.841
21
-101.845
0
LINE
8
BLACK
6
CONTINUOUS
10
225.841
20
-101.845
11
225.843
21
-101.846
0
LINE
8
BLACK
6
CONTINUOUS
10
225.843
20
-101.846
11
226.086
21
-101.903
0
LINE
8
BLACK
6
CONTINUOUS
10
226.086
20
-101.903
11
226.291
21
-101.951
0
LINE
8
BLACK
6
CONTINUOUS
10
226.291
20
-101.951
11
226.291
21
-101.951
0
LINE
8
BLACK
6
CONTINUOUS
10
226.291
20
-101.951
11
226.294
21
-101.952
0
LINE
8
BLACK
6
CONTINUOUS
10
226.294
20
-101.952
11
226.752
21
-102.019
0
LINE
8
BLACK
6
CONTINUOUS
10
226.752
20
-102.019
11
226.755
21
-102.019
0
LINE
8
BLACK
6
CONTINUOUS
10
226.755
20
-102.019
11
226.755
21
-102.019
0
LINE
8
BLACK
6
CONTINUOUS
10
226.755
20
-102.019
11
227.004
21
-102.035
0
LINE
8
BLACK
6
CONTINUOUS
10
227.004
20
-102.035
11
227.214
21
-102.048
0
LINE
8
BLACK
6
CONTINUOUS
10
227.214
20
-102.048
11
227.217
21
-102.048
0
LINE
8
BLACK
6
CONTINUOUS
10
227.217
20
-102.048
11
227.217
21
-102.048
0
LINE
8
BLACK
6
CONTINUOUS
10
227.217
20
-102.048
11
227.392
21
-102.045
0
LINE
8
BLACK
6
CONTINUOUS
10
227.392
20
-102.045
11
227.677
21
-102.039
0
LINE
8
BLACK
6
CONTINUOUS
10
227.677
20
-102.039
11
228.138
21
-101.99
0
LINE
8
BLACK
6
CONTINUOUS
10
228.138
20
-101.99
11
228.593
21
-101.903
0
LINE
8
BLACK
6
CONTINUOUS
10
228.593
20
-101.903
11
228.595
21
-101.903
0
LINE
8
BLACK
6
CONTINUOUS
10
228.595
20
-101.903
11
228.595
21
-101.903
0
LINE
8
BLACK
6
CONTINUOUS
10
228.595
20
-101.903
11
229.036
21
-101.78
0
LINE
8
BLACK
6
CONTINUOUS
10
229.036
20
-101.78
11
229.036
21
-101.78
0
LINE
8
BLACK
6
CONTINUOUS
10
229.036
20
-101.78
11
229.039
21
-101.779
0
LINE
8
BLACK
6
CONTINUOUS
10
229.039
20
-101.779
11
229.246
21
-101.702
0
LINE
8
BLACK
6
CONTINUOUS
10
229.246
20
-101.702
11
229.47
21
-101.618
0
LINE
8
BLACK
6
CONTINUOUS
10
229.47
20
-101.618
11
229.47
21
-101.618
0
LINE
8
BLACK
6
CONTINUOUS
10
229.47
20
-101.618
11
229.473
21
-101.617
0
LINE
8
BLACK
6
CONTINUOUS
10
229.473
20
-101.617
11
229.892
21
-101.42
0
LINE
8
BLACK
6
CONTINUOUS
10
229.892
20
-101.42
11
230.293
21
-101.189
0
LINE
8
BLACK
6
CONTINUOUS
10
230.293
20
-101.189
11
230.673
21
-100.924
0
LINE
8
BLACK
6
CONTINUOUS
10
230.673
20
-100.924
11
230.945
21
-100.7
0
LINE
8
BLACK
6
CONTINUOUS
10
230.945
20
-100.7
11
231.028
21
-100.631
0
LINE
8
BLACK
6
CONTINUOUS
10
231.028
20
-100.631
11
231.028
21
-100.631
0
LINE
8
BLACK
6
CONTINUOUS
10
231.028
20
-100.631
11
231.03
21
-100.629
0
LINE
8
BLACK
6
CONTINUOUS
10
231.03
20
-100.629
11
231.09
21
-100.57
0
LINE
8
BLACK
6
CONTINUOUS
10
231.09
20
-100.57
11
231.359
21
-100.307
0
LINE
8
BLACK
6
CONTINUOUS
10
231.359
20
-100.307
11
231.361
21
-100.305
0
LINE
8
BLACK
6
CONTINUOUS
10
231.361
20
-100.305
11
231.363
21
-100.303
0
LINE
8
BLACK
6
CONTINUOUS
10
231.363
20
-100.303
11
231.363
21
-100.303
0
LINE
8
BLACK
6
CONTINUOUS
10
231.363
20
-100.303
11
231.662
21
-99.9566
0
LINE
8
BLACK
6
CONTINUOUS
10
231.662
20
-99.9566
11
231.663
21
-99.9546
0
LINE
8
BLACK
6
CONTINUOUS
10
231.663
20
-99.9546
11
231.936
21
-99.58
0
LINE
8
BLACK
6
CONTINUOUS
10
231.936
20
-99.58
11
232.176
21
-99.1838
0
LINE
8
BLACK
6
CONTINUOUS
10
232.176
20
-99.1838
11
232.381
21
-98.769
0
LINE
8
BLACK
6
CONTINUOUS
10
232.381
20
-98.769
11
232.552
21
-98.3385
0
LINE
8
BLACK
6
CONTINUOUS
10
232.552
20
-98.3385
11
232.686
21
-97.8951
0
LINE
8
BLACK
6
CONTINUOUS
10
232.686
20
-97.8951
11
232.692
21
-97.8657
0
LINE
8
BLACK
6
CONTINUOUS
10
232.692
20
-97.8657
11
232.781
21
-97.4447
0
LINE
8
BLACK
6
CONTINUOUS
10
232.781
20
-97.4447
11
232.782
21
-97.4421
0
LINE
8
BLACK
6
CONTINUOUS
10
232.782
20
-97.4421
11
232.84
21
-96.9827
0
LINE
8
BLACK
6
CONTINUOUS
10
232.84
20
-96.9827
11
232.844
21
-96.8932
0
LINE
8
BLACK
6
CONTINUOUS
10
232.844
20
-96.8932
11
232.859
21
-96.5226
0
LINE
8
BLACK
6
CONTINUOUS
10
232.859
20
-96.5226
11
232.859
21
-96.52
0
LINE
8
BLACK
6
CONTINUOUS
10
232.859
20
-96.52
11
232.85
21
-96.2884
0
LINE
8
BLACK
6
CONTINUOUS
10
232.85
20
-96.2884
11
232.84
21
-96.06
0
LINE
8
BLACK
6
CONTINUOUS
10
232.84
20
-96.06
11
232.84
21
-96.0599
0
LINE
8
BLACK
6
CONTINUOUS
10
232.84
20
-96.0599
11
232.84
21
-96.0573
0
LINE
8
BLACK
6
CONTINUOUS
10
232.84
20
-96.0573
11
232.782
21
-95.5979
0
LINE
8
BLACK
6
CONTINUOUS
10
232.782
20
-95.5979
11
232.719
21
-95.299
0
LINE
8
BLACK
6
CONTINUOUS
10
232.719
20
-95.299
11
232.686
21
-95.1474
0
LINE
8
BLACK
6
CONTINUOUS
10
232.686
20
-95.1474
11
232.686
21
-95.1474
0
LINE
8
BLACK
6
CONTINUOUS
10
232.686
20
-95.1474
11
232.686
21
-95.1449
0
LINE
8
BLACK
6
CONTINUOUS
10
232.686
20
-95.1449
11
232.552
21
-94.7015
0
LINE
8
BLACK
6
CONTINUOUS
10
232.552
20
-94.7015
11
232.381
21
-94.271
0
LINE
8
BLACK
6
CONTINUOUS
10
232.381
20
-94.271
11
232.176
21
-93.8562
0
LINE
8
BLACK
6
CONTINUOUS
10
232.176
20
-93.8562
11
231.979
21
-93.5309
0
LINE
8
BLACK
6
CONTINUOUS
10
231.979
20
-93.5309
11
231.937
21
-93.4623
0
LINE
8
BLACK
6
CONTINUOUS
10
231.937
20
-93.4623
11
231.937
21
-93.4623
0
LINE
8
BLACK
6
CONTINUOUS
10
231.937
20
-93.4623
11
231.936
21
-93.46
0
LINE
8
BLACK
6
CONTINUOUS
10
231.936
20
-93.46
11
231.663
21
-93.0854
0
LINE
8
BLACK
6
CONTINUOUS
10
231.663
20
-93.0854
11
231.551
21
-92.9555
0
LINE
8
BLACK
6
CONTINUOUS
10
231.551
20
-92.9555
11
231.363
21
-92.7368
0
LINE
8
BLACK
6
CONTINUOUS
10
231.363
20
-92.7368
11
231.363
21
-92.7368
0
LINE
8
BLACK
6
CONTINUOUS
10
231.363
20
-92.7368
11
231.361
21
-92.7348
0
LINE
8
BLACK
6
CONTINUOUS
10
231.361
20
-92.7348
11
231.092
21
-92.4719
0
LINE
8
BLACK
6
CONTINUOUS
10
231.092
20
-92.4719
11
231.032
21
-92.4126
0
LINE
8
BLACK
6
CONTINUOUS
10
231.032
20
-92.4126
11
231.032
21
-92.4126
0
LINE
8
BLACK
6
CONTINUOUS
10
231.032
20
-92.4126
11
231.03
21
-92.4108
0
LINE
8
BLACK
6
CONTINUOUS
10
231.03
20
-92.4108
11
231.028
21
-92.4091
0
LINE
8
BLACK
6
CONTINUOUS
10
231.028
20
-92.4091
11
231.028
21
-92.4091
0
LINE
8
BLACK
6
CONTINUOUS
10
231.028
20
-92.4091
11
230.832
21
-92.2474
0
LINE
8
BLACK
6
CONTINUOUS
10
230.832
20
-92.2474
11
230.673
21
-92.1156
0
LINE
8
BLACK
6
CONTINUOUS
10
230.673
20
-92.1156
11
230.293
21
-91.8513
0
LINE
8
BLACK
6
CONTINUOUS
10
230.293
20
-91.8513
11
229.892
21
-91.6198
0
LINE
8
BLACK
6
CONTINUOUS
10
229.892
20
-91.6198
11
229.473
21
-91.4226
0
LINE
8
BLACK
6
CONTINUOUS
10
229.473
20
-91.4226
11
229.47
21
-91.4217
0
LINE
8
BLACK
6
CONTINUOUS
10
229.47
20
-91.4217
11
229.47
21
-91.4217
0
LINE
8
BLACK
6
CONTINUOUS
10
229.47
20
-91.4217
11
229.041
21
-91.2621
0
LINE
8
BLACK
6
CONTINUOUS
10
229.041
20
-91.2621
11
229.039
21
-91.2612
0
LINE
8
BLACK
6
CONTINUOUS
10
229.039
20
-91.2612
11
229.036
21
-91.2604
0
LINE
8
BLACK
6
CONTINUOUS
10
229.036
20
-91.2604
11
229.036
21
-91.2604
0
LINE
8
BLACK
6
CONTINUOUS
10
229.036
20
-91.2604
11
228.595
21
-91.1373
0
LINE
8
BLACK
6
CONTINUOUS
10
228.595
20
-91.1373
11
228.595
21
-91.1373
0
LINE
8
BLACK
6
CONTINUOUS
10
228.595
20
-91.1373
11
228.593
21
-91.1366
0
LINE
8
BLACK
6
CONTINUOUS
10
228.593
20
-91.1366
11
228.138
21
-91.0498
0
LINE
8
BLACK
6
CONTINUOUS
10
228.138
20
-91.0498
11
227.677
21
-91.0014
0
LINE
8
BLACK
6
CONTINUOUS
10
227.677
20
-91.0014
11
227.392
21
-90.9955
0
LINE
8
BLACK
6
CONTINUOUS
10
227.392
20
-90.9955
11
227.217
21
-90.9918
0
LINE
8
BLACK
6
CONTINUOUS
10
227.217
20
-90.9918
11
227.217
21
-90.9918
0
LINE
8
BLACK
6
CONTINUOUS
10
227.217
20
-90.9918
11
227.214
21
-90.9917
0
LINE
8
BLACK
6
CONTINUOUS
10
227.214
20
-90.9917
11
227.02
21
-91.0039
0
LINE
8
BLACK
6
CONTINUOUS
10
227.02
20
-91.0039
11
226.755
21
-91.0206
0
LINE
8
BLACK
6
CONTINUOUS
10
226.755
20
-91.0206
11
226.755
21
-91.0206
0
LINE
8
BLACK
6
CONTINUOUS
10
226.755
20
-91.0206
11
226.752
21
-91.0208
0
LINE
8
BLACK
6
CONTINUOUS
10
226.752
20
-91.0208
11
226.294
21
-91.0885
0
LINE
8
BLACK
6
CONTINUOUS
10
226.294
20
-91.0885
11
226.291
21
-91.0891
0
LINE
8
BLACK
6
CONTINUOUS
10
226.291
20
-91.0891
11
226.291
21
-91.0891
0
LINE
8
BLACK
6
CONTINUOUS
10
226.291
20
-91.0891
11
226.116
21
-91.1303
0
LINE
8
BLACK
6
CONTINUOUS
10
226.116
20
-91.1303
11
225.843
21
-91.1942
0
LINE
8
BLACK
6
CONTINUOUS
10
225.843
20
-91.1942
11
225.841
21
-91.195
0
LINE
8
BLACK
6
CONTINUOUS
10
225.841
20
-91.195
11
225.84
21
-91.195
0
LINE
8
BLACK
6
CONTINUOUS
10
225.84
20
-91.195
11
225.639
21
-91.2604
0
LINE
8
BLACK
6
CONTINUOUS
10
225.639
20
-91.2604
11
225.403
21
-91.3373
0
LINE
8
BLACK
6
CONTINUOUS
10
225.403
20
-91.3373
11
224.976
21
-91.5168
0
LINE
8
BLACK
6
CONTINUOUS
10
224.976
20
-91.5168
11
224.973
21
-91.518
0
LINE
8
BLACK
6
CONTINUOUS
10
224.973
20
-91.518
11
224.973
21
-91.518
0
LINE
8
BLACK
6
CONTINUOUS
10
224.973
20
-91.518
11
224.568
21
-91.7301
0
LINE
8
BLACK
6
CONTINUOUS
10
224.568
20
-91.7301
11
224.568
21
-91.7301
0
LINE
8
BLACK
6
CONTINUOUS
10
224.568
20
-91.7301
11
224.565
21
-91.7313
0
LINE
8
BLACK
6
CONTINUOUS
10
224.565
20
-91.7313
11
224.563
21
-91.7327
0
LINE
8
BLACK
6
CONTINUOUS
10
224.563
20
-91.7327
11
224.176
21
-91.978
0
LINE
8
BLACK
6
CONTINUOUS
10
224.176
20
-91.978
11
224.176
21
-91.9781
0
LINE
8
BLACK
6
CONTINUOUS
10
224.176
20
-91.9781
11
224.174
21
-91.9795
0
LINE
8
BLACK
6
CONTINUOUS
10
224.174
20
-91.9795
11
224.172
21
-91.9811
0
LINE
8
BLACK
6
CONTINUOUS
10
224.172
20
-91.9811
11
224.172
21
-91.9811
0
LINE
8
BLACK
6
CONTINUOUS
10
224.172
20
-91.9811
11
223.821
21
-92.2474
0
LINE
8
BLACK
6
CONTINUOUS
10
223.821
20
-92.2474
11
223.805
21
-92.2595
0
LINE
8
BLACK
6
CONTINUOUS
10
223.805
20
-92.2595
11
223.461
21
-92.5693
0
LINE
8
BLACK
6
CONTINUOUS
10
223.461
20
-92.5693
11
223.459
21
-92.5713
0
LINE
8
BLACK
6
CONTINUOUS
10
223.459
20
-92.5713
11
223.459
21
-92.5713
0
LINE
8
BLACK
6
CONTINUOUS
10
223.459
20
-92.5713
11
223.367
21
-92.6696
0
LINE
8
BLACK
6
CONTINUOUS
10
223.367
20
-92.6696
11
223.144
21
-92.9069
0
LINE
8
BLACK
6
CONTINUOUS
10
223.144
20
-92.9069
11
222.857
21
-93.2699
0
LINE
8
BLACK
6
CONTINUOUS
10
222.857
20
-93.2699
11
222.689
21
-93.5226
0
LINE
8
BLACK
6
CONTINUOUS
10
222.689
20
-93.5226
11
222.607
21
-93.6462
0
LINE
8
BLACK
6
CONTINUOUS
10
222.607
20
-93.6462
11
222.6
21
-93.6556
0
LINE
8
BLACK
6
CONTINUOUS
10
222.6
20
-93.6556
11
222.377
21
-94.0614
0
LINE
8
BLACK
6
CONTINUOUS
10
222.377
20
-94.0614
11
222.189
21
-94.4845
0
LINE
8
BLACK
6
CONTINUOUS
10
222.189
20
-94.4845
11
222.037
21
-94.9218
0
LINE
8
BLACK
6
CONTINUOUS
10
222.037
20
-94.9218
11
222.036
21
-94.9244
0
LINE
8
BLACK
6
CONTINUOUS
10
222.036
20
-94.9244
11
222.036
21
-94.9244
0
LINE
8
BLACK
6
CONTINUOUS
10
222.036
20
-94.9244
11
221.94
21
-95.299
0
LINE
8
BLACK
6
CONTINUOUS
10
221.94
20
-95.299
11
221.921
21
-95.3704
0
LINE
8
BLACK
6
CONTINUOUS
10
221.921
20
-95.3704
11
221.844
21
-95.827
0
LINE
8
BLACK
6
CONTINUOUS
10
221.844
20
-95.827
11
221.825
21
-96.0547
0
LINE
8
BLACK
6
CONTINUOUS
10
221.825
20
-96.0547
11
221.807
21
-96.2683
0
LINE
8
BLACK
6
CONTINUOUS
10
221.807
20
-96.2683
11
221.805
21
-96.2884
0
LINE
8
BLACK
6
CONTINUOUS
10
221.805
20
-96.2884
11
221.805
21
-96.7516
0
LINE
8
BLACK
6
CONTINUOUS
10
221.805
20
-96.7516
11
221.806
21
-96.7542
0
LINE
8
BLACK
6
CONTINUOUS
10
221.806
20
-96.7542
11
221.806
21
-96.7542
0
LINE
8
BLACK
6
CONTINUOUS
10
65.2883
20
-96.7516
11
65.2927
21
-96.819
0
LINE
8
BLACK
6
CONTINUOUS
10
65.2927
20
-96.819
11
65.2935
21
-96.8231
0
LINE
8
BLACK
6
CONTINUOUS
10
65.2935
20
-96.8231
11
65.2935
21
-96.8231
0
LINE
8
BLACK
6
CONTINUOUS
10
65.2935
20
-96.8231
11
65.3453
21
-97.0835
0
LINE
8
BLACK
6
CONTINUOUS
10
65.3453
20
-97.0835
11
65.3512
21
-97.1129
0
LINE
8
BLACK
6
CONTINUOUS
10
65.3512
20
-97.1129
11
65.3525
21
-97.1168
0
LINE
8
BLACK
6
CONTINUOUS
10
65.3525
20
-97.1168
11
65.3525
21
-97.1168
0
LINE
8
BLACK
6
CONTINUOUS
10
65.3525
20
-97.1168
11
65.4462
21
-97.3928
0
LINE
8
BLACK
6
CONTINUOUS
10
65.4462
20
-97.3928
11
65.4475
21
-97.3967
0
LINE
8
BLACK
6
CONTINUOUS
10
65.4475
20
-97.3967
11
65.4712
21
-97.4447
0
LINE
8
BLACK
6
CONTINUOUS
10
65.4712
20
-97.4447
11
65.5575
21
-97.6199
0
LINE
8
BLACK
6
CONTINUOUS
10
65.5575
20
-97.6199
11
65.58
21
-97.6655
0
LINE
8
BLACK
6
CONTINUOUS
10
65.58
20
-97.6655
11
65.5823
21
-97.6689
0
LINE
8
BLACK
6
CONTINUOUS
10
65.5823
20
-97.6689
11
65.743
21
-97.9094
0
LINE
8
BLACK
6
CONTINUOUS
10
65.743
20
-97.9094
11
65.7465
21
-97.9146
0
LINE
8
BLACK
6
CONTINUOUS
10
65.7465
20
-97.9146
11
65.7492
21
-97.9177
0
LINE
8
BLACK
6
CONTINUOUS
10
65.7492
20
-97.9177
11
65.7492
21
-97.9177
0
LINE
8
BLACK
6
CONTINUOUS
10
65.7492
20
-97.9177
11
65.9285
21
-98.1221
0
LINE
8
BLACK
6
CONTINUOUS
10
65.9285
20
-98.1221
11
65.9441
21
-98.1399
0
LINE
8
BLACK
6
CONTINUOUS
10
65.9441
20
-98.1399
11
65.9472
21
-98.1426
0
LINE
8
BLACK
6
CONTINUOUS
10
65.9472
20
-98.1426
11
66.1663
21
-98.3348
0
LINE
8
BLACK
6
CONTINUOUS
10
66.1663
20
-98.3348
11
66.1663
21
-98.3348
0
LINE
8
BLACK
6
CONTINUOUS
10
66.1663
20
-98.3348
11
66.1694
21
-98.3375
0
LINE
8
BLACK
6
CONTINUOUS
10
66.1694
20
-98.3375
11
66.1728
21
-98.3398
0
LINE
8
BLACK
6
CONTINUOUS
10
66.1728
20
-98.3398
11
66.1728
21
-98.3398
0
LINE
8
BLACK
6
CONTINUOUS
10
66.1728
20
-98.3398
11
66.277
21
-98.4094
0
LINE
8
BLACK
6
CONTINUOUS
10
66.277
20
-98.4094
11
66.4185
21
-98.504
0
LINE
8
BLACK
6
CONTINUOUS
10
66.4185
20
-98.504
11
66.4222
21
-98.5058
0
LINE
8
BLACK
6
CONTINUOUS
10
66.4222
20
-98.5058
11
66.4223
21
-98.5058
0
LINE
8
BLACK
6
CONTINUOUS
10
66.4223
20
-98.5058
11
66.56
21
-98.5737
0
LINE
8
BLACK
6
CONTINUOUS
10
66.56
20
-98.5737
11
66.6873
21
-98.6365
0
LINE
8
BLACK
6
CONTINUOUS
10
66.6873
20
-98.6365
11
66.6912
21
-98.6378
0
LINE
8
BLACK
6
CONTINUOUS
10
66.6912
20
-98.6378
11
66.6912
21
-98.6378
0
LINE
8
BLACK
6
CONTINUOUS
10
66.6912
20
-98.6378
11
66.9672
21
-98.7315
0
LINE
8
BLACK
6
CONTINUOUS
10
66.9672
20
-98.7315
11
66.9672
21
-98.7315
0
LINE
8
BLACK
6
CONTINUOUS
10
66.9672
20
-98.7315
11
66.9711
21
-98.7328
0
LINE
8
BLACK
6
CONTINUOUS
10
66.9711
20
-98.7328
11
66.9751
21
-98.7336
0
LINE
8
BLACK
6
CONTINUOUS
10
66.9751
20
-98.7336
11
66.9751
21
-98.7336
0
LINE
8
BLACK
6
CONTINUOUS
10
66.9751
20
-98.7336
11
67.2609
21
-98.7905
0
LINE
8
BLACK
6
CONTINUOUS
10
67.2609
20
-98.7905
11
67.2609
21
-98.7905
0
LINE
8
BLACK
6
CONTINUOUS
10
67.2609
20
-98.7905
11
67.265
21
-98.7913
0
LINE
8
BLACK
6
CONTINUOUS
10
67.265
20
-98.7913
11
67.2691
21
-98.7916
0
LINE
8
BLACK
6
CONTINUOUS
10
67.2691
20
-98.7916
11
67.2691
21
-98.7916
0
LINE
8
BLACK
6
CONTINUOUS
10
67.2691
20
-98.7916
11
67.5599
21
-98.8106
0
LINE
8
BLACK
6
CONTINUOUS
10
67.5599
20
-98.8106
11
67.564
21
-98.8109
0
LINE
8
BLACK
6
CONTINUOUS
10
67.564
20
-98.8109
11
67.5681
21
-98.8106
0
LINE
8
BLACK
6
CONTINUOUS
10
67.5681
20
-98.8106
11
67.8589
21
-98.7916
0
LINE
8
BLACK
6
CONTINUOUS
10
67.8589
20
-98.7916
11
67.8589
21
-98.7916
0
LINE
8
BLACK
6
CONTINUOUS
10
67.8589
20
-98.7916
11
67.863
21
-98.7913
0
LINE
8
BLACK
6
CONTINUOUS
10
67.863
20
-98.7913
11
67.8671
21
-98.7905
0
LINE
8
BLACK
6
CONTINUOUS
10
67.8671
20
-98.7905
11
67.8671
21
-98.7905
0
LINE
8
BLACK
6
CONTINUOUS
10
67.8671
20
-98.7905
11
68.1529
21
-98.7336
0
LINE
8
BLACK
6
CONTINUOUS
10
68.1529
20
-98.7336
11
68.1529
21
-98.7336
0
LINE
8
BLACK
6
CONTINUOUS
10
68.1529
20
-98.7336
11
68.1569
21
-98.7328
0
LINE
8
BLACK
6
CONTINUOUS
10
68.1569
20
-98.7328
11
68.1608
21
-98.7315
0
LINE
8
BLACK
6
CONTINUOUS
10
68.1608
20
-98.7315
11
68.1608
21
-98.7315
0
LINE
8
BLACK
6
CONTINUOUS
10
68.1608
20
-98.7315
11
68.4368
21
-98.6378
0
LINE
8
BLACK
6
CONTINUOUS
10
68.4368
20
-98.6378
11
68.4368
21
-98.6378
0
LINE
8
BLACK
6
CONTINUOUS
10
68.4368
20
-98.6378
11
68.4407
21
-98.6365
0
LINE
8
BLACK
6
CONTINUOUS
10
68.4407
20
-98.6365
11
68.568
21
-98.5737
0
LINE
8
BLACK
6
CONTINUOUS
10
68.568
20
-98.5737
11
68.7057
21
-98.5058
0
LINE
8
BLACK
6
CONTINUOUS
10
68.7057
20
-98.5058
11
68.7058
21
-98.5058
0
LINE
8
BLACK
6
CONTINUOUS
10
68.7058
20
-98.5058
11
68.7095
21
-98.504
0
LINE
8
BLACK
6
CONTINUOUS
10
68.7095
20
-98.504
11
68.851
21
-98.4094
0
LINE
8
BLACK
6
CONTINUOUS
10
68.851
20
-98.4094
11
68.9552
21
-98.3398
0
LINE
8
BLACK
6
CONTINUOUS
10
68.9552
20
-98.3398
11
68.9552
21
-98.3398
0
LINE
8
BLACK
6
CONTINUOUS
10
68.9552
20
-98.3398
11
68.9586
21
-98.3375
0
LINE
8
BLACK
6
CONTINUOUS
10
68.9586
20
-98.3375
11
68.9617
21
-98.3348
0
LINE
8
BLACK
6
CONTINUOUS
10
68.9617
20
-98.3348
11
68.9617
21
-98.3348
0
LINE
8
BLACK
6
CONTINUOUS
10
68.9617
20
-98.3348
11
69.1808
21
-98.1426
0
LINE
8
BLACK
6
CONTINUOUS
10
69.1808
20
-98.1426
11
69.1839
21
-98.1399
0
LINE
8
BLACK
6
CONTINUOUS
10
69.1839
20
-98.1399
11
69.1995
21
-98.1221
0
LINE
8
BLACK
6
CONTINUOUS
10
69.1995
20
-98.1221
11
69.3788
21
-97.9177
0
LINE
8
BLACK
6
CONTINUOUS
10
69.3788
20
-97.9177
11
69.3788
21
-97.9177
0
LINE
8
BLACK
6
CONTINUOUS
10
69.3788
20
-97.9177
11
69.3815
21
-97.9146
0
LINE
8
BLACK
6
CONTINUOUS
10
69.3815
20
-97.9146
11
69.385
21
-97.9094
0
LINE
8
BLACK
6
CONTINUOUS
10
69.385
20
-97.9094
11
69.5457
21
-97.6689
0
LINE
8
BLACK
6
CONTINUOUS
10
69.5457
20
-97.6689
11
69.548
21
-97.6655
0
LINE
8
BLACK
6
CONTINUOUS
10
69.548
20
-97.6655
11
69.5705
21
-97.6199
0
LINE
8
BLACK
6
CONTINUOUS
10
69.5705
20
-97.6199
11
69.6568
21
-97.4447
0
LINE
8
BLACK
6
CONTINUOUS
10
69.6568
20
-97.4447
11
69.6805
21
-97.3967
0
LINE
8
BLACK
6
CONTINUOUS
10
69.6805
20
-97.3967
11
69.6818
21
-97.3928
0
LINE
8
BLACK
6
CONTINUOUS
10
69.6818
20
-97.3928
11
69.7755
21
-97.1168
0
LINE
8
BLACK
6
CONTINUOUS
10
69.7755
20
-97.1168
11
69.7755
21
-97.1168
0
LINE
8
BLACK
6
CONTINUOUS
10
69.7755
20
-97.1168
11
69.7768
21
-97.1129
0
LINE
8
BLACK
6
CONTINUOUS
10
69.7768
20
-97.1129
11
69.7827
21
-97.0835
0
LINE
8
BLACK
6
CONTINUOUS
10
69.7827
20
-97.0835
11
69.8345
21
-96.8231
0
LINE
8
BLACK
6
CONTINUOUS
10
69.8345
20
-96.8231
11
69.8345
21
-96.8231
0
LINE
8
BLACK
6
CONTINUOUS
10
69.8345
20
-96.8231
11
69.8353
21
-96.819
0
LINE
8
BLACK
6
CONTINUOUS
10
69.8353
20
-96.819
11
69.8397
21
-96.7516
0
LINE
8
BLACK
6
CONTINUOUS
10
69.8397
20
-96.7516
11
69.8546
21
-96.5241
0
LINE
8
BLACK
6
CONTINUOUS
10
69.8546
20
-96.5241
11
69.8549
21
-96.52
0
LINE
8
BLACK
6
CONTINUOUS
10
69.8549
20
-96.52
11
69.8399
21
-96.2911
0
LINE
8
BLACK
6
CONTINUOUS
10
69.8399
20
-96.2911
11
69.8356
21
-96.2251
0
LINE
8
BLACK
6
CONTINUOUS
10
69.8356
20
-96.2251
11
69.8356
21
-96.2251
0
LINE
8
BLACK
6
CONTINUOUS
10
69.8356
20
-96.2251
11
69.8353
21
-96.221
0
LINE
8
BLACK
6
CONTINUOUS
10
69.8353
20
-96.221
11
69.8345
21
-96.2169
0
LINE
8
BLACK
6
CONTINUOUS
10
69.8345
20
-96.2169
11
69.7776
21
-95.9311
0
LINE
8
BLACK
6
CONTINUOUS
10
69.7776
20
-95.9311
11
69.7776
21
-95.9311
0
LINE
8
BLACK
6
CONTINUOUS
10
69.7776
20
-95.9311
11
69.7768
21
-95.9271
0
LINE
8
BLACK
6
CONTINUOUS
10
69.7768
20
-95.9271
11
69.7664
21
-95.8964
0
LINE
8
BLACK
6
CONTINUOUS
10
69.7664
20
-95.8964
11
69.6818
21
-95.6472
0
LINE
8
BLACK
6
CONTINUOUS
10
69.6818
20
-95.6472
11
69.6818
21
-95.6472
0
LINE
8
BLACK
6
CONTINUOUS
10
69.6818
20
-95.6472
11
69.6805
21
-95.6433
0
LINE
8
BLACK
6
CONTINUOUS
10
69.6805
20
-95.6433
11
69.573
21
-95.4253
0
LINE
8
BLACK
6
CONTINUOUS
10
69.573
20
-95.4253
11
69.5498
21
-95.3783
0
LINE
8
BLACK
6
CONTINUOUS
10
69.5498
20
-95.3783
11
69.5498
21
-95.3782
0
LINE
8
BLACK
6
CONTINUOUS
10
69.5498
20
-95.3782
11
69.548
21
-95.3745
0
LINE
8
BLACK
6
CONTINUOUS
10
69.548
20
-95.3745
11
69.4112
21
-95.1699
0
LINE
8
BLACK
6
CONTINUOUS
10
69.4112
20
-95.1699
11
69.3838
21
-95.1288
0
LINE
8
BLACK
6
CONTINUOUS
10
69.3838
20
-95.1288
11
69.3838
21
-95.1288
0
LINE
8
BLACK
6
CONTINUOUS
10
69.3838
20
-95.1288
11
69.3815
21
-95.1254
0
LINE
8
BLACK
6
CONTINUOUS
10
69.3815
20
-95.1254
11
69.3788
21
-95.1223
0
LINE
8
BLACK
6
CONTINUOUS
10
69.3788
20
-95.1223
11
69.3788
21
-95.1223
0
LINE
8
BLACK
6
CONTINUOUS
10
69.3788
20
-95.1223
11
69.1866
21
-94.9032
0
LINE
8
BLACK
6
CONTINUOUS
10
69.1866
20
-94.9032
11
69.1839
21
-94.9001
0
LINE
8
BLACK
6
CONTINUOUS
10
69.1839
20
-94.9001
11
69.022
21
-94.7581
0
LINE
8
BLACK
6
CONTINUOUS
10
69.022
20
-94.7581
11
68.9617
21
-94.7052
0
LINE
8
BLACK
6
CONTINUOUS
10
68.9617
20
-94.7052
11
68.9617
21
-94.7052
0
LINE
8
BLACK
6
CONTINUOUS
10
68.9617
20
-94.7052
11
68.9586
21
-94.7025
0
LINE
8
BLACK
6
CONTINUOUS
10
68.9586
20
-94.7025
11
68.9552
21
-94.7002
0
LINE
8
BLACK
6
CONTINUOUS
10
68.9552
20
-94.7002
11
68.9552
21
-94.7002
0
LINE
8
BLACK
6
CONTINUOUS
10
68.9552
20
-94.7002
11
68.7129
21
-94.5383
0
LINE
8
BLACK
6
CONTINUOUS
10
68.7129
20
-94.5383
11
68.7095
21
-94.536
0
LINE
8
BLACK
6
CONTINUOUS
10
68.7095
20
-94.536
11
68.7058
21
-94.5342
0
LINE
8
BLACK
6
CONTINUOUS
10
68.7058
20
-94.5342
11
68.7057
21
-94.5342
0
LINE
8
BLACK
6
CONTINUOUS
10
68.7057
20
-94.5342
11
68.5278
21
-94.4464
0
LINE
8
BLACK
6
CONTINUOUS
10
68.5278
20
-94.4464
11
68.4407
21
-94.4035
0
LINE
8
BLACK
6
CONTINUOUS
10
68.4407
20
-94.4035
11
68.4368
21
-94.4022
0
LINE
8
BLACK
6
CONTINUOUS
10
68.4368
20
-94.4022
11
68.1608
21
-94.3085
0
LINE
8
BLACK
6
CONTINUOUS
10
68.1608
20
-94.3085
11
68.1608
21
-94.3085
0
LINE
8
BLACK
6
CONTINUOUS
10
68.1608
20
-94.3085
11
68.1569
21
-94.3072
0
LINE
8
BLACK
6
CONTINUOUS
10
68.1569
20
-94.3072
11
68.1529
21
-94.3064
0
LINE
8
BLACK
6
CONTINUOUS
10
68.1529
20
-94.3064
11
68.1529
21
-94.3064
0
LINE
8
BLACK
6
CONTINUOUS
10
68.1529
20
-94.3064
11
67.8671
21
-94.2495
0
LINE
8
BLACK
6
CONTINUOUS
10
67.8671
20
-94.2495
11
67.8671
21
-94.2495
0
LINE
8
BLACK
6
CONTINUOUS
10
67.8671
20
-94.2495
11
67.863
21
-94.2487
0
LINE
8
BLACK
6
CONTINUOUS
10
67.863
20
-94.2487
11
67.8589
21
-94.2484
0
LINE
8
BLACK
6
CONTINUOUS
10
67.8589
20
-94.2484
11
67.8589
21
-94.2484
0
LINE
8
BLACK
6
CONTINUOUS
10
67.8589
20
-94.2484
11
67.5681
21
-94.2294
0
LINE
8
BLACK
6
CONTINUOUS
10
67.5681
20
-94.2294
11
67.564
21
-94.2291
0
LINE
8
BLACK
6
CONTINUOUS
10
67.564
20
-94.2291
11
67.5599
21
-94.2294
0
LINE
8
BLACK
6
CONTINUOUS
10
67.5599
20
-94.2294
11
67.2691
21
-94.2484
0
LINE
8
BLACK
6
CONTINUOUS
10
67.2691
20
-94.2484
11
67.2691
21
-94.2484
0
LINE
8
BLACK
6
CONTINUOUS
10
67.2691
20
-94.2484
11
67.265
21
-94.2487
0
LINE
8
BLACK
6
CONTINUOUS
10
67.265
20
-94.2487
11
67.2609
21
-94.2495
0
LINE
8
BLACK
6
CONTINUOUS
10
67.2609
20
-94.2495
11
67.2609
21
-94.2495
0
LINE
8
BLACK
6
CONTINUOUS
10
67.2609
20
-94.2495
11
66.9751
21
-94.3064
0
LINE
8
BLACK
6
CONTINUOUS
10
66.9751
20
-94.3064
11
66.9751
21
-94.3064
0
LINE
8
BLACK
6
CONTINUOUS
10
66.9751
20
-94.3064
11
66.9711
21
-94.3072
0
LINE
8
BLACK
6
CONTINUOUS
10
66.9711
20
-94.3072
11
66.9672
21
-94.3085
0
LINE
8
BLACK
6
CONTINUOUS
10
66.9672
20
-94.3085
11
66.9672
21
-94.3085
0
LINE
8
BLACK
6
CONTINUOUS
10
66.9672
20
-94.3085
11
66.6912
21
-94.4022
0
LINE
8
BLACK
6
CONTINUOUS
10
66.6912
20
-94.4022
11
66.6873
21
-94.4035
0
LINE
8
BLACK
6
CONTINUOUS
10
66.6873
20
-94.4035
11
66.6002
21
-94.4464
0
LINE
8
BLACK
6
CONTINUOUS
10
66.6002
20
-94.4464
11
66.4223
21
-94.5342
0
LINE
8
BLACK
6
CONTINUOUS
10
66.4223
20
-94.5342
11
66.4222
21
-94.5342
0
LINE
8
BLACK
6
CONTINUOUS
10
66.4222
20
-94.5342
11
66.4185
21
-94.536
0
LINE
8
BLACK
6
CONTINUOUS
10
66.4185
20
-94.536
11
66.4151
21
-94.5383
0
LINE
8
BLACK
6
CONTINUOUS
10
66.4151
20
-94.5383
11
66.1728
21
-94.7002
0
LINE
8
BLACK
6
CONTINUOUS
10
66.1728
20
-94.7002
11
66.1728
21
-94.7002
0
LINE
8
BLACK
6
CONTINUOUS
10
66.1728
20
-94.7002
11
66.1694
21
-94.7025
0
LINE
8
BLACK
6
CONTINUOUS
10
66.1694
20
-94.7025
11
66.1663
21
-94.7052
0
LINE
8
BLACK
6
CONTINUOUS
10
66.1663
20
-94.7052
11
66.1663
21
-94.7052
0
LINE
8
BLACK
6
CONTINUOUS
10
66.1663
20
-94.7052
11
66.106
21
-94.7581
0
LINE
8
BLACK
6
CONTINUOUS
10
66.106
20
-94.7581
11
65.9441
21
-94.9001
0
LINE
8
BLACK
6
CONTINUOUS
10
65.9441
20
-94.9001
11
65.9414
21
-94.9032
0
LINE
8
BLACK
6
CONTINUOUS
10
65.9414
20
-94.9032
11
65.7492
21
-95.1223
0
LINE
8
BLACK
6
CONTINUOUS
10
65.7492
20
-95.1223
11
65.7492
21
-95.1223
0
LINE
8
BLACK
6
CONTINUOUS
10
65.7492
20
-95.1223
11
65.7465
21
-95.1254
0
LINE
8
BLACK
6
CONTINUOUS
10
65.7465
20
-95.1254
11
65.7442
21
-95.1288
0
LINE
8
BLACK
6
CONTINUOUS
10
65.7442
20
-95.1288
11
65.7442
21
-95.1288
0
LINE
8
BLACK
6
CONTINUOUS
10
65.7442
20
-95.1288
11
65.7168
21
-95.1699
0
LINE
8
BLACK
6
CONTINUOUS
10
65.7168
20
-95.1699
11
65.58
21
-95.3745
0
LINE
8
BLACK
6
CONTINUOUS
10
65.58
20
-95.3745
11
65.5782
21
-95.3782
0
LINE
8
BLACK
6
CONTINUOUS
10
65.5782
20
-95.3782
11
65.5782
21
-95.3783
0
LINE
8
BLACK
6
CONTINUOUS
10
65.5782
20
-95.3783
11
65.555
21
-95.4253
0
LINE
8
BLACK
6
CONTINUOUS
10
65.555
20
-95.4253
11
65.4475
21
-95.6433
0
LINE
8
BLACK
6
CONTINUOUS
10
65.4475
20
-95.6433
11
65.4462
21
-95.6472
0
LINE
8
BLACK
6
CONTINUOUS
10
65.4462
20
-95.6472
11
65.4462
21
-95.6472
0
LINE
8
BLACK
6
CONTINUOUS
10
65.4462
20
-95.6472
11
65.3616
21
-95.8964
0
LINE
8
BLACK
6
CONTINUOUS
10
65.3616
20
-95.8964
11
65.3512
21
-95.9271
0
LINE
8
BLACK
6
CONTINUOUS
10
65.3512
20
-95.9271
11
65.3504
21
-95.9311
0
LINE
8
BLACK
6
CONTINUOUS
10
65.3504
20
-95.9311
11
65.3504
21
-95.9311
0
LINE
8
BLACK
6
CONTINUOUS
10
65.3504
20
-95.9311
11
65.2935
21
-96.2169
0
LINE
8
BLACK
6
CONTINUOUS
10
65.2935
20
-96.2169
11
65.2927
21
-96.221
0
LINE
8
BLACK
6
CONTINUOUS
10
65.2927
20
-96.221
11
65.2924
21
-96.2251
0
LINE
8
BLACK
6
CONTINUOUS
10
65.2924
20
-96.2251
11
65.2924
21
-96.2251
0
LINE
8
BLACK
6
CONTINUOUS
10
65.2924
20
-96.2251
11
65.2881
21
-96.2911
0
LINE
8
BLACK
6
CONTINUOUS
10
65.2881
20
-96.2911
11
65.2731
21
-96.52
0
LINE
8
BLACK
6
CONTINUOUS
10
65.2731
20
-96.52
11
65.2734
21
-96.5241
0
LINE
8
BLACK
6
CONTINUOUS
10
65.2734
20
-96.5241
11
65.2883
21
-96.7516
0
LINE
8
BLACK
6
CONTINUOUS
10
109.987
20
-96.5241
11
109.987
21
-96.52
0
LINE
8
BLACK
6
CONTINUOUS
10
109.987
20
-96.52
11
109.972
21
-96.2911
0
LINE
8
BLACK
6
CONTINUOUS
10
109.972
20
-96.2911
11
109.968
21
-96.2251
0
LINE
8
BLACK
6
CONTINUOUS
10
109.968
20
-96.2251
11
109.968
21
-96.2251
0
LINE
8
BLACK
6
CONTINUOUS
10
109.968
20
-96.2251
11
109.967
21
-96.221
0
LINE
8
BLACK
6
CONTINUOUS
10
109.967
20
-96.221
11
109.967
21
-96.2169
0
LINE
8
BLACK
6
CONTINUOUS
10
109.967
20
-96.2169
11
109.91
21
-95.9311
0
LINE
8
BLACK
6
CONTINUOUS
10
109.91
20
-95.9311
11
109.91
21
-95.9311
0
LINE
8
BLACK
6
CONTINUOUS
10
109.91
20
-95.9311
11
109.909
21
-95.9271
0
LINE
8
BLACK
6
CONTINUOUS
10
109.909
20
-95.9271
11
109.898
21
-95.8964
0
LINE
8
BLACK
6
CONTINUOUS
10
109.898
20
-95.8964
11
109.814
21
-95.6472
0
LINE
8
BLACK
6
CONTINUOUS
10
109.814
20
-95.6472
11
109.814
21
-95.6472
0
LINE
8
BLACK
6
CONTINUOUS
10
109.814
20
-95.6472
11
109.813
21
-95.6433
0
LINE
8
BLACK
6
CONTINUOUS
10
109.813
20
-95.6433
11
109.705
21
-95.4253
0
LINE
8
BLACK
6
CONTINUOUS
10
109.705
20
-95.4253
11
109.682
21
-95.3783
0
LINE
8
BLACK
6
CONTINUOUS
10
109.682
20
-95.3783
11
109.682
21
-95.3782
0
LINE
8
BLACK
6
CONTINUOUS
10
109.682
20
-95.3782
11
109.68
21
-95.3745
0
LINE
8
BLACK
6
CONTINUOUS
10
109.68
20
-95.3745
11
109.543
21
-95.1699
0
LINE
8
BLACK
6
CONTINUOUS
10
109.543
20
-95.1699
11
109.516
21
-95.1288
0
LINE
8
BLACK
6
CONTINUOUS
10
109.516
20
-95.1288
11
109.516
21
-95.1288
0
LINE
8
BLACK
6
CONTINUOUS
10
109.516
20
-95.1288
11
109.513
21
-95.1254
0
LINE
8
BLACK
6
CONTINUOUS
10
109.513
20
-95.1254
11
109.511
21
-95.1223
0
LINE
8
BLACK
6
CONTINUOUS
10
109.511
20
-95.1223
11
109.511
21
-95.1223
0
LINE
8
BLACK
6
CONTINUOUS
10
109.511
20
-95.1223
11
109.319
21
-94.9032
0
LINE
8
BLACK
6
CONTINUOUS
10
109.319
20
-94.9032
11
109.316
21
-94.9001
0
LINE
8
BLACK
6
CONTINUOUS
10
109.316
20
-94.9001
11
109.154
21
-94.7581
0
LINE
8
BLACK
6
CONTINUOUS
10
109.154
20
-94.7581
11
109.094
21
-94.7052
0
LINE
8
BLACK
6
CONTINUOUS
10
109.094
20
-94.7052
11
109.094
21
-94.7052
0
LINE
8
BLACK
6
CONTINUOUS
10
109.094
20
-94.7052
11
109.091
21
-94.7025
0
LINE
8
BLACK
6
CONTINUOUS
10
109.091
20
-94.7025
11
109.087
21
-94.7002
0
LINE
8
BLACK
6
CONTINUOUS
10
109.087
20
-94.7002
11
109.087
21
-94.7002
0
LINE
8
BLACK
6
CONTINUOUS
10
109.087
20
-94.7002
11
108.845
21
-94.5383
0
LINE
8
BLACK
6
CONTINUOUS
10
108.845
20
-94.5383
11
108.841
21
-94.536
0
LINE
8
BLACK
6
CONTINUOUS
10
108.841
20
-94.536
11
108.838
21
-94.5342
0
LINE
8
BLACK
6
CONTINUOUS
10
108.838
20
-94.5342
11
108.838
21
-94.5342
0
LINE
8
BLACK
6
CONTINUOUS
10
108.838
20
-94.5342
11
108.66
21
-94.4464
0
LINE
8
BLACK
6
CONTINUOUS
10
108.66
20
-94.4464
11
108.573
21
-94.4035
0
LINE
8
BLACK
6
CONTINUOUS
10
108.573
20
-94.4035
11
108.569
21
-94.4022
0
LINE
8
BLACK
6
CONTINUOUS
10
108.569
20
-94.4022
11
108.293
21
-94.3085
0
LINE
8
BLACK
6
CONTINUOUS
10
108.293
20
-94.3085
11
108.293
21
-94.3085
0
LINE
8
BLACK
6
CONTINUOUS
10
108.293
20
-94.3085
11
108.289
21
-94.3072
0
LINE
8
BLACK
6
CONTINUOUS
10
108.289
20
-94.3072
11
108.285
21
-94.3064
0
LINE
8
BLACK
6
CONTINUOUS
10
108.285
20
-94.3064
11
108.285
21
-94.3064
0
LINE
8
BLACK
6
CONTINUOUS
10
108.285
20
-94.3064
11
107.999
21
-94.2495
0
LINE
8
BLACK
6
CONTINUOUS
10
107.999
20
-94.2495
11
107.999
21
-94.2495
0
LINE
8
BLACK
6
CONTINUOUS
10
107.999
20
-94.2495
11
107.995
21
-94.2487
0
LINE
8
BLACK
6
CONTINUOUS
10
107.995
20
-94.2487
11
107.991
21
-94.2484
0
LINE
8
BLACK
6
CONTINUOUS
10
107.991
20
-94.2484
11
107.991
21
-94.2484
0
LINE
8
BLACK
6
CONTINUOUS
10
107.991
20
-94.2484
11
107.7
21
-94.2294
0
LINE
8
BLACK
6
CONTINUOUS
10
107.7
20
-94.2294
11
107.696
21
-94.2291
0
LINE
8
BLACK
6
CONTINUOUS
10
107.696
20
-94.2291
11
107.692
21
-94.2294
0
LINE
8
BLACK
6
CONTINUOUS
10
107.692
20
-94.2294
11
107.401
21
-94.2484
0
LINE
8
BLACK
6
CONTINUOUS
10
107.401
20
-94.2484
11
107.401
21
-94.2484
0
LINE
8
BLACK
6
CONTINUOUS
10
107.401
20
-94.2484
11
107.397
21
-94.2487
0
LINE
8
BLACK
6
CONTINUOUS
10
107.397
20
-94.2487
11
107.393
21
-94.2495
0
LINE
8
BLACK
6
CONTINUOUS
10
107.393
20
-94.2495
11
107.393
21
-94.2495
0
LINE
8
BLACK
6
CONTINUOUS
10
107.393
20
-94.2495
11
107.107
21
-94.3064
0
LINE
8
BLACK
6
CONTINUOUS
10
107.107
20
-94.3064
11
107.107
21
-94.3064
0
LINE
8
BLACK
6
CONTINUOUS
10
107.107
20
-94.3064
11
107.103
21
-94.3072
0
LINE
8
BLACK
6
CONTINUOUS
10
107.103
20
-94.3072
11
107.099
21
-94.3085
0
LINE
8
BLACK
6
CONTINUOUS
10
107.099
20
-94.3085
11
107.099
21
-94.3085
0
LINE
8
BLACK
6
CONTINUOUS
10
107.099
20
-94.3085
11
106.823
21
-94.4022
0
LINE
8
BLACK
6
CONTINUOUS
10
106.823
20
-94.4022
11
106.819
21
-94.4035
0
LINE
8
BLACK
6
CONTINUOUS
10
106.819
20
-94.4035
11
106.732
21
-94.4464
0
LINE
8
BLACK
6
CONTINUOUS
10
106.732
20
-94.4464
11
106.554
21
-94.5342
0
LINE
8
BLACK
6
CONTINUOUS
10
106.554
20
-94.5342
11
106.554
21
-94.5342
0
LINE
8
BLACK
6
CONTINUOUS
10
106.554
20
-94.5342
11
106.551
21
-94.536
0
LINE
8
BLACK
6
CONTINUOUS
10
106.551
20
-94.536
11
106.547
21
-94.5383
0
LINE
8
BLACK
6
CONTINUOUS
10
106.547
20
-94.5383
11
106.305
21
-94.7002
0
LINE
8
BLACK
6
CONTINUOUS
10
106.305
20
-94.7002
11
106.305
21
-94.7002
0
LINE
8
BLACK
6
CONTINUOUS
10
106.305
20
-94.7002
11
106.301
21
-94.7025
0
LINE
8
BLACK
6
CONTINUOUS
10
106.301
20
-94.7025
11
106.298
21
-94.7052
0
LINE
8
BLACK
6
CONTINUOUS
10
106.298
20
-94.7052
11
106.298
21
-94.7052
0
LINE
8
BLACK
6
CONTINUOUS
10
106.298
20
-94.7052
11
106.238
21
-94.7581
0
LINE
8
BLACK
6
CONTINUOUS
10
106.238
20
-94.7581
11
106.076
21
-94.9001
0
LINE
8
BLACK
6
CONTINUOUS
10
106.076
20
-94.9001
11
106.073
21
-94.9032
0
LINE
8
BLACK
6
CONTINUOUS
10
106.073
20
-94.9032
11
105.881
21
-95.1223
0
LINE
8
BLACK
6
CONTINUOUS
10
105.881
20
-95.1223
11
105.881
21
-95.1223
0
LINE
8
BLACK
6
CONTINUOUS
10
105.881
20
-95.1223
11
105.879
21
-95.1254
0
LINE
8
BLACK
6
CONTINUOUS
10
105.879
20
-95.1254
11
105.876
21
-95.1288
0
LINE
8
BLACK
6
CONTINUOUS
10
105.876
20
-95.1288
11
105.876
21
-95.1288
0
LINE
8
BLACK
6
CONTINUOUS
10
105.876
20
-95.1288
11
105.849
21
-95.1699
0
LINE
8
BLACK
6
CONTINUOUS
10
105.849
20
-95.1699
11
105.712
21
-95.3745
0
LINE
8
BLACK
6
CONTINUOUS
10
105.712
20
-95.3745
11
105.71
21
-95.3782
0
LINE
8
BLACK
6
CONTINUOUS
10
105.71
20
-95.3782
11
105.71
21
-95.3783
0
LINE
8
BLACK
6
CONTINUOUS
10
105.71
20
-95.3783
11
105.687
21
-95.4253
0
LINE
8
BLACK
6
CONTINUOUS
10
105.687
20
-95.4253
11
105.579
21
-95.6433
0
LINE
8
BLACK
6
CONTINUOUS
10
105.579
20
-95.6433
11
105.578
21
-95.6472
0
LINE
8
BLACK
6
CONTINUOUS
10
105.578
20
-95.6472
11
105.578
21
-95.6472
0
LINE
8
BLACK
6
CONTINUOUS
10
105.578
20
-95.6472
11
105.496
21
-95.8887
0
LINE
8
BLACK
6
CONTINUOUS
10
105.496
20
-95.8887
11
105.455
21
-95.9467
0
LINE
8
BLACK
6
CONTINUOUS
10
105.455
20
-95.9467
11
105.39
21
-95.9735
0
LINE
8
BLACK
6
CONTINUOUS
10
105.39
20
-95.9735
11
105.32
21
-95.9605
0
LINE
8
BLACK
6
CONTINUOUS
10
105.32
20
-95.9605
11
105.268
21
-95.9118
0
LINE
8
BLACK
6
CONTINUOUS
10
105.268
20
-95.9118
11
105.26
21
-95.8964
0
LINE
8
BLACK
6
CONTINUOUS
10
105.26
20
-95.8964
11
105.236
21
-95.8376
0
LINE
8
BLACK
6
CONTINUOUS
10
105.236
20
-95.8376
11
105.236
21
-95.8376
0
LINE
8
BLACK
6
CONTINUOUS
10
105.236
20
-95.8376
11
105.234
21
-95.833
0
LINE
8
BLACK
6
CONTINUOUS
10
105.234
20
-95.833
11
105.223
21
-95.8151
0
LINE
8
BLACK
6
CONTINUOUS
10
105.223
20
-95.8151
11
105.113
21
-95.6348
0
LINE
8
BLACK
6
CONTINUOUS
10
105.113
20
-95.6348
11
105.113
21
-95.6348
0
LINE
8
BLACK
6
CONTINUOUS
10
105.113
20
-95.6348
11
105.11
21
-95.6306
0
LINE
8
BLACK
6
CONTINUOUS
10
105.11
20
-95.6306
11
104.977
21
-95.4746
0
LINE
8
BLACK
6
CONTINUOUS
10
104.977
20
-95.4746
11
104.959
21
-95.4538
0
LINE
8
BLACK
6
CONTINUOUS
10
104.959
20
-95.4538
11
104.956
21
-95.45
0
LINE
8
BLACK
6
CONTINUOUS
10
104.956
20
-95.45
11
104.775
21
-95.2958
0
LINE
8
BLACK
6
CONTINUOUS
10
104.775
20
-95.2958
11
104.771
21
-95.2932
0
LINE
8
BLACK
6
CONTINUOUS
10
104.771
20
-95.2932
11
104.771
21
-95.2932
0
LINE
8
BLACK
6
CONTINUOUS
10
104.771
20
-95.2932
11
104.577
21
-95.1743
0
LINE
8
BLACK
6
CONTINUOUS
10
104.577
20
-95.1743
11
104.573
21
-95.1718
0
LINE
8
BLACK
6
CONTINUOUS
10
104.573
20
-95.1718
11
104.568
21
-95.1699
0
LINE
8
BLACK
6
CONTINUOUS
10
104.568
20
-95.1699
11
104.568
21
-95.1699
0
LINE
8
BLACK
6
CONTINUOUS
10
104.568
20
-95.1699
11
104.358
21
-95.0828
0
LINE
8
BLACK
6
CONTINUOUS
10
104.358
20
-95.0828
11
104.358
21
-95.0828
0
LINE
8
BLACK
6
CONTINUOUS
10
104.358
20
-95.0828
11
104.354
21
-95.0809
0
LINE
8
BLACK
6
CONTINUOUS
10
104.354
20
-95.0809
11
104.268
21
-95.0603
0
LINE
8
BLACK
6
CONTINUOUS
10
104.268
20
-95.0603
11
104.128
21
-95.0266
0
LINE
8
BLACK
6
CONTINUOUS
10
104.128
20
-95.0266
11
104.128
21
-95.0266
0
LINE
8
BLACK
6
CONTINUOUS
10
104.128
20
-95.0266
11
104.123
21
-95.0255
0
LINE
8
BLACK
6
CONTINUOUS
10
104.123
20
-95.0255
11
103.886
21
-95.0068
0
LINE
8
BLACK
6
CONTINUOUS
10
103.886
20
-95.0068
11
103.649
21
-95.0255
0
LINE
8
BLACK
6
CONTINUOUS
10
103.649
20
-95.0255
11
103.644
21
-95.0266
0
LINE
8
BLACK
6
CONTINUOUS
10
103.644
20
-95.0266
11
103.644
21
-95.0266
0
LINE
8
BLACK
6
CONTINUOUS
10
103.644
20
-95.0266
11
103.504
21
-95.0603
0
LINE
8
BLACK
6
CONTINUOUS
10
103.504
20
-95.0603
11
103.418
21
-95.0809
0
LINE
8
BLACK
6
CONTINUOUS
10
103.418
20
-95.0809
11
103.414
21
-95.0828
0
LINE
8
BLACK
6
CONTINUOUS
10
103.414
20
-95.0828
11
103.414
21
-95.0828
0
LINE
8
BLACK
6
CONTINUOUS
10
103.414
20
-95.0828
11
103.204
21
-95.1699
0
LINE
8
BLACK
6
CONTINUOUS
10
103.204
20
-95.1699
11
103.204
21
-95.1699
0
LINE
8
BLACK
6
CONTINUOUS
10
103.204
20
-95.1699
11
103.199
21
-95.1718
0
LINE
8
BLACK
6
CONTINUOUS
10
103.199
20
-95.1718
11
103.195
21
-95.1743
0
LINE
8
BLACK
6
CONTINUOUS
10
103.195
20
-95.1743
11
103.001
21
-95.2932
0
LINE
8
BLACK
6
CONTINUOUS
10
103.001
20
-95.2932
11
103.001
21
-95.2932
0
LINE
8
BLACK
6
CONTINUOUS
10
103.001
20
-95.2932
11
102.997
21
-95.2958
0
LINE
8
BLACK
6
CONTINUOUS
10
102.997
20
-95.2958
11
102.816
21
-95.45
0
LINE
8
BLACK
6
CONTINUOUS
10
102.816
20
-95.45
11
102.813
21
-95.4538
0
LINE
8
BLACK
6
CONTINUOUS
10
102.813
20
-95.4538
11
102.795
21
-95.4746
0
LINE
8
BLACK
6
CONTINUOUS
10
102.795
20
-95.4746
11
102.662
21
-95.6306
0
LINE
8
BLACK
6
CONTINUOUS
10
102.662
20
-95.6306
11
102.659
21
-95.6348
0
LINE
8
BLACK
6
CONTINUOUS
10
102.659
20
-95.6348
11
102.659
21
-95.6348
0
LINE
8
BLACK
6
CONTINUOUS
10
102.659
20
-95.6348
11
102.549
21
-95.8151
0
LINE
8
BLACK
6
CONTINUOUS
10
102.549
20
-95.8151
11
102.538
21
-95.833
0
LINE
8
BLACK
6
CONTINUOUS
10
102.538
20
-95.833
11
102.536
21
-95.8376
0
LINE
8
BLACK
6
CONTINUOUS
10
102.536
20
-95.8376
11
102.536
21
-95.8376
0
LINE
8
BLACK
6
CONTINUOUS
10
102.536
20
-95.8376
11
102.451
21
-96.0413
0
LINE
8
BLACK
6
CONTINUOUS
10
102.451
20
-96.0413
11
102.447
21
-96.0524
0
LINE
8
BLACK
6
CONTINUOUS
10
102.447
20
-96.0524
11
102.446
21
-96.0572
0
LINE
8
BLACK
6
CONTINUOUS
10
102.446
20
-96.0572
11
102.395
21
-96.2683
0
LINE
8
BLACK
6
CONTINUOUS
10
102.395
20
-96.2683
11
102.391
21
-96.2833
0
LINE
8
BLACK
6
CONTINUOUS
10
102.391
20
-96.2833
11
102.373
21
-96.52
0
LINE
8
BLACK
6
CONTINUOUS
10
102.373
20
-96.52
11
102.391
21
-96.7567
0
LINE
8
BLACK
6
CONTINUOUS
10
102.391
20
-96.7567
11
102.393
21
-96.7615
0
LINE
8
BLACK
6
CONTINUOUS
10
102.393
20
-96.7615
11
102.393
21
-96.7615
0
LINE
8
BLACK
6
CONTINUOUS
10
102.393
20
-96.7615
11
102.423
21
-96.8891
0
LINE
8
BLACK
6
CONTINUOUS
10
102.423
20
-96.8891
11
102.447
21
-96.9876
0
LINE
8
BLACK
6
CONTINUOUS
10
102.447
20
-96.9876
11
102.449
21
-96.9922
0
LINE
8
BLACK
6
CONTINUOUS
10
102.449
20
-96.9922
11
102.449
21
-96.9922
0
LINE
8
BLACK
6
CONTINUOUS
10
102.449
20
-96.9922
11
102.499
21
-97.1129
0
LINE
8
BLACK
6
CONTINUOUS
10
102.499
20
-97.1129
11
102.538
21
-97.207
0
LINE
8
BLACK
6
CONTINUOUS
10
102.538
20
-97.207
11
102.54
21
-97.2112
0
LINE
8
BLACK
6
CONTINUOUS
10
102.54
20
-97.2112
11
102.659
21
-97.4052
0
LINE
8
BLACK
6
CONTINUOUS
10
102.659
20
-97.4052
11
102.659
21
-97.4052
0
LINE
8
BLACK
6
CONTINUOUS
10
102.659
20
-97.4052
11
102.662
21
-97.4094
0
LINE
8
BLACK
6
CONTINUOUS
10
102.662
20
-97.4094
11
102.816
21
-97.59
0
LINE
8
BLACK
6
CONTINUOUS
10
102.816
20
-97.59
11
102.997
21
-97.7442
0
LINE
8
BLACK
6
CONTINUOUS
10
102.997
20
-97.7442
11
103.001
21
-97.7468
0
LINE
8
BLACK
6
CONTINUOUS
10
103.001
20
-97.7468
11
103.001
21
-97.7468
0
LINE
8
BLACK
6
CONTINUOUS
10
103.001
20
-97.7468
11
103.195
21
-97.8657
0
LINE
8
BLACK
6
CONTINUOUS
10
103.195
20
-97.8657
11
103.199
21
-97.8682
0
LINE
8
BLACK
6
CONTINUOUS
10
103.199
20
-97.8682
11
103.204
21
-97.8701
0
LINE
8
BLACK
6
CONTINUOUS
10
103.204
20
-97.8701
11
103.204
21
-97.8701
0
LINE
8
BLACK
6
CONTINUOUS
10
103.204
20
-97.8701
11
103.414
21
-97.9572
0
LINE
8
BLACK
6
CONTINUOUS
10
103.414
20
-97.9572
11
103.418
21
-97.9591
0
LINE
8
BLACK
6
CONTINUOUS
10
103.418
20
-97.9591
11
103.499
21
-97.9784
0
LINE
8
BLACK
6
CONTINUOUS
10
103.499
20
-97.9784
11
103.644
21
-98.0134
0
LINE
8
BLACK
6
CONTINUOUS
10
103.644
20
-98.0134
11
103.644
21
-98.0134
0
LINE
8
BLACK
6
CONTINUOUS
10
103.644
20
-98.0134
11
103.649
21
-98.0145
0
LINE
8
BLACK
6
CONTINUOUS
10
103.649
20
-98.0145
11
103.886
21
-98.0332
0
LINE
8
BLACK
6
CONTINUOUS
10
103.886
20
-98.0332
11
104.123
21
-98.0145
0
LINE
8
BLACK
6
CONTINUOUS
10
104.123
20
-98.0145
11
104.128
21
-98.0134
0
LINE
8
BLACK
6
CONTINUOUS
10
104.128
20
-98.0134
11
104.128
21
-98.0134
0
LINE
8
BLACK
6
CONTINUOUS
10
104.128
20
-98.0134
11
104.273
21
-97.9784
0
LINE
8
BLACK
6
CONTINUOUS
10
104.273
20
-97.9784
11
104.354
21
-97.9591
0
LINE
8
BLACK
6
CONTINUOUS
10
104.354
20
-97.9591
11
104.358
21
-97.9572
0
LINE
8
BLACK
6
CONTINUOUS
10
104.358
20
-97.9572
11
104.568
21
-97.8701
0
LINE
8
BLACK
6
CONTINUOUS
10
104.568
20
-97.8701
11
104.568
21
-97.8701
0
LINE
8
BLACK
6
CONTINUOUS
10
104.568
20
-97.8701
11
104.573
21
-97.8682
0
LINE
8
BLACK
6
CONTINUOUS
10
104.573
20
-97.8682
11
104.577
21
-97.8657
0
LINE
8
BLACK
6
CONTINUOUS
10
104.577
20
-97.8657
11
104.771
21
-97.7468
0
LINE
8
BLACK
6
CONTINUOUS
10
104.771
20
-97.7468
11
104.771
21
-97.7468
0
LINE
8
BLACK
6
CONTINUOUS
10
104.771
20
-97.7468
11
104.775
21
-97.7442
0
LINE
8
BLACK
6
CONTINUOUS
10
104.775
20
-97.7442
11
104.956
21
-97.59
0
LINE
8
BLACK
6
CONTINUOUS
10
104.956
20
-97.59
11
105.11
21
-97.4094
0
LINE
8
BLACK
6
CONTINUOUS
10
105.11
20
-97.4094
11
105.113
21
-97.4052
0
LINE
8
BLACK
6
CONTINUOUS
10
105.113
20
-97.4052
11
105.113
21
-97.4052
0
LINE
8
BLACK
6
CONTINUOUS
10
105.113
20
-97.4052
11
105.232
21
-97.2112
0
LINE
8
BLACK
6
CONTINUOUS
10
105.232
20
-97.2112
11
105.234
21
-97.207
0
LINE
8
BLACK
6
CONTINUOUS
10
105.234
20
-97.207
11
105.26
21
-97.1436
0
LINE
8
BLACK
6
CONTINUOUS
10
105.26
20
-97.1436
11
105.305
21
-97.0883
0
LINE
8
BLACK
6
CONTINUOUS
10
105.305
20
-97.0883
11
105.372
21
-97.0659
0
LINE
8
BLACK
6
CONTINUOUS
10
105.372
20
-97.0659
11
105.441
21
-97.0835
0
LINE
8
BLACK
6
CONTINUOUS
10
105.441
20
-97.0835
11
105.49
21
-97.1354
0
LINE
8
BLACK
6
CONTINUOUS
10
105.49
20
-97.1354
11
105.496
21
-97.1513
0
LINE
8
BLACK
6
CONTINUOUS
10
105.496
20
-97.1513
11
105.578
21
-97.3928
0
LINE
8
BLACK
6
CONTINUOUS
10
105.578
20
-97.3928
11
105.579
21
-97.3967
0
LINE
8
BLACK
6
CONTINUOUS
10
105.579
20
-97.3967
11
105.603
21
-97.4447
0
LINE
8
BLACK
6
CONTINUOUS
10
105.603
20
-97.4447
11
105.69
21
-97.6199
0
LINE
8
BLACK
6
CONTINUOUS
10
105.69
20
-97.6199
11
105.712
21
-97.6655
0
LINE
8
BLACK
6
CONTINUOUS
10
105.712
20
-97.6655
11
105.714
21
-97.6689
0
LINE
8
BLACK
6
CONTINUOUS
10
105.714
20
-97.6689
11
105.875
21
-97.9094
0
LINE
8
BLACK
6
CONTINUOUS
10
105.875
20
-97.9094
11
105.879
21
-97.9146
0
LINE
8
BLACK
6
CONTINUOUS
10
105.879
20
-97.9146
11
105.881
21
-97.9177
0
LINE
8
BLACK
6
CONTINUOUS
10
105.881
20
-97.9177
11
105.881
21
-97.9177
0
LINE
8
BLACK
6
CONTINUOUS
10
105.881
20
-97.9177
11
106.061
21
-98.1221
0
LINE
8
BLACK
6
CONTINUOUS
10
106.061
20
-98.1221
11
106.076
21
-98.1399
0
LINE
8
BLACK
6
CONTINUOUS
10
106.076
20
-98.1399
11
106.079
21
-98.1426
0
LINE
8
BLACK
6
CONTINUOUS
10
106.079
20
-98.1426
11
106.298
21
-98.3348
0
LINE
8
BLACK
6
CONTINUOUS
10
106.298
20
-98.3348
11
106.298
21
-98.3348
0
LINE
8
BLACK
6
CONTINUOUS
10
106.298
20
-98.3348
11
106.301
21
-98.3375
0
LINE
8
BLACK
6
CONTINUOUS
10
106.301
20
-98.3375
11
106.305
21
-98.3398
0
LINE
8
BLACK
6
CONTINUOUS
10
106.305
20
-98.3398
11
106.305
21
-98.3398
0
LINE
8
BLACK
6
CONTINUOUS
10
106.305
20
-98.3398
11
106.409
21
-98.4094
0
LINE
8
BLACK
6
CONTINUOUS
10
106.409
20
-98.4094
11
106.551
21
-98.504
0
LINE
8
BLACK
6
CONTINUOUS
10
106.551
20
-98.504
11
106.554
21
-98.5058
0
LINE
8
BLACK
6
CONTINUOUS
10
106.554
20
-98.5058
11
106.554
21
-98.5058
0
LINE
8
BLACK
6
CONTINUOUS
10
106.554
20
-98.5058
11
106.692
21
-98.5737
0
LINE
8
BLACK
6
CONTINUOUS
10
106.692
20
-98.5737
11
106.819
21
-98.6365
0
LINE
8
BLACK
6
CONTINUOUS
10
106.819
20
-98.6365
11
106.823
21
-98.6378
0
LINE
8
BLACK
6
CONTINUOUS
10
106.823
20
-98.6378
11
106.823
21
-98.6378
0
LINE
8
BLACK
6
CONTINUOUS
10
106.823
20
-98.6378
11
107.099
21
-98.7315
0
LINE
8
BLACK
6
CONTINUOUS
10
107.099
20
-98.7315
11
107.099
21
-98.7315
0
LINE
8
BLACK
6
CONTINUOUS
10
107.099
20
-98.7315
11
107.103
21
-98.7328
0
LINE
8
BLACK
6
CONTINUOUS
10
107.103
20
-98.7328
11
107.107
21
-98.7336
0
LINE
8
BLACK
6
CONTINUOUS
10
107.107
20
-98.7336
11
107.107
21
-98.7336
0
LINE
8
BLACK
6
CONTINUOUS
10
107.107
20
-98.7336
11
107.393
21
-98.7905
0
LINE
8
BLACK
6
CONTINUOUS
10
107.393
20
-98.7905
11
107.393
21
-98.7905
0
LINE
8
BLACK
6
CONTINUOUS
10
107.393
20
-98.7905
11
107.397
21
-98.7913
0
LINE
8
BLACK
6
CONTINUOUS
10
107.397
20
-98.7913
11
107.401
21
-98.7916
0
LINE
8
BLACK
6
CONTINUOUS
10
107.401
20
-98.7916
11
107.401
21
-98.7916
0
LINE
8
BLACK
6
CONTINUOUS
10
107.401
20
-98.7916
11
107.692
21
-98.8106
0
LINE
8
BLACK
6
CONTINUOUS
10
107.692
20
-98.8106
11
107.696
21
-98.8109
0
LINE
8
BLACK
6
CONTINUOUS
10
107.696
20
-98.8109
11
107.7
21
-98.8106
0
LINE
8
BLACK
6
CONTINUOUS
10
107.7
20
-98.8106
11
107.991
21
-98.7916
0
LINE
8
BLACK
6
CONTINUOUS
10
107.991
20
-98.7916
11
107.991
21
-98.7916
0
LINE
8
BLACK
6
CONTINUOUS
10
107.991
20
-98.7916
11
107.995
21
-98.7913
0
LINE
8
BLACK
6
CONTINUOUS
10
107.995
20
-98.7913
11
107.999
21
-98.7905
0
LINE
8
BLACK
6
CONTINUOUS
10
107.999
20
-98.7905
11
107.999
21
-98.7905
0
LINE
8
BLACK
6
CONTINUOUS
10
107.999
20
-98.7905
11
108.285
21
-98.7336
0
LINE
8
BLACK
6
CONTINUOUS
10
108.285
20
-98.7336
11
108.285
21
-98.7336
0
LINE
8
BLACK
6
CONTINUOUS
10
108.285
20
-98.7336
11
108.289
21
-98.7328
0
LINE
8
BLACK
6
CONTINUOUS
10
108.289
20
-98.7328
11
108.293
21
-98.7315
0
LINE
8
BLACK
6
CONTINUOUS
10
108.293
20
-98.7315
11
108.293
21
-98.7315
0
LINE
8
BLACK
6
CONTINUOUS
10
108.293
20
-98.7315
11
108.569
21
-98.6378
0
LINE
8
BLACK
6
CONTINUOUS
10
108.569
20
-98.6378
11
108.569
21
-98.6378
0
LINE
8
BLACK
6
CONTINUOUS
10
108.569
20
-98.6378
11
108.573
21
-98.6365
0
LINE
8
BLACK
6
CONTINUOUS
10
108.573
20
-98.6365
11
108.7
21
-98.5737
0
LINE
8
BLACK
6
CONTINUOUS
10
108.7
20
-98.5737
11
108.838
21
-98.5058
0
LINE
8
BLACK
6
CONTINUOUS
10
108.838
20
-98.5058
11
108.838
21
-98.5058
0
LINE
8
BLACK
6
CONTINUOUS
10
108.838
20
-98.5058
11
108.841
21
-98.504
0
LINE
8
BLACK
6
CONTINUOUS
10
108.841
20
-98.504
11
108.983
21
-98.4094
0
LINE
8
BLACK
6
CONTINUOUS
10
108.983
20
-98.4094
11
109.087
21
-98.3398
0
LINE
8
BLACK
6
CONTINUOUS
10
109.087
20
-98.3398
11
109.087
21
-98.3398
0
LINE
8
BLACK
6
CONTINUOUS
10
109.087
20
-98.3398
11
109.091
21
-98.3375
0
LINE
8
BLACK
6
CONTINUOUS
10
109.091
20
-98.3375
11
109.094
21
-98.3348
0
LINE
8
BLACK
6
CONTINUOUS
10
109.094
20
-98.3348
11
109.094
21
-98.3348
0
LINE
8
BLACK
6
CONTINUOUS
10
109.094
20
-98.3348
11
109.313
21
-98.1426
0
LINE
8
BLACK
6
CONTINUOUS
10
109.313
20
-98.1426
11
109.316
21
-98.1399
0
LINE
8
BLACK
6
CONTINUOUS
10
109.316
20
-98.1399
11
109.331
21
-98.1221
0
LINE
8
BLACK
6
CONTINUOUS
10
109.331
20
-98.1221
11
109.511
21
-97.9177
0
LINE
8
BLACK
6
CONTINUOUS
10
109.511
20
-97.9177
11
109.511
21
-97.9177
0
LINE
8
BLACK
6
CONTINUOUS
10
109.511
20
-97.9177
11
109.513
21
-97.9146
0
LINE
8
BLACK
6
CONTINUOUS
10
109.513
20
-97.9146
11
109.517
21
-97.9094
0
LINE
8
BLACK
6
CONTINUOUS
10
109.517
20
-97.9094
11
109.678
21
-97.6689
0
LINE
8
BLACK
6
CONTINUOUS
10
109.678
20
-97.6689
11
109.68
21
-97.6655
0
LINE
8
BLACK
6
CONTINUOUS
10
109.68
20
-97.6655
11
109.702
21
-97.6199
0
LINE
8
BLACK
6
CONTINUOUS
10
109.702
20
-97.6199
11
109.789
21
-97.4447
0
LINE
8
BLACK
6
CONTINUOUS
10
109.789
20
-97.4447
11
109.813
21
-97.3967
0
LINE
8
BLACK
6
CONTINUOUS
10
109.813
20
-97.3967
11
109.814
21
-97.3928
0
LINE
8
BLACK
6
CONTINUOUS
10
109.814
20
-97.3928
11
109.908
21
-97.1168
0
LINE
8
BLACK
6
CONTINUOUS
10
109.908
20
-97.1168
11
109.908
21
-97.1168
0
LINE
8
BLACK
6
CONTINUOUS
10
109.908
20
-97.1168
11
109.909
21
-97.1129
0
LINE
8
BLACK
6
CONTINUOUS
10
109.909
20
-97.1129
11
109.915
21
-97.0835
0
LINE
8
BLACK
6
CONTINUOUS
10
109.915
20
-97.0835
11
109.967
21
-96.8231
0
LINE
8
BLACK
6
CONTINUOUS
10
109.967
20
-96.8231
11
109.967
21
-96.8231
0
LINE
8
BLACK
6
CONTINUOUS
10
109.967
20
-96.8231
11
109.967
21
-96.819
0
LINE
8
BLACK
6
CONTINUOUS
10
109.967
20
-96.819
11
109.97
21
-96.7745
0
LINE
8
BLACK
6
CONTINUOUS
10
109.97
20
-96.7745
11
109.972
21
-96.7516
0
LINE
8
BLACK
6
CONTINUOUS
10
109.972
20
-96.7516
11
109.987
21
-96.5241
0
LINE
8
BLACK
6
CONTINUOUS
10
157.993
20
-96.5159
11
157.974
21
-96.0078
0
LINE
8
BLACK
6
CONTINUOUS
10
157.974
20
-96.0078
11
157.974
21
-96.0078
0
LINE
8
BLACK
6
CONTINUOUS
10
157.974
20
-96.0078
11
157.974
21
-96.0054
0
LINE
8
BLACK
6
CONTINUOUS
10
157.974
20
-96.0054
11
157.916
21
-95.4937
0
LINE
8
BLACK
6
CONTINUOUS
10
157.916
20
-95.4937
11
157.82
21
-94.9878
0
LINE
8
BLACK
6
CONTINUOUS
10
157.82
20
-94.9878
11
157.686
21
-94.4905
0
LINE
8
BLACK
6
CONTINUOUS
10
157.686
20
-94.4905
11
157.535
21
-94.0614
0
LINE
8
BLACK
6
CONTINUOUS
10
157.535
20
-94.0614
11
157.516
21
-94.0069
0
LINE
8
BLACK
6
CONTINUOUS
10
157.516
20
-94.0069
11
157.516
21
-94.0069
0
LINE
8
BLACK
6
CONTINUOUS
10
157.516
20
-94.0069
11
157.515
21
-94.0047
0
LINE
8
BLACK
6
CONTINUOUS
10
157.515
20
-94.0047
11
157.358
21
-93.6462
0
LINE
8
BLACK
6
CONTINUOUS
10
157.358
20
-93.6462
11
157.31
21
-93.5352
0
LINE
8
BLACK
6
CONTINUOUS
10
157.31
20
-93.5352
11
157.31
21
-93.5352
0
LINE
8
BLACK
6
CONTINUOUS
10
157.31
20
-93.5352
11
157.309
21
-93.533
0
LINE
8
BLACK
6
CONTINUOUS
10
157.309
20
-93.533
11
157.147
21
-93.2279
0
LINE
8
BLACK
6
CONTINUOUS
10
157.147
20
-93.2279
11
157.069
21
-93.0802
0
LINE
8
BLACK
6
CONTINUOUS
10
157.069
20
-93.0802
11
157.069
21
-93.0802
0
LINE
8
BLACK
6
CONTINUOUS
10
157.069
20
-93.0802
11
157.068
21
-93.0781
0
LINE
8
BLACK
6
CONTINUOUS
10
157.068
20
-93.0781
11
156.951
21
-92.8938
0
LINE
8
BLACK
6
CONTINUOUS
10
156.951
20
-92.8938
11
156.794
21
-92.6446
0
LINE
8
BLACK
6
CONTINUOUS
10
156.794
20
-92.6446
11
156.794
21
-92.6446
0
LINE
8
BLACK
6
CONTINUOUS
10
156.794
20
-92.6446
11
156.793
21
-92.6426
0
LINE
8
BLACK
6
CONTINUOUS
10
156.793
20
-92.6426
11
156.791
21
-92.6407
0
LINE
8
BLACK
6
CONTINUOUS
10
156.791
20
-92.6407
11
156.791
21
-92.6407
0
LINE
8
BLACK
6
CONTINUOUS
10
156.791
20
-92.6407
11
156.529
21
-92.2872
0
LINE
8
BLACK
6
CONTINUOUS
10
156.529
20
-92.2872
11
156.486
21
-92.2289
0
LINE
8
BLACK
6
CONTINUOUS
10
156.486
20
-92.2289
11
156.419
21
-92.1514
0
LINE
8
BLACK
6
CONTINUOUS
10
156.419
20
-92.1514
11
156.151
21
-91.8412
0
LINE
8
BLACK
6
CONTINUOUS
10
156.151
20
-91.8412
11
156.151
21
-91.8412
0
LINE
8
BLACK
6
CONTINUOUS
10
156.151
20
-91.8412
11
156.149
21
-91.8394
0
LINE
8
BLACK
6
CONTINUOUS
10
156.149
20
-91.8394
11
155.784
21
-91.4763
0
LINE
8
BLACK
6
CONTINUOUS
10
155.784
20
-91.4763
11
155.393
21
-91.1415
0
LINE
8
BLACK
6
CONTINUOUS
10
155.393
20
-91.1415
11
155.387
21
-91.1373
0
LINE
8
BLACK
6
CONTINUOUS
10
155.387
20
-91.1373
11
155.135
21
-90.9522
0
LINE
8
BLACK
6
CONTINUOUS
10
155.135
20
-90.9522
11
154.978
21
-90.837
0
LINE
8
BLACK
6
CONTINUOUS
10
154.978
20
-90.837
11
154.541
21
-90.5645
0
LINE
8
BLACK
6
CONTINUOUS
10
154.541
20
-90.5645
11
154.539
21
-90.5634
0
LINE
8
BLACK
6
CONTINUOUS
10
154.539
20
-90.5634
11
154.539
21
-90.5634
0
LINE
8
BLACK
6
CONTINUOUS
10
154.539
20
-90.5634
11
154.225
21
-90.3989
0
LINE
8
BLACK
6
CONTINUOUS
10
154.225
20
-90.3989
11
154.085
21
-90.3255
0
LINE
8
BLACK
6
CONTINUOUS
10
154.085
20
-90.3255
11
154.082
21
-90.3246
0
LINE
8
BLACK
6
CONTINUOUS
10
154.082
20
-90.3246
11
154.082
21
-90.3246
0
LINE
8
BLACK
6
CONTINUOUS
10
154.082
20
-90.3246
11
153.614
21
-90.1224
0
LINE
8
BLACK
6
CONTINUOUS
10
153.614
20
-90.1224
11
153.614
21
-90.1224
0
LINE
8
BLACK
6
CONTINUOUS
10
153.614
20
-90.1224
11
153.612
21
-90.1214
0
LINE
8
BLACK
6
CONTINUOUS
10
153.612
20
-90.1214
11
153.125
21
-89.9534
0
LINE
8
BLACK
6
CONTINUOUS
10
153.125
20
-89.9534
11
153.123
21
-89.9528
0
LINE
8
BLACK
6
CONTINUOUS
10
153.123
20
-89.9528
11
153.123
21
-89.9528
0
LINE
8
BLACK
6
CONTINUOUS
10
153.123
20
-89.9528
11
152.629
21
-89.8228
0
LINE
8
BLACK
6
CONTINUOUS
10
152.629
20
-89.8228
11
152.629
21
-89.8228
0
LINE
8
BLACK
6
CONTINUOUS
10
152.629
20
-89.8228
11
152.627
21
-89.8222
0
LINE
8
BLACK
6
CONTINUOUS
10
152.627
20
-89.8222
11
152.625
21
-89.8218
0
LINE
8
BLACK
6
CONTINUOUS
10
152.625
20
-89.8218
11
152.625
21
-89.8218
0
LINE
8
BLACK
6
CONTINUOUS
10
152.625
20
-89.8218
11
152.361
21
-89.7732
0
LINE
8
BLACK
6
CONTINUOUS
10
152.361
20
-89.7732
11
152.121
21
-89.7288
0
LINE
8
BLACK
6
CONTINUOUS
10
152.121
20
-89.7288
11
151.609
21
-89.6737
0
LINE
8
BLACK
6
CONTINUOUS
10
151.609
20
-89.6737
11
151.606
21
-89.6736
0
LINE
8
BLACK
6
CONTINUOUS
10
151.606
20
-89.6736
11
151.606
21
-89.6736
0
LINE
8
BLACK
6
CONTINUOUS
10
151.606
20
-89.6736
11
151.096
21
-89.6571
0
LINE
8
BLACK
6
CONTINUOUS
10
151.096
20
-89.6571
11
151.096
21
-89.6571
0
LINE
8
BLACK
6
CONTINUOUS
10
151.096
20
-89.6571
11
151.094
21
-89.6571
0
LINE
8
BLACK
6
CONTINUOUS
10
151.094
20
-89.6571
11
150.58
21
-89.6791
0
LINE
8
BLACK
6
CONTINUOUS
10
150.58
20
-89.6791
11
150.342
21
-89.7072
0
LINE
8
BLACK
6
CONTINUOUS
10
150.342
20
-89.7072
11
150.071
21
-89.7393
0
LINE
8
BLACK
6
CONTINUOUS
10
150.071
20
-89.7393
11
150.071
21
-89.7393
0
LINE
8
BLACK
6
CONTINUOUS
10
150.071
20
-89.7393
11
150.068
21
-89.7396
0
LINE
8
BLACK
6
CONTINUOUS
10
150.068
20
-89.7396
11
150.066
21
-89.74
0
LINE
8
BLACK
6
CONTINUOUS
10
150.066
20
-89.74
11
150.066
21
-89.74
0
LINE
8
BLACK
6
CONTINUOUS
10
150.066
20
-89.74
11
149.565
21
-89.8378
0
LINE
8
BLACK
6
CONTINUOUS
10
149.565
20
-89.8378
11
149.565
21
-89.8378
0
LINE
8
BLACK
6
CONTINUOUS
10
149.565
20
-89.8378
11
149.563
21
-89.8383
0
LINE
8
BLACK
6
CONTINUOUS
10
149.563
20
-89.8383
11
149.066
21
-89.9746
0
LINE
8
BLACK
6
CONTINUOUS
10
149.066
20
-89.9746
11
149.064
21
-89.9754
0
LINE
8
BLACK
6
CONTINUOUS
10
149.064
20
-89.9754
11
149.064
21
-89.9754
0
LINE
8
BLACK
6
CONTINUOUS
10
149.064
20
-89.9754
11
148.584
21
-90.147
0
LINE
8
BLACK
6
CONTINUOUS
10
148.584
20
-90.147
11
148.581
21
-90.1478
0
LINE
8
BLACK
6
CONTINUOUS
10
148.581
20
-90.1478
11
148.302
21
-90.2718
0
LINE
8
BLACK
6
CONTINUOUS
10
148.302
20
-90.2718
11
148.113
21
-90.3558
0
LINE
8
BLACK
6
CONTINUOUS
10
148.113
20
-90.3558
11
148.113
21
-90.3558
0
LINE
8
BLACK
6
CONTINUOUS
10
148.113
20
-90.3558
11
148.111
21
-90.3568
0
LINE
8
BLACK
6
CONTINUOUS
10
148.111
20
-90.3568
11
148.109
21
-90.3579
0
LINE
8
BLACK
6
CONTINUOUS
10
148.109
20
-90.3579
11
148.109
21
-90.3579
0
LINE
8
BLACK
6
CONTINUOUS
10
148.109
20
-90.3579
11
147.659
21
-90.5994
0
LINE
8
BLACK
6
CONTINUOUS
10
147.659
20
-90.5994
11
147.659
21
-90.5994
0
LINE
8
BLACK
6
CONTINUOUS
10
147.659
20
-90.5994
11
147.657
21
-90.6005
0
LINE
8
BLACK
6
CONTINUOUS
10
147.657
20
-90.6005
11
147.223
21
-90.8776
0
LINE
8
BLACK
6
CONTINUOUS
10
147.223
20
-90.8776
11
147.221
21
-90.879
0
LINE
8
BLACK
6
CONTINUOUS
10
147.221
20
-90.879
11
147.221
21
-90.879
0
LINE
8
BLACK
6
CONTINUOUS
10
147.221
20
-90.879
11
147.075
21
-90.9885
0
LINE
8
BLACK
6
CONTINUOUS
10
147.075
20
-90.9885
11
146.811
21
-91.1864
0
LINE
8
BLACK
6
CONTINUOUS
10
146.811
20
-91.1864
11
146.809
21
-91.188
0
LINE
8
BLACK
6
CONTINUOUS
10
146.809
20
-91.188
11
146.809
21
-91.188
0
LINE
8
BLACK
6
CONTINUOUS
10
146.809
20
-91.188
11
146.56
21
-91.4055
0
LINE
8
BLACK
6
CONTINUOUS
10
146.56
20
-91.4055
11
146.423
21
-91.5253
0
LINE
8
BLACK
6
CONTINUOUS
10
146.423
20
-91.5253
11
146.062
21
-91.8922
0
LINE
8
BLACK
6
CONTINUOUS
10
146.062
20
-91.8922
11
145.878
21
-92.11
0
LINE
8
BLACK
6
CONTINUOUS
10
145.878
20
-92.11
11
145.749
21
-92.2623
0
LINE
8
BLACK
6
CONTINUOUS
10
145.749
20
-92.2623
11
145.729
21
-92.2853
0
LINE
8
BLACK
6
CONTINUOUS
10
145.729
20
-92.2853
11
145.427
21
-92.7021
0
LINE
8
BLACK
6
CONTINUOUS
10
145.427
20
-92.7021
11
145.426
21
-92.7041
0
LINE
8
BLACK
6
CONTINUOUS
10
145.426
20
-92.7041
11
145.426
21
-92.7041
0
LINE
8
BLACK
6
CONTINUOUS
10
145.426
20
-92.7041
11
145.158
21
-93.1385
0
LINE
8
BLACK
6
CONTINUOUS
10
145.158
20
-93.1385
11
145.158
21
-93.1385
0
LINE
8
BLACK
6
CONTINUOUS
10
145.158
20
-93.1385
11
145.157
21
-93.1405
0
LINE
8
BLACK
6
CONTINUOUS
10
145.157
20
-93.1405
11
144.92
21
-93.5979
0
LINE
8
BLACK
6
CONTINUOUS
10
144.92
20
-93.5979
11
144.919
21
-93.6
0
LINE
8
BLACK
6
CONTINUOUS
10
144.919
20
-93.6
11
144.919
21
-93.6
0
LINE
8
BLACK
6
CONTINUOUS
10
144.919
20
-93.6
11
144.722
21
-94.0638
0
LINE
8
BLACK
6
CONTINUOUS
10
144.722
20
-94.0638
11
144.719
21
-94.0717
0
LINE
8
BLACK
6
CONTINUOUS
10
144.719
20
-94.0717
11
144.718
21
-94.0739
0
LINE
8
BLACK
6
CONTINUOUS
10
144.718
20
-94.0739
11
144.576
21
-94.4905
0
LINE
8
BLACK
6
CONTINUOUS
10
144.576
20
-94.4905
11
144.553
21
-94.5593
0
LINE
8
BLACK
6
CONTINUOUS
10
144.553
20
-94.5593
11
144.552
21
-94.5616
0
LINE
8
BLACK
6
CONTINUOUS
10
144.552
20
-94.5616
11
144.552
21
-94.5616
0
LINE
8
BLACK
6
CONTINUOUS
10
144.552
20
-94.5616
11
144.501
21
-94.7604
0
LINE
8
BLACK
6
CONTINUOUS
10
144.501
20
-94.7604
11
144.425
21
-95.058
0
LINE
8
BLACK
6
CONTINUOUS
10
144.425
20
-95.058
11
144.424
21
-95.0603
0
LINE
8
BLACK
6
CONTINUOUS
10
144.424
20
-95.0603
11
144.424
21
-95.0603
0
LINE
8
BLACK
6
CONTINUOUS
10
144.424
20
-95.0603
11
144.42
21
-95.0809
0
LINE
8
BLACK
6
CONTINUOUS
10
144.42
20
-95.0809
11
144.334
21
-95.5648
0
LINE
8
BLACK
6
CONTINUOUS
10
144.334
20
-95.5648
11
144.281
21
-96.0771
0
LINE
8
BLACK
6
CONTINUOUS
10
144.281
20
-96.0771
11
144.281
21
-96.0794
0
LINE
8
BLACK
6
CONTINUOUS
10
144.281
20
-96.0794
11
144.281
21
-96.0795
0
LINE
8
BLACK
6
CONTINUOUS
10
144.281
20
-96.0795
11
144.277
21
-96.221
0
LINE
8
BLACK
6
CONTINUOUS
10
144.277
20
-96.221
11
144.273
21
-96.3773
0
LINE
8
BLACK
6
CONTINUOUS
10
144.273
20
-96.3773
11
144.267
21
-96.5919
0
LINE
8
BLACK
6
CONTINUOUS
10
144.267
20
-96.5919
11
144.292
21
-97.1062
0
LINE
8
BLACK
6
CONTINUOUS
10
144.292
20
-97.1062
11
144.355
21
-97.6173
0
LINE
8
BLACK
6
CONTINUOUS
10
144.355
20
-97.6173
11
144.356
21
-97.6196
0
LINE
8
BLACK
6
CONTINUOUS
10
144.356
20
-97.6196
11
144.356
21
-97.6196
0
LINE
8
BLACK
6
CONTINUOUS
10
144.356
20
-97.6196
11
144.418
21
-97.9323
0
LINE
8
BLACK
6
CONTINUOUS
10
144.418
20
-97.9323
11
144.457
21
-98.1221
0
LINE
8
BLACK
6
CONTINUOUS
10
144.457
20
-98.1221
11
144.457
21
-98.1244
0
LINE
8
BLACK
6
CONTINUOUS
10
144.457
20
-98.1244
11
144.589
21
-98.5936
0
LINE
8
BLACK
6
CONTINUOUS
10
144.589
20
-98.5936
11
144.596
21
-98.618
0
LINE
8
BLACK
6
CONTINUOUS
10
144.596
20
-98.618
11
144.771
21
-99.102
0
LINE
8
BLACK
6
CONTINUOUS
10
144.771
20
-99.102
11
144.772
21
-99.1042
0
LINE
8
BLACK
6
CONTINUOUS
10
144.772
20
-99.1042
11
144.772
21
-99.1042
0
LINE
8
BLACK
6
CONTINUOUS
10
144.772
20
-99.1042
11
144.847
21
-99.2708
0
LINE
8
BLACK
6
CONTINUOUS
10
144.847
20
-99.2708
11
144.983
21
-99.5715
0
LINE
8
BLACK
6
CONTINUOUS
10
144.983
20
-99.5715
11
145.229
21
-100.024
0
LINE
8
BLACK
6
CONTINUOUS
10
145.229
20
-100.024
11
145.508
21
-100.456
0
LINE
8
BLACK
6
CONTINUOUS
10
145.508
20
-100.456
11
145.51
21
-100.458
0
LINE
8
BLACK
6
CONTINUOUS
10
145.51
20
-100.458
11
145.51
21
-100.458
0
LINE
8
BLACK
6
CONTINUOUS
10
145.51
20
-100.458
11
145.809
21
-100.854
0
LINE
8
BLACK
6
CONTINUOUS
10
145.809
20
-100.854
11
145.819
21
-100.867
0
LINE
8
BLACK
6
CONTINUOUS
10
145.819
20
-100.867
11
145.821
21
-100.869
0
LINE
8
BLACK
6
CONTINUOUS
10
145.821
20
-100.869
11
146.104
21
-101.19
0
LINE
8
BLACK
6
CONTINUOUS
10
146.104
20
-101.19
11
146.16
21
-101.253
0
LINE
8
BLACK
6
CONTINUOUS
10
146.16
20
-101.253
11
146.529
21
-101.612
0
LINE
8
BLACK
6
CONTINUOUS
10
146.529
20
-101.612
11
146.924
21
-101.943
0
LINE
8
BLACK
6
CONTINUOUS
10
146.924
20
-101.943
11
147.342
21
-102.243
0
LINE
8
BLACK
6
CONTINUOUS
10
147.342
20
-102.243
11
147.782
21
-102.511
0
LINE
8
BLACK
6
CONTINUOUS
10
147.782
20
-102.511
11
147.784
21
-102.512
0
LINE
8
BLACK
6
CONTINUOUS
10
147.784
20
-102.512
11
147.784
21
-102.512
0
LINE
8
BLACK
6
CONTINUOUS
10
147.784
20
-102.512
11
148.238
21
-102.744
0
LINE
8
BLACK
6
CONTINUOUS
10
148.238
20
-102.744
11
148.238
21
-102.744
0
LINE
8
BLACK
6
CONTINUOUS
10
148.238
20
-102.744
11
148.24
21
-102.745
0
LINE
8
BLACK
6
CONTINUOUS
10
148.24
20
-102.745
11
148.715
21
-102.944
0
LINE
8
BLACK
6
CONTINUOUS
10
148.715
20
-102.944
11
149.204
21
-103.107
0
LINE
8
BLACK
6
CONTINUOUS
10
149.204
20
-103.107
11
149.703
21
-103.233
0
LINE
8
BLACK
6
CONTINUOUS
10
149.703
20
-103.233
11
149.705
21
-103.233
0
LINE
8
BLACK
6
CONTINUOUS
10
149.705
20
-103.233
11
149.705
21
-103.233
0
LINE
8
BLACK
6
CONTINUOUS
10
149.705
20
-103.233
11
149.983
21
-103.282
0
LINE
8
BLACK
6
CONTINUOUS
10
149.983
20
-103.282
11
150.21
21
-103.321
0
LINE
8
BLACK
6
CONTINUOUS
10
150.21
20
-103.321
11
150.213
21
-103.321
0
LINE
8
BLACK
6
CONTINUOUS
10
150.213
20
-103.321
11
150.213
21
-103.321
0
LINE
8
BLACK
6
CONTINUOUS
10
150.213
20
-103.321
11
150.721
21
-103.371
0
LINE
8
BLACK
6
CONTINUOUS
10
150.721
20
-103.371
11
150.721
21
-103.371
0
LINE
8
BLACK
6
CONTINUOUS
10
150.721
20
-103.371
11
150.723
21
-103.371
0
LINE
8
BLACK
6
CONTINUOUS
10
150.723
20
-103.371
11
150.725
21
-103.371
0
LINE
8
BLACK
6
CONTINUOUS
10
150.725
20
-103.371
11
150.725
21
-103.371
0
LINE
8
BLACK
6
CONTINUOUS
10
150.725
20
-103.371
11
151.038
21
-103.378
0
LINE
8
BLACK
6
CONTINUOUS
10
151.038
20
-103.378
11
151.238
21
-103.382
0
LINE
8
BLACK
6
CONTINUOUS
10
151.238
20
-103.382
11
151.479
21
-103.369
0
LINE
8
BLACK
6
CONTINUOUS
10
151.479
20
-103.369
11
151.75
21
-103.355
0
LINE
8
BLACK
6
CONTINUOUS
10
151.75
20
-103.355
11
151.75
21
-103.355
0
LINE
8
BLACK
6
CONTINUOUS
10
151.75
20
-103.355
11
151.752
21
-103.355
0
LINE
8
BLACK
6
CONTINUOUS
10
151.752
20
-103.355
11
152.026
21
-103.319
0
LINE
8
BLACK
6
CONTINUOUS
10
152.026
20
-103.319
11
152.26
21
-103.289
0
LINE
8
BLACK
6
CONTINUOUS
10
152.26
20
-103.289
11
152.26
21
-103.289
0
LINE
8
BLACK
6
CONTINUOUS
10
152.26
20
-103.289
11
152.263
21
-103.289
0
LINE
8
BLACK
6
CONTINUOUS
10
152.263
20
-103.289
11
152.767
21
-103.185
0
LINE
8
BLACK
6
CONTINUOUS
10
152.767
20
-103.185
11
152.769
21
-103.184
0
LINE
8
BLACK
6
CONTINUOUS
10
152.769
20
-103.184
11
152.769
21
-103.184
0
LINE
8
BLACK
6
CONTINUOUS
10
152.769
20
-103.184
11
153.26
21
-103.044
0
LINE
8
BLACK
6
CONTINUOUS
10
153.26
20
-103.044
11
153.26
21
-103.044
0
LINE
8
BLACK
6
CONTINUOUS
10
153.26
20
-103.044
11
153.262
21
-103.043
0
LINE
8
BLACK
6
CONTINUOUS
10
153.262
20
-103.043
11
153.264
21
-103.043
0
LINE
8
BLACK
6
CONTINUOUS
10
153.264
20
-103.043
11
153.264
21
-103.043
0
LINE
8
BLACK
6
CONTINUOUS
10
153.264
20
-103.043
11
153.743
21
-102.866
0
LINE
8
BLACK
6
CONTINUOUS
10
153.743
20
-102.866
11
153.743
21
-102.866
0
LINE
8
BLACK
6
CONTINUOUS
10
153.743
20
-102.866
11
153.745
21
-102.865
0
LINE
8
BLACK
6
CONTINUOUS
10
153.745
20
-102.865
11
154.214
21
-102.651
0
LINE
8
BLACK
6
CONTINUOUS
10
154.214
20
-102.651
11
154.665
21
-102.403
0
LINE
8
BLACK
6
CONTINUOUS
10
154.665
20
-102.403
11
154.667
21
-102.401
0
LINE
8
BLACK
6
CONTINUOUS
10
154.667
20
-102.401
11
154.667
21
-102.401
0
LINE
8
BLACK
6
CONTINUOUS
10
154.667
20
-102.401
11
155.094
21
-102.122
0
LINE
8
BLACK
6
CONTINUOUS
10
155.094
20
-102.122
11
155.096
21
-102.121
0
LINE
8
BLACK
6
CONTINUOUS
10
155.096
20
-102.121
11
155.109
21
-102.111
0
LINE
8
BLACK
6
CONTINUOUS
10
155.109
20
-102.111
11
155.318
21
-101.951
0
LINE
8
BLACK
6
CONTINUOUS
10
155.318
20
-101.951
11
155.505
21
-101.808
0
LINE
8
BLACK
6
CONTINUOUS
10
155.505
20
-101.808
11
155.889
21
-101.465
0
LINE
8
BLACK
6
CONTINUOUS
10
155.889
20
-101.465
11
155.931
21
-101.421
0
LINE
8
BLACK
6
CONTINUOUS
10
155.931
20
-101.421
11
156.245
21
-101.096
0
LINE
8
BLACK
6
CONTINUOUS
10
156.245
20
-101.096
11
156.246
21
-101.094
0
LINE
8
BLACK
6
CONTINUOUS
10
156.246
20
-101.094
11
156.575
21
-100.698
0
LINE
8
BLACK
6
CONTINUOUS
10
156.575
20
-100.698
11
156.873
21
-100.278
0
LINE
8
BLACK
6
CONTINUOUS
10
156.873
20
-100.278
11
156.962
21
-100.13
0
LINE
8
BLACK
6
CONTINUOUS
10
156.962
20
-100.13
11
157.137
21
-99.8388
0
LINE
8
BLACK
6
CONTINUOUS
10
157.137
20
-99.8388
11
157.137
21
-99.8388
0
LINE
8
BLACK
6
CONTINUOUS
10
157.137
20
-99.8388
11
157.138
21
-99.8368
0
LINE
8
BLACK
6
CONTINUOUS
10
157.138
20
-99.8368
11
157.172
21
-99.7701
0
LINE
8
BLACK
6
CONTINUOUS
10
157.172
20
-99.7701
11
157.369
21
-99.3791
0
LINE
8
BLACK
6
CONTINUOUS
10
157.369
20
-99.3791
11
157.369
21
-99.3791
0
LINE
8
BLACK
6
CONTINUOUS
10
157.369
20
-99.3791
11
157.37
21
-99.3769
0
LINE
8
BLACK
6
CONTINUOUS
10
157.37
20
-99.3769
11
157.567
21
-98.901
0
LINE
8
BLACK
6
CONTINUOUS
10
157.567
20
-98.901
11
157.727
21
-98.4117
0
LINE
8
BLACK
6
CONTINUOUS
10
157.727
20
-98.4117
11
157.839
21
-97.9591
0
LINE
8
BLACK
6
CONTINUOUS
10
157.839
20
-97.9591
11
157.85
21
-97.914
0
LINE
8
BLACK
6
CONTINUOUS
10
157.85
20
-97.914
11
157.85
21
-97.914
0
LINE
8
BLACK
6
CONTINUOUS
10
157.85
20
-97.914
11
157.85
21
-97.9117
0
LINE
8
BLACK
6
CONTINUOUS
10
157.85
20
-97.9117
11
157.936
21
-97.4039
0
LINE
8
BLACK
6
CONTINUOUS
10
157.936
20
-97.4039
11
157.936
21
-97.4004
0
LINE
8
BLACK
6
CONTINUOUS
10
157.936
20
-97.4004
11
157.983
21
-96.8932
0
LINE
8
BLACK
6
CONTINUOUS
10
157.983
20
-96.8932
11
157.983
21
-96.8911
0
LINE
8
BLACK
6
CONTINUOUS
10
157.983
20
-96.8911
11
157.987
21
-96.7516
0
LINE
8
BLACK
6
CONTINUOUS
10
157.987
20
-96.7516
11
157.993
21
-96.52
0
LINE
8
BLACK
6
CONTINUOUS
10
157.993
20
-96.52
11
157.993
21
-96.5159
0
LINE
8
BLACK
6
CONTINUOUS
10
118.985
20
-97.7855
11
119.097
21
-98.2819
0
LINE
8
BLACK
6
CONTINUOUS
10
119.097
20
-98.2819
11
119.098
21
-98.2841
0
LINE
8
BLACK
6
CONTINUOUS
10
119.098
20
-98.2841
11
119.098
21
-98.2841
0
LINE
8
BLACK
6
CONTINUOUS
10
119.098
20
-98.2841
11
119.199
21
-98.6157
0
LINE
8
BLACK
6
CONTINUOUS
10
119.199
20
-98.6157
11
119.246
21
-98.7686
0
LINE
8
BLACK
6
CONTINUOUS
10
119.246
20
-98.7686
11
119.431
21
-99.243
0
LINE
8
BLACK
6
CONTINUOUS
10
119.431
20
-99.243
11
119.65
21
-99.7024
0
LINE
8
BLACK
6
CONTINUOUS
10
119.65
20
-99.7024
11
119.902
21
-100.144
0
LINE
8
BLACK
6
CONTINUOUS
10
119.902
20
-100.144
11
120.187
21
-100.566
0
LINE
8
BLACK
6
CONTINUOUS
10
120.187
20
-100.566
11
120.188
21
-100.568
0
LINE
8
BLACK
6
CONTINUOUS
10
120.188
20
-100.568
11
120.188
21
-100.568
0
LINE
8
BLACK
6
CONTINUOUS
10
120.188
20
-100.568
11
120.237
21
-100.629
0
LINE
8
BLACK
6
CONTINUOUS
10
120.237
20
-100.629
11
120.502
21
-100.966
0
LINE
8
BLACK
6
CONTINUOUS
10
120.502
20
-100.966
11
120.504
21
-100.968
0
LINE
8
BLACK
6
CONTINUOUS
10
120.504
20
-100.968
11
120.504
21
-100.968
0
LINE
8
BLACK
6
CONTINUOUS
10
120.504
20
-100.968
11
120.705
21
-101.187
0
LINE
8
BLACK
6
CONTINUOUS
10
120.705
20
-101.187
11
120.846
21
-101.341
0
LINE
8
BLACK
6
CONTINUOUS
10
120.846
20
-101.341
11
120.848
21
-101.343
0
LINE
8
BLACK
6
CONTINUOUS
10
120.848
20
-101.343
11
120.848
21
-101.343
0
LINE
8
BLACK
6
CONTINUOUS
10
120.848
20
-101.343
11
121.141
21
-101.618
0
LINE
8
BLACK
6
CONTINUOUS
10
121.141
20
-101.618
11
121.217
21
-101.69
0
LINE
8
BLACK
6
CONTINUOUS
10
121.217
20
-101.69
11
121.219
21
-101.691
0
LINE
8
BLACK
6
CONTINUOUS
10
121.219
20
-101.691
11
121.234
21
-101.703
0
LINE
8
BLACK
6
CONTINUOUS
10
121.234
20
-101.703
11
121.588
21
-101.99
0
LINE
8
BLACK
6
CONTINUOUS
10
121.588
20
-101.99
11
121.593
21
-101.995
0
LINE
8
BLACK
6
CONTINUOUS
10
121.593
20
-101.995
11
121.598
21
-101.999
0
LINE
8
BLACK
6
CONTINUOUS
10
121.598
20
-101.999
11
121.599
21
-101.999
0
LINE
8
BLACK
6
CONTINUOUS
10
121.599
20
-101.999
11
121.602
21
-102.003
0
LINE
8
BLACK
6
CONTINUOUS
10
121.602
20
-102.003
11
121.612
21
-102.011
0
LINE
8
BLACK
6
CONTINUOUS
10
121.612
20
-102.011
11
121.616
21
-102.013
0
LINE
8
BLACK
6
CONTINUOUS
10
121.616
20
-102.013
11
121.62
21
-102.016
0
LINE
8
BLACK
6
CONTINUOUS
10
121.62
20
-102.016
11
121.62
21
-102.016
0
LINE
8
BLACK
6
CONTINUOUS
10
121.62
20
-102.016
11
121.624
21
-102.018
0
LINE
8
BLACK
6
CONTINUOUS
10
121.624
20
-102.018
11
121.624
21
-102.018
0
LINE
8
BLACK
6
CONTINUOUS
10
121.624
20
-102.018
11
121.632
21
-102.023
0
LINE
8
BLACK
6
CONTINUOUS
10
121.632
20
-102.023
11
121.638
21
-102.029
0
LINE
8
BLACK
6
CONTINUOUS
10
121.638
20
-102.029
11
121.679
21
-102.048
0
LINE
8
BLACK
6
CONTINUOUS
10
121.679
20
-102.048
11
121.686
21
-102.051
0
LINE
8
BLACK
6
CONTINUOUS
10
121.686
20
-102.051
11
121.693
21
-102.055
0
LINE
8
BLACK
6
CONTINUOUS
10
121.693
20
-102.055
11
121.732
21
-102.076
0
LINE
8
BLACK
6
CONTINUOUS
10
121.732
20
-102.076
11
121.74
21
-102.081
0
LINE
8
BLACK
6
CONTINUOUS
10
121.74
20
-102.081
11
121.748
21
-102.082
0
LINE
8
BLACK
6
CONTINUOUS
10
121.748
20
-102.082
11
121.755
21
-102.085
0
LINE
8
BLACK
6
CONTINUOUS
10
121.755
20
-102.085
11
121.762
21
-102.087
0
LINE
8
BLACK
6
CONTINUOUS
10
121.762
20
-102.087
11
121.77
21
-102.091
0
LINE
8
BLACK
6
CONTINUOUS
10
121.77
20
-102.091
11
121.781
21
-102.093
0
LINE
8
BLACK
6
CONTINUOUS
10
121.781
20
-102.093
11
121.822
21
-102.099
0
LINE
8
BLACK
6
CONTINUOUS
10
121.822
20
-102.099
11
121.83
21
-102.1
0
LINE
8
BLACK
6
CONTINUOUS
10
121.83
20
-102.1
11
121.871
21
-102.109
0
LINE
8
BLACK
6
CONTINUOUS
10
121.871
20
-102.109
11
121.882
21
-102.112
0
LINE
8
BLACK
6
CONTINUOUS
10
121.882
20
-102.112
11
121.891
21
-102.111
0
LINE
8
BLACK
6
CONTINUOUS
10
121.891
20
-102.111
11
121.891
21
-102.111
0
LINE
8
BLACK
6
CONTINUOUS
10
121.891
20
-102.111
11
121.934
21
-102.108
0
LINE
8
BLACK
6
CONTINUOUS
10
121.934
20
-102.108
11
121.942
21
-102.108
0
LINE
8
BLACK
6
CONTINUOUS
10
121.942
20
-102.108
11
129.51
21
-102.108
0
LINE
8
BLACK
6
CONTINUOUS
10
129.51
20
-102.108
11
129.522
21
-102.109
0
LINE
8
BLACK
6
CONTINUOUS
10
129.522
20
-102.109
11
129.557
21
-102.112
0
LINE
8
BLACK
6
CONTINUOUS
10
129.557
20
-102.112
11
129.557
21
-102.112
0
LINE
8
BLACK
6
CONTINUOUS
10
129.557
20
-102.112
11
129.566
21
-102.113
0
LINE
8
BLACK
6
CONTINUOUS
10
129.566
20
-102.113
11
129.575
21
-102.111
0
LINE
8
BLACK
6
CONTINUOUS
10
129.575
20
-102.111
11
129.575
21
-102.111
0
LINE
8
BLACK
6
CONTINUOUS
10
129.575
20
-102.111
11
129.593
21
-102.107
0
LINE
8
BLACK
6
CONTINUOUS
10
129.593
20
-102.107
11
129.622
21
-102.102
0
LINE
8
BLACK
6
CONTINUOUS
10
129.622
20
-102.102
11
129.628
21
-102.101
0
LINE
8
BLACK
6
CONTINUOUS
10
129.628
20
-102.101
11
129.642
21
-102.099
0
LINE
8
BLACK
6
CONTINUOUS
10
129.642
20
-102.099
11
129.675
21
-102.094
0
LINE
8
BLACK
6
CONTINUOUS
10
129.675
20
-102.094
11
129.675
21
-102.094
0
LINE
8
BLACK
6
CONTINUOUS
10
129.675
20
-102.094
11
129.684
21
-102.093
0
LINE
8
BLACK
6
CONTINUOUS
10
129.684
20
-102.093
11
129.692
21
-102.089
0
LINE
8
BLACK
6
CONTINUOUS
10
129.692
20
-102.089
11
129.696
21
-102.088
0
LINE
8
BLACK
6
CONTINUOUS
10
129.696
20
-102.088
11
129.7
21
-102.086
0
LINE
8
BLACK
6
CONTINUOUS
10
129.7
20
-102.086
11
129.709
21
-102.085
0
LINE
8
BLACK
6
CONTINUOUS
10
129.709
20
-102.085
11
129.759
21
-102.059
0
LINE
8
BLACK
6
CONTINUOUS
10
129.759
20
-102.059
11
129.765
21
-102.056
0
LINE
8
BLACK
6
CONTINUOUS
10
129.765
20
-102.056
11
129.808
21
-102.036
0
LINE
8
BLACK
6
CONTINUOUS
10
129.808
20
-102.036
11
129.808
21
-102.036
0
LINE
8
BLACK
6
CONTINUOUS
10
129.808
20
-102.036
11
129.817
21
-102.032
0
LINE
8
BLACK
6
CONTINUOUS
10
129.817
20
-102.032
11
129.823
21
-102.027
0
LINE
8
BLACK
6
CONTINUOUS
10
129.823
20
-102.027
11
129.827
21
-102.024
0
LINE
8
BLACK
6
CONTINUOUS
10
129.827
20
-102.024
11
129.829
21
-102.023
0
LINE
8
BLACK
6
CONTINUOUS
10
129.829
20
-102.023
11
129.829
21
-102.023
0
LINE
8
BLACK
6
CONTINUOUS
10
129.829
20
-102.023
11
129.833
21
-102.02
0
LINE
8
BLACK
6
CONTINUOUS
10
129.833
20
-102.02
11
129.838
21
-102.018
0
LINE
8
BLACK
6
CONTINUOUS
10
129.838
20
-102.018
11
129.848
21
-102.011
0
LINE
8
BLACK
6
CONTINUOUS
10
129.848
20
-102.011
11
129.851
21
-102.007
0
LINE
8
BLACK
6
CONTINUOUS
10
129.851
20
-102.007
11
129.853
21
-102.005
0
LINE
8
BLACK
6
CONTINUOUS
10
129.853
20
-102.005
11
130.241
21
-101.691
0
LINE
8
BLACK
6
CONTINUOUS
10
130.241
20
-101.691
11
130.243
21
-101.69
0
LINE
8
BLACK
6
CONTINUOUS
10
130.243
20
-101.69
11
130.319
21
-101.618
0
LINE
8
BLACK
6
CONTINUOUS
10
130.319
20
-101.618
11
130.612
21
-101.343
0
LINE
8
BLACK
6
CONTINUOUS
10
130.612
20
-101.343
11
130.612
21
-101.343
0
LINE
8
BLACK
6
CONTINUOUS
10
130.612
20
-101.343
11
130.614
21
-101.341
0
LINE
8
BLACK
6
CONTINUOUS
10
130.614
20
-101.341
11
130.755
21
-101.187
0
LINE
8
BLACK
6
CONTINUOUS
10
130.755
20
-101.187
11
130.956
21
-100.968
0
LINE
8
BLACK
6
CONTINUOUS
10
130.956
20
-100.968
11
130.956
21
-100.968
0
LINE
8
BLACK
6
CONTINUOUS
10
130.956
20
-100.968
11
130.958
21
-100.966
0
LINE
8
BLACK
6
CONTINUOUS
10
130.958
20
-100.966
11
131.223
21
-100.629
0
LINE
8
BLACK
6
CONTINUOUS
10
131.223
20
-100.629
11
131.272
21
-100.568
0
LINE
8
BLACK
6
CONTINUOUS
10
131.272
20
-100.568
11
131.272
21
-100.568
0
LINE
8
BLACK
6
CONTINUOUS
10
131.272
20
-100.568
11
131.273
21
-100.566
0
LINE
8
BLACK
6
CONTINUOUS
10
131.273
20
-100.566
11
131.558
21
-100.144
0
LINE
8
BLACK
6
CONTINUOUS
10
131.558
20
-100.144
11
131.81
21
-99.7024
0
LINE
8
BLACK
6
CONTINUOUS
10
131.81
20
-99.7024
11
132.029
21
-99.243
0
LINE
8
BLACK
6
CONTINUOUS
10
132.029
20
-99.243
11
132.214
21
-98.7686
0
LINE
8
BLACK
6
CONTINUOUS
10
132.214
20
-98.7686
11
132.261
21
-98.6157
0
LINE
8
BLACK
6
CONTINUOUS
10
132.261
20
-98.6157
11
132.362
21
-98.2841
0
LINE
8
BLACK
6
CONTINUOUS
10
132.362
20
-98.2841
11
132.362
21
-98.2841
0
LINE
8
BLACK
6
CONTINUOUS
10
132.362
20
-98.2841
11
132.363
21
-98.2819
0
LINE
8
BLACK
6
CONTINUOUS
10
132.363
20
-98.2819
11
132.475
21
-97.7855
0
LINE
8
BLACK
6
CONTINUOUS
10
132.475
20
-97.7855
11
132.55
21
-97.2821
0
LINE
8
BLACK
6
CONTINUOUS
10
132.55
20
-97.2821
11
132.588
21
-96.7745
0
LINE
8
BLACK
6
CONTINUOUS
10
132.588
20
-96.7745
11
132.588
21
-96.2655
0
LINE
8
BLACK
6
CONTINUOUS
10
132.588
20
-96.2655
11
132.55
21
-95.7579
0
LINE
8
BLACK
6
CONTINUOUS
10
132.55
20
-95.7579
11
132.475
21
-95.2545
0
LINE
8
BLACK
6
CONTINUOUS
10
132.475
20
-95.2545
11
132.363
21
-94.7581
0
LINE
8
BLACK
6
CONTINUOUS
10
132.363
20
-94.7581
11
132.362
21
-94.7559
0
LINE
8
BLACK
6
CONTINUOUS
10
132.362
20
-94.7559
11
132.362
21
-94.7559
0
LINE
8
BLACK
6
CONTINUOUS
10
132.362
20
-94.7559
11
132.215
21
-94.2736
0
LINE
8
BLACK
6
CONTINUOUS
10
132.215
20
-94.2736
11
132.214
21
-94.2714
0
LINE
8
BLACK
6
CONTINUOUS
10
132.214
20
-94.2714
11
132.029
21
-93.797
0
LINE
8
BLACK
6
CONTINUOUS
10
132.029
20
-93.797
11
131.904
21
-93.5352
0
LINE
8
BLACK
6
CONTINUOUS
10
131.904
20
-93.5352
11
131.811
21
-93.3397
0
LINE
8
BLACK
6
CONTINUOUS
10
131.811
20
-93.3397
11
131.811
21
-93.3397
0
LINE
8
BLACK
6
CONTINUOUS
10
131.811
20
-93.3397
11
131.81
21
-93.3376
0
LINE
8
BLACK
6
CONTINUOUS
10
131.81
20
-93.3376
11
131.558
21
-92.8957
0
LINE
8
BLACK
6
CONTINUOUS
10
131.558
20
-92.8957
11
131.273
21
-92.4738
0
LINE
8
BLACK
6
CONTINUOUS
10
131.273
20
-92.4738
11
131.225
21
-92.4126
0
LINE
8
BLACK
6
CONTINUOUS
10
131.225
20
-92.4126
11
130.959
21
-92.0759
0
LINE
8
BLACK
6
CONTINUOUS
10
130.959
20
-92.0759
11
130.958
21
-92.0741
0
LINE
8
BLACK
6
CONTINUOUS
10
130.958
20
-92.0741
11
130.956
21
-92.0724
0
LINE
8
BLACK
6
CONTINUOUS
10
130.956
20
-92.0724
11
130.956
21
-92.0724
0
LINE
8
BLACK
6
CONTINUOUS
10
130.956
20
-92.0724
11
130.616
21
-91.7006
0
LINE
8
BLACK
6
CONTINUOUS
10
130.616
20
-91.7006
11
130.614
21
-91.6988
0
LINE
8
BLACK
6
CONTINUOUS
10
130.614
20
-91.6988
11
130.484
21
-91.5765
0
LINE
8
BLACK
6
CONTINUOUS
10
130.484
20
-91.5765
11
130.245
21
-91.3517
0
LINE
8
BLACK
6
CONTINUOUS
10
130.245
20
-91.3517
11
130.245
21
-91.3517
0
LINE
8
BLACK
6
CONTINUOUS
10
130.245
20
-91.3517
11
130.243
21
-91.3501
0
LINE
8
BLACK
6
CONTINUOUS
10
130.243
20
-91.3501
11
130.227
21
-91.3373
0
LINE
8
BLACK
6
CONTINUOUS
10
130.227
20
-91.3373
11
130.051
21
-91.1942
0
LINE
8
BLACK
6
CONTINUOUS
10
130.051
20
-91.1942
11
129.867
21
-91.0455
0
LINE
8
BLACK
6
CONTINUOUS
10
129.867
20
-91.0455
11
129.862
21
-91.0412
0
LINE
8
BLACK
6
CONTINUOUS
10
129.862
20
-91.0412
11
129.861
21
-91.0406
0
LINE
8
BLACK
6
CONTINUOUS
10
129.861
20
-91.0406
11
129.858
21
-91.0371
0
LINE
8
BLACK
6
CONTINUOUS
10
129.858
20
-91.0371
11
129.848
21
-91.0294
0
LINE
8
BLACK
6
CONTINUOUS
10
129.848
20
-91.0294
11
129.844
21
-91.0271
0
LINE
8
BLACK
6
CONTINUOUS
10
129.844
20
-91.0271
11
129.84
21
-91.0244
0
LINE
8
BLACK
6
CONTINUOUS
10
129.84
20
-91.0244
11
129.84
21
-91.024
0
LINE
8
BLACK
6
CONTINUOUS
10
129.84
20
-91.024
11
129.836
21
-91.0215
0
LINE
8
BLACK
6
CONTINUOUS
10
129.836
20
-91.0215
11
129.836
21
-91.0219
0
LINE
8
BLACK
6
CONTINUOUS
10
129.836
20
-91.0219
11
129.828
21
-91.017
0
LINE
8
BLACK
6
CONTINUOUS
10
129.828
20
-91.017
11
129.822
21
-91.011
0
LINE
8
BLACK
6
CONTINUOUS
10
129.822
20
-91.011
11
129.774
21
-90.9885
0
LINE
8
BLACK
6
CONTINUOUS
10
129.774
20
-90.9885
11
129.767
21
-90.985
0
LINE
8
BLACK
6
CONTINUOUS
10
129.767
20
-90.985
11
129.728
21
-90.9638
0
LINE
8
BLACK
6
CONTINUOUS
10
129.728
20
-90.9638
11
129.728
21
-90.9638
0
LINE
8
BLACK
6
CONTINUOUS
10
129.728
20
-90.9638
11
129.72
21
-90.9595
0
LINE
8
BLACK
6
CONTINUOUS
10
129.72
20
-90.9595
11
129.712
21
-90.9576
0
LINE
8
BLACK
6
CONTINUOUS
10
129.712
20
-90.9576
11
129.705
21
-90.9551
0
LINE
8
BLACK
6
CONTINUOUS
10
129.705
20
-90.9551
11
129.698
21
-90.953
0
LINE
8
BLACK
6
CONTINUOUS
10
129.698
20
-90.953
11
129.69
21
-90.9492
0
LINE
8
BLACK
6
CONTINUOUS
10
129.69
20
-90.9492
11
129.668
21
-90.9457
0
LINE
8
BLACK
6
CONTINUOUS
10
129.668
20
-90.9457
11
129.638
21
-90.941
0
LINE
8
BLACK
6
CONTINUOUS
10
129.638
20
-90.941
11
129.63
21
-90.9396
0
LINE
8
BLACK
6
CONTINUOUS
10
129.63
20
-90.9396
11
129.587
21
-90.9301
0
LINE
8
BLACK
6
CONTINUOUS
10
129.587
20
-90.9301
11
129.578
21
-90.9282
0
LINE
8
BLACK
6
CONTINUOUS
10
129.578
20
-90.9282
11
129.569
21
-90.9288
0
LINE
8
BLACK
6
CONTINUOUS
10
129.569
20
-90.9288
11
129.569
21
-90.9288
0
LINE
8
BLACK
6
CONTINUOUS
10
129.569
20
-90.9288
11
129.526
21
-90.9317
0
LINE
8
BLACK
6
CONTINUOUS
10
129.526
20
-90.9317
11
129.518
21
-90.932
0
LINE
8
BLACK
6
CONTINUOUS
10
129.518
20
-90.932
11
121.95
21
-90.932
0
LINE
8
BLACK
6
CONTINUOUS
10
121.95
20
-90.932
11
121.938
21
-90.9315
0
LINE
8
BLACK
6
CONTINUOUS
10
121.938
20
-90.9315
11
121.903
21
-90.9282
0
LINE
8
BLACK
6
CONTINUOUS
10
121.903
20
-90.9282
11
121.903
21
-90.9282
0
LINE
8
BLACK
6
CONTINUOUS
10
121.903
20
-90.9282
11
121.894
21
-90.9274
0
LINE
8
BLACK
6
CONTINUOUS
10
121.894
20
-90.9274
11
121.885
21
-90.9291
0
LINE
8
BLACK
6
CONTINUOUS
10
121.885
20
-90.9291
11
121.885
21
-90.9291
0
LINE
8
BLACK
6
CONTINUOUS
10
121.885
20
-90.9291
11
121.874
21
-90.9315
0
LINE
8
BLACK
6
CONTINUOUS
10
121.874
20
-90.9315
11
121.838
21
-90.9383
0
LINE
8
BLACK
6
CONTINUOUS
10
121.838
20
-90.9383
11
121.832
21
-90.9393
0
LINE
8
BLACK
6
CONTINUOUS
10
121.832
20
-90.9393
11
121.82
21
-90.941
0
LINE
8
BLACK
6
CONTINUOUS
10
121.82
20
-90.941
11
121.785
21
-90.9461
0
LINE
8
BLACK
6
CONTINUOUS
10
121.785
20
-90.9461
11
121.785
21
-90.9461
0
LINE
8
BLACK
6
CONTINUOUS
10
121.785
20
-90.9461
11
121.776
21
-90.9474
0
LINE
8
BLACK
6
CONTINUOUS
10
121.776
20
-90.9474
11
121.768
21
-90.9511
0
LINE
8
BLACK
6
CONTINUOUS
10
121.768
20
-90.9511
11
121.764
21
-90.9522
0
LINE
8
BLACK
6
CONTINUOUS
10
121.764
20
-90.9522
11
121.76
21
-90.9535
0
LINE
8
BLACK
6
CONTINUOUS
10
121.76
20
-90.9535
11
121.751
21
-90.9552
0
LINE
8
BLACK
6
CONTINUOUS
10
121.751
20
-90.9552
11
121.701
21
-90.9813
0
LINE
8
BLACK
6
CONTINUOUS
10
121.701
20
-90.9813
11
121.695
21
-90.9841
0
LINE
8
BLACK
6
CONTINUOUS
10
121.695
20
-90.9841
11
121.652
21
-91.0039
0
LINE
8
BLACK
6
CONTINUOUS
10
121.652
20
-91.0039
11
121.652
21
-91.0039
0
LINE
8
BLACK
6
CONTINUOUS
10
121.652
20
-91.0039
11
121.643
21
-91.0076
0
LINE
8
BLACK
6
CONTINUOUS
10
121.643
20
-91.0076
11
121.637
21
-91.0135
0
LINE
8
BLACK
6
CONTINUOUS
10
121.637
20
-91.0135
11
121.633
21
-91.0158
0
LINE
8
BLACK
6
CONTINUOUS
10
121.633
20
-91.0158
11
121.631
21
-91.0172
0
LINE
8
BLACK
6
CONTINUOUS
10
121.631
20
-91.0172
11
121.631
21
-91.0172
0
LINE
8
BLACK
6
CONTINUOUS
10
121.631
20
-91.0172
11
121.627
21
-91.0198
0
LINE
8
BLACK
6
CONTINUOUS
10
121.627
20
-91.0198
11
121.622
21
-91.022
0
LINE
8
BLACK
6
CONTINUOUS
10
121.622
20
-91.022
11
121.612
21
-91.0294
0
LINE
8
BLACK
6
CONTINUOUS
10
121.612
20
-91.0294
11
121.609
21
-91.0328
0
LINE
8
BLACK
6
CONTINUOUS
10
121.609
20
-91.0328
11
121.607
21
-91.0346
0
LINE
8
BLACK
6
CONTINUOUS
10
121.607
20
-91.0346
11
121.232
21
-91.3381
0
LINE
8
BLACK
6
CONTINUOUS
10
121.232
20
-91.3381
11
121.217
21
-91.3501
0
LINE
8
BLACK
6
CONTINUOUS
10
121.217
20
-91.3501
11
121.215
21
-91.3517
0
LINE
8
BLACK
6
CONTINUOUS
10
121.215
20
-91.3517
11
121.215
21
-91.3517
0
LINE
8
BLACK
6
CONTINUOUS
10
121.215
20
-91.3517
11
120.976
21
-91.5765
0
LINE
8
BLACK
6
CONTINUOUS
10
120.976
20
-91.5765
11
120.846
21
-91.6988
0
LINE
8
BLACK
6
CONTINUOUS
10
120.846
20
-91.6988
11
120.844
21
-91.7006
0
LINE
8
BLACK
6
CONTINUOUS
10
120.844
20
-91.7006
11
120.504
21
-92.0724
0
LINE
8
BLACK
6
CONTINUOUS
10
120.504
20
-92.0724
11
120.504
21
-92.0724
0
LINE
8
BLACK
6
CONTINUOUS
10
120.504
20
-92.0724
11
120.502
21
-92.0741
0
LINE
8
BLACK
6
CONTINUOUS
10
120.502
20
-92.0741
11
120.501
21
-92.0759
0
LINE
8
BLACK
6
CONTINUOUS
10
120.501
20
-92.0759
11
120.235
21
-92.4126
0
LINE
8
BLACK
6
CONTINUOUS
10
120.235
20
-92.4126
11
120.187
21
-92.4738
0
LINE
8
BLACK
6
CONTINUOUS
10
120.187
20
-92.4738
11
119.902
21
-92.8957
0
LINE
8
BLACK
6
CONTINUOUS
10
119.902
20
-92.8957
11
119.65
21
-93.3376
0
LINE
8
BLACK
6
CONTINUOUS
10
119.65
20
-93.3376
11
119.649
21
-93.3397
0
LINE
8
BLACK
6
CONTINUOUS
10
119.649
20
-93.3397
11
119.649
21
-93.3397
0
LINE
8
BLACK
6
CONTINUOUS
10
119.649
20
-93.3397
11
119.556
21
-93.5352
0
LINE
8
BLACK
6
CONTINUOUS
10
119.556
20
-93.5352
11
119.431
21
-93.797
0
LINE
8
BLACK
6
CONTINUOUS
10
119.431
20
-93.797
11
119.246
21
-94.2714
0
LINE
8
BLACK
6
CONTINUOUS
10
119.246
20
-94.2714
11
119.245
21
-94.2736
0
LINE
8
BLACK
6
CONTINUOUS
10
119.245
20
-94.2736
11
119.098
21
-94.7559
0
LINE
8
BLACK
6
CONTINUOUS
10
119.098
20
-94.7559
11
119.098
21
-94.7559
0
LINE
8
BLACK
6
CONTINUOUS
10
119.098
20
-94.7559
11
119.097
21
-94.7581
0
LINE
8
BLACK
6
CONTINUOUS
10
119.097
20
-94.7581
11
118.985
21
-95.2545
0
LINE
8
BLACK
6
CONTINUOUS
10
118.985
20
-95.2545
11
118.91
21
-95.7579
0
LINE
8
BLACK
6
CONTINUOUS
10
118.91
20
-95.7579
11
118.872
21
-96.2655
0
LINE
8
BLACK
6
CONTINUOUS
10
118.872
20
-96.2655
11
118.872
21
-96.7745
0
LINE
8
BLACK
6
CONTINUOUS
10
118.872
20
-96.7745
11
118.91
21
-97.2821
0
LINE
8
BLACK
6
CONTINUOUS
10
118.91
20
-97.2821
11
118.985
21
-97.7855
0
LINE
8
BLACK
6
CONTINUOUS
10
73.148
20
-104.906
11
73.1482
21
-104.909
0
LINE
8
BLACK
6
CONTINUOUS
10
73.1482
20
-104.909
11
73.1598
21
-105.101
0
LINE
8
BLACK
6
CONTINUOUS
10
73.1598
20
-105.101
11
73.1645
21
-105.178
0
LINE
8
BLACK
6
CONTINUOUS
10
73.1645
20
-105.178
11
73.2144
21
-105.45
0
LINE
8
BLACK
6
CONTINUOUS
10
73.2144
20
-105.45
11
73.2966
21
-105.714
0
LINE
8
BLACK
6
CONTINUOUS
10
73.2966
20
-105.714
11
73.2982
21
-105.718
0
LINE
8
BLACK
6
CONTINUOUS
10
73.2982
20
-105.718
11
73.2982
21
-105.718
0
LINE
8
BLACK
6
CONTINUOUS
10
73.2982
20
-105.718
11
73.3534
21
-105.84
0
LINE
8
BLACK
6
CONTINUOUS
10
73.3534
20
-105.84
11
73.4101
21
-105.966
0
LINE
8
BLACK
6
CONTINUOUS
10
73.4101
20
-105.966
11
73.4121
21
-105.97
0
LINE
8
BLACK
6
CONTINUOUS
10
73.4121
20
-105.97
11
73.4121
21
-105.97
0
LINE
8
BLACK
6
CONTINUOUS
10
73.4121
20
-105.97
11
73.4969
21
-106.11
0
LINE
8
BLACK
6
CONTINUOUS
10
73.4969
20
-106.11
11
73.5532
21
-106.203
0
LINE
8
BLACK
6
CONTINUOUS
10
73.5532
20
-106.203
11
73.7238
21
-106.421
0
LINE
8
BLACK
6
CONTINUOUS
10
73.7238
20
-106.421
11
73.9193
21
-106.616
0
LINE
8
BLACK
6
CONTINUOUS
10
73.9193
20
-106.616
11
74.137
21
-106.787
0
LINE
8
BLACK
6
CONTINUOUS
10
74.137
20
-106.787
11
74.1403
21
-106.789
0
LINE
8
BLACK
6
CONTINUOUS
10
74.1403
20
-106.789
11
74.3704
21
-106.928
0
LINE
8
BLACK
6
CONTINUOUS
10
74.3704
20
-106.928
11
74.3704
21
-106.928
0
LINE
8
BLACK
6
CONTINUOUS
10
74.3704
20
-106.928
11
74.3737
21
-106.93
0
LINE
8
BLACK
6
CONTINUOUS
10
74.3737
20
-106.93
11
74.4998
21
-106.987
0
LINE
8
BLACK
6
CONTINUOUS
10
74.4998
20
-106.987
11
74.6224
21
-107.042
0
LINE
8
BLACK
6
CONTINUOUS
10
74.6224
20
-107.042
11
74.6224
21
-107.042
0
LINE
8
BLACK
6
CONTINUOUS
10
74.6224
20
-107.042
11
74.6259
21
-107.043
0
LINE
8
BLACK
6
CONTINUOUS
10
74.6259
20
-107.043
11
74.8899
21
-107.126
0
LINE
8
BLACK
6
CONTINUOUS
10
74.8899
20
-107.126
11
75.1619
21
-107.175
0
LINE
8
BLACK
6
CONTINUOUS
10
75.1619
20
-107.175
11
75.1657
21
-107.176
0
LINE
8
BLACK
6
CONTINUOUS
10
75.1657
20
-107.176
11
75.1657
21
-107.176
0
LINE
8
BLACK
6
CONTINUOUS
10
75.1657
20
-107.176
11
75.2534
21
-107.181
0
LINE
8
BLACK
6
CONTINUOUS
10
75.2534
20
-107.181
11
75.4035
21
-107.19
0
LINE
8
BLACK
6
CONTINUOUS
10
75.4035
20
-107.19
11
75.4167
21
-107.192
0
LINE
8
BLACK
6
CONTINUOUS
10
75.4167
20
-107.192
11
75.4255
21
-107.193
0
LINE
8
BLACK
6
CONTINUOUS
10
75.4255
20
-107.193
11
75.432
21
-107.193
0
LINE
8
BLACK
6
CONTINUOUS
10
75.432
20
-107.193
11
75.4331
21
-107.193
0
LINE
8
BLACK
6
CONTINUOUS
10
75.4331
20
-107.193
11
75.4331
21
-107.193
0
LINE
8
BLACK
6
CONTINUOUS
10
75.4331
20
-107.193
11
75.438
21
-107.193
0
LINE
8
BLACK
6
CONTINUOUS
10
75.438
20
-107.193
11
75.4656
21
-107.189
0
LINE
8
BLACK
6
CONTINUOUS
10
75.4656
20
-107.189
11
75.4835
21
-107.188
0
LINE
8
BLACK
6
CONTINUOUS
10
75.4835
20
-107.188
11
99.7688
21
-107.188
0
LINE
8
BLACK
6
CONTINUOUS
10
99.7688
20
-107.188
11
99.7897
21
-107.19
0
LINE
8
BLACK
6
CONTINUOUS
10
99.7897
20
-107.19
11
99.8095
21
-107.193
0
LINE
8
BLACK
6
CONTINUOUS
10
99.8095
20
-107.193
11
99.8158
21
-107.193
0
LINE
8
BLACK
6
CONTINUOUS
10
99.8158
20
-107.193
11
99.8171
21
-107.193
0
LINE
8
BLACK
6
CONTINUOUS
10
99.8171
20
-107.193
11
99.8171
21
-107.193
0
LINE
8
BLACK
6
CONTINUOUS
10
99.8171
20
-107.193
11
99.822
21
-107.193
0
LINE
8
BLACK
6
CONTINUOUS
10
99.822
20
-107.193
11
99.8295
21
-107.192
0
LINE
8
BLACK
6
CONTINUOUS
10
99.8295
20
-107.192
11
99.8398
21
-107.191
0
LINE
8
BLACK
6
CONTINUOUS
10
99.8398
20
-107.191
11
100.094
21
-107.176
0
LINE
8
BLACK
6
CONTINUOUS
10
100.094
20
-107.176
11
100.094
21
-107.176
0
LINE
8
BLACK
6
CONTINUOUS
10
100.094
20
-107.176
11
100.098
21
-107.175
0
LINE
8
BLACK
6
CONTINUOUS
10
100.098
20
-107.175
11
100.37
21
-107.126
0
LINE
8
BLACK
6
CONTINUOUS
10
100.37
20
-107.126
11
100.634
21
-107.043
0
LINE
8
BLACK
6
CONTINUOUS
10
100.634
20
-107.043
11
100.638
21
-107.042
0
LINE
8
BLACK
6
CONTINUOUS
10
100.638
20
-107.042
11
100.638
21
-107.042
0
LINE
8
BLACK
6
CONTINUOUS
10
100.638
20
-107.042
11
100.76
21
-106.987
0
LINE
8
BLACK
6
CONTINUOUS
10
100.76
20
-106.987
11
100.886
21
-106.93
0
LINE
8
BLACK
6
CONTINUOUS
10
100.886
20
-106.93
11
100.89
21
-106.928
0
LINE
8
BLACK
6
CONTINUOUS
10
100.89
20
-106.928
11
100.89
21
-106.928
0
LINE
8
BLACK
6
CONTINUOUS
10
100.89
20
-106.928
11
101.12
21
-106.789
0
LINE
8
BLACK
6
CONTINUOUS
10
101.12
20
-106.789
11
101.123
21
-106.787
0
LINE
8
BLACK
6
CONTINUOUS
10
101.123
20
-106.787
11
101.341
21
-106.616
0
LINE
8
BLACK
6
CONTINUOUS
10
101.341
20
-106.616
11
101.536
21
-106.421
0
LINE
8
BLACK
6
CONTINUOUS
10
101.536
20
-106.421
11
101.707
21
-106.203
0
LINE
8
BLACK
6
CONTINUOUS
10
101.707
20
-106.203
11
101.763
21
-106.11
0
LINE
8
BLACK
6
CONTINUOUS
10
101.763
20
-106.11
11
101.848
21
-105.97
0
LINE
8
BLACK
6
CONTINUOUS
10
101.848
20
-105.97
11
101.848
21
-105.97
0
LINE
8
BLACK
6
CONTINUOUS
10
101.848
20
-105.97
11
101.85
21
-105.966
0
LINE
8
BLACK
6
CONTINUOUS
10
101.85
20
-105.966
11
101.907
21
-105.84
0
LINE
8
BLACK
6
CONTINUOUS
10
101.907
20
-105.84
11
101.962
21
-105.718
0
LINE
8
BLACK
6
CONTINUOUS
10
101.962
20
-105.718
11
101.962
21
-105.718
0
LINE
8
BLACK
6
CONTINUOUS
10
101.962
20
-105.718
11
101.963
21
-105.714
0
LINE
8
BLACK
6
CONTINUOUS
10
101.963
20
-105.714
11
102.046
21
-105.45
0
LINE
8
BLACK
6
CONTINUOUS
10
102.046
20
-105.45
11
102.095
21
-105.178
0
LINE
8
BLACK
6
CONTINUOUS
10
102.095
20
-105.178
11
102.11
21
-104.937
0
LINE
8
BLACK
6
CONTINUOUS
10
102.11
20
-104.937
11
102.112
21
-104.923
0
LINE
8
BLACK
6
CONTINUOUS
10
102.112
20
-104.923
11
102.113
21
-104.915
0
LINE
8
BLACK
6
CONTINUOUS
10
102.113
20
-104.915
11
102.113
21
-104.902
0
LINE
8
BLACK
6
CONTINUOUS
10
102.113
20
-104.902
11
102.109
21
-104.874
0
LINE
8
BLACK
6
CONTINUOUS
10
102.109
20
-104.874
11
102.108
21
-104.857
0
LINE
8
BLACK
6
CONTINUOUS
10
102.108
20
-104.857
11
102.108
21
-88.1912
0
LINE
8
BLACK
6
CONTINUOUS
10
102.108
20
-88.1912
11
102.11
21
-88.1703
0
LINE
8
BLACK
6
CONTINUOUS
10
102.11
20
-88.1703
11
102.112
21
-88.1553
0
LINE
8
BLACK
6
CONTINUOUS
10
102.112
20
-88.1553
11
102.113
21
-88.1505
0
LINE
8
BLACK
6
CONTINUOUS
10
102.113
20
-88.1505
11
102.113
21
-88.138
0
LINE
8
BLACK
6
CONTINUOUS
10
102.113
20
-88.138
11
102.112
21
-88.1305
0
LINE
8
BLACK
6
CONTINUOUS
10
102.112
20
-88.1305
11
102.111
21
-88.1202
0
LINE
8
BLACK
6
CONTINUOUS
10
102.111
20
-88.1202
11
102.096
21
-87.8657
0
LINE
8
BLACK
6
CONTINUOUS
10
102.096
20
-87.8657
11
102.096
21
-87.8657
0
LINE
8
BLACK
6
CONTINUOUS
10
102.096
20
-87.8657
11
102.095
21
-87.8619
0
LINE
8
BLACK
6
CONTINUOUS
10
102.095
20
-87.8619
11
102.046
21
-87.5899
0
LINE
8
BLACK
6
CONTINUOUS
10
102.046
20
-87.5899
11
101.963
21
-87.3259
0
LINE
8
BLACK
6
CONTINUOUS
10
101.963
20
-87.3259
11
101.925
21
-87.24
0
LINE
8
BLACK
6
CONTINUOUS
10
101.925
20
-87.24
11
101.851
21
-87.0772
0
LINE
8
BLACK
6
CONTINUOUS
10
101.851
20
-87.0772
11
101.85
21
-87.0737
0
LINE
8
BLACK
6
CONTINUOUS
10
101.85
20
-87.0737
11
101.809
21
-87.0064
0
LINE
8
BLACK
6
CONTINUOUS
10
101.809
20
-87.0064
11
101.709
21
-86.8403
0
LINE
8
BLACK
6
CONTINUOUS
10
101.709
20
-86.8403
11
101.707
21
-86.837
0
LINE
8
BLACK
6
CONTINUOUS
10
101.707
20
-86.837
11
101.536
21
-86.6193
0
LINE
8
BLACK
6
CONTINUOUS
10
101.536
20
-86.6193
11
101.341
21
-86.4238
0
LINE
8
BLACK
6
CONTINUOUS
10
101.341
20
-86.4238
11
101.123
21
-86.2532
0
LINE
8
BLACK
6
CONTINUOUS
10
101.123
20
-86.2532
11
101.063
21
-86.2171
0
LINE
8
BLACK
6
CONTINUOUS
10
101.063
20
-86.2171
11
100.89
21
-86.1121
0
LINE
8
BLACK
6
CONTINUOUS
10
100.89
20
-86.1121
11
100.89
21
-86.1121
0
LINE
8
BLACK
6
CONTINUOUS
10
100.89
20
-86.1121
11
100.886
21
-86.1101
0
LINE
8
BLACK
6
CONTINUOUS
10
100.886
20
-86.1101
11
100.76
21
-86.0534
0
LINE
8
BLACK
6
CONTINUOUS
10
100.76
20
-86.0534
11
100.638
21
-85.9982
0
LINE
8
BLACK
6
CONTINUOUS
10
100.638
20
-85.9982
11
100.638
21
-85.9982
0
LINE
8
BLACK
6
CONTINUOUS
10
100.638
20
-85.9982
11
100.634
21
-85.9966
0
LINE
8
BLACK
6
CONTINUOUS
10
100.634
20
-85.9966
11
100.37
21
-85.9144
0
LINE
8
BLACK
6
CONTINUOUS
10
100.37
20
-85.9144
11
100.098
21
-85.8645
0
LINE
8
BLACK
6
CONTINUOUS
10
100.098
20
-85.8645
11
100.094
21
-85.8643
0
LINE
8
BLACK
6
CONTINUOUS
10
100.094
20
-85.8643
11
100.094
21
-85.8643
0
LINE
8
BLACK
6
CONTINUOUS
10
100.094
20
-85.8643
11
100.007
21
-85.859
0
LINE
8
BLACK
6
CONTINUOUS
10
100.007
20
-85.859
11
99.8565
21
-85.8499
0
LINE
8
BLACK
6
CONTINUOUS
10
99.8565
20
-85.8499
11
99.8433
21
-85.8484
0
LINE
8
BLACK
6
CONTINUOUS
10
99.8433
20
-85.8484
11
99.8345
21
-85.8469
0
LINE
8
BLACK
6
CONTINUOUS
10
99.8345
20
-85.8469
11
99.828
21
-85.8468
0
LINE
8
BLACK
6
CONTINUOUS
10
99.828
20
-85.8468
11
99.8269
21
-85.8468
0
LINE
8
BLACK
6
CONTINUOUS
10
99.8269
20
-85.8468
11
99.8269
21
-85.8468
0
LINE
8
BLACK
6
CONTINUOUS
10
99.8269
20
-85.8468
11
99.822
21
-85.8468
0
LINE
8
BLACK
6
CONTINUOUS
10
99.822
20
-85.8468
11
99.7977
21
-85.8503
0
LINE
8
BLACK
6
CONTINUOUS
10
99.7977
20
-85.8503
11
99.7944
21
-85.8507
0
LINE
8
BLACK
6
CONTINUOUS
10
99.7944
20
-85.8507
11
99.7765
21
-85.852
0
LINE
8
BLACK
6
CONTINUOUS
10
99.7765
20
-85.852
11
75.4912
21
-85.852
0
LINE
8
BLACK
6
CONTINUOUS
10
75.4912
20
-85.852
11
75.4703
21
-85.8503
0
LINE
8
BLACK
6
CONTINUOUS
10
75.4703
20
-85.8503
11
75.4671
21
-85.8497
0
LINE
8
BLACK
6
CONTINUOUS
10
75.4671
20
-85.8497
11
75.4505
21
-85.8469
0
LINE
8
BLACK
6
CONTINUOUS
10
75.4505
20
-85.8469
11
75.4442
21
-85.8469
0
LINE
8
BLACK
6
CONTINUOUS
10
75.4442
20
-85.8469
11
75.4429
21
-85.8468
0
LINE
8
BLACK
6
CONTINUOUS
10
75.4429
20
-85.8468
11
75.4429
21
-85.8468
0
LINE
8
BLACK
6
CONTINUOUS
10
75.4429
20
-85.8468
11
75.438
21
-85.8468
0
LINE
8
BLACK
6
CONTINUOUS
10
75.438
20
-85.8468
11
75.4305
21
-85.8478
0
LINE
8
BLACK
6
CONTINUOUS
10
75.4305
20
-85.8478
11
75.4305
21
-85.8479
0
LINE
8
BLACK
6
CONTINUOUS
10
75.4305
20
-85.8479
11
75.4202
21
-85.8489
0
LINE
8
BLACK
6
CONTINUOUS
10
75.4202
20
-85.8489
11
75.1657
21
-85.8643
0
LINE
8
BLACK
6
CONTINUOUS
10
75.1657
20
-85.8643
11
75.1657
21
-85.8643
0
LINE
8
BLACK
6
CONTINUOUS
10
75.1657
20
-85.8643
11
75.1619
21
-85.8645
0
LINE
8
BLACK
6
CONTINUOUS
10
75.1619
20
-85.8645
11
74.8899
21
-85.9144
0
LINE
8
BLACK
6
CONTINUOUS
10
74.8899
20
-85.9144
11
74.6259
21
-85.9966
0
LINE
8
BLACK
6
CONTINUOUS
10
74.6259
20
-85.9966
11
74.6224
21
-85.9982
0
LINE
8
BLACK
6
CONTINUOUS
10
74.6224
20
-85.9982
11
74.6224
21
-85.9982
0
LINE
8
BLACK
6
CONTINUOUS
10
74.6224
20
-85.9982
11
74.4998
21
-86.0534
0
LINE
8
BLACK
6
CONTINUOUS
10
74.4998
20
-86.0534
11
74.3737
21
-86.1101
0
LINE
8
BLACK
6
CONTINUOUS
10
74.3737
20
-86.1101
11
74.3704
21
-86.1121
0
LINE
8
BLACK
6
CONTINUOUS
10
74.3704
20
-86.1121
11
74.3704
21
-86.1121
0
LINE
8
BLACK
6
CONTINUOUS
10
74.3704
20
-86.1121
11
74.1967
21
-86.2171
0
LINE
8
BLACK
6
CONTINUOUS
10
74.1967
20
-86.2171
11
74.137
21
-86.2532
0
LINE
8
BLACK
6
CONTINUOUS
10
74.137
20
-86.2532
11
73.9193
21
-86.4238
0
LINE
8
BLACK
6
CONTINUOUS
10
73.9193
20
-86.4238
11
73.7238
21
-86.6193
0
LINE
8
BLACK
6
CONTINUOUS
10
73.7238
20
-86.6193
11
73.5532
21
-86.837
0
LINE
8
BLACK
6
CONTINUOUS
10
73.5532
20
-86.837
11
73.5513
21
-86.8403
0
LINE
8
BLACK
6
CONTINUOUS
10
73.5513
20
-86.8403
11
73.4508
21
-87.0064
0
LINE
8
BLACK
6
CONTINUOUS
10
73.4508
20
-87.0064
11
73.4101
21
-87.0737
0
LINE
8
BLACK
6
CONTINUOUS
10
73.4101
20
-87.0737
11
73.4086
21
-87.0772
0
LINE
8
BLACK
6
CONTINUOUS
10
73.4086
20
-87.0772
11
73.3353
21
-87.24
0
LINE
8
BLACK
6
CONTINUOUS
10
73.3353
20
-87.24
11
73.2966
21
-87.3259
0
LINE
8
BLACK
6
CONTINUOUS
10
73.2966
20
-87.3259
11
73.2144
21
-87.5899
0
LINE
8
BLACK
6
CONTINUOUS
10
73.2144
20
-87.5899
11
73.1645
21
-87.8619
0
LINE
8
BLACK
6
CONTINUOUS
10
73.1645
20
-87.8619
11
73.1643
21
-87.8657
0
LINE
8
BLACK
6
CONTINUOUS
10
73.1643
20
-87.8657
11
73.1643
21
-87.8657
0
LINE
8
BLACK
6
CONTINUOUS
10
73.1643
20
-87.8657
11
73.1494
21
-88.1112
0
LINE
8
BLACK
6
CONTINUOUS
10
73.1494
20
-88.1112
11
73.1482
21
-88.1228
0
LINE
8
BLACK
6
CONTINUOUS
10
73.1482
20
-88.1228
11
73.1482
21
-88.1229
0
LINE
8
BLACK
6
CONTINUOUS
10
73.1482
20
-88.1229
11
73.1468
21
-88.1317
0
LINE
8
BLACK
6
CONTINUOUS
10
73.1468
20
-88.1317
11
73.1486
21
-88.1457
0
LINE
8
BLACK
6
CONTINUOUS
10
73.1486
20
-88.1457
11
73.1509
21
-88.1633
0
LINE
8
BLACK
6
CONTINUOUS
10
73.1509
20
-88.1633
11
73.152
21
-88.1796
0
LINE
8
BLACK
6
CONTINUOUS
10
73.152
20
-88.1796
11
73.152
21
-104.853
0
LINE
8
BLACK
6
CONTINUOUS
10
73.152
20
-104.853
11
73.1505
21
-104.872
0
LINE
8
BLACK
6
CONTINUOUS
10
73.1505
20
-104.872
11
73.1468
21
-104.896
0
LINE
8
BLACK
6
CONTINUOUS
10
73.1468
20
-104.896
11
73.148
21
-104.905
0
LINE
8
BLACK
6
CONTINUOUS
10
73.148
20
-104.905
11
73.148
21
-104.906
0
LINE
8
BLACK
6
CONTINUOUS
10
104.087
20
-95.5404
11
104.274
21
-95.5981
0
LINE
8
BLACK
6
CONTINUOUS
10
104.274
20
-95.5981
11
104.445
21
-95.691
0
LINE
8
BLACK
6
CONTINUOUS
10
104.445
20
-95.691
11
104.596
21
-95.8154
0
LINE
8
BLACK
6
CONTINUOUS
10
104.596
20
-95.8154
11
104.719
21
-95.9666
0
LINE
8
BLACK
6
CONTINUOUS
10
104.719
20
-95.9666
11
104.811
21
-96.1389
0
LINE
8
BLACK
6
CONTINUOUS
10
104.811
20
-96.1389
11
104.867
21
-96.3258
0
LINE
8
BLACK
6
CONTINUOUS
10
104.867
20
-96.3258
11
104.886
21
-96.52
0
LINE
8
BLACK
6
CONTINUOUS
10
104.886
20
-96.52
11
104.886
21
-96.5479
0
LINE
8
BLACK
6
CONTINUOUS
10
104.886
20
-96.5479
11
104.861
21
-96.7415
0
LINE
8
BLACK
6
CONTINUOUS
10
104.861
20
-96.7415
11
104.8
21
-96.9267
0
LINE
8
BLACK
6
CONTINUOUS
10
104.8
20
-96.9267
11
104.703
21
-97.0964
0
LINE
8
BLACK
6
CONTINUOUS
10
104.703
20
-97.0964
11
104.576
21
-97.2442
0
LINE
8
BLACK
6
CONTINUOUS
10
104.576
20
-97.2442
11
104.422
21
-97.3643
0
LINE
8
BLACK
6
CONTINUOUS
10
104.422
20
-97.3643
11
104.248
21
-97.4523
0
LINE
8
BLACK
6
CONTINUOUS
10
104.248
20
-97.4523
11
104.06
21
-97.5048
0
LINE
8
BLACK
6
CONTINUOUS
10
104.06
20
-97.5048
11
103.865
21
-97.5198
0
LINE
8
BLACK
6
CONTINUOUS
10
103.865
20
-97.5198
11
103.671
21
-97.4967
0
LINE
8
BLACK
6
CONTINUOUS
10
103.671
20
-97.4967
11
103.486
21
-97.4364
0
LINE
8
BLACK
6
CONTINUOUS
10
103.486
20
-97.4364
11
103.315
21
-97.3411
0
LINE
8
BLACK
6
CONTINUOUS
10
103.315
20
-97.3411
11
103.167
21
-97.2147
0
LINE
8
BLACK
6
CONTINUOUS
10
103.167
20
-97.2147
11
103.045
21
-97.0617
0
LINE
8
BLACK
6
CONTINUOUS
10
103.045
20
-97.0617
11
102.956
21
-96.8881
0
LINE
8
BLACK
6
CONTINUOUS
10
102.956
20
-96.8881
11
102.902
21
-96.7005
0
LINE
8
BLACK
6
CONTINUOUS
10
102.902
20
-96.7005
11
102.886
21
-96.506
0
LINE
8
BLACK
6
CONTINUOUS
10
102.886
20
-96.506
11
102.908
21
-96.3121
0
LINE
8
BLACK
6
CONTINUOUS
10
102.908
20
-96.3121
11
102.967
21
-96.1261
0
LINE
8
BLACK
6
CONTINUOUS
10
102.967
20
-96.1261
11
103.061
21
-95.955
0
LINE
8
BLACK
6
CONTINUOUS
10
103.061
20
-95.955
11
103.186
21
-95.8055
0
LINE
8
BLACK
6
CONTINUOUS
10
103.186
20
-95.8055
11
103.338
21
-95.6832
0
LINE
8
BLACK
6
CONTINUOUS
10
103.338
20
-95.6832
11
103.511
21
-95.5928
0
LINE
8
BLACK
6
CONTINUOUS
10
103.511
20
-95.5928
11
103.699
21
-95.5377
0
LINE
8
BLACK
6
CONTINUOUS
10
103.699
20
-95.5377
11
103.893
21
-95.52
0
LINE
8
BLACK
6
CONTINUOUS
10
103.893
20
-95.52
11
104.087
21
-95.5404
0
CIRCLE
8
BLACK
10
103.886
20
-96.52
40
0.5
  0
ENDSEC
  0
EOF
