G04 #@! TF.GenerationSoftware,KiCad,Pcbnew,6.0.0-d3dd2cf0fa~116~ubuntu20.04.1*
G04 #@! TF.CreationDate,2021-12-30T07:41:55-05:00*
G04 #@! TF.ProjectId,it_is_the_champion_rear_panel,69745f69-735f-4746-9865-5f6368616d70,0*
G04 #@! TF.SameCoordinates,Original*
G04 #@! TF.FileFunction,Profile,NP*
%FSLAX46Y46*%
G04 Gerber Fmt 4.6, Leading zero omitted, Abs format (unit mm)*
G04 Created by KiCad (PCBNEW 6.0.0-d3dd2cf0fa~116~ubuntu20.04.1) date 2021-12-30 07:41:55*
%MOMM*%
%LPD*%
G01*
G04 APERTURE LIST*
G04 #@! TA.AperFunction,Profile*
%ADD10C,0.050000*%
G04 #@! TD*
G04 APERTURE END LIST*
D10*
X194310000Y0D02*
X2540000Y0D01*
X194310000Y-50800000D02*
G75*
G03*
X196850000Y-48260000I-1J2540001D01*
G01*
X182816500Y-25400000D02*
G75*
G03*
X182816500Y-25400000I-5016500J0D01*
G01*
X2540000Y-50800000D02*
X194310000Y-50800000D01*
X107950000Y-25400000D02*
G75*
G03*
X107950000Y-25400000I-6350000J0D01*
G01*
X196850000Y-48260000D02*
X196850000Y-2540000D01*
X196850000Y-2540000D02*
G75*
G03*
X194310000Y0I-2540001J-1D01*
G01*
X59944000Y-25400000D02*
G75*
G03*
X59944000Y-25400000I-1778000J0D01*
G01*
X24130000Y-17018000D02*
X24130000Y-33782000D01*
X25908000Y-35560000D02*
X50292000Y-35560000D01*
X52070000Y-17018000D02*
G75*
G03*
X50292000Y-15240000I-1778000J0D01*
G01*
X19812000Y-25400000D02*
G75*
G03*
X19812000Y-25400000I-1778000J0D01*
G01*
X2540000Y0D02*
G75*
G03*
X0Y-2540000I1J-2540001D01*
G01*
X50292000Y-35560000D02*
G75*
G03*
X52070000Y-33782000I0J1778000D01*
G01*
X72390000Y-30480000D02*
X80010000Y-30480000D01*
X52070000Y-17018000D02*
X52070000Y-33782000D01*
X25908000Y-15240000D02*
X50292000Y-15240000D01*
X80010000Y-30480000D02*
G75*
G03*
X80010000Y-20320000I-3810000J5080000D01*
G01*
X24130000Y-33782000D02*
G75*
G03*
X25908000Y-35560000I1778000J0D01*
G01*
X0Y-48260000D02*
G75*
G03*
X2540000Y-50800000I2540001J1D01*
G01*
X72390000Y-20320000D02*
X80010000Y-20320000D01*
X0Y-2540000D02*
X0Y-48260000D01*
X72390000Y-20320000D02*
G75*
G03*
X72390000Y-30480000I3810000J-5080000D01*
G01*
X25908000Y-15240000D02*
G75*
G03*
X24130000Y-17018000I0J-1778000D01*
G01*
M02*
