%FSLAX45Y45*%
G04 Gerber Fmt 4.5, Leading zero omitted, Abs format (unit mm)*
G04 Created by KiCad (PCBNEW 6.0.0-d3dd2cf0fa~116~ubuntu20.04.1) date 2021-12-30 07:41:58*
%MOMM*%
%LPD*%
G01*
G04 APERTURE LIST*
%TA.AperFunction,Profile*%
%ADD10C,0.050000*%
%TD*%
%ADD11C,0.200000*%
G04 APERTURE END LIST*
D10*
X19431000Y0D02*
X254000Y0D01*
X19431000Y-5080000D02*
G75*
G03*
X19685000Y-4826000I0J254000D01*
G01*
X18281650Y-2540000D02*
G75*
G03*
X18281650Y-2540000I-501650J0D01*
G01*
X254000Y-5080000D02*
X19431000Y-5080000D01*
X10795000Y-2540000D02*
G75*
G03*
X10795000Y-2540000I-635000J0D01*
G01*
X19685000Y-4826000D02*
X19685000Y-254000D01*
X19685000Y-254000D02*
G75*
G03*
X19431000Y0I-254000J0D01*
G01*
X5994400Y-2540000D02*
G75*
G03*
X5994400Y-2540000I-177800J0D01*
G01*
X2413000Y-1701800D02*
X2413000Y-3378200D01*
X2590800Y-3556000D02*
X5029200Y-3556000D01*
X5207000Y-1701800D02*
G75*
G03*
X5029200Y-1524000I-177800J0D01*
G01*
X1981200Y-2540000D02*
G75*
G03*
X1981200Y-2540000I-177800J0D01*
G01*
X254000Y0D02*
G75*
G03*
X0Y-254000I0J-254000D01*
G01*
X5029200Y-3556000D02*
G75*
G03*
X5207000Y-3378200I0J177800D01*
G01*
X7239000Y-3048000D02*
X8001000Y-3048000D01*
X5207000Y-1701800D02*
X5207000Y-3378200D01*
X2590800Y-1524000D02*
X5029200Y-1524000D01*
X8001000Y-3048000D02*
G75*
G03*
X8001000Y-2032000I-381000J508000D01*
G01*
X2413000Y-3378200D02*
G75*
G03*
X2590800Y-3556000I177800J0D01*
G01*
X0Y-4826000D02*
G75*
G03*
X254000Y-5080000I254000J0D01*
G01*
X7239000Y-2032000D02*
X8001000Y-2032000D01*
X0Y-254000D02*
X0Y-4826000D01*
X7239000Y-2032000D02*
G75*
G03*
X7239000Y-3048000I381000J-508000D01*
G01*
X2590800Y-1524000D02*
G75*
G03*
X2413000Y-1701800I0J-177800D01*
G01*
D11*
X255119Y-5392976D02*
X255119Y-5192976D01*
X302738Y-5192976D01*
X331310Y-5202500D01*
X350357Y-5221548D01*
X359881Y-5240595D01*
X369405Y-5278690D01*
X369405Y-5307262D01*
X359881Y-5345357D01*
X350357Y-5364405D01*
X331310Y-5383452D01*
X302738Y-5392976D01*
X255119Y-5392976D01*
X455119Y-5392976D02*
X455119Y-5259643D01*
X455119Y-5297738D02*
X464643Y-5278690D01*
X474167Y-5269167D01*
X493214Y-5259643D01*
X512262Y-5259643D01*
X578929Y-5392976D02*
X578929Y-5259643D01*
X578929Y-5192976D02*
X569405Y-5202500D01*
X578929Y-5212024D01*
X588452Y-5202500D01*
X578929Y-5192976D01*
X578929Y-5212024D01*
X702738Y-5392976D02*
X683690Y-5383452D01*
X674167Y-5364405D01*
X674167Y-5192976D01*
X807500Y-5392976D02*
X788452Y-5383452D01*
X778928Y-5364405D01*
X778928Y-5192976D01*
X1036071Y-5392976D02*
X1036071Y-5192976D01*
X1102738Y-5335833D01*
X1169405Y-5192976D01*
X1169405Y-5392976D01*
X1350357Y-5392976D02*
X1350357Y-5288214D01*
X1340833Y-5269167D01*
X1321786Y-5259643D01*
X1283690Y-5259643D01*
X1264643Y-5269167D01*
X1350357Y-5383452D02*
X1331310Y-5392976D01*
X1283690Y-5392976D01*
X1264643Y-5383452D01*
X1255119Y-5364405D01*
X1255119Y-5345357D01*
X1264643Y-5326310D01*
X1283690Y-5316786D01*
X1331310Y-5316786D01*
X1350357Y-5307262D01*
X1445595Y-5259643D02*
X1445595Y-5459643D01*
X1445595Y-5269167D02*
X1464643Y-5259643D01*
X1502738Y-5259643D01*
X1521786Y-5269167D01*
X1531309Y-5278690D01*
X1540833Y-5297738D01*
X1540833Y-5354881D01*
X1531309Y-5373929D01*
X1521786Y-5383452D01*
X1502738Y-5392976D01*
X1464643Y-5392976D01*
X1445595Y-5383452D01*
X1626548Y-5373929D02*
X1636071Y-5383452D01*
X1626548Y-5392976D01*
X1617024Y-5383452D01*
X1626548Y-5373929D01*
X1626548Y-5392976D01*
X1626548Y-5269167D02*
X1636071Y-5278690D01*
X1626548Y-5288214D01*
X1617024Y-5278690D01*
X1626548Y-5269167D01*
X1626548Y-5288214D01*
M02*
