%FSLAX45Y45*%
G04 Gerber Fmt 4.5, Leading zero omitted, Abs format (unit mm)*
G04 Created by KiCad (PCBNEW 6.0.0-d3dd2cf0fa~116~ubuntu20.04.1) date 2021-12-30 07:41:58*
%MOMM*%
%LPD*%
G01*
G04 APERTURE LIST*
%TA.AperFunction,Profile*%
%ADD10C,0.050000*%
%TD*%
%ADD11C,0.200000*%
%ADD12C,0.100000*%
G04 APERTURE END LIST*
D10*
X19431000Y0D02*
X254000Y0D01*
X19431000Y-5080000D02*
G75*
G03*
X19685000Y-4826000I0J254000D01*
G01*
X18281650Y-2540000D02*
G75*
G03*
X18281650Y-2540000I-501650J0D01*
G01*
X254000Y-5080000D02*
X19431000Y-5080000D01*
X10795000Y-2540000D02*
G75*
G03*
X10795000Y-2540000I-635000J0D01*
G01*
X19685000Y-4826000D02*
X19685000Y-254000D01*
X19685000Y-254000D02*
G75*
G03*
X19431000Y0I-254000J0D01*
G01*
X5994400Y-2540000D02*
G75*
G03*
X5994400Y-2540000I-177800J0D01*
G01*
X2413000Y-1701800D02*
X2413000Y-3378200D01*
X2590800Y-3556000D02*
X5029200Y-3556000D01*
X5207000Y-1701800D02*
G75*
G03*
X5029200Y-1524000I-177800J0D01*
G01*
X1981200Y-2540000D02*
G75*
G03*
X1981200Y-2540000I-177800J0D01*
G01*
X254000Y0D02*
G75*
G03*
X0Y-254000I0J-254000D01*
G01*
X5029200Y-3556000D02*
G75*
G03*
X5207000Y-3378200I0J177800D01*
G01*
X7239000Y-3048000D02*
X8001000Y-3048000D01*
X5207000Y-1701800D02*
X5207000Y-3378200D01*
X2590800Y-1524000D02*
X5029200Y-1524000D01*
X8001000Y-3048000D02*
G75*
G03*
X8001000Y-2032000I-381000J508000D01*
G01*
X2413000Y-3378200D02*
G75*
G03*
X2590800Y-3556000I177800J0D01*
G01*
X0Y-4826000D02*
G75*
G03*
X254000Y-5080000I254000J0D01*
G01*
X7239000Y-2032000D02*
X8001000Y-2032000D01*
X0Y-254000D02*
X0Y-4826000D01*
X7239000Y-2032000D02*
G75*
G03*
X7239000Y-3048000I381000J-508000D01*
G01*
X2590800Y-1524000D02*
G75*
G03*
X2413000Y-1701800I0J-177800D01*
G01*
D11*
D12*
X5385600Y-2490000D02*
X5485600Y-2590000D01*
X5485600Y-2490000D02*
X5385600Y-2590000D01*
D11*
X255119Y-5392976D02*
X255119Y-5192976D01*
X302738Y-5192976D01*
X331310Y-5202500D01*
X350357Y-5221548D01*
X359881Y-5240595D01*
X369405Y-5278690D01*
X369405Y-5307262D01*
X359881Y-5345357D01*
X350357Y-5364405D01*
X331310Y-5383452D01*
X302738Y-5392976D01*
X255119Y-5392976D01*
X455119Y-5392976D02*
X455119Y-5259643D01*
X455119Y-5297738D02*
X464643Y-5278690D01*
X474167Y-5269167D01*
X493214Y-5259643D01*
X512262Y-5259643D01*
X578929Y-5392976D02*
X578929Y-5259643D01*
X578929Y-5192976D02*
X569405Y-5202500D01*
X578929Y-5212024D01*
X588452Y-5202500D01*
X578929Y-5192976D01*
X578929Y-5212024D01*
X702738Y-5392976D02*
X683690Y-5383452D01*
X674167Y-5364405D01*
X674167Y-5192976D01*
X807500Y-5392976D02*
X788452Y-5383452D01*
X778928Y-5364405D01*
X778928Y-5192976D01*
X1036071Y-5392976D02*
X1036071Y-5192976D01*
X1102738Y-5335833D01*
X1169405Y-5192976D01*
X1169405Y-5392976D01*
X1350357Y-5392976D02*
X1350357Y-5288214D01*
X1340833Y-5269167D01*
X1321786Y-5259643D01*
X1283690Y-5259643D01*
X1264643Y-5269167D01*
X1350357Y-5383452D02*
X1331310Y-5392976D01*
X1283690Y-5392976D01*
X1264643Y-5383452D01*
X1255119Y-5364405D01*
X1255119Y-5345357D01*
X1264643Y-5326310D01*
X1283690Y-5316786D01*
X1331310Y-5316786D01*
X1350357Y-5307262D01*
X1445595Y-5259643D02*
X1445595Y-5459643D01*
X1445595Y-5269167D02*
X1464643Y-5259643D01*
X1502738Y-5259643D01*
X1521786Y-5269167D01*
X1531309Y-5278690D01*
X1540833Y-5297738D01*
X1540833Y-5354881D01*
X1531309Y-5373929D01*
X1521786Y-5383452D01*
X1502738Y-5392976D01*
X1464643Y-5392976D01*
X1445595Y-5383452D01*
X1626548Y-5373929D02*
X1636071Y-5383452D01*
X1626548Y-5392976D01*
X1617024Y-5383452D01*
X1626548Y-5373929D01*
X1626548Y-5392976D01*
X1626548Y-5269167D02*
X1636071Y-5278690D01*
X1626548Y-5288214D01*
X1617024Y-5278690D01*
X1626548Y-5269167D01*
X1626548Y-5288214D01*
D12*
X-102500Y-5672500D02*
X-2500Y-5772500D01*
X-2500Y-5672500D02*
X-102500Y-5772500D01*
D11*
X359881Y-5812976D02*
X245595Y-5812976D01*
X302738Y-5812976D02*
X302738Y-5612976D01*
X283690Y-5641548D01*
X264643Y-5660595D01*
X245595Y-5670119D01*
X445595Y-5793928D02*
X455119Y-5803452D01*
X445595Y-5812976D01*
X436071Y-5803452D01*
X445595Y-5793928D01*
X445595Y-5812976D01*
X578929Y-5612976D02*
X597976Y-5612976D01*
X617024Y-5622500D01*
X626548Y-5632024D01*
X636071Y-5651071D01*
X645595Y-5689167D01*
X645595Y-5736786D01*
X636071Y-5774881D01*
X626548Y-5793928D01*
X617024Y-5803452D01*
X597976Y-5812976D01*
X578929Y-5812976D01*
X559881Y-5803452D01*
X550357Y-5793928D01*
X540833Y-5774881D01*
X531310Y-5736786D01*
X531310Y-5689167D01*
X540833Y-5651071D01*
X550357Y-5632024D01*
X559881Y-5622500D01*
X578929Y-5612976D01*
X769405Y-5612976D02*
X788452Y-5612976D01*
X807500Y-5622500D01*
X817024Y-5632024D01*
X826548Y-5651071D01*
X836071Y-5689167D01*
X836071Y-5736786D01*
X826548Y-5774881D01*
X817024Y-5793928D01*
X807500Y-5803452D01*
X788452Y-5812976D01*
X769405Y-5812976D01*
X750357Y-5803452D01*
X740833Y-5793928D01*
X731309Y-5774881D01*
X721786Y-5736786D01*
X721786Y-5689167D01*
X731309Y-5651071D01*
X740833Y-5632024D01*
X750357Y-5622500D01*
X769405Y-5612976D01*
X959881Y-5612976D02*
X978928Y-5612976D01*
X997976Y-5622500D01*
X1007500Y-5632024D01*
X1017024Y-5651071D01*
X1026548Y-5689167D01*
X1026548Y-5736786D01*
X1017024Y-5774881D01*
X1007500Y-5793928D01*
X997976Y-5803452D01*
X978928Y-5812976D01*
X959881Y-5812976D01*
X940833Y-5803452D01*
X931309Y-5793928D01*
X921786Y-5774881D01*
X912262Y-5736786D01*
X912262Y-5689167D01*
X921786Y-5651071D01*
X931309Y-5632024D01*
X940833Y-5622500D01*
X959881Y-5612976D01*
X1112262Y-5812976D02*
X1112262Y-5679643D01*
X1112262Y-5698690D02*
X1121786Y-5689167D01*
X1140833Y-5679643D01*
X1169405Y-5679643D01*
X1188452Y-5689167D01*
X1197976Y-5708214D01*
X1197976Y-5812976D01*
X1197976Y-5708214D02*
X1207500Y-5689167D01*
X1226548Y-5679643D01*
X1255119Y-5679643D01*
X1274167Y-5689167D01*
X1283690Y-5708214D01*
X1283690Y-5812976D01*
X1378929Y-5812976D02*
X1378929Y-5679643D01*
X1378929Y-5698690D02*
X1388452Y-5689167D01*
X1407500Y-5679643D01*
X1436071Y-5679643D01*
X1455119Y-5689167D01*
X1464643Y-5708214D01*
X1464643Y-5812976D01*
X1464643Y-5708214D02*
X1474167Y-5689167D01*
X1493214Y-5679643D01*
X1521786Y-5679643D01*
X1540833Y-5689167D01*
X1550357Y-5708214D01*
X1550357Y-5812976D01*
X1940833Y-5603452D02*
X1769405Y-5860595D01*
X2197976Y-5612976D02*
X2217024Y-5612976D01*
X2236071Y-5622500D01*
X2245595Y-5632024D01*
X2255119Y-5651071D01*
X2264643Y-5689167D01*
X2264643Y-5736786D01*
X2255119Y-5774881D01*
X2245595Y-5793928D01*
X2236071Y-5803452D01*
X2217024Y-5812976D01*
X2197976Y-5812976D01*
X2178929Y-5803452D01*
X2169405Y-5793928D01*
X2159881Y-5774881D01*
X2150357Y-5736786D01*
X2150357Y-5689167D01*
X2159881Y-5651071D01*
X2169405Y-5632024D01*
X2178929Y-5622500D01*
X2197976Y-5612976D01*
X2350357Y-5793928D02*
X2359881Y-5803452D01*
X2350357Y-5812976D01*
X2340833Y-5803452D01*
X2350357Y-5793928D01*
X2350357Y-5812976D01*
X2483690Y-5612976D02*
X2502738Y-5612976D01*
X2521786Y-5622500D01*
X2531310Y-5632024D01*
X2540833Y-5651071D01*
X2550357Y-5689167D01*
X2550357Y-5736786D01*
X2540833Y-5774881D01*
X2531310Y-5793928D01*
X2521786Y-5803452D01*
X2502738Y-5812976D01*
X2483690Y-5812976D01*
X2464643Y-5803452D01*
X2455119Y-5793928D01*
X2445595Y-5774881D01*
X2436071Y-5736786D01*
X2436071Y-5689167D01*
X2445595Y-5651071D01*
X2455119Y-5632024D01*
X2464643Y-5622500D01*
X2483690Y-5612976D01*
X2617024Y-5612976D02*
X2740833Y-5612976D01*
X2674167Y-5689167D01*
X2702738Y-5689167D01*
X2721786Y-5698690D01*
X2731310Y-5708214D01*
X2740833Y-5727262D01*
X2740833Y-5774881D01*
X2731310Y-5793928D01*
X2721786Y-5803452D01*
X2702738Y-5812976D01*
X2645595Y-5812976D01*
X2626548Y-5803452D01*
X2617024Y-5793928D01*
X2836071Y-5812976D02*
X2874167Y-5812976D01*
X2893214Y-5803452D01*
X2902738Y-5793928D01*
X2921786Y-5765357D01*
X2931309Y-5727262D01*
X2931309Y-5651071D01*
X2921786Y-5632024D01*
X2912262Y-5622500D01*
X2893214Y-5612976D01*
X2855119Y-5612976D01*
X2836071Y-5622500D01*
X2826548Y-5632024D01*
X2817024Y-5651071D01*
X2817024Y-5698690D01*
X2826548Y-5717738D01*
X2836071Y-5727262D01*
X2855119Y-5736786D01*
X2893214Y-5736786D01*
X2912262Y-5727262D01*
X2921786Y-5717738D01*
X2931309Y-5698690D01*
X3102738Y-5679643D02*
X3102738Y-5812976D01*
X3055119Y-5603452D02*
X3007500Y-5746309D01*
X3131309Y-5746309D01*
X3197976Y-5612976D02*
X3197976Y-5651071D01*
X3274167Y-5612976D02*
X3274167Y-5651071D01*
X3569405Y-5889167D02*
X3559881Y-5879643D01*
X3540833Y-5851071D01*
X3531309Y-5832024D01*
X3521786Y-5803452D01*
X3512262Y-5755833D01*
X3512262Y-5717738D01*
X3521786Y-5670119D01*
X3531309Y-5641548D01*
X3540833Y-5622500D01*
X3559881Y-5593928D01*
X3569405Y-5584405D01*
X3750357Y-5812976D02*
X3636071Y-5812976D01*
X3693214Y-5812976D02*
X3693214Y-5612976D01*
X3674167Y-5641548D01*
X3655119Y-5660595D01*
X3636071Y-5670119D01*
X3988452Y-5812976D02*
X3988452Y-5612976D01*
X4074167Y-5812976D02*
X4074167Y-5708214D01*
X4064643Y-5689167D01*
X4045595Y-5679643D01*
X4017024Y-5679643D01*
X3997976Y-5689167D01*
X3988452Y-5698690D01*
X4197976Y-5812976D02*
X4178928Y-5803452D01*
X4169405Y-5793928D01*
X4159881Y-5774881D01*
X4159881Y-5717738D01*
X4169405Y-5698690D01*
X4178928Y-5689167D01*
X4197976Y-5679643D01*
X4226548Y-5679643D01*
X4245595Y-5689167D01*
X4255119Y-5698690D01*
X4264643Y-5717738D01*
X4264643Y-5774881D01*
X4255119Y-5793928D01*
X4245595Y-5803452D01*
X4226548Y-5812976D01*
X4197976Y-5812976D01*
X4378929Y-5812976D02*
X4359881Y-5803452D01*
X4350357Y-5784405D01*
X4350357Y-5612976D01*
X4531310Y-5803452D02*
X4512262Y-5812976D01*
X4474167Y-5812976D01*
X4455119Y-5803452D01*
X4445595Y-5784405D01*
X4445595Y-5708214D01*
X4455119Y-5689167D01*
X4474167Y-5679643D01*
X4512262Y-5679643D01*
X4531310Y-5689167D01*
X4540833Y-5708214D01*
X4540833Y-5727262D01*
X4445595Y-5746309D01*
X4607500Y-5889167D02*
X4617024Y-5879643D01*
X4636071Y-5851071D01*
X4645595Y-5832024D01*
X4655119Y-5803452D01*
X4664643Y-5755833D01*
X4664643Y-5717738D01*
X4655119Y-5670119D01*
X4645595Y-5641548D01*
X4636071Y-5622500D01*
X4617024Y-5593928D01*
X4607500Y-5584405D01*
M02*
