G04 #@! TF.GenerationSoftware,KiCad,Pcbnew,6.0.0-d3dd2cf0fa~116~ubuntu20.04.1*
G04 #@! TF.CreationDate,2021-12-30T07:41:55-05:00*
G04 #@! TF.ProjectId,it_is_the_champion_rear_panel,69745f69-735f-4746-9865-5f6368616d70,0*
G04 #@! TF.SameCoordinates,Original*
G04 #@! TF.FileFunction,Legend,Bot*
G04 #@! TF.FilePolarity,Positive*
%FSLAX46Y46*%
G04 Gerber Fmt 4.6, Leading zero omitted, Abs format (unit mm)*
G04 Created by KiCad (PCBNEW 6.0.0-d3dd2cf0fa~116~ubuntu20.04.1) date 2021-12-30 07:41:55*
%MOMM*%
%LPD*%
G01*
G04 APERTURE LIST*
%ADD10C,0.150000*%
%ADD11C,2.000000*%
G04 APERTURE END LIST*
D10*
X42744447Y-36739580D02*
X42744447Y-37453866D01*
X42792066Y-37596723D01*
X42887304Y-37691961D01*
X43030161Y-37739580D01*
X43125400Y-37739580D01*
X41792066Y-37739580D02*
X42268257Y-37739580D01*
X42268257Y-36739580D01*
X40887304Y-37644342D02*
X40934923Y-37691961D01*
X41077780Y-37739580D01*
X41173019Y-37739580D01*
X41315876Y-37691961D01*
X41411114Y-37596723D01*
X41458733Y-37501485D01*
X41506352Y-37311009D01*
X41506352Y-37168152D01*
X41458733Y-36977676D01*
X41411114Y-36882438D01*
X41315876Y-36787200D01*
X41173019Y-36739580D01*
X41077780Y-36739580D01*
X40934923Y-36787200D01*
X40887304Y-36834819D01*
X40173019Y-36739580D02*
X40173019Y-37453866D01*
X40220638Y-37596723D01*
X40315876Y-37691961D01*
X40458733Y-37739580D01*
X40553971Y-37739580D01*
X39220638Y-37739580D02*
X39696828Y-37739580D01*
X39696828Y-36739580D01*
X38315876Y-37644342D02*
X38363495Y-37691961D01*
X38506352Y-37739580D01*
X38601590Y-37739580D01*
X38744447Y-37691961D01*
X38839685Y-37596723D01*
X38887304Y-37501485D01*
X38934923Y-37311009D01*
X38934923Y-37168152D01*
X38887304Y-36977676D01*
X38839685Y-36882438D01*
X38744447Y-36787200D01*
X38601590Y-36739580D01*
X38506352Y-36739580D01*
X38363495Y-36787200D01*
X38315876Y-36834819D01*
X37601590Y-36739580D02*
X37601590Y-37453866D01*
X37649209Y-37596723D01*
X37744447Y-37691961D01*
X37887304Y-37739580D01*
X37982542Y-37739580D01*
X36649209Y-37739580D02*
X37125400Y-37739580D01*
X37125400Y-36739580D01*
X35744447Y-37644342D02*
X35792066Y-37691961D01*
X35934923Y-37739580D01*
X36030161Y-37739580D01*
X36173019Y-37691961D01*
X36268257Y-37596723D01*
X36315876Y-37501485D01*
X36363495Y-37311009D01*
X36363495Y-37168152D01*
X36315876Y-36977676D01*
X36268257Y-36882438D01*
X36173019Y-36787200D01*
X36030161Y-36739580D01*
X35934923Y-36739580D01*
X35792066Y-36787200D01*
X35744447Y-36834819D01*
X35030161Y-36739580D02*
X35030161Y-37453866D01*
X35077780Y-37596723D01*
X35173019Y-37691961D01*
X35315876Y-37739580D01*
X35411114Y-37739580D01*
X34077780Y-37739580D02*
X34553971Y-37739580D01*
X34553971Y-36739580D01*
X33173019Y-37644342D02*
X33220638Y-37691961D01*
X33363495Y-37739580D01*
X33458733Y-37739580D01*
X33601590Y-37691961D01*
X33696828Y-37596723D01*
X33744447Y-37501485D01*
X33792066Y-37311009D01*
X33792066Y-37168152D01*
X33744447Y-36977676D01*
X33696828Y-36882438D01*
X33601590Y-36787200D01*
X33458733Y-36739580D01*
X33363495Y-36739580D01*
X33220638Y-36787200D01*
X33173019Y-36834819D01*
%LPC*%
D11*
X54356000Y-25400000D03*
M02*
