M48
; DRILL file {KiCad 5.1.10-88a1d61d58~90~ubuntu20.04.1} date Wed Aug 18 14:00:23 2021
; FORMAT={-:-/ absolute / metric / decimal}
; #@! TF.CreationDate,2021-08-18T14:00:23-04:00
; #@! TF.GenerationSoftware,Kicad,Pcbnew,5.1.10-88a1d61d58~90~ubuntu20.04.1
; #@! TF.FileFunction,Plated,1,2,PTH
FMAT,2
METRIC
T1C0.800
T2C1.200
T3C1.300
T4C1.550
T5C1.600
T6C1.800
%
G90
G05
T1
X36.83Y-48.26
X36.83Y-66.04
X56.83Y-66.04
X61.83Y-48.26
X86.36Y-40.64
X106.36Y-40.64
X107.95Y-71.12
X107.95Y-91.12
X111.8Y-64.77
X114.3Y-64.77
X121.92Y-48.26
X121.92Y-57.15
X146.92Y-48.26
X146.92Y-57.15
X154.94Y-48.58
X154.94Y-68.58
X161.33Y-101.727
X163.83Y-101.727
T2
X16.51Y-135.89
X19.17Y-121.92
X26.67Y-121.92
X35.56Y-109.22
X36.83Y-57.15
X36.83Y-73.66
X36.83Y-81.28
X36.95Y-121.92
X44.45Y-121.92
X46.99Y-135.89
X48.26Y-42.48
X52.76Y-42.48
X57.15Y-57.15
X57.15Y-73.66
X57.15Y-81.28
X57.27Y-125.73
X64.77Y-99.06
X64.77Y-125.73
X66.04Y-109.22
X71.12Y-109.22
X78.86Y-125.73
X85.09Y-99.06
X86.36Y-50.8
X86.36Y-59.69
X86.36Y-125.73
X92.075Y-71.12
X92.075Y-91.44
X99.695Y-71.12
X99.695Y-91.44
X100.45Y-125.73
X101.6Y-109.22
X106.68Y-50.8
X106.68Y-59.69
X106.68Y-109.22
X107.95Y-125.73
X116.84Y-71.12
X116.84Y-91.44
X121.92Y-125.73
X122.5Y-42.48
X127.0Y-42.48
X127.0Y-109.22
X129.42Y-125.73
X132.08Y-102.87
X132.08Y-109.22
X140.86Y-42.48
X142.24Y-125.73
X145.36Y-42.48
X149.74Y-125.73
X149.86Y-42.48
X151.13Y-74.93
X151.13Y-95.25
X152.4Y-102.87
X152.4Y-109.22
X158.75Y-74.93
X158.75Y-95.25
X161.29Y-113.03
X161.29Y-133.35
X165.1Y-42.48
X165.1Y-48.26
X165.1Y-68.58
X166.37Y-74.93
X166.37Y-95.25
X169.6Y-42.48
X173.99Y-74.93
X173.99Y-95.25
T3
X16.59Y-64.57
X21.59Y-52.07
X26.59Y-64.57
T4
X8.72Y-72.39
X8.72Y-77.19
X8.72Y-81.99
X8.72Y-91.44
X8.72Y-96.24
X8.72Y-101.04
X8.72Y-105.84
X8.72Y-114.3
X8.72Y-119.1
X8.89Y-58.42
X8.89Y-63.22
T5
X-5.08Y-125.73
X0.0Y-125.73
X5.08Y-125.73
X10.16Y-125.73
X15.24Y-91.44
X15.24Y-96.52
X15.24Y-101.6
X15.24Y-106.68
T6
X63.16Y-78.74
X65.165Y-72.568
X65.165Y-84.912
X70.415Y-68.754
X76.905Y-68.754
X76.905Y-88.726
X82.155Y-72.568
X82.155Y-84.912
X84.16Y-78.74
X124.12Y-78.74
X126.125Y-72.568
X126.125Y-84.912
X131.375Y-68.754
X137.865Y-68.754
X137.865Y-88.726
X143.115Y-72.568
X143.115Y-84.912
X145.12Y-78.74
T0
M30
