M48
; DRILL file {KiCad 5.1.10-88a1d61d58~90~ubuntu20.04.1} date Wed Aug 18 14:00:23 2021
; FORMAT={-:-/ absolute / metric / decimal}
; #@! TF.CreationDate,2021-08-18T14:00:23-04:00
; #@! TF.GenerationSoftware,Kicad,Pcbnew,5.1.10-88a1d61d58~90~ubuntu20.04.1
; #@! TF.FileFunction,NonPlated,1,2,NPTH
FMAT,2
METRIC
T1C2.500
T2C2.800
T3C3.100
T4C3.200
%
G90
G05
T1
X48.26Y-30.48
X52.76Y-30.48
X122.5Y-30.48
X127.0Y-30.48
X140.86Y-30.48
X145.36Y-30.48
X149.86Y-30.48
X165.1Y-30.48
X169.6Y-30.48
T2
X-5.08Y-72.39
X-5.08Y-77.19
X-5.08Y-81.99
X-5.08Y-91.44
X-5.08Y-96.24
X-5.08Y-101.04
X-5.08Y-105.84
X-5.08Y-114.3
X-5.08Y-119.1
X-4.91Y-58.42
X-4.91Y-63.22
T3
X73.66Y-64.49
X73.66Y-78.74
X73.66Y-92.99
X134.62Y-64.49
X134.62Y-78.74
X134.62Y-92.99
T4
X-5.08Y-30.48
X-5.08Y-135.89
X175.26Y-30.48
X175.26Y-135.89
T0
M30
