%FSLAX45Y45*%
G04 Gerber Fmt 4.5, Leading zero omitted, Abs format (unit mm)*
G04 Created by KiCad (PCBNEW 5.1.10-88a1d61d58~90~ubuntu20.04.1) date 2021-08-18 14:00:24*
%MOMM*%
%LPD*%
G01*
G04 APERTURE LIST*
%TA.AperFunction,Profile*%
%ADD10C,0.100000*%
%TD*%
%ADD11C,0.200000*%
%ADD12C,0.300000*%
G04 APERTURE END LIST*
D10*
X18034000Y-13589000D02*
G75*
G02*
X17526000Y-14097000I-508000J0D01*
G01*
X17526000Y-2540000D02*
G75*
G02*
X18034000Y-3048000I0J-508000D01*
G01*
X-508000Y-14097000D02*
G75*
G02*
X-1016000Y-13589000I0J508000D01*
G01*
X-1016000Y-3048000D02*
G75*
G02*
X-508000Y-2540000I508000J0D01*
G01*
X18034000Y-3048000D02*
X18034000Y-3048000D01*
X-508000Y-2540000D02*
X17526000Y-2540000D01*
X-1016000Y-3048000D02*
X-1016000Y-3048000D01*
X-1016000Y-13589000D02*
X-1016000Y-3048000D01*
X17526000Y-14097000D02*
X-508000Y-14097000D01*
X18034000Y-3048000D02*
X18034000Y-13589000D01*
D11*
X3643000Y-4786000D02*
X3723000Y-4866000D01*
X3723000Y-4786000D02*
X3643000Y-4866000D01*
X3643000Y-6564000D02*
X3723000Y-6644000D01*
X3723000Y-6564000D02*
X3643000Y-6644000D01*
X5643000Y-6564000D02*
X5723000Y-6644000D01*
X5723000Y-6564000D02*
X5643000Y-6644000D01*
X6143000Y-4786000D02*
X6223000Y-4866000D01*
X6223000Y-4786000D02*
X6143000Y-4866000D01*
X8596000Y-4024000D02*
X8676000Y-4104000D01*
X8676000Y-4024000D02*
X8596000Y-4104000D01*
X10596000Y-4024000D02*
X10676000Y-4104000D01*
X10676000Y-4024000D02*
X10596000Y-4104000D01*
X10755000Y-7072000D02*
X10835000Y-7152000D01*
X10835000Y-7072000D02*
X10755000Y-7152000D01*
X10755000Y-9072000D02*
X10835000Y-9152000D01*
X10835000Y-9072000D02*
X10755000Y-9152000D01*
X11140000Y-6437000D02*
X11220000Y-6517000D01*
X11220000Y-6437000D02*
X11140000Y-6517000D01*
X11390000Y-6437000D02*
X11470000Y-6517000D01*
X11470000Y-6437000D02*
X11390000Y-6517000D01*
X12152000Y-4786000D02*
X12232000Y-4866000D01*
X12232000Y-4786000D02*
X12152000Y-4866000D01*
X12152000Y-5675000D02*
X12232000Y-5755000D01*
X12232000Y-5675000D02*
X12152000Y-5755000D01*
X14652000Y-4786000D02*
X14732000Y-4866000D01*
X14732000Y-4786000D02*
X14652000Y-4866000D01*
X14652000Y-5675000D02*
X14732000Y-5755000D01*
X14732000Y-5675000D02*
X14652000Y-5755000D01*
X15454000Y-4818000D02*
X15534000Y-4898000D01*
X15534000Y-4818000D02*
X15454000Y-4898000D01*
X15454000Y-6818000D02*
X15534000Y-6898000D01*
X15534000Y-6818000D02*
X15454000Y-6898000D01*
X16093000Y-10132700D02*
X16173000Y-10212700D01*
X16173000Y-10132700D02*
X16093000Y-10212700D01*
X16343000Y-10132700D02*
X16423000Y-10212700D01*
X16423000Y-10132700D02*
X16343000Y-10212700D01*
X1711000Y-13589000D02*
G75*
G03*
X1711000Y-13589000I-60000J0D01*
G01*
X1977000Y-12192000D02*
G75*
G03*
X1977000Y-12192000I-60000J0D01*
G01*
X2727000Y-12192000D02*
G75*
G03*
X2727000Y-12192000I-60000J0D01*
G01*
X3616000Y-10922000D02*
G75*
G03*
X3616000Y-10922000I-60000J0D01*
G01*
X3743000Y-5715000D02*
G75*
G03*
X3743000Y-5715000I-60000J0D01*
G01*
X3743000Y-7366000D02*
G75*
G03*
X3743000Y-7366000I-60000J0D01*
G01*
X3743000Y-8128000D02*
G75*
G03*
X3743000Y-8128000I-60000J0D01*
G01*
X3755000Y-12192000D02*
G75*
G03*
X3755000Y-12192000I-60000J0D01*
G01*
X4505000Y-12192000D02*
G75*
G03*
X4505000Y-12192000I-60000J0D01*
G01*
X4759000Y-13589000D02*
G75*
G03*
X4759000Y-13589000I-60000J0D01*
G01*
X4886000Y-4248000D02*
G75*
G03*
X4886000Y-4248000I-60000J0D01*
G01*
X5336000Y-4248000D02*
G75*
G03*
X5336000Y-4248000I-60000J0D01*
G01*
X5775000Y-5715000D02*
G75*
G03*
X5775000Y-5715000I-60000J0D01*
G01*
X5775000Y-7366000D02*
G75*
G03*
X5775000Y-7366000I-60000J0D01*
G01*
X5775000Y-8128000D02*
G75*
G03*
X5775000Y-8128000I-60000J0D01*
G01*
X5787000Y-12573000D02*
G75*
G03*
X5787000Y-12573000I-60000J0D01*
G01*
X6537000Y-9906000D02*
G75*
G03*
X6537000Y-9906000I-60000J0D01*
G01*
X6537000Y-12573000D02*
G75*
G03*
X6537000Y-12573000I-60000J0D01*
G01*
X6664000Y-10922000D02*
G75*
G03*
X6664000Y-10922000I-60000J0D01*
G01*
X7172000Y-10922000D02*
G75*
G03*
X7172000Y-10922000I-60000J0D01*
G01*
X7946000Y-12573000D02*
G75*
G03*
X7946000Y-12573000I-60000J0D01*
G01*
X8569000Y-9906000D02*
G75*
G03*
X8569000Y-9906000I-60000J0D01*
G01*
X8696000Y-5080000D02*
G75*
G03*
X8696000Y-5080000I-60000J0D01*
G01*
X8696000Y-5969000D02*
G75*
G03*
X8696000Y-5969000I-60000J0D01*
G01*
X8696000Y-12573000D02*
G75*
G03*
X8696000Y-12573000I-60000J0D01*
G01*
X9267500Y-7112000D02*
G75*
G03*
X9267500Y-7112000I-60000J0D01*
G01*
X9267500Y-9144000D02*
G75*
G03*
X9267500Y-9144000I-60000J0D01*
G01*
X10029500Y-7112000D02*
G75*
G03*
X10029500Y-7112000I-60000J0D01*
G01*
X10029500Y-9144000D02*
G75*
G03*
X10029500Y-9144000I-60000J0D01*
G01*
X10105000Y-12573000D02*
G75*
G03*
X10105000Y-12573000I-60000J0D01*
G01*
X10220000Y-10922000D02*
G75*
G03*
X10220000Y-10922000I-60000J0D01*
G01*
X10728000Y-5080000D02*
G75*
G03*
X10728000Y-5080000I-60000J0D01*
G01*
X10728000Y-5969000D02*
G75*
G03*
X10728000Y-5969000I-60000J0D01*
G01*
X10728000Y-10922000D02*
G75*
G03*
X10728000Y-10922000I-60000J0D01*
G01*
X10855000Y-12573000D02*
G75*
G03*
X10855000Y-12573000I-60000J0D01*
G01*
X11744000Y-7112000D02*
G75*
G03*
X11744000Y-7112000I-60000J0D01*
G01*
X11744000Y-9144000D02*
G75*
G03*
X11744000Y-9144000I-60000J0D01*
G01*
X12252000Y-12573000D02*
G75*
G03*
X12252000Y-12573000I-60000J0D01*
G01*
X12310000Y-4248000D02*
G75*
G03*
X12310000Y-4248000I-60000J0D01*
G01*
X12760000Y-4248000D02*
G75*
G03*
X12760000Y-4248000I-60000J0D01*
G01*
X12760000Y-10922000D02*
G75*
G03*
X12760000Y-10922000I-60000J0D01*
G01*
X13002000Y-12573000D02*
G75*
G03*
X13002000Y-12573000I-60000J0D01*
G01*
X13268000Y-10287000D02*
G75*
G03*
X13268000Y-10287000I-60000J0D01*
G01*
X13268000Y-10922000D02*
G75*
G03*
X13268000Y-10922000I-60000J0D01*
G01*
X14146000Y-4248000D02*
G75*
G03*
X14146000Y-4248000I-60000J0D01*
G01*
X14284000Y-12573000D02*
G75*
G03*
X14284000Y-12573000I-60000J0D01*
G01*
X14596000Y-4248000D02*
G75*
G03*
X14596000Y-4248000I-60000J0D01*
G01*
X15034000Y-12573000D02*
G75*
G03*
X15034000Y-12573000I-60000J0D01*
G01*
X15046000Y-4248000D02*
G75*
G03*
X15046000Y-4248000I-60000J0D01*
G01*
X15173000Y-7493000D02*
G75*
G03*
X15173000Y-7493000I-60000J0D01*
G01*
X15173000Y-9525000D02*
G75*
G03*
X15173000Y-9525000I-60000J0D01*
G01*
X15300000Y-10287000D02*
G75*
G03*
X15300000Y-10287000I-60000J0D01*
G01*
X15300000Y-10922000D02*
G75*
G03*
X15300000Y-10922000I-60000J0D01*
G01*
X15935000Y-7493000D02*
G75*
G03*
X15935000Y-7493000I-60000J0D01*
G01*
X15935000Y-9525000D02*
G75*
G03*
X15935000Y-9525000I-60000J0D01*
G01*
X16189000Y-11303000D02*
G75*
G03*
X16189000Y-11303000I-60000J0D01*
G01*
X16189000Y-13335000D02*
G75*
G03*
X16189000Y-13335000I-60000J0D01*
G01*
X16570000Y-4248000D02*
G75*
G03*
X16570000Y-4248000I-60000J0D01*
G01*
X16570000Y-4826000D02*
G75*
G03*
X16570000Y-4826000I-60000J0D01*
G01*
X16570000Y-6858000D02*
G75*
G03*
X16570000Y-6858000I-60000J0D01*
G01*
X16697000Y-7493000D02*
G75*
G03*
X16697000Y-7493000I-60000J0D01*
G01*
X16697000Y-9525000D02*
G75*
G03*
X16697000Y-9525000I-60000J0D01*
G01*
X17020000Y-4248000D02*
G75*
G03*
X17020000Y-4248000I-60000J0D01*
G01*
X17459000Y-7493000D02*
G75*
G03*
X17459000Y-7493000I-60000J0D01*
G01*
X17459000Y-9525000D02*
G75*
G03*
X17459000Y-9525000I-60000J0D01*
G01*
X1659000Y-6392000D02*
X1659000Y-6522000D01*
X1594000Y-6457000D02*
X1724000Y-6457000D01*
X2159000Y-5142000D02*
X2159000Y-5272000D01*
X2094000Y-5207000D02*
X2224000Y-5207000D01*
X2659000Y-6392000D02*
X2659000Y-6522000D01*
X2594000Y-6457000D02*
X2724000Y-6457000D01*
X926801Y-7293801D02*
X926801Y-7184199D01*
X817199Y-7184199D01*
X817199Y-7293801D01*
X926801Y-7293801D01*
X926801Y-7773801D02*
X926801Y-7664199D01*
X817199Y-7664199D01*
X817199Y-7773801D01*
X926801Y-7773801D01*
X926801Y-8253801D02*
X926801Y-8144199D01*
X817199Y-8144199D01*
X817199Y-8253801D01*
X926801Y-8253801D01*
X926801Y-9198801D02*
X926801Y-9089199D01*
X817199Y-9089199D01*
X817199Y-9198801D01*
X926801Y-9198801D01*
X926801Y-9678801D02*
X926801Y-9569199D01*
X817199Y-9569199D01*
X817199Y-9678801D01*
X926801Y-9678801D01*
X926801Y-10158801D02*
X926801Y-10049199D01*
X817199Y-10049199D01*
X817199Y-10158801D01*
X926801Y-10158801D01*
X926801Y-10638801D02*
X926801Y-10529199D01*
X817199Y-10529199D01*
X817199Y-10638801D01*
X926801Y-10638801D01*
X926801Y-11484801D02*
X926801Y-11375199D01*
X817199Y-11375199D01*
X817199Y-11484801D01*
X926801Y-11484801D01*
X926801Y-11964801D02*
X926801Y-11855199D01*
X817199Y-11855199D01*
X817199Y-11964801D01*
X926801Y-11964801D01*
X943801Y-5896801D02*
X943801Y-5787199D01*
X834199Y-5787199D01*
X834199Y-5896801D01*
X943801Y-5896801D01*
X943801Y-6376801D02*
X943801Y-6267199D01*
X834199Y-6267199D01*
X834199Y-6376801D01*
X943801Y-6376801D01*
X-508000Y-12653000D02*
X-428000Y-12573000D01*
X-508000Y-12493000D01*
X-588000Y-12573000D01*
X-508000Y-12653000D01*
X0Y-12653000D02*
X80000Y-12573000D01*
X0Y-12493000D01*
X-80000Y-12573000D01*
X0Y-12653000D01*
X508000Y-12653000D02*
X588000Y-12573000D01*
X508000Y-12493000D01*
X428000Y-12573000D01*
X508000Y-12653000D01*
X1016000Y-12653000D02*
X1096000Y-12573000D01*
X1016000Y-12493000D01*
X936000Y-12573000D01*
X1016000Y-12653000D01*
X1524000Y-9224000D02*
X1604000Y-9144000D01*
X1524000Y-9064000D01*
X1444000Y-9144000D01*
X1524000Y-9224000D01*
X1524000Y-9732000D02*
X1604000Y-9652000D01*
X1524000Y-9572000D01*
X1444000Y-9652000D01*
X1524000Y-9732000D01*
X1524000Y-10240000D02*
X1604000Y-10160000D01*
X1524000Y-10080000D01*
X1444000Y-10160000D01*
X1524000Y-10240000D01*
X1524000Y-10748000D02*
X1604000Y-10668000D01*
X1524000Y-10588000D01*
X1444000Y-10668000D01*
X1524000Y-10748000D01*
X6226000Y-7784000D02*
X6406000Y-7964000D01*
X6406000Y-7784000D02*
X6226000Y-7964000D01*
X6406000Y-7874000D02*
G75*
G03*
X6406000Y-7874000I-90000J0D01*
G01*
X6426532Y-7166825D02*
X6606532Y-7346825D01*
X6606532Y-7166825D02*
X6426532Y-7346825D01*
X6606532Y-7256825D02*
G75*
G03*
X6606532Y-7256825I-90000J0D01*
G01*
X6426532Y-8401175D02*
X6606532Y-8581175D01*
X6606532Y-8401175D02*
X6426532Y-8581175D01*
X6606532Y-8491175D02*
G75*
G03*
X6606532Y-8491175I-90000J0D01*
G01*
X6951532Y-6785391D02*
X7131532Y-6965391D01*
X7131532Y-6785391D02*
X6951532Y-6965391D01*
X7131532Y-6875391D02*
G75*
G03*
X7131532Y-6875391I-90000J0D01*
G01*
X7600468Y-6785391D02*
X7780468Y-6965391D01*
X7780468Y-6785391D02*
X7600468Y-6965391D01*
X7780468Y-6875391D02*
G75*
G03*
X7780468Y-6875391I-90000J0D01*
G01*
X7600468Y-8782609D02*
X7780468Y-8962609D01*
X7780468Y-8782609D02*
X7600468Y-8962609D01*
X7780468Y-8872609D02*
G75*
G03*
X7780468Y-8872609I-90000J0D01*
G01*
X8125468Y-7166825D02*
X8305468Y-7346825D01*
X8305468Y-7166825D02*
X8125468Y-7346825D01*
X8305468Y-7256825D02*
G75*
G03*
X8305468Y-7256825I-90000J0D01*
G01*
X8125468Y-8401175D02*
X8305468Y-8581175D01*
X8305468Y-8401175D02*
X8125468Y-8581175D01*
X8305468Y-8491175D02*
G75*
G03*
X8305468Y-8491175I-90000J0D01*
G01*
X8326000Y-7784000D02*
X8506000Y-7964000D01*
X8506000Y-7784000D02*
X8326000Y-7964000D01*
X8506000Y-7874000D02*
G75*
G03*
X8506000Y-7874000I-90000J0D01*
G01*
X12322000Y-7784000D02*
X12502000Y-7964000D01*
X12502000Y-7784000D02*
X12322000Y-7964000D01*
X12502000Y-7874000D02*
G75*
G03*
X12502000Y-7874000I-90000J0D01*
G01*
X12522532Y-7166825D02*
X12702532Y-7346825D01*
X12702532Y-7166825D02*
X12522532Y-7346825D01*
X12702532Y-7256825D02*
G75*
G03*
X12702532Y-7256825I-90000J0D01*
G01*
X12522532Y-8401175D02*
X12702532Y-8581175D01*
X12702532Y-8401175D02*
X12522532Y-8581175D01*
X12702532Y-8491175D02*
G75*
G03*
X12702532Y-8491175I-90000J0D01*
G01*
X13047532Y-6785391D02*
X13227532Y-6965391D01*
X13227532Y-6785391D02*
X13047532Y-6965391D01*
X13227532Y-6875391D02*
G75*
G03*
X13227532Y-6875391I-90000J0D01*
G01*
X13696468Y-6785391D02*
X13876468Y-6965391D01*
X13876468Y-6785391D02*
X13696468Y-6965391D01*
X13876468Y-6875391D02*
G75*
G03*
X13876468Y-6875391I-90000J0D01*
G01*
X13696468Y-8782609D02*
X13876468Y-8962609D01*
X13876468Y-8782609D02*
X13696468Y-8962609D01*
X13876468Y-8872609D02*
G75*
G03*
X13876468Y-8872609I-90000J0D01*
G01*
X14221468Y-7166825D02*
X14401468Y-7346825D01*
X14401468Y-7166825D02*
X14221468Y-7346825D01*
X14401468Y-7256825D02*
G75*
G03*
X14401468Y-7256825I-90000J0D01*
G01*
X14221468Y-8401175D02*
X14401468Y-8581175D01*
X14401468Y-8401175D02*
X14221468Y-8581175D01*
X14401468Y-8491175D02*
G75*
G03*
X14401468Y-8491175I-90000J0D01*
G01*
X14422000Y-7784000D02*
X14602000Y-7964000D01*
X14602000Y-7784000D02*
X14422000Y-7964000D01*
X14602000Y-7874000D02*
G75*
G03*
X14602000Y-7874000I-90000J0D01*
G01*
D12*
X-734571Y-14567714D02*
X-734571Y-14267714D01*
X-663143Y-14267714D01*
X-620286Y-14282000D01*
X-591714Y-14310571D01*
X-577429Y-14339143D01*
X-563143Y-14396286D01*
X-563143Y-14439143D01*
X-577429Y-14496286D01*
X-591714Y-14524857D01*
X-620286Y-14553429D01*
X-663143Y-14567714D01*
X-734571Y-14567714D01*
X-434571Y-14567714D02*
X-434571Y-14367714D01*
X-434571Y-14424857D02*
X-420286Y-14396286D01*
X-406000Y-14382000D01*
X-377429Y-14367714D01*
X-348857Y-14367714D01*
X-248857Y-14567714D02*
X-248857Y-14367714D01*
X-248857Y-14267714D02*
X-263143Y-14282000D01*
X-248857Y-14296286D01*
X-234571Y-14282000D01*
X-248857Y-14267714D01*
X-248857Y-14296286D01*
X-63143Y-14567714D02*
X-91714Y-14553429D01*
X-106000Y-14524857D01*
X-106000Y-14267714D01*
X94000Y-14567714D02*
X65428Y-14553429D01*
X51143Y-14524857D01*
X51143Y-14267714D01*
X436857Y-14567714D02*
X436857Y-14267714D01*
X536857Y-14482000D01*
X636857Y-14267714D01*
X636857Y-14567714D01*
X908286Y-14567714D02*
X908286Y-14410571D01*
X894000Y-14382000D01*
X865428Y-14367714D01*
X808286Y-14367714D01*
X779714Y-14382000D01*
X908286Y-14553429D02*
X879714Y-14567714D01*
X808286Y-14567714D01*
X779714Y-14553429D01*
X765428Y-14524857D01*
X765428Y-14496286D01*
X779714Y-14467714D01*
X808286Y-14453429D01*
X879714Y-14453429D01*
X908286Y-14439143D01*
X1051143Y-14367714D02*
X1051143Y-14667714D01*
X1051143Y-14382000D02*
X1079714Y-14367714D01*
X1136857Y-14367714D01*
X1165428Y-14382000D01*
X1179714Y-14396286D01*
X1194000Y-14424857D01*
X1194000Y-14510571D01*
X1179714Y-14539143D01*
X1165428Y-14553429D01*
X1136857Y-14567714D01*
X1079714Y-14567714D01*
X1051143Y-14553429D01*
X1322571Y-14539143D02*
X1336857Y-14553429D01*
X1322571Y-14567714D01*
X1308286Y-14553429D01*
X1322571Y-14539143D01*
X1322571Y-14567714D01*
X1322571Y-14382000D02*
X1336857Y-14396286D01*
X1322571Y-14410571D01*
X1308286Y-14396286D01*
X1322571Y-14382000D01*
X1322571Y-14410571D01*
X-1101000Y-15022000D02*
X-1021000Y-15102000D01*
X-1021000Y-15022000D02*
X-1101000Y-15102000D01*
X-677429Y-14897714D02*
X-648857Y-14897714D01*
X-620286Y-14912000D01*
X-606000Y-14926286D01*
X-591714Y-14954857D01*
X-577429Y-15012000D01*
X-577429Y-15083429D01*
X-591714Y-15140571D01*
X-606000Y-15169143D01*
X-620286Y-15183429D01*
X-648857Y-15197714D01*
X-677429Y-15197714D01*
X-706000Y-15183429D01*
X-720286Y-15169143D01*
X-734571Y-15140571D01*
X-748857Y-15083429D01*
X-748857Y-15012000D01*
X-734571Y-14954857D01*
X-720286Y-14926286D01*
X-706000Y-14912000D01*
X-677429Y-14897714D01*
X-448857Y-15169143D02*
X-434571Y-15183429D01*
X-448857Y-15197714D01*
X-463143Y-15183429D01*
X-448857Y-15169143D01*
X-448857Y-15197714D01*
X-263143Y-15026286D02*
X-291714Y-15012000D01*
X-306000Y-14997714D01*
X-320286Y-14969143D01*
X-320286Y-14954857D01*
X-306000Y-14926286D01*
X-291714Y-14912000D01*
X-263143Y-14897714D01*
X-206000Y-14897714D01*
X-177429Y-14912000D01*
X-163143Y-14926286D01*
X-148857Y-14954857D01*
X-148857Y-14969143D01*
X-163143Y-14997714D01*
X-177429Y-15012000D01*
X-206000Y-15026286D01*
X-263143Y-15026286D01*
X-291714Y-15040571D01*
X-306000Y-15054857D01*
X-320286Y-15083429D01*
X-320286Y-15140571D01*
X-306000Y-15169143D01*
X-291714Y-15183429D01*
X-263143Y-15197714D01*
X-206000Y-15197714D01*
X-177429Y-15183429D01*
X-163143Y-15169143D01*
X-148857Y-15140571D01*
X-148857Y-15083429D01*
X-163143Y-15054857D01*
X-177429Y-15040571D01*
X-206000Y-15026286D01*
X36857Y-14897714D02*
X65428Y-14897714D01*
X94000Y-14912000D01*
X108286Y-14926286D01*
X122571Y-14954857D01*
X136857Y-15012000D01*
X136857Y-15083429D01*
X122571Y-15140571D01*
X108286Y-15169143D01*
X94000Y-15183429D01*
X65428Y-15197714D01*
X36857Y-15197714D01*
X8286Y-15183429D01*
X-6000Y-15169143D01*
X-20286Y-15140571D01*
X-34572Y-15083429D01*
X-34572Y-15012000D01*
X-20286Y-14954857D01*
X-6000Y-14926286D01*
X8286Y-14912000D01*
X36857Y-14897714D01*
X322571Y-14897714D02*
X351143Y-14897714D01*
X379714Y-14912000D01*
X394000Y-14926286D01*
X408286Y-14954857D01*
X422571Y-15012000D01*
X422571Y-15083429D01*
X408286Y-15140571D01*
X394000Y-15169143D01*
X379714Y-15183429D01*
X351143Y-15197714D01*
X322571Y-15197714D01*
X294000Y-15183429D01*
X279714Y-15169143D01*
X265428Y-15140571D01*
X251143Y-15083429D01*
X251143Y-15012000D01*
X265428Y-14954857D01*
X279714Y-14926286D01*
X294000Y-14912000D01*
X322571Y-14897714D01*
X551143Y-15197714D02*
X551143Y-14997714D01*
X551143Y-15026286D02*
X565428Y-15012000D01*
X594000Y-14997714D01*
X636857Y-14997714D01*
X665428Y-15012000D01*
X679714Y-15040571D01*
X679714Y-15197714D01*
X679714Y-15040571D02*
X694000Y-15012000D01*
X722571Y-14997714D01*
X765428Y-14997714D01*
X794000Y-15012000D01*
X808286Y-15040571D01*
X808286Y-15197714D01*
X951143Y-15197714D02*
X951143Y-14997714D01*
X951143Y-15026286D02*
X965428Y-15012000D01*
X994000Y-14997714D01*
X1036857Y-14997714D01*
X1065428Y-15012000D01*
X1079714Y-15040571D01*
X1079714Y-15197714D01*
X1079714Y-15040571D02*
X1094000Y-15012000D01*
X1122571Y-14997714D01*
X1165428Y-14997714D01*
X1194000Y-15012000D01*
X1208286Y-15040571D01*
X1208286Y-15197714D01*
X1794000Y-14883429D02*
X1536857Y-15269143D01*
X2179714Y-14897714D02*
X2208286Y-14897714D01*
X2236857Y-14912000D01*
X2251143Y-14926286D01*
X2265428Y-14954857D01*
X2279714Y-15012000D01*
X2279714Y-15083429D01*
X2265428Y-15140571D01*
X2251143Y-15169143D01*
X2236857Y-15183429D01*
X2208286Y-15197714D01*
X2179714Y-15197714D01*
X2151143Y-15183429D01*
X2136857Y-15169143D01*
X2122571Y-15140571D01*
X2108286Y-15083429D01*
X2108286Y-15012000D01*
X2122571Y-14954857D01*
X2136857Y-14926286D01*
X2151143Y-14912000D01*
X2179714Y-14897714D01*
X2408286Y-15169143D02*
X2422571Y-15183429D01*
X2408286Y-15197714D01*
X2394000Y-15183429D01*
X2408286Y-15169143D01*
X2408286Y-15197714D01*
X2608286Y-14897714D02*
X2636857Y-14897714D01*
X2665428Y-14912000D01*
X2679714Y-14926286D01*
X2694000Y-14954857D01*
X2708286Y-15012000D01*
X2708286Y-15083429D01*
X2694000Y-15140571D01*
X2679714Y-15169143D01*
X2665428Y-15183429D01*
X2636857Y-15197714D01*
X2608286Y-15197714D01*
X2579714Y-15183429D01*
X2565428Y-15169143D01*
X2551143Y-15140571D01*
X2536857Y-15083429D01*
X2536857Y-15012000D01*
X2551143Y-14954857D01*
X2565428Y-14926286D01*
X2579714Y-14912000D01*
X2608286Y-14897714D01*
X2808286Y-14897714D02*
X2994000Y-14897714D01*
X2894000Y-15012000D01*
X2936857Y-15012000D01*
X2965428Y-15026286D01*
X2979714Y-15040571D01*
X2994000Y-15069143D01*
X2994000Y-15140571D01*
X2979714Y-15169143D01*
X2965428Y-15183429D01*
X2936857Y-15197714D01*
X2851143Y-15197714D01*
X2822571Y-15183429D01*
X2808286Y-15169143D01*
X3279714Y-15197714D02*
X3108286Y-15197714D01*
X3194000Y-15197714D02*
X3194000Y-14897714D01*
X3165428Y-14940571D01*
X3136857Y-14969143D01*
X3108286Y-14983429D01*
X3551143Y-14897714D02*
X3408286Y-14897714D01*
X3394000Y-15040571D01*
X3408286Y-15026286D01*
X3436857Y-15012000D01*
X3508286Y-15012000D01*
X3536857Y-15026286D01*
X3551143Y-15040571D01*
X3565428Y-15069143D01*
X3565428Y-15140571D01*
X3551143Y-15169143D01*
X3536857Y-15183429D01*
X3508286Y-15197714D01*
X3436857Y-15197714D01*
X3408286Y-15183429D01*
X3394000Y-15169143D01*
X3679714Y-14897714D02*
X3679714Y-14954857D01*
X3794000Y-14897714D02*
X3794000Y-14954857D01*
X4236857Y-15312000D02*
X4222571Y-15297714D01*
X4194000Y-15254857D01*
X4179714Y-15226286D01*
X4165428Y-15183429D01*
X4151143Y-15112000D01*
X4151143Y-15054857D01*
X4165428Y-14983429D01*
X4179714Y-14940571D01*
X4194000Y-14912000D01*
X4222571Y-14869143D01*
X4236857Y-14854857D01*
X4508286Y-15197714D02*
X4336857Y-15197714D01*
X4422571Y-15197714D02*
X4422571Y-14897714D01*
X4394000Y-14940571D01*
X4365428Y-14969143D01*
X4336857Y-14983429D01*
X4679714Y-15026286D02*
X4651143Y-15012000D01*
X4636857Y-14997714D01*
X4622571Y-14969143D01*
X4622571Y-14954857D01*
X4636857Y-14926286D01*
X4651143Y-14912000D01*
X4679714Y-14897714D01*
X4736857Y-14897714D01*
X4765428Y-14912000D01*
X4779714Y-14926286D01*
X4794000Y-14954857D01*
X4794000Y-14969143D01*
X4779714Y-14997714D01*
X4765428Y-15012000D01*
X4736857Y-15026286D01*
X4679714Y-15026286D01*
X4651143Y-15040571D01*
X4636857Y-15054857D01*
X4622571Y-15083429D01*
X4622571Y-15140571D01*
X4636857Y-15169143D01*
X4651143Y-15183429D01*
X4679714Y-15197714D01*
X4736857Y-15197714D01*
X4765428Y-15183429D01*
X4779714Y-15169143D01*
X4794000Y-15140571D01*
X4794000Y-15083429D01*
X4779714Y-15054857D01*
X4765428Y-15040571D01*
X4736857Y-15026286D01*
X5151143Y-15197714D02*
X5151143Y-14897714D01*
X5279714Y-15197714D02*
X5279714Y-15040571D01*
X5265428Y-15012000D01*
X5236857Y-14997714D01*
X5194000Y-14997714D01*
X5165428Y-15012000D01*
X5151143Y-15026286D01*
X5465428Y-15197714D02*
X5436857Y-15183429D01*
X5422571Y-15169143D01*
X5408286Y-15140571D01*
X5408286Y-15054857D01*
X5422571Y-15026286D01*
X5436857Y-15012000D01*
X5465428Y-14997714D01*
X5508286Y-14997714D01*
X5536857Y-15012000D01*
X5551143Y-15026286D01*
X5565428Y-15054857D01*
X5565428Y-15140571D01*
X5551143Y-15169143D01*
X5536857Y-15183429D01*
X5508286Y-15197714D01*
X5465428Y-15197714D01*
X5736857Y-15197714D02*
X5708286Y-15183429D01*
X5694000Y-15154857D01*
X5694000Y-14897714D01*
X5965428Y-15183429D02*
X5936857Y-15197714D01*
X5879714Y-15197714D01*
X5851143Y-15183429D01*
X5836857Y-15154857D01*
X5836857Y-15040571D01*
X5851143Y-15012000D01*
X5879714Y-14997714D01*
X5936857Y-14997714D01*
X5965428Y-15012000D01*
X5979714Y-15040571D01*
X5979714Y-15069143D01*
X5836857Y-15097714D01*
X6094000Y-15183429D02*
X6122571Y-15197714D01*
X6179714Y-15197714D01*
X6208286Y-15183429D01*
X6222571Y-15154857D01*
X6222571Y-15140571D01*
X6208286Y-15112000D01*
X6179714Y-15097714D01*
X6136857Y-15097714D01*
X6108286Y-15083429D01*
X6094000Y-15054857D01*
X6094000Y-15040571D01*
X6108286Y-15012000D01*
X6136857Y-14997714D01*
X6179714Y-14997714D01*
X6208286Y-15012000D01*
X6322571Y-15312000D02*
X6336857Y-15297714D01*
X6365428Y-15254857D01*
X6379714Y-15226286D01*
X6394000Y-15183429D01*
X6408286Y-15112000D01*
X6408286Y-15054857D01*
X6394000Y-14983429D01*
X6379714Y-14940571D01*
X6365428Y-14912000D01*
X6336857Y-14869143D01*
X6322571Y-14854857D01*
X-1021000Y-15458000D02*
G75*
G03*
X-1021000Y-15458000I-60000J0D01*
G01*
X-577429Y-15593714D02*
X-748857Y-15593714D01*
X-663143Y-15593714D02*
X-663143Y-15293714D01*
X-691714Y-15336571D01*
X-720286Y-15365143D01*
X-748857Y-15379429D01*
X-448857Y-15565143D02*
X-434571Y-15579429D01*
X-448857Y-15593714D01*
X-463143Y-15579429D01*
X-448857Y-15565143D01*
X-448857Y-15593714D01*
X-320286Y-15322286D02*
X-306000Y-15308000D01*
X-277429Y-15293714D01*
X-206000Y-15293714D01*
X-177429Y-15308000D01*
X-163143Y-15322286D01*
X-148857Y-15350857D01*
X-148857Y-15379429D01*
X-163143Y-15422286D01*
X-334572Y-15593714D01*
X-148857Y-15593714D01*
X36857Y-15293714D02*
X65428Y-15293714D01*
X94000Y-15308000D01*
X108286Y-15322286D01*
X122571Y-15350857D01*
X136857Y-15408000D01*
X136857Y-15479429D01*
X122571Y-15536571D01*
X108286Y-15565143D01*
X94000Y-15579429D01*
X65428Y-15593714D01*
X36857Y-15593714D01*
X8286Y-15579429D01*
X-6000Y-15565143D01*
X-20286Y-15536571D01*
X-34572Y-15479429D01*
X-34572Y-15408000D01*
X-20286Y-15350857D01*
X-6000Y-15322286D01*
X8286Y-15308000D01*
X36857Y-15293714D01*
X322571Y-15293714D02*
X351143Y-15293714D01*
X379714Y-15308000D01*
X394000Y-15322286D01*
X408286Y-15350857D01*
X422571Y-15408000D01*
X422571Y-15479429D01*
X408286Y-15536571D01*
X394000Y-15565143D01*
X379714Y-15579429D01*
X351143Y-15593714D01*
X322571Y-15593714D01*
X294000Y-15579429D01*
X279714Y-15565143D01*
X265428Y-15536571D01*
X251143Y-15479429D01*
X251143Y-15408000D01*
X265428Y-15350857D01*
X279714Y-15322286D01*
X294000Y-15308000D01*
X322571Y-15293714D01*
X551143Y-15593714D02*
X551143Y-15393714D01*
X551143Y-15422286D02*
X565428Y-15408000D01*
X594000Y-15393714D01*
X636857Y-15393714D01*
X665428Y-15408000D01*
X679714Y-15436571D01*
X679714Y-15593714D01*
X679714Y-15436571D02*
X694000Y-15408000D01*
X722571Y-15393714D01*
X765428Y-15393714D01*
X794000Y-15408000D01*
X808286Y-15436571D01*
X808286Y-15593714D01*
X951143Y-15593714D02*
X951143Y-15393714D01*
X951143Y-15422286D02*
X965428Y-15408000D01*
X994000Y-15393714D01*
X1036857Y-15393714D01*
X1065428Y-15408000D01*
X1079714Y-15436571D01*
X1079714Y-15593714D01*
X1079714Y-15436571D02*
X1094000Y-15408000D01*
X1122571Y-15393714D01*
X1165428Y-15393714D01*
X1194000Y-15408000D01*
X1208286Y-15436571D01*
X1208286Y-15593714D01*
X1794000Y-15279429D02*
X1536857Y-15665143D01*
X2179714Y-15293714D02*
X2208286Y-15293714D01*
X2236857Y-15308000D01*
X2251143Y-15322286D01*
X2265428Y-15350857D01*
X2279714Y-15408000D01*
X2279714Y-15479429D01*
X2265428Y-15536571D01*
X2251143Y-15565143D01*
X2236857Y-15579429D01*
X2208286Y-15593714D01*
X2179714Y-15593714D01*
X2151143Y-15579429D01*
X2136857Y-15565143D01*
X2122571Y-15536571D01*
X2108286Y-15479429D01*
X2108286Y-15408000D01*
X2122571Y-15350857D01*
X2136857Y-15322286D01*
X2151143Y-15308000D01*
X2179714Y-15293714D01*
X2408286Y-15565143D02*
X2422571Y-15579429D01*
X2408286Y-15593714D01*
X2394000Y-15579429D01*
X2408286Y-15565143D01*
X2408286Y-15593714D01*
X2608286Y-15293714D02*
X2636857Y-15293714D01*
X2665428Y-15308000D01*
X2679714Y-15322286D01*
X2694000Y-15350857D01*
X2708286Y-15408000D01*
X2708286Y-15479429D01*
X2694000Y-15536571D01*
X2679714Y-15565143D01*
X2665428Y-15579429D01*
X2636857Y-15593714D01*
X2608286Y-15593714D01*
X2579714Y-15579429D01*
X2565428Y-15565143D01*
X2551143Y-15536571D01*
X2536857Y-15479429D01*
X2536857Y-15408000D01*
X2551143Y-15350857D01*
X2565428Y-15322286D01*
X2579714Y-15308000D01*
X2608286Y-15293714D01*
X2965428Y-15393714D02*
X2965428Y-15593714D01*
X2894000Y-15279429D02*
X2822571Y-15493714D01*
X3008286Y-15493714D01*
X3094000Y-15293714D02*
X3294000Y-15293714D01*
X3165428Y-15593714D01*
X3394000Y-15322286D02*
X3408286Y-15308000D01*
X3436857Y-15293714D01*
X3508286Y-15293714D01*
X3536857Y-15308000D01*
X3551143Y-15322286D01*
X3565428Y-15350857D01*
X3565428Y-15379429D01*
X3551143Y-15422286D01*
X3379714Y-15593714D01*
X3565428Y-15593714D01*
X3679714Y-15293714D02*
X3679714Y-15350857D01*
X3794000Y-15293714D02*
X3794000Y-15350857D01*
X4236857Y-15708000D02*
X4222571Y-15693714D01*
X4194000Y-15650857D01*
X4179714Y-15622286D01*
X4165428Y-15579429D01*
X4151143Y-15508000D01*
X4151143Y-15450857D01*
X4165428Y-15379429D01*
X4179714Y-15336571D01*
X4194000Y-15308000D01*
X4222571Y-15265143D01*
X4236857Y-15250857D01*
X4479714Y-15293714D02*
X4422571Y-15293714D01*
X4394000Y-15308000D01*
X4379714Y-15322286D01*
X4351143Y-15365143D01*
X4336857Y-15422286D01*
X4336857Y-15536571D01*
X4351143Y-15565143D01*
X4365428Y-15579429D01*
X4394000Y-15593714D01*
X4451143Y-15593714D01*
X4479714Y-15579429D01*
X4494000Y-15565143D01*
X4508286Y-15536571D01*
X4508286Y-15465143D01*
X4494000Y-15436571D01*
X4479714Y-15422286D01*
X4451143Y-15408000D01*
X4394000Y-15408000D01*
X4365428Y-15422286D01*
X4351143Y-15436571D01*
X4336857Y-15465143D01*
X4779714Y-15293714D02*
X4636857Y-15293714D01*
X4622571Y-15436571D01*
X4636857Y-15422286D01*
X4665428Y-15408000D01*
X4736857Y-15408000D01*
X4765428Y-15422286D01*
X4779714Y-15436571D01*
X4794000Y-15465143D01*
X4794000Y-15536571D01*
X4779714Y-15565143D01*
X4765428Y-15579429D01*
X4736857Y-15593714D01*
X4665428Y-15593714D01*
X4636857Y-15579429D01*
X4622571Y-15565143D01*
X5151143Y-15593714D02*
X5151143Y-15293714D01*
X5279714Y-15593714D02*
X5279714Y-15436571D01*
X5265428Y-15408000D01*
X5236857Y-15393714D01*
X5194000Y-15393714D01*
X5165428Y-15408000D01*
X5151143Y-15422286D01*
X5465428Y-15593714D02*
X5436857Y-15579429D01*
X5422571Y-15565143D01*
X5408286Y-15536571D01*
X5408286Y-15450857D01*
X5422571Y-15422286D01*
X5436857Y-15408000D01*
X5465428Y-15393714D01*
X5508286Y-15393714D01*
X5536857Y-15408000D01*
X5551143Y-15422286D01*
X5565428Y-15450857D01*
X5565428Y-15536571D01*
X5551143Y-15565143D01*
X5536857Y-15579429D01*
X5508286Y-15593714D01*
X5465428Y-15593714D01*
X5736857Y-15593714D02*
X5708286Y-15579429D01*
X5694000Y-15550857D01*
X5694000Y-15293714D01*
X5965428Y-15579429D02*
X5936857Y-15593714D01*
X5879714Y-15593714D01*
X5851143Y-15579429D01*
X5836857Y-15550857D01*
X5836857Y-15436571D01*
X5851143Y-15408000D01*
X5879714Y-15393714D01*
X5936857Y-15393714D01*
X5965428Y-15408000D01*
X5979714Y-15436571D01*
X5979714Y-15465143D01*
X5836857Y-15493714D01*
X6094000Y-15579429D02*
X6122571Y-15593714D01*
X6179714Y-15593714D01*
X6208286Y-15579429D01*
X6222571Y-15550857D01*
X6222571Y-15536571D01*
X6208286Y-15508000D01*
X6179714Y-15493714D01*
X6136857Y-15493714D01*
X6108286Y-15479429D01*
X6094000Y-15450857D01*
X6094000Y-15436571D01*
X6108286Y-15408000D01*
X6136857Y-15393714D01*
X6179714Y-15393714D01*
X6208286Y-15408000D01*
X6322571Y-15708000D02*
X6336857Y-15693714D01*
X6365428Y-15650857D01*
X6379714Y-15622286D01*
X6394000Y-15579429D01*
X6408286Y-15508000D01*
X6408286Y-15450857D01*
X6394000Y-15379429D01*
X6379714Y-15336571D01*
X6365428Y-15308000D01*
X6336857Y-15265143D01*
X6322571Y-15250857D01*
X-1086000Y-15789000D02*
X-1086000Y-15919000D01*
X-1151000Y-15854000D02*
X-1021000Y-15854000D01*
X-577429Y-15989714D02*
X-748857Y-15989714D01*
X-663143Y-15989714D02*
X-663143Y-15689714D01*
X-691714Y-15732571D01*
X-720286Y-15761143D01*
X-748857Y-15775429D01*
X-448857Y-15961143D02*
X-434571Y-15975429D01*
X-448857Y-15989714D01*
X-463143Y-15975429D01*
X-448857Y-15961143D01*
X-448857Y-15989714D01*
X-334572Y-15689714D02*
X-148857Y-15689714D01*
X-248857Y-15804000D01*
X-206000Y-15804000D01*
X-177429Y-15818286D01*
X-163143Y-15832571D01*
X-148857Y-15861143D01*
X-148857Y-15932571D01*
X-163143Y-15961143D01*
X-177429Y-15975429D01*
X-206000Y-15989714D01*
X-291714Y-15989714D01*
X-320286Y-15975429D01*
X-334572Y-15961143D01*
X36857Y-15689714D02*
X65428Y-15689714D01*
X94000Y-15704000D01*
X108286Y-15718286D01*
X122571Y-15746857D01*
X136857Y-15804000D01*
X136857Y-15875429D01*
X122571Y-15932571D01*
X108286Y-15961143D01*
X94000Y-15975429D01*
X65428Y-15989714D01*
X36857Y-15989714D01*
X8286Y-15975429D01*
X-6000Y-15961143D01*
X-20286Y-15932571D01*
X-34572Y-15875429D01*
X-34572Y-15804000D01*
X-20286Y-15746857D01*
X-6000Y-15718286D01*
X8286Y-15704000D01*
X36857Y-15689714D01*
X322571Y-15689714D02*
X351143Y-15689714D01*
X379714Y-15704000D01*
X394000Y-15718286D01*
X408286Y-15746857D01*
X422571Y-15804000D01*
X422571Y-15875429D01*
X408286Y-15932571D01*
X394000Y-15961143D01*
X379714Y-15975429D01*
X351143Y-15989714D01*
X322571Y-15989714D01*
X294000Y-15975429D01*
X279714Y-15961143D01*
X265428Y-15932571D01*
X251143Y-15875429D01*
X251143Y-15804000D01*
X265428Y-15746857D01*
X279714Y-15718286D01*
X294000Y-15704000D01*
X322571Y-15689714D01*
X551143Y-15989714D02*
X551143Y-15789714D01*
X551143Y-15818286D02*
X565428Y-15804000D01*
X594000Y-15789714D01*
X636857Y-15789714D01*
X665428Y-15804000D01*
X679714Y-15832571D01*
X679714Y-15989714D01*
X679714Y-15832571D02*
X694000Y-15804000D01*
X722571Y-15789714D01*
X765428Y-15789714D01*
X794000Y-15804000D01*
X808286Y-15832571D01*
X808286Y-15989714D01*
X951143Y-15989714D02*
X951143Y-15789714D01*
X951143Y-15818286D02*
X965428Y-15804000D01*
X994000Y-15789714D01*
X1036857Y-15789714D01*
X1065428Y-15804000D01*
X1079714Y-15832571D01*
X1079714Y-15989714D01*
X1079714Y-15832571D02*
X1094000Y-15804000D01*
X1122571Y-15789714D01*
X1165428Y-15789714D01*
X1194000Y-15804000D01*
X1208286Y-15832571D01*
X1208286Y-15989714D01*
X1794000Y-15675429D02*
X1536857Y-16061143D01*
X2179714Y-15689714D02*
X2208286Y-15689714D01*
X2236857Y-15704000D01*
X2251143Y-15718286D01*
X2265428Y-15746857D01*
X2279714Y-15804000D01*
X2279714Y-15875429D01*
X2265428Y-15932571D01*
X2251143Y-15961143D01*
X2236857Y-15975429D01*
X2208286Y-15989714D01*
X2179714Y-15989714D01*
X2151143Y-15975429D01*
X2136857Y-15961143D01*
X2122571Y-15932571D01*
X2108286Y-15875429D01*
X2108286Y-15804000D01*
X2122571Y-15746857D01*
X2136857Y-15718286D01*
X2151143Y-15704000D01*
X2179714Y-15689714D01*
X2408286Y-15961143D02*
X2422571Y-15975429D01*
X2408286Y-15989714D01*
X2394000Y-15975429D01*
X2408286Y-15961143D01*
X2408286Y-15989714D01*
X2608286Y-15689714D02*
X2636857Y-15689714D01*
X2665428Y-15704000D01*
X2679714Y-15718286D01*
X2694000Y-15746857D01*
X2708286Y-15804000D01*
X2708286Y-15875429D01*
X2694000Y-15932571D01*
X2679714Y-15961143D01*
X2665428Y-15975429D01*
X2636857Y-15989714D01*
X2608286Y-15989714D01*
X2579714Y-15975429D01*
X2565428Y-15961143D01*
X2551143Y-15932571D01*
X2536857Y-15875429D01*
X2536857Y-15804000D01*
X2551143Y-15746857D01*
X2565428Y-15718286D01*
X2579714Y-15704000D01*
X2608286Y-15689714D01*
X2979714Y-15689714D02*
X2836857Y-15689714D01*
X2822571Y-15832571D01*
X2836857Y-15818286D01*
X2865428Y-15804000D01*
X2936857Y-15804000D01*
X2965428Y-15818286D01*
X2979714Y-15832571D01*
X2994000Y-15861143D01*
X2994000Y-15932571D01*
X2979714Y-15961143D01*
X2965428Y-15975429D01*
X2936857Y-15989714D01*
X2865428Y-15989714D01*
X2836857Y-15975429D01*
X2822571Y-15961143D01*
X3279714Y-15989714D02*
X3108286Y-15989714D01*
X3194000Y-15989714D02*
X3194000Y-15689714D01*
X3165428Y-15732571D01*
X3136857Y-15761143D01*
X3108286Y-15775429D01*
X3394000Y-15718286D02*
X3408286Y-15704000D01*
X3436857Y-15689714D01*
X3508286Y-15689714D01*
X3536857Y-15704000D01*
X3551143Y-15718286D01*
X3565428Y-15746857D01*
X3565428Y-15775429D01*
X3551143Y-15818286D01*
X3379714Y-15989714D01*
X3565428Y-15989714D01*
X3679714Y-15689714D02*
X3679714Y-15746857D01*
X3794000Y-15689714D02*
X3794000Y-15746857D01*
X4236857Y-16104000D02*
X4222571Y-16089714D01*
X4194000Y-16046857D01*
X4179714Y-16018286D01*
X4165428Y-15975429D01*
X4151143Y-15904000D01*
X4151143Y-15846857D01*
X4165428Y-15775429D01*
X4179714Y-15732571D01*
X4194000Y-15704000D01*
X4222571Y-15661143D01*
X4236857Y-15646857D01*
X4322571Y-15689714D02*
X4508286Y-15689714D01*
X4408286Y-15804000D01*
X4451143Y-15804000D01*
X4479714Y-15818286D01*
X4494000Y-15832571D01*
X4508286Y-15861143D01*
X4508286Y-15932571D01*
X4494000Y-15961143D01*
X4479714Y-15975429D01*
X4451143Y-15989714D01*
X4365428Y-15989714D01*
X4336857Y-15975429D01*
X4322571Y-15961143D01*
X4865428Y-15989714D02*
X4865428Y-15689714D01*
X4994000Y-15989714D02*
X4994000Y-15832571D01*
X4979714Y-15804000D01*
X4951143Y-15789714D01*
X4908286Y-15789714D01*
X4879714Y-15804000D01*
X4865428Y-15818286D01*
X5179714Y-15989714D02*
X5151143Y-15975429D01*
X5136857Y-15961143D01*
X5122571Y-15932571D01*
X5122571Y-15846857D01*
X5136857Y-15818286D01*
X5151143Y-15804000D01*
X5179714Y-15789714D01*
X5222571Y-15789714D01*
X5251143Y-15804000D01*
X5265428Y-15818286D01*
X5279714Y-15846857D01*
X5279714Y-15932571D01*
X5265428Y-15961143D01*
X5251143Y-15975429D01*
X5222571Y-15989714D01*
X5179714Y-15989714D01*
X5451143Y-15989714D02*
X5422571Y-15975429D01*
X5408286Y-15946857D01*
X5408286Y-15689714D01*
X5679714Y-15975429D02*
X5651143Y-15989714D01*
X5594000Y-15989714D01*
X5565428Y-15975429D01*
X5551143Y-15946857D01*
X5551143Y-15832571D01*
X5565428Y-15804000D01*
X5594000Y-15789714D01*
X5651143Y-15789714D01*
X5679714Y-15804000D01*
X5694000Y-15832571D01*
X5694000Y-15861143D01*
X5551143Y-15889714D01*
X5808286Y-15975429D02*
X5836857Y-15989714D01*
X5894000Y-15989714D01*
X5922571Y-15975429D01*
X5936857Y-15946857D01*
X5936857Y-15932571D01*
X5922571Y-15904000D01*
X5894000Y-15889714D01*
X5851143Y-15889714D01*
X5822571Y-15875429D01*
X5808286Y-15846857D01*
X5808286Y-15832571D01*
X5822571Y-15804000D01*
X5851143Y-15789714D01*
X5894000Y-15789714D01*
X5922571Y-15804000D01*
X6036857Y-16104000D02*
X6051143Y-16089714D01*
X6079714Y-16046857D01*
X6094000Y-16018286D01*
X6108286Y-15975429D01*
X6122571Y-15904000D01*
X6122571Y-15846857D01*
X6108286Y-15775429D01*
X6094000Y-15732571D01*
X6079714Y-15704000D01*
X6051143Y-15661143D01*
X6036857Y-15646857D01*
X-1043699Y-16304801D02*
X-1043699Y-16195199D01*
X-1153301Y-16195199D01*
X-1153301Y-16304801D01*
X-1043699Y-16304801D01*
X-577429Y-16385714D02*
X-748857Y-16385714D01*
X-663143Y-16385714D02*
X-663143Y-16085714D01*
X-691714Y-16128571D01*
X-720286Y-16157143D01*
X-748857Y-16171429D01*
X-448857Y-16357143D02*
X-434571Y-16371429D01*
X-448857Y-16385714D01*
X-463143Y-16371429D01*
X-448857Y-16357143D01*
X-448857Y-16385714D01*
X-163143Y-16085714D02*
X-306000Y-16085714D01*
X-320286Y-16228571D01*
X-306000Y-16214286D01*
X-277429Y-16200000D01*
X-206000Y-16200000D01*
X-177429Y-16214286D01*
X-163143Y-16228571D01*
X-148857Y-16257143D01*
X-148857Y-16328571D01*
X-163143Y-16357143D01*
X-177429Y-16371429D01*
X-206000Y-16385714D01*
X-277429Y-16385714D01*
X-306000Y-16371429D01*
X-320286Y-16357143D01*
X122571Y-16085714D02*
X-20286Y-16085714D01*
X-34572Y-16228571D01*
X-20286Y-16214286D01*
X8286Y-16200000D01*
X79714Y-16200000D01*
X108286Y-16214286D01*
X122571Y-16228571D01*
X136857Y-16257143D01*
X136857Y-16328571D01*
X122571Y-16357143D01*
X108286Y-16371429D01*
X79714Y-16385714D01*
X8286Y-16385714D01*
X-20286Y-16371429D01*
X-34572Y-16357143D01*
X322571Y-16085714D02*
X351143Y-16085714D01*
X379714Y-16100000D01*
X394000Y-16114286D01*
X408286Y-16142857D01*
X422571Y-16200000D01*
X422571Y-16271429D01*
X408286Y-16328571D01*
X394000Y-16357143D01*
X379714Y-16371429D01*
X351143Y-16385714D01*
X322571Y-16385714D01*
X294000Y-16371429D01*
X279714Y-16357143D01*
X265428Y-16328571D01*
X251143Y-16271429D01*
X251143Y-16200000D01*
X265428Y-16142857D01*
X279714Y-16114286D01*
X294000Y-16100000D01*
X322571Y-16085714D01*
X551143Y-16385714D02*
X551143Y-16185714D01*
X551143Y-16214286D02*
X565428Y-16200000D01*
X594000Y-16185714D01*
X636857Y-16185714D01*
X665428Y-16200000D01*
X679714Y-16228571D01*
X679714Y-16385714D01*
X679714Y-16228571D02*
X694000Y-16200000D01*
X722571Y-16185714D01*
X765428Y-16185714D01*
X794000Y-16200000D01*
X808286Y-16228571D01*
X808286Y-16385714D01*
X951143Y-16385714D02*
X951143Y-16185714D01*
X951143Y-16214286D02*
X965428Y-16200000D01*
X994000Y-16185714D01*
X1036857Y-16185714D01*
X1065428Y-16200000D01*
X1079714Y-16228571D01*
X1079714Y-16385714D01*
X1079714Y-16228571D02*
X1094000Y-16200000D01*
X1122571Y-16185714D01*
X1165428Y-16185714D01*
X1194000Y-16200000D01*
X1208286Y-16228571D01*
X1208286Y-16385714D01*
X1794000Y-16071429D02*
X1536857Y-16457143D01*
X2179714Y-16085714D02*
X2208286Y-16085714D01*
X2236857Y-16100000D01*
X2251143Y-16114286D01*
X2265428Y-16142857D01*
X2279714Y-16200000D01*
X2279714Y-16271429D01*
X2265428Y-16328571D01*
X2251143Y-16357143D01*
X2236857Y-16371429D01*
X2208286Y-16385714D01*
X2179714Y-16385714D01*
X2151143Y-16371429D01*
X2136857Y-16357143D01*
X2122571Y-16328571D01*
X2108286Y-16271429D01*
X2108286Y-16200000D01*
X2122571Y-16142857D01*
X2136857Y-16114286D01*
X2151143Y-16100000D01*
X2179714Y-16085714D01*
X2408286Y-16357143D02*
X2422571Y-16371429D01*
X2408286Y-16385714D01*
X2394000Y-16371429D01*
X2408286Y-16357143D01*
X2408286Y-16385714D01*
X2608286Y-16085714D02*
X2636857Y-16085714D01*
X2665428Y-16100000D01*
X2679714Y-16114286D01*
X2694000Y-16142857D01*
X2708286Y-16200000D01*
X2708286Y-16271429D01*
X2694000Y-16328571D01*
X2679714Y-16357143D01*
X2665428Y-16371429D01*
X2636857Y-16385714D01*
X2608286Y-16385714D01*
X2579714Y-16371429D01*
X2565428Y-16357143D01*
X2551143Y-16328571D01*
X2536857Y-16271429D01*
X2536857Y-16200000D01*
X2551143Y-16142857D01*
X2565428Y-16114286D01*
X2579714Y-16100000D01*
X2608286Y-16085714D01*
X2965428Y-16085714D02*
X2908286Y-16085714D01*
X2879714Y-16100000D01*
X2865428Y-16114286D01*
X2836857Y-16157143D01*
X2822571Y-16214286D01*
X2822571Y-16328571D01*
X2836857Y-16357143D01*
X2851143Y-16371429D01*
X2879714Y-16385714D01*
X2936857Y-16385714D01*
X2965428Y-16371429D01*
X2979714Y-16357143D01*
X2994000Y-16328571D01*
X2994000Y-16257143D01*
X2979714Y-16228571D01*
X2965428Y-16214286D01*
X2936857Y-16200000D01*
X2879714Y-16200000D01*
X2851143Y-16214286D01*
X2836857Y-16228571D01*
X2822571Y-16257143D01*
X3279714Y-16385714D02*
X3108286Y-16385714D01*
X3194000Y-16385714D02*
X3194000Y-16085714D01*
X3165428Y-16128571D01*
X3136857Y-16157143D01*
X3108286Y-16171429D01*
X3465428Y-16085714D02*
X3494000Y-16085714D01*
X3522571Y-16100000D01*
X3536857Y-16114286D01*
X3551143Y-16142857D01*
X3565428Y-16200000D01*
X3565428Y-16271429D01*
X3551143Y-16328571D01*
X3536857Y-16357143D01*
X3522571Y-16371429D01*
X3494000Y-16385714D01*
X3465428Y-16385714D01*
X3436857Y-16371429D01*
X3422571Y-16357143D01*
X3408286Y-16328571D01*
X3394000Y-16271429D01*
X3394000Y-16200000D01*
X3408286Y-16142857D01*
X3422571Y-16114286D01*
X3436857Y-16100000D01*
X3465428Y-16085714D01*
X3679714Y-16085714D02*
X3679714Y-16142857D01*
X3794000Y-16085714D02*
X3794000Y-16142857D01*
X4236857Y-16500000D02*
X4222571Y-16485714D01*
X4194000Y-16442857D01*
X4179714Y-16414286D01*
X4165428Y-16371429D01*
X4151143Y-16300000D01*
X4151143Y-16242857D01*
X4165428Y-16171429D01*
X4179714Y-16128571D01*
X4194000Y-16100000D01*
X4222571Y-16057143D01*
X4236857Y-16042857D01*
X4508286Y-16385714D02*
X4336857Y-16385714D01*
X4422571Y-16385714D02*
X4422571Y-16085714D01*
X4394000Y-16128571D01*
X4365428Y-16157143D01*
X4336857Y-16171429D01*
X4794000Y-16385714D02*
X4622571Y-16385714D01*
X4708286Y-16385714D02*
X4708286Y-16085714D01*
X4679714Y-16128571D01*
X4651143Y-16157143D01*
X4622571Y-16171429D01*
X5151143Y-16385714D02*
X5151143Y-16085714D01*
X5279714Y-16385714D02*
X5279714Y-16228571D01*
X5265428Y-16200000D01*
X5236857Y-16185714D01*
X5194000Y-16185714D01*
X5165428Y-16200000D01*
X5151143Y-16214286D01*
X5465428Y-16385714D02*
X5436857Y-16371429D01*
X5422571Y-16357143D01*
X5408286Y-16328571D01*
X5408286Y-16242857D01*
X5422571Y-16214286D01*
X5436857Y-16200000D01*
X5465428Y-16185714D01*
X5508286Y-16185714D01*
X5536857Y-16200000D01*
X5551143Y-16214286D01*
X5565428Y-16242857D01*
X5565428Y-16328571D01*
X5551143Y-16357143D01*
X5536857Y-16371429D01*
X5508286Y-16385714D01*
X5465428Y-16385714D01*
X5736857Y-16385714D02*
X5708286Y-16371429D01*
X5694000Y-16342857D01*
X5694000Y-16085714D01*
X5965428Y-16371429D02*
X5936857Y-16385714D01*
X5879714Y-16385714D01*
X5851143Y-16371429D01*
X5836857Y-16342857D01*
X5836857Y-16228571D01*
X5851143Y-16200000D01*
X5879714Y-16185714D01*
X5936857Y-16185714D01*
X5965428Y-16200000D01*
X5979714Y-16228571D01*
X5979714Y-16257143D01*
X5836857Y-16285714D01*
X6094000Y-16371429D02*
X6122571Y-16385714D01*
X6179714Y-16385714D01*
X6208286Y-16371429D01*
X6222571Y-16342857D01*
X6222571Y-16328571D01*
X6208286Y-16300000D01*
X6179714Y-16285714D01*
X6136857Y-16285714D01*
X6108286Y-16271429D01*
X6094000Y-16242857D01*
X6094000Y-16228571D01*
X6108286Y-16200000D01*
X6136857Y-16185714D01*
X6179714Y-16185714D01*
X6208286Y-16200000D01*
X6322571Y-16500000D02*
X6336857Y-16485714D01*
X6365428Y-16442857D01*
X6379714Y-16414286D01*
X6394000Y-16371429D01*
X6408286Y-16300000D01*
X6408286Y-16242857D01*
X6394000Y-16171429D01*
X6379714Y-16128571D01*
X6365428Y-16100000D01*
X6336857Y-16057143D01*
X6322571Y-16042857D01*
X-1101000Y-16726000D02*
X-1021000Y-16646000D01*
X-1101000Y-16566000D01*
X-1181000Y-16646000D01*
X-1101000Y-16726000D01*
X-577429Y-16781714D02*
X-748857Y-16781714D01*
X-663143Y-16781714D02*
X-663143Y-16481714D01*
X-691714Y-16524571D01*
X-720286Y-16553143D01*
X-748857Y-16567429D01*
X-448857Y-16753143D02*
X-434571Y-16767429D01*
X-448857Y-16781714D01*
X-463143Y-16767429D01*
X-448857Y-16753143D01*
X-448857Y-16781714D01*
X-177429Y-16481714D02*
X-234571Y-16481714D01*
X-263143Y-16496000D01*
X-277429Y-16510286D01*
X-306000Y-16553143D01*
X-320286Y-16610286D01*
X-320286Y-16724571D01*
X-306000Y-16753143D01*
X-291714Y-16767429D01*
X-263143Y-16781714D01*
X-206000Y-16781714D01*
X-177429Y-16767429D01*
X-163143Y-16753143D01*
X-148857Y-16724571D01*
X-148857Y-16653143D01*
X-163143Y-16624571D01*
X-177429Y-16610286D01*
X-206000Y-16596000D01*
X-263143Y-16596000D01*
X-291714Y-16610286D01*
X-306000Y-16624571D01*
X-320286Y-16653143D01*
X36857Y-16481714D02*
X65428Y-16481714D01*
X94000Y-16496000D01*
X108286Y-16510286D01*
X122571Y-16538857D01*
X136857Y-16596000D01*
X136857Y-16667429D01*
X122571Y-16724571D01*
X108286Y-16753143D01*
X94000Y-16767429D01*
X65428Y-16781714D01*
X36857Y-16781714D01*
X8286Y-16767429D01*
X-6000Y-16753143D01*
X-20286Y-16724571D01*
X-34572Y-16667429D01*
X-34572Y-16596000D01*
X-20286Y-16538857D01*
X-6000Y-16510286D01*
X8286Y-16496000D01*
X36857Y-16481714D01*
X322571Y-16481714D02*
X351143Y-16481714D01*
X379714Y-16496000D01*
X394000Y-16510286D01*
X408286Y-16538857D01*
X422571Y-16596000D01*
X422571Y-16667429D01*
X408286Y-16724571D01*
X394000Y-16753143D01*
X379714Y-16767429D01*
X351143Y-16781714D01*
X322571Y-16781714D01*
X294000Y-16767429D01*
X279714Y-16753143D01*
X265428Y-16724571D01*
X251143Y-16667429D01*
X251143Y-16596000D01*
X265428Y-16538857D01*
X279714Y-16510286D01*
X294000Y-16496000D01*
X322571Y-16481714D01*
X551143Y-16781714D02*
X551143Y-16581714D01*
X551143Y-16610286D02*
X565428Y-16596000D01*
X594000Y-16581714D01*
X636857Y-16581714D01*
X665428Y-16596000D01*
X679714Y-16624571D01*
X679714Y-16781714D01*
X679714Y-16624571D02*
X694000Y-16596000D01*
X722571Y-16581714D01*
X765428Y-16581714D01*
X794000Y-16596000D01*
X808286Y-16624571D01*
X808286Y-16781714D01*
X951143Y-16781714D02*
X951143Y-16581714D01*
X951143Y-16610286D02*
X965428Y-16596000D01*
X994000Y-16581714D01*
X1036857Y-16581714D01*
X1065428Y-16596000D01*
X1079714Y-16624571D01*
X1079714Y-16781714D01*
X1079714Y-16624571D02*
X1094000Y-16596000D01*
X1122571Y-16581714D01*
X1165428Y-16581714D01*
X1194000Y-16596000D01*
X1208286Y-16624571D01*
X1208286Y-16781714D01*
X1794000Y-16467429D02*
X1536857Y-16853143D01*
X2179714Y-16481714D02*
X2208286Y-16481714D01*
X2236857Y-16496000D01*
X2251143Y-16510286D01*
X2265428Y-16538857D01*
X2279714Y-16596000D01*
X2279714Y-16667429D01*
X2265428Y-16724571D01*
X2251143Y-16753143D01*
X2236857Y-16767429D01*
X2208286Y-16781714D01*
X2179714Y-16781714D01*
X2151143Y-16767429D01*
X2136857Y-16753143D01*
X2122571Y-16724571D01*
X2108286Y-16667429D01*
X2108286Y-16596000D01*
X2122571Y-16538857D01*
X2136857Y-16510286D01*
X2151143Y-16496000D01*
X2179714Y-16481714D01*
X2408286Y-16753143D02*
X2422571Y-16767429D01*
X2408286Y-16781714D01*
X2394000Y-16767429D01*
X2408286Y-16753143D01*
X2408286Y-16781714D01*
X2608286Y-16481714D02*
X2636857Y-16481714D01*
X2665428Y-16496000D01*
X2679714Y-16510286D01*
X2694000Y-16538857D01*
X2708286Y-16596000D01*
X2708286Y-16667429D01*
X2694000Y-16724571D01*
X2679714Y-16753143D01*
X2665428Y-16767429D01*
X2636857Y-16781714D01*
X2608286Y-16781714D01*
X2579714Y-16767429D01*
X2565428Y-16753143D01*
X2551143Y-16724571D01*
X2536857Y-16667429D01*
X2536857Y-16596000D01*
X2551143Y-16538857D01*
X2565428Y-16510286D01*
X2579714Y-16496000D01*
X2608286Y-16481714D01*
X2965428Y-16481714D02*
X2908286Y-16481714D01*
X2879714Y-16496000D01*
X2865428Y-16510286D01*
X2836857Y-16553143D01*
X2822571Y-16610286D01*
X2822571Y-16724571D01*
X2836857Y-16753143D01*
X2851143Y-16767429D01*
X2879714Y-16781714D01*
X2936857Y-16781714D01*
X2965428Y-16767429D01*
X2979714Y-16753143D01*
X2994000Y-16724571D01*
X2994000Y-16653143D01*
X2979714Y-16624571D01*
X2965428Y-16610286D01*
X2936857Y-16596000D01*
X2879714Y-16596000D01*
X2851143Y-16610286D01*
X2836857Y-16624571D01*
X2822571Y-16653143D01*
X3094000Y-16481714D02*
X3279714Y-16481714D01*
X3179714Y-16596000D01*
X3222571Y-16596000D01*
X3251143Y-16610286D01*
X3265428Y-16624571D01*
X3279714Y-16653143D01*
X3279714Y-16724571D01*
X3265428Y-16753143D01*
X3251143Y-16767429D01*
X3222571Y-16781714D01*
X3136857Y-16781714D01*
X3108286Y-16767429D01*
X3094000Y-16753143D01*
X3465428Y-16481714D02*
X3494000Y-16481714D01*
X3522571Y-16496000D01*
X3536857Y-16510286D01*
X3551143Y-16538857D01*
X3565428Y-16596000D01*
X3565428Y-16667429D01*
X3551143Y-16724571D01*
X3536857Y-16753143D01*
X3522571Y-16767429D01*
X3494000Y-16781714D01*
X3465428Y-16781714D01*
X3436857Y-16767429D01*
X3422571Y-16753143D01*
X3408286Y-16724571D01*
X3394000Y-16667429D01*
X3394000Y-16596000D01*
X3408286Y-16538857D01*
X3422571Y-16510286D01*
X3436857Y-16496000D01*
X3465428Y-16481714D01*
X3679714Y-16481714D02*
X3679714Y-16538857D01*
X3794000Y-16481714D02*
X3794000Y-16538857D01*
X4236857Y-16896000D02*
X4222571Y-16881714D01*
X4194000Y-16838857D01*
X4179714Y-16810286D01*
X4165428Y-16767429D01*
X4151143Y-16696000D01*
X4151143Y-16638857D01*
X4165428Y-16567429D01*
X4179714Y-16524571D01*
X4194000Y-16496000D01*
X4222571Y-16453143D01*
X4236857Y-16438857D01*
X4394000Y-16610286D02*
X4365428Y-16596000D01*
X4351143Y-16581714D01*
X4336857Y-16553143D01*
X4336857Y-16538857D01*
X4351143Y-16510286D01*
X4365428Y-16496000D01*
X4394000Y-16481714D01*
X4451143Y-16481714D01*
X4479714Y-16496000D01*
X4494000Y-16510286D01*
X4508286Y-16538857D01*
X4508286Y-16553143D01*
X4494000Y-16581714D01*
X4479714Y-16596000D01*
X4451143Y-16610286D01*
X4394000Y-16610286D01*
X4365428Y-16624571D01*
X4351143Y-16638857D01*
X4336857Y-16667429D01*
X4336857Y-16724571D01*
X4351143Y-16753143D01*
X4365428Y-16767429D01*
X4394000Y-16781714D01*
X4451143Y-16781714D01*
X4479714Y-16767429D01*
X4494000Y-16753143D01*
X4508286Y-16724571D01*
X4508286Y-16667429D01*
X4494000Y-16638857D01*
X4479714Y-16624571D01*
X4451143Y-16610286D01*
X4865428Y-16781714D02*
X4865428Y-16481714D01*
X4994000Y-16781714D02*
X4994000Y-16624571D01*
X4979714Y-16596000D01*
X4951143Y-16581714D01*
X4908286Y-16581714D01*
X4879714Y-16596000D01*
X4865428Y-16610286D01*
X5179714Y-16781714D02*
X5151143Y-16767429D01*
X5136857Y-16753143D01*
X5122571Y-16724571D01*
X5122571Y-16638857D01*
X5136857Y-16610286D01*
X5151143Y-16596000D01*
X5179714Y-16581714D01*
X5222571Y-16581714D01*
X5251143Y-16596000D01*
X5265428Y-16610286D01*
X5279714Y-16638857D01*
X5279714Y-16724571D01*
X5265428Y-16753143D01*
X5251143Y-16767429D01*
X5222571Y-16781714D01*
X5179714Y-16781714D01*
X5451143Y-16781714D02*
X5422571Y-16767429D01*
X5408286Y-16738857D01*
X5408286Y-16481714D01*
X5679714Y-16767429D02*
X5651143Y-16781714D01*
X5594000Y-16781714D01*
X5565428Y-16767429D01*
X5551143Y-16738857D01*
X5551143Y-16624571D01*
X5565428Y-16596000D01*
X5594000Y-16581714D01*
X5651143Y-16581714D01*
X5679714Y-16596000D01*
X5694000Y-16624571D01*
X5694000Y-16653143D01*
X5551143Y-16681714D01*
X5808286Y-16767429D02*
X5836857Y-16781714D01*
X5894000Y-16781714D01*
X5922571Y-16767429D01*
X5936857Y-16738857D01*
X5936857Y-16724571D01*
X5922571Y-16696000D01*
X5894000Y-16681714D01*
X5851143Y-16681714D01*
X5822571Y-16667429D01*
X5808286Y-16638857D01*
X5808286Y-16624571D01*
X5822571Y-16596000D01*
X5851143Y-16581714D01*
X5894000Y-16581714D01*
X5922571Y-16596000D01*
X6036857Y-16896000D02*
X6051143Y-16881714D01*
X6079714Y-16838857D01*
X6094000Y-16810286D01*
X6108286Y-16767429D01*
X6122571Y-16696000D01*
X6122571Y-16638857D01*
X6108286Y-16567429D01*
X6094000Y-16524571D01*
X6079714Y-16496000D01*
X6051143Y-16453143D01*
X6036857Y-16438857D01*
X-1201000Y-16952000D02*
X-1021000Y-17132000D01*
X-1021000Y-16952000D02*
X-1201000Y-17132000D01*
X-1021000Y-17042000D02*
G75*
G03*
X-1021000Y-17042000I-90000J0D01*
G01*
X-577429Y-17177714D02*
X-748857Y-17177714D01*
X-663143Y-17177714D02*
X-663143Y-16877714D01*
X-691714Y-16920572D01*
X-720286Y-16949143D01*
X-748857Y-16963429D01*
X-448857Y-17149143D02*
X-434571Y-17163429D01*
X-448857Y-17177714D01*
X-463143Y-17163429D01*
X-448857Y-17149143D01*
X-448857Y-17177714D01*
X-263143Y-17006286D02*
X-291714Y-16992000D01*
X-306000Y-16977714D01*
X-320286Y-16949143D01*
X-320286Y-16934857D01*
X-306000Y-16906286D01*
X-291714Y-16892000D01*
X-263143Y-16877714D01*
X-206000Y-16877714D01*
X-177429Y-16892000D01*
X-163143Y-16906286D01*
X-148857Y-16934857D01*
X-148857Y-16949143D01*
X-163143Y-16977714D01*
X-177429Y-16992000D01*
X-206000Y-17006286D01*
X-263143Y-17006286D01*
X-291714Y-17020572D01*
X-306000Y-17034857D01*
X-320286Y-17063429D01*
X-320286Y-17120572D01*
X-306000Y-17149143D01*
X-291714Y-17163429D01*
X-263143Y-17177714D01*
X-206000Y-17177714D01*
X-177429Y-17163429D01*
X-163143Y-17149143D01*
X-148857Y-17120572D01*
X-148857Y-17063429D01*
X-163143Y-17034857D01*
X-177429Y-17020572D01*
X-206000Y-17006286D01*
X36857Y-16877714D02*
X65428Y-16877714D01*
X94000Y-16892000D01*
X108286Y-16906286D01*
X122571Y-16934857D01*
X136857Y-16992000D01*
X136857Y-17063429D01*
X122571Y-17120572D01*
X108286Y-17149143D01*
X94000Y-17163429D01*
X65428Y-17177714D01*
X36857Y-17177714D01*
X8286Y-17163429D01*
X-6000Y-17149143D01*
X-20286Y-17120572D01*
X-34572Y-17063429D01*
X-34572Y-16992000D01*
X-20286Y-16934857D01*
X-6000Y-16906286D01*
X8286Y-16892000D01*
X36857Y-16877714D01*
X322571Y-16877714D02*
X351143Y-16877714D01*
X379714Y-16892000D01*
X394000Y-16906286D01*
X408286Y-16934857D01*
X422571Y-16992000D01*
X422571Y-17063429D01*
X408286Y-17120572D01*
X394000Y-17149143D01*
X379714Y-17163429D01*
X351143Y-17177714D01*
X322571Y-17177714D01*
X294000Y-17163429D01*
X279714Y-17149143D01*
X265428Y-17120572D01*
X251143Y-17063429D01*
X251143Y-16992000D01*
X265428Y-16934857D01*
X279714Y-16906286D01*
X294000Y-16892000D01*
X322571Y-16877714D01*
X551143Y-17177714D02*
X551143Y-16977714D01*
X551143Y-17006286D02*
X565428Y-16992000D01*
X594000Y-16977714D01*
X636857Y-16977714D01*
X665428Y-16992000D01*
X679714Y-17020572D01*
X679714Y-17177714D01*
X679714Y-17020572D02*
X694000Y-16992000D01*
X722571Y-16977714D01*
X765428Y-16977714D01*
X794000Y-16992000D01*
X808286Y-17020572D01*
X808286Y-17177714D01*
X951143Y-17177714D02*
X951143Y-16977714D01*
X951143Y-17006286D02*
X965428Y-16992000D01*
X994000Y-16977714D01*
X1036857Y-16977714D01*
X1065428Y-16992000D01*
X1079714Y-17020572D01*
X1079714Y-17177714D01*
X1079714Y-17020572D02*
X1094000Y-16992000D01*
X1122571Y-16977714D01*
X1165428Y-16977714D01*
X1194000Y-16992000D01*
X1208286Y-17020572D01*
X1208286Y-17177714D01*
X1794000Y-16863429D02*
X1536857Y-17249143D01*
X2179714Y-16877714D02*
X2208286Y-16877714D01*
X2236857Y-16892000D01*
X2251143Y-16906286D01*
X2265428Y-16934857D01*
X2279714Y-16992000D01*
X2279714Y-17063429D01*
X2265428Y-17120572D01*
X2251143Y-17149143D01*
X2236857Y-17163429D01*
X2208286Y-17177714D01*
X2179714Y-17177714D01*
X2151143Y-17163429D01*
X2136857Y-17149143D01*
X2122571Y-17120572D01*
X2108286Y-17063429D01*
X2108286Y-16992000D01*
X2122571Y-16934857D01*
X2136857Y-16906286D01*
X2151143Y-16892000D01*
X2179714Y-16877714D01*
X2408286Y-17149143D02*
X2422571Y-17163429D01*
X2408286Y-17177714D01*
X2394000Y-17163429D01*
X2408286Y-17149143D01*
X2408286Y-17177714D01*
X2608286Y-16877714D02*
X2636857Y-16877714D01*
X2665428Y-16892000D01*
X2679714Y-16906286D01*
X2694000Y-16934857D01*
X2708286Y-16992000D01*
X2708286Y-17063429D01*
X2694000Y-17120572D01*
X2679714Y-17149143D01*
X2665428Y-17163429D01*
X2636857Y-17177714D01*
X2608286Y-17177714D01*
X2579714Y-17163429D01*
X2565428Y-17149143D01*
X2551143Y-17120572D01*
X2536857Y-17063429D01*
X2536857Y-16992000D01*
X2551143Y-16934857D01*
X2565428Y-16906286D01*
X2579714Y-16892000D01*
X2608286Y-16877714D01*
X2808286Y-16877714D02*
X3008286Y-16877714D01*
X2879714Y-17177714D01*
X3179714Y-16877714D02*
X3208286Y-16877714D01*
X3236857Y-16892000D01*
X3251143Y-16906286D01*
X3265428Y-16934857D01*
X3279714Y-16992000D01*
X3279714Y-17063429D01*
X3265428Y-17120572D01*
X3251143Y-17149143D01*
X3236857Y-17163429D01*
X3208286Y-17177714D01*
X3179714Y-17177714D01*
X3151143Y-17163429D01*
X3136857Y-17149143D01*
X3122571Y-17120572D01*
X3108286Y-17063429D01*
X3108286Y-16992000D01*
X3122571Y-16934857D01*
X3136857Y-16906286D01*
X3151143Y-16892000D01*
X3179714Y-16877714D01*
X3422571Y-17177714D02*
X3479714Y-17177714D01*
X3508286Y-17163429D01*
X3522571Y-17149143D01*
X3551143Y-17106286D01*
X3565428Y-17049143D01*
X3565428Y-16934857D01*
X3551143Y-16906286D01*
X3536857Y-16892000D01*
X3508286Y-16877714D01*
X3451143Y-16877714D01*
X3422571Y-16892000D01*
X3408286Y-16906286D01*
X3394000Y-16934857D01*
X3394000Y-17006286D01*
X3408286Y-17034857D01*
X3422571Y-17049143D01*
X3451143Y-17063429D01*
X3508286Y-17063429D01*
X3536857Y-17049143D01*
X3551143Y-17034857D01*
X3565428Y-17006286D01*
X3679714Y-16877714D02*
X3679714Y-16934857D01*
X3794000Y-16877714D02*
X3794000Y-16934857D01*
X4236857Y-17292000D02*
X4222571Y-17277714D01*
X4194000Y-17234857D01*
X4179714Y-17206286D01*
X4165428Y-17163429D01*
X4151143Y-17092000D01*
X4151143Y-17034857D01*
X4165428Y-16963429D01*
X4179714Y-16920572D01*
X4194000Y-16892000D01*
X4222571Y-16849143D01*
X4236857Y-16834857D01*
X4508286Y-17177714D02*
X4336857Y-17177714D01*
X4422571Y-17177714D02*
X4422571Y-16877714D01*
X4394000Y-16920572D01*
X4365428Y-16949143D01*
X4336857Y-16963429D01*
X4679714Y-17006286D02*
X4651143Y-16992000D01*
X4636857Y-16977714D01*
X4622571Y-16949143D01*
X4622571Y-16934857D01*
X4636857Y-16906286D01*
X4651143Y-16892000D01*
X4679714Y-16877714D01*
X4736857Y-16877714D01*
X4765428Y-16892000D01*
X4779714Y-16906286D01*
X4794000Y-16934857D01*
X4794000Y-16949143D01*
X4779714Y-16977714D01*
X4765428Y-16992000D01*
X4736857Y-17006286D01*
X4679714Y-17006286D01*
X4651143Y-17020572D01*
X4636857Y-17034857D01*
X4622571Y-17063429D01*
X4622571Y-17120572D01*
X4636857Y-17149143D01*
X4651143Y-17163429D01*
X4679714Y-17177714D01*
X4736857Y-17177714D01*
X4765428Y-17163429D01*
X4779714Y-17149143D01*
X4794000Y-17120572D01*
X4794000Y-17063429D01*
X4779714Y-17034857D01*
X4765428Y-17020572D01*
X4736857Y-17006286D01*
X5151143Y-17177714D02*
X5151143Y-16877714D01*
X5279714Y-17177714D02*
X5279714Y-17020572D01*
X5265428Y-16992000D01*
X5236857Y-16977714D01*
X5194000Y-16977714D01*
X5165428Y-16992000D01*
X5151143Y-17006286D01*
X5465428Y-17177714D02*
X5436857Y-17163429D01*
X5422571Y-17149143D01*
X5408286Y-17120572D01*
X5408286Y-17034857D01*
X5422571Y-17006286D01*
X5436857Y-16992000D01*
X5465428Y-16977714D01*
X5508286Y-16977714D01*
X5536857Y-16992000D01*
X5551143Y-17006286D01*
X5565428Y-17034857D01*
X5565428Y-17120572D01*
X5551143Y-17149143D01*
X5536857Y-17163429D01*
X5508286Y-17177714D01*
X5465428Y-17177714D01*
X5736857Y-17177714D02*
X5708286Y-17163429D01*
X5694000Y-17134857D01*
X5694000Y-16877714D01*
X5965428Y-17163429D02*
X5936857Y-17177714D01*
X5879714Y-17177714D01*
X5851143Y-17163429D01*
X5836857Y-17134857D01*
X5836857Y-17020572D01*
X5851143Y-16992000D01*
X5879714Y-16977714D01*
X5936857Y-16977714D01*
X5965428Y-16992000D01*
X5979714Y-17020572D01*
X5979714Y-17049143D01*
X5836857Y-17077714D01*
X6094000Y-17163429D02*
X6122571Y-17177714D01*
X6179714Y-17177714D01*
X6208286Y-17163429D01*
X6222571Y-17134857D01*
X6222571Y-17120572D01*
X6208286Y-17092000D01*
X6179714Y-17077714D01*
X6136857Y-17077714D01*
X6108286Y-17063429D01*
X6094000Y-17034857D01*
X6094000Y-17020572D01*
X6108286Y-16992000D01*
X6136857Y-16977714D01*
X6179714Y-16977714D01*
X6208286Y-16992000D01*
X6322571Y-17292000D02*
X6336857Y-17277714D01*
X6365428Y-17234857D01*
X6379714Y-17206286D01*
X6394000Y-17163429D01*
X6408286Y-17092000D01*
X6408286Y-17034857D01*
X6394000Y-16963429D01*
X6379714Y-16920572D01*
X6365428Y-16892000D01*
X6336857Y-16849143D01*
X6322571Y-16834857D01*
M02*
