G04 #@! TF.GenerationSoftware,KiCad,Pcbnew,5.1.10-88a1d61d58~90~ubuntu20.04.1*
G04 #@! TF.CreationDate,2021-08-18T14:00:20-04:00*
G04 #@! TF.ProjectId,single_ended_tube_amp,73696e67-6c65-45f6-956e-6465645f7475,0*
G04 #@! TF.SameCoordinates,Original*
G04 #@! TF.FileFunction,Legend,Bot*
G04 #@! TF.FilePolarity,Positive*
%FSLAX46Y46*%
G04 Gerber Fmt 4.6, Leading zero omitted, Abs format (unit mm)*
G04 Created by KiCad (PCBNEW 5.1.10-88a1d61d58~90~ubuntu20.04.1) date 2021-08-18 14:00:20*
%MOMM*%
%LPD*%
G01*
G04 APERTURE LIST*
%ADD10C,0.120000*%
%ADD11C,0.150000*%
%ADD12C,2.400000*%
%ADD13R,2.400000X2.400000*%
%ADD14O,2.400000X2.400000*%
%ADD15C,2.800000*%
%ADD16C,2.550000*%
%ADD17R,3.200000X3.200000*%
%ADD18C,3.200000*%
%ADD19C,2.000000*%
%ADD20C,2.500000*%
%ADD21O,3.500000X3.500000*%
%ADD22C,3.100000*%
%ADD23O,1.600000X1.600000*%
%ADD24C,1.600000*%
%ADD25C,2.340000*%
%ADD26R,1.600000X1.600000*%
G04 APERTURE END LIST*
D10*
X132080000Y-62230000D02*
X124663402Y-69447175D01*
X137160000Y-62230000D02*
X144549644Y-69418380D01*
X124690355Y-88061621D02*
X132080000Y-95250000D01*
X137160000Y-95250000D02*
X144555923Y-88054927D01*
X147240000Y-78740000D02*
G75*
G03*
X147240000Y-78740000I-12620000J0D01*
G01*
X144555923Y-88054927D02*
G75*
G03*
X148239487Y-78740000I-9935923J9314927D01*
G01*
X132080000Y-95250000D02*
G75*
G03*
X137160000Y-95250000I2540000J2540000D01*
G01*
X137160000Y-62230000D02*
G75*
G03*
X132080000Y-62230000I-2540000J-2540000D01*
G01*
X148239487Y-78740000D02*
G75*
G03*
X144549644Y-69418380I-13619487J0D01*
G01*
X124663402Y-69447175D02*
G75*
G03*
X124690356Y-88061620I9956598J-9292825D01*
G01*
X71120000Y-62230000D02*
X63703402Y-69447175D01*
X76200000Y-62230000D02*
X83589644Y-69418380D01*
X63730355Y-88061621D02*
X71120000Y-95250000D01*
X76200000Y-95250000D02*
X83595923Y-88054927D01*
X86280000Y-78740000D02*
G75*
G03*
X86280000Y-78740000I-12620000J0D01*
G01*
X83595923Y-88054927D02*
G75*
G03*
X87279487Y-78740000I-9935923J9314927D01*
G01*
X71120000Y-95250000D02*
G75*
G03*
X76200000Y-95250000I2540000J2540000D01*
G01*
X76200000Y-62230000D02*
G75*
G03*
X71120000Y-62230000I-2540000J-2540000D01*
G01*
X87279487Y-78740000D02*
G75*
G03*
X83589644Y-69418380I-13619487J0D01*
G01*
X63703402Y-69447175D02*
G75*
G03*
X63730356Y-88061620I9956598J-9292825D01*
G01*
D11*
X135429523Y-97242380D02*
X135096190Y-98242380D01*
X134762857Y-97242380D01*
X133905714Y-98242380D02*
X134477142Y-98242380D01*
X134191428Y-98242380D02*
X134191428Y-97242380D01*
X134286666Y-97385238D01*
X134381904Y-97480476D01*
X134477142Y-97528095D01*
X74469523Y-97242380D02*
X74136190Y-98242380D01*
X73802857Y-97242380D01*
X73517142Y-97337619D02*
X73469523Y-97290000D01*
X73374285Y-97242380D01*
X73136190Y-97242380D01*
X73040952Y-97290000D01*
X72993333Y-97337619D01*
X72945714Y-97432857D01*
X72945714Y-97528095D01*
X72993333Y-97670952D01*
X73564761Y-98242380D01*
X72945714Y-98242380D01*
%LPC*%
D12*
X36950000Y-121920000D03*
D13*
X44450000Y-121920000D03*
D12*
X19170000Y-121920000D03*
D13*
X26670000Y-121920000D03*
D14*
X116840000Y-71120000D03*
D12*
X116840000Y-91440000D03*
D15*
X-5080000Y-119100000D03*
X-5080000Y-114300000D03*
D16*
X8720000Y-119100000D03*
G36*
G01*
X7694999Y-113025000D02*
X9745001Y-113025000D01*
G75*
G02*
X9995000Y-113274999I0J-249999D01*
G01*
X9995000Y-115325001D01*
G75*
G02*
X9745001Y-115575000I-249999J0D01*
G01*
X7694999Y-115575000D01*
G75*
G02*
X7445000Y-115325001I0J249999D01*
G01*
X7445000Y-113274999D01*
G75*
G02*
X7694999Y-113025000I249999J0D01*
G01*
G37*
D17*
X15240000Y-91440000D03*
D18*
X15240000Y-96520000D03*
X15240000Y-101600000D03*
X15240000Y-106680000D03*
D12*
X142240000Y-125730000D03*
D13*
X149740000Y-125730000D03*
D12*
X121920000Y-125730000D03*
D13*
X129420000Y-125730000D03*
D12*
X100450000Y-125730000D03*
D13*
X107950000Y-125730000D03*
D12*
X78860000Y-125730000D03*
D13*
X86360000Y-125730000D03*
D12*
X57270000Y-125730000D03*
D13*
X64770000Y-125730000D03*
G36*
G01*
X53760000Y-41730000D02*
X53760000Y-43230000D01*
G75*
G02*
X53510000Y-43480000I-250000J0D01*
G01*
X52010000Y-43480000D01*
G75*
G02*
X51760000Y-43230000I0J250000D01*
G01*
X51760000Y-41730000D01*
G75*
G02*
X52010000Y-41480000I250000J0D01*
G01*
X53510000Y-41480000D01*
G75*
G02*
X53760000Y-41730000I0J-250000D01*
G01*
G37*
D19*
X48260000Y-42480000D03*
D20*
X52760000Y-30480000D03*
X48260000Y-30480000D03*
G36*
G01*
X128000000Y-41730000D02*
X128000000Y-43230000D01*
G75*
G02*
X127750000Y-43480000I-250000J0D01*
G01*
X126250000Y-43480000D01*
G75*
G02*
X126000000Y-43230000I0J250000D01*
G01*
X126000000Y-41730000D01*
G75*
G02*
X126250000Y-41480000I250000J0D01*
G01*
X127750000Y-41480000D01*
G75*
G02*
X128000000Y-41730000I0J-250000D01*
G01*
G37*
D19*
X122500000Y-42480000D03*
D20*
X127000000Y-30480000D03*
X122500000Y-30480000D03*
G36*
G01*
X150860000Y-41730000D02*
X150860000Y-43230000D01*
G75*
G02*
X150610000Y-43480000I-250000J0D01*
G01*
X149110000Y-43480000D01*
G75*
G02*
X148860000Y-43230000I0J250000D01*
G01*
X148860000Y-41730000D01*
G75*
G02*
X149110000Y-41480000I250000J0D01*
G01*
X150610000Y-41480000D01*
G75*
G02*
X150860000Y-41730000I0J-250000D01*
G01*
G37*
D19*
X145360000Y-42480000D03*
X140860000Y-42480000D03*
D20*
X149860000Y-30480000D03*
X145360000Y-30480000D03*
X140860000Y-30480000D03*
G36*
G01*
X170600000Y-41730000D02*
X170600000Y-43230000D01*
G75*
G02*
X170350000Y-43480000I-250000J0D01*
G01*
X168850000Y-43480000D01*
G75*
G02*
X168600000Y-43230000I0J250000D01*
G01*
X168600000Y-41730000D01*
G75*
G02*
X168850000Y-41480000I250000J0D01*
G01*
X170350000Y-41480000D01*
G75*
G02*
X170600000Y-41730000I0J-250000D01*
G01*
G37*
D19*
X165100000Y-42480000D03*
D20*
X169600000Y-30480000D03*
X165100000Y-30480000D03*
D17*
X-5080000Y-125730000D03*
D18*
X0Y-125730000D03*
X5080000Y-125730000D03*
X10160000Y-125730000D03*
D15*
X-4910000Y-63220000D03*
X-4910000Y-58420000D03*
D16*
X8890000Y-63220000D03*
G36*
G01*
X7864999Y-57145000D02*
X9915001Y-57145000D01*
G75*
G02*
X10165000Y-57394999I0J-249999D01*
G01*
X10165000Y-59445001D01*
G75*
G02*
X9915001Y-59695000I-249999J0D01*
G01*
X7864999Y-59695000D01*
G75*
G02*
X7615000Y-59445001I0J249999D01*
G01*
X7615000Y-57394999D01*
G75*
G02*
X7864999Y-57145000I249999J0D01*
G01*
G37*
D15*
X-5080000Y-105840000D03*
X-5080000Y-101040000D03*
X-5080000Y-96240000D03*
X-5080000Y-91440000D03*
D16*
X8720000Y-105840000D03*
X8720000Y-101040000D03*
X8720000Y-96240000D03*
G36*
G01*
X7694999Y-90165000D02*
X9745001Y-90165000D01*
G75*
G02*
X9995000Y-90414999I0J-249999D01*
G01*
X9995000Y-92465001D01*
G75*
G02*
X9745001Y-92715000I-249999J0D01*
G01*
X7694999Y-92715000D01*
G75*
G02*
X7445000Y-92465001I0J249999D01*
G01*
X7445000Y-90414999D01*
G75*
G02*
X7694999Y-90165000I249999J0D01*
G01*
G37*
D15*
X-5080000Y-81990000D03*
X-5080000Y-77190000D03*
X-5080000Y-72390000D03*
D16*
X8720000Y-81990000D03*
X8720000Y-77190000D03*
G36*
G01*
X7694999Y-71115000D02*
X9745001Y-71115000D01*
G75*
G02*
X9995000Y-71364999I0J-249999D01*
G01*
X9995000Y-73415001D01*
G75*
G02*
X9745001Y-73665000I-249999J0D01*
G01*
X7694999Y-73665000D01*
G75*
G02*
X7445000Y-73415001I0J249999D01*
G01*
X7445000Y-71364999D01*
G75*
G02*
X7694999Y-71115000I249999J0D01*
G01*
G37*
D21*
X126125322Y-84911745D03*
X124120000Y-78740000D03*
X126125322Y-72568255D03*
X131375322Y-68753907D03*
X137864678Y-68753907D03*
X143114678Y-72568255D03*
X145120000Y-78740000D03*
X143114678Y-84911745D03*
X137864678Y-88726093D03*
D22*
X134620000Y-92990000D03*
X134620000Y-64490000D03*
X134620000Y-78740000D03*
D21*
X65165322Y-84911745D03*
X63160000Y-78740000D03*
X65165322Y-72568255D03*
X70415322Y-68753907D03*
X76904678Y-68753907D03*
X82154678Y-72568255D03*
X84160000Y-78740000D03*
X82154678Y-84911745D03*
X76904678Y-88726093D03*
D22*
X73660000Y-92990000D03*
X73660000Y-64490000D03*
X73660000Y-78740000D03*
D18*
X-5080000Y-135890000D03*
X175260000Y-135890000D03*
X175260000Y-30480000D03*
X-5080000Y-30480000D03*
D23*
X56830000Y-66040000D03*
D24*
X36830000Y-66040000D03*
D14*
X16510000Y-135890000D03*
D12*
X46990000Y-135890000D03*
D25*
X26590000Y-64570000D03*
X21590000Y-52070000D03*
X16590000Y-64570000D03*
D14*
X161290000Y-113030000D03*
D12*
X161290000Y-133350000D03*
D14*
X132080000Y-109220000D03*
D12*
X152400000Y-109220000D03*
D14*
X106680000Y-109220000D03*
D12*
X127000000Y-109220000D03*
D14*
X71120000Y-109220000D03*
D12*
X101600000Y-109220000D03*
D14*
X35560000Y-109220000D03*
D12*
X66040000Y-109220000D03*
D14*
X64770000Y-99060000D03*
D12*
X85090000Y-99060000D03*
D14*
X36830000Y-57150000D03*
D12*
X57150000Y-57150000D03*
D14*
X36830000Y-81280000D03*
D12*
X57150000Y-81280000D03*
D14*
X57150000Y-73660000D03*
D12*
X36830000Y-73660000D03*
D14*
X92075000Y-71120000D03*
D12*
X92075000Y-91440000D03*
D14*
X99695000Y-71120000D03*
D12*
X99695000Y-91440000D03*
D14*
X106680000Y-59690000D03*
D12*
X86360000Y-59690000D03*
D14*
X86360000Y-50800000D03*
D12*
X106680000Y-50800000D03*
D14*
X132080000Y-102870000D03*
D12*
X152400000Y-102870000D03*
D14*
X165100000Y-48260000D03*
D12*
X165100000Y-68580000D03*
D14*
X151130000Y-74930000D03*
D12*
X151130000Y-95250000D03*
D14*
X158750000Y-95250000D03*
D12*
X158750000Y-74930000D03*
D14*
X166370000Y-74930000D03*
D12*
X166370000Y-95250000D03*
D14*
X173990000Y-95250000D03*
D12*
X173990000Y-74930000D03*
D23*
X36830000Y-48260000D03*
D24*
X61830000Y-48260000D03*
D23*
X86360000Y-40640000D03*
D24*
X106360000Y-40640000D03*
D23*
X107950000Y-91120000D03*
D24*
X107950000Y-71120000D03*
X111800000Y-64770000D03*
D26*
X114300000Y-64770000D03*
D23*
X146920000Y-48260000D03*
D24*
X121920000Y-48260000D03*
D23*
X146920000Y-57150000D03*
D24*
X121920000Y-57150000D03*
D23*
X154940000Y-68580000D03*
D24*
X154940000Y-48580000D03*
X161330000Y-101727000D03*
D26*
X163830000Y-101727000D03*
M02*
