  0
SECTION
  2
HEADER
  9
$ANGBASE
  50
0.0
  9
$ANGDIR
  70
1
  9
$MEASUREMENT
  70
1
  0
ENDSEC
  0
SECTION
  2
TABLES
  0
TABLE
  2
LTYPE
  70
4
  0
LTYPE
  5
40F
  2
CONTINUOUS
  70
0
  3
Solid line
  72
65
  73
0
  40
0.0
  0
LTYPE
  5
410
  2
DASHDOT
 70
0
  3
Dash Dot ____ _ ____ _
 72
65
 73
4
 40
2.0
 49
1.25
 49
-0.25
 49
0.25
 49
-0.25
  0
LTYPE
  5
411
  2
DASHED
 70
0
  3
Dashed __ __ __ __ __
 72
65
 73
2
 40
0.75
 49
0.5
 49
-0.25
  0
LTYPE
  5
43B
  2
DOTTED
 70
0
  3
Dotted .  .  .  .
 72
65
 73
2
 40
0.2
 49
0.0
 49
-0.2
  0
ENDTAB
  0
TABLE
  2
STYLE
  70
4
  0
STYLE
  2
KICAD
  70
0
  40
0
  41
1
  42
1
  50
0
  71
0
  3
isocp.shx
  0
STYLE
  2
KICADB
  70
0
  40
0
  41
1
  42
1
  50
0
  71
0
  3
isocp.shx
  0
STYLE
  2
KICADI
  70
0
  40
0
  41
1
  42
1
  50
15
  71
0
  3
isocp.shx
  0
STYLE
  2
KICADBI
  70
0
  40
0
  41
1
  42
1
  50
15
  71
0
  3
isocp.shx
  0
ENDTAB
  0
TABLE
  2
LAYER
  70
1
  0
LAYER
  2
BLACK
  70
0
  62
7
  6
CONTINUOUS
  0
ENDTAB
  0
ENDSEC
  0
SECTION
  2
ENTITIES
0
LINE
8
BLACK
6
CONTINUOUS
10
257.384
20
-44.47
11
257.799
21
-44.557
0
LINE
8
BLACK
6
CONTINUOUS
10
257.799
20
-44.557
11
258.206
21
-44.678
0
LINE
8
BLACK
6
CONTINUOUS
10
258.206
20
-44.678
11
258.601
21
-44.8321
0
LINE
8
BLACK
6
CONTINUOUS
10
258.601
20
-44.8321
11
258.982
21
-45.0183
0
LINE
8
BLACK
6
CONTINUOUS
10
258.982
20
-45.0183
11
259.346
21
-45.2353
0
LINE
8
BLACK
6
CONTINUOUS
10
259.346
20
-45.2353
11
259.691
21
-45.4817
0
LINE
8
BLACK
6
CONTINUOUS
10
259.691
20
-45.4817
11
260.014
21
-45.7557
0
LINE
8
BLACK
6
CONTINUOUS
10
260.014
20
-45.7557
11
260.314
21
-46.0555
0
LINE
8
BLACK
6
CONTINUOUS
10
260.314
20
-46.0555
11
260.588
21
-46.3791
0
LINE
8
BLACK
6
CONTINUOUS
10
260.588
20
-46.3791
11
260.835
21
-46.7242
0
LINE
8
BLACK
6
CONTINUOUS
10
260.835
20
-46.7242
11
261.052
21
-47.0884
0
LINE
8
BLACK
6
CONTINUOUS
10
261.052
20
-47.0884
11
261.238
21
-47.4693
0
LINE
8
BLACK
6
CONTINUOUS
10
261.238
20
-47.4693
11
261.392
21
-47.8643
0
LINE
8
BLACK
6
CONTINUOUS
10
261.392
20
-47.8643
11
261.513
21
-48.2707
0
LINE
8
BLACK
6
CONTINUOUS
10
261.513
20
-48.2707
11
261.6
21
-48.6856
0
LINE
8
BLACK
6
CONTINUOUS
10
261.6
20
-48.6856
11
261.652
21
-49.1064
0
LINE
8
BLACK
6
CONTINUOUS
10
261.652
20
-49.1064
11
261.67
21
-49.53
0
LINE
8
BLACK
6
CONTINUOUS
10
261.67
20
-49.53
11
261.67
21
-140.97
0
LINE
8
BLACK
6
CONTINUOUS
10
261.67
20
-140.97
11
261.652
21
-141.394
0
LINE
8
BLACK
6
CONTINUOUS
10
261.652
20
-141.394
11
261.6
21
-141.814
0
LINE
8
BLACK
6
CONTINUOUS
10
261.6
20
-141.814
11
261.513
21
-142.229
0
LINE
8
BLACK
6
CONTINUOUS
10
261.513
20
-142.229
11
261.392
21
-142.636
0
LINE
8
BLACK
6
CONTINUOUS
10
261.392
20
-142.636
11
261.238
21
-143.031
0
LINE
8
BLACK
6
CONTINUOUS
10
261.238
20
-143.031
11
261.052
21
-143.412
0
LINE
8
BLACK
6
CONTINUOUS
10
261.052
20
-143.412
11
260.835
21
-143.776
0
LINE
8
BLACK
6
CONTINUOUS
10
260.835
20
-143.776
11
260.588
21
-144.121
0
LINE
8
BLACK
6
CONTINUOUS
10
260.588
20
-144.121
11
260.314
21
-144.444
0
LINE
8
BLACK
6
CONTINUOUS
10
260.314
20
-144.444
11
260.014
21
-144.744
0
LINE
8
BLACK
6
CONTINUOUS
10
260.014
20
-144.744
11
259.691
21
-145.018
0
LINE
8
BLACK
6
CONTINUOUS
10
259.691
20
-145.018
11
259.346
21
-145.265
0
LINE
8
BLACK
6
CONTINUOUS
10
259.346
20
-145.265
11
258.982
21
-145.482
0
LINE
8
BLACK
6
CONTINUOUS
10
258.982
20
-145.482
11
258.601
21
-145.668
0
LINE
8
BLACK
6
CONTINUOUS
10
258.601
20
-145.668
11
258.206
21
-145.822
0
LINE
8
BLACK
6
CONTINUOUS
10
258.206
20
-145.822
11
257.799
21
-145.943
0
LINE
8
BLACK
6
CONTINUOUS
10
257.799
20
-145.943
11
257.384
21
-146.03
0
LINE
8
BLACK
6
CONTINUOUS
10
257.384
20
-146.03
11
256.964
21
-146.082
0
LINE
8
BLACK
6
CONTINUOUS
10
256.964
20
-146.082
11
256.54
21
-146.1
0
LINE
8
BLACK
6
CONTINUOUS
10
256.54
20
-146.1
11
127
21
-146.1
0
LINE
8
BLACK
6
CONTINUOUS
10
127
20
-146.1
11
126.576
21
-146.082
0
LINE
8
BLACK
6
CONTINUOUS
10
126.576
20
-146.082
11
126.156
21
-146.03
0
LINE
8
BLACK
6
CONTINUOUS
10
126.156
20
-146.03
11
125.741
21
-145.943
0
LINE
8
BLACK
6
CONTINUOUS
10
125.741
20
-145.943
11
125.334
21
-145.822
0
LINE
8
BLACK
6
CONTINUOUS
10
125.334
20
-145.822
11
124.939
21
-145.668
0
LINE
8
BLACK
6
CONTINUOUS
10
124.939
20
-145.668
11
124.558
21
-145.482
0
LINE
8
BLACK
6
CONTINUOUS
10
124.558
20
-145.482
11
124.194
21
-145.265
0
LINE
8
BLACK
6
CONTINUOUS
10
124.194
20
-145.265
11
123.849
21
-145.018
0
LINE
8
BLACK
6
CONTINUOUS
10
123.849
20
-145.018
11
123.526
21
-144.744
0
LINE
8
BLACK
6
CONTINUOUS
10
123.526
20
-144.744
11
123.226
21
-144.444
0
LINE
8
BLACK
6
CONTINUOUS
10
123.226
20
-144.444
11
122.952
21
-144.121
0
LINE
8
BLACK
6
CONTINUOUS
10
122.952
20
-144.121
11
122.705
21
-143.776
0
LINE
8
BLACK
6
CONTINUOUS
10
122.705
20
-143.776
11
122.488
21
-143.412
0
LINE
8
BLACK
6
CONTINUOUS
10
122.488
20
-143.412
11
122.302
21
-143.031
0
LINE
8
BLACK
6
CONTINUOUS
10
122.302
20
-143.031
11
122.148
21
-142.636
0
LINE
8
BLACK
6
CONTINUOUS
10
122.148
20
-142.636
11
122.027
21
-142.229
0
LINE
8
BLACK
6
CONTINUOUS
10
122.027
20
-142.229
11
121.94
21
-141.814
0
LINE
8
BLACK
6
CONTINUOUS
10
121.94
20
-141.814
11
121.888
21
-141.394
0
LINE
8
BLACK
6
CONTINUOUS
10
121.888
20
-141.394
11
121.87
21
-140.97
0
LINE
8
BLACK
6
CONTINUOUS
10
121.87
20
-140.97
11
121.87
21
-127
0
LINE
8
BLACK
6
CONTINUOUS
10
121.87
20
-127
11
121.874
21
-126.991
0
LINE
8
BLACK
6
CONTINUOUS
10
121.874
20
-126.991
11
121.856
21
-126.787
0
LINE
8
BLACK
6
CONTINUOUS
10
121.856
20
-126.787
11
121.801
21
-126.581
0
LINE
8
BLACK
6
CONTINUOUS
10
121.801
20
-126.581
11
121.711
21
-126.388
0
LINE
8
BLACK
6
CONTINUOUS
10
121.711
20
-126.388
11
121.588
21
-126.213
0
LINE
8
BLACK
6
CONTINUOUS
10
121.588
20
-126.213
11
121.437
21
-126.062
0
LINE
8
BLACK
6
CONTINUOUS
10
121.437
20
-126.062
11
121.262
21
-125.939
0
LINE
8
BLACK
6
CONTINUOUS
10
121.262
20
-125.939
11
121.069
21
-125.849
0
LINE
8
BLACK
6
CONTINUOUS
10
121.069
20
-125.849
11
120.863
21
-125.794
0
LINE
8
BLACK
6
CONTINUOUS
10
120.863
20
-125.794
11
120.65
21
-125.775
0
LINE
8
BLACK
6
CONTINUOUS
10
120.65
20
-125.775
11
120.437
21
-125.794
0
LINE
8
BLACK
6
CONTINUOUS
10
120.437
20
-125.794
11
120.231
21
-125.849
0
LINE
8
BLACK
6
CONTINUOUS
10
120.231
20
-125.849
11
120.038
21
-125.939
0
LINE
8
BLACK
6
CONTINUOUS
10
120.038
20
-125.939
11
119.863
21
-126.062
0
LINE
8
BLACK
6
CONTINUOUS
10
119.863
20
-126.062
11
119.712
21
-126.213
0
LINE
8
BLACK
6
CONTINUOUS
10
119.712
20
-126.213
11
119.589
21
-126.388
0
LINE
8
BLACK
6
CONTINUOUS
10
119.589
20
-126.388
11
119.499
21
-126.581
0
LINE
8
BLACK
6
CONTINUOUS
10
119.499
20
-126.581
11
119.444
21
-126.787
0
LINE
8
BLACK
6
CONTINUOUS
10
119.444
20
-126.787
11
119.426
21
-126.991
0
LINE
8
BLACK
6
CONTINUOUS
10
119.426
20
-126.991
11
119.43
21
-127
0
LINE
8
BLACK
6
CONTINUOUS
10
119.43
20
-127
11
119.43
21
-132.08
0
LINE
8
BLACK
6
CONTINUOUS
10
119.43
20
-132.08
11
119.412
21
-132.504
0
LINE
8
BLACK
6
CONTINUOUS
10
119.412
20
-132.504
11
119.36
21
-132.924
0
LINE
8
BLACK
6
CONTINUOUS
10
119.36
20
-132.924
11
119.273
21
-133.339
0
LINE
8
BLACK
6
CONTINUOUS
10
119.273
20
-133.339
11
119.152
21
-133.746
0
LINE
8
BLACK
6
CONTINUOUS
10
119.152
20
-133.746
11
118.998
21
-134.141
0
LINE
8
BLACK
6
CONTINUOUS
10
118.998
20
-134.141
11
118.812
21
-134.522
0
LINE
8
BLACK
6
CONTINUOUS
10
118.812
20
-134.522
11
118.595
21
-134.886
0
LINE
8
BLACK
6
CONTINUOUS
10
118.595
20
-134.886
11
118.348
21
-135.231
0
LINE
8
BLACK
6
CONTINUOUS
10
118.348
20
-135.231
11
118.074
21
-135.554
0
LINE
8
BLACK
6
CONTINUOUS
10
118.074
20
-135.554
11
117.774
21
-135.854
0
LINE
8
BLACK
6
CONTINUOUS
10
117.774
20
-135.854
11
117.451
21
-136.128
0
LINE
8
BLACK
6
CONTINUOUS
10
117.451
20
-136.128
11
117.106
21
-136.375
0
LINE
8
BLACK
6
CONTINUOUS
10
117.106
20
-136.375
11
116.742
21
-136.592
0
LINE
8
BLACK
6
CONTINUOUS
10
116.742
20
-136.592
11
116.361
21
-136.778
0
LINE
8
BLACK
6
CONTINUOUS
10
116.361
20
-136.778
11
115.966
21
-136.932
0
LINE
8
BLACK
6
CONTINUOUS
10
115.966
20
-136.932
11
115.559
21
-137.053
0
LINE
8
BLACK
6
CONTINUOUS
10
115.559
20
-137.053
11
115.144
21
-137.14
0
LINE
8
BLACK
6
CONTINUOUS
10
115.144
20
-137.14
11
114.724
21
-137.192
0
LINE
8
BLACK
6
CONTINUOUS
10
114.724
20
-137.192
11
114.3
21
-137.21
0
LINE
8
BLACK
6
CONTINUOUS
10
114.3
20
-137.21
11
40.64
21
-137.21
0
LINE
8
BLACK
6
CONTINUOUS
10
40.64
20
-137.21
11
40.2164
21
-137.192
0
LINE
8
BLACK
6
CONTINUOUS
10
40.2164
20
-137.192
11
39.7956
21
-137.14
0
LINE
8
BLACK
6
CONTINUOUS
10
39.7956
20
-137.14
11
39.3807
21
-137.053
0
LINE
8
BLACK
6
CONTINUOUS
10
39.3807
20
-137.053
11
38.9743
21
-136.932
0
LINE
8
BLACK
6
CONTINUOUS
10
38.9743
20
-136.932
11
38.5793
21
-136.778
0
LINE
8
BLACK
6
CONTINUOUS
10
38.5793
20
-136.778
11
38.1984
21
-136.592
0
LINE
8
BLACK
6
CONTINUOUS
10
38.1984
20
-136.592
11
37.8342
21
-136.375
0
LINE
8
BLACK
6
CONTINUOUS
10
37.8342
20
-136.375
11
37.4891
21
-136.128
0
LINE
8
BLACK
6
CONTINUOUS
10
37.4891
20
-136.128
11
37.1655
21
-135.854
0
LINE
8
BLACK
6
CONTINUOUS
10
37.1655
20
-135.854
11
36.8657
21
-135.554
0
LINE
8
BLACK
6
CONTINUOUS
10
36.8657
20
-135.554
11
36.5917
21
-135.231
0
LINE
8
BLACK
6
CONTINUOUS
10
36.5917
20
-135.231
11
36.3453
21
-134.886
0
LINE
8
BLACK
6
CONTINUOUS
10
36.3453
20
-134.886
11
36.1283
21
-134.522
0
LINE
8
BLACK
6
CONTINUOUS
10
36.1283
20
-134.522
11
35.9421
21
-134.141
0
LINE
8
BLACK
6
CONTINUOUS
10
35.9421
20
-134.141
11
35.788
21
-133.746
0
LINE
8
BLACK
6
CONTINUOUS
10
35.788
20
-133.746
11
35.667
21
-133.339
0
LINE
8
BLACK
6
CONTINUOUS
10
35.667
20
-133.339
11
35.58
21
-132.924
0
LINE
8
BLACK
6
CONTINUOUS
10
35.58
20
-132.924
11
35.5275
21
-132.504
0
LINE
8
BLACK
6
CONTINUOUS
10
35.5275
20
-132.504
11
35.51
21
-132.08
0
LINE
8
BLACK
6
CONTINUOUS
10
35.51
20
-132.08
11
35.51
21
-49.53
0
LINE
8
BLACK
6
CONTINUOUS
10
35.51
20
-49.53
11
35.5275
21
-49.1064
0
LINE
8
BLACK
6
CONTINUOUS
10
35.5275
20
-49.1064
11
35.58
21
-48.6856
0
LINE
8
BLACK
6
CONTINUOUS
10
35.58
20
-48.6856
11
35.667
21
-48.2707
0
LINE
8
BLACK
6
CONTINUOUS
10
35.667
20
-48.2707
11
35.788
21
-47.8643
0
LINE
8
BLACK
6
CONTINUOUS
10
35.788
20
-47.8643
11
35.9421
21
-47.4693
0
LINE
8
BLACK
6
CONTINUOUS
10
35.9421
20
-47.4693
11
36.1283
21
-47.0884
0
LINE
8
BLACK
6
CONTINUOUS
10
36.1283
20
-47.0884
11
36.3453
21
-46.7242
0
LINE
8
BLACK
6
CONTINUOUS
10
36.3453
20
-46.7242
11
36.5917
21
-46.3791
0
LINE
8
BLACK
6
CONTINUOUS
10
36.5917
20
-46.3791
11
36.8657
21
-46.0555
0
LINE
8
BLACK
6
CONTINUOUS
10
36.8657
20
-46.0555
11
37.1655
21
-45.7557
0
LINE
8
BLACK
6
CONTINUOUS
10
37.1655
20
-45.7557
11
37.4891
21
-45.4817
0
LINE
8
BLACK
6
CONTINUOUS
10
37.4891
20
-45.4817
11
37.8342
21
-45.2353
0
LINE
8
BLACK
6
CONTINUOUS
10
37.8342
20
-45.2353
11
38.1984
21
-45.0183
0
LINE
8
BLACK
6
CONTINUOUS
10
38.1984
20
-45.0183
11
38.5793
21
-44.8321
0
LINE
8
BLACK
6
CONTINUOUS
10
38.5793
20
-44.8321
11
38.9743
21
-44.678
0
LINE
8
BLACK
6
CONTINUOUS
10
38.9743
20
-44.678
11
39.3807
21
-44.557
0
LINE
8
BLACK
6
CONTINUOUS
10
39.3807
20
-44.557
11
39.7956
21
-44.47
0
LINE
8
BLACK
6
CONTINUOUS
10
39.7956
20
-44.47
11
40.2164
21
-44.4175
0
LINE
8
BLACK
6
CONTINUOUS
10
40.2164
20
-44.4175
11
40.64
21
-44.4
0
LINE
8
BLACK
6
CONTINUOUS
10
40.64
20
-44.4
11
114.3
21
-44.4
0
LINE
8
BLACK
6
CONTINUOUS
10
114.3
20
-44.4
11
114.724
21
-44.4175
0
LINE
8
BLACK
6
CONTINUOUS
10
114.724
20
-44.4175
11
115.144
21
-44.47
0
LINE
8
BLACK
6
CONTINUOUS
10
115.144
20
-44.47
11
115.559
21
-44.557
0
LINE
8
BLACK
6
CONTINUOUS
10
115.559
20
-44.557
11
115.966
21
-44.678
0
LINE
8
BLACK
6
CONTINUOUS
10
115.966
20
-44.678
11
116.361
21
-44.8321
0
LINE
8
BLACK
6
CONTINUOUS
10
116.361
20
-44.8321
11
116.742
21
-45.0183
0
LINE
8
BLACK
6
CONTINUOUS
10
116.742
20
-45.0183
11
117.106
21
-45.2353
0
LINE
8
BLACK
6
CONTINUOUS
10
117.106
20
-45.2353
11
117.451
21
-45.4817
0
LINE
8
BLACK
6
CONTINUOUS
10
117.451
20
-45.4817
11
117.774
21
-45.7557
0
LINE
8
BLACK
6
CONTINUOUS
10
117.774
20
-45.7557
11
118.074
21
-46.0555
0
LINE
8
BLACK
6
CONTINUOUS
10
118.074
20
-46.0555
11
118.348
21
-46.3791
0
LINE
8
BLACK
6
CONTINUOUS
10
118.348
20
-46.3791
11
118.595
21
-46.7242
0
LINE
8
BLACK
6
CONTINUOUS
10
118.595
20
-46.7242
11
118.812
21
-47.0884
0
LINE
8
BLACK
6
CONTINUOUS
10
118.812
20
-47.0884
11
118.998
21
-47.4693
0
LINE
8
BLACK
6
CONTINUOUS
10
118.998
20
-47.4693
11
119.152
21
-47.8643
0
LINE
8
BLACK
6
CONTINUOUS
10
119.152
20
-47.8643
11
119.273
21
-48.2707
0
LINE
8
BLACK
6
CONTINUOUS
10
119.273
20
-48.2707
11
119.36
21
-48.6856
0
LINE
8
BLACK
6
CONTINUOUS
10
119.36
20
-48.6856
11
119.412
21
-49.1064
0
LINE
8
BLACK
6
CONTINUOUS
10
119.412
20
-49.1064
11
119.43
21
-49.53
0
LINE
8
BLACK
6
CONTINUOUS
10
119.43
20
-49.53
11
119.43
21
-54.61
0
LINE
8
BLACK
6
CONTINUOUS
10
119.43
20
-54.61
11
119.426
21
-54.6193
0
LINE
8
BLACK
6
CONTINUOUS
10
119.426
20
-54.6193
11
119.444
21
-54.8227
0
LINE
8
BLACK
6
CONTINUOUS
10
119.444
20
-54.8227
11
119.499
21
-55.0289
0
LINE
8
BLACK
6
CONTINUOUS
10
119.499
20
-55.0289
11
119.589
21
-55.2223
0
LINE
8
BLACK
6
CONTINUOUS
10
119.589
20
-55.2223
11
119.712
21
-55.3972
0
LINE
8
BLACK
6
CONTINUOUS
10
119.712
20
-55.3972
11
119.863
21
-55.5481
0
LINE
8
BLACK
6
CONTINUOUS
10
119.863
20
-55.5481
11
120.038
21
-55.6706
0
LINE
8
BLACK
6
CONTINUOUS
10
120.038
20
-55.6706
11
120.231
21
-55.7608
0
LINE
8
BLACK
6
CONTINUOUS
10
120.231
20
-55.7608
11
120.437
21
-55.8161
0
LINE
8
BLACK
6
CONTINUOUS
10
120.437
20
-55.8161
11
120.65
21
-55.8347
0
LINE
8
BLACK
6
CONTINUOUS
10
120.65
20
-55.8347
11
120.863
21
-55.8161
0
LINE
8
BLACK
6
CONTINUOUS
10
120.863
20
-55.8161
11
121.069
21
-55.7608
0
LINE
8
BLACK
6
CONTINUOUS
10
121.069
20
-55.7608
11
121.262
21
-55.6706
0
LINE
8
BLACK
6
CONTINUOUS
10
121.262
20
-55.6706
11
121.437
21
-55.5481
0
LINE
8
BLACK
6
CONTINUOUS
10
121.437
20
-55.5481
11
121.588
21
-55.3972
0
LINE
8
BLACK
6
CONTINUOUS
10
121.588
20
-55.3972
11
121.711
21
-55.2223
0
LINE
8
BLACK
6
CONTINUOUS
10
121.711
20
-55.2223
11
121.801
21
-55.0289
0
LINE
8
BLACK
6
CONTINUOUS
10
121.801
20
-55.0289
11
121.856
21
-54.8227
0
LINE
8
BLACK
6
CONTINUOUS
10
121.856
20
-54.8227
11
121.874
21
-54.6193
0
LINE
8
BLACK
6
CONTINUOUS
10
121.874
20
-54.6193
11
121.87
21
-54.61
0
LINE
8
BLACK
6
CONTINUOUS
10
121.87
20
-54.61
11
121.87
21
-49.53
0
LINE
8
BLACK
6
CONTINUOUS
10
121.87
20
-49.53
11
121.888
21
-49.1064
0
LINE
8
BLACK
6
CONTINUOUS
10
121.888
20
-49.1064
11
121.94
21
-48.6856
0
LINE
8
BLACK
6
CONTINUOUS
10
121.94
20
-48.6856
11
122.027
21
-48.2707
0
LINE
8
BLACK
6
CONTINUOUS
10
122.027
20
-48.2707
11
122.148
21
-47.8643
0
LINE
8
BLACK
6
CONTINUOUS
10
122.148
20
-47.8643
11
122.302
21
-47.4693
0
LINE
8
BLACK
6
CONTINUOUS
10
122.302
20
-47.4693
11
122.488
21
-47.0884
0
LINE
8
BLACK
6
CONTINUOUS
10
122.488
20
-47.0884
11
122.705
21
-46.7242
0
LINE
8
BLACK
6
CONTINUOUS
10
122.705
20
-46.7242
11
122.952
21
-46.3791
0
LINE
8
BLACK
6
CONTINUOUS
10
122.952
20
-46.3791
11
123.226
21
-46.0555
0
LINE
8
BLACK
6
CONTINUOUS
10
123.226
20
-46.0555
11
123.526
21
-45.7557
0
LINE
8
BLACK
6
CONTINUOUS
10
123.526
20
-45.7557
11
123.849
21
-45.4817
0
LINE
8
BLACK
6
CONTINUOUS
10
123.849
20
-45.4817
11
124.194
21
-45.2353
0
LINE
8
BLACK
6
CONTINUOUS
10
124.194
20
-45.2353
11
124.558
21
-45.0183
0
LINE
8
BLACK
6
CONTINUOUS
10
124.558
20
-45.0183
11
124.939
21
-44.8321
0
LINE
8
BLACK
6
CONTINUOUS
10
124.939
20
-44.8321
11
125.334
21
-44.678
0
LINE
8
BLACK
6
CONTINUOUS
10
125.334
20
-44.678
11
125.741
21
-44.557
0
LINE
8
BLACK
6
CONTINUOUS
10
125.741
20
-44.557
11
126.156
21
-44.47
0
LINE
8
BLACK
6
CONTINUOUS
10
126.156
20
-44.47
11
126.576
21
-44.4175
0
LINE
8
BLACK
6
CONTINUOUS
10
126.576
20
-44.4175
11
127
21
-44.4
0
LINE
8
BLACK
6
CONTINUOUS
10
127
20
-44.4
11
256.54
21
-44.4
0
LINE
8
BLACK
6
CONTINUOUS
10
256.54
20
-44.4
11
256.964
21
-44.4175
0
LINE
8
BLACK
6
CONTINUOUS
10
256.964
20
-44.4175
11
257.384
21
-44.47
0
LINE
8
BLACK
6
CONTINUOUS
10
126.991
20
-44.4961
11
126.584
21
-44.5129
0
LINE
8
BLACK
6
CONTINUOUS
10
126.584
20
-44.5129
11
126.171
21
-44.5644
0
LINE
8
BLACK
6
CONTINUOUS
10
126.171
20
-44.5644
11
125.764
21
-44.6497
0
LINE
8
BLACK
6
CONTINUOUS
10
125.764
20
-44.6497
11
125.365
21
-44.7685
0
LINE
8
BLACK
6
CONTINUOUS
10
125.365
20
-44.7685
11
124.978
21
-44.9197
0
LINE
8
BLACK
6
CONTINUOUS
10
124.978
20
-44.9197
11
124.604
21
-45.1025
0
LINE
8
BLACK
6
CONTINUOUS
10
124.604
20
-45.1025
11
124.246
21
-45.3155
0
LINE
8
BLACK
6
CONTINUOUS
10
124.246
20
-45.3155
11
123.908
21
-45.5572
0
LINE
8
BLACK
6
CONTINUOUS
10
123.908
20
-45.5572
11
123.59
21
-45.8261
0
LINE
8
BLACK
6
CONTINUOUS
10
123.59
20
-45.8261
11
123.296
21
-46.1204
0
LINE
8
BLACK
6
CONTINUOUS
10
123.296
20
-46.1204
11
123.027
21
-46.4379
0
LINE
8
BLACK
6
CONTINUOUS
10
123.027
20
-46.4379
11
122.785
21
-46.7765
0
LINE
8
BLACK
6
CONTINUOUS
10
122.785
20
-46.7765
11
122.572
21
-47.1339
0
LINE
8
BLACK
6
CONTINUOUS
10
122.572
20
-47.1339
11
122.39
21
-47.5077
0
LINE
8
BLACK
6
CONTINUOUS
10
122.39
20
-47.5077
11
122.238
21
-47.8954
0
LINE
8
BLACK
6
CONTINUOUS
10
122.238
20
-47.8954
11
122.12
21
-48.2942
0
LINE
8
BLACK
6
CONTINUOUS
10
122.12
20
-48.2942
11
122.034
21
-48.7014
0
LINE
8
BLACK
6
CONTINUOUS
10
122.034
20
-48.7014
11
121.983
21
-49.1143
0
LINE
8
BLACK
6
CONTINUOUS
10
121.983
20
-49.1143
11
121.966
21
-49.5206
0
LINE
8
BLACK
6
CONTINUOUS
10
121.966
20
-49.5206
11
121.97
21
-49.53
0
LINE
8
BLACK
6
CONTINUOUS
10
121.97
20
-49.53
11
121.97
21
-54.61
0
LINE
8
BLACK
6
CONTINUOUS
10
121.97
20
-54.61
11
121.952
21
-54.8273
0
LINE
8
BLACK
6
CONTINUOUS
10
121.952
20
-54.8273
11
121.898
21
-55.0386
0
LINE
8
BLACK
6
CONTINUOUS
10
121.898
20
-55.0386
11
121.811
21
-55.2383
0
LINE
8
BLACK
6
CONTINUOUS
10
121.811
20
-55.2383
11
121.692
21
-55.4208
0
LINE
8
BLACK
6
CONTINUOUS
10
121.692
20
-55.4208
11
121.544
21
-55.5812
0
LINE
8
BLACK
6
CONTINUOUS
10
121.544
20
-55.5812
11
121.372
21
-55.7151
0
LINE
8
BLACK
6
CONTINUOUS
10
121.372
20
-55.7151
11
121.18
21
-55.8188
0
LINE
8
BLACK
6
CONTINUOUS
10
121.18
20
-55.8188
11
120.974
21
-55.8896
0
LINE
8
BLACK
6
CONTINUOUS
10
120.974
20
-55.8896
11
120.759
21
-55.9255
0
LINE
8
BLACK
6
CONTINUOUS
10
120.759
20
-55.9255
11
120.541
21
-55.9255
0
LINE
8
BLACK
6
CONTINUOUS
10
120.541
20
-55.9255
11
120.326
21
-55.8896
0
LINE
8
BLACK
6
CONTINUOUS
10
120.326
20
-55.8896
11
120.12
21
-55.8188
0
LINE
8
BLACK
6
CONTINUOUS
10
120.12
20
-55.8188
11
119.928
21
-55.7151
0
LINE
8
BLACK
6
CONTINUOUS
10
119.928
20
-55.7151
11
119.756
21
-55.5812
0
LINE
8
BLACK
6
CONTINUOUS
10
119.756
20
-55.5812
11
119.608
21
-55.4208
0
LINE
8
BLACK
6
CONTINUOUS
10
119.608
20
-55.4208
11
119.489
21
-55.2383
0
LINE
8
BLACK
6
CONTINUOUS
10
119.489
20
-55.2383
11
119.402
21
-55.0386
0
LINE
8
BLACK
6
CONTINUOUS
10
119.402
20
-55.0386
11
119.348
21
-54.8273
0
LINE
8
BLACK
6
CONTINUOUS
10
119.348
20
-54.8273
11
119.33
21
-54.61
0
LINE
8
BLACK
6
CONTINUOUS
10
119.33
20
-54.61
11
119.33
21
-49.53
0
LINE
8
BLACK
6
CONTINUOUS
10
119.33
20
-49.53
11
119.334
21
-49.5206
0
LINE
8
BLACK
6
CONTINUOUS
10
119.334
20
-49.5206
11
119.317
21
-49.1143
0
LINE
8
BLACK
6
CONTINUOUS
10
119.317
20
-49.1143
11
119.266
21
-48.7014
0
LINE
8
BLACK
6
CONTINUOUS
10
119.266
20
-48.7014
11
119.18
21
-48.2942
0
LINE
8
BLACK
6
CONTINUOUS
10
119.18
20
-48.2942
11
119.062
21
-47.8954
0
LINE
8
BLACK
6
CONTINUOUS
10
119.062
20
-47.8954
11
118.91
21
-47.5077
0
LINE
8
BLACK
6
CONTINUOUS
10
118.91
20
-47.5077
11
118.728
21
-47.1339
0
LINE
8
BLACK
6
CONTINUOUS
10
118.728
20
-47.1339
11
118.515
21
-46.7765
0
LINE
8
BLACK
6
CONTINUOUS
10
118.515
20
-46.7765
11
118.273
21
-46.4379
0
LINE
8
BLACK
6
CONTINUOUS
10
118.273
20
-46.4379
11
118.004
21
-46.1204
0
LINE
8
BLACK
6
CONTINUOUS
10
118.004
20
-46.1204
11
117.71
21
-45.8261
0
LINE
8
BLACK
6
CONTINUOUS
10
117.71
20
-45.8261
11
117.392
21
-45.5572
0
LINE
8
BLACK
6
CONTINUOUS
10
117.392
20
-45.5572
11
117.054
21
-45.3155
0
LINE
8
BLACK
6
CONTINUOUS
10
117.054
20
-45.3155
11
116.696
21
-45.1025
0
LINE
8
BLACK
6
CONTINUOUS
10
116.696
20
-45.1025
11
116.322
21
-44.9197
0
LINE
8
BLACK
6
CONTINUOUS
10
116.322
20
-44.9197
11
115.935
21
-44.7685
0
LINE
8
BLACK
6
CONTINUOUS
10
115.935
20
-44.7685
11
115.536
21
-44.6497
0
LINE
8
BLACK
6
CONTINUOUS
10
115.536
20
-44.6497
11
115.129
21
-44.5644
0
LINE
8
BLACK
6
CONTINUOUS
10
115.129
20
-44.5644
11
114.716
21
-44.5129
0
LINE
8
BLACK
6
CONTINUOUS
10
114.716
20
-44.5129
11
114.309
21
-44.4961
0
LINE
8
BLACK
6
CONTINUOUS
10
114.309
20
-44.4961
11
114.3
21
-44.5
0
LINE
8
BLACK
6
CONTINUOUS
10
114.3
20
-44.5
11
40.64
21
-44.5
0
LINE
8
BLACK
6
CONTINUOUS
10
40.64
20
-44.5
11
40.6306
21
-44.4961
0
LINE
8
BLACK
6
CONTINUOUS
10
40.6306
20
-44.4961
11
40.2243
21
-44.5129
0
LINE
8
BLACK
6
CONTINUOUS
10
40.2243
20
-44.5129
11
39.8114
21
-44.5644
0
LINE
8
BLACK
6
CONTINUOUS
10
39.8114
20
-44.5644
11
39.4042
21
-44.6497
0
LINE
8
BLACK
6
CONTINUOUS
10
39.4042
20
-44.6497
11
39.0054
21
-44.7685
0
LINE
8
BLACK
6
CONTINUOUS
10
39.0054
20
-44.7685
11
38.6177
21
-44.9197
0
LINE
8
BLACK
6
CONTINUOUS
10
38.6177
20
-44.9197
11
38.2439
21
-45.1025
0
LINE
8
BLACK
6
CONTINUOUS
10
38.2439
20
-45.1025
11
37.8865
21
-45.3155
0
LINE
8
BLACK
6
CONTINUOUS
10
37.8865
20
-45.3155
11
37.5479
21
-45.5572
0
LINE
8
BLACK
6
CONTINUOUS
10
37.5479
20
-45.5572
11
37.2304
21
-45.8261
0
LINE
8
BLACK
6
CONTINUOUS
10
37.2304
20
-45.8261
11
36.9361
21
-46.1204
0
LINE
8
BLACK
6
CONTINUOUS
10
36.9361
20
-46.1204
11
36.6672
21
-46.4379
0
LINE
8
BLACK
6
CONTINUOUS
10
36.6672
20
-46.4379
11
36.4255
21
-46.7765
0
LINE
8
BLACK
6
CONTINUOUS
10
36.4255
20
-46.7765
11
36.2125
21
-47.1339
0
LINE
8
BLACK
6
CONTINUOUS
10
36.2125
20
-47.1339
11
36.0297
21
-47.5077
0
LINE
8
BLACK
6
CONTINUOUS
10
36.0297
20
-47.5077
11
35.8785
21
-47.8954
0
LINE
8
BLACK
6
CONTINUOUS
10
35.8785
20
-47.8954
11
35.7597
21
-48.2942
0
LINE
8
BLACK
6
CONTINUOUS
10
35.7597
20
-48.2942
11
35.6744
21
-48.7014
0
LINE
8
BLACK
6
CONTINUOUS
10
35.6744
20
-48.7014
11
35.6229
21
-49.1143
0
LINE
8
BLACK
6
CONTINUOUS
10
35.6229
20
-49.1143
11
35.6061
21
-49.5206
0
LINE
8
BLACK
6
CONTINUOUS
10
35.6061
20
-49.5206
11
35.61
21
-49.53
0
LINE
8
BLACK
6
CONTINUOUS
10
35.61
20
-49.53
11
35.61
21
-132.08
0
LINE
8
BLACK
6
CONTINUOUS
10
35.61
20
-132.08
11
35.6061
21
-132.089
0
LINE
8
BLACK
6
CONTINUOUS
10
35.6061
20
-132.089
11
35.6229
21
-132.496
0
LINE
8
BLACK
6
CONTINUOUS
10
35.6229
20
-132.496
11
35.6744
21
-132.909
0
LINE
8
BLACK
6
CONTINUOUS
10
35.6744
20
-132.909
11
35.7597
21
-133.316
0
LINE
8
BLACK
6
CONTINUOUS
10
35.7597
20
-133.316
11
35.8785
21
-133.715
0
LINE
8
BLACK
6
CONTINUOUS
10
35.8785
20
-133.715
11
36.0297
21
-134.102
0
LINE
8
BLACK
6
CONTINUOUS
10
36.0297
20
-134.102
11
36.2125
21
-134.476
0
LINE
8
BLACK
6
CONTINUOUS
10
36.2125
20
-134.476
11
36.4255
21
-134.834
0
LINE
8
BLACK
6
CONTINUOUS
10
36.4255
20
-134.834
11
36.6672
21
-135.172
0
LINE
8
BLACK
6
CONTINUOUS
10
36.6672
20
-135.172
11
36.9361
21
-135.49
0
LINE
8
BLACK
6
CONTINUOUS
10
36.9361
20
-135.49
11
37.2304
21
-135.784
0
LINE
8
BLACK
6
CONTINUOUS
10
37.2304
20
-135.784
11
37.5479
21
-136.053
0
LINE
8
BLACK
6
CONTINUOUS
10
37.5479
20
-136.053
11
37.8865
21
-136.295
0
LINE
8
BLACK
6
CONTINUOUS
10
37.8865
20
-136.295
11
38.2439
21
-136.508
0
LINE
8
BLACK
6
CONTINUOUS
10
38.2439
20
-136.508
11
38.6177
21
-136.69
0
LINE
8
BLACK
6
CONTINUOUS
10
38.6177
20
-136.69
11
39.0054
21
-136.842
0
LINE
8
BLACK
6
CONTINUOUS
10
39.0054
20
-136.842
11
39.4042
21
-136.96
0
LINE
8
BLACK
6
CONTINUOUS
10
39.4042
20
-136.96
11
39.8114
21
-137.046
0
LINE
8
BLACK
6
CONTINUOUS
10
39.8114
20
-137.046
11
40.2243
21
-137.097
0
LINE
8
BLACK
6
CONTINUOUS
10
40.2243
20
-137.097
11
40.6306
21
-137.114
0
LINE
8
BLACK
6
CONTINUOUS
10
40.6306
20
-137.114
11
40.64
21
-137.11
0
LINE
8
BLACK
6
CONTINUOUS
10
40.64
20
-137.11
11
114.3
21
-137.11
0
LINE
8
BLACK
6
CONTINUOUS
10
114.3
20
-137.11
11
114.309
21
-137.114
0
LINE
8
BLACK
6
CONTINUOUS
10
114.309
20
-137.114
11
114.716
21
-137.097
0
LINE
8
BLACK
6
CONTINUOUS
10
114.716
20
-137.097
11
115.129
21
-137.046
0
LINE
8
BLACK
6
CONTINUOUS
10
115.129
20
-137.046
11
115.536
21
-136.96
0
LINE
8
BLACK
6
CONTINUOUS
10
115.536
20
-136.96
11
115.935
21
-136.842
0
LINE
8
BLACK
6
CONTINUOUS
10
115.935
20
-136.842
11
116.322
21
-136.69
0
LINE
8
BLACK
6
CONTINUOUS
10
116.322
20
-136.69
11
116.696
21
-136.508
0
LINE
8
BLACK
6
CONTINUOUS
10
116.696
20
-136.508
11
117.054
21
-136.295
0
LINE
8
BLACK
6
CONTINUOUS
10
117.054
20
-136.295
11
117.392
21
-136.053
0
LINE
8
BLACK
6
CONTINUOUS
10
117.392
20
-136.053
11
117.71
21
-135.784
0
LINE
8
BLACK
6
CONTINUOUS
10
117.71
20
-135.784
11
118.004
21
-135.49
0
LINE
8
BLACK
6
CONTINUOUS
10
118.004
20
-135.49
11
118.273
21
-135.172
0
LINE
8
BLACK
6
CONTINUOUS
10
118.273
20
-135.172
11
118.515
21
-134.834
0
LINE
8
BLACK
6
CONTINUOUS
10
118.515
20
-134.834
11
118.728
21
-134.476
0
LINE
8
BLACK
6
CONTINUOUS
10
118.728
20
-134.476
11
118.91
21
-134.102
0
LINE
8
BLACK
6
CONTINUOUS
10
118.91
20
-134.102
11
119.062
21
-133.715
0
LINE
8
BLACK
6
CONTINUOUS
10
119.062
20
-133.715
11
119.18
21
-133.316
0
LINE
8
BLACK
6
CONTINUOUS
10
119.18
20
-133.316
11
119.266
21
-132.909
0
LINE
8
BLACK
6
CONTINUOUS
10
119.266
20
-132.909
11
119.317
21
-132.496
0
LINE
8
BLACK
6
CONTINUOUS
10
119.317
20
-132.496
11
119.334
21
-132.089
0
LINE
8
BLACK
6
CONTINUOUS
10
119.334
20
-132.089
11
119.33
21
-132.08
0
LINE
8
BLACK
6
CONTINUOUS
10
119.33
20
-132.08
11
119.33
21
-127
0
LINE
8
BLACK
6
CONTINUOUS
10
119.33
20
-127
11
119.348
21
-126.783
0
LINE
8
BLACK
6
CONTINUOUS
10
119.348
20
-126.783
11
119.402
21
-126.571
0
LINE
8
BLACK
6
CONTINUOUS
10
119.402
20
-126.571
11
119.489
21
-126.372
0
LINE
8
BLACK
6
CONTINUOUS
10
119.489
20
-126.372
11
119.608
21
-126.189
0
LINE
8
BLACK
6
CONTINUOUS
10
119.608
20
-126.189
11
119.756
21
-126.029
0
LINE
8
BLACK
6
CONTINUOUS
10
119.756
20
-126.029
11
119.928
21
-125.895
0
LINE
8
BLACK
6
CONTINUOUS
10
119.928
20
-125.895
11
120.12
21
-125.791
0
LINE
8
BLACK
6
CONTINUOUS
10
120.12
20
-125.791
11
120.326
21
-125.72
0
LINE
8
BLACK
6
CONTINUOUS
10
120.326
20
-125.72
11
120.541
21
-125.685
0
LINE
8
BLACK
6
CONTINUOUS
10
120.541
20
-125.685
11
120.759
21
-125.685
0
LINE
8
BLACK
6
CONTINUOUS
10
120.759
20
-125.685
11
120.974
21
-125.72
0
LINE
8
BLACK
6
CONTINUOUS
10
120.974
20
-125.72
11
121.18
21
-125.791
0
LINE
8
BLACK
6
CONTINUOUS
10
121.18
20
-125.791
11
121.372
21
-125.895
0
LINE
8
BLACK
6
CONTINUOUS
10
121.372
20
-125.895
11
121.544
21
-126.029
0
LINE
8
BLACK
6
CONTINUOUS
10
121.544
20
-126.029
11
121.692
21
-126.189
0
LINE
8
BLACK
6
CONTINUOUS
10
121.692
20
-126.189
11
121.811
21
-126.372
0
LINE
8
BLACK
6
CONTINUOUS
10
121.811
20
-126.372
11
121.898
21
-126.571
0
LINE
8
BLACK
6
CONTINUOUS
10
121.898
20
-126.571
11
121.952
21
-126.783
0
LINE
8
BLACK
6
CONTINUOUS
10
121.952
20
-126.783
11
121.97
21
-127
0
LINE
8
BLACK
6
CONTINUOUS
10
121.97
20
-127
11
121.97
21
-140.97
0
LINE
8
BLACK
6
CONTINUOUS
10
121.97
20
-140.97
11
121.966
21
-140.979
0
LINE
8
BLACK
6
CONTINUOUS
10
121.966
20
-140.979
11
121.983
21
-141.386
0
LINE
8
BLACK
6
CONTINUOUS
10
121.983
20
-141.386
11
122.034
21
-141.799
0
LINE
8
BLACK
6
CONTINUOUS
10
122.034
20
-141.799
11
122.12
21
-142.206
0
LINE
8
BLACK
6
CONTINUOUS
10
122.12
20
-142.206
11
122.238
21
-142.605
0
LINE
8
BLACK
6
CONTINUOUS
10
122.238
20
-142.605
11
122.39
21
-142.992
0
LINE
8
BLACK
6
CONTINUOUS
10
122.39
20
-142.992
11
122.572
21
-143.366
0
LINE
8
BLACK
6
CONTINUOUS
10
122.572
20
-143.366
11
122.785
21
-143.724
0
LINE
8
BLACK
6
CONTINUOUS
10
122.785
20
-143.724
11
123.027
21
-144.062
0
LINE
8
BLACK
6
CONTINUOUS
10
123.027
20
-144.062
11
123.296
21
-144.38
0
LINE
8
BLACK
6
CONTINUOUS
10
123.296
20
-144.38
11
123.59
21
-144.674
0
LINE
8
BLACK
6
CONTINUOUS
10
123.59
20
-144.674
11
123.908
21
-144.943
0
LINE
8
BLACK
6
CONTINUOUS
10
123.908
20
-144.943
11
124.246
21
-145.185
0
LINE
8
BLACK
6
CONTINUOUS
10
124.246
20
-145.185
11
124.604
21
-145.398
0
LINE
8
BLACK
6
CONTINUOUS
10
124.604
20
-145.398
11
124.978
21
-145.58
0
LINE
8
BLACK
6
CONTINUOUS
10
124.978
20
-145.58
11
125.365
21
-145.732
0
LINE
8
BLACK
6
CONTINUOUS
10
125.365
20
-145.732
11
125.764
21
-145.85
0
LINE
8
BLACK
6
CONTINUOUS
10
125.764
20
-145.85
11
126.171
21
-145.936
0
LINE
8
BLACK
6
CONTINUOUS
10
126.171
20
-145.936
11
126.584
21
-145.987
0
LINE
8
BLACK
6
CONTINUOUS
10
126.584
20
-145.987
11
126.991
21
-146.004
0
LINE
8
BLACK
6
CONTINUOUS
10
126.991
20
-146.004
11
127
21
-146
0
LINE
8
BLACK
6
CONTINUOUS
10
127
20
-146
11
256.54
21
-146
0
LINE
8
BLACK
6
CONTINUOUS
10
256.54
20
-146
11
256.549
21
-146.004
0
LINE
8
BLACK
6
CONTINUOUS
10
256.549
20
-146.004
11
256.956
21
-145.987
0
LINE
8
BLACK
6
CONTINUOUS
10
256.956
20
-145.987
11
257.369
21
-145.936
0
LINE
8
BLACK
6
CONTINUOUS
10
257.369
20
-145.936
11
257.776
21
-145.85
0
LINE
8
BLACK
6
CONTINUOUS
10
257.776
20
-145.85
11
258.175
21
-145.732
0
LINE
8
BLACK
6
CONTINUOUS
10
258.175
20
-145.732
11
258.562
21
-145.58
0
LINE
8
BLACK
6
CONTINUOUS
10
258.562
20
-145.58
11
258.936
21
-145.398
0
LINE
8
BLACK
6
CONTINUOUS
10
258.936
20
-145.398
11
259.294
21
-145.185
0
LINE
8
BLACK
6
CONTINUOUS
10
259.294
20
-145.185
11
259.632
21
-144.943
0
LINE
8
BLACK
6
CONTINUOUS
10
259.632
20
-144.943
11
259.95
21
-144.674
0
LINE
8
BLACK
6
CONTINUOUS
10
259.95
20
-144.674
11
260.244
21
-144.38
0
LINE
8
BLACK
6
CONTINUOUS
10
260.244
20
-144.38
11
260.513
21
-144.062
0
LINE
8
BLACK
6
CONTINUOUS
10
260.513
20
-144.062
11
260.755
21
-143.724
0
LINE
8
BLACK
6
CONTINUOUS
10
260.755
20
-143.724
11
260.968
21
-143.366
0
LINE
8
BLACK
6
CONTINUOUS
10
260.968
20
-143.366
11
261.15
21
-142.992
0
LINE
8
BLACK
6
CONTINUOUS
10
261.15
20
-142.992
11
261.302
21
-142.605
0
LINE
8
BLACK
6
CONTINUOUS
10
261.302
20
-142.605
11
261.42
21
-142.206
0
LINE
8
BLACK
6
CONTINUOUS
10
261.42
20
-142.206
11
261.506
21
-141.799
0
LINE
8
BLACK
6
CONTINUOUS
10
261.506
20
-141.799
11
261.557
21
-141.386
0
LINE
8
BLACK
6
CONTINUOUS
10
261.557
20
-141.386
11
261.574
21
-140.979
0
LINE
8
BLACK
6
CONTINUOUS
10
261.574
20
-140.979
11
261.57
21
-140.97
0
LINE
8
BLACK
6
CONTINUOUS
10
261.57
20
-140.97
11
261.57
21
-49.53
0
LINE
8
BLACK
6
CONTINUOUS
10
261.57
20
-49.53
11
261.574
21
-49.5206
0
LINE
8
BLACK
6
CONTINUOUS
10
261.574
20
-49.5206
11
261.557
21
-49.1143
0
LINE
8
BLACK
6
CONTINUOUS
10
261.557
20
-49.1143
11
261.506
21
-48.7014
0
LINE
8
BLACK
6
CONTINUOUS
10
261.506
20
-48.7014
11
261.42
21
-48.2942
0
LINE
8
BLACK
6
CONTINUOUS
10
261.42
20
-48.2942
11
261.302
21
-47.8954
0
LINE
8
BLACK
6
CONTINUOUS
10
261.302
20
-47.8954
11
261.15
21
-47.5077
0
LINE
8
BLACK
6
CONTINUOUS
10
261.15
20
-47.5077
11
260.968
21
-47.1339
0
LINE
8
BLACK
6
CONTINUOUS
10
260.968
20
-47.1339
11
260.755
21
-46.7765
0
LINE
8
BLACK
6
CONTINUOUS
10
260.755
20
-46.7765
11
260.513
21
-46.4379
0
LINE
8
BLACK
6
CONTINUOUS
10
260.513
20
-46.4379
11
260.244
21
-46.1204
0
LINE
8
BLACK
6
CONTINUOUS
10
260.244
20
-46.1204
11
259.95
21
-45.8261
0
LINE
8
BLACK
6
CONTINUOUS
10
259.95
20
-45.8261
11
259.632
21
-45.5572
0
LINE
8
BLACK
6
CONTINUOUS
10
259.632
20
-45.5572
11
259.294
21
-45.3155
0
LINE
8
BLACK
6
CONTINUOUS
10
259.294
20
-45.3155
11
258.936
21
-45.1025
0
LINE
8
BLACK
6
CONTINUOUS
10
258.936
20
-45.1025
11
258.562
21
-44.9197
0
LINE
8
BLACK
6
CONTINUOUS
10
258.562
20
-44.9197
11
258.175
21
-44.7685
0
LINE
8
BLACK
6
CONTINUOUS
10
258.175
20
-44.7685
11
257.776
21
-44.6497
0
LINE
8
BLACK
6
CONTINUOUS
10
257.776
20
-44.6497
11
257.369
21
-44.5644
0
LINE
8
BLACK
6
CONTINUOUS
10
257.369
20
-44.5644
11
256.956
21
-44.5129
0
LINE
8
BLACK
6
CONTINUOUS
10
256.956
20
-44.5129
11
256.549
21
-44.4961
0
LINE
8
BLACK
6
CONTINUOUS
10
256.549
20
-44.4961
11
256.54
21
-44.5
0
LINE
8
BLACK
6
CONTINUOUS
10
256.54
20
-44.5
11
127
21
-44.5
0
LINE
8
BLACK
6
CONTINUOUS
10
127
20
-44.5
11
126.991
21
-44.4961
0
LINE
8
BLACK
6
CONTINUOUS
10
120.974
20
-102.86
11
121.18
21
-102.931
0
LINE
8
BLACK
6
CONTINUOUS
10
121.18
20
-102.931
11
121.372
21
-103.035
0
LINE
8
BLACK
6
CONTINUOUS
10
121.372
20
-103.035
11
121.544
21
-103.169
0
LINE
8
BLACK
6
CONTINUOUS
10
121.544
20
-103.169
11
121.692
21
-103.329
0
LINE
8
BLACK
6
CONTINUOUS
10
121.692
20
-103.329
11
121.811
21
-103.512
0
LINE
8
BLACK
6
CONTINUOUS
10
121.811
20
-103.512
11
121.898
21
-103.711
0
LINE
8
BLACK
6
CONTINUOUS
10
121.898
20
-103.711
11
121.952
21
-103.923
0
LINE
8
BLACK
6
CONTINUOUS
10
121.952
20
-103.923
11
121.97
21
-104.14
0
LINE
8
BLACK
6
CONTINUOUS
10
121.97
20
-104.14
11
121.97
21
-121.92
0
LINE
8
BLACK
6
CONTINUOUS
10
121.97
20
-121.92
11
121.952
21
-122.137
0
LINE
8
BLACK
6
CONTINUOUS
10
121.952
20
-122.137
11
121.898
21
-122.349
0
LINE
8
BLACK
6
CONTINUOUS
10
121.898
20
-122.349
11
121.811
21
-122.548
0
LINE
8
BLACK
6
CONTINUOUS
10
121.811
20
-122.548
11
121.692
21
-122.731
0
LINE
8
BLACK
6
CONTINUOUS
10
121.692
20
-122.731
11
121.544
21
-122.891
0
LINE
8
BLACK
6
CONTINUOUS
10
121.544
20
-122.891
11
121.372
21
-123.025
0
LINE
8
BLACK
6
CONTINUOUS
10
121.372
20
-123.025
11
121.18
21
-123.129
0
LINE
8
BLACK
6
CONTINUOUS
10
121.18
20
-123.129
11
120.974
21
-123.2
0
LINE
8
BLACK
6
CONTINUOUS
10
120.974
20
-123.2
11
120.759
21
-123.235
0
LINE
8
BLACK
6
CONTINUOUS
10
120.759
20
-123.235
11
120.541
21
-123.235
0
LINE
8
BLACK
6
CONTINUOUS
10
120.541
20
-123.235
11
120.326
21
-123.2
0
LINE
8
BLACK
6
CONTINUOUS
10
120.326
20
-123.2
11
120.12
21
-123.129
0
LINE
8
BLACK
6
CONTINUOUS
10
120.12
20
-123.129
11
119.928
21
-123.025
0
LINE
8
BLACK
6
CONTINUOUS
10
119.928
20
-123.025
11
119.756
21
-122.891
0
LINE
8
BLACK
6
CONTINUOUS
10
119.756
20
-122.891
11
119.608
21
-122.731
0
LINE
8
BLACK
6
CONTINUOUS
10
119.608
20
-122.731
11
119.489
21
-122.548
0
LINE
8
BLACK
6
CONTINUOUS
10
119.489
20
-122.548
11
119.402
21
-122.349
0
LINE
8
BLACK
6
CONTINUOUS
10
119.402
20
-122.349
11
119.348
21
-122.137
0
LINE
8
BLACK
6
CONTINUOUS
10
119.348
20
-122.137
11
119.33
21
-121.92
0
LINE
8
BLACK
6
CONTINUOUS
10
119.33
20
-121.92
11
119.33
21
-104.14
0
LINE
8
BLACK
6
CONTINUOUS
10
119.33
20
-104.14
11
119.348
21
-103.923
0
LINE
8
BLACK
6
CONTINUOUS
10
119.348
20
-103.923
11
119.402
21
-103.711
0
LINE
8
BLACK
6
CONTINUOUS
10
119.402
20
-103.711
11
119.489
21
-103.512
0
LINE
8
BLACK
6
CONTINUOUS
10
119.489
20
-103.512
11
119.608
21
-103.329
0
LINE
8
BLACK
6
CONTINUOUS
10
119.608
20
-103.329
11
119.756
21
-103.169
0
LINE
8
BLACK
6
CONTINUOUS
10
119.756
20
-103.169
11
119.928
21
-103.035
0
LINE
8
BLACK
6
CONTINUOUS
10
119.928
20
-103.035
11
120.12
21
-102.931
0
LINE
8
BLACK
6
CONTINUOUS
10
120.12
20
-102.931
11
120.326
21
-102.86
0
LINE
8
BLACK
6
CONTINUOUS
10
120.326
20
-102.86
11
120.541
21
-102.825
0
LINE
8
BLACK
6
CONTINUOUS
10
120.541
20
-102.825
11
120.759
21
-102.825
0
LINE
8
BLACK
6
CONTINUOUS
10
120.759
20
-102.825
11
120.974
21
-102.86
0
LINE
8
BLACK
6
CONTINUOUS
10
120.437
20
-102.934
11
120.231
21
-102.989
0
LINE
8
BLACK
6
CONTINUOUS
10
120.231
20
-102.989
11
120.038
21
-103.079
0
LINE
8
BLACK
6
CONTINUOUS
10
120.038
20
-103.079
11
119.863
21
-103.202
0
LINE
8
BLACK
6
CONTINUOUS
10
119.863
20
-103.202
11
119.712
21
-103.353
0
LINE
8
BLACK
6
CONTINUOUS
10
119.712
20
-103.353
11
119.589
21
-103.528
0
LINE
8
BLACK
6
CONTINUOUS
10
119.589
20
-103.528
11
119.499
21
-103.721
0
LINE
8
BLACK
6
CONTINUOUS
10
119.499
20
-103.721
11
119.444
21
-103.927
0
LINE
8
BLACK
6
CONTINUOUS
10
119.444
20
-103.927
11
119.426
21
-104.131
0
LINE
8
BLACK
6
CONTINUOUS
10
119.426
20
-104.131
11
119.43
21
-104.14
0
LINE
8
BLACK
6
CONTINUOUS
10
119.43
20
-104.14
11
119.43
21
-121.92
0
LINE
8
BLACK
6
CONTINUOUS
10
119.43
20
-121.92
11
119.426
21
-121.929
0
LINE
8
BLACK
6
CONTINUOUS
10
119.426
20
-121.929
11
119.444
21
-122.133
0
LINE
8
BLACK
6
CONTINUOUS
10
119.444
20
-122.133
11
119.499
21
-122.339
0
LINE
8
BLACK
6
CONTINUOUS
10
119.499
20
-122.339
11
119.589
21
-122.532
0
LINE
8
BLACK
6
CONTINUOUS
10
119.589
20
-122.532
11
119.712
21
-122.707
0
LINE
8
BLACK
6
CONTINUOUS
10
119.712
20
-122.707
11
119.863
21
-122.858
0
LINE
8
BLACK
6
CONTINUOUS
10
119.863
20
-122.858
11
120.038
21
-122.981
0
LINE
8
BLACK
6
CONTINUOUS
10
120.038
20
-122.981
11
120.231
21
-123.071
0
LINE
8
BLACK
6
CONTINUOUS
10
120.231
20
-123.071
11
120.437
21
-123.126
0
LINE
8
BLACK
6
CONTINUOUS
10
120.437
20
-123.126
11
120.65
21
-123.145
0
LINE
8
BLACK
6
CONTINUOUS
10
120.65
20
-123.145
11
120.863
21
-123.126
0
LINE
8
BLACK
6
CONTINUOUS
10
120.863
20
-123.126
11
121.069
21
-123.071
0
LINE
8
BLACK
6
CONTINUOUS
10
121.069
20
-123.071
11
121.262
21
-122.981
0
LINE
8
BLACK
6
CONTINUOUS
10
121.262
20
-122.981
11
121.437
21
-122.858
0
LINE
8
BLACK
6
CONTINUOUS
10
121.437
20
-122.858
11
121.588
21
-122.707
0
LINE
8
BLACK
6
CONTINUOUS
10
121.588
20
-122.707
11
121.711
21
-122.532
0
LINE
8
BLACK
6
CONTINUOUS
10
121.711
20
-122.532
11
121.801
21
-122.339
0
LINE
8
BLACK
6
CONTINUOUS
10
121.801
20
-122.339
11
121.856
21
-122.133
0
LINE
8
BLACK
6
CONTINUOUS
10
121.856
20
-122.133
11
121.874
21
-121.929
0
LINE
8
BLACK
6
CONTINUOUS
10
121.874
20
-121.929
11
121.87
21
-121.92
0
LINE
8
BLACK
6
CONTINUOUS
10
121.87
20
-121.92
11
121.87
21
-104.14
0
LINE
8
BLACK
6
CONTINUOUS
10
121.87
20
-104.14
11
121.874
21
-104.131
0
LINE
8
BLACK
6
CONTINUOUS
10
121.874
20
-104.131
11
121.856
21
-103.927
0
LINE
8
BLACK
6
CONTINUOUS
10
121.856
20
-103.927
11
121.801
21
-103.721
0
LINE
8
BLACK
6
CONTINUOUS
10
121.801
20
-103.721
11
121.711
21
-103.528
0
LINE
8
BLACK
6
CONTINUOUS
10
121.711
20
-103.528
11
121.588
21
-103.353
0
LINE
8
BLACK
6
CONTINUOUS
10
121.588
20
-103.353
11
121.437
21
-103.202
0
LINE
8
BLACK
6
CONTINUOUS
10
121.437
20
-103.202
11
121.262
21
-103.079
0
LINE
8
BLACK
6
CONTINUOUS
10
121.262
20
-103.079
11
121.069
21
-102.989
0
LINE
8
BLACK
6
CONTINUOUS
10
121.069
20
-102.989
11
120.863
21
-102.934
0
LINE
8
BLACK
6
CONTINUOUS
10
120.863
20
-102.934
11
120.65
21
-102.915
0
LINE
8
BLACK
6
CONTINUOUS
10
120.65
20
-102.915
11
120.437
21
-102.934
0
LINE
8
BLACK
6
CONTINUOUS
10
120.974
20
-81.2704
11
121.18
21
-81.3412
0
LINE
8
BLACK
6
CONTINUOUS
10
121.18
20
-81.3412
11
121.372
21
-81.4449
0
LINE
8
BLACK
6
CONTINUOUS
10
121.372
20
-81.4449
11
121.544
21
-81.5788
0
LINE
8
BLACK
6
CONTINUOUS
10
121.544
20
-81.5788
11
121.692
21
-81.7392
0
LINE
8
BLACK
6
CONTINUOUS
10
121.692
20
-81.7392
11
121.811
21
-81.9217
0
LINE
8
BLACK
6
CONTINUOUS
10
121.811
20
-81.9217
11
121.898
21
-82.1214
0
LINE
8
BLACK
6
CONTINUOUS
10
121.898
20
-82.1214
11
121.952
21
-82.3327
0
LINE
8
BLACK
6
CONTINUOUS
10
121.952
20
-82.3327
11
121.97
21
-82.55
0
LINE
8
BLACK
6
CONTINUOUS
10
121.97
20
-82.55
11
121.97
21
-99.06
0
LINE
8
BLACK
6
CONTINUOUS
10
121.97
20
-99.06
11
121.952
21
-99.2773
0
LINE
8
BLACK
6
CONTINUOUS
10
121.952
20
-99.2773
11
121.898
21
-99.4886
0
LINE
8
BLACK
6
CONTINUOUS
10
121.898
20
-99.4886
11
121.811
21
-99.6883
0
LINE
8
BLACK
6
CONTINUOUS
10
121.811
20
-99.6883
11
121.692
21
-99.8708
0
LINE
8
BLACK
6
CONTINUOUS
10
121.692
20
-99.8708
11
121.544
21
-100.031
0
LINE
8
BLACK
6
CONTINUOUS
10
121.544
20
-100.031
11
121.372
21
-100.165
0
LINE
8
BLACK
6
CONTINUOUS
10
121.372
20
-100.165
11
121.18
21
-100.269
0
LINE
8
BLACK
6
CONTINUOUS
10
121.18
20
-100.269
11
120.974
21
-100.34
0
LINE
8
BLACK
6
CONTINUOUS
10
120.974
20
-100.34
11
120.759
21
-100.375
0
LINE
8
BLACK
6
CONTINUOUS
10
120.759
20
-100.375
11
120.541
21
-100.375
0
LINE
8
BLACK
6
CONTINUOUS
10
120.541
20
-100.375
11
120.326
21
-100.34
0
LINE
8
BLACK
6
CONTINUOUS
10
120.326
20
-100.34
11
120.12
21
-100.269
0
LINE
8
BLACK
6
CONTINUOUS
10
120.12
20
-100.269
11
119.928
21
-100.165
0
LINE
8
BLACK
6
CONTINUOUS
10
119.928
20
-100.165
11
119.756
21
-100.031
0
LINE
8
BLACK
6
CONTINUOUS
10
119.756
20
-100.031
11
119.608
21
-99.8708
0
LINE
8
BLACK
6
CONTINUOUS
10
119.608
20
-99.8708
11
119.489
21
-99.6883
0
LINE
8
BLACK
6
CONTINUOUS
10
119.489
20
-99.6883
11
119.402
21
-99.4886
0
LINE
8
BLACK
6
CONTINUOUS
10
119.402
20
-99.4886
11
119.348
21
-99.2773
0
LINE
8
BLACK
6
CONTINUOUS
10
119.348
20
-99.2773
11
119.33
21
-99.06
0
LINE
8
BLACK
6
CONTINUOUS
10
119.33
20
-99.06
11
119.33
21
-82.55
0
LINE
8
BLACK
6
CONTINUOUS
10
119.33
20
-82.55
11
119.348
21
-82.3327
0
LINE
8
BLACK
6
CONTINUOUS
10
119.348
20
-82.3327
11
119.402
21
-82.1214
0
LINE
8
BLACK
6
CONTINUOUS
10
119.402
20
-82.1214
11
119.489
21
-81.9217
0
LINE
8
BLACK
6
CONTINUOUS
10
119.489
20
-81.9217
11
119.608
21
-81.7392
0
LINE
8
BLACK
6
CONTINUOUS
10
119.608
20
-81.7392
11
119.756
21
-81.5788
0
LINE
8
BLACK
6
CONTINUOUS
10
119.756
20
-81.5788
11
119.928
21
-81.4449
0
LINE
8
BLACK
6
CONTINUOUS
10
119.928
20
-81.4449
11
120.12
21
-81.3412
0
LINE
8
BLACK
6
CONTINUOUS
10
120.12
20
-81.3412
11
120.326
21
-81.2704
0
LINE
8
BLACK
6
CONTINUOUS
10
120.326
20
-81.2704
11
120.541
21
-81.2345
0
LINE
8
BLACK
6
CONTINUOUS
10
120.541
20
-81.2345
11
120.759
21
-81.2345
0
LINE
8
BLACK
6
CONTINUOUS
10
120.759
20
-81.2345
11
120.974
21
-81.2704
0
LINE
8
BLACK
6
CONTINUOUS
10
120.437
20
-81.3439
11
120.231
21
-81.3992
0
LINE
8
BLACK
6
CONTINUOUS
10
120.231
20
-81.3992
11
120.038
21
-81.4894
0
LINE
8
BLACK
6
CONTINUOUS
10
120.038
20
-81.4894
11
119.863
21
-81.6119
0
LINE
8
BLACK
6
CONTINUOUS
10
119.863
20
-81.6119
11
119.712
21
-81.7628
0
LINE
8
BLACK
6
CONTINUOUS
10
119.712
20
-81.7628
11
119.589
21
-81.9377
0
LINE
8
BLACK
6
CONTINUOUS
10
119.589
20
-81.9377
11
119.499
21
-82.1311
0
LINE
8
BLACK
6
CONTINUOUS
10
119.499
20
-82.1311
11
119.444
21
-82.3373
0
LINE
8
BLACK
6
CONTINUOUS
10
119.444
20
-82.3373
11
119.426
21
-82.5407
0
LINE
8
BLACK
6
CONTINUOUS
10
119.426
20
-82.5407
11
119.43
21
-82.55
0
LINE
8
BLACK
6
CONTINUOUS
10
119.43
20
-82.55
11
119.43
21
-99.06
0
LINE
8
BLACK
6
CONTINUOUS
10
119.43
20
-99.06
11
119.426
21
-99.0693
0
LINE
8
BLACK
6
CONTINUOUS
10
119.426
20
-99.0693
11
119.444
21
-99.2727
0
LINE
8
BLACK
6
CONTINUOUS
10
119.444
20
-99.2727
11
119.499
21
-99.4789
0
LINE
8
BLACK
6
CONTINUOUS
10
119.499
20
-99.4789
11
119.589
21
-99.6723
0
LINE
8
BLACK
6
CONTINUOUS
10
119.589
20
-99.6723
11
119.712
21
-99.8472
0
LINE
8
BLACK
6
CONTINUOUS
10
119.712
20
-99.8472
11
119.863
21
-99.9981
0
LINE
8
BLACK
6
CONTINUOUS
10
119.863
20
-99.9981
11
120.038
21
-100.121
0
LINE
8
BLACK
6
CONTINUOUS
10
120.038
20
-100.121
11
120.231
21
-100.211
0
LINE
8
BLACK
6
CONTINUOUS
10
120.231
20
-100.211
11
120.437
21
-100.266
0
LINE
8
BLACK
6
CONTINUOUS
10
120.437
20
-100.266
11
120.65
21
-100.285
0
LINE
8
BLACK
6
CONTINUOUS
10
120.65
20
-100.285
11
120.863
21
-100.266
0
LINE
8
BLACK
6
CONTINUOUS
10
120.863
20
-100.266
11
121.069
21
-100.211
0
LINE
8
BLACK
6
CONTINUOUS
10
121.069
20
-100.211
11
121.262
21
-100.121
0
LINE
8
BLACK
6
CONTINUOUS
10
121.262
20
-100.121
11
121.437
21
-99.9981
0
LINE
8
BLACK
6
CONTINUOUS
10
121.437
20
-99.9981
11
121.588
21
-99.8472
0
LINE
8
BLACK
6
CONTINUOUS
10
121.588
20
-99.8472
11
121.711
21
-99.6723
0
LINE
8
BLACK
6
CONTINUOUS
10
121.711
20
-99.6723
11
121.801
21
-99.4789
0
LINE
8
BLACK
6
CONTINUOUS
10
121.801
20
-99.4789
11
121.856
21
-99.2727
0
LINE
8
BLACK
6
CONTINUOUS
10
121.856
20
-99.2727
11
121.874
21
-99.0693
0
LINE
8
BLACK
6
CONTINUOUS
10
121.874
20
-99.0693
11
121.87
21
-99.06
0
LINE
8
BLACK
6
CONTINUOUS
10
121.87
20
-99.06
11
121.87
21
-82.55
0
LINE
8
BLACK
6
CONTINUOUS
10
121.87
20
-82.55
11
121.874
21
-82.5407
0
LINE
8
BLACK
6
CONTINUOUS
10
121.874
20
-82.5407
11
121.856
21
-82.3373
0
LINE
8
BLACK
6
CONTINUOUS
10
121.856
20
-82.3373
11
121.801
21
-82.1311
0
LINE
8
BLACK
6
CONTINUOUS
10
121.801
20
-82.1311
11
121.711
21
-81.9377
0
LINE
8
BLACK
6
CONTINUOUS
10
121.711
20
-81.9377
11
121.588
21
-81.7628
0
LINE
8
BLACK
6
CONTINUOUS
10
121.588
20
-81.7628
11
121.437
21
-81.6119
0
LINE
8
BLACK
6
CONTINUOUS
10
121.437
20
-81.6119
11
121.262
21
-81.4894
0
LINE
8
BLACK
6
CONTINUOUS
10
121.262
20
-81.4894
11
121.069
21
-81.3992
0
LINE
8
BLACK
6
CONTINUOUS
10
121.069
20
-81.3992
11
120.863
21
-81.3439
0
LINE
8
BLACK
6
CONTINUOUS
10
120.863
20
-81.3439
11
120.65
21
-81.3253
0
LINE
8
BLACK
6
CONTINUOUS
10
120.65
20
-81.3253
11
120.437
21
-81.3439
0
LINE
8
BLACK
6
CONTINUOUS
10
120.974
20
-58.4104
11
121.18
21
-58.4812
0
LINE
8
BLACK
6
CONTINUOUS
10
121.18
20
-58.4812
11
121.372
21
-58.5849
0
LINE
8
BLACK
6
CONTINUOUS
10
121.372
20
-58.5849
11
121.544
21
-58.7188
0
LINE
8
BLACK
6
CONTINUOUS
10
121.544
20
-58.7188
11
121.692
21
-58.8792
0
LINE
8
BLACK
6
CONTINUOUS
10
121.692
20
-58.8792
11
121.811
21
-59.0617
0
LINE
8
BLACK
6
CONTINUOUS
10
121.811
20
-59.0617
11
121.898
21
-59.2614
0
LINE
8
BLACK
6
CONTINUOUS
10
121.898
20
-59.2614
11
121.952
21
-59.4727
0
LINE
8
BLACK
6
CONTINUOUS
10
121.952
20
-59.4727
11
121.97
21
-59.69
0
LINE
8
BLACK
6
CONTINUOUS
10
121.97
20
-59.69
11
121.97
21
-77.47
0
LINE
8
BLACK
6
CONTINUOUS
10
121.97
20
-77.47
11
121.952
21
-77.6873
0
LINE
8
BLACK
6
CONTINUOUS
10
121.952
20
-77.6873
11
121.898
21
-77.8986
0
LINE
8
BLACK
6
CONTINUOUS
10
121.898
20
-77.8986
11
121.811
21
-78.0983
0
LINE
8
BLACK
6
CONTINUOUS
10
121.811
20
-78.0983
11
121.692
21
-78.2808
0
LINE
8
BLACK
6
CONTINUOUS
10
121.692
20
-78.2808
11
121.544
21
-78.4412
0
LINE
8
BLACK
6
CONTINUOUS
10
121.544
20
-78.4412
11
121.372
21
-78.5751
0
LINE
8
BLACK
6
CONTINUOUS
10
121.372
20
-78.5751
11
121.18
21
-78.6788
0
LINE
8
BLACK
6
CONTINUOUS
10
121.18
20
-78.6788
11
120.974
21
-78.7496
0
LINE
8
BLACK
6
CONTINUOUS
10
120.974
20
-78.7496
11
120.759
21
-78.7855
0
LINE
8
BLACK
6
CONTINUOUS
10
120.759
20
-78.7855
11
120.541
21
-78.7855
0
LINE
8
BLACK
6
CONTINUOUS
10
120.541
20
-78.7855
11
120.326
21
-78.7496
0
LINE
8
BLACK
6
CONTINUOUS
10
120.326
20
-78.7496
11
120.12
21
-78.6788
0
LINE
8
BLACK
6
CONTINUOUS
10
120.12
20
-78.6788
11
119.928
21
-78.5751
0
LINE
8
BLACK
6
CONTINUOUS
10
119.928
20
-78.5751
11
119.756
21
-78.4412
0
LINE
8
BLACK
6
CONTINUOUS
10
119.756
20
-78.4412
11
119.608
21
-78.2808
0
LINE
8
BLACK
6
CONTINUOUS
10
119.608
20
-78.2808
11
119.489
21
-78.0983
0
LINE
8
BLACK
6
CONTINUOUS
10
119.489
20
-78.0983
11
119.402
21
-77.8986
0
LINE
8
BLACK
6
CONTINUOUS
10
119.402
20
-77.8986
11
119.348
21
-77.6873
0
LINE
8
BLACK
6
CONTINUOUS
10
119.348
20
-77.6873
11
119.33
21
-77.47
0
LINE
8
BLACK
6
CONTINUOUS
10
119.33
20
-77.47
11
119.33
21
-59.69
0
LINE
8
BLACK
6
CONTINUOUS
10
119.33
20
-59.69
11
119.348
21
-59.4727
0
LINE
8
BLACK
6
CONTINUOUS
10
119.348
20
-59.4727
11
119.402
21
-59.2614
0
LINE
8
BLACK
6
CONTINUOUS
10
119.402
20
-59.2614
11
119.489
21
-59.0617
0
LINE
8
BLACK
6
CONTINUOUS
10
119.489
20
-59.0617
11
119.608
21
-58.8792
0
LINE
8
BLACK
6
CONTINUOUS
10
119.608
20
-58.8792
11
119.756
21
-58.7188
0
LINE
8
BLACK
6
CONTINUOUS
10
119.756
20
-58.7188
11
119.928
21
-58.5849
0
LINE
8
BLACK
6
CONTINUOUS
10
119.928
20
-58.5849
11
120.12
21
-58.4812
0
LINE
8
BLACK
6
CONTINUOUS
10
120.12
20
-58.4812
11
120.326
21
-58.4104
0
LINE
8
BLACK
6
CONTINUOUS
10
120.326
20
-58.4104
11
120.541
21
-58.3745
0
LINE
8
BLACK
6
CONTINUOUS
10
120.541
20
-58.3745
11
120.759
21
-58.3745
0
LINE
8
BLACK
6
CONTINUOUS
10
120.759
20
-58.3745
11
120.974
21
-58.4104
0
LINE
8
BLACK
6
CONTINUOUS
10
120.437
20
-58.4839
11
120.231
21
-58.5392
0
LINE
8
BLACK
6
CONTINUOUS
10
120.231
20
-58.5392
11
120.038
21
-58.6294
0
LINE
8
BLACK
6
CONTINUOUS
10
120.038
20
-58.6294
11
119.863
21
-58.7519
0
LINE
8
BLACK
6
CONTINUOUS
10
119.863
20
-58.7519
11
119.712
21
-58.9028
0
LINE
8
BLACK
6
CONTINUOUS
10
119.712
20
-58.9028
11
119.589
21
-59.0777
0
LINE
8
BLACK
6
CONTINUOUS
10
119.589
20
-59.0777
11
119.499
21
-59.2711
0
LINE
8
BLACK
6
CONTINUOUS
10
119.499
20
-59.2711
11
119.444
21
-59.4773
0
LINE
8
BLACK
6
CONTINUOUS
10
119.444
20
-59.4773
11
119.426
21
-59.6807
0
LINE
8
BLACK
6
CONTINUOUS
10
119.426
20
-59.6807
11
119.43
21
-59.69
0
LINE
8
BLACK
6
CONTINUOUS
10
119.43
20
-59.69
11
119.43
21
-77.47
0
LINE
8
BLACK
6
CONTINUOUS
10
119.43
20
-77.47
11
119.426
21
-77.4793
0
LINE
8
BLACK
6
CONTINUOUS
10
119.426
20
-77.4793
11
119.444
21
-77.6827
0
LINE
8
BLACK
6
CONTINUOUS
10
119.444
20
-77.6827
11
119.499
21
-77.8889
0
LINE
8
BLACK
6
CONTINUOUS
10
119.499
20
-77.8889
11
119.589
21
-78.0823
0
LINE
8
BLACK
6
CONTINUOUS
10
119.589
20
-78.0823
11
119.712
21
-78.2572
0
LINE
8
BLACK
6
CONTINUOUS
10
119.712
20
-78.2572
11
119.863
21
-78.4081
0
LINE
8
BLACK
6
CONTINUOUS
10
119.863
20
-78.4081
11
120.038
21
-78.5306
0
LINE
8
BLACK
6
CONTINUOUS
10
120.038
20
-78.5306
11
120.231
21
-78.6208
0
LINE
8
BLACK
6
CONTINUOUS
10
120.231
20
-78.6208
11
120.437
21
-78.6761
0
LINE
8
BLACK
6
CONTINUOUS
10
120.437
20
-78.6761
11
120.65
21
-78.6947
0
LINE
8
BLACK
6
CONTINUOUS
10
120.65
20
-78.6947
11
120.863
21
-78.6761
0
LINE
8
BLACK
6
CONTINUOUS
10
120.863
20
-78.6761
11
121.069
21
-78.6208
0
LINE
8
BLACK
6
CONTINUOUS
10
121.069
20
-78.6208
11
121.262
21
-78.5306
0
LINE
8
BLACK
6
CONTINUOUS
10
121.262
20
-78.5306
11
121.437
21
-78.4081
0
LINE
8
BLACK
6
CONTINUOUS
10
121.437
20
-78.4081
11
121.588
21
-78.2572
0
LINE
8
BLACK
6
CONTINUOUS
10
121.588
20
-78.2572
11
121.711
21
-78.0823
0
LINE
8
BLACK
6
CONTINUOUS
10
121.711
20
-78.0823
11
121.801
21
-77.8889
0
LINE
8
BLACK
6
CONTINUOUS
10
121.801
20
-77.8889
11
121.856
21
-77.6827
0
LINE
8
BLACK
6
CONTINUOUS
10
121.856
20
-77.6827
11
121.874
21
-77.4793
0
LINE
8
BLACK
6
CONTINUOUS
10
121.874
20
-77.4793
11
121.87
21
-77.47
0
LINE
8
BLACK
6
CONTINUOUS
10
121.87
20
-77.47
11
121.87
21
-59.69
0
LINE
8
BLACK
6
CONTINUOUS
10
121.87
20
-59.69
11
121.874
21
-59.6807
0
LINE
8
BLACK
6
CONTINUOUS
10
121.874
20
-59.6807
11
121.856
21
-59.4773
0
LINE
8
BLACK
6
CONTINUOUS
10
121.856
20
-59.4773
11
121.801
21
-59.2711
0
LINE
8
BLACK
6
CONTINUOUS
10
121.801
20
-59.2711
11
121.711
21
-59.0777
0
LINE
8
BLACK
6
CONTINUOUS
10
121.711
20
-59.0777
11
121.588
21
-58.9028
0
LINE
8
BLACK
6
CONTINUOUS
10
121.588
20
-58.9028
11
121.437
21
-58.7519
0
LINE
8
BLACK
6
CONTINUOUS
10
121.437
20
-58.7519
11
121.262
21
-58.6294
0
LINE
8
BLACK
6
CONTINUOUS
10
121.262
20
-58.6294
11
121.069
21
-58.5392
0
LINE
8
BLACK
6
CONTINUOUS
10
121.069
20
-58.5392
11
120.863
21
-58.4839
0
LINE
8
BLACK
6
CONTINUOUS
10
120.863
20
-58.4839
11
120.65
21
-58.4653
0
LINE
8
BLACK
6
CONTINUOUS
10
120.65
20
-58.4653
11
120.437
21
-58.4839
  0
ENDSEC
  0
EOF
