  0
SECTION
  2
HEADER
  9
$ANGBASE
  50
0.0
  9
$ANGDIR
  70
1
  9
$MEASUREMENT
  70
1
  0
ENDSEC
  0
SECTION
  2
TABLES
  0
TABLE
  2
LTYPE
  70
4
  0
LTYPE
  5
40F
  2
CONTINUOUS
  70
0
  3
Solid line
  72
65
  73
0
  40
0.0
  0
LTYPE
  5
410
  2
DASHDOT
 70
0
  3
Dash Dot ____ _ ____ _
 72
65
 73
4
 40
2.0
 49
1.25
 49
-0.25
 49
0.25
 49
-0.25
  0
LTYPE
  5
411
  2
DASHED
 70
0
  3
Dashed __ __ __ __ __
 72
65
 73
2
 40
0.75
 49
0.5
 49
-0.25
  0
LTYPE
  5
43B
  2
DOTTED
 70
0
  3
Dotted .  .  .  .
 72
65
 73
2
 40
0.2
 49
0.0
 49
-0.2
  0
ENDTAB
  0
TABLE
  2
STYLE
  70
4
  0
STYLE
  2
KICAD
  70
0
  40
0
  41
1
  42
1
  50
0
  71
0
  3
isocp.shx
  0
STYLE
  2
KICADB
  70
0
  40
0
  41
1
  42
1
  50
0
  71
0
  3
isocp.shx
  0
STYLE
  2
KICADI
  70
0
  40
0
  41
1
  42
1
  50
15
  71
0
  3
isocp.shx
  0
STYLE
  2
KICADBI
  70
0
  40
0
  41
1
  42
1
  50
15
  71
0
  3
isocp.shx
  0
ENDTAB
  0
TABLE
  2
LAYER
  70
1
  0
LAYER
  2
BLACK
  70
0
  62
7
  6
CONTINUOUS
  0
ENDTAB
  0
ENDSEC
  0
SECTION
  2
ENTITIES
0
LINE
8
BLACK
6
CONTINUOUS
10
223.108
20
-113.681
11
223.112
21
-113.68
0
LINE
8
BLACK
6
CONTINUOUS
10
223.112
20
-113.68
11
223.13
21
-113.693
0
LINE
8
BLACK
6
CONTINUOUS
10
223.13
20
-113.693
11
223.149
21
-113.704
0
LINE
8
BLACK
6
CONTINUOUS
10
223.149
20
-113.704
11
223.15
21
-113.708
0
LINE
8
BLACK
6
CONTINUOUS
10
223.15
20
-113.708
11
223.154
21
-113.711
0
LINE
8
BLACK
6
CONTINUOUS
10
223.154
20
-113.711
11
223.245
21
-113.847
0
LINE
8
BLACK
6
CONTINUOUS
10
223.245
20
-113.847
11
223.326
21
-113.929
0
LINE
8
BLACK
6
CONTINUOUS
10
223.326
20
-113.929
11
223.411
21
-113.971
0
LINE
8
BLACK
6
CONTINUOUS
10
223.411
20
-113.971
11
223.432
21
-113.987
0
LINE
8
BLACK
6
CONTINUOUS
10
223.432
20
-113.987
11
223.452
21
-114.034
0
LINE
8
BLACK
6
CONTINUOUS
10
223.452
20
-114.034
11
223.437
21
-114.083
0
LINE
8
BLACK
6
CONTINUOUS
10
223.437
20
-114.083
11
223.395
21
-114.111
0
LINE
8
BLACK
6
CONTINUOUS
10
223.395
20
-114.111
11
223.344
21
-114.105
0
LINE
8
BLACK
6
CONTINUOUS
10
223.344
20
-114.105
11
223.248
21
-114.058
0
LINE
8
BLACK
6
CONTINUOUS
10
223.248
20
-114.058
11
223.23
21
-114.044
0
LINE
8
BLACK
6
CONTINUOUS
10
223.23
20
-114.044
11
223.229
21
-114.044
0
LINE
8
BLACK
6
CONTINUOUS
10
223.229
20
-114.044
11
223.166
21
-113.981
0
LINE
8
BLACK
6
CONTINUOUS
10
223.166
20
-113.981
11
223.166
21
-114.677
0
LINE
8
BLACK
6
CONTINUOUS
10
223.166
20
-114.677
11
223.377
21
-114.677
0
LINE
8
BLACK
6
CONTINUOUS
10
223.377
20
-114.677
11
223.403
21
-114.682
0
LINE
8
BLACK
6
CONTINUOUS
10
223.403
20
-114.682
11
223.442
21
-114.715
0
LINE
8
BLACK
6
CONTINUOUS
10
223.442
20
-114.715
11
223.451
21
-114.765
0
LINE
8
BLACK
6
CONTINUOUS
10
223.451
20
-114.765
11
223.425
21
-114.81
0
LINE
8
BLACK
6
CONTINUOUS
10
223.425
20
-114.81
11
223.377
21
-114.827
0
LINE
8
BLACK
6
CONTINUOUS
10
223.377
20
-114.827
11
222.806
21
-114.827
0
LINE
8
BLACK
6
CONTINUOUS
10
222.806
20
-114.827
11
222.78
21
-114.823
0
LINE
8
BLACK
6
CONTINUOUS
10
222.78
20
-114.823
11
222.741
21
-114.79
0
LINE
8
BLACK
6
CONTINUOUS
10
222.741
20
-114.79
11
222.732
21
-114.739
0
LINE
8
BLACK
6
CONTINUOUS
10
222.732
20
-114.739
11
222.758
21
-114.695
0
LINE
8
BLACK
6
CONTINUOUS
10
222.758
20
-114.695
11
222.806
21
-114.677
0
LINE
8
BLACK
6
CONTINUOUS
10
222.806
20
-114.677
11
223.016
21
-114.677
0
LINE
8
BLACK
6
CONTINUOUS
10
223.016
20
-114.677
11
223.016
21
-113.752
0
LINE
8
BLACK
6
CONTINUOUS
10
223.016
20
-113.752
11
223.021
21
-113.727
0
LINE
8
BLACK
6
CONTINUOUS
10
223.021
20
-113.727
11
223.024
21
-113.723
0
LINE
8
BLACK
6
CONTINUOUS
10
223.024
20
-113.723
11
223.024
21
-113.719
0
LINE
8
BLACK
6
CONTINUOUS
10
223.024
20
-113.719
11
223.04
21
-113.704
0
LINE
8
BLACK
6
CONTINUOUS
10
223.04
20
-113.704
11
223.054
21
-113.687
0
LINE
8
BLACK
6
CONTINUOUS
10
223.054
20
-113.687
11
223.058
21
-113.687
0
LINE
8
BLACK
6
CONTINUOUS
10
223.058
20
-113.687
11
223.061
21
-113.684
0
LINE
8
BLACK
6
CONTINUOUS
10
223.061
20
-113.684
11
223.083
21
-113.682
0
LINE
8
BLACK
6
CONTINUOUS
10
223.083
20
-113.682
11
223.104
21
-113.679
0
LINE
8
BLACK
6
CONTINUOUS
10
223.104
20
-113.679
11
223.108
21
-113.681
0
LINE
8
BLACK
6
CONTINUOUS
10
162.3
20
-113.682
11
162.303
21
-113.685
0
LINE
8
BLACK
6
CONTINUOUS
10
162.303
20
-113.685
11
162.308
21
-113.685
0
LINE
8
BLACK
6
CONTINUOUS
10
162.308
20
-113.685
11
162.403
21
-113.733
0
LINE
8
BLACK
6
CONTINUOUS
10
162.403
20
-113.733
11
162.421
21
-113.746
0
LINE
8
BLACK
6
CONTINUOUS
10
162.421
20
-113.746
11
162.423
21
-113.747
0
LINE
8
BLACK
6
CONTINUOUS
10
162.423
20
-113.747
11
162.47
21
-113.795
0
LINE
8
BLACK
6
CONTINUOUS
10
162.47
20
-113.795
11
162.485
21
-113.816
0
LINE
8
BLACK
6
CONTINUOUS
10
162.485
20
-113.816
11
162.49
21
-113.867
0
LINE
8
BLACK
6
CONTINUOUS
10
162.49
20
-113.867
11
162.46
21
-113.909
0
LINE
8
BLACK
6
CONTINUOUS
10
162.46
20
-113.909
11
162.411
21
-113.922
0
LINE
8
BLACK
6
CONTINUOUS
10
162.411
20
-113.922
11
162.364
21
-113.901
0
LINE
8
BLACK
6
CONTINUOUS
10
162.364
20
-113.901
11
162.325
21
-113.862
0
LINE
8
BLACK
6
CONTINUOUS
10
162.325
20
-113.862
11
162.257
21
-113.827
0
LINE
8
BLACK
6
CONTINUOUS
10
162.257
20
-113.827
11
162.054
21
-113.827
0
LINE
8
BLACK
6
CONTINUOUS
10
162.054
20
-113.827
11
161.985
21
-113.862
0
LINE
8
BLACK
6
CONTINUOUS
10
161.985
20
-113.862
11
161.955
21
-113.892
0
LINE
8
BLACK
6
CONTINUOUS
10
161.955
20
-113.892
11
161.921
21
-113.961
0
LINE
8
BLACK
6
CONTINUOUS
10
161.921
20
-113.961
11
161.921
21
-114.026
0
LINE
8
BLACK
6
CONTINUOUS
10
161.921
20
-114.026
11
161.959
21
-114.14
0
LINE
8
BLACK
6
CONTINUOUS
10
161.959
20
-114.14
11
162.518
21
-114.699
0
LINE
8
BLACK
6
CONTINUOUS
10
162.518
20
-114.699
11
162.527
21
-114.713
0
LINE
8
BLACK
6
CONTINUOUS
10
162.527
20
-114.713
11
162.53
21
-114.715
0
LINE
8
BLACK
6
CONTINUOUS
10
162.53
20
-114.715
11
162.53
21
-114.717
0
LINE
8
BLACK
6
CONTINUOUS
10
162.53
20
-114.717
11
162.533
21
-114.721
0
LINE
8
BLACK
6
CONTINUOUS
10
162.533
20
-114.721
11
162.535
21
-114.743
0
LINE
8
BLACK
6
CONTINUOUS
10
162.535
20
-114.743
11
162.539
21
-114.765
0
LINE
8
BLACK
6
CONTINUOUS
10
162.539
20
-114.765
11
162.537
21
-114.768
0
LINE
8
BLACK
6
CONTINUOUS
10
162.537
20
-114.768
11
162.537
21
-114.772
0
LINE
8
BLACK
6
CONTINUOUS
10
162.537
20
-114.772
11
162.524
21
-114.79
0
LINE
8
BLACK
6
CONTINUOUS
10
162.524
20
-114.79
11
162.513
21
-114.81
0
LINE
8
BLACK
6
CONTINUOUS
10
162.513
20
-114.81
11
162.51
21
-114.811
0
LINE
8
BLACK
6
CONTINUOUS
10
162.51
20
-114.811
11
162.508
21
-114.814
0
LINE
8
BLACK
6
CONTINUOUS
10
162.508
20
-114.814
11
162.486
21
-114.82
0
LINE
8
BLACK
6
CONTINUOUS
10
162.486
20
-114.82
11
162.465
21
-114.827
0
LINE
8
BLACK
6
CONTINUOUS
10
162.465
20
-114.827
11
161.846
21
-114.827
0
LINE
8
BLACK
6
CONTINUOUS
10
161.846
20
-114.827
11
161.82
21
-114.823
0
LINE
8
BLACK
6
CONTINUOUS
10
161.82
20
-114.823
11
161.781
21
-114.79
0
LINE
8
BLACK
6
CONTINUOUS
10
161.781
20
-114.79
11
161.772
21
-114.739
0
LINE
8
BLACK
6
CONTINUOUS
10
161.772
20
-114.739
11
161.798
21
-114.695
0
LINE
8
BLACK
6
CONTINUOUS
10
161.798
20
-114.695
11
161.846
21
-114.677
0
LINE
8
BLACK
6
CONTINUOUS
10
161.846
20
-114.677
11
162.284
21
-114.677
0
LINE
8
BLACK
6
CONTINUOUS
10
162.284
20
-114.677
11
161.84
21
-114.234
0
LINE
8
BLACK
6
CONTINUOUS
10
161.84
20
-114.234
11
161.825
21
-114.213
0
LINE
8
BLACK
6
CONTINUOUS
10
161.825
20
-114.213
11
161.825
21
-114.208
0
LINE
8
BLACK
6
CONTINUOUS
10
161.825
20
-114.208
11
161.822
21
-114.205
0
LINE
8
BLACK
6
CONTINUOUS
10
161.822
20
-114.205
11
161.775
21
-114.062
0
LINE
8
BLACK
6
CONTINUOUS
10
161.775
20
-114.062
11
161.771
21
-114.04
0
LINE
8
BLACK
6
CONTINUOUS
10
161.771
20
-114.04
11
161.771
21
-114.038
0
LINE
8
BLACK
6
CONTINUOUS
10
161.771
20
-114.038
11
161.771
21
-113.943
0
LINE
8
BLACK
6
CONTINUOUS
10
161.771
20
-113.943
11
161.775
21
-113.917
0
LINE
8
BLACK
6
CONTINUOUS
10
161.775
20
-113.917
11
161.778
21
-113.914
0
LINE
8
BLACK
6
CONTINUOUS
10
161.778
20
-113.914
11
161.779
21
-113.909
0
LINE
8
BLACK
6
CONTINUOUS
10
161.779
20
-113.909
11
161.826
21
-113.814
0
LINE
8
BLACK
6
CONTINUOUS
10
161.826
20
-113.814
11
161.84
21
-113.796
0
LINE
8
BLACK
6
CONTINUOUS
10
161.84
20
-113.796
11
161.84
21
-113.795
0
LINE
8
BLACK
6
CONTINUOUS
10
161.84
20
-113.795
11
161.888
21
-113.747
0
LINE
8
BLACK
6
CONTINUOUS
10
161.888
20
-113.747
11
161.906
21
-113.734
0
LINE
8
BLACK
6
CONTINUOUS
10
161.906
20
-113.734
11
161.907
21
-113.733
0
LINE
8
BLACK
6
CONTINUOUS
10
161.907
20
-113.733
11
162.003
21
-113.685
0
LINE
8
BLACK
6
CONTINUOUS
10
162.003
20
-113.685
11
162.028
21
-113.678
0
LINE
8
BLACK
6
CONTINUOUS
10
162.028
20
-113.678
11
162.032
21
-113.679
0
LINE
8
BLACK
6
CONTINUOUS
10
162.032
20
-113.679
11
162.036
21
-113.677
0
LINE
8
BLACK
6
CONTINUOUS
10
162.036
20
-113.677
11
162.274
21
-113.677
0
LINE
8
BLACK
6
CONTINUOUS
10
162.274
20
-113.677
11
162.3
21
-113.682
0
LINE
8
BLACK
6
CONTINUOUS
10
223.702
20
-113.688
11
223.734
21
-113.729
0
LINE
8
BLACK
6
CONTINUOUS
10
223.734
20
-113.729
11
223.996
21
-114.515
0
LINE
8
BLACK
6
CONTINUOUS
10
223.996
20
-114.515
11
224.258
21
-113.729
0
LINE
8
BLACK
6
CONTINUOUS
10
224.258
20
-113.729
11
224.271
21
-113.706
0
LINE
8
BLACK
6
CONTINUOUS
10
224.271
20
-113.706
11
224.314
21
-113.679
0
LINE
8
BLACK
6
CONTINUOUS
10
224.314
20
-113.679
11
224.365
21
-113.686
0
LINE
8
BLACK
6
CONTINUOUS
10
224.365
20
-113.686
11
224.399
21
-113.725
0
LINE
8
BLACK
6
CONTINUOUS
10
224.399
20
-113.725
11
224.401
21
-113.776
0
LINE
8
BLACK
6
CONTINUOUS
10
224.401
20
-113.776
11
224.067
21
-114.776
0
LINE
8
BLACK
6
CONTINUOUS
10
224.067
20
-114.776
11
224.055
21
-114.799
0
LINE
8
BLACK
6
CONTINUOUS
10
224.055
20
-114.799
11
224.053
21
-114.8
0
LINE
8
BLACK
6
CONTINUOUS
10
224.053
20
-114.8
11
224.052
21
-114.802
0
LINE
8
BLACK
6
CONTINUOUS
10
224.052
20
-114.802
11
224.031
21
-114.813
0
LINE
8
BLACK
6
CONTINUOUS
10
224.031
20
-114.813
11
224.011
21
-114.826
0
LINE
8
BLACK
6
CONTINUOUS
10
224.011
20
-114.826
11
224.009
21
-114.826
0
LINE
8
BLACK
6
CONTINUOUS
10
224.009
20
-114.826
11
224.007
21
-114.827
0
LINE
8
BLACK
6
CONTINUOUS
10
224.007
20
-114.827
11
223.984
21
-114.822
0
LINE
8
BLACK
6
CONTINUOUS
10
223.984
20
-114.822
11
223.96
21
-114.818
0
LINE
8
BLACK
6
CONTINUOUS
10
223.96
20
-114.818
11
223.959
21
-114.817
0
LINE
8
BLACK
6
CONTINUOUS
10
223.959
20
-114.817
11
223.957
21
-114.816
0
LINE
8
BLACK
6
CONTINUOUS
10
223.957
20
-114.816
11
223.942
21
-114.798
0
LINE
8
BLACK
6
CONTINUOUS
10
223.942
20
-114.798
11
223.926
21
-114.78
0
LINE
8
BLACK
6
CONTINUOUS
10
223.926
20
-114.78
11
223.926
21
-114.778
0
LINE
8
BLACK
6
CONTINUOUS
10
223.926
20
-114.778
11
223.925
21
-114.776
0
LINE
8
BLACK
6
CONTINUOUS
10
223.925
20
-114.776
11
223.592
21
-113.776
0
LINE
8
BLACK
6
CONTINUOUS
10
223.592
20
-113.776
11
223.588
21
-113.75
0
LINE
8
BLACK
6
CONTINUOUS
10
223.588
20
-113.75
11
223.607
21
-113.703
0
LINE
8
BLACK
6
CONTINUOUS
10
223.607
20
-113.703
11
223.652
21
-113.678
0
LINE
8
BLACK
6
CONTINUOUS
10
223.652
20
-113.678
11
223.702
21
-113.688
0
LINE
8
BLACK
6
CONTINUOUS
10
162.742
20
-113.688
11
162.774
21
-113.729
0
LINE
8
BLACK
6
CONTINUOUS
10
162.774
20
-113.729
11
163.036
21
-114.515
0
LINE
8
BLACK
6
CONTINUOUS
10
163.036
20
-114.515
11
163.298
21
-113.729
0
LINE
8
BLACK
6
CONTINUOUS
10
163.298
20
-113.729
11
163.311
21
-113.706
0
LINE
8
BLACK
6
CONTINUOUS
10
163.311
20
-113.706
11
163.354
21
-113.679
0
LINE
8
BLACK
6
CONTINUOUS
10
163.354
20
-113.679
11
163.405
21
-113.686
0
LINE
8
BLACK
6
CONTINUOUS
10
163.405
20
-113.686
11
163.439
21
-113.725
0
LINE
8
BLACK
6
CONTINUOUS
10
163.439
20
-113.725
11
163.441
21
-113.776
0
LINE
8
BLACK
6
CONTINUOUS
10
163.441
20
-113.776
11
163.107
21
-114.776
0
LINE
8
BLACK
6
CONTINUOUS
10
163.107
20
-114.776
11
163.095
21
-114.799
0
LINE
8
BLACK
6
CONTINUOUS
10
163.095
20
-114.799
11
163.093
21
-114.8
0
LINE
8
BLACK
6
CONTINUOUS
10
163.093
20
-114.8
11
163.092
21
-114.802
0
LINE
8
BLACK
6
CONTINUOUS
10
163.092
20
-114.802
11
163.071
21
-114.813
0
LINE
8
BLACK
6
CONTINUOUS
10
163.071
20
-114.813
11
163.051
21
-114.826
0
LINE
8
BLACK
6
CONTINUOUS
10
163.051
20
-114.826
11
163.049
21
-114.826
0
LINE
8
BLACK
6
CONTINUOUS
10
163.049
20
-114.826
11
163.047
21
-114.827
0
LINE
8
BLACK
6
CONTINUOUS
10
163.047
20
-114.827
11
163.024
21
-114.822
0
LINE
8
BLACK
6
CONTINUOUS
10
163.024
20
-114.822
11
163
21
-114.818
0
LINE
8
BLACK
6
CONTINUOUS
10
163
20
-114.818
11
162.999
21
-114.817
0
LINE
8
BLACK
6
CONTINUOUS
10
162.999
20
-114.817
11
162.997
21
-114.816
0
LINE
8
BLACK
6
CONTINUOUS
10
162.997
20
-114.816
11
162.982
21
-114.798
0
LINE
8
BLACK
6
CONTINUOUS
10
162.982
20
-114.798
11
162.966
21
-114.78
0
LINE
8
BLACK
6
CONTINUOUS
10
162.966
20
-114.78
11
162.966
21
-114.778
0
LINE
8
BLACK
6
CONTINUOUS
10
162.966
20
-114.778
11
162.965
21
-114.776
0
LINE
8
BLACK
6
CONTINUOUS
10
162.965
20
-114.776
11
162.632
21
-113.776
0
LINE
8
BLACK
6
CONTINUOUS
10
162.632
20
-113.776
11
162.628
21
-113.75
0
LINE
8
BLACK
6
CONTINUOUS
10
162.628
20
-113.75
11
162.647
21
-113.703
0
LINE
8
BLACK
6
CONTINUOUS
10
162.647
20
-113.703
11
162.692
21
-113.678
0
LINE
8
BLACK
6
CONTINUOUS
10
162.692
20
-113.678
11
162.742
21
-113.688
0
LINE
8
BLACK
6
CONTINUOUS
10
223.878
20
-77.6455
11
224.232
21
-77.6981
0
LINE
8
BLACK
6
CONTINUOUS
10
224.232
20
-77.6981
11
224.58
21
-77.7852
0
LINE
8
BLACK
6
CONTINUOUS
10
224.58
20
-77.7852
11
224.918
21
-77.9059
0
LINE
8
BLACK
6
CONTINUOUS
10
224.918
20
-77.9059
11
225.242
21
-78.0591
0
LINE
8
BLACK
6
CONTINUOUS
10
225.242
20
-78.0591
11
225.549
21
-78.2434
0
LINE
8
BLACK
6
CONTINUOUS
10
225.549
20
-78.2434
11
225.837
21
-78.4569
0
LINE
8
BLACK
6
CONTINUOUS
10
225.837
20
-78.4569
11
226.102
21
-78.697
0
LINE
8
BLACK
6
CONTINUOUS
10
226.102
20
-78.697
11
226.102
21
-78.697
0
LINE
8
BLACK
6
CONTINUOUS
10
226.102
20
-78.697
11
233.491
21
-85.8854
0
LINE
8
BLACK
6
CONTINUOUS
10
233.491
20
-85.8854
11
233.492
21
-85.8867
0
LINE
8
BLACK
6
CONTINUOUS
10
233.492
20
-85.8867
11
233.493
21
-85.8873
0
LINE
8
BLACK
6
CONTINUOUS
10
233.493
20
-85.8873
11
233.493
21
-85.8873
0
LINE
8
BLACK
6
CONTINUOUS
10
233.493
20
-85.8873
11
233.951
21
-86.4001
0
LINE
8
BLACK
6
CONTINUOUS
10
233.951
20
-86.4001
11
234.383
21
-86.9353
0
LINE
8
BLACK
6
CONTINUOUS
10
234.383
20
-86.9353
11
234.786
21
-87.4915
0
LINE
8
BLACK
6
CONTINUOUS
10
234.786
20
-87.4915
11
235.162
21
-88.0672
0
LINE
8
BLACK
6
CONTINUOUS
10
235.162
20
-88.0672
11
235.508
21
-88.6611
0
LINE
8
BLACK
6
CONTINUOUS
10
235.508
20
-88.6611
11
235.824
21
-89.2716
0
LINE
8
BLACK
6
CONTINUOUS
10
235.824
20
-89.2716
11
236.109
21
-89.8973
0
LINE
8
BLACK
6
CONTINUOUS
10
236.109
20
-89.8973
11
236.362
21
-90.5364
0
LINE
8
BLACK
6
CONTINUOUS
10
236.362
20
-90.5364
11
236.582
21
-91.1874
0
LINE
8
BLACK
6
CONTINUOUS
10
236.582
20
-91.1874
11
236.77
21
-91.8487
0
LINE
8
BLACK
6
CONTINUOUS
10
236.77
20
-91.8487
11
236.924
21
-92.5186
0
LINE
8
BLACK
6
CONTINUOUS
10
236.924
20
-92.5186
11
237.044
21
-93.1954
0
LINE
8
BLACK
6
CONTINUOUS
10
237.044
20
-93.1954
11
237.13
21
-93.8774
0
LINE
8
BLACK
6
CONTINUOUS
10
237.13
20
-93.8774
11
237.182
21
-94.5628
0
LINE
8
BLACK
6
CONTINUOUS
10
237.182
20
-94.5628
11
237.199
21
-95.25
0
LINE
8
BLACK
6
CONTINUOUS
10
237.199
20
-95.25
11
237.182
21
-95.9366
0
LINE
8
BLACK
6
CONTINUOUS
10
237.182
20
-95.9366
11
237.131
21
-96.6214
0
LINE
8
BLACK
6
CONTINUOUS
10
237.131
20
-96.6214
11
237.045
21
-97.3028
0
LINE
8
BLACK
6
CONTINUOUS
10
237.045
20
-97.3028
11
236.925
21
-97.979
0
LINE
8
BLACK
6
CONTINUOUS
10
236.925
20
-97.979
11
236.771
21
-98.6483
0
LINE
8
BLACK
6
CONTINUOUS
10
236.771
20
-98.6483
11
236.583
21
-99.309
0
LINE
8
BLACK
6
CONTINUOUS
10
236.583
20
-99.309
11
236.363
21
-99.9596
0
LINE
8
BLACK
6
CONTINUOUS
10
236.363
20
-99.9596
11
236.111
21
-100.598
0
LINE
8
BLACK
6
CONTINUOUS
10
236.111
20
-100.598
11
235.826
21
-101.223
0
LINE
8
BLACK
6
CONTINUOUS
10
235.826
20
-101.223
11
235.511
21
-101.834
0
LINE
8
BLACK
6
CONTINUOUS
10
235.511
20
-101.834
11
235.166
21
-102.427
0
LINE
8
BLACK
6
CONTINUOUS
10
235.166
20
-102.427
11
234.791
21
-103.002
0
LINE
8
BLACK
6
CONTINUOUS
10
234.791
20
-103.002
11
234.387
21
-103.558
0
LINE
8
BLACK
6
CONTINUOUS
10
234.387
20
-103.558
11
233.957
21
-104.093
0
LINE
8
BLACK
6
CONTINUOUS
10
233.957
20
-104.093
11
233.5
21
-104.606
0
LINE
8
BLACK
6
CONTINUOUS
10
233.5
20
-104.606
11
233.498
21
-104.607
0
LINE
8
BLACK
6
CONTINUOUS
10
233.498
20
-104.607
11
233.498
21
-104.608
0
LINE
8
BLACK
6
CONTINUOUS
10
233.498
20
-104.608
11
226.102
21
-111.803
0
LINE
8
BLACK
6
CONTINUOUS
10
226.102
20
-111.803
11
226.102
21
-111.803
0
LINE
8
BLACK
6
CONTINUOUS
10
226.102
20
-111.803
11
225.837
21
-112.043
0
LINE
8
BLACK
6
CONTINUOUS
10
225.837
20
-112.043
11
225.549
21
-112.257
0
LINE
8
BLACK
6
CONTINUOUS
10
225.549
20
-112.257
11
225.242
21
-112.441
0
LINE
8
BLACK
6
CONTINUOUS
10
225.242
20
-112.441
11
224.918
21
-112.594
0
LINE
8
BLACK
6
CONTINUOUS
10
224.918
20
-112.594
11
224.58
21
-112.715
0
LINE
8
BLACK
6
CONTINUOUS
10
224.58
20
-112.715
11
224.232
21
-112.802
0
LINE
8
BLACK
6
CONTINUOUS
10
224.232
20
-112.802
11
223.878
21
-112.855
0
LINE
8
BLACK
6
CONTINUOUS
10
223.878
20
-112.855
11
223.52
21
-112.872
0
LINE
8
BLACK
6
CONTINUOUS
10
223.52
20
-112.872
11
223.162
21
-112.855
0
LINE
8
BLACK
6
CONTINUOUS
10
223.162
20
-112.855
11
222.808
21
-112.802
0
LINE
8
BLACK
6
CONTINUOUS
10
222.808
20
-112.802
11
222.46
21
-112.715
0
LINE
8
BLACK
6
CONTINUOUS
10
222.46
20
-112.715
11
222.122
21
-112.594
0
LINE
8
BLACK
6
CONTINUOUS
10
222.122
20
-112.594
11
221.798
21
-112.441
0
LINE
8
BLACK
6
CONTINUOUS
10
221.798
20
-112.441
11
221.491
21
-112.257
0
LINE
8
BLACK
6
CONTINUOUS
10
221.491
20
-112.257
11
221.203
21
-112.043
0
LINE
8
BLACK
6
CONTINUOUS
10
221.203
20
-112.043
11
220.938
21
-111.803
0
LINE
8
BLACK
6
CONTINUOUS
10
220.938
20
-111.803
11
220.938
21
-111.803
0
LINE
8
BLACK
6
CONTINUOUS
10
220.938
20
-111.803
11
213.549
21
-104.615
0
LINE
8
BLACK
6
CONTINUOUS
10
213.549
20
-104.615
11
213.548
21
-104.613
0
LINE
8
BLACK
6
CONTINUOUS
10
213.548
20
-104.613
11
213.547
21
-104.613
0
LINE
8
BLACK
6
CONTINUOUS
10
213.547
20
-104.613
11
213.547
21
-104.613
0
LINE
8
BLACK
6
CONTINUOUS
10
213.547
20
-104.613
11
213.074
21
-104.083
0
LINE
8
BLACK
6
CONTINUOUS
10
213.074
20
-104.083
11
212.63
21
-103.529
0
LINE
8
BLACK
6
CONTINUOUS
10
212.63
20
-103.529
11
212.216
21
-102.953
0
LINE
8
BLACK
6
CONTINUOUS
10
212.216
20
-102.953
11
211.831
21
-102.357
0
LINE
8
BLACK
6
CONTINUOUS
10
211.831
20
-102.357
11
211.478
21
-101.741
0
LINE
8
BLACK
6
CONTINUOUS
10
211.478
20
-101.741
11
211.158
21
-101.108
0
LINE
8
BLACK
6
CONTINUOUS
10
211.158
20
-101.108
11
210.871
21
-100.458
0
LINE
8
BLACK
6
CONTINUOUS
10
210.871
20
-100.458
11
210.618
21
-99.7954
0
LINE
8
BLACK
6
CONTINUOUS
10
210.618
20
-99.7954
11
210.399
21
-99.1201
0
LINE
8
BLACK
6
CONTINUOUS
10
210.399
20
-99.1201
11
210.216
21
-98.4344
0
LINE
8
BLACK
6
CONTINUOUS
10
210.216
20
-98.4344
11
210.069
21
-97.7402
0
LINE
8
BLACK
6
CONTINUOUS
10
210.069
20
-97.7402
11
209.958
21
-97.0392
0
LINE
8
BLACK
6
CONTINUOUS
10
209.958
20
-97.0392
11
209.883
21
-96.3334
0
LINE
8
BLACK
6
CONTINUOUS
10
209.883
20
-96.3334
11
209.846
21
-95.6247
0
LINE
8
BLACK
6
CONTINUOUS
10
209.846
20
-95.6247
11
209.845
21
-94.9149
0
LINE
8
BLACK
6
CONTINUOUS
10
209.845
20
-94.9149
11
209.88
21
-94.2061
0
LINE
8
BLACK
6
CONTINUOUS
10
209.88
20
-94.2061
11
209.953
21
-93.5001
0
LINE
8
BLACK
6
CONTINUOUS
10
209.953
20
-93.5001
11
210.062
21
-92.7988
0
LINE
8
BLACK
6
CONTINUOUS
10
210.062
20
-92.7988
11
210.207
21
-92.1041
0
LINE
8
BLACK
6
CONTINUOUS
10
210.207
20
-92.1041
11
210.388
21
-91.4179
0
LINE
8
BLACK
6
CONTINUOUS
10
210.388
20
-91.4179
11
210.605
21
-90.742
0
LINE
8
BLACK
6
CONTINUOUS
10
210.605
20
-90.742
11
210.856
21
-90.0782
0
LINE
8
BLACK
6
CONTINUOUS
10
210.856
20
-90.0782
11
211.141
21
-89.4283
0
LINE
8
BLACK
6
CONTINUOUS
10
211.141
20
-89.4283
11
211.46
21
-88.7941
0
LINE
8
BLACK
6
CONTINUOUS
10
211.46
20
-88.7941
11
211.811
21
-88.1773
0
LINE
8
BLACK
6
CONTINUOUS
10
211.811
20
-88.1773
11
212.193
21
-87.5795
0
LINE
8
BLACK
6
CONTINUOUS
10
212.193
20
-87.5795
11
212.606
21
-87.0024
0
LINE
8
BLACK
6
CONTINUOUS
10
212.606
20
-87.0024
11
213.049
21
-86.4475
0
LINE
8
BLACK
6
CONTINUOUS
10
213.049
20
-86.4475
11
213.52
21
-85.9162
0
LINE
8
BLACK
6
CONTINUOUS
10
213.52
20
-85.9162
11
213.521
21
-85.9156
0
LINE
8
BLACK
6
CONTINUOUS
10
213.521
20
-85.9156
11
213.522
21
-85.9142
0
LINE
8
BLACK
6
CONTINUOUS
10
213.522
20
-85.9142
11
220.938
21
-78.697
0
LINE
8
BLACK
6
CONTINUOUS
10
220.938
20
-78.697
11
220.938
21
-78.697
0
LINE
8
BLACK
6
CONTINUOUS
10
220.938
20
-78.697
11
221.203
21
-78.4569
0
LINE
8
BLACK
6
CONTINUOUS
10
221.203
20
-78.4569
11
221.491
21
-78.2434
0
LINE
8
BLACK
6
CONTINUOUS
10
221.491
20
-78.2434
11
221.798
21
-78.0591
0
LINE
8
BLACK
6
CONTINUOUS
10
221.798
20
-78.0591
11
222.122
21
-77.9059
0
LINE
8
BLACK
6
CONTINUOUS
10
222.122
20
-77.9059
11
222.46
21
-77.7852
0
LINE
8
BLACK
6
CONTINUOUS
10
222.46
20
-77.7852
11
222.808
21
-77.6981
0
LINE
8
BLACK
6
CONTINUOUS
10
222.808
20
-77.6981
11
223.162
21
-77.6455
0
LINE
8
BLACK
6
CONTINUOUS
10
223.162
20
-77.6455
11
223.52
21
-77.6279
0
LINE
8
BLACK
6
CONTINUOUS
10
223.52
20
-77.6279
11
223.878
21
-77.6455
0
LINE
8
BLACK
6
CONTINUOUS
10
223.173
20
-77.7607
11
222.83
21
-77.8116
0
LINE
8
BLACK
6
CONTINUOUS
10
222.83
20
-77.8116
11
222.493
21
-77.8959
0
LINE
8
BLACK
6
CONTINUOUS
10
222.493
20
-77.8959
11
222.167
21
-78.0128
0
LINE
8
BLACK
6
CONTINUOUS
10
222.167
20
-78.0128
11
221.853
21
-78.1612
0
LINE
8
BLACK
6
CONTINUOUS
10
221.853
20
-78.1612
11
221.555
21
-78.3396
0
LINE
8
BLACK
6
CONTINUOUS
10
221.555
20
-78.3396
11
221.277
21
-78.5464
0
LINE
8
BLACK
6
CONTINUOUS
10
221.277
20
-78.5464
11
221.026
21
-78.7732
0
LINE
8
BLACK
6
CONTINUOUS
10
221.026
20
-78.7732
11
221.022
21
-78.7824
0
LINE
8
BLACK
6
CONTINUOUS
10
221.022
20
-78.7824
11
221.022
21
-78.7826
0
LINE
8
BLACK
6
CONTINUOUS
10
221.022
20
-78.7826
11
221.022
21
-78.783
0
LINE
8
BLACK
6
CONTINUOUS
10
221.022
20
-78.783
11
213.605
21
-86.0002
0
LINE
8
BLACK
6
CONTINUOUS
10
213.605
20
-86.0002
11
213.596
21
-86.0038
0
LINE
8
BLACK
6
CONTINUOUS
10
213.596
20
-86.0038
11
213.137
21
-86.5217
0
LINE
8
BLACK
6
CONTINUOUS
10
213.137
20
-86.5217
11
212.699
21
-87.072
0
LINE
8
BLACK
6
CONTINUOUS
10
212.699
20
-87.072
11
212.289
21
-87.6443
0
LINE
8
BLACK
6
CONTINUOUS
10
212.289
20
-87.6443
11
211.91
21
-88.237
0
LINE
8
BLACK
6
CONTINUOUS
10
211.91
20
-88.237
11
211.562
21
-88.8486
0
LINE
8
BLACK
6
CONTINUOUS
10
211.562
20
-88.8486
11
211.246
21
-89.4774
0
LINE
8
BLACK
6
CONTINUOUS
10
211.246
20
-89.4774
11
210.963
21
-90.1218
0
LINE
8
BLACK
6
CONTINUOUS
10
210.963
20
-90.1218
11
210.714
21
-90.78
0
LINE
8
BLACK
6
CONTINUOUS
10
210.714
20
-90.78
11
210.499
21
-91.4502
0
LINE
8
BLACK
6
CONTINUOUS
10
210.499
20
-91.4502
11
210.319
21
-92.1307
0
LINE
8
BLACK
6
CONTINUOUS
10
210.319
20
-92.1307
11
210.175
21
-92.8195
0
LINE
8
BLACK
6
CONTINUOUS
10
210.175
20
-92.8195
11
210.067
21
-93.5149
0
LINE
8
BLACK
6
CONTINUOUS
10
210.067
20
-93.5149
11
209.995
21
-94.2149
0
LINE
8
BLACK
6
CONTINUOUS
10
209.995
20
-94.2149
11
209.96
21
-94.9178
0
LINE
8
BLACK
6
CONTINUOUS
10
209.96
20
-94.9178
11
209.961
21
-95.6215
0
LINE
8
BLACK
6
CONTINUOUS
10
209.961
20
-95.6215
11
209.999
21
-96.3242
0
LINE
8
BLACK
6
CONTINUOUS
10
209.999
20
-96.3242
11
210.072
21
-97.0241
0
LINE
8
BLACK
6
CONTINUOUS
10
210.072
20
-97.0241
11
210.183
21
-97.7191
0
LINE
8
BLACK
6
CONTINUOUS
10
210.183
20
-97.7191
11
210.329
21
-98.4076
0
LINE
8
BLACK
6
CONTINUOUS
10
210.329
20
-98.4076
11
210.51
21
-99.0875
0
LINE
8
BLACK
6
CONTINUOUS
10
210.51
20
-99.0875
11
210.727
21
-99.7571
0
LINE
8
BLACK
6
CONTINUOUS
10
210.727
20
-99.7571
11
210.978
21
-100.415
0
LINE
8
BLACK
6
CONTINUOUS
10
210.978
20
-100.415
11
211.262
21
-101.058
0
LINE
8
BLACK
6
CONTINUOUS
10
211.262
20
-101.058
11
211.58
21
-101.686
0
LINE
8
BLACK
6
CONTINUOUS
10
211.58
20
-101.686
11
211.93
21
-102.297
0
LINE
8
BLACK
6
CONTINUOUS
10
211.93
20
-102.297
11
212.311
21
-102.888
0
LINE
8
BLACK
6
CONTINUOUS
10
212.311
20
-102.888
11
212.722
21
-103.459
0
LINE
8
BLACK
6
CONTINUOUS
10
212.722
20
-103.459
11
213.163
21
-104.008
0
LINE
8
BLACK
6
CONTINUOUS
10
213.163
20
-104.008
11
213.623
21
-104.525
0
LINE
8
BLACK
6
CONTINUOUS
10
213.623
20
-104.525
11
213.632
21
-104.529
0
LINE
8
BLACK
6
CONTINUOUS
10
213.632
20
-104.529
11
221.022
21
-111.717
0
LINE
8
BLACK
6
CONTINUOUS
10
221.022
20
-111.717
11
221.022
21
-111.717
0
LINE
8
BLACK
6
CONTINUOUS
10
221.022
20
-111.717
11
221.022
21
-111.718
0
LINE
8
BLACK
6
CONTINUOUS
10
221.022
20
-111.718
11
221.026
21
-111.727
0
LINE
8
BLACK
6
CONTINUOUS
10
221.026
20
-111.727
11
221.277
21
-111.954
0
LINE
8
BLACK
6
CONTINUOUS
10
221.277
20
-111.954
11
221.555
21
-112.16
0
LINE
8
BLACK
6
CONTINUOUS
10
221.555
20
-112.16
11
221.853
21
-112.339
0
LINE
8
BLACK
6
CONTINUOUS
10
221.853
20
-112.339
11
222.167
21
-112.487
0
LINE
8
BLACK
6
CONTINUOUS
10
222.167
20
-112.487
11
222.493
21
-112.604
0
LINE
8
BLACK
6
CONTINUOUS
10
222.493
20
-112.604
11
222.83
21
-112.688
0
LINE
8
BLACK
6
CONTINUOUS
10
222.83
20
-112.688
11
223.173
21
-112.739
0
LINE
8
BLACK
6
CONTINUOUS
10
223.173
20
-112.739
11
223.52
21
-112.756
0
LINE
8
BLACK
6
CONTINUOUS
10
223.52
20
-112.756
11
223.867
21
-112.739
0
LINE
8
BLACK
6
CONTINUOUS
10
223.867
20
-112.739
11
224.21
21
-112.688
0
LINE
8
BLACK
6
CONTINUOUS
10
224.21
20
-112.688
11
224.547
21
-112.604
0
LINE
8
BLACK
6
CONTINUOUS
10
224.547
20
-112.604
11
224.873
21
-112.487
0
LINE
8
BLACK
6
CONTINUOUS
10
224.873
20
-112.487
11
225.187
21
-112.339
0
LINE
8
BLACK
6
CONTINUOUS
10
225.187
20
-112.339
11
225.485
21
-112.16
0
LINE
8
BLACK
6
CONTINUOUS
10
225.485
20
-112.16
11
225.763
21
-111.954
0
LINE
8
BLACK
6
CONTINUOUS
10
225.763
20
-111.954
11
226.014
21
-111.727
0
LINE
8
BLACK
6
CONTINUOUS
10
226.014
20
-111.727
11
226.018
21
-111.718
0
LINE
8
BLACK
6
CONTINUOUS
10
226.018
20
-111.718
11
226.018
21
-111.717
0
LINE
8
BLACK
6
CONTINUOUS
10
226.018
20
-111.717
11
226.018
21
-111.717
0
LINE
8
BLACK
6
CONTINUOUS
10
226.018
20
-111.717
11
233.414
21
-104.522
0
LINE
8
BLACK
6
CONTINUOUS
10
233.414
20
-104.522
11
233.423
21
-104.518
0
LINE
8
BLACK
6
CONTINUOUS
10
233.423
20
-104.518
11
233.868
21
-104.018
0
LINE
8
BLACK
6
CONTINUOUS
10
233.868
20
-104.018
11
234.295
21
-103.488
0
LINE
8
BLACK
6
CONTINUOUS
10
234.295
20
-103.488
11
234.695
21
-102.937
0
LINE
8
BLACK
6
CONTINUOUS
10
234.695
20
-102.937
11
235.067
21
-102.366
0
LINE
8
BLACK
6
CONTINUOUS
10
235.067
20
-102.366
11
235.41
21
-101.778
0
LINE
8
BLACK
6
CONTINUOUS
10
235.41
20
-101.778
11
235.722
21
-101.173
0
LINE
8
BLACK
6
CONTINUOUS
10
235.722
20
-101.173
11
236.004
21
-100.553
0
LINE
8
BLACK
6
CONTINUOUS
10
236.004
20
-100.553
11
236.255
21
-99.9197
0
LINE
8
BLACK
6
CONTINUOUS
10
236.255
20
-99.9197
11
236.473
21
-99.2747
0
LINE
8
BLACK
6
CONTINUOUS
10
236.473
20
-99.2747
11
236.659
21
-98.6195
0
LINE
8
BLACK
6
CONTINUOUS
10
236.659
20
-98.6195
11
236.811
21
-97.9559
0
LINE
8
BLACK
6
CONTINUOUS
10
236.811
20
-97.9559
11
236.93
21
-97.2854
0
LINE
8
BLACK
6
CONTINUOUS
10
236.93
20
-97.2854
11
237.015
21
-96.6098
0
LINE
8
BLACK
6
CONTINUOUS
10
237.015
20
-96.6098
11
237.067
21
-95.9308
0
LINE
8
BLACK
6
CONTINUOUS
10
237.067
20
-95.9308
11
237.084
21
-95.2598
0
LINE
8
BLACK
6
CONTINUOUS
10
237.084
20
-95.2598
11
237.079
21
-95.25
0
LINE
8
BLACK
6
CONTINUOUS
10
237.079
20
-95.25
11
237.084
21
-95.2402
0
LINE
8
BLACK
6
CONTINUOUS
10
237.084
20
-95.2402
11
237.067
21
-94.5686
0
LINE
8
BLACK
6
CONTINUOUS
10
237.067
20
-94.5686
11
237.015
21
-93.889
0
LINE
8
BLACK
6
CONTINUOUS
10
237.015
20
-93.889
11
236.93
21
-93.2128
0
LINE
8
BLACK
6
CONTINUOUS
10
236.93
20
-93.2128
11
236.811
21
-92.5417
0
LINE
8
BLACK
6
CONTINUOUS
10
236.811
20
-92.5417
11
236.658
21
-91.8775
0
LINE
8
BLACK
6
CONTINUOUS
10
236.658
20
-91.8775
11
236.472
21
-91.2218
0
LINE
8
BLACK
6
CONTINUOUS
10
236.472
20
-91.2218
11
236.253
21
-90.5763
0
LINE
8
BLACK
6
CONTINUOUS
10
236.253
20
-90.5763
11
236.002
21
-89.9425
0
LINE
8
BLACK
6
CONTINUOUS
10
236.002
20
-89.9425
11
235.72
21
-89.3222
0
LINE
8
BLACK
6
CONTINUOUS
10
235.72
20
-89.3222
11
235.407
21
-88.7168
0
LINE
8
BLACK
6
CONTINUOUS
10
235.407
20
-88.7168
11
235.064
21
-88.128
0
LINE
8
BLACK
6
CONTINUOUS
10
235.064
20
-88.128
11
234.691
21
-87.5571
0
LINE
8
BLACK
6
CONTINUOUS
10
234.691
20
-87.5571
11
234.291
21
-87.0056
0
LINE
8
BLACK
6
CONTINUOUS
10
234.291
20
-87.0056
11
233.863
21
-86.475
0
LINE
8
BLACK
6
CONTINUOUS
10
233.863
20
-86.475
11
233.416
21
-85.9748
0
LINE
8
BLACK
6
CONTINUOUS
10
233.416
20
-85.9748
11
233.408
21
-85.9714
0
LINE
8
BLACK
6
CONTINUOUS
10
233.408
20
-85.9714
11
226.018
21
-78.783
0
LINE
8
BLACK
6
CONTINUOUS
10
226.018
20
-78.783
11
226.018
21
-78.7826
0
LINE
8
BLACK
6
CONTINUOUS
10
226.018
20
-78.7826
11
226.018
21
-78.7824
0
LINE
8
BLACK
6
CONTINUOUS
10
226.018
20
-78.7824
11
226.014
21
-78.7732
0
LINE
8
BLACK
6
CONTINUOUS
10
226.014
20
-78.7732
11
225.763
21
-78.5464
0
LINE
8
BLACK
6
CONTINUOUS
10
225.763
20
-78.5464
11
225.485
21
-78.3396
0
LINE
8
BLACK
6
CONTINUOUS
10
225.485
20
-78.3396
11
225.187
21
-78.1612
0
LINE
8
BLACK
6
CONTINUOUS
10
225.187
20
-78.1612
11
224.873
21
-78.0128
0
LINE
8
BLACK
6
CONTINUOUS
10
224.873
20
-78.0128
11
224.547
21
-77.8959
0
LINE
8
BLACK
6
CONTINUOUS
10
224.547
20
-77.8959
11
224.21
21
-77.8116
0
LINE
8
BLACK
6
CONTINUOUS
10
224.21
20
-77.8116
11
223.867
21
-77.7607
0
LINE
8
BLACK
6
CONTINUOUS
10
223.867
20
-77.7607
11
223.52
21
-77.7436
0
LINE
8
BLACK
6
CONTINUOUS
10
223.52
20
-77.7436
11
223.173
21
-77.7607
0
LINE
8
BLACK
6
CONTINUOUS
10
210.871
20
-94.3655
11
210.94
21
-93.6608
0
LINE
8
BLACK
6
CONTINUOUS
10
210.94
20
-93.6608
11
211.048
21
-92.961
0
LINE
8
BLACK
6
CONTINUOUS
10
211.048
20
-92.961
11
211.196
21
-92.2684
0
LINE
8
BLACK
6
CONTINUOUS
10
211.196
20
-92.2684
11
211.381
21
-91.5851
0
LINE
8
BLACK
6
CONTINUOUS
10
211.381
20
-91.5851
11
211.605
21
-90.9132
0
LINE
8
BLACK
6
CONTINUOUS
10
211.605
20
-90.9132
11
211.865
21
-90.2548
0
LINE
8
BLACK
6
CONTINUOUS
10
211.865
20
-90.2548
11
212.162
21
-89.612
0
LINE
8
BLACK
6
CONTINUOUS
10
212.162
20
-89.612
11
212.495
21
-88.9868
0
LINE
8
BLACK
6
CONTINUOUS
10
212.495
20
-88.9868
11
212.862
21
-88.3811
0
LINE
8
BLACK
6
CONTINUOUS
10
212.862
20
-88.3811
11
213.262
21
-87.7969
0
LINE
8
BLACK
6
CONTINUOUS
10
213.262
20
-87.7969
11
213.694
21
-87.2359
0
LINE
8
BLACK
6
CONTINUOUS
10
213.694
20
-87.2359
11
214.156
21
-86.6998
0
LINE
8
BLACK
6
CONTINUOUS
10
214.156
20
-86.6998
11
214.648
21
-86.1905
0
LINE
8
BLACK
6
CONTINUOUS
10
214.648
20
-86.1905
11
215.168
21
-85.7094
0
LINE
8
BLACK
6
CONTINUOUS
10
215.168
20
-85.7094
11
215.713
21
-85.258
0
LINE
8
BLACK
6
CONTINUOUS
10
215.713
20
-85.258
11
216.283
21
-84.8378
0
LINE
8
BLACK
6
CONTINUOUS
10
216.283
20
-84.8378
11
216.876
21
-84.4501
0
LINE
8
BLACK
6
CONTINUOUS
10
216.876
20
-84.4501
11
217.489
21
-84.0961
0
LINE
8
BLACK
6
CONTINUOUS
10
217.489
20
-84.0961
11
218.121
21
-83.7768
0
LINE
8
BLACK
6
CONTINUOUS
10
218.121
20
-83.7768
11
218.77
21
-83.4933
0
LINE
8
BLACK
6
CONTINUOUS
10
218.77
20
-83.4933
11
219.434
21
-83.2465
0
LINE
8
BLACK
6
CONTINUOUS
10
219.434
20
-83.2465
11
220.11
21
-83.0371
0
LINE
8
BLACK
6
CONTINUOUS
10
220.11
20
-83.0371
11
220.797
21
-82.8658
0
LINE
8
BLACK
6
CONTINUOUS
10
220.797
20
-82.8658
11
221.493
21
-82.7331
0
LINE
8
BLACK
6
CONTINUOUS
10
221.493
20
-82.7331
11
222.195
21
-82.6395
0
LINE
8
BLACK
6
CONTINUOUS
10
222.195
20
-82.6395
11
222.901
21
-82.5851
0
LINE
8
BLACK
6
CONTINUOUS
10
222.901
20
-82.5851
11
223.609
21
-82.5703
0
LINE
8
BLACK
6
CONTINUOUS
10
223.609
20
-82.5703
11
224.316
21
-82.595
0
LINE
8
BLACK
6
CONTINUOUS
10
224.316
20
-82.595
11
225.021
21
-82.6592
0
LINE
8
BLACK
6
CONTINUOUS
10
225.021
20
-82.6592
11
225.722
21
-82.7626
0
LINE
8
BLACK
6
CONTINUOUS
10
225.722
20
-82.7626
11
226.415
21
-82.905
0
LINE
8
BLACK
6
CONTINUOUS
10
226.415
20
-82.905
11
227.1
21
-83.0859
0
LINE
8
BLACK
6
CONTINUOUS
10
227.1
20
-83.0859
11
227.774
21
-83.3047
0
LINE
8
BLACK
6
CONTINUOUS
10
227.774
20
-83.3047
11
228.434
21
-83.5608
0
LINE
8
BLACK
6
CONTINUOUS
10
228.434
20
-83.5608
11
229.079
21
-83.8533
0
LINE
8
BLACK
6
CONTINUOUS
10
229.079
20
-83.8533
11
229.706
21
-84.1813
0
LINE
8
BLACK
6
CONTINUOUS
10
229.706
20
-84.1813
11
230.314
21
-84.5439
0
LINE
8
BLACK
6
CONTINUOUS
10
230.314
20
-84.5439
11
230.901
21
-84.9399
0
LINE
8
BLACK
6
CONTINUOUS
10
230.901
20
-84.9399
11
231.465
21
-85.368
0
LINE
8
BLACK
6
CONTINUOUS
10
231.465
20
-85.368
11
232.005
21
-85.8269
0
LINE
8
BLACK
6
CONTINUOUS
10
232.005
20
-85.8269
11
232.517
21
-86.3152
0
LINE
8
BLACK
6
CONTINUOUS
10
232.517
20
-86.3152
11
233.002
21
-86.8314
0
LINE
8
BLACK
6
CONTINUOUS
10
233.002
20
-86.8314
11
233.457
21
-87.3738
0
LINE
8
BLACK
6
CONTINUOUS
10
233.457
20
-87.3738
11
233.881
21
-87.9408
0
LINE
8
BLACK
6
CONTINUOUS
10
233.881
20
-87.9408
11
234.273
21
-88.5306
0
LINE
8
BLACK
6
CONTINUOUS
10
234.273
20
-88.5306
11
234.632
21
-89.1414
0
LINE
8
BLACK
6
CONTINUOUS
10
234.632
20
-89.1414
11
234.955
21
-89.7712
0
LINE
8
BLACK
6
CONTINUOUS
10
234.955
20
-89.7712
11
235.243
21
-90.418
0
LINE
8
BLACK
6
CONTINUOUS
10
235.243
20
-90.418
11
235.495
21
-91.08
0
LINE
8
BLACK
6
CONTINUOUS
10
235.495
20
-91.08
11
235.709
21
-91.7549
0
LINE
8
BLACK
6
CONTINUOUS
10
235.709
20
-91.7549
11
235.885
21
-92.4408
0
LINE
8
BLACK
6
CONTINUOUS
10
235.885
20
-92.4408
11
236.022
21
-93.1354
0
LINE
8
BLACK
6
CONTINUOUS
10
236.022
20
-93.1354
11
236.121
21
-93.8366
0
LINE
8
BLACK
6
CONTINUOUS
10
236.121
20
-93.8366
11
236.18
21
-94.5422
0
LINE
8
BLACK
6
CONTINUOUS
10
236.18
20
-94.5422
11
236.2
21
-95.25
0
LINE
8
BLACK
6
CONTINUOUS
10
236.2
20
-95.25
11
236.195
21
-95.604
0
LINE
8
BLACK
6
CONTINUOUS
10
236.195
20
-95.604
11
236.156
21
-96.311
0
LINE
8
BLACK
6
CONTINUOUS
10
236.156
20
-96.311
11
236.077
21
-97.0147
0
LINE
8
BLACK
6
CONTINUOUS
10
236.077
20
-97.0147
11
235.959
21
-97.7129
0
LINE
8
BLACK
6
CONTINUOUS
10
235.959
20
-97.7129
11
235.802
21
-98.4034
0
LINE
8
BLACK
6
CONTINUOUS
10
235.802
20
-98.4034
11
235.606
21
-99.084
0
LINE
8
BLACK
6
CONTINUOUS
10
235.606
20
-99.084
11
235.374
21
-99.7528
0
LINE
8
BLACK
6
CONTINUOUS
10
235.374
20
-99.7528
11
235.104
21
-100.407
0
LINE
8
BLACK
6
CONTINUOUS
10
235.104
20
-100.407
11
234.798
21
-101.046
0
LINE
8
BLACK
6
CONTINUOUS
10
234.798
20
-101.046
11
234.457
21
-101.667
0
LINE
8
BLACK
6
CONTINUOUS
10
234.457
20
-101.667
11
234.081
21
-102.267
0
LINE
8
BLACK
6
CONTINUOUS
10
234.081
20
-102.267
11
233.673
21
-102.846
0
LINE
8
BLACK
6
CONTINUOUS
10
233.673
20
-102.846
11
233.233
21
-103.401
0
LINE
8
BLACK
6
CONTINUOUS
10
233.233
20
-103.401
11
232.763
21
-103.93
0
LINE
8
BLACK
6
CONTINUOUS
10
232.763
20
-103.93
11
232.264
21
-104.432
0
LINE
8
BLACK
6
CONTINUOUS
10
232.264
20
-104.432
11
231.738
21
-104.906
0
LINE
8
BLACK
6
CONTINUOUS
10
231.738
20
-104.906
11
231.186
21
-105.35
0
LINE
8
BLACK
6
CONTINUOUS
10
231.186
20
-105.35
11
230.611
21
-105.762
0
LINE
8
BLACK
6
CONTINUOUS
10
230.611
20
-105.762
11
230.013
21
-106.142
0
LINE
8
BLACK
6
CONTINUOUS
10
230.013
20
-106.142
11
229.395
21
-106.487
0
LINE
8
BLACK
6
CONTINUOUS
10
229.395
20
-106.487
11
228.758
21
-106.797
0
LINE
8
BLACK
6
CONTINUOUS
10
228.758
20
-106.797
11
228.105
21
-107.072
0
LINE
8
BLACK
6
CONTINUOUS
10
228.105
20
-107.072
11
227.438
21
-107.309
0
LINE
8
BLACK
6
CONTINUOUS
10
227.438
20
-107.309
11
226.759
21
-107.509
0
LINE
8
BLACK
6
CONTINUOUS
10
226.759
20
-107.509
11
226.07
21
-107.671
0
LINE
8
BLACK
6
CONTINUOUS
10
226.07
20
-107.671
11
225.372
21
-107.794
0
LINE
8
BLACK
6
CONTINUOUS
10
225.372
20
-107.794
11
224.669
21
-107.878
0
LINE
8
BLACK
6
CONTINUOUS
10
224.669
20
-107.878
11
223.963
21
-107.922
0
LINE
8
BLACK
6
CONTINUOUS
10
223.963
20
-107.922
11
223.254
21
-107.927
0
LINE
8
BLACK
6
CONTINUOUS
10
223.254
20
-107.927
11
222.547
21
-107.893
0
LINE
8
BLACK
6
CONTINUOUS
10
222.547
20
-107.893
11
221.843
21
-107.819
0
LINE
8
BLACK
6
CONTINUOUS
10
221.843
20
-107.819
11
221.144
21
-107.705
0
LINE
8
BLACK
6
CONTINUOUS
10
221.144
20
-107.705
11
220.452
21
-107.553
0
LINE
8
BLACK
6
CONTINUOUS
10
220.452
20
-107.553
11
219.77
21
-107.363
0
LINE
8
BLACK
6
CONTINUOUS
10
219.77
20
-107.363
11
219.1
21
-107.135
0
LINE
8
BLACK
6
CONTINUOUS
10
219.1
20
-107.135
11
218.444
21
-106.869
0
LINE
8
BLACK
6
CONTINUOUS
10
218.444
20
-106.869
11
217.803
21
-106.568
0
LINE
8
BLACK
6
CONTINUOUS
10
217.803
20
-106.568
11
217.18
21
-106.231
0
LINE
8
BLACK
6
CONTINUOUS
10
217.18
20
-106.231
11
216.577
21
-105.86
0
LINE
8
BLACK
6
CONTINUOUS
10
216.577
20
-105.86
11
215.995
21
-105.456
0
LINE
8
BLACK
6
CONTINUOUS
10
215.995
20
-105.456
11
215.437
21
-105.02
0
LINE
8
BLACK
6
CONTINUOUS
10
215.437
20
-105.02
11
214.905
21
-104.554
0
LINE
8
BLACK
6
CONTINUOUS
10
214.905
20
-104.554
11
214.399
21
-104.058
0
LINE
8
BLACK
6
CONTINUOUS
10
214.399
20
-104.058
11
213.921
21
-103.535
0
LINE
8
BLACK
6
CONTINUOUS
10
213.921
20
-103.535
11
213.474
21
-102.987
0
LINE
8
BLACK
6
CONTINUOUS
10
213.474
20
-102.987
11
213.058
21
-102.414
0
LINE
8
BLACK
6
CONTINUOUS
10
213.058
20
-102.414
11
212.674
21
-101.819
0
LINE
8
BLACK
6
CONTINUOUS
10
212.674
20
-101.819
11
212.324
21
-101.203
0
LINE
8
BLACK
6
CONTINUOUS
10
212.324
20
-101.203
11
212.009
21
-100.569
0
LINE
8
BLACK
6
CONTINUOUS
10
212.009
20
-100.569
11
211.73
21
-99.9178
0
LINE
8
BLACK
6
CONTINUOUS
10
211.73
20
-99.9178
11
211.488
21
-99.2524
0
LINE
8
BLACK
6
CONTINUOUS
10
211.488
20
-99.2524
11
211.284
21
-98.5746
0
LINE
8
BLACK
6
CONTINUOUS
10
211.284
20
-98.5746
11
211.117
21
-97.8863
0
LINE
8
BLACK
6
CONTINUOUS
10
211.117
20
-97.8863
11
210.989
21
-97.1899
0
LINE
8
BLACK
6
CONTINUOUS
10
210.989
20
-97.1899
11
210.901
21
-96.4874
0
LINE
8
BLACK
6
CONTINUOUS
10
210.901
20
-96.4874
11
210.851
21
-95.781
0
LINE
8
BLACK
6
CONTINUOUS
10
210.851
20
-95.781
11
210.841
21
-95.0746
0
LINE
8
BLACK
6
CONTINUOUS
10
210.841
20
-95.0746
11
210.841
21
-95.073
0
LINE
8
BLACK
6
CONTINUOUS
10
210.841
20
-95.073
11
210.871
21
-94.3655
0
LINE
8
BLACK
6
CONTINUOUS
10
211.015
20
-96.4761
11
211.103
21
-97.1723
0
LINE
8
BLACK
6
CONTINUOUS
10
211.103
20
-97.1723
11
211.23
21
-97.8624
0
LINE
8
BLACK
6
CONTINUOUS
10
211.23
20
-97.8624
11
211.395
21
-98.5444
0
LINE
8
BLACK
6
CONTINUOUS
10
211.395
20
-98.5444
11
211.597
21
-99.2161
0
LINE
8
BLACK
6
CONTINUOUS
10
211.597
20
-99.2161
11
211.837
21
-99.8755
0
LINE
8
BLACK
6
CONTINUOUS
10
211.837
20
-99.8755
11
212.114
21
-100.52
0
LINE
8
BLACK
6
CONTINUOUS
10
212.114
20
-100.52
11
212.426
21
-101.149
0
LINE
8
BLACK
6
CONTINUOUS
10
212.426
20
-101.149
11
212.772
21
-101.759
0
LINE
8
BLACK
6
CONTINUOUS
10
212.772
20
-101.759
11
213.152
21
-102.349
0
LINE
8
BLACK
6
CONTINUOUS
10
213.152
20
-102.349
11
213.565
21
-102.916
0
LINE
8
BLACK
6
CONTINUOUS
10
213.565
20
-102.916
11
214.008
21
-103.46
0
LINE
8
BLACK
6
CONTINUOUS
10
214.008
20
-103.46
11
214.482
21
-103.978
0
LINE
8
BLACK
6
CONTINUOUS
10
214.482
20
-103.978
11
214.983
21
-104.469
0
LINE
8
BLACK
6
CONTINUOUS
10
214.983
20
-104.469
11
215.511
21
-104.931
0
LINE
8
BLACK
6
CONTINUOUS
10
215.511
20
-104.931
11
216.064
21
-105.363
0
LINE
8
BLACK
6
CONTINUOUS
10
216.064
20
-105.363
11
216.64
21
-105.764
0
LINE
8
BLACK
6
CONTINUOUS
10
216.64
20
-105.764
11
217.238
21
-106.132
0
LINE
8
BLACK
6
CONTINUOUS
10
217.238
20
-106.132
11
217.855
21
-106.465
0
LINE
8
BLACK
6
CONTINUOUS
10
217.855
20
-106.465
11
218.49
21
-106.764
0
LINE
8
BLACK
6
CONTINUOUS
10
218.49
20
-106.764
11
219.14
21
-107.027
0
LINE
8
BLACK
6
CONTINUOUS
10
219.14
20
-107.027
11
219.804
21
-107.253
0
LINE
8
BLACK
6
CONTINUOUS
10
219.804
20
-107.253
11
220.48
21
-107.442
0
LINE
8
BLACK
6
CONTINUOUS
10
220.48
20
-107.442
11
221.166
21
-107.592
0
LINE
8
BLACK
6
CONTINUOUS
10
221.166
20
-107.592
11
221.858
21
-107.705
0
LINE
8
BLACK
6
CONTINUOUS
10
221.858
20
-107.705
11
222.556
21
-107.778
0
LINE
8
BLACK
6
CONTINUOUS
10
222.556
20
-107.778
11
223.257
21
-107.812
0
LINE
8
BLACK
6
CONTINUOUS
10
223.257
20
-107.812
11
223.959
21
-107.807
0
LINE
8
BLACK
6
CONTINUOUS
10
223.959
20
-107.807
11
224.659
21
-107.763
0
LINE
8
BLACK
6
CONTINUOUS
10
224.659
20
-107.763
11
225.356
21
-107.68
0
LINE
8
BLACK
6
CONTINUOUS
10
225.356
20
-107.68
11
226.047
21
-107.558
0
LINE
8
BLACK
6
CONTINUOUS
10
226.047
20
-107.558
11
226.73
21
-107.398
0
LINE
8
BLACK
6
CONTINUOUS
10
226.73
20
-107.398
11
227.403
21
-107.2
0
LINE
8
BLACK
6
CONTINUOUS
10
227.403
20
-107.2
11
228.064
21
-106.965
0
LINE
8
BLACK
6
CONTINUOUS
10
228.064
20
-106.965
11
228.711
21
-106.693
0
LINE
8
BLACK
6
CONTINUOUS
10
228.711
20
-106.693
11
229.341
21
-106.385
0
LINE
8
BLACK
6
CONTINUOUS
10
229.341
20
-106.385
11
229.954
21
-106.043
0
LINE
8
BLACK
6
CONTINUOUS
10
229.954
20
-106.043
11
230.546
21
-105.667
0
LINE
8
BLACK
6
CONTINUOUS
10
230.546
20
-105.667
11
231.117
21
-105.258
0
LINE
8
BLACK
6
CONTINUOUS
10
231.117
20
-105.258
11
231.664
21
-104.819
0
LINE
8
BLACK
6
CONTINUOUS
10
231.664
20
-104.819
11
232.185
21
-104.349
0
LINE
8
BLACK
6
CONTINUOUS
10
232.185
20
-104.349
11
232.679
21
-103.851
0
LINE
8
BLACK
6
CONTINUOUS
10
232.679
20
-103.851
11
233.145
21
-103.327
0
LINE
8
BLACK
6
CONTINUOUS
10
233.145
20
-103.327
11
233.581
21
-102.777
0
LINE
8
BLACK
6
CONTINUOUS
10
233.581
20
-102.777
11
233.986
21
-102.203
0
LINE
8
BLACK
6
CONTINUOUS
10
233.986
20
-102.203
11
234.357
21
-101.608
0
LINE
8
BLACK
6
CONTINUOUS
10
234.357
20
-101.608
11
234.695
21
-100.993
0
LINE
8
BLACK
6
CONTINUOUS
10
234.695
20
-100.993
11
234.999
21
-100.361
0
LINE
8
BLACK
6
CONTINUOUS
10
234.999
20
-100.361
11
235.266
21
-99.7119
0
LINE
8
BLACK
6
CONTINUOUS
10
235.266
20
-99.7119
11
235.497
21
-99.0493
0
LINE
8
BLACK
6
CONTINUOUS
10
235.497
20
-99.0493
11
235.69
21
-98.3748
0
LINE
8
BLACK
6
CONTINUOUS
10
235.69
20
-98.3748
11
235.846
21
-97.6905
0
LINE
8
BLACK
6
CONTINUOUS
10
235.846
20
-97.6905
11
235.963
21
-96.9987
0
LINE
8
BLACK
6
CONTINUOUS
10
235.963
20
-96.9987
11
236.041
21
-96.3014
0
LINE
8
BLACK
6
CONTINUOUS
10
236.041
20
-96.3014
11
236.08
21
-95.6008
0
LINE
8
BLACK
6
CONTINUOUS
10
236.08
20
-95.6008
11
236.085
21
-95.25
0
LINE
8
BLACK
6
CONTINUOUS
10
236.085
20
-95.25
11
236.065
21
-94.5486
0
LINE
8
BLACK
6
CONTINUOUS
10
236.065
20
-94.5486
11
236.007
21
-93.8494
0
LINE
8
BLACK
6
CONTINUOUS
10
236.007
20
-93.8494
11
235.909
21
-93.1546
0
LINE
8
BLACK
6
CONTINUOUS
10
235.909
20
-93.1546
11
235.773
21
-92.4663
0
LINE
8
BLACK
6
CONTINUOUS
10
235.773
20
-92.4663
11
235.598
21
-91.7866
0
LINE
8
BLACK
6
CONTINUOUS
10
235.598
20
-91.7866
11
235.386
21
-91.1178
0
LINE
8
BLACK
6
CONTINUOUS
10
235.386
20
-91.1178
11
235.137
21
-90.4619
0
LINE
8
BLACK
6
CONTINUOUS
10
235.137
20
-90.4619
11
234.851
21
-89.8209
0
LINE
8
BLACK
6
CONTINUOUS
10
234.851
20
-89.8209
11
234.531
21
-89.1968
0
LINE
8
BLACK
6
CONTINUOUS
10
234.531
20
-89.1968
11
234.176
21
-88.5916
0
LINE
8
BLACK
6
CONTINUOUS
10
234.176
20
-88.5916
11
233.787
21
-88.0072
0
LINE
8
BLACK
6
CONTINUOUS
10
233.787
20
-88.0072
11
233.367
21
-87.4453
0
LINE
8
BLACK
6
CONTINUOUS
10
233.367
20
-87.4453
11
232.916
21
-86.9078
0
LINE
8
BLACK
6
CONTINUOUS
10
232.916
20
-86.9078
11
232.436
21
-86.3963
0
LINE
8
BLACK
6
CONTINUOUS
10
232.436
20
-86.3963
11
231.928
21
-85.9124
0
LINE
8
BLACK
6
CONTINUOUS
10
231.928
20
-85.9124
11
231.393
21
-85.4577
0
LINE
8
BLACK
6
CONTINUOUS
10
231.393
20
-85.4577
11
230.834
21
-85.0334
0
LINE
8
BLACK
6
CONTINUOUS
10
230.834
20
-85.0334
11
230.253
21
-84.6411
0
LINE
8
BLACK
6
CONTINUOUS
10
230.253
20
-84.6411
11
229.65
21
-84.2818
0
LINE
8
BLACK
6
CONTINUOUS
10
229.65
20
-84.2818
11
229.028
21
-83.9567
0
LINE
8
BLACK
6
CONTINUOUS
10
229.028
20
-83.9567
11
228.389
21
-83.6668
0
LINE
8
BLACK
6
CONTINUOUS
10
228.389
20
-83.6668
11
227.735
21
-83.4131
0
LINE
8
BLACK
6
CONTINUOUS
10
227.735
20
-83.4131
11
227.068
21
-83.1963
0
LINE
8
BLACK
6
CONTINUOUS
10
227.068
20
-83.1963
11
226.389
21
-83.017
0
LINE
8
BLACK
6
CONTINUOUS
10
226.389
20
-83.017
11
225.702
21
-82.8759
0
LINE
8
BLACK
6
CONTINUOUS
10
225.702
20
-82.8759
11
225.008
21
-82.7734
0
LINE
8
BLACK
6
CONTINUOUS
10
225.008
20
-82.7734
11
224.309
21
-82.7099
0
LINE
8
BLACK
6
CONTINUOUS
10
224.309
20
-82.7099
11
223.608
21
-82.6854
0
LINE
8
BLACK
6
CONTINUOUS
10
223.608
20
-82.6854
11
222.906
21
-82.7001
0
LINE
8
BLACK
6
CONTINUOUS
10
222.906
20
-82.7001
11
222.207
21
-82.7539
0
LINE
8
BLACK
6
CONTINUOUS
10
222.207
20
-82.7539
11
221.511
21
-82.8467
0
LINE
8
BLACK
6
CONTINUOUS
10
221.511
20
-82.8467
11
220.822
21
-82.9782
0
LINE
8
BLACK
6
CONTINUOUS
10
220.822
20
-82.9782
11
220.141
21
-83.1479
0
LINE
8
BLACK
6
CONTINUOUS
10
220.141
20
-83.1479
11
219.471
21
-83.3554
0
LINE
8
BLACK
6
CONTINUOUS
10
219.471
20
-83.3554
11
218.813
21
-83.6
0
LINE
8
BLACK
6
CONTINUOUS
10
218.813
20
-83.6
11
218.17
21
-83.8809
0
LINE
8
BLACK
6
CONTINUOUS
10
218.17
20
-83.8809
11
217.544
21
-84.1973
0
LINE
8
BLACK
6
CONTINUOUS
10
217.544
20
-84.1973
11
216.936
21
-84.5481
0
LINE
8
BLACK
6
CONTINUOUS
10
216.936
20
-84.5481
11
216.349
21
-84.9323
0
LINE
8
BLACK
6
CONTINUOUS
10
216.349
20
-84.9323
11
215.784
21
-85.3487
0
LINE
8
BLACK
6
CONTINUOUS
10
215.784
20
-85.3487
11
215.244
21
-85.7959
0
LINE
8
BLACK
6
CONTINUOUS
10
215.244
20
-85.7959
11
214.729
21
-86.2727
0
LINE
8
BLACK
6
CONTINUOUS
10
214.729
20
-86.2727
11
214.241
21
-86.7774
0
LINE
8
BLACK
6
CONTINUOUS
10
214.241
20
-86.7774
11
213.783
21
-87.3086
0
LINE
8
BLACK
6
CONTINUOUS
10
213.783
20
-87.3086
11
213.355
21
-87.8645
0
LINE
8
BLACK
6
CONTINUOUS
10
213.355
20
-87.8645
11
212.958
21
-88.4435
0
LINE
8
BLACK
6
CONTINUOUS
10
212.958
20
-88.4435
11
212.595
21
-89.0436
0
LINE
8
BLACK
6
CONTINUOUS
10
212.595
20
-89.0436
11
212.265
21
-89.6632
0
LINE
8
BLACK
6
CONTINUOUS
10
212.265
20
-89.6632
11
211.971
21
-90.3001
0
LINE
8
BLACK
6
CONTINUOUS
10
211.971
20
-90.3001
11
211.713
21
-90.9525
0
LINE
8
BLACK
6
CONTINUOUS
10
211.713
20
-90.9525
11
211.491
21
-91.6183
0
LINE
8
BLACK
6
CONTINUOUS
10
211.491
20
-91.6183
11
211.307
21
-92.2955
0
LINE
8
BLACK
6
CONTINUOUS
10
211.307
20
-92.2955
11
211.161
21
-92.9818
0
LINE
8
BLACK
6
CONTINUOUS
10
211.161
20
-92.9818
11
211.054
21
-93.6752
0
LINE
8
BLACK
6
CONTINUOUS
10
211.054
20
-93.6752
11
210.986
21
-94.3735
0
LINE
8
BLACK
6
CONTINUOUS
10
210.986
20
-94.3735
11
210.956
21
-95.0746
0
LINE
8
BLACK
6
CONTINUOUS
10
210.956
20
-95.0746
11
210.966
21
-95.7762
0
LINE
8
BLACK
6
CONTINUOUS
10
210.966
20
-95.7762
11
211.015
21
-96.4761
0
LINE
8
BLACK
6
CONTINUOUS
10
162.918
20
-77.6455
11
163.272
21
-77.6981
0
LINE
8
BLACK
6
CONTINUOUS
10
163.272
20
-77.6981
11
163.62
21
-77.7852
0
LINE
8
BLACK
6
CONTINUOUS
10
163.62
20
-77.7852
11
163.958
21
-77.9059
0
LINE
8
BLACK
6
CONTINUOUS
10
163.958
20
-77.9059
11
164.282
21
-78.0591
0
LINE
8
BLACK
6
CONTINUOUS
10
164.282
20
-78.0591
11
164.589
21
-78.2434
0
LINE
8
BLACK
6
CONTINUOUS
10
164.589
20
-78.2434
11
164.877
21
-78.4569
0
LINE
8
BLACK
6
CONTINUOUS
10
164.877
20
-78.4569
11
165.142
21
-78.697
0
LINE
8
BLACK
6
CONTINUOUS
10
165.142
20
-78.697
11
165.142
21
-78.697
0
LINE
8
BLACK
6
CONTINUOUS
10
165.142
20
-78.697
11
172.531
21
-85.8854
0
LINE
8
BLACK
6
CONTINUOUS
10
172.531
20
-85.8854
11
172.532
21
-85.8867
0
LINE
8
BLACK
6
CONTINUOUS
10
172.532
20
-85.8867
11
172.533
21
-85.8873
0
LINE
8
BLACK
6
CONTINUOUS
10
172.533
20
-85.8873
11
172.533
21
-85.8873
0
LINE
8
BLACK
6
CONTINUOUS
10
172.533
20
-85.8873
11
172.991
21
-86.4001
0
LINE
8
BLACK
6
CONTINUOUS
10
172.991
20
-86.4001
11
173.423
21
-86.9353
0
LINE
8
BLACK
6
CONTINUOUS
10
173.423
20
-86.9353
11
173.826
21
-87.4915
0
LINE
8
BLACK
6
CONTINUOUS
10
173.826
20
-87.4915
11
174.202
21
-88.0672
0
LINE
8
BLACK
6
CONTINUOUS
10
174.202
20
-88.0672
11
174.548
21
-88.6611
0
LINE
8
BLACK
6
CONTINUOUS
10
174.548
20
-88.6611
11
174.864
21
-89.2716
0
LINE
8
BLACK
6
CONTINUOUS
10
174.864
20
-89.2716
11
175.149
21
-89.8973
0
LINE
8
BLACK
6
CONTINUOUS
10
175.149
20
-89.8973
11
175.402
21
-90.5364
0
LINE
8
BLACK
6
CONTINUOUS
10
175.402
20
-90.5364
11
175.622
21
-91.1874
0
LINE
8
BLACK
6
CONTINUOUS
10
175.622
20
-91.1874
11
175.81
21
-91.8487
0
LINE
8
BLACK
6
CONTINUOUS
10
175.81
20
-91.8487
11
175.964
21
-92.5186
0
LINE
8
BLACK
6
CONTINUOUS
10
175.964
20
-92.5186
11
176.084
21
-93.1954
0
LINE
8
BLACK
6
CONTINUOUS
10
176.084
20
-93.1954
11
176.17
21
-93.8774
0
LINE
8
BLACK
6
CONTINUOUS
10
176.17
20
-93.8774
11
176.222
21
-94.5628
0
LINE
8
BLACK
6
CONTINUOUS
10
176.222
20
-94.5628
11
176.239
21
-95.25
0
LINE
8
BLACK
6
CONTINUOUS
10
176.239
20
-95.25
11
176.222
21
-95.9366
0
LINE
8
BLACK
6
CONTINUOUS
10
176.222
20
-95.9366
11
176.171
21
-96.6214
0
LINE
8
BLACK
6
CONTINUOUS
10
176.171
20
-96.6214
11
176.085
21
-97.3028
0
LINE
8
BLACK
6
CONTINUOUS
10
176.085
20
-97.3028
11
175.965
21
-97.979
0
LINE
8
BLACK
6
CONTINUOUS
10
175.965
20
-97.979
11
175.811
21
-98.6483
0
LINE
8
BLACK
6
CONTINUOUS
10
175.811
20
-98.6483
11
175.623
21
-99.309
0
LINE
8
BLACK
6
CONTINUOUS
10
175.623
20
-99.309
11
175.403
21
-99.9596
0
LINE
8
BLACK
6
CONTINUOUS
10
175.403
20
-99.9596
11
175.151
21
-100.598
0
LINE
8
BLACK
6
CONTINUOUS
10
175.151
20
-100.598
11
174.866
21
-101.223
0
LINE
8
BLACK
6
CONTINUOUS
10
174.866
20
-101.223
11
174.551
21
-101.834
0
LINE
8
BLACK
6
CONTINUOUS
10
174.551
20
-101.834
11
174.206
21
-102.427
0
LINE
8
BLACK
6
CONTINUOUS
10
174.206
20
-102.427
11
173.831
21
-103.002
0
LINE
8
BLACK
6
CONTINUOUS
10
173.831
20
-103.002
11
173.427
21
-103.558
0
LINE
8
BLACK
6
CONTINUOUS
10
173.427
20
-103.558
11
172.997
21
-104.093
0
LINE
8
BLACK
6
CONTINUOUS
10
172.997
20
-104.093
11
172.54
21
-104.606
0
LINE
8
BLACK
6
CONTINUOUS
10
172.54
20
-104.606
11
172.538
21
-104.607
0
LINE
8
BLACK
6
CONTINUOUS
10
172.538
20
-104.607
11
172.538
21
-104.608
0
LINE
8
BLACK
6
CONTINUOUS
10
172.538
20
-104.608
11
165.142
21
-111.803
0
LINE
8
BLACK
6
CONTINUOUS
10
165.142
20
-111.803
11
165.142
21
-111.803
0
LINE
8
BLACK
6
CONTINUOUS
10
165.142
20
-111.803
11
164.877
21
-112.043
0
LINE
8
BLACK
6
CONTINUOUS
10
164.877
20
-112.043
11
164.589
21
-112.257
0
LINE
8
BLACK
6
CONTINUOUS
10
164.589
20
-112.257
11
164.282
21
-112.441
0
LINE
8
BLACK
6
CONTINUOUS
10
164.282
20
-112.441
11
163.958
21
-112.594
0
LINE
8
BLACK
6
CONTINUOUS
10
163.958
20
-112.594
11
163.62
21
-112.715
0
LINE
8
BLACK
6
CONTINUOUS
10
163.62
20
-112.715
11
163.272
21
-112.802
0
LINE
8
BLACK
6
CONTINUOUS
10
163.272
20
-112.802
11
162.918
21
-112.855
0
LINE
8
BLACK
6
CONTINUOUS
10
162.918
20
-112.855
11
162.56
21
-112.872
0
LINE
8
BLACK
6
CONTINUOUS
10
162.56
20
-112.872
11
162.202
21
-112.855
0
LINE
8
BLACK
6
CONTINUOUS
10
162.202
20
-112.855
11
161.848
21
-112.802
0
LINE
8
BLACK
6
CONTINUOUS
10
161.848
20
-112.802
11
161.5
21
-112.715
0
LINE
8
BLACK
6
CONTINUOUS
10
161.5
20
-112.715
11
161.162
21
-112.594
0
LINE
8
BLACK
6
CONTINUOUS
10
161.162
20
-112.594
11
160.838
21
-112.441
0
LINE
8
BLACK
6
CONTINUOUS
10
160.838
20
-112.441
11
160.531
21
-112.257
0
LINE
8
BLACK
6
CONTINUOUS
10
160.531
20
-112.257
11
160.243
21
-112.043
0
LINE
8
BLACK
6
CONTINUOUS
10
160.243
20
-112.043
11
159.978
21
-111.803
0
LINE
8
BLACK
6
CONTINUOUS
10
159.978
20
-111.803
11
159.978
21
-111.803
0
LINE
8
BLACK
6
CONTINUOUS
10
159.978
20
-111.803
11
152.589
21
-104.615
0
LINE
8
BLACK
6
CONTINUOUS
10
152.589
20
-104.615
11
152.588
21
-104.613
0
LINE
8
BLACK
6
CONTINUOUS
10
152.588
20
-104.613
11
152.587
21
-104.613
0
LINE
8
BLACK
6
CONTINUOUS
10
152.587
20
-104.613
11
152.587
21
-104.613
0
LINE
8
BLACK
6
CONTINUOUS
10
152.587
20
-104.613
11
152.114
21
-104.083
0
LINE
8
BLACK
6
CONTINUOUS
10
152.114
20
-104.083
11
151.67
21
-103.529
0
LINE
8
BLACK
6
CONTINUOUS
10
151.67
20
-103.529
11
151.256
21
-102.953
0
LINE
8
BLACK
6
CONTINUOUS
10
151.256
20
-102.953
11
150.871
21
-102.357
0
LINE
8
BLACK
6
CONTINUOUS
10
150.871
20
-102.357
11
150.518
21
-101.741
0
LINE
8
BLACK
6
CONTINUOUS
10
150.518
20
-101.741
11
150.198
21
-101.108
0
LINE
8
BLACK
6
CONTINUOUS
10
150.198
20
-101.108
11
149.911
21
-100.458
0
LINE
8
BLACK
6
CONTINUOUS
10
149.911
20
-100.458
11
149.658
21
-99.7954
0
LINE
8
BLACK
6
CONTINUOUS
10
149.658
20
-99.7954
11
149.439
21
-99.1201
0
LINE
8
BLACK
6
CONTINUOUS
10
149.439
20
-99.1201
11
149.256
21
-98.4344
0
LINE
8
BLACK
6
CONTINUOUS
10
149.256
20
-98.4344
11
149.109
21
-97.7402
0
LINE
8
BLACK
6
CONTINUOUS
10
149.109
20
-97.7402
11
148.998
21
-97.0392
0
LINE
8
BLACK
6
CONTINUOUS
10
148.998
20
-97.0392
11
148.923
21
-96.3334
0
LINE
8
BLACK
6
CONTINUOUS
10
148.923
20
-96.3334
11
148.886
21
-95.6247
0
LINE
8
BLACK
6
CONTINUOUS
10
148.886
20
-95.6247
11
148.885
21
-94.9149
0
LINE
8
BLACK
6
CONTINUOUS
10
148.885
20
-94.9149
11
148.92
21
-94.2061
0
LINE
8
BLACK
6
CONTINUOUS
10
148.92
20
-94.2061
11
148.993
21
-93.5001
0
LINE
8
BLACK
6
CONTINUOUS
10
148.993
20
-93.5001
11
149.102
21
-92.7988
0
LINE
8
BLACK
6
CONTINUOUS
10
149.102
20
-92.7988
11
149.247
21
-92.1041
0
LINE
8
BLACK
6
CONTINUOUS
10
149.247
20
-92.1041
11
149.428
21
-91.4179
0
LINE
8
BLACK
6
CONTINUOUS
10
149.428
20
-91.4179
11
149.645
21
-90.742
0
LINE
8
BLACK
6
CONTINUOUS
10
149.645
20
-90.742
11
149.896
21
-90.0782
0
LINE
8
BLACK
6
CONTINUOUS
10
149.896
20
-90.0782
11
150.181
21
-89.4283
0
LINE
8
BLACK
6
CONTINUOUS
10
150.181
20
-89.4283
11
150.5
21
-88.7941
0
LINE
8
BLACK
6
CONTINUOUS
10
150.5
20
-88.7941
11
150.851
21
-88.1773
0
LINE
8
BLACK
6
CONTINUOUS
10
150.851
20
-88.1773
11
151.233
21
-87.5795
0
LINE
8
BLACK
6
CONTINUOUS
10
151.233
20
-87.5795
11
151.646
21
-87.0024
0
LINE
8
BLACK
6
CONTINUOUS
10
151.646
20
-87.0024
11
152.089
21
-86.4475
0
LINE
8
BLACK
6
CONTINUOUS
10
152.089
20
-86.4475
11
152.56
21
-85.9162
0
LINE
8
BLACK
6
CONTINUOUS
10
152.56
20
-85.9162
11
152.561
21
-85.9156
0
LINE
8
BLACK
6
CONTINUOUS
10
152.561
20
-85.9156
11
152.562
21
-85.9142
0
LINE
8
BLACK
6
CONTINUOUS
10
152.562
20
-85.9142
11
159.978
21
-78.697
0
LINE
8
BLACK
6
CONTINUOUS
10
159.978
20
-78.697
11
159.978
21
-78.697
0
LINE
8
BLACK
6
CONTINUOUS
10
159.978
20
-78.697
11
160.243
21
-78.4569
0
LINE
8
BLACK
6
CONTINUOUS
10
160.243
20
-78.4569
11
160.531
21
-78.2434
0
LINE
8
BLACK
6
CONTINUOUS
10
160.531
20
-78.2434
11
160.838
21
-78.0591
0
LINE
8
BLACK
6
CONTINUOUS
10
160.838
20
-78.0591
11
161.162
21
-77.9059
0
LINE
8
BLACK
6
CONTINUOUS
10
161.162
20
-77.9059
11
161.5
21
-77.7852
0
LINE
8
BLACK
6
CONTINUOUS
10
161.5
20
-77.7852
11
161.848
21
-77.6981
0
LINE
8
BLACK
6
CONTINUOUS
10
161.848
20
-77.6981
11
162.202
21
-77.6455
0
LINE
8
BLACK
6
CONTINUOUS
10
162.202
20
-77.6455
11
162.56
21
-77.6279
0
LINE
8
BLACK
6
CONTINUOUS
10
162.56
20
-77.6279
11
162.918
21
-77.6455
0
LINE
8
BLACK
6
CONTINUOUS
10
162.213
20
-77.7607
11
161.87
21
-77.8116
0
LINE
8
BLACK
6
CONTINUOUS
10
161.87
20
-77.8116
11
161.533
21
-77.8959
0
LINE
8
BLACK
6
CONTINUOUS
10
161.533
20
-77.8959
11
161.207
21
-78.0128
0
LINE
8
BLACK
6
CONTINUOUS
10
161.207
20
-78.0128
11
160.893
21
-78.1612
0
LINE
8
BLACK
6
CONTINUOUS
10
160.893
20
-78.1612
11
160.595
21
-78.3396
0
LINE
8
BLACK
6
CONTINUOUS
10
160.595
20
-78.3396
11
160.317
21
-78.5464
0
LINE
8
BLACK
6
CONTINUOUS
10
160.317
20
-78.5464
11
160.066
21
-78.7732
0
LINE
8
BLACK
6
CONTINUOUS
10
160.066
20
-78.7732
11
160.062
21
-78.7824
0
LINE
8
BLACK
6
CONTINUOUS
10
160.062
20
-78.7824
11
160.062
21
-78.7826
0
LINE
8
BLACK
6
CONTINUOUS
10
160.062
20
-78.7826
11
160.062
21
-78.783
0
LINE
8
BLACK
6
CONTINUOUS
10
160.062
20
-78.783
11
152.645
21
-86.0002
0
LINE
8
BLACK
6
CONTINUOUS
10
152.645
20
-86.0002
11
152.636
21
-86.0038
0
LINE
8
BLACK
6
CONTINUOUS
10
152.636
20
-86.0038
11
152.177
21
-86.5217
0
LINE
8
BLACK
6
CONTINUOUS
10
152.177
20
-86.5217
11
151.739
21
-87.072
0
LINE
8
BLACK
6
CONTINUOUS
10
151.739
20
-87.072
11
151.329
21
-87.6443
0
LINE
8
BLACK
6
CONTINUOUS
10
151.329
20
-87.6443
11
150.95
21
-88.237
0
LINE
8
BLACK
6
CONTINUOUS
10
150.95
20
-88.237
11
150.602
21
-88.8486
0
LINE
8
BLACK
6
CONTINUOUS
10
150.602
20
-88.8486
11
150.286
21
-89.4774
0
LINE
8
BLACK
6
CONTINUOUS
10
150.286
20
-89.4774
11
150.003
21
-90.1218
0
LINE
8
BLACK
6
CONTINUOUS
10
150.003
20
-90.1218
11
149.754
21
-90.78
0
LINE
8
BLACK
6
CONTINUOUS
10
149.754
20
-90.78
11
149.539
21
-91.4502
0
LINE
8
BLACK
6
CONTINUOUS
10
149.539
20
-91.4502
11
149.359
21
-92.1307
0
LINE
8
BLACK
6
CONTINUOUS
10
149.359
20
-92.1307
11
149.215
21
-92.8195
0
LINE
8
BLACK
6
CONTINUOUS
10
149.215
20
-92.8195
11
149.107
21
-93.5149
0
LINE
8
BLACK
6
CONTINUOUS
10
149.107
20
-93.5149
11
149.035
21
-94.2149
0
LINE
8
BLACK
6
CONTINUOUS
10
149.035
20
-94.2149
11
149
21
-94.9178
0
LINE
8
BLACK
6
CONTINUOUS
10
149
20
-94.9178
11
149.001
21
-95.6215
0
LINE
8
BLACK
6
CONTINUOUS
10
149.001
20
-95.6215
11
149.039
21
-96.3242
0
LINE
8
BLACK
6
CONTINUOUS
10
149.039
20
-96.3242
11
149.112
21
-97.0241
0
LINE
8
BLACK
6
CONTINUOUS
10
149.112
20
-97.0241
11
149.223
21
-97.7191
0
LINE
8
BLACK
6
CONTINUOUS
10
149.223
20
-97.7191
11
149.369
21
-98.4076
0
LINE
8
BLACK
6
CONTINUOUS
10
149.369
20
-98.4076
11
149.55
21
-99.0875
0
LINE
8
BLACK
6
CONTINUOUS
10
149.55
20
-99.0875
11
149.767
21
-99.7571
0
LINE
8
BLACK
6
CONTINUOUS
10
149.767
20
-99.7571
11
150.018
21
-100.415
0
LINE
8
BLACK
6
CONTINUOUS
10
150.018
20
-100.415
11
150.302
21
-101.058
0
LINE
8
BLACK
6
CONTINUOUS
10
150.302
20
-101.058
11
150.62
21
-101.686
0
LINE
8
BLACK
6
CONTINUOUS
10
150.62
20
-101.686
11
150.97
21
-102.297
0
LINE
8
BLACK
6
CONTINUOUS
10
150.97
20
-102.297
11
151.351
21
-102.888
0
LINE
8
BLACK
6
CONTINUOUS
10
151.351
20
-102.888
11
151.762
21
-103.459
0
LINE
8
BLACK
6
CONTINUOUS
10
151.762
20
-103.459
11
152.203
21
-104.008
0
LINE
8
BLACK
6
CONTINUOUS
10
152.203
20
-104.008
11
152.663
21
-104.525
0
LINE
8
BLACK
6
CONTINUOUS
10
152.663
20
-104.525
11
152.672
21
-104.529
0
LINE
8
BLACK
6
CONTINUOUS
10
152.672
20
-104.529
11
160.062
21
-111.717
0
LINE
8
BLACK
6
CONTINUOUS
10
160.062
20
-111.717
11
160.062
21
-111.717
0
LINE
8
BLACK
6
CONTINUOUS
10
160.062
20
-111.717
11
160.062
21
-111.718
0
LINE
8
BLACK
6
CONTINUOUS
10
160.062
20
-111.718
11
160.066
21
-111.727
0
LINE
8
BLACK
6
CONTINUOUS
10
160.066
20
-111.727
11
160.317
21
-111.954
0
LINE
8
BLACK
6
CONTINUOUS
10
160.317
20
-111.954
11
160.595
21
-112.16
0
LINE
8
BLACK
6
CONTINUOUS
10
160.595
20
-112.16
11
160.893
21
-112.339
0
LINE
8
BLACK
6
CONTINUOUS
10
160.893
20
-112.339
11
161.207
21
-112.487
0
LINE
8
BLACK
6
CONTINUOUS
10
161.207
20
-112.487
11
161.533
21
-112.604
0
LINE
8
BLACK
6
CONTINUOUS
10
161.533
20
-112.604
11
161.87
21
-112.688
0
LINE
8
BLACK
6
CONTINUOUS
10
161.87
20
-112.688
11
162.213
21
-112.739
0
LINE
8
BLACK
6
CONTINUOUS
10
162.213
20
-112.739
11
162.56
21
-112.756
0
LINE
8
BLACK
6
CONTINUOUS
10
162.56
20
-112.756
11
162.907
21
-112.739
0
LINE
8
BLACK
6
CONTINUOUS
10
162.907
20
-112.739
11
163.25
21
-112.688
0
LINE
8
BLACK
6
CONTINUOUS
10
163.25
20
-112.688
11
163.587
21
-112.604
0
LINE
8
BLACK
6
CONTINUOUS
10
163.587
20
-112.604
11
163.913
21
-112.487
0
LINE
8
BLACK
6
CONTINUOUS
10
163.913
20
-112.487
11
164.227
21
-112.339
0
LINE
8
BLACK
6
CONTINUOUS
10
164.227
20
-112.339
11
164.525
21
-112.16
0
LINE
8
BLACK
6
CONTINUOUS
10
164.525
20
-112.16
11
164.803
21
-111.954
0
LINE
8
BLACK
6
CONTINUOUS
10
164.803
20
-111.954
11
165.054
21
-111.727
0
LINE
8
BLACK
6
CONTINUOUS
10
165.054
20
-111.727
11
165.058
21
-111.718
0
LINE
8
BLACK
6
CONTINUOUS
10
165.058
20
-111.718
11
165.058
21
-111.717
0
LINE
8
BLACK
6
CONTINUOUS
10
165.058
20
-111.717
11
165.058
21
-111.717
0
LINE
8
BLACK
6
CONTINUOUS
10
165.058
20
-111.717
11
172.454
21
-104.522
0
LINE
8
BLACK
6
CONTINUOUS
10
172.454
20
-104.522
11
172.463
21
-104.518
0
LINE
8
BLACK
6
CONTINUOUS
10
172.463
20
-104.518
11
172.908
21
-104.018
0
LINE
8
BLACK
6
CONTINUOUS
10
172.908
20
-104.018
11
173.335
21
-103.488
0
LINE
8
BLACK
6
CONTINUOUS
10
173.335
20
-103.488
11
173.735
21
-102.937
0
LINE
8
BLACK
6
CONTINUOUS
10
173.735
20
-102.937
11
174.107
21
-102.366
0
LINE
8
BLACK
6
CONTINUOUS
10
174.107
20
-102.366
11
174.45
21
-101.778
0
LINE
8
BLACK
6
CONTINUOUS
10
174.45
20
-101.778
11
174.762
21
-101.173
0
LINE
8
BLACK
6
CONTINUOUS
10
174.762
20
-101.173
11
175.044
21
-100.553
0
LINE
8
BLACK
6
CONTINUOUS
10
175.044
20
-100.553
11
175.295
21
-99.9197
0
LINE
8
BLACK
6
CONTINUOUS
10
175.295
20
-99.9197
11
175.513
21
-99.2747
0
LINE
8
BLACK
6
CONTINUOUS
10
175.513
20
-99.2747
11
175.699
21
-98.6195
0
LINE
8
BLACK
6
CONTINUOUS
10
175.699
20
-98.6195
11
175.851
21
-97.9559
0
LINE
8
BLACK
6
CONTINUOUS
10
175.851
20
-97.9559
11
175.97
21
-97.2854
0
LINE
8
BLACK
6
CONTINUOUS
10
175.97
20
-97.2854
11
176.055
21
-96.6098
0
LINE
8
BLACK
6
CONTINUOUS
10
176.055
20
-96.6098
11
176.107
21
-95.9308
0
LINE
8
BLACK
6
CONTINUOUS
10
176.107
20
-95.9308
11
176.124
21
-95.2598
0
LINE
8
BLACK
6
CONTINUOUS
10
176.124
20
-95.2598
11
176.119
21
-95.25
0
LINE
8
BLACK
6
CONTINUOUS
10
176.119
20
-95.25
11
176.124
21
-95.2402
0
LINE
8
BLACK
6
CONTINUOUS
10
176.124
20
-95.2402
11
176.107
21
-94.5686
0
LINE
8
BLACK
6
CONTINUOUS
10
176.107
20
-94.5686
11
176.055
21
-93.889
0
LINE
8
BLACK
6
CONTINUOUS
10
176.055
20
-93.889
11
175.97
21
-93.2128
0
LINE
8
BLACK
6
CONTINUOUS
10
175.97
20
-93.2128
11
175.851
21
-92.5417
0
LINE
8
BLACK
6
CONTINUOUS
10
175.851
20
-92.5417
11
175.698
21
-91.8775
0
LINE
8
BLACK
6
CONTINUOUS
10
175.698
20
-91.8775
11
175.512
21
-91.2218
0
LINE
8
BLACK
6
CONTINUOUS
10
175.512
20
-91.2218
11
175.293
21
-90.5763
0
LINE
8
BLACK
6
CONTINUOUS
10
175.293
20
-90.5763
11
175.042
21
-89.9425
0
LINE
8
BLACK
6
CONTINUOUS
10
175.042
20
-89.9425
11
174.76
21
-89.3222
0
LINE
8
BLACK
6
CONTINUOUS
10
174.76
20
-89.3222
11
174.447
21
-88.7168
0
LINE
8
BLACK
6
CONTINUOUS
10
174.447
20
-88.7168
11
174.104
21
-88.128
0
LINE
8
BLACK
6
CONTINUOUS
10
174.104
20
-88.128
11
173.731
21
-87.5571
0
LINE
8
BLACK
6
CONTINUOUS
10
173.731
20
-87.5571
11
173.331
21
-87.0056
0
LINE
8
BLACK
6
CONTINUOUS
10
173.331
20
-87.0056
11
172.903
21
-86.475
0
LINE
8
BLACK
6
CONTINUOUS
10
172.903
20
-86.475
11
172.456
21
-85.9748
0
LINE
8
BLACK
6
CONTINUOUS
10
172.456
20
-85.9748
11
172.448
21
-85.9714
0
LINE
8
BLACK
6
CONTINUOUS
10
172.448
20
-85.9714
11
165.058
21
-78.783
0
LINE
8
BLACK
6
CONTINUOUS
10
165.058
20
-78.783
11
165.058
21
-78.7826
0
LINE
8
BLACK
6
CONTINUOUS
10
165.058
20
-78.7826
11
165.058
21
-78.7824
0
LINE
8
BLACK
6
CONTINUOUS
10
165.058
20
-78.7824
11
165.054
21
-78.7732
0
LINE
8
BLACK
6
CONTINUOUS
10
165.054
20
-78.7732
11
164.803
21
-78.5464
0
LINE
8
BLACK
6
CONTINUOUS
10
164.803
20
-78.5464
11
164.525
21
-78.3396
0
LINE
8
BLACK
6
CONTINUOUS
10
164.525
20
-78.3396
11
164.227
21
-78.1612
0
LINE
8
BLACK
6
CONTINUOUS
10
164.227
20
-78.1612
11
163.913
21
-78.0128
0
LINE
8
BLACK
6
CONTINUOUS
10
163.913
20
-78.0128
11
163.587
21
-77.8959
0
LINE
8
BLACK
6
CONTINUOUS
10
163.587
20
-77.8959
11
163.25
21
-77.8116
0
LINE
8
BLACK
6
CONTINUOUS
10
163.25
20
-77.8116
11
162.907
21
-77.7607
0
LINE
8
BLACK
6
CONTINUOUS
10
162.907
20
-77.7607
11
162.56
21
-77.7436
0
LINE
8
BLACK
6
CONTINUOUS
10
162.56
20
-77.7436
11
162.213
21
-77.7607
0
LINE
8
BLACK
6
CONTINUOUS
10
149.911
20
-94.3655
11
149.98
21
-93.6608
0
LINE
8
BLACK
6
CONTINUOUS
10
149.98
20
-93.6608
11
150.088
21
-92.961
0
LINE
8
BLACK
6
CONTINUOUS
10
150.088
20
-92.961
11
150.236
21
-92.2684
0
LINE
8
BLACK
6
CONTINUOUS
10
150.236
20
-92.2684
11
150.421
21
-91.5851
0
LINE
8
BLACK
6
CONTINUOUS
10
150.421
20
-91.5851
11
150.645
21
-90.9132
0
LINE
8
BLACK
6
CONTINUOUS
10
150.645
20
-90.9132
11
150.905
21
-90.2548
0
LINE
8
BLACK
6
CONTINUOUS
10
150.905
20
-90.2548
11
151.202
21
-89.612
0
LINE
8
BLACK
6
CONTINUOUS
10
151.202
20
-89.612
11
151.535
21
-88.9868
0
LINE
8
BLACK
6
CONTINUOUS
10
151.535
20
-88.9868
11
151.902
21
-88.3811
0
LINE
8
BLACK
6
CONTINUOUS
10
151.902
20
-88.3811
11
152.302
21
-87.7969
0
LINE
8
BLACK
6
CONTINUOUS
10
152.302
20
-87.7969
11
152.734
21
-87.2359
0
LINE
8
BLACK
6
CONTINUOUS
10
152.734
20
-87.2359
11
153.196
21
-86.6998
0
LINE
8
BLACK
6
CONTINUOUS
10
153.196
20
-86.6998
11
153.688
21
-86.1905
0
LINE
8
BLACK
6
CONTINUOUS
10
153.688
20
-86.1905
11
154.208
21
-85.7094
0
LINE
8
BLACK
6
CONTINUOUS
10
154.208
20
-85.7094
11
154.753
21
-85.258
0
LINE
8
BLACK
6
CONTINUOUS
10
154.753
20
-85.258
11
155.323
21
-84.8378
0
LINE
8
BLACK
6
CONTINUOUS
10
155.323
20
-84.8378
11
155.916
21
-84.4501
0
LINE
8
BLACK
6
CONTINUOUS
10
155.916
20
-84.4501
11
156.529
21
-84.0961
0
LINE
8
BLACK
6
CONTINUOUS
10
156.529
20
-84.0961
11
157.161
21
-83.7768
0
LINE
8
BLACK
6
CONTINUOUS
10
157.161
20
-83.7768
11
157.81
21
-83.4933
0
LINE
8
BLACK
6
CONTINUOUS
10
157.81
20
-83.4933
11
158.474
21
-83.2465
0
LINE
8
BLACK
6
CONTINUOUS
10
158.474
20
-83.2465
11
159.15
21
-83.0371
0
LINE
8
BLACK
6
CONTINUOUS
10
159.15
20
-83.0371
11
159.837
21
-82.8658
0
LINE
8
BLACK
6
CONTINUOUS
10
159.837
20
-82.8658
11
160.533
21
-82.7331
0
LINE
8
BLACK
6
CONTINUOUS
10
160.533
20
-82.7331
11
161.235
21
-82.6395
0
LINE
8
BLACK
6
CONTINUOUS
10
161.235
20
-82.6395
11
161.941
21
-82.5851
0
LINE
8
BLACK
6
CONTINUOUS
10
161.941
20
-82.5851
11
162.649
21
-82.5703
0
LINE
8
BLACK
6
CONTINUOUS
10
162.649
20
-82.5703
11
163.356
21
-82.595
0
LINE
8
BLACK
6
CONTINUOUS
10
163.356
20
-82.595
11
164.061
21
-82.6592
0
LINE
8
BLACK
6
CONTINUOUS
10
164.061
20
-82.6592
11
164.762
21
-82.7626
0
LINE
8
BLACK
6
CONTINUOUS
10
164.762
20
-82.7626
11
165.455
21
-82.905
0
LINE
8
BLACK
6
CONTINUOUS
10
165.455
20
-82.905
11
166.14
21
-83.0859
0
LINE
8
BLACK
6
CONTINUOUS
10
166.14
20
-83.0859
11
166.814
21
-83.3047
0
LINE
8
BLACK
6
CONTINUOUS
10
166.814
20
-83.3047
11
167.474
21
-83.5608
0
LINE
8
BLACK
6
CONTINUOUS
10
167.474
20
-83.5608
11
168.119
21
-83.8533
0
LINE
8
BLACK
6
CONTINUOUS
10
168.119
20
-83.8533
11
168.746
21
-84.1813
0
LINE
8
BLACK
6
CONTINUOUS
10
168.746
20
-84.1813
11
169.354
21
-84.5439
0
LINE
8
BLACK
6
CONTINUOUS
10
169.354
20
-84.5439
11
169.941
21
-84.9399
0
LINE
8
BLACK
6
CONTINUOUS
10
169.941
20
-84.9399
11
170.505
21
-85.368
0
LINE
8
BLACK
6
CONTINUOUS
10
170.505
20
-85.368
11
171.045
21
-85.8269
0
LINE
8
BLACK
6
CONTINUOUS
10
171.045
20
-85.8269
11
171.557
21
-86.3152
0
LINE
8
BLACK
6
CONTINUOUS
10
171.557
20
-86.3152
11
172.042
21
-86.8314
0
LINE
8
BLACK
6
CONTINUOUS
10
172.042
20
-86.8314
11
172.497
21
-87.3738
0
LINE
8
BLACK
6
CONTINUOUS
10
172.497
20
-87.3738
11
172.921
21
-87.9408
0
LINE
8
BLACK
6
CONTINUOUS
10
172.921
20
-87.9408
11
173.313
21
-88.5306
0
LINE
8
BLACK
6
CONTINUOUS
10
173.313
20
-88.5306
11
173.672
21
-89.1414
0
LINE
8
BLACK
6
CONTINUOUS
10
173.672
20
-89.1414
11
173.995
21
-89.7712
0
LINE
8
BLACK
6
CONTINUOUS
10
173.995
20
-89.7712
11
174.283
21
-90.418
0
LINE
8
BLACK
6
CONTINUOUS
10
174.283
20
-90.418
11
174.535
21
-91.08
0
LINE
8
BLACK
6
CONTINUOUS
10
174.535
20
-91.08
11
174.749
21
-91.7549
0
LINE
8
BLACK
6
CONTINUOUS
10
174.749
20
-91.7549
11
174.925
21
-92.4408
0
LINE
8
BLACK
6
CONTINUOUS
10
174.925
20
-92.4408
11
175.062
21
-93.1354
0
LINE
8
BLACK
6
CONTINUOUS
10
175.062
20
-93.1354
11
175.161
21
-93.8366
0
LINE
8
BLACK
6
CONTINUOUS
10
175.161
20
-93.8366
11
175.22
21
-94.5422
0
LINE
8
BLACK
6
CONTINUOUS
10
175.22
20
-94.5422
11
175.24
21
-95.25
0
LINE
8
BLACK
6
CONTINUOUS
10
175.24
20
-95.25
11
175.235
21
-95.604
0
LINE
8
BLACK
6
CONTINUOUS
10
175.235
20
-95.604
11
175.196
21
-96.311
0
LINE
8
BLACK
6
CONTINUOUS
10
175.196
20
-96.311
11
175.117
21
-97.0147
0
LINE
8
BLACK
6
CONTINUOUS
10
175.117
20
-97.0147
11
174.999
21
-97.7129
0
LINE
8
BLACK
6
CONTINUOUS
10
174.999
20
-97.7129
11
174.842
21
-98.4034
0
LINE
8
BLACK
6
CONTINUOUS
10
174.842
20
-98.4034
11
174.646
21
-99.084
0
LINE
8
BLACK
6
CONTINUOUS
10
174.646
20
-99.084
11
174.414
21
-99.7528
0
LINE
8
BLACK
6
CONTINUOUS
10
174.414
20
-99.7528
11
174.144
21
-100.407
0
LINE
8
BLACK
6
CONTINUOUS
10
174.144
20
-100.407
11
173.838
21
-101.046
0
LINE
8
BLACK
6
CONTINUOUS
10
173.838
20
-101.046
11
173.497
21
-101.667
0
LINE
8
BLACK
6
CONTINUOUS
10
173.497
20
-101.667
11
173.121
21
-102.267
0
LINE
8
BLACK
6
CONTINUOUS
10
173.121
20
-102.267
11
172.713
21
-102.846
0
LINE
8
BLACK
6
CONTINUOUS
10
172.713
20
-102.846
11
172.273
21
-103.401
0
LINE
8
BLACK
6
CONTINUOUS
10
172.273
20
-103.401
11
171.803
21
-103.93
0
LINE
8
BLACK
6
CONTINUOUS
10
171.803
20
-103.93
11
171.304
21
-104.432
0
LINE
8
BLACK
6
CONTINUOUS
10
171.304
20
-104.432
11
170.778
21
-104.906
0
LINE
8
BLACK
6
CONTINUOUS
10
170.778
20
-104.906
11
170.226
21
-105.35
0
LINE
8
BLACK
6
CONTINUOUS
10
170.226
20
-105.35
11
169.651
21
-105.762
0
LINE
8
BLACK
6
CONTINUOUS
10
169.651
20
-105.762
11
169.053
21
-106.142
0
LINE
8
BLACK
6
CONTINUOUS
10
169.053
20
-106.142
11
168.435
21
-106.487
0
LINE
8
BLACK
6
CONTINUOUS
10
168.435
20
-106.487
11
167.798
21
-106.797
0
LINE
8
BLACK
6
CONTINUOUS
10
167.798
20
-106.797
11
167.145
21
-107.072
0
LINE
8
BLACK
6
CONTINUOUS
10
167.145
20
-107.072
11
166.478
21
-107.309
0
LINE
8
BLACK
6
CONTINUOUS
10
166.478
20
-107.309
11
165.799
21
-107.509
0
LINE
8
BLACK
6
CONTINUOUS
10
165.799
20
-107.509
11
165.11
21
-107.671
0
LINE
8
BLACK
6
CONTINUOUS
10
165.11
20
-107.671
11
164.412
21
-107.794
0
LINE
8
BLACK
6
CONTINUOUS
10
164.412
20
-107.794
11
163.709
21
-107.878
0
LINE
8
BLACK
6
CONTINUOUS
10
163.709
20
-107.878
11
163.003
21
-107.922
0
LINE
8
BLACK
6
CONTINUOUS
10
163.003
20
-107.922
11
162.294
21
-107.927
0
LINE
8
BLACK
6
CONTINUOUS
10
162.294
20
-107.927
11
161.587
21
-107.893
0
LINE
8
BLACK
6
CONTINUOUS
10
161.587
20
-107.893
11
160.883
21
-107.819
0
LINE
8
BLACK
6
CONTINUOUS
10
160.883
20
-107.819
11
160.184
21
-107.705
0
LINE
8
BLACK
6
CONTINUOUS
10
160.184
20
-107.705
11
159.492
21
-107.553
0
LINE
8
BLACK
6
CONTINUOUS
10
159.492
20
-107.553
11
158.81
21
-107.363
0
LINE
8
BLACK
6
CONTINUOUS
10
158.81
20
-107.363
11
158.14
21
-107.135
0
LINE
8
BLACK
6
CONTINUOUS
10
158.14
20
-107.135
11
157.484
21
-106.869
0
LINE
8
BLACK
6
CONTINUOUS
10
157.484
20
-106.869
11
156.843
21
-106.568
0
LINE
8
BLACK
6
CONTINUOUS
10
156.843
20
-106.568
11
156.22
21
-106.231
0
LINE
8
BLACK
6
CONTINUOUS
10
156.22
20
-106.231
11
155.617
21
-105.86
0
LINE
8
BLACK
6
CONTINUOUS
10
155.617
20
-105.86
11
155.035
21
-105.456
0
LINE
8
BLACK
6
CONTINUOUS
10
155.035
20
-105.456
11
154.477
21
-105.02
0
LINE
8
BLACK
6
CONTINUOUS
10
154.477
20
-105.02
11
153.945
21
-104.554
0
LINE
8
BLACK
6
CONTINUOUS
10
153.945
20
-104.554
11
153.439
21
-104.058
0
LINE
8
BLACK
6
CONTINUOUS
10
153.439
20
-104.058
11
152.961
21
-103.535
0
LINE
8
BLACK
6
CONTINUOUS
10
152.961
20
-103.535
11
152.514
21
-102.987
0
LINE
8
BLACK
6
CONTINUOUS
10
152.514
20
-102.987
11
152.098
21
-102.414
0
LINE
8
BLACK
6
CONTINUOUS
10
152.098
20
-102.414
11
151.714
21
-101.819
0
LINE
8
BLACK
6
CONTINUOUS
10
151.714
20
-101.819
11
151.364
21
-101.203
0
LINE
8
BLACK
6
CONTINUOUS
10
151.364
20
-101.203
11
151.049
21
-100.569
0
LINE
8
BLACK
6
CONTINUOUS
10
151.049
20
-100.569
11
150.77
21
-99.9178
0
LINE
8
BLACK
6
CONTINUOUS
10
150.77
20
-99.9178
11
150.528
21
-99.2524
0
LINE
8
BLACK
6
CONTINUOUS
10
150.528
20
-99.2524
11
150.324
21
-98.5746
0
LINE
8
BLACK
6
CONTINUOUS
10
150.324
20
-98.5746
11
150.157
21
-97.8863
0
LINE
8
BLACK
6
CONTINUOUS
10
150.157
20
-97.8863
11
150.029
21
-97.1899
0
LINE
8
BLACK
6
CONTINUOUS
10
150.029
20
-97.1899
11
149.941
21
-96.4874
0
LINE
8
BLACK
6
CONTINUOUS
10
149.941
20
-96.4874
11
149.891
21
-95.781
0
LINE
8
BLACK
6
CONTINUOUS
10
149.891
20
-95.781
11
149.881
21
-95.0746
0
LINE
8
BLACK
6
CONTINUOUS
10
149.881
20
-95.0746
11
149.881
21
-95.073
0
LINE
8
BLACK
6
CONTINUOUS
10
149.881
20
-95.073
11
149.911
21
-94.3655
0
LINE
8
BLACK
6
CONTINUOUS
10
150.055
20
-96.4761
11
150.143
21
-97.1723
0
LINE
8
BLACK
6
CONTINUOUS
10
150.143
20
-97.1723
11
150.27
21
-97.8624
0
LINE
8
BLACK
6
CONTINUOUS
10
150.27
20
-97.8624
11
150.435
21
-98.5444
0
LINE
8
BLACK
6
CONTINUOUS
10
150.435
20
-98.5444
11
150.637
21
-99.2161
0
LINE
8
BLACK
6
CONTINUOUS
10
150.637
20
-99.2161
11
150.877
21
-99.8755
0
LINE
8
BLACK
6
CONTINUOUS
10
150.877
20
-99.8755
11
151.154
21
-100.52
0
LINE
8
BLACK
6
CONTINUOUS
10
151.154
20
-100.52
11
151.466
21
-101.149
0
LINE
8
BLACK
6
CONTINUOUS
10
151.466
20
-101.149
11
151.812
21
-101.759
0
LINE
8
BLACK
6
CONTINUOUS
10
151.812
20
-101.759
11
152.192
21
-102.349
0
LINE
8
BLACK
6
CONTINUOUS
10
152.192
20
-102.349
11
152.605
21
-102.916
0
LINE
8
BLACK
6
CONTINUOUS
10
152.605
20
-102.916
11
153.048
21
-103.46
0
LINE
8
BLACK
6
CONTINUOUS
10
153.048
20
-103.46
11
153.522
21
-103.978
0
LINE
8
BLACK
6
CONTINUOUS
10
153.522
20
-103.978
11
154.023
21
-104.469
0
LINE
8
BLACK
6
CONTINUOUS
10
154.023
20
-104.469
11
154.551
21
-104.931
0
LINE
8
BLACK
6
CONTINUOUS
10
154.551
20
-104.931
11
155.104
21
-105.363
0
LINE
8
BLACK
6
CONTINUOUS
10
155.104
20
-105.363
11
155.68
21
-105.764
0
LINE
8
BLACK
6
CONTINUOUS
10
155.68
20
-105.764
11
156.278
21
-106.132
0
LINE
8
BLACK
6
CONTINUOUS
10
156.278
20
-106.132
11
156.895
21
-106.465
0
LINE
8
BLACK
6
CONTINUOUS
10
156.895
20
-106.465
11
157.53
21
-106.764
0
LINE
8
BLACK
6
CONTINUOUS
10
157.53
20
-106.764
11
158.18
21
-107.027
0
LINE
8
BLACK
6
CONTINUOUS
10
158.18
20
-107.027
11
158.844
21
-107.253
0
LINE
8
BLACK
6
CONTINUOUS
10
158.844
20
-107.253
11
159.52
21
-107.442
0
LINE
8
BLACK
6
CONTINUOUS
10
159.52
20
-107.442
11
160.206
21
-107.592
0
LINE
8
BLACK
6
CONTINUOUS
10
160.206
20
-107.592
11
160.898
21
-107.705
0
LINE
8
BLACK
6
CONTINUOUS
10
160.898
20
-107.705
11
161.596
21
-107.778
0
LINE
8
BLACK
6
CONTINUOUS
10
161.596
20
-107.778
11
162.297
21
-107.812
0
LINE
8
BLACK
6
CONTINUOUS
10
162.297
20
-107.812
11
162.999
21
-107.807
0
LINE
8
BLACK
6
CONTINUOUS
10
162.999
20
-107.807
11
163.699
21
-107.763
0
LINE
8
BLACK
6
CONTINUOUS
10
163.699
20
-107.763
11
164.396
21
-107.68
0
LINE
8
BLACK
6
CONTINUOUS
10
164.396
20
-107.68
11
165.087
21
-107.558
0
LINE
8
BLACK
6
CONTINUOUS
10
165.087
20
-107.558
11
165.77
21
-107.398
0
LINE
8
BLACK
6
CONTINUOUS
10
165.77
20
-107.398
11
166.443
21
-107.2
0
LINE
8
BLACK
6
CONTINUOUS
10
166.443
20
-107.2
11
167.104
21
-106.965
0
LINE
8
BLACK
6
CONTINUOUS
10
167.104
20
-106.965
11
167.751
21
-106.693
0
LINE
8
BLACK
6
CONTINUOUS
10
167.751
20
-106.693
11
168.381
21
-106.385
0
LINE
8
BLACK
6
CONTINUOUS
10
168.381
20
-106.385
11
168.994
21
-106.043
0
LINE
8
BLACK
6
CONTINUOUS
10
168.994
20
-106.043
11
169.586
21
-105.667
0
LINE
8
BLACK
6
CONTINUOUS
10
169.586
20
-105.667
11
170.157
21
-105.258
0
LINE
8
BLACK
6
CONTINUOUS
10
170.157
20
-105.258
11
170.704
21
-104.819
0
LINE
8
BLACK
6
CONTINUOUS
10
170.704
20
-104.819
11
171.225
21
-104.349
0
LINE
8
BLACK
6
CONTINUOUS
10
171.225
20
-104.349
11
171.719
21
-103.851
0
LINE
8
BLACK
6
CONTINUOUS
10
171.719
20
-103.851
11
172.185
21
-103.327
0
LINE
8
BLACK
6
CONTINUOUS
10
172.185
20
-103.327
11
172.621
21
-102.777
0
LINE
8
BLACK
6
CONTINUOUS
10
172.621
20
-102.777
11
173.026
21
-102.203
0
LINE
8
BLACK
6
CONTINUOUS
10
173.026
20
-102.203
11
173.397
21
-101.608
0
LINE
8
BLACK
6
CONTINUOUS
10
173.397
20
-101.608
11
173.735
21
-100.993
0
LINE
8
BLACK
6
CONTINUOUS
10
173.735
20
-100.993
11
174.039
21
-100.361
0
LINE
8
BLACK
6
CONTINUOUS
10
174.039
20
-100.361
11
174.306
21
-99.7119
0
LINE
8
BLACK
6
CONTINUOUS
10
174.306
20
-99.7119
11
174.537
21
-99.0493
0
LINE
8
BLACK
6
CONTINUOUS
10
174.537
20
-99.0493
11
174.73
21
-98.3748
0
LINE
8
BLACK
6
CONTINUOUS
10
174.73
20
-98.3748
11
174.886
21
-97.6905
0
LINE
8
BLACK
6
CONTINUOUS
10
174.886
20
-97.6905
11
175.003
21
-96.9987
0
LINE
8
BLACK
6
CONTINUOUS
10
175.003
20
-96.9987
11
175.081
21
-96.3014
0
LINE
8
BLACK
6
CONTINUOUS
10
175.081
20
-96.3014
11
175.12
21
-95.6008
0
LINE
8
BLACK
6
CONTINUOUS
10
175.12
20
-95.6008
11
175.125
21
-95.25
0
LINE
8
BLACK
6
CONTINUOUS
10
175.125
20
-95.25
11
175.105
21
-94.5486
0
LINE
8
BLACK
6
CONTINUOUS
10
175.105
20
-94.5486
11
175.047
21
-93.8494
0
LINE
8
BLACK
6
CONTINUOUS
10
175.047
20
-93.8494
11
174.949
21
-93.1546
0
LINE
8
BLACK
6
CONTINUOUS
10
174.949
20
-93.1546
11
174.813
21
-92.4663
0
LINE
8
BLACK
6
CONTINUOUS
10
174.813
20
-92.4663
11
174.638
21
-91.7866
0
LINE
8
BLACK
6
CONTINUOUS
10
174.638
20
-91.7866
11
174.426
21
-91.1178
0
LINE
8
BLACK
6
CONTINUOUS
10
174.426
20
-91.1178
11
174.177
21
-90.4619
0
LINE
8
BLACK
6
CONTINUOUS
10
174.177
20
-90.4619
11
173.891
21
-89.8209
0
LINE
8
BLACK
6
CONTINUOUS
10
173.891
20
-89.8209
11
173.571
21
-89.1968
0
LINE
8
BLACK
6
CONTINUOUS
10
173.571
20
-89.1968
11
173.216
21
-88.5916
0
LINE
8
BLACK
6
CONTINUOUS
10
173.216
20
-88.5916
11
172.827
21
-88.0072
0
LINE
8
BLACK
6
CONTINUOUS
10
172.827
20
-88.0072
11
172.407
21
-87.4453
0
LINE
8
BLACK
6
CONTINUOUS
10
172.407
20
-87.4453
11
171.956
21
-86.9078
0
LINE
8
BLACK
6
CONTINUOUS
10
171.956
20
-86.9078
11
171.476
21
-86.3963
0
LINE
8
BLACK
6
CONTINUOUS
10
171.476
20
-86.3963
11
170.968
21
-85.9124
0
LINE
8
BLACK
6
CONTINUOUS
10
170.968
20
-85.9124
11
170.433
21
-85.4577
0
LINE
8
BLACK
6
CONTINUOUS
10
170.433
20
-85.4577
11
169.874
21
-85.0334
0
LINE
8
BLACK
6
CONTINUOUS
10
169.874
20
-85.0334
11
169.293
21
-84.6411
0
LINE
8
BLACK
6
CONTINUOUS
10
169.293
20
-84.6411
11
168.69
21
-84.2818
0
LINE
8
BLACK
6
CONTINUOUS
10
168.69
20
-84.2818
11
168.068
21
-83.9567
0
LINE
8
BLACK
6
CONTINUOUS
10
168.068
20
-83.9567
11
167.429
21
-83.6668
0
LINE
8
BLACK
6
CONTINUOUS
10
167.429
20
-83.6668
11
166.775
21
-83.4131
0
LINE
8
BLACK
6
CONTINUOUS
10
166.775
20
-83.4131
11
166.108
21
-83.1963
0
LINE
8
BLACK
6
CONTINUOUS
10
166.108
20
-83.1963
11
165.429
21
-83.017
0
LINE
8
BLACK
6
CONTINUOUS
10
165.429
20
-83.017
11
164.742
21
-82.8759
0
LINE
8
BLACK
6
CONTINUOUS
10
164.742
20
-82.8759
11
164.048
21
-82.7734
0
LINE
8
BLACK
6
CONTINUOUS
10
164.048
20
-82.7734
11
163.349
21
-82.7099
0
LINE
8
BLACK
6
CONTINUOUS
10
163.349
20
-82.7099
11
162.648
21
-82.6854
0
LINE
8
BLACK
6
CONTINUOUS
10
162.648
20
-82.6854
11
161.946
21
-82.7001
0
LINE
8
BLACK
6
CONTINUOUS
10
161.946
20
-82.7001
11
161.247
21
-82.7539
0
LINE
8
BLACK
6
CONTINUOUS
10
161.247
20
-82.7539
11
160.551
21
-82.8467
0
LINE
8
BLACK
6
CONTINUOUS
10
160.551
20
-82.8467
11
159.862
21
-82.9782
0
LINE
8
BLACK
6
CONTINUOUS
10
159.862
20
-82.9782
11
159.181
21
-83.1479
0
LINE
8
BLACK
6
CONTINUOUS
10
159.181
20
-83.1479
11
158.511
21
-83.3554
0
LINE
8
BLACK
6
CONTINUOUS
10
158.511
20
-83.3554
11
157.853
21
-83.6
0
LINE
8
BLACK
6
CONTINUOUS
10
157.853
20
-83.6
11
157.21
21
-83.8809
0
LINE
8
BLACK
6
CONTINUOUS
10
157.21
20
-83.8809
11
156.584
21
-84.1973
0
LINE
8
BLACK
6
CONTINUOUS
10
156.584
20
-84.1973
11
155.976
21
-84.5481
0
LINE
8
BLACK
6
CONTINUOUS
10
155.976
20
-84.5481
11
155.389
21
-84.9323
0
LINE
8
BLACK
6
CONTINUOUS
10
155.389
20
-84.9323
11
154.824
21
-85.3487
0
LINE
8
BLACK
6
CONTINUOUS
10
154.824
20
-85.3487
11
154.284
21
-85.7959
0
LINE
8
BLACK
6
CONTINUOUS
10
154.284
20
-85.7959
11
153.769
21
-86.2727
0
LINE
8
BLACK
6
CONTINUOUS
10
153.769
20
-86.2727
11
153.281
21
-86.7774
0
LINE
8
BLACK
6
CONTINUOUS
10
153.281
20
-86.7774
11
152.823
21
-87.3086
0
LINE
8
BLACK
6
CONTINUOUS
10
152.823
20
-87.3086
11
152.395
21
-87.8645
0
LINE
8
BLACK
6
CONTINUOUS
10
152.395
20
-87.8645
11
151.998
21
-88.4435
0
LINE
8
BLACK
6
CONTINUOUS
10
151.998
20
-88.4435
11
151.635
21
-89.0436
0
LINE
8
BLACK
6
CONTINUOUS
10
151.635
20
-89.0436
11
151.305
21
-89.6632
0
LINE
8
BLACK
6
CONTINUOUS
10
151.305
20
-89.6632
11
151.011
21
-90.3001
0
LINE
8
BLACK
6
CONTINUOUS
10
151.011
20
-90.3001
11
150.753
21
-90.9525
0
LINE
8
BLACK
6
CONTINUOUS
10
150.753
20
-90.9525
11
150.531
21
-91.6183
0
LINE
8
BLACK
6
CONTINUOUS
10
150.531
20
-91.6183
11
150.347
21
-92.2955
0
LINE
8
BLACK
6
CONTINUOUS
10
150.347
20
-92.2955
11
150.201
21
-92.9818
0
LINE
8
BLACK
6
CONTINUOUS
10
150.201
20
-92.9818
11
150.094
21
-93.6752
0
LINE
8
BLACK
6
CONTINUOUS
10
150.094
20
-93.6752
11
150.026
21
-94.3735
0
LINE
8
BLACK
6
CONTINUOUS
10
150.026
20
-94.3735
11
149.996
21
-95.0746
0
LINE
8
BLACK
6
CONTINUOUS
10
149.996
20
-95.0746
11
150.006
21
-95.7762
0
LINE
8
BLACK
6
CONTINUOUS
10
150.006
20
-95.7762
11
150.055
21
-96.4761
0
CIRCLE
8
BLACK
10
254
20
-108.585
40
0.4
0
CIRCLE
8
BLACK
10
254
20
-111.085
40
0.4
0
CIRCLE
8
BLACK
10
238.76
20
-67.31
40
0.4
0
CIRCLE
8
BLACK
10
233.76
20
-67.31
40
0.4
0
CIRCLE
8
BLACK
10
218.6
20
-74.93
40
0.5
0
CIRCLE
8
BLACK
10
228.6
20
-74.93
40
0.5
0
CIRCLE
8
BLACK
10
218.6
20
-67.31
40
0.5
0
CIRCLE
8
BLACK
10
228.6
20
-67.31
40
0.5
0
CIRCLE
8
BLACK
10
201.93
20
-87.63
40
0.4
0
CIRCLE
8
BLACK
10
201.93
20
-90.13
40
0.4
0
CIRCLE
8
BLACK
10
203.2
20
-103.505
40
0.4
0
CIRCLE
8
BLACK
10
208.2
20
-103.505
40
0.4
0
CIRCLE
8
BLACK
10
213.36
20
-49.53
40
1.25
0
CIRCLE
8
BLACK
10
208.86
20
-49.53
40
1.25
0
CIRCLE
8
BLACK
10
213.36
20
-61.53
40
0.6
0
CIRCLE
8
BLACK
10
208.86
20
-61.53
40
0.6
0
CIRCLE
8
BLACK
10
248.92
20
-92.71
40
0.4
0
CIRCLE
8
BLACK
10
259.08
20
-92.71
40
0.4
0
CIRCLE
8
BLACK
10
248.92
20
-102.87
40
0.4
0
CIRCLE
8
BLACK
10
259.08
20
-102.87
40
0.4
0
CIRCLE
8
BLACK
10
233.68
20
-120.65
40
0.6
0
CIRCLE
8
BLACK
10
213.36
20
-120.65
40
0.6
0
CIRCLE
8
BLACK
10
233.68
20
-49.53
40
1.25
0
CIRCLE
8
BLACK
10
224.68
20
-49.53
40
1.25
0
CIRCLE
8
BLACK
10
229.18
20
-49.53
40
1.25
0
CIRCLE
8
BLACK
10
233.68
20
-61.53
40
0.6
0
CIRCLE
8
BLACK
10
229.18
20
-61.53
40
0.6
0
CIRCLE
8
BLACK
10
224.68
20
-61.53
40
0.6
0
CIRCLE
8
BLACK
10
207.01
20
-87.63
40
0.4
0
CIRCLE
8
BLACK
10
207.01
20
-97.79
40
0.4
0
CIRCLE
8
BLACK
10
182.88
20
-107.95
40
0.6
0
CIRCLE
8
BLACK
10
182.88
20
-87.63
40
0.6
0
CIRCLE
8
BLACK
10
140.97
20
-74.93
40
0.6
0
CIRCLE
8
BLACK
10
140.97
20
-95.25
40
0.6
0
CIRCLE
8
BLACK
10
193.04
20
-72.39
40
0.4
0
CIRCLE
8
BLACK
10
188.04
20
-72.39
40
0.4
0
CIRCLE
8
BLACK
10
152.48
20
-72.39
40
0.4
0
CIRCLE
8
BLACK
10
157.48
20
-72.39
40
0.4
0
CIRCLE
8
BLACK
10
142.875
20
-69.85
40
0.4
0
CIRCLE
8
BLACK
10
132.715
20
-69.85
40
0.4
0
CIRCLE
8
BLACK
10
248.92
20
-97.79
40
0.4
0
CIRCLE
8
BLACK
10
259.08
20
-97.79
40
0.4
0
CIRCLE
8
BLACK
10
127
20
-49.53
40
1.6
0
CIRCLE
8
BLACK
10
256.54
20
-49.53
40
1.6
0
CIRCLE
8
BLACK
10
256.54
20
-140.97
40
1.6
0
CIRCLE
8
BLACK
10
127
20
-140.97
40
1.6
0
CIRCLE
8
BLACK
10
125.73
20
-75.09
40
0.5
0
CIRCLE
8
BLACK
10
125.73
20
-85.09
40
0.5
0
CIRCLE
8
BLACK
10
187.96
20
-95.25
40
0.4
0
CIRCLE
8
BLACK
10
198.12
20
-95.25
40
0.4
0
CIRCLE
8
BLACK
10
132.715
20
-95.25
40
0.6
0
CIRCLE
8
BLACK
10
132.715
20
-74.93
40
0.6
0
CIRCLE
8
BLACK
10
243.84
20
-107.95
40
0.6
0
CIRCLE
8
BLACK
10
243.84
20
-87.63
40
0.6
0
CIRCLE
8
BLACK
10
187.96
20
-100.33
40
0.4
0
CIRCLE
8
BLACK
10
198.12
20
-100.33
40
0.4
0
CIRCLE
8
BLACK
10
172.72
20
-123.19
40
0.6
0
CIRCLE
8
BLACK
10
152.4
20
-123.19
40
0.6
0
CIRCLE
8
BLACK
10
210.82
20
-80.01
40
1.6
0
CIRCLE
8
BLACK
10
236.22
20
-110.49
40
1.6
0
CIRCLE
8
BLACK
10
149.86
20
-80.01
40
1.6
0
CIRCLE
8
BLACK
10
175.26
20
-110.49
40
1.6
0
CIRCLE
8
BLACK
10
210.82
20
-130.81
40
0.6
0
CIRCLE
8
BLACK
10
210.82
20
-138.31
40
0.6
0
CIRCLE
8
BLACK
10
128.44
20
-129.54
40
1.4
0
CIRCLE
8
BLACK
10
128.44
20
-134.34
40
1.4
0
CIRCLE
8
BLACK
10
142.24
20
-129.54
40
0.775
0
CIRCLE
8
BLACK
10
142.24
20
-134.34
40
0.775
0
CIRCLE
8
BLACK
10
128.44
20
-110.49
40
1.4
0
CIRCLE
8
BLACK
10
128.44
20
-115.29
40
1.4
0
CIRCLE
8
BLACK
10
142.24
20
-110.49
40
0.775
0
CIRCLE
8
BLACK
10
142.24
20
-115.29
40
0.775
0
CIRCLE
8
BLACK
10
146.05
20
-130.81
40
0.6
0
CIRCLE
8
BLACK
10
166.37
20
-130.81
40
0.6
0
CIRCLE
8
BLACK
10
203.2
20
-123.19
40
0.6
0
CIRCLE
8
BLACK
10
182.88
20
-123.19
40
0.6
0
CIRCLE
8
BLACK
10
240.665
20
-120.65
40
0.6
0
CIRCLE
8
BLACK
10
240.665
20
-140.97
40
0.6
0
CIRCLE
8
BLACK
10
177.8
20
-130.81
40
0.6
0
CIRCLE
8
BLACK
10
177.8
20
-138.31
40
0.6
0
CIRCLE
8
BLACK
10
82.55
20
-121.285
40
0.55
0
CIRCLE
8
BLACK
10
82.55
20
-111.125
40
0.55
0
CIRCLE
8
BLACK
10
114.3
20
-49.53
40
1.6
0
CIRCLE
8
BLACK
10
40.64
20
-49.53
40
1.6
0
CIRCLE
8
BLACK
10
72.39
20
-121.285
40
0.55
0
CIRCLE
8
BLACK
10
72.39
20
-111.125
40
0.55
0
CIRCLE
8
BLACK
10
67.31
20
-73.66
40
0.6
0
CIRCLE
8
BLACK
10
67.31
20
-104.14
40
0.6
0
CIRCLE
8
BLACK
10
41.91
20
-73.66
40
0.6
0
CIRCLE
8
BLACK
10
41.91
20
-104.14
40
0.6
0
CIRCLE
8
BLACK
10
92.71
20
-130.64
40
1.4
0
CIRCLE
8
BLACK
10
97.51
20
-130.64
40
1.4
0
CIRCLE
8
BLACK
10
107.11
20
-130.64
40
1.4
0
CIRCLE
8
BLACK
10
102.31
20
-130.64
40
1.4
0
CIRCLE
8
BLACK
10
92.71
20
-116.84
40
0.775
0
CIRCLE
8
BLACK
10
97.51
20
-116.84
40
0.775
0
CIRCLE
8
BLACK
10
102.31
20
-116.84
40
0.775
0
CIRCLE
8
BLACK
10
107.11
20
-116.84
40
0.775
0
CIRCLE
8
BLACK
10
43.18
20
-111.76
40
0.8
0
CIRCLE
8
BLACK
10
48.26
20
-111.76
40
0.8
0
CIRCLE
8
BLACK
10
53.34
20
-111.76
40
0.8
0
CIRCLE
8
BLACK
10
58.42
20
-111.76
40
0.8
0
CIRCLE
8
BLACK
10
97.79
20
-77.216
40
0.6
0
CIRCLE
8
BLACK
10
105.29
20
-77.216
40
0.6
0
CIRCLE
8
BLACK
10
48.26
20
-130.64
40
1.4
0
CIRCLE
8
BLACK
10
53.06
20
-130.64
40
1.4
0
CIRCLE
8
BLACK
10
48.26
20
-116.84
40
0.775
0
CIRCLE
8
BLACK
10
53.06
20
-116.84
40
0.775
0
CIRCLE
8
BLACK
10
50.8
20
-96.266
40
0.6
0
CIRCLE
8
BLACK
10
58.3
20
-96.266
40
0.6
0
CIRCLE
8
BLACK
10
50.8
20
-78.486
40
0.6
0
CIRCLE
8
BLACK
10
58.3
20
-78.486
40
0.6
0
CIRCLE
8
BLACK
10
77.47
20
-97.536
40
0.6
0
CIRCLE
8
BLACK
10
84.97
20
-97.536
40
0.6
0
CIRCLE
8
BLACK
10
97.79
20
-97.536
40
0.6
0
CIRCLE
8
BLACK
10
105.29
20
-97.536
40
0.6
0
CIRCLE
8
BLACK
10
107.162
20
-50.716
40
1.4
0
CIRCLE
8
BLACK
10
102.362
20
-50.716
40
1.4
0
CIRCLE
8
BLACK
10
97.562
20
-50.716
40
1.4
0
CIRCLE
8
BLACK
10
87.962
20
-50.716
40
1.4
0
CIRCLE
8
BLACK
10
92.762
20
-50.716
40
1.4
0
CIRCLE
8
BLACK
10
107.162
20
-64.516
40
0.775
0
CIRCLE
8
BLACK
10
102.362
20
-64.516
40
0.775
0
CIRCLE
8
BLACK
10
97.562
20
-64.516
40
0.775
0
CIRCLE
8
BLACK
10
92.762
20
-64.516
40
0.775
0
CIRCLE
8
BLACK
10
87.962
20
-64.516
40
0.775
0
CIRCLE
8
BLACK
10
115.57
20
-73.66
40
0.6
0
CIRCLE
8
BLACK
10
115.57
20
-104.14
40
0.6
0
CIRCLE
8
BLACK
10
82.55
20
-134.62
40
0.55
0
CIRCLE
8
BLACK
10
82.55
20
-124.46
40
0.55
0
CIRCLE
8
BLACK
10
53.34
20
-50.546
40
1.4
0
CIRCLE
8
BLACK
10
48.54
20
-50.546
40
1.4
0
CIRCLE
8
BLACK
10
53.34
20
-64.346
40
0.775
0
CIRCLE
8
BLACK
10
48.54
20
-64.346
40
0.775
0
CIRCLE
8
BLACK
10
114.3
20
-132.08
40
1.6
0
CIRCLE
8
BLACK
10
40.64
20
-132.08
40
1.6
0
CIRCLE
8
BLACK
10
77.47
20
-77.216
40
0.6
0
CIRCLE
8
BLACK
10
84.97
20
-77.216
40
0.6
0
CIRCLE
8
BLACK
10
67.31
20
-124.46
40
0.55
0
CIRCLE
8
BLACK
10
67.31
20
-134.62
40
0.55
0
CIRCLE
8
BLACK
10
67.31
20
-111.125
40
0.55
0
CIRCLE
8
BLACK
10
67.31
20
-121.285
40
0.55
0
CIRCLE
8
BLACK
10
77.47
20
-124.46
40
0.55
0
CIRCLE
8
BLACK
10
77.47
20
-134.62
40
0.55
0
CIRCLE
8
BLACK
10
77.47
20
-111.125
40
0.55
0
CIRCLE
8
BLACK
10
77.47
20
-121.285
40
0.55
0
CIRCLE
8
BLACK
10
72.39
20
-134.62
40
0.55
0
CIRCLE
8
BLACK
10
72.39
20
-124.46
40
0.55
0
CIRCLE
8
BLACK
10
243.785
20
-49.595
40
1.25
0
CIRCLE
8
BLACK
10
248.285
20
-49.595
40
1.25
0
CIRCLE
8
BLACK
10
248.285
20
-61.595
40
0.6
0
CIRCLE
8
BLACK
10
243.785
20
-61.595
40
0.6
0
CIRCLE
8
BLACK
10
135.835
20
-49.595
40
1.25
0
CIRCLE
8
BLACK
10
140.335
20
-49.595
40
1.25
0
CIRCLE
8
BLACK
10
140.335
20
-61.595
40
0.6
0
CIRCLE
8
BLACK
10
135.835
20
-61.595
40
0.6
0
CIRCLE
8
BLACK
10
193.04
20
-80.01
40
0.6
0
CIRCLE
8
BLACK
10
172.72
20
-80.01
40
0.6
0
CIRCLE
8
BLACK
10
251.46
20
-80.01
40
0.6
0
CIRCLE
8
BLACK
10
231.14
20
-80.01
40
0.6
0
CIRCLE
8
BLACK
10
162.56
20
-95.25
40
0.5
0
CIRCLE
8
BLACK
10
162.56
20
-81
40
1.6
0
CIRCLE
8
BLACK
10
162.56
20
-109.5
40
0.65
0
CIRCLE
8
BLACK
10
154.065
20
-101.422
40
0.9
0
CIRCLE
8
BLACK
10
152.06
20
-95.25
40
0.9
0
CIRCLE
8
BLACK
10
154.065
20
-89.0783
40
0.9
0
CIRCLE
8
BLACK
10
159.315
20
-85.2639
40
0.9
0
CIRCLE
8
BLACK
10
165.805
20
-85.2639
40
0.9
0
CIRCLE
8
BLACK
10
171.055
20
-89.0783
40
0.9
0
CIRCLE
8
BLACK
10
173.06
20
-95.25
40
0.9
0
CIRCLE
8
BLACK
10
171.055
20
-101.422
40
0.9
0
CIRCLE
8
BLACK
10
165.805
20
-105.236
40
0.9
0
CIRCLE
8
BLACK
10
223.52
20
-81
40
1.6
0
CIRCLE
8
BLACK
10
223.52
20
-95.25
40
0.5
0
CIRCLE
8
BLACK
10
223.52
20
-109.5
40
0.65
0
CIRCLE
8
BLACK
10
215.025
20
-101.422
40
0.9
0
CIRCLE
8
BLACK
10
213.02
20
-95.25
40
0.9
0
CIRCLE
8
BLACK
10
215.025
20
-89.0783
40
0.9
0
CIRCLE
8
BLACK
10
220.275
20
-85.2639
40
0.9
0
CIRCLE
8
BLACK
10
226.765
20
-85.2639
40
0.9
0
CIRCLE
8
BLACK
10
232.015
20
-89.0783
40
0.9
0
CIRCLE
8
BLACK
10
234.02
20
-95.25
40
0.9
0
CIRCLE
8
BLACK
10
232.015
20
-101.422
40
0.9
0
CIRCLE
8
BLACK
10
226.765
20
-105.236
40
0.9
  0
ENDSEC
  0
EOF
