  0
SECTION
  2
HEADER
  9
$ANGBASE
  50
0.0
  9
$ANGDIR
  70
1
  9
$MEASUREMENT
  70
1
  0
ENDSEC
  0
SECTION
  2
TABLES
  0
TABLE
  2
LTYPE
  70
4
  0
LTYPE
  5
40F
  2
CONTINUOUS
  70
0
  3
Solid line
  72
65
  73
0
  40
0.0
  0
LTYPE
  5
410
  2
DASHDOT
 70
0
  3
Dash Dot ____ _ ____ _
 72
65
 73
4
 40
2.0
 49
1.25
 49
-0.25
 49
0.25
 49
-0.25
  0
LTYPE
  5
411
  2
DASHED
 70
0
  3
Dashed __ __ __ __ __
 72
65
 73
2
 40
0.75
 49
0.5
 49
-0.25
  0
LTYPE
  5
43B
  2
DOTTED
 70
0
  3
Dotted .  .  .  .
 72
65
 73
2
 40
0.2
 49
0.0
 49
-0.2
  0
ENDTAB
  0
TABLE
  2
STYLE
  70
4
  0
STYLE
  2
KICAD
  70
0
  40
0
  41
1
  42
1
  50
0
  71
0
  3
isocp.shx
  0
STYLE
  2
KICADB
  70
0
  40
0
  41
1
  42
1
  50
0
  71
0
  3
isocp.shx
  0
STYLE
  2
KICADI
  70
0
  40
0
  41
1
  42
1
  50
15
  71
0
  3
isocp.shx
  0
STYLE
  2
KICADBI
  70
0
  40
0
  41
1
  42
1
  50
15
  71
0
  3
isocp.shx
  0
ENDTAB
  0
TABLE
  2
LAYER
  70
1
  0
LAYER
  2
BLACK
  70
0
  62
7
  6
CONTINUOUS
  0
ENDTAB
  0
ENDSEC
  0
SECTION
  2
ENTITIES
0
LINE
8
BLACK
6
CONTINUOUS
10
67.838
20
-169.476
11
67.8917
21
-169.429
0
LINE
8
BLACK
6
CONTINUOUS
10
67.8917
20
-169.429
11
67.944
21
-169.418
0
LINE
8
BLACK
6
CONTINUOUS
10
67.944
20
-169.418
11
498.476
21
-169.418
0
LINE
8
BLACK
6
CONTINUOUS
10
498.476
20
-169.418
11
498.544
21
-169.438
0
LINE
8
BLACK
6
CONTINUOUS
10
498.544
20
-169.438
11
498.591
21
-169.492
0
LINE
8
BLACK
6
CONTINUOUS
10
498.591
20
-169.492
11
498.602
21
-169.544
0
LINE
8
BLACK
6
CONTINUOUS
10
498.602
20
-169.544
11
498.602
21
-238.126
0
LINE
8
BLACK
6
CONTINUOUS
10
498.602
20
-238.126
11
498.582
21
-238.194
0
LINE
8
BLACK
6
CONTINUOUS
10
498.582
20
-238.194
11
498.528
21
-238.241
0
LINE
8
BLACK
6
CONTINUOUS
10
498.528
20
-238.241
11
498.476
21
-238.252
0
LINE
8
BLACK
6
CONTINUOUS
10
498.476
20
-238.252
11
67.944
21
-238.252
0
LINE
8
BLACK
6
CONTINUOUS
10
67.944
20
-238.252
11
67.8759
21
-238.232
0
LINE
8
BLACK
6
CONTINUOUS
10
67.8759
20
-238.232
11
67.8294
21
-238.178
0
LINE
8
BLACK
6
CONTINUOUS
10
67.8294
20
-238.178
11
67.818
21
-238.126
0
LINE
8
BLACK
6
CONTINUOUS
10
67.818
20
-238.126
11
67.818
21
-169.544
0
LINE
8
BLACK
6
CONTINUOUS
10
67.818
20
-169.544
11
67.838
21
-169.476
0
LINE
8
BLACK
6
CONTINUOUS
10
98.369
20
-209.117
11
98.3778
21
-209.122
0
LINE
8
BLACK
6
CONTINUOUS
10
98.3778
20
-209.122
11
98.588
21
-209.209
0
LINE
8
BLACK
6
CONTINUOUS
10
98.588
20
-209.209
11
98.5974
21
-209.212
0
LINE
8
BLACK
6
CONTINUOUS
10
98.5974
20
-209.212
11
98.8186
21
-209.265
0
LINE
8
BLACK
6
CONTINUOUS
10
98.8186
20
-209.265
11
98.8283
21
-209.266
0
LINE
8
BLACK
6
CONTINUOUS
10
98.8283
20
-209.266
11
99.0551
21
-209.284
0
LINE
8
BLACK
6
CONTINUOUS
10
99.0551
20
-209.284
11
99.0649
21
-209.284
0
LINE
8
BLACK
6
CONTINUOUS
10
99.0649
20
-209.284
11
99.2917
21
-209.266
0
LINE
8
BLACK
6
CONTINUOUS
10
99.2917
20
-209.266
11
99.3014
21
-209.265
0
LINE
8
BLACK
6
CONTINUOUS
10
99.3014
20
-209.265
11
99.5226
21
-209.212
0
LINE
8
BLACK
6
CONTINUOUS
10
99.5226
20
-209.212
11
99.532
21
-209.209
0
LINE
8
BLACK
6
CONTINUOUS
10
99.532
20
-209.209
11
99.7422
21
-209.122
0
LINE
8
BLACK
6
CONTINUOUS
10
99.7422
20
-209.122
11
99.751
21
-209.117
0
LINE
8
BLACK
6
CONTINUOUS
10
99.751
20
-209.117
11
99.9184
21
-209.015
0
LINE
8
BLACK
6
CONTINUOUS
10
99.9184
20
-209.015
11
99.9279
21
-209.004
0
LINE
8
BLACK
6
CONTINUOUS
10
99.9279
20
-209.004
11
99.9241
21
-208.995
0
LINE
8
BLACK
6
CONTINUOUS
10
99.9241
20
-208.995
11
99.5621
21
-208.633
0
LINE
8
BLACK
6
CONTINUOUS
10
99.5621
20
-208.633
11
99.4216
21
-208.704
0
LINE
8
BLACK
6
CONTINUOUS
10
99.4216
20
-208.704
11
99.2336
21
-208.757
0
LINE
8
BLACK
6
CONTINUOUS
10
99.2336
20
-208.757
11
99.0391
21
-208.772
0
LINE
8
BLACK
6
CONTINUOUS
10
99.0391
20
-208.772
11
98.8453
21
-208.749
0
LINE
8
BLACK
6
CONTINUOUS
10
98.8453
20
-208.749
11
98.6597
21
-208.688
0
LINE
8
BLACK
6
CONTINUOUS
10
98.6597
20
-208.688
11
98.5591
21
-208.632
0
LINE
8
BLACK
6
CONTINUOUS
10
98.5591
20
-208.632
11
98.1989
21
-208.992
0
LINE
8
BLACK
6
CONTINUOUS
10
98.1989
20
-208.992
11
98.1922
21
-209.005
0
LINE
8
BLACK
6
CONTINUOUS
10
98.1922
20
-209.005
11
98.1979
21
-209.012
0
LINE
8
BLACK
6
CONTINUOUS
10
98.1979
20
-209.012
11
98.369
21
-209.117
0
LINE
8
BLACK
6
CONTINUOUS
10
100.283
20
-206.908
11
99.9206
21
-207.271
0
LINE
8
BLACK
6
CONTINUOUS
10
99.9206
20
-207.271
11
99.9845
21
-207.391
0
LINE
8
BLACK
6
CONTINUOUS
10
99.9845
20
-207.391
11
100.041
21
-207.578
0
LINE
8
BLACK
6
CONTINUOUS
10
100.041
20
-207.578
11
100.06
21
-207.772
0
LINE
8
BLACK
6
CONTINUOUS
10
100.06
20
-207.772
11
100.06
21
-207.8
0
LINE
8
BLACK
6
CONTINUOUS
10
100.06
20
-207.8
11
100.035
21
-207.994
0
LINE
8
BLACK
6
CONTINUOUS
10
100.035
20
-207.994
11
99.9735
21
-208.179
0
LINE
8
BLACK
6
CONTINUOUS
10
99.9735
20
-208.179
11
99.9201
21
-208.273
0
LINE
8
BLACK
6
CONTINUOUS
10
99.9201
20
-208.273
11
100.28
21
-208.633
0
LINE
8
BLACK
6
CONTINUOUS
10
100.28
20
-208.633
11
100.293
21
-208.64
0
LINE
8
BLACK
6
CONTINUOUS
10
100.293
20
-208.64
11
100.3
21
-208.634
0
LINE
8
BLACK
6
CONTINUOUS
10
100.3
20
-208.634
11
100.405
21
-208.463
0
LINE
8
BLACK
6
CONTINUOUS
10
100.405
20
-208.463
11
100.41
21
-208.454
0
LINE
8
BLACK
6
CONTINUOUS
10
100.41
20
-208.454
11
100.497
21
-208.244
0
LINE
8
BLACK
6
CONTINUOUS
10
100.497
20
-208.244
11
100.5
21
-208.235
0
LINE
8
BLACK
6
CONTINUOUS
10
100.5
20
-208.235
11
100.553
21
-208.013
0
LINE
8
BLACK
6
CONTINUOUS
10
100.553
20
-208.013
11
100.554
21
-208.004
0
LINE
8
BLACK
6
CONTINUOUS
10
100.554
20
-208.004
11
100.572
21
-207.777
0
LINE
8
BLACK
6
CONTINUOUS
10
100.572
20
-207.777
11
100.572
21
-207.767
0
LINE
8
BLACK
6
CONTINUOUS
10
100.572
20
-207.767
11
100.554
21
-207.54
0
LINE
8
BLACK
6
CONTINUOUS
10
100.554
20
-207.54
11
100.553
21
-207.531
0
LINE
8
BLACK
6
CONTINUOUS
10
100.553
20
-207.531
11
100.5
21
-207.309
0
LINE
8
BLACK
6
CONTINUOUS
10
100.5
20
-207.309
11
100.497
21
-207.3
0
LINE
8
BLACK
6
CONTINUOUS
10
100.497
20
-207.3
11
100.41
21
-207.09
0
LINE
8
BLACK
6
CONTINUOUS
10
100.41
20
-207.09
11
100.405
21
-207.081
0
LINE
8
BLACK
6
CONTINUOUS
10
100.405
20
-207.081
11
100.303
21
-206.914
0
LINE
8
BLACK
6
CONTINUOUS
10
100.303
20
-206.914
11
100.292
21
-206.904
0
LINE
8
BLACK
6
CONTINUOUS
10
100.292
20
-206.904
11
100.283
21
-206.908
0
LINE
8
BLACK
6
CONTINUOUS
10
97.5671
20
-208.013
11
97.6202
21
-208.235
0
LINE
8
BLACK
6
CONTINUOUS
10
97.6202
20
-208.235
11
97.6233
21
-208.244
0
LINE
8
BLACK
6
CONTINUOUS
10
97.6233
20
-208.244
11
97.7103
21
-208.454
0
LINE
8
BLACK
6
CONTINUOUS
10
97.7103
20
-208.454
11
97.7148
21
-208.463
0
LINE
8
BLACK
6
CONTINUOUS
10
97.7148
20
-208.463
11
97.8174
21
-208.63
0
LINE
8
BLACK
6
CONTINUOUS
10
97.8174
20
-208.63
11
97.8279
21
-208.64
0
LINE
8
BLACK
6
CONTINUOUS
10
97.8279
20
-208.64
11
97.8367
21
-208.636
0
LINE
8
BLACK
6
CONTINUOUS
10
97.8367
20
-208.636
11
98.1989
21
-208.274
0
LINE
8
BLACK
6
CONTINUOUS
10
98.1989
20
-208.274
11
98.1302
21
-208.14
0
LINE
8
BLACK
6
CONTINUOUS
10
98.1302
20
-208.14
11
98.0764
21
-207.953
0
LINE
8
BLACK
6
CONTINUOUS
10
98.0764
20
-207.953
11
98.0601
21
-207.758
0
LINE
8
BLACK
6
CONTINUOUS
10
98.0601
20
-207.758
11
98.0819
21
-207.564
0
LINE
8
BLACK
6
CONTINUOUS
10
98.0819
20
-207.564
11
98.1409
21
-207.378
0
LINE
8
BLACK
6
CONTINUOUS
10
98.1409
20
-207.378
11
98.1997
21
-207.271
0
LINE
8
BLACK
6
CONTINUOUS
10
98.1997
20
-207.271
11
97.8397
21
-206.911
0
LINE
8
BLACK
6
CONTINUOUS
10
97.8397
20
-206.911
11
97.8273
21
-206.904
0
LINE
8
BLACK
6
CONTINUOUS
10
97.8273
20
-206.904
11
97.8197
21
-206.91
0
LINE
8
BLACK
6
CONTINUOUS
10
97.8197
20
-206.91
11
97.7148
21
-207.081
0
LINE
8
BLACK
6
CONTINUOUS
10
97.7148
20
-207.081
11
97.7103
21
-207.09
0
LINE
8
BLACK
6
CONTINUOUS
10
97.7103
20
-207.09
11
97.6233
21
-207.3
0
LINE
8
BLACK
6
CONTINUOUS
10
97.6233
20
-207.3
11
97.6202
21
-207.309
0
LINE
8
BLACK
6
CONTINUOUS
10
97.6202
20
-207.309
11
97.5671
21
-207.531
0
LINE
8
BLACK
6
CONTINUOUS
10
97.5671
20
-207.531
11
97.5656
21
-207.54
0
LINE
8
BLACK
6
CONTINUOUS
10
97.5656
20
-207.54
11
97.5477
21
-207.767
0
LINE
8
BLACK
6
CONTINUOUS
10
97.5477
20
-207.767
11
97.5477
21
-207.777
0
LINE
8
BLACK
6
CONTINUOUS
10
97.5477
20
-207.777
11
97.5656
21
-208.004
0
LINE
8
BLACK
6
CONTINUOUS
10
97.5656
20
-208.004
11
97.5671
21
-208.013
0
LINE
8
BLACK
6
CONTINUOUS
10
430.857
20
-200.959
11
430.857
21
-200.962
0
LINE
8
BLACK
6
CONTINUOUS
10
430.857
20
-200.962
11
430.897
21
-201.334
0
LINE
8
BLACK
6
CONTINUOUS
10
430.897
20
-201.334
11
430.902
21
-201.38
0
LINE
8
BLACK
6
CONTINUOUS
10
430.902
20
-201.38
11
430.985
21
-201.796
0
LINE
8
BLACK
6
CONTINUOUS
10
430.985
20
-201.796
11
430.985
21
-201.799
0
LINE
8
BLACK
6
CONTINUOUS
10
430.985
20
-201.799
11
430.985
21
-201.799
0
LINE
8
BLACK
6
CONTINUOUS
10
430.985
20
-201.799
11
430.989
21
-201.81
0
LINE
8
BLACK
6
CONTINUOUS
10
430.989
20
-201.81
11
431.104
21
-202.203
0
LINE
8
BLACK
6
CONTINUOUS
10
431.104
20
-202.203
11
431.105
21
-202.205
0
LINE
8
BLACK
6
CONTINUOUS
10
431.105
20
-202.205
11
431.105
21
-202.205
0
LINE
8
BLACK
6
CONTINUOUS
10
431.105
20
-202.205
11
431.242
21
-202.554
0
LINE
8
BLACK
6
CONTINUOUS
10
431.242
20
-202.554
11
431.259
21
-202.597
0
LINE
8
BLACK
6
CONTINUOUS
10
431.259
20
-202.597
11
431.26
21
-202.6
0
LINE
8
BLACK
6
CONTINUOUS
10
431.26
20
-202.6
11
431.415
21
-202.909
0
LINE
8
BLACK
6
CONTINUOUS
10
431.415
20
-202.909
11
431.448
21
-202.976
0
LINE
8
BLACK
6
CONTINUOUS
10
431.448
20
-202.976
11
431.671
21
-203.337
0
LINE
8
BLACK
6
CONTINUOUS
10
431.671
20
-203.337
11
431.924
21
-203.677
0
LINE
8
BLACK
6
CONTINUOUS
10
431.924
20
-203.677
11
431.926
21
-203.679
0
LINE
8
BLACK
6
CONTINUOUS
10
431.926
20
-203.679
11
431.926
21
-203.679
0
LINE
8
BLACK
6
CONTINUOUS
10
431.926
20
-203.679
11
432.177
21
-203.958
0
LINE
8
BLACK
6
CONTINUOUS
10
432.177
20
-203.958
11
432.207
21
-203.992
0
LINE
8
BLACK
6
CONTINUOUS
10
432.207
20
-203.992
11
432.209
21
-203.994
0
LINE
8
BLACK
6
CONTINUOUS
10
432.209
20
-203.994
11
432.209
21
-203.994
0
LINE
8
BLACK
6
CONTINUOUS
10
432.209
20
-203.994
11
432.319
21
-204.097
0
LINE
8
BLACK
6
CONTINUOUS
10
432.319
20
-204.097
11
432.517
21
-204.282
0
LINE
8
BLACK
6
CONTINUOUS
10
432.517
20
-204.282
11
432.519
21
-204.283
0
LINE
8
BLACK
6
CONTINUOUS
10
432.519
20
-204.283
11
432.519
21
-204.283
0
LINE
8
BLACK
6
CONTINUOUS
10
432.519
20
-204.283
11
432.6
21
-204.347
0
LINE
8
BLACK
6
CONTINUOUS
10
432.6
20
-204.347
11
432.851
21
-204.542
0
LINE
8
BLACK
6
CONTINUOUS
10
432.851
20
-204.542
11
432.954
21
-204.609
0
LINE
8
BLACK
6
CONTINUOUS
10
432.954
20
-204.609
11
433.205
21
-204.771
0
LINE
8
BLACK
6
CONTINUOUS
10
433.205
20
-204.771
11
433.205
21
-204.771
0
LINE
8
BLACK
6
CONTINUOUS
10
433.205
20
-204.771
11
433.207
21
-204.772
0
LINE
8
BLACK
6
CONTINUOUS
10
433.207
20
-204.772
11
433.582
21
-204.97
0
LINE
8
BLACK
6
CONTINUOUS
10
433.582
20
-204.97
11
433.585
21
-204.971
0
LINE
8
BLACK
6
CONTINUOUS
10
433.585
20
-204.971
11
433.971
21
-205.132
0
LINE
8
BLACK
6
CONTINUOUS
10
433.971
20
-205.132
11
433.971
21
-205.132
0
LINE
8
BLACK
6
CONTINUOUS
10
433.971
20
-205.132
11
433.973
21
-205.133
0
LINE
8
BLACK
6
CONTINUOUS
10
433.973
20
-205.133
11
433.976
21
-205.134
0
LINE
8
BLACK
6
CONTINUOUS
10
433.976
20
-205.134
11
433.976
21
-205.134
0
LINE
8
BLACK
6
CONTINUOUS
10
433.976
20
-205.134
11
434.086
21
-205.168
0
LINE
8
BLACK
6
CONTINUOUS
10
434.086
20
-205.168
11
434.377
21
-205.261
0
LINE
8
BLACK
6
CONTINUOUS
10
434.377
20
-205.261
11
434.38
21
-205.261
0
LINE
8
BLACK
6
CONTINUOUS
10
434.38
20
-205.261
11
434.38
21
-205.261
0
LINE
8
BLACK
6
CONTINUOUS
10
434.38
20
-205.261
11
434.788
21
-205.351
0
LINE
8
BLACK
6
CONTINUOUS
10
434.788
20
-205.351
11
434.791
21
-205.352
0
LINE
8
BLACK
6
CONTINUOUS
10
434.791
20
-205.352
11
434.794
21
-205.352
0
LINE
8
BLACK
6
CONTINUOUS
10
434.794
20
-205.352
11
434.794
21
-205.352
0
LINE
8
BLACK
6
CONTINUOUS
10
434.794
20
-205.352
11
435.209
21
-205.406
0
LINE
8
BLACK
6
CONTINUOUS
10
435.209
20
-205.406
11
435.209
21
-205.406
0
LINE
8
BLACK
6
CONTINUOUS
10
435.209
20
-205.406
11
435.211
21
-205.406
0
LINE
8
BLACK
6
CONTINUOUS
10
435.211
20
-205.406
11
435.214
21
-205.406
0
LINE
8
BLACK
6
CONTINUOUS
10
435.214
20
-205.406
11
435.214
21
-205.406
0
LINE
8
BLACK
6
CONTINUOUS
10
435.214
20
-205.406
11
435.46
21
-205.416
0
LINE
8
BLACK
6
CONTINUOUS
10
435.46
20
-205.416
11
435.635
21
-205.423
0
LINE
8
BLACK
6
CONTINUOUS
10
435.635
20
-205.423
11
435.638
21
-205.423
0
LINE
8
BLACK
6
CONTINUOUS
10
435.638
20
-205.423
11
435.638
21
-205.423
0
LINE
8
BLACK
6
CONTINUOUS
10
435.638
20
-205.423
11
436.055
21
-205.402
0
LINE
8
BLACK
6
CONTINUOUS
10
436.055
20
-205.402
11
436.055
21
-205.402
0
LINE
8
BLACK
6
CONTINUOUS
10
436.055
20
-205.402
11
436.058
21
-205.402
0
LINE
8
BLACK
6
CONTINUOUS
10
436.058
20
-205.402
11
436.061
21
-205.401
0
LINE
8
BLACK
6
CONTINUOUS
10
436.061
20
-205.401
11
436.061
21
-205.401
0
LINE
8
BLACK
6
CONTINUOUS
10
436.061
20
-205.401
11
436.135
21
-205.391
0
LINE
8
BLACK
6
CONTINUOUS
10
436.135
20
-205.391
11
436.478
21
-205.343
0
LINE
8
BLACK
6
CONTINUOUS
10
436.478
20
-205.343
11
436.481
21
-205.342
0
LINE
8
BLACK
6
CONTINUOUS
10
436.481
20
-205.342
11
436.481
21
-205.342
0
LINE
8
BLACK
6
CONTINUOUS
10
436.481
20
-205.342
11
436.722
21
-205.286
0
LINE
8
BLACK
6
CONTINUOUS
10
436.722
20
-205.286
11
436.891
21
-205.247
0
LINE
8
BLACK
6
CONTINUOUS
10
436.891
20
-205.247
11
437.238
21
-205.134
0
LINE
8
BLACK
6
CONTINUOUS
10
437.238
20
-205.134
11
437.291
21
-205.116
0
LINE
8
BLACK
6
CONTINUOUS
10
437.291
20
-205.116
11
437.291
21
-205.116
0
LINE
8
BLACK
6
CONTINUOUS
10
437.291
20
-205.116
11
437.294
21
-205.115
0
LINE
8
BLACK
6
CONTINUOUS
10
437.294
20
-205.115
11
437.63
21
-204.971
0
LINE
8
BLACK
6
CONTINUOUS
10
437.63
20
-204.971
11
437.68
21
-204.949
0
LINE
8
BLACK
6
CONTINUOUS
10
437.68
20
-204.949
11
437.68
21
-204.949
0
LINE
8
BLACK
6
CONTINUOUS
10
437.68
20
-204.949
11
437.683
21
-204.948
0
LINE
8
BLACK
6
CONTINUOUS
10
437.683
20
-204.948
11
438.056
21
-204.747
0
LINE
8
BLACK
6
CONTINUOUS
10
438.056
20
-204.747
11
438.41
21
-204.513
0
LINE
8
BLACK
6
CONTINUOUS
10
438.41
20
-204.513
11
438.741
21
-204.249
0
LINE
8
BLACK
6
CONTINUOUS
10
438.741
20
-204.249
11
439.048
21
-203.957
0
LINE
8
BLACK
6
CONTINUOUS
10
439.048
20
-203.957
11
439.252
21
-203.723
0
LINE
8
BLACK
6
CONTINUOUS
10
439.252
20
-203.723
11
439.325
21
-203.64
0
LINE
8
BLACK
6
CONTINUOUS
10
439.325
20
-203.64
11
439.325
21
-203.64
0
LINE
8
BLACK
6
CONTINUOUS
10
439.325
20
-203.64
11
439.327
21
-203.638
0
LINE
8
BLACK
6
CONTINUOUS
10
439.327
20
-203.638
11
439.331
21
-203.633
0
LINE
8
BLACK
6
CONTINUOUS
10
439.331
20
-203.633
11
439.575
21
-203.298
0
LINE
8
BLACK
6
CONTINUOUS
10
439.575
20
-203.298
11
439.577
21
-203.296
0
LINE
8
BLACK
6
CONTINUOUS
10
439.577
20
-203.296
11
439.682
21
-203.121
0
LINE
8
BLACK
6
CONTINUOUS
10
439.682
20
-203.121
11
439.794
21
-202.935
0
LINE
8
BLACK
6
CONTINUOUS
10
439.794
20
-202.935
11
439.794
21
-202.935
0
LINE
8
BLACK
6
CONTINUOUS
10
439.794
20
-202.935
11
439.796
21
-202.933
0
LINE
8
BLACK
6
CONTINUOUS
10
439.796
20
-202.933
11
439.981
21
-202.552
0
LINE
8
BLACK
6
CONTINUOUS
10
439.981
20
-202.552
11
440.132
21
-202.155
0
LINE
8
BLACK
6
CONTINUOUS
10
440.132
20
-202.155
11
440.247
21
-201.748
0
LINE
8
BLACK
6
CONTINUOUS
10
440.247
20
-201.748
11
440.247
21
-201.745
0
LINE
8
BLACK
6
CONTINUOUS
10
440.247
20
-201.745
11
440.325
21
-201.334
0
LINE
8
BLACK
6
CONTINUOUS
10
440.325
20
-201.334
11
440.325
21
-201.334
0
LINE
8
BLACK
6
CONTINUOUS
10
440.325
20
-201.334
11
440.325
21
-201.331
0
LINE
8
BLACK
6
CONTINUOUS
10
440.325
20
-201.331
11
440.346
21
-201.12
0
LINE
8
BLACK
6
CONTINUOUS
10
440.346
20
-201.12
11
440.366
21
-200.911
0
LINE
8
BLACK
6
CONTINUOUS
10
440.366
20
-200.911
11
440.366
21
-200.911
0
LINE
8
BLACK
6
CONTINUOUS
10
440.366
20
-200.911
11
440.366
21
-200.909
0
LINE
8
BLACK
6
CONTINUOUS
10
440.366
20
-200.909
11
440.373
21
-200.66
0
LINE
8
BLACK
6
CONTINUOUS
10
440.373
20
-200.66
11
440.354
21
-200.237
0
LINE
8
BLACK
6
CONTINUOUS
10
440.354
20
-200.237
11
440.349
21
-200.2
0
LINE
8
BLACK
6
CONTINUOUS
10
440.349
20
-200.2
11
440.317
21
-199.964
0
LINE
8
BLACK
6
CONTINUOUS
10
440.317
20
-199.964
11
440.298
21
-199.817
0
LINE
8
BLACK
6
CONTINUOUS
10
440.298
20
-199.817
11
440.204
21
-199.403
0
LINE
8
BLACK
6
CONTINUOUS
10
440.204
20
-199.403
11
440.166
21
-199.285
0
LINE
8
BLACK
6
CONTINUOUS
10
440.166
20
-199.285
11
440.075
21
-199.002
0
LINE
8
BLACK
6
CONTINUOUS
10
440.075
20
-199.002
11
440.074
21
-199
0
LINE
8
BLACK
6
CONTINUOUS
10
440.074
20
-199
11
440.008
21
-198.844
0
LINE
8
BLACK
6
CONTINUOUS
10
440.008
20
-198.844
11
439.91
21
-198.612
0
LINE
8
BLACK
6
CONTINUOUS
10
439.91
20
-198.612
11
439.91
21
-198.612
0
LINE
8
BLACK
6
CONTINUOUS
10
439.91
20
-198.612
11
439.909
21
-198.61
0
LINE
8
BLACK
6
CONTINUOUS
10
439.909
20
-198.61
11
439.863
21
-198.524
0
LINE
8
BLACK
6
CONTINUOUS
10
439.863
20
-198.524
11
439.711
21
-198.238
0
LINE
8
BLACK
6
CONTINUOUS
10
439.711
20
-198.238
11
439.711
21
-198.238
0
LINE
8
BLACK
6
CONTINUOUS
10
439.711
20
-198.238
11
439.71
21
-198.236
0
LINE
8
BLACK
6
CONTINUOUS
10
439.71
20
-198.236
11
439.523
21
-197.95
0
LINE
8
BLACK
6
CONTINUOUS
10
439.523
20
-197.95
11
439.479
21
-197.883
0
LINE
8
BLACK
6
CONTINUOUS
10
439.479
20
-197.883
11
439.479
21
-197.883
0
LINE
8
BLACK
6
CONTINUOUS
10
439.479
20
-197.883
11
439.478
21
-197.881
0
LINE
8
BLACK
6
CONTINUOUS
10
439.478
20
-197.881
11
439.215
21
-197.548
0
LINE
8
BLACK
6
CONTINUOUS
10
439.215
20
-197.548
11
438.924
21
-197.24
0
LINE
8
BLACK
6
CONTINUOUS
10
438.924
20
-197.24
11
438.607
21
-196.959
0
LINE
8
BLACK
6
CONTINUOUS
10
438.607
20
-196.959
11
438.266
21
-196.707
0
LINE
8
BLACK
6
CONTINUOUS
10
438.266
20
-196.707
11
438.076
21
-196.591
0
LINE
8
BLACK
6
CONTINUOUS
10
438.076
20
-196.591
11
437.907
21
-196.488
0
LINE
8
BLACK
6
CONTINUOUS
10
437.907
20
-196.488
11
437.907
21
-196.488
0
LINE
8
BLACK
6
CONTINUOUS
10
437.907
20
-196.488
11
437.904
21
-196.486
0
LINE
8
BLACK
6
CONTINUOUS
10
437.904
20
-196.486
11
437.783
21
-196.427
0
LINE
8
BLACK
6
CONTINUOUS
10
437.783
20
-196.427
11
437.527
21
-196.3
0
LINE
8
BLACK
6
CONTINUOUS
10
437.527
20
-196.3
11
437.524
21
-196.299
0
LINE
8
BLACK
6
CONTINUOUS
10
437.524
20
-196.299
11
437.129
21
-196.146
0
LINE
8
BLACK
6
CONTINUOUS
10
437.129
20
-196.146
11
437.043
21
-196.121
0
LINE
8
BLACK
6
CONTINUOUS
10
437.043
20
-196.121
11
436.725
21
-196.03
0
LINE
8
BLACK
6
CONTINUOUS
10
436.725
20
-196.03
11
436.725
21
-196.03
0
LINE
8
BLACK
6
CONTINUOUS
10
436.725
20
-196.03
11
436.722
21
-196.029
0
LINE
8
BLACK
6
CONTINUOUS
10
436.722
20
-196.029
11
436.719
21
-196.028
0
LINE
8
BLACK
6
CONTINUOUS
10
436.719
20
-196.028
11
436.719
21
-196.028
0
LINE
8
BLACK
6
CONTINUOUS
10
436.719
20
-196.028
11
436.309
21
-195.949
0
LINE
8
BLACK
6
CONTINUOUS
10
436.309
20
-195.949
11
436.309
21
-195.949
0
LINE
8
BLACK
6
CONTINUOUS
10
436.309
20
-195.949
11
436.306
21
-195.948
0
LINE
8
BLACK
6
CONTINUOUS
10
436.306
20
-195.948
11
435.884
21
-195.905
0
LINE
8
BLACK
6
CONTINUOUS
10
435.884
20
-195.905
11
435.881
21
-195.905
0
LINE
8
BLACK
6
CONTINUOUS
10
435.881
20
-195.905
11
435.881
21
-195.905
0
LINE
8
BLACK
6
CONTINUOUS
10
435.881
20
-195.905
11
435.623
21
-195.902
0
LINE
8
BLACK
6
CONTINUOUS
10
435.623
20
-195.902
11
435.46
21
-195.9
0
LINE
8
BLACK
6
CONTINUOUS
10
435.46
20
-195.9
11
435.458
21
-195.9
0
LINE
8
BLACK
6
CONTINUOUS
10
435.458
20
-195.9
11
435.458
21
-195.9
0
LINE
8
BLACK
6
CONTINUOUS
10
435.458
20
-195.9
11
435.384
21
-195.905
0
LINE
8
BLACK
6
CONTINUOUS
10
435.384
20
-195.905
11
435.038
21
-195.932
0
LINE
8
BLACK
6
CONTINUOUS
10
435.038
20
-195.932
11
434.62
21
-196.001
0
LINE
8
BLACK
6
CONTINUOUS
10
434.62
20
-196.001
11
434.533
21
-196.024
0
LINE
8
BLACK
6
CONTINUOUS
10
434.533
20
-196.024
11
434.212
21
-196.107
0
LINE
8
BLACK
6
CONTINUOUS
10
434.212
20
-196.107
11
434.212
21
-196.107
0
LINE
8
BLACK
6
CONTINUOUS
10
434.212
20
-196.107
11
434.21
21
-196.108
0
LINE
8
BLACK
6
CONTINUOUS
10
434.21
20
-196.108
11
434.082
21
-196.153
0
LINE
8
BLACK
6
CONTINUOUS
10
434.082
20
-196.153
11
433.813
21
-196.249
0
LINE
8
BLACK
6
CONTINUOUS
10
433.813
20
-196.249
11
433.813
21
-196.249
0
LINE
8
BLACK
6
CONTINUOUS
10
433.813
20
-196.249
11
433.81
21
-196.25
0
LINE
8
BLACK
6
CONTINUOUS
10
433.81
20
-196.25
11
433.808
21
-196.251
0
LINE
8
BLACK
6
CONTINUOUS
10
433.808
20
-196.251
11
433.808
21
-196.251
0
LINE
8
BLACK
6
CONTINUOUS
10
433.808
20
-196.251
11
433.705
21
-196.299
0
LINE
8
BLACK
6
CONTINUOUS
10
433.705
20
-196.299
11
433.426
21
-196.428
0
LINE
8
BLACK
6
CONTINUOUS
10
433.426
20
-196.428
11
433.058
21
-196.639
0
LINE
8
BLACK
6
CONTINUOUS
10
433.058
20
-196.639
11
433.056
21
-196.64
0
LINE
8
BLACK
6
CONTINUOUS
10
433.056
20
-196.64
11
433.056
21
-196.64
0
LINE
8
BLACK
6
CONTINUOUS
10
433.056
20
-196.64
11
432.957
21
-196.709
0
LINE
8
BLACK
6
CONTINUOUS
10
432.957
20
-196.709
11
432.711
21
-196.881
0
LINE
8
BLACK
6
CONTINUOUS
10
432.711
20
-196.881
11
432.386
21
-197.154
0
LINE
8
BLACK
6
CONTINUOUS
10
432.386
20
-197.154
11
432.087
21
-197.455
0
LINE
8
BLACK
6
CONTINUOUS
10
432.087
20
-197.455
11
431.816
21
-197.78
0
LINE
8
BLACK
6
CONTINUOUS
10
431.816
20
-197.78
11
431.815
21
-197.783
0
LINE
8
BLACK
6
CONTINUOUS
10
431.815
20
-197.783
11
431.815
21
-197.783
0
LINE
8
BLACK
6
CONTINUOUS
10
431.815
20
-197.783
11
431.666
21
-197.999
0
LINE
8
BLACK
6
CONTINUOUS
10
431.666
20
-197.999
11
431.575
21
-198.129
0
LINE
8
BLACK
6
CONTINUOUS
10
431.575
20
-198.129
11
431.366
21
-198.498
0
LINE
8
BLACK
6
CONTINUOUS
10
431.366
20
-198.498
11
431.365
21
-198.5
0
LINE
8
BLACK
6
CONTINUOUS
10
431.365
20
-198.5
11
431.192
21
-198.881
0
LINE
8
BLACK
6
CONTINUOUS
10
431.192
20
-198.881
11
431.192
21
-198.881
0
LINE
8
BLACK
6
CONTINUOUS
10
431.192
20
-198.881
11
431.191
21
-198.884
0
LINE
8
BLACK
6
CONTINUOUS
10
431.191
20
-198.884
11
431.05
21
-199.283
0
LINE
8
BLACK
6
CONTINUOUS
10
431.05
20
-199.283
11
431.05
21
-199.286
0
LINE
8
BLACK
6
CONTINUOUS
10
431.05
20
-199.286
11
431.05
21
-199.286
0
LINE
8
BLACK
6
CONTINUOUS
10
431.05
20
-199.286
11
430.985
21
-199.541
0
LINE
8
BLACK
6
CONTINUOUS
10
430.985
20
-199.541
11
430.946
21
-199.694
0
LINE
8
BLACK
6
CONTINUOUS
10
430.946
20
-199.694
11
430.879
21
-200.113
0
LINE
8
BLACK
6
CONTINUOUS
10
430.879
20
-200.113
11
430.849
21
-200.535
0
LINE
8
BLACK
6
CONTINUOUS
10
430.849
20
-200.535
11
430.851
21
-200.647
0
LINE
8
BLACK
6
CONTINUOUS
10
430.851
20
-200.647
11
430.857
21
-200.959
0
LINE
8
BLACK
6
CONTINUOUS
10
237.939
20
-200.66
11
237.92
21
-200.197
0
LINE
8
BLACK
6
CONTINUOUS
10
237.92
20
-200.197
11
237.862
21
-199.738
0
LINE
8
BLACK
6
CONTINUOUS
10
237.862
20
-199.738
11
237.8
21
-199.448
0
LINE
8
BLACK
6
CONTINUOUS
10
237.8
20
-199.448
11
237.766
21
-199.287
0
LINE
8
BLACK
6
CONTINUOUS
10
237.766
20
-199.287
11
237.766
21
-199.287
0
LINE
8
BLACK
6
CONTINUOUS
10
237.766
20
-199.287
11
237.766
21
-199.285
0
LINE
8
BLACK
6
CONTINUOUS
10
237.766
20
-199.285
11
237.632
21
-198.842
0
LINE
8
BLACK
6
CONTINUOUS
10
237.632
20
-198.842
11
237.461
21
-198.411
0
LINE
8
BLACK
6
CONTINUOUS
10
237.461
20
-198.411
11
237.256
21
-197.996
0
LINE
8
BLACK
6
CONTINUOUS
10
237.256
20
-197.996
11
237.116
21
-197.766
0
LINE
8
BLACK
6
CONTINUOUS
10
237.116
20
-197.766
11
237.017
21
-197.602
0
LINE
8
BLACK
6
CONTINUOUS
10
237.017
20
-197.602
11
237.017
21
-197.602
0
LINE
8
BLACK
6
CONTINUOUS
10
237.017
20
-197.602
11
237.016
21
-197.6
0
LINE
8
BLACK
6
CONTINUOUS
10
237.016
20
-197.6
11
236.743
21
-197.225
0
LINE
8
BLACK
6
CONTINUOUS
10
236.743
20
-197.225
11
236.684
21
-197.156
0
LINE
8
BLACK
6
CONTINUOUS
10
236.684
20
-197.156
11
236.443
21
-196.877
0
LINE
8
BLACK
6
CONTINUOUS
10
236.443
20
-196.877
11
236.443
21
-196.877
0
LINE
8
BLACK
6
CONTINUOUS
10
236.443
20
-196.877
11
236.441
21
-196.875
0
LINE
8
BLACK
6
CONTINUOUS
10
236.441
20
-196.875
11
236.11
21
-196.551
0
LINE
8
BLACK
6
CONTINUOUS
10
236.11
20
-196.551
11
236.108
21
-196.549
0
LINE
8
BLACK
6
CONTINUOUS
10
236.108
20
-196.549
11
236.108
21
-196.549
0
LINE
8
BLACK
6
CONTINUOUS
10
236.108
20
-196.549
11
235.789
21
-196.285
0
LINE
8
BLACK
6
CONTINUOUS
10
235.789
20
-196.285
11
235.753
21
-196.256
0
LINE
8
BLACK
6
CONTINUOUS
10
235.753
20
-196.256
11
235.373
21
-195.991
0
LINE
8
BLACK
6
CONTINUOUS
10
235.373
20
-195.991
11
234.972
21
-195.76
0
LINE
8
BLACK
6
CONTINUOUS
10
234.972
20
-195.76
11
234.553
21
-195.563
0
LINE
8
BLACK
6
CONTINUOUS
10
234.553
20
-195.563
11
234.55
21
-195.562
0
LINE
8
BLACK
6
CONTINUOUS
10
234.55
20
-195.562
11
234.55
21
-195.562
0
LINE
8
BLACK
6
CONTINUOUS
10
234.55
20
-195.562
11
234.121
21
-195.402
0
LINE
8
BLACK
6
CONTINUOUS
10
234.121
20
-195.402
11
234.119
21
-195.401
0
LINE
8
BLACK
6
CONTINUOUS
10
234.119
20
-195.401
11
234.116
21
-195.4
0
LINE
8
BLACK
6
CONTINUOUS
10
234.116
20
-195.4
11
234.116
21
-195.4
0
LINE
8
BLACK
6
CONTINUOUS
10
234.116
20
-195.4
11
233.675
21
-195.277
0
LINE
8
BLACK
6
CONTINUOUS
10
233.675
20
-195.277
11
233.675
21
-195.277
0
LINE
8
BLACK
6
CONTINUOUS
10
233.675
20
-195.277
11
233.673
21
-195.277
0
LINE
8
BLACK
6
CONTINUOUS
10
233.673
20
-195.277
11
233.218
21
-195.19
0
LINE
8
BLACK
6
CONTINUOUS
10
233.218
20
-195.19
11
232.757
21
-195.141
0
LINE
8
BLACK
6
CONTINUOUS
10
232.757
20
-195.141
11
232.472
21
-195.135
0
LINE
8
BLACK
6
CONTINUOUS
10
232.472
20
-195.135
11
232.297
21
-195.132
0
LINE
8
BLACK
6
CONTINUOUS
10
232.297
20
-195.132
11
232.297
21
-195.132
0
LINE
8
BLACK
6
CONTINUOUS
10
232.297
20
-195.132
11
232.294
21
-195.132
0
LINE
8
BLACK
6
CONTINUOUS
10
232.294
20
-195.132
11
232.084
21
-195.145
0
LINE
8
BLACK
6
CONTINUOUS
10
232.084
20
-195.145
11
231.835
21
-195.161
0
LINE
8
BLACK
6
CONTINUOUS
10
231.835
20
-195.161
11
231.835
21
-195.161
0
LINE
8
BLACK
6
CONTINUOUS
10
231.835
20
-195.161
11
231.832
21
-195.161
0
LINE
8
BLACK
6
CONTINUOUS
10
231.832
20
-195.161
11
231.374
21
-195.228
0
LINE
8
BLACK
6
CONTINUOUS
10
231.374
20
-195.228
11
231.371
21
-195.229
0
LINE
8
BLACK
6
CONTINUOUS
10
231.371
20
-195.229
11
231.371
21
-195.229
0
LINE
8
BLACK
6
CONTINUOUS
10
231.371
20
-195.229
11
231.196
21
-195.27
0
LINE
8
BLACK
6
CONTINUOUS
10
231.196
20
-195.27
11
230.923
21
-195.334
0
LINE
8
BLACK
6
CONTINUOUS
10
230.923
20
-195.334
11
230.921
21
-195.335
0
LINE
8
BLACK
6
CONTINUOUS
10
230.921
20
-195.335
11
230.92
21
-195.335
0
LINE
8
BLACK
6
CONTINUOUS
10
230.92
20
-195.335
11
230.719
21
-195.4
0
LINE
8
BLACK
6
CONTINUOUS
10
230.719
20
-195.4
11
230.483
21
-195.477
0
LINE
8
BLACK
6
CONTINUOUS
10
230.483
20
-195.477
11
230.056
21
-195.657
0
LINE
8
BLACK
6
CONTINUOUS
10
230.056
20
-195.657
11
230.053
21
-195.658
0
LINE
8
BLACK
6
CONTINUOUS
10
230.053
20
-195.658
11
230.053
21
-195.658
0
LINE
8
BLACK
6
CONTINUOUS
10
230.053
20
-195.658
11
229.648
21
-195.87
0
LINE
8
BLACK
6
CONTINUOUS
10
229.648
20
-195.87
11
229.648
21
-195.87
0
LINE
8
BLACK
6
CONTINUOUS
10
229.648
20
-195.87
11
229.645
21
-195.871
0
LINE
8
BLACK
6
CONTINUOUS
10
229.645
20
-195.871
11
229.643
21
-195.873
0
LINE
8
BLACK
6
CONTINUOUS
10
229.643
20
-195.873
11
229.256
21
-196.118
0
LINE
8
BLACK
6
CONTINUOUS
10
229.256
20
-196.118
11
229.256
21
-196.118
0
LINE
8
BLACK
6
CONTINUOUS
10
229.256
20
-196.118
11
229.254
21
-196.119
0
LINE
8
BLACK
6
CONTINUOUS
10
229.254
20
-196.119
11
229.252
21
-196.121
0
LINE
8
BLACK
6
CONTINUOUS
10
229.252
20
-196.121
11
229.252
21
-196.121
0
LINE
8
BLACK
6
CONTINUOUS
10
229.252
20
-196.121
11
229.019
21
-196.298
0
LINE
8
BLACK
6
CONTINUOUS
10
229.019
20
-196.298
11
228.885
21
-196.399
0
LINE
8
BLACK
6
CONTINUOUS
10
228.885
20
-196.399
11
228.541
21
-196.709
0
LINE
8
BLACK
6
CONTINUOUS
10
228.541
20
-196.709
11
228.224
21
-197.047
0
LINE
8
BLACK
6
CONTINUOUS
10
228.224
20
-197.047
11
227.937
21
-197.41
0
LINE
8
BLACK
6
CONTINUOUS
10
227.937
20
-197.41
11
227.769
21
-197.663
0
LINE
8
BLACK
6
CONTINUOUS
10
227.769
20
-197.663
11
227.687
21
-197.786
0
LINE
8
BLACK
6
CONTINUOUS
10
227.687
20
-197.786
11
227.68
21
-197.796
0
LINE
8
BLACK
6
CONTINUOUS
10
227.68
20
-197.796
11
227.457
21
-198.201
0
LINE
8
BLACK
6
CONTINUOUS
10
227.457
20
-198.201
11
227.269
21
-198.624
0
LINE
8
BLACK
6
CONTINUOUS
10
227.269
20
-198.624
11
227.117
21
-199.062
0
LINE
8
BLACK
6
CONTINUOUS
10
227.117
20
-199.062
11
227.001
21
-199.51
0
LINE
8
BLACK
6
CONTINUOUS
10
227.001
20
-199.51
11
226.924
21
-199.967
0
LINE
8
BLACK
6
CONTINUOUS
10
226.924
20
-199.967
11
226.924
21
-199.97
0
LINE
8
BLACK
6
CONTINUOUS
10
226.924
20
-199.97
11
226.887
21
-200.408
0
LINE
8
BLACK
6
CONTINUOUS
10
226.887
20
-200.408
11
226.885
21
-200.428
0
LINE
8
BLACK
6
CONTINUOUS
10
226.885
20
-200.428
11
226.885
21
-200.892
0
LINE
8
BLACK
6
CONTINUOUS
10
226.885
20
-200.892
11
226.886
21
-200.894
0
LINE
8
BLACK
6
CONTINUOUS
10
226.886
20
-200.894
11
226.886
21
-200.894
0
LINE
8
BLACK
6
CONTINUOUS
10
226.886
20
-200.894
11
226.887
21
-200.911
0
LINE
8
BLACK
6
CONTINUOUS
10
226.887
20
-200.911
11
226.924
21
-201.353
0
LINE
8
BLACK
6
CONTINUOUS
10
226.924
20
-201.353
11
227.001
21
-201.81
0
LINE
8
BLACK
6
CONTINUOUS
10
227.001
20
-201.81
11
227.002
21
-201.812
0
LINE
8
BLACK
6
CONTINUOUS
10
227.002
20
-201.812
11
227.002
21
-201.812
0
LINE
8
BLACK
6
CONTINUOUS
10
227.002
20
-201.812
11
227.103
21
-202.205
0
LINE
8
BLACK
6
CONTINUOUS
10
227.103
20
-202.205
11
227.117
21
-202.258
0
LINE
8
BLACK
6
CONTINUOUS
10
227.117
20
-202.258
11
227.269
21
-202.696
0
LINE
8
BLACK
6
CONTINUOUS
10
227.269
20
-202.696
11
227.457
21
-203.119
0
LINE
8
BLACK
6
CONTINUOUS
10
227.457
20
-203.119
11
227.68
21
-203.524
0
LINE
8
BLACK
6
CONTINUOUS
10
227.68
20
-203.524
11
227.937
21
-203.91
0
LINE
8
BLACK
6
CONTINUOUS
10
227.937
20
-203.91
11
228.224
21
-204.273
0
LINE
8
BLACK
6
CONTINUOUS
10
228.224
20
-204.273
11
228.541
21
-204.611
0
LINE
8
BLACK
6
CONTINUOUS
10
228.541
20
-204.611
11
228.885
21
-204.921
0
LINE
8
BLACK
6
CONTINUOUS
10
228.885
20
-204.921
11
228.887
21
-204.922
0
LINE
8
BLACK
6
CONTINUOUS
10
228.887
20
-204.922
11
228.887
21
-204.922
0
LINE
8
BLACK
6
CONTINUOUS
10
228.887
20
-204.922
11
229.212
21
-205.168
0
LINE
8
BLACK
6
CONTINUOUS
10
229.212
20
-205.168
11
229.254
21
-205.201
0
LINE
8
BLACK
6
CONTINUOUS
10
229.254
20
-205.201
11
229.256
21
-205.202
0
LINE
8
BLACK
6
CONTINUOUS
10
229.256
20
-205.202
11
229.256
21
-205.202
0
LINE
8
BLACK
6
CONTINUOUS
10
229.256
20
-205.202
11
229.571
21
-205.401
0
LINE
8
BLACK
6
CONTINUOUS
10
229.571
20
-205.401
11
229.645
21
-205.449
0
LINE
8
BLACK
6
CONTINUOUS
10
229.645
20
-205.449
11
229.648
21
-205.45
0
LINE
8
BLACK
6
CONTINUOUS
10
229.648
20
-205.45
11
229.648
21
-205.45
0
LINE
8
BLACK
6
CONTINUOUS
10
229.648
20
-205.45
11
230.053
21
-205.662
0
LINE
8
BLACK
6
CONTINUOUS
10
230.053
20
-205.662
11
230.053
21
-205.662
0
LINE
8
BLACK
6
CONTINUOUS
10
230.053
20
-205.662
11
230.056
21
-205.663
0
LINE
8
BLACK
6
CONTINUOUS
10
230.056
20
-205.663
11
230.483
21
-205.843
0
LINE
8
BLACK
6
CONTINUOUS
10
230.483
20
-205.843
11
230.485
21
-205.843
0
LINE
8
BLACK
6
CONTINUOUS
10
230.485
20
-205.843
11
230.485
21
-205.843
0
LINE
8
BLACK
6
CONTINUOUS
10
230.485
20
-205.843
11
230.92
21
-205.985
0
LINE
8
BLACK
6
CONTINUOUS
10
230.92
20
-205.985
11
230.921
21
-205.985
0
LINE
8
BLACK
6
CONTINUOUS
10
230.921
20
-205.985
11
230.923
21
-205.986
0
LINE
8
BLACK
6
CONTINUOUS
10
230.923
20
-205.986
11
231.166
21
-206.043
0
LINE
8
BLACK
6
CONTINUOUS
10
231.166
20
-206.043
11
231.371
21
-206.091
0
LINE
8
BLACK
6
CONTINUOUS
10
231.371
20
-206.091
11
231.371
21
-206.091
0
LINE
8
BLACK
6
CONTINUOUS
10
231.371
20
-206.091
11
231.374
21
-206.092
0
LINE
8
BLACK
6
CONTINUOUS
10
231.374
20
-206.092
11
231.832
21
-206.159
0
LINE
8
BLACK
6
CONTINUOUS
10
231.832
20
-206.159
11
231.835
21
-206.159
0
LINE
8
BLACK
6
CONTINUOUS
10
231.835
20
-206.159
11
231.835
21
-206.159
0
LINE
8
BLACK
6
CONTINUOUS
10
231.835
20
-206.159
11
232.084
21
-206.175
0
LINE
8
BLACK
6
CONTINUOUS
10
232.084
20
-206.175
11
232.294
21
-206.188
0
LINE
8
BLACK
6
CONTINUOUS
10
232.294
20
-206.188
11
232.297
21
-206.188
0
LINE
8
BLACK
6
CONTINUOUS
10
232.297
20
-206.188
11
232.297
21
-206.188
0
LINE
8
BLACK
6
CONTINUOUS
10
232.297
20
-206.188
11
232.472
21
-206.185
0
LINE
8
BLACK
6
CONTINUOUS
10
232.472
20
-206.185
11
232.757
21
-206.179
0
LINE
8
BLACK
6
CONTINUOUS
10
232.757
20
-206.179
11
233.218
21
-206.13
0
LINE
8
BLACK
6
CONTINUOUS
10
233.218
20
-206.13
11
233.673
21
-206.043
0
LINE
8
BLACK
6
CONTINUOUS
10
233.673
20
-206.043
11
233.675
21
-206.043
0
LINE
8
BLACK
6
CONTINUOUS
10
233.675
20
-206.043
11
233.675
21
-206.043
0
LINE
8
BLACK
6
CONTINUOUS
10
233.675
20
-206.043
11
234.116
21
-205.92
0
LINE
8
BLACK
6
CONTINUOUS
10
234.116
20
-205.92
11
234.116
21
-205.92
0
LINE
8
BLACK
6
CONTINUOUS
10
234.116
20
-205.92
11
234.119
21
-205.919
0
LINE
8
BLACK
6
CONTINUOUS
10
234.119
20
-205.919
11
234.326
21
-205.842
0
LINE
8
BLACK
6
CONTINUOUS
10
234.326
20
-205.842
11
234.55
21
-205.758
0
LINE
8
BLACK
6
CONTINUOUS
10
234.55
20
-205.758
11
234.55
21
-205.758
0
LINE
8
BLACK
6
CONTINUOUS
10
234.55
20
-205.758
11
234.553
21
-205.757
0
LINE
8
BLACK
6
CONTINUOUS
10
234.553
20
-205.757
11
234.972
21
-205.56
0
LINE
8
BLACK
6
CONTINUOUS
10
234.972
20
-205.56
11
235.373
21
-205.329
0
LINE
8
BLACK
6
CONTINUOUS
10
235.373
20
-205.329
11
235.753
21
-205.064
0
LINE
8
BLACK
6
CONTINUOUS
10
235.753
20
-205.064
11
235.996
21
-204.863
0
LINE
8
BLACK
6
CONTINUOUS
10
235.996
20
-204.863
11
236.108
21
-204.771
0
LINE
8
BLACK
6
CONTINUOUS
10
236.108
20
-204.771
11
236.108
21
-204.771
0
LINE
8
BLACK
6
CONTINUOUS
10
236.108
20
-204.771
11
236.11
21
-204.769
0
LINE
8
BLACK
6
CONTINUOUS
10
236.11
20
-204.769
11
236.133
21
-204.747
0
LINE
8
BLACK
6
CONTINUOUS
10
236.133
20
-204.747
11
236.439
21
-204.447
0
LINE
8
BLACK
6
CONTINUOUS
10
236.439
20
-204.447
11
236.441
21
-204.445
0
LINE
8
BLACK
6
CONTINUOUS
10
236.441
20
-204.445
11
236.443
21
-204.443
0
LINE
8
BLACK
6
CONTINUOUS
10
236.443
20
-204.443
11
236.443
21
-204.443
0
LINE
8
BLACK
6
CONTINUOUS
10
236.443
20
-204.443
11
236.742
21
-204.097
0
LINE
8
BLACK
6
CONTINUOUS
10
236.742
20
-204.097
11
236.743
21
-204.095
0
LINE
8
BLACK
6
CONTINUOUS
10
236.743
20
-204.095
11
237.016
21
-203.72
0
LINE
8
BLACK
6
CONTINUOUS
10
237.016
20
-203.72
11
237.041
21
-203.679
0
LINE
8
BLACK
6
CONTINUOUS
10
237.041
20
-203.679
11
237.203
21
-203.411
0
LINE
8
BLACK
6
CONTINUOUS
10
237.203
20
-203.411
11
237.256
21
-203.324
0
LINE
8
BLACK
6
CONTINUOUS
10
237.256
20
-203.324
11
237.461
21
-202.909
0
LINE
8
BLACK
6
CONTINUOUS
10
237.461
20
-202.909
11
237.632
21
-202.478
0
LINE
8
BLACK
6
CONTINUOUS
10
237.632
20
-202.478
11
237.766
21
-202.035
0
LINE
8
BLACK
6
CONTINUOUS
10
237.766
20
-202.035
11
237.817
21
-201.796
0
LINE
8
BLACK
6
CONTINUOUS
10
237.817
20
-201.796
11
237.861
21
-201.585
0
LINE
8
BLACK
6
CONTINUOUS
10
237.861
20
-201.585
11
237.862
21
-201.582
0
LINE
8
BLACK
6
CONTINUOUS
10
237.862
20
-201.582
11
237.92
21
-201.123
0
LINE
8
BLACK
6
CONTINUOUS
10
237.92
20
-201.123
11
237.923
21
-201.064
0
LINE
8
BLACK
6
CONTINUOUS
10
237.923
20
-201.064
11
237.93
21
-200.892
0
LINE
8
BLACK
6
CONTINUOUS
10
237.93
20
-200.892
11
237.939
21
-200.663
0
LINE
8
BLACK
6
CONTINUOUS
10
237.939
20
-200.663
11
237.939
21
-200.66
0
LINE
8
BLACK
6
CONTINUOUS
10
206.189
20
-200.66
11
206.17
21
-200.197
0
LINE
8
BLACK
6
CONTINUOUS
10
206.17
20
-200.197
11
206.112
21
-199.738
0
LINE
8
BLACK
6
CONTINUOUS
10
206.112
20
-199.738
11
206.05
21
-199.448
0
LINE
8
BLACK
6
CONTINUOUS
10
206.05
20
-199.448
11
206.016
21
-199.287
0
LINE
8
BLACK
6
CONTINUOUS
10
206.016
20
-199.287
11
206.016
21
-199.287
0
LINE
8
BLACK
6
CONTINUOUS
10
206.016
20
-199.287
11
206.016
21
-199.285
0
LINE
8
BLACK
6
CONTINUOUS
10
206.016
20
-199.285
11
205.882
21
-198.842
0
LINE
8
BLACK
6
CONTINUOUS
10
205.882
20
-198.842
11
205.711
21
-198.411
0
LINE
8
BLACK
6
CONTINUOUS
10
205.711
20
-198.411
11
205.506
21
-197.996
0
LINE
8
BLACK
6
CONTINUOUS
10
205.506
20
-197.996
11
205.366
21
-197.766
0
LINE
8
BLACK
6
CONTINUOUS
10
205.366
20
-197.766
11
205.267
21
-197.602
0
LINE
8
BLACK
6
CONTINUOUS
10
205.267
20
-197.602
11
205.267
21
-197.602
0
LINE
8
BLACK
6
CONTINUOUS
10
205.267
20
-197.602
11
205.266
21
-197.6
0
LINE
8
BLACK
6
CONTINUOUS
10
205.266
20
-197.6
11
204.993
21
-197.225
0
LINE
8
BLACK
6
CONTINUOUS
10
204.993
20
-197.225
11
204.934
21
-197.156
0
LINE
8
BLACK
6
CONTINUOUS
10
204.934
20
-197.156
11
204.693
21
-196.877
0
LINE
8
BLACK
6
CONTINUOUS
10
204.693
20
-196.877
11
204.693
21
-196.877
0
LINE
8
BLACK
6
CONTINUOUS
10
204.693
20
-196.877
11
204.691
21
-196.875
0
LINE
8
BLACK
6
CONTINUOUS
10
204.691
20
-196.875
11
204.36
21
-196.551
0
LINE
8
BLACK
6
CONTINUOUS
10
204.36
20
-196.551
11
204.358
21
-196.549
0
LINE
8
BLACK
6
CONTINUOUS
10
204.358
20
-196.549
11
204.358
21
-196.549
0
LINE
8
BLACK
6
CONTINUOUS
10
204.358
20
-196.549
11
204.039
21
-196.285
0
LINE
8
BLACK
6
CONTINUOUS
10
204.039
20
-196.285
11
204.003
21
-196.256
0
LINE
8
BLACK
6
CONTINUOUS
10
204.003
20
-196.256
11
203.623
21
-195.991
0
LINE
8
BLACK
6
CONTINUOUS
10
203.623
20
-195.991
11
203.222
21
-195.76
0
LINE
8
BLACK
6
CONTINUOUS
10
203.222
20
-195.76
11
202.803
21
-195.563
0
LINE
8
BLACK
6
CONTINUOUS
10
202.803
20
-195.563
11
202.8
21
-195.562
0
LINE
8
BLACK
6
CONTINUOUS
10
202.8
20
-195.562
11
202.8
21
-195.562
0
LINE
8
BLACK
6
CONTINUOUS
10
202.8
20
-195.562
11
202.371
21
-195.402
0
LINE
8
BLACK
6
CONTINUOUS
10
202.371
20
-195.402
11
202.369
21
-195.401
0
LINE
8
BLACK
6
CONTINUOUS
10
202.369
20
-195.401
11
202.366
21
-195.4
0
LINE
8
BLACK
6
CONTINUOUS
10
202.366
20
-195.4
11
202.366
21
-195.4
0
LINE
8
BLACK
6
CONTINUOUS
10
202.366
20
-195.4
11
201.925
21
-195.277
0
LINE
8
BLACK
6
CONTINUOUS
10
201.925
20
-195.277
11
201.925
21
-195.277
0
LINE
8
BLACK
6
CONTINUOUS
10
201.925
20
-195.277
11
201.923
21
-195.277
0
LINE
8
BLACK
6
CONTINUOUS
10
201.923
20
-195.277
11
201.468
21
-195.19
0
LINE
8
BLACK
6
CONTINUOUS
10
201.468
20
-195.19
11
201.007
21
-195.141
0
LINE
8
BLACK
6
CONTINUOUS
10
201.007
20
-195.141
11
200.722
21
-195.135
0
LINE
8
BLACK
6
CONTINUOUS
10
200.722
20
-195.135
11
200.547
21
-195.132
0
LINE
8
BLACK
6
CONTINUOUS
10
200.547
20
-195.132
11
200.547
21
-195.132
0
LINE
8
BLACK
6
CONTINUOUS
10
200.547
20
-195.132
11
200.544
21
-195.132
0
LINE
8
BLACK
6
CONTINUOUS
10
200.544
20
-195.132
11
200.334
21
-195.145
0
LINE
8
BLACK
6
CONTINUOUS
10
200.334
20
-195.145
11
200.085
21
-195.161
0
LINE
8
BLACK
6
CONTINUOUS
10
200.085
20
-195.161
11
200.085
21
-195.161
0
LINE
8
BLACK
6
CONTINUOUS
10
200.085
20
-195.161
11
200.082
21
-195.161
0
LINE
8
BLACK
6
CONTINUOUS
10
200.082
20
-195.161
11
199.624
21
-195.228
0
LINE
8
BLACK
6
CONTINUOUS
10
199.624
20
-195.228
11
199.621
21
-195.229
0
LINE
8
BLACK
6
CONTINUOUS
10
199.621
20
-195.229
11
199.621
21
-195.229
0
LINE
8
BLACK
6
CONTINUOUS
10
199.621
20
-195.229
11
199.446
21
-195.27
0
LINE
8
BLACK
6
CONTINUOUS
10
199.446
20
-195.27
11
199.173
21
-195.334
0
LINE
8
BLACK
6
CONTINUOUS
10
199.173
20
-195.334
11
199.171
21
-195.335
0
LINE
8
BLACK
6
CONTINUOUS
10
199.171
20
-195.335
11
199.17
21
-195.335
0
LINE
8
BLACK
6
CONTINUOUS
10
199.17
20
-195.335
11
198.969
21
-195.4
0
LINE
8
BLACK
6
CONTINUOUS
10
198.969
20
-195.4
11
198.733
21
-195.477
0
LINE
8
BLACK
6
CONTINUOUS
10
198.733
20
-195.477
11
198.306
21
-195.657
0
LINE
8
BLACK
6
CONTINUOUS
10
198.306
20
-195.657
11
198.303
21
-195.658
0
LINE
8
BLACK
6
CONTINUOUS
10
198.303
20
-195.658
11
198.303
21
-195.658
0
LINE
8
BLACK
6
CONTINUOUS
10
198.303
20
-195.658
11
197.898
21
-195.87
0
LINE
8
BLACK
6
CONTINUOUS
10
197.898
20
-195.87
11
197.898
21
-195.87
0
LINE
8
BLACK
6
CONTINUOUS
10
197.898
20
-195.87
11
197.895
21
-195.871
0
LINE
8
BLACK
6
CONTINUOUS
10
197.895
20
-195.871
11
197.893
21
-195.873
0
LINE
8
BLACK
6
CONTINUOUS
10
197.893
20
-195.873
11
197.506
21
-196.118
0
LINE
8
BLACK
6
CONTINUOUS
10
197.506
20
-196.118
11
197.506
21
-196.118
0
LINE
8
BLACK
6
CONTINUOUS
10
197.506
20
-196.118
11
197.504
21
-196.119
0
LINE
8
BLACK
6
CONTINUOUS
10
197.504
20
-196.119
11
197.502
21
-196.121
0
LINE
8
BLACK
6
CONTINUOUS
10
197.502
20
-196.121
11
197.502
21
-196.121
0
LINE
8
BLACK
6
CONTINUOUS
10
197.502
20
-196.121
11
197.269
21
-196.298
0
LINE
8
BLACK
6
CONTINUOUS
10
197.269
20
-196.298
11
197.135
21
-196.399
0
LINE
8
BLACK
6
CONTINUOUS
10
197.135
20
-196.399
11
196.791
21
-196.709
0
LINE
8
BLACK
6
CONTINUOUS
10
196.791
20
-196.709
11
196.474
21
-197.047
0
LINE
8
BLACK
6
CONTINUOUS
10
196.474
20
-197.047
11
196.187
21
-197.41
0
LINE
8
BLACK
6
CONTINUOUS
10
196.187
20
-197.41
11
196.019
21
-197.663
0
LINE
8
BLACK
6
CONTINUOUS
10
196.019
20
-197.663
11
195.937
21
-197.786
0
LINE
8
BLACK
6
CONTINUOUS
10
195.937
20
-197.786
11
195.93
21
-197.796
0
LINE
8
BLACK
6
CONTINUOUS
10
195.93
20
-197.796
11
195.707
21
-198.201
0
LINE
8
BLACK
6
CONTINUOUS
10
195.707
20
-198.201
11
195.519
21
-198.624
0
LINE
8
BLACK
6
CONTINUOUS
10
195.519
20
-198.624
11
195.367
21
-199.062
0
LINE
8
BLACK
6
CONTINUOUS
10
195.367
20
-199.062
11
195.251
21
-199.51
0
LINE
8
BLACK
6
CONTINUOUS
10
195.251
20
-199.51
11
195.174
21
-199.967
0
LINE
8
BLACK
6
CONTINUOUS
10
195.174
20
-199.967
11
195.174
21
-199.97
0
LINE
8
BLACK
6
CONTINUOUS
10
195.174
20
-199.97
11
195.137
21
-200.408
0
LINE
8
BLACK
6
CONTINUOUS
10
195.137
20
-200.408
11
195.135
21
-200.428
0
LINE
8
BLACK
6
CONTINUOUS
10
195.135
20
-200.428
11
195.135
21
-200.892
0
LINE
8
BLACK
6
CONTINUOUS
10
195.135
20
-200.892
11
195.136
21
-200.894
0
LINE
8
BLACK
6
CONTINUOUS
10
195.136
20
-200.894
11
195.136
21
-200.894
0
LINE
8
BLACK
6
CONTINUOUS
10
195.136
20
-200.894
11
195.137
21
-200.911
0
LINE
8
BLACK
6
CONTINUOUS
10
195.137
20
-200.911
11
195.174
21
-201.353
0
LINE
8
BLACK
6
CONTINUOUS
10
195.174
20
-201.353
11
195.251
21
-201.81
0
LINE
8
BLACK
6
CONTINUOUS
10
195.251
20
-201.81
11
195.252
21
-201.812
0
LINE
8
BLACK
6
CONTINUOUS
10
195.252
20
-201.812
11
195.252
21
-201.812
0
LINE
8
BLACK
6
CONTINUOUS
10
195.252
20
-201.812
11
195.353
21
-202.205
0
LINE
8
BLACK
6
CONTINUOUS
10
195.353
20
-202.205
11
195.367
21
-202.258
0
LINE
8
BLACK
6
CONTINUOUS
10
195.367
20
-202.258
11
195.519
21
-202.696
0
LINE
8
BLACK
6
CONTINUOUS
10
195.519
20
-202.696
11
195.707
21
-203.119
0
LINE
8
BLACK
6
CONTINUOUS
10
195.707
20
-203.119
11
195.93
21
-203.524
0
LINE
8
BLACK
6
CONTINUOUS
10
195.93
20
-203.524
11
196.187
21
-203.91
0
LINE
8
BLACK
6
CONTINUOUS
10
196.187
20
-203.91
11
196.474
21
-204.273
0
LINE
8
BLACK
6
CONTINUOUS
10
196.474
20
-204.273
11
196.791
21
-204.611
0
LINE
8
BLACK
6
CONTINUOUS
10
196.791
20
-204.611
11
197.135
21
-204.921
0
LINE
8
BLACK
6
CONTINUOUS
10
197.135
20
-204.921
11
197.137
21
-204.922
0
LINE
8
BLACK
6
CONTINUOUS
10
197.137
20
-204.922
11
197.137
21
-204.922
0
LINE
8
BLACK
6
CONTINUOUS
10
197.137
20
-204.922
11
197.462
21
-205.168
0
LINE
8
BLACK
6
CONTINUOUS
10
197.462
20
-205.168
11
197.504
21
-205.201
0
LINE
8
BLACK
6
CONTINUOUS
10
197.504
20
-205.201
11
197.506
21
-205.202
0
LINE
8
BLACK
6
CONTINUOUS
10
197.506
20
-205.202
11
197.506
21
-205.202
0
LINE
8
BLACK
6
CONTINUOUS
10
197.506
20
-205.202
11
197.821
21
-205.401
0
LINE
8
BLACK
6
CONTINUOUS
10
197.821
20
-205.401
11
197.895
21
-205.449
0
LINE
8
BLACK
6
CONTINUOUS
10
197.895
20
-205.449
11
197.898
21
-205.45
0
LINE
8
BLACK
6
CONTINUOUS
10
197.898
20
-205.45
11
197.898
21
-205.45
0
LINE
8
BLACK
6
CONTINUOUS
10
197.898
20
-205.45
11
198.303
21
-205.662
0
LINE
8
BLACK
6
CONTINUOUS
10
198.303
20
-205.662
11
198.303
21
-205.662
0
LINE
8
BLACK
6
CONTINUOUS
10
198.303
20
-205.662
11
198.306
21
-205.663
0
LINE
8
BLACK
6
CONTINUOUS
10
198.306
20
-205.663
11
198.733
21
-205.843
0
LINE
8
BLACK
6
CONTINUOUS
10
198.733
20
-205.843
11
198.735
21
-205.843
0
LINE
8
BLACK
6
CONTINUOUS
10
198.735
20
-205.843
11
198.735
21
-205.843
0
LINE
8
BLACK
6
CONTINUOUS
10
198.735
20
-205.843
11
199.17
21
-205.985
0
LINE
8
BLACK
6
CONTINUOUS
10
199.17
20
-205.985
11
199.171
21
-205.985
0
LINE
8
BLACK
6
CONTINUOUS
10
199.171
20
-205.985
11
199.173
21
-205.986
0
LINE
8
BLACK
6
CONTINUOUS
10
199.173
20
-205.986
11
199.416
21
-206.043
0
LINE
8
BLACK
6
CONTINUOUS
10
199.416
20
-206.043
11
199.621
21
-206.091
0
LINE
8
BLACK
6
CONTINUOUS
10
199.621
20
-206.091
11
199.621
21
-206.091
0
LINE
8
BLACK
6
CONTINUOUS
10
199.621
20
-206.091
11
199.624
21
-206.092
0
LINE
8
BLACK
6
CONTINUOUS
10
199.624
20
-206.092
11
200.082
21
-206.159
0
LINE
8
BLACK
6
CONTINUOUS
10
200.082
20
-206.159
11
200.085
21
-206.159
0
LINE
8
BLACK
6
CONTINUOUS
10
200.085
20
-206.159
11
200.085
21
-206.159
0
LINE
8
BLACK
6
CONTINUOUS
10
200.085
20
-206.159
11
200.334
21
-206.175
0
LINE
8
BLACK
6
CONTINUOUS
10
200.334
20
-206.175
11
200.544
21
-206.188
0
LINE
8
BLACK
6
CONTINUOUS
10
200.544
20
-206.188
11
200.547
21
-206.188
0
LINE
8
BLACK
6
CONTINUOUS
10
200.547
20
-206.188
11
200.547
21
-206.188
0
LINE
8
BLACK
6
CONTINUOUS
10
200.547
20
-206.188
11
200.722
21
-206.185
0
LINE
8
BLACK
6
CONTINUOUS
10
200.722
20
-206.185
11
201.007
21
-206.179
0
LINE
8
BLACK
6
CONTINUOUS
10
201.007
20
-206.179
11
201.468
21
-206.13
0
LINE
8
BLACK
6
CONTINUOUS
10
201.468
20
-206.13
11
201.923
21
-206.043
0
LINE
8
BLACK
6
CONTINUOUS
10
201.923
20
-206.043
11
201.925
21
-206.043
0
LINE
8
BLACK
6
CONTINUOUS
10
201.925
20
-206.043
11
201.925
21
-206.043
0
LINE
8
BLACK
6
CONTINUOUS
10
201.925
20
-206.043
11
202.366
21
-205.92
0
LINE
8
BLACK
6
CONTINUOUS
10
202.366
20
-205.92
11
202.366
21
-205.92
0
LINE
8
BLACK
6
CONTINUOUS
10
202.366
20
-205.92
11
202.369
21
-205.919
0
LINE
8
BLACK
6
CONTINUOUS
10
202.369
20
-205.919
11
202.576
21
-205.842
0
LINE
8
BLACK
6
CONTINUOUS
10
202.576
20
-205.842
11
202.8
21
-205.758
0
LINE
8
BLACK
6
CONTINUOUS
10
202.8
20
-205.758
11
202.8
21
-205.758
0
LINE
8
BLACK
6
CONTINUOUS
10
202.8
20
-205.758
11
202.803
21
-205.757
0
LINE
8
BLACK
6
CONTINUOUS
10
202.803
20
-205.757
11
203.222
21
-205.56
0
LINE
8
BLACK
6
CONTINUOUS
10
203.222
20
-205.56
11
203.623
21
-205.329
0
LINE
8
BLACK
6
CONTINUOUS
10
203.623
20
-205.329
11
204.003
21
-205.064
0
LINE
8
BLACK
6
CONTINUOUS
10
204.003
20
-205.064
11
204.246
21
-204.863
0
LINE
8
BLACK
6
CONTINUOUS
10
204.246
20
-204.863
11
204.358
21
-204.771
0
LINE
8
BLACK
6
CONTINUOUS
10
204.358
20
-204.771
11
204.358
21
-204.771
0
LINE
8
BLACK
6
CONTINUOUS
10
204.358
20
-204.771
11
204.36
21
-204.769
0
LINE
8
BLACK
6
CONTINUOUS
10
204.36
20
-204.769
11
204.383
21
-204.747
0
LINE
8
BLACK
6
CONTINUOUS
10
204.383
20
-204.747
11
204.689
21
-204.447
0
LINE
8
BLACK
6
CONTINUOUS
10
204.689
20
-204.447
11
204.691
21
-204.445
0
LINE
8
BLACK
6
CONTINUOUS
10
204.691
20
-204.445
11
204.693
21
-204.443
0
LINE
8
BLACK
6
CONTINUOUS
10
204.693
20
-204.443
11
204.693
21
-204.443
0
LINE
8
BLACK
6
CONTINUOUS
10
204.693
20
-204.443
11
204.992
21
-204.097
0
LINE
8
BLACK
6
CONTINUOUS
10
204.992
20
-204.097
11
204.993
21
-204.095
0
LINE
8
BLACK
6
CONTINUOUS
10
204.993
20
-204.095
11
205.266
21
-203.72
0
LINE
8
BLACK
6
CONTINUOUS
10
205.266
20
-203.72
11
205.291
21
-203.679
0
LINE
8
BLACK
6
CONTINUOUS
10
205.291
20
-203.679
11
205.453
21
-203.411
0
LINE
8
BLACK
6
CONTINUOUS
10
205.453
20
-203.411
11
205.506
21
-203.324
0
LINE
8
BLACK
6
CONTINUOUS
10
205.506
20
-203.324
11
205.711
21
-202.909
0
LINE
8
BLACK
6
CONTINUOUS
10
205.711
20
-202.909
11
205.882
21
-202.478
0
LINE
8
BLACK
6
CONTINUOUS
10
205.882
20
-202.478
11
206.016
21
-202.035
0
LINE
8
BLACK
6
CONTINUOUS
10
206.016
20
-202.035
11
206.067
21
-201.796
0
LINE
8
BLACK
6
CONTINUOUS
10
206.067
20
-201.796
11
206.111
21
-201.585
0
LINE
8
BLACK
6
CONTINUOUS
10
206.111
20
-201.585
11
206.112
21
-201.582
0
LINE
8
BLACK
6
CONTINUOUS
10
206.112
20
-201.582
11
206.17
21
-201.123
0
LINE
8
BLACK
6
CONTINUOUS
10
206.17
20
-201.123
11
206.173
21
-201.064
0
LINE
8
BLACK
6
CONTINUOUS
10
206.173
20
-201.064
11
206.18
21
-200.892
0
LINE
8
BLACK
6
CONTINUOUS
10
206.18
20
-200.892
11
206.189
21
-200.663
0
LINE
8
BLACK
6
CONTINUOUS
10
206.189
20
-200.663
11
206.189
21
-200.66
0
LINE
8
BLACK
6
CONTINUOUS
10
174.439
20
-200.66
11
174.42
21
-200.197
0
LINE
8
BLACK
6
CONTINUOUS
10
174.42
20
-200.197
11
174.362
21
-199.738
0
LINE
8
BLACK
6
CONTINUOUS
10
174.362
20
-199.738
11
174.3
21
-199.448
0
LINE
8
BLACK
6
CONTINUOUS
10
174.3
20
-199.448
11
174.266
21
-199.287
0
LINE
8
BLACK
6
CONTINUOUS
10
174.266
20
-199.287
11
174.266
21
-199.287
0
LINE
8
BLACK
6
CONTINUOUS
10
174.266
20
-199.287
11
174.266
21
-199.285
0
LINE
8
BLACK
6
CONTINUOUS
10
174.266
20
-199.285
11
174.132
21
-198.842
0
LINE
8
BLACK
6
CONTINUOUS
10
174.132
20
-198.842
11
173.961
21
-198.411
0
LINE
8
BLACK
6
CONTINUOUS
10
173.961
20
-198.411
11
173.756
21
-197.996
0
LINE
8
BLACK
6
CONTINUOUS
10
173.756
20
-197.996
11
173.616
21
-197.766
0
LINE
8
BLACK
6
CONTINUOUS
10
173.616
20
-197.766
11
173.517
21
-197.602
0
LINE
8
BLACK
6
CONTINUOUS
10
173.517
20
-197.602
11
173.517
21
-197.602
0
LINE
8
BLACK
6
CONTINUOUS
10
173.517
20
-197.602
11
173.516
21
-197.6
0
LINE
8
BLACK
6
CONTINUOUS
10
173.516
20
-197.6
11
173.243
21
-197.225
0
LINE
8
BLACK
6
CONTINUOUS
10
173.243
20
-197.225
11
173.184
21
-197.156
0
LINE
8
BLACK
6
CONTINUOUS
10
173.184
20
-197.156
11
172.943
21
-196.877
0
LINE
8
BLACK
6
CONTINUOUS
10
172.943
20
-196.877
11
172.943
21
-196.877
0
LINE
8
BLACK
6
CONTINUOUS
10
172.943
20
-196.877
11
172.941
21
-196.875
0
LINE
8
BLACK
6
CONTINUOUS
10
172.941
20
-196.875
11
172.61
21
-196.551
0
LINE
8
BLACK
6
CONTINUOUS
10
172.61
20
-196.551
11
172.608
21
-196.549
0
LINE
8
BLACK
6
CONTINUOUS
10
172.608
20
-196.549
11
172.608
21
-196.549
0
LINE
8
BLACK
6
CONTINUOUS
10
172.608
20
-196.549
11
172.289
21
-196.285
0
LINE
8
BLACK
6
CONTINUOUS
10
172.289
20
-196.285
11
172.253
21
-196.256
0
LINE
8
BLACK
6
CONTINUOUS
10
172.253
20
-196.256
11
171.873
21
-195.991
0
LINE
8
BLACK
6
CONTINUOUS
10
171.873
20
-195.991
11
171.472
21
-195.76
0
LINE
8
BLACK
6
CONTINUOUS
10
171.472
20
-195.76
11
171.053
21
-195.563
0
LINE
8
BLACK
6
CONTINUOUS
10
171.053
20
-195.563
11
171.05
21
-195.562
0
LINE
8
BLACK
6
CONTINUOUS
10
171.05
20
-195.562
11
171.05
21
-195.562
0
LINE
8
BLACK
6
CONTINUOUS
10
171.05
20
-195.562
11
170.621
21
-195.402
0
LINE
8
BLACK
6
CONTINUOUS
10
170.621
20
-195.402
11
170.619
21
-195.401
0
LINE
8
BLACK
6
CONTINUOUS
10
170.619
20
-195.401
11
170.616
21
-195.4
0
LINE
8
BLACK
6
CONTINUOUS
10
170.616
20
-195.4
11
170.616
21
-195.4
0
LINE
8
BLACK
6
CONTINUOUS
10
170.616
20
-195.4
11
170.175
21
-195.277
0
LINE
8
BLACK
6
CONTINUOUS
10
170.175
20
-195.277
11
170.175
21
-195.277
0
LINE
8
BLACK
6
CONTINUOUS
10
170.175
20
-195.277
11
170.173
21
-195.277
0
LINE
8
BLACK
6
CONTINUOUS
10
170.173
20
-195.277
11
169.718
21
-195.19
0
LINE
8
BLACK
6
CONTINUOUS
10
169.718
20
-195.19
11
169.257
21
-195.141
0
LINE
8
BLACK
6
CONTINUOUS
10
169.257
20
-195.141
11
168.972
21
-195.135
0
LINE
8
BLACK
6
CONTINUOUS
10
168.972
20
-195.135
11
168.797
21
-195.132
0
LINE
8
BLACK
6
CONTINUOUS
10
168.797
20
-195.132
11
168.797
21
-195.132
0
LINE
8
BLACK
6
CONTINUOUS
10
168.797
20
-195.132
11
168.794
21
-195.132
0
LINE
8
BLACK
6
CONTINUOUS
10
168.794
20
-195.132
11
168.584
21
-195.145
0
LINE
8
BLACK
6
CONTINUOUS
10
168.584
20
-195.145
11
168.335
21
-195.161
0
LINE
8
BLACK
6
CONTINUOUS
10
168.335
20
-195.161
11
168.335
21
-195.161
0
LINE
8
BLACK
6
CONTINUOUS
10
168.335
20
-195.161
11
168.332
21
-195.161
0
LINE
8
BLACK
6
CONTINUOUS
10
168.332
20
-195.161
11
167.874
21
-195.228
0
LINE
8
BLACK
6
CONTINUOUS
10
167.874
20
-195.228
11
167.871
21
-195.229
0
LINE
8
BLACK
6
CONTINUOUS
10
167.871
20
-195.229
11
167.871
21
-195.229
0
LINE
8
BLACK
6
CONTINUOUS
10
167.871
20
-195.229
11
167.696
21
-195.27
0
LINE
8
BLACK
6
CONTINUOUS
10
167.696
20
-195.27
11
167.423
21
-195.334
0
LINE
8
BLACK
6
CONTINUOUS
10
167.423
20
-195.334
11
167.421
21
-195.335
0
LINE
8
BLACK
6
CONTINUOUS
10
167.421
20
-195.335
11
167.42
21
-195.335
0
LINE
8
BLACK
6
CONTINUOUS
10
167.42
20
-195.335
11
167.219
21
-195.4
0
LINE
8
BLACK
6
CONTINUOUS
10
167.219
20
-195.4
11
166.983
21
-195.477
0
LINE
8
BLACK
6
CONTINUOUS
10
166.983
20
-195.477
11
166.556
21
-195.657
0
LINE
8
BLACK
6
CONTINUOUS
10
166.556
20
-195.657
11
166.553
21
-195.658
0
LINE
8
BLACK
6
CONTINUOUS
10
166.553
20
-195.658
11
166.553
21
-195.658
0
LINE
8
BLACK
6
CONTINUOUS
10
166.553
20
-195.658
11
166.148
21
-195.87
0
LINE
8
BLACK
6
CONTINUOUS
10
166.148
20
-195.87
11
166.148
21
-195.87
0
LINE
8
BLACK
6
CONTINUOUS
10
166.148
20
-195.87
11
166.145
21
-195.871
0
LINE
8
BLACK
6
CONTINUOUS
10
166.145
20
-195.871
11
166.143
21
-195.873
0
LINE
8
BLACK
6
CONTINUOUS
10
166.143
20
-195.873
11
165.756
21
-196.118
0
LINE
8
BLACK
6
CONTINUOUS
10
165.756
20
-196.118
11
165.756
21
-196.118
0
LINE
8
BLACK
6
CONTINUOUS
10
165.756
20
-196.118
11
165.754
21
-196.119
0
LINE
8
BLACK
6
CONTINUOUS
10
165.754
20
-196.119
11
165.752
21
-196.121
0
LINE
8
BLACK
6
CONTINUOUS
10
165.752
20
-196.121
11
165.752
21
-196.121
0
LINE
8
BLACK
6
CONTINUOUS
10
165.752
20
-196.121
11
165.519
21
-196.298
0
LINE
8
BLACK
6
CONTINUOUS
10
165.519
20
-196.298
11
165.385
21
-196.399
0
LINE
8
BLACK
6
CONTINUOUS
10
165.385
20
-196.399
11
165.041
21
-196.709
0
LINE
8
BLACK
6
CONTINUOUS
10
165.041
20
-196.709
11
164.724
21
-197.047
0
LINE
8
BLACK
6
CONTINUOUS
10
164.724
20
-197.047
11
164.437
21
-197.41
0
LINE
8
BLACK
6
CONTINUOUS
10
164.437
20
-197.41
11
164.269
21
-197.663
0
LINE
8
BLACK
6
CONTINUOUS
10
164.269
20
-197.663
11
164.187
21
-197.786
0
LINE
8
BLACK
6
CONTINUOUS
10
164.187
20
-197.786
11
164.18
21
-197.796
0
LINE
8
BLACK
6
CONTINUOUS
10
164.18
20
-197.796
11
163.957
21
-198.201
0
LINE
8
BLACK
6
CONTINUOUS
10
163.957
20
-198.201
11
163.769
21
-198.624
0
LINE
8
BLACK
6
CONTINUOUS
10
163.769
20
-198.624
11
163.617
21
-199.062
0
LINE
8
BLACK
6
CONTINUOUS
10
163.617
20
-199.062
11
163.501
21
-199.51
0
LINE
8
BLACK
6
CONTINUOUS
10
163.501
20
-199.51
11
163.424
21
-199.967
0
LINE
8
BLACK
6
CONTINUOUS
10
163.424
20
-199.967
11
163.424
21
-199.97
0
LINE
8
BLACK
6
CONTINUOUS
10
163.424
20
-199.97
11
163.387
21
-200.408
0
LINE
8
BLACK
6
CONTINUOUS
10
163.387
20
-200.408
11
163.385
21
-200.428
0
LINE
8
BLACK
6
CONTINUOUS
10
163.385
20
-200.428
11
163.385
21
-200.892
0
LINE
8
BLACK
6
CONTINUOUS
10
163.385
20
-200.892
11
163.386
21
-200.894
0
LINE
8
BLACK
6
CONTINUOUS
10
163.386
20
-200.894
11
163.386
21
-200.894
0
LINE
8
BLACK
6
CONTINUOUS
10
163.386
20
-200.894
11
163.387
21
-200.911
0
LINE
8
BLACK
6
CONTINUOUS
10
163.387
20
-200.911
11
163.424
21
-201.353
0
LINE
8
BLACK
6
CONTINUOUS
10
163.424
20
-201.353
11
163.501
21
-201.81
0
LINE
8
BLACK
6
CONTINUOUS
10
163.501
20
-201.81
11
163.502
21
-201.812
0
LINE
8
BLACK
6
CONTINUOUS
10
163.502
20
-201.812
11
163.502
21
-201.812
0
LINE
8
BLACK
6
CONTINUOUS
10
163.502
20
-201.812
11
163.603
21
-202.205
0
LINE
8
BLACK
6
CONTINUOUS
10
163.603
20
-202.205
11
163.617
21
-202.258
0
LINE
8
BLACK
6
CONTINUOUS
10
163.617
20
-202.258
11
163.769
21
-202.696
0
LINE
8
BLACK
6
CONTINUOUS
10
163.769
20
-202.696
11
163.957
21
-203.119
0
LINE
8
BLACK
6
CONTINUOUS
10
163.957
20
-203.119
11
164.18
21
-203.524
0
LINE
8
BLACK
6
CONTINUOUS
10
164.18
20
-203.524
11
164.437
21
-203.91
0
LINE
8
BLACK
6
CONTINUOUS
10
164.437
20
-203.91
11
164.724
21
-204.273
0
LINE
8
BLACK
6
CONTINUOUS
10
164.724
20
-204.273
11
165.041
21
-204.611
0
LINE
8
BLACK
6
CONTINUOUS
10
165.041
20
-204.611
11
165.385
21
-204.921
0
LINE
8
BLACK
6
CONTINUOUS
10
165.385
20
-204.921
11
165.387
21
-204.922
0
LINE
8
BLACK
6
CONTINUOUS
10
165.387
20
-204.922
11
165.387
21
-204.922
0
LINE
8
BLACK
6
CONTINUOUS
10
165.387
20
-204.922
11
165.712
21
-205.168
0
LINE
8
BLACK
6
CONTINUOUS
10
165.712
20
-205.168
11
165.754
21
-205.201
0
LINE
8
BLACK
6
CONTINUOUS
10
165.754
20
-205.201
11
165.756
21
-205.202
0
LINE
8
BLACK
6
CONTINUOUS
10
165.756
20
-205.202
11
165.756
21
-205.202
0
LINE
8
BLACK
6
CONTINUOUS
10
165.756
20
-205.202
11
166.071
21
-205.401
0
LINE
8
BLACK
6
CONTINUOUS
10
166.071
20
-205.401
11
166.145
21
-205.449
0
LINE
8
BLACK
6
CONTINUOUS
10
166.145
20
-205.449
11
166.148
21
-205.45
0
LINE
8
BLACK
6
CONTINUOUS
10
166.148
20
-205.45
11
166.148
21
-205.45
0
LINE
8
BLACK
6
CONTINUOUS
10
166.148
20
-205.45
11
166.553
21
-205.662
0
LINE
8
BLACK
6
CONTINUOUS
10
166.553
20
-205.662
11
166.553
21
-205.662
0
LINE
8
BLACK
6
CONTINUOUS
10
166.553
20
-205.662
11
166.556
21
-205.663
0
LINE
8
BLACK
6
CONTINUOUS
10
166.556
20
-205.663
11
166.983
21
-205.843
0
LINE
8
BLACK
6
CONTINUOUS
10
166.983
20
-205.843
11
166.985
21
-205.843
0
LINE
8
BLACK
6
CONTINUOUS
10
166.985
20
-205.843
11
166.985
21
-205.843
0
LINE
8
BLACK
6
CONTINUOUS
10
166.985
20
-205.843
11
167.42
21
-205.985
0
LINE
8
BLACK
6
CONTINUOUS
10
167.42
20
-205.985
11
167.421
21
-205.985
0
LINE
8
BLACK
6
CONTINUOUS
10
167.421
20
-205.985
11
167.423
21
-205.986
0
LINE
8
BLACK
6
CONTINUOUS
10
167.423
20
-205.986
11
167.666
21
-206.043
0
LINE
8
BLACK
6
CONTINUOUS
10
167.666
20
-206.043
11
167.871
21
-206.091
0
LINE
8
BLACK
6
CONTINUOUS
10
167.871
20
-206.091
11
167.871
21
-206.091
0
LINE
8
BLACK
6
CONTINUOUS
10
167.871
20
-206.091
11
167.874
21
-206.092
0
LINE
8
BLACK
6
CONTINUOUS
10
167.874
20
-206.092
11
168.332
21
-206.159
0
LINE
8
BLACK
6
CONTINUOUS
10
168.332
20
-206.159
11
168.335
21
-206.159
0
LINE
8
BLACK
6
CONTINUOUS
10
168.335
20
-206.159
11
168.335
21
-206.159
0
LINE
8
BLACK
6
CONTINUOUS
10
168.335
20
-206.159
11
168.584
21
-206.175
0
LINE
8
BLACK
6
CONTINUOUS
10
168.584
20
-206.175
11
168.794
21
-206.188
0
LINE
8
BLACK
6
CONTINUOUS
10
168.794
20
-206.188
11
168.797
21
-206.188
0
LINE
8
BLACK
6
CONTINUOUS
10
168.797
20
-206.188
11
168.797
21
-206.188
0
LINE
8
BLACK
6
CONTINUOUS
10
168.797
20
-206.188
11
168.972
21
-206.185
0
LINE
8
BLACK
6
CONTINUOUS
10
168.972
20
-206.185
11
169.257
21
-206.179
0
LINE
8
BLACK
6
CONTINUOUS
10
169.257
20
-206.179
11
169.718
21
-206.13
0
LINE
8
BLACK
6
CONTINUOUS
10
169.718
20
-206.13
11
170.173
21
-206.043
0
LINE
8
BLACK
6
CONTINUOUS
10
170.173
20
-206.043
11
170.175
21
-206.043
0
LINE
8
BLACK
6
CONTINUOUS
10
170.175
20
-206.043
11
170.175
21
-206.043
0
LINE
8
BLACK
6
CONTINUOUS
10
170.175
20
-206.043
11
170.616
21
-205.92
0
LINE
8
BLACK
6
CONTINUOUS
10
170.616
20
-205.92
11
170.616
21
-205.92
0
LINE
8
BLACK
6
CONTINUOUS
10
170.616
20
-205.92
11
170.619
21
-205.919
0
LINE
8
BLACK
6
CONTINUOUS
10
170.619
20
-205.919
11
170.826
21
-205.842
0
LINE
8
BLACK
6
CONTINUOUS
10
170.826
20
-205.842
11
171.05
21
-205.758
0
LINE
8
BLACK
6
CONTINUOUS
10
171.05
20
-205.758
11
171.05
21
-205.758
0
LINE
8
BLACK
6
CONTINUOUS
10
171.05
20
-205.758
11
171.053
21
-205.757
0
LINE
8
BLACK
6
CONTINUOUS
10
171.053
20
-205.757
11
171.472
21
-205.56
0
LINE
8
BLACK
6
CONTINUOUS
10
171.472
20
-205.56
11
171.873
21
-205.329
0
LINE
8
BLACK
6
CONTINUOUS
10
171.873
20
-205.329
11
172.253
21
-205.064
0
LINE
8
BLACK
6
CONTINUOUS
10
172.253
20
-205.064
11
172.496
21
-204.863
0
LINE
8
BLACK
6
CONTINUOUS
10
172.496
20
-204.863
11
172.608
21
-204.771
0
LINE
8
BLACK
6
CONTINUOUS
10
172.608
20
-204.771
11
172.608
21
-204.771
0
LINE
8
BLACK
6
CONTINUOUS
10
172.608
20
-204.771
11
172.61
21
-204.769
0
LINE
8
BLACK
6
CONTINUOUS
10
172.61
20
-204.769
11
172.633
21
-204.747
0
LINE
8
BLACK
6
CONTINUOUS
10
172.633
20
-204.747
11
172.939
21
-204.447
0
LINE
8
BLACK
6
CONTINUOUS
10
172.939
20
-204.447
11
172.941
21
-204.445
0
LINE
8
BLACK
6
CONTINUOUS
10
172.941
20
-204.445
11
172.943
21
-204.443
0
LINE
8
BLACK
6
CONTINUOUS
10
172.943
20
-204.443
11
172.943
21
-204.443
0
LINE
8
BLACK
6
CONTINUOUS
10
172.943
20
-204.443
11
173.242
21
-204.097
0
LINE
8
BLACK
6
CONTINUOUS
10
173.242
20
-204.097
11
173.243
21
-204.095
0
LINE
8
BLACK
6
CONTINUOUS
10
173.243
20
-204.095
11
173.516
21
-203.72
0
LINE
8
BLACK
6
CONTINUOUS
10
173.516
20
-203.72
11
173.541
21
-203.679
0
LINE
8
BLACK
6
CONTINUOUS
10
173.541
20
-203.679
11
173.703
21
-203.411
0
LINE
8
BLACK
6
CONTINUOUS
10
173.703
20
-203.411
11
173.756
21
-203.324
0
LINE
8
BLACK
6
CONTINUOUS
10
173.756
20
-203.324
11
173.961
21
-202.909
0
LINE
8
BLACK
6
CONTINUOUS
10
173.961
20
-202.909
11
174.132
21
-202.478
0
LINE
8
BLACK
6
CONTINUOUS
10
174.132
20
-202.478
11
174.266
21
-202.035
0
LINE
8
BLACK
6
CONTINUOUS
10
174.266
20
-202.035
11
174.317
21
-201.796
0
LINE
8
BLACK
6
CONTINUOUS
10
174.317
20
-201.796
11
174.361
21
-201.585
0
LINE
8
BLACK
6
CONTINUOUS
10
174.361
20
-201.585
11
174.362
21
-201.582
0
LINE
8
BLACK
6
CONTINUOUS
10
174.362
20
-201.582
11
174.42
21
-201.123
0
LINE
8
BLACK
6
CONTINUOUS
10
174.42
20
-201.123
11
174.423
21
-201.064
0
LINE
8
BLACK
6
CONTINUOUS
10
174.423
20
-201.064
11
174.43
21
-200.892
0
LINE
8
BLACK
6
CONTINUOUS
10
174.43
20
-200.892
11
174.439
21
-200.663
0
LINE
8
BLACK
6
CONTINUOUS
10
174.439
20
-200.663
11
174.439
21
-200.66
0
LINE
8
BLACK
6
CONTINUOUS
10
142.689
20
-200.66
11
142.67
21
-200.197
0
LINE
8
BLACK
6
CONTINUOUS
10
142.67
20
-200.197
11
142.612
21
-199.738
0
LINE
8
BLACK
6
CONTINUOUS
10
142.612
20
-199.738
11
142.55
21
-199.448
0
LINE
8
BLACK
6
CONTINUOUS
10
142.55
20
-199.448
11
142.516
21
-199.287
0
LINE
8
BLACK
6
CONTINUOUS
10
142.516
20
-199.287
11
142.516
21
-199.287
0
LINE
8
BLACK
6
CONTINUOUS
10
142.516
20
-199.287
11
142.516
21
-199.285
0
LINE
8
BLACK
6
CONTINUOUS
10
142.516
20
-199.285
11
142.382
21
-198.842
0
LINE
8
BLACK
6
CONTINUOUS
10
142.382
20
-198.842
11
142.211
21
-198.411
0
LINE
8
BLACK
6
CONTINUOUS
10
142.211
20
-198.411
11
142.006
21
-197.996
0
LINE
8
BLACK
6
CONTINUOUS
10
142.006
20
-197.996
11
141.866
21
-197.766
0
LINE
8
BLACK
6
CONTINUOUS
10
141.866
20
-197.766
11
141.767
21
-197.602
0
LINE
8
BLACK
6
CONTINUOUS
10
141.767
20
-197.602
11
141.767
21
-197.602
0
LINE
8
BLACK
6
CONTINUOUS
10
141.767
20
-197.602
11
141.766
21
-197.6
0
LINE
8
BLACK
6
CONTINUOUS
10
141.766
20
-197.6
11
141.493
21
-197.225
0
LINE
8
BLACK
6
CONTINUOUS
10
141.493
20
-197.225
11
141.434
21
-197.156
0
LINE
8
BLACK
6
CONTINUOUS
10
141.434
20
-197.156
11
141.193
21
-196.877
0
LINE
8
BLACK
6
CONTINUOUS
10
141.193
20
-196.877
11
141.193
21
-196.877
0
LINE
8
BLACK
6
CONTINUOUS
10
141.193
20
-196.877
11
141.191
21
-196.875
0
LINE
8
BLACK
6
CONTINUOUS
10
141.191
20
-196.875
11
140.86
21
-196.551
0
LINE
8
BLACK
6
CONTINUOUS
10
140.86
20
-196.551
11
140.858
21
-196.549
0
LINE
8
BLACK
6
CONTINUOUS
10
140.858
20
-196.549
11
140.858
21
-196.549
0
LINE
8
BLACK
6
CONTINUOUS
10
140.858
20
-196.549
11
140.539
21
-196.285
0
LINE
8
BLACK
6
CONTINUOUS
10
140.539
20
-196.285
11
140.503
21
-196.256
0
LINE
8
BLACK
6
CONTINUOUS
10
140.503
20
-196.256
11
140.123
21
-195.991
0
LINE
8
BLACK
6
CONTINUOUS
10
140.123
20
-195.991
11
139.722
21
-195.76
0
LINE
8
BLACK
6
CONTINUOUS
10
139.722
20
-195.76
11
139.303
21
-195.563
0
LINE
8
BLACK
6
CONTINUOUS
10
139.303
20
-195.563
11
139.3
21
-195.562
0
LINE
8
BLACK
6
CONTINUOUS
10
139.3
20
-195.562
11
139.3
21
-195.562
0
LINE
8
BLACK
6
CONTINUOUS
10
139.3
20
-195.562
11
138.871
21
-195.402
0
LINE
8
BLACK
6
CONTINUOUS
10
138.871
20
-195.402
11
138.869
21
-195.401
0
LINE
8
BLACK
6
CONTINUOUS
10
138.869
20
-195.401
11
138.866
21
-195.4
0
LINE
8
BLACK
6
CONTINUOUS
10
138.866
20
-195.4
11
138.866
21
-195.4
0
LINE
8
BLACK
6
CONTINUOUS
10
138.866
20
-195.4
11
138.425
21
-195.277
0
LINE
8
BLACK
6
CONTINUOUS
10
138.425
20
-195.277
11
138.425
21
-195.277
0
LINE
8
BLACK
6
CONTINUOUS
10
138.425
20
-195.277
11
138.423
21
-195.277
0
LINE
8
BLACK
6
CONTINUOUS
10
138.423
20
-195.277
11
137.968
21
-195.19
0
LINE
8
BLACK
6
CONTINUOUS
10
137.968
20
-195.19
11
137.507
21
-195.141
0
LINE
8
BLACK
6
CONTINUOUS
10
137.507
20
-195.141
11
137.222
21
-195.135
0
LINE
8
BLACK
6
CONTINUOUS
10
137.222
20
-195.135
11
137.047
21
-195.132
0
LINE
8
BLACK
6
CONTINUOUS
10
137.047
20
-195.132
11
137.047
21
-195.132
0
LINE
8
BLACK
6
CONTINUOUS
10
137.047
20
-195.132
11
137.044
21
-195.132
0
LINE
8
BLACK
6
CONTINUOUS
10
137.044
20
-195.132
11
136.834
21
-195.145
0
LINE
8
BLACK
6
CONTINUOUS
10
136.834
20
-195.145
11
136.585
21
-195.161
0
LINE
8
BLACK
6
CONTINUOUS
10
136.585
20
-195.161
11
136.585
21
-195.161
0
LINE
8
BLACK
6
CONTINUOUS
10
136.585
20
-195.161
11
136.582
21
-195.161
0
LINE
8
BLACK
6
CONTINUOUS
10
136.582
20
-195.161
11
136.124
21
-195.228
0
LINE
8
BLACK
6
CONTINUOUS
10
136.124
20
-195.228
11
136.121
21
-195.229
0
LINE
8
BLACK
6
CONTINUOUS
10
136.121
20
-195.229
11
136.121
21
-195.229
0
LINE
8
BLACK
6
CONTINUOUS
10
136.121
20
-195.229
11
135.946
21
-195.27
0
LINE
8
BLACK
6
CONTINUOUS
10
135.946
20
-195.27
11
135.673
21
-195.334
0
LINE
8
BLACK
6
CONTINUOUS
10
135.673
20
-195.334
11
135.671
21
-195.335
0
LINE
8
BLACK
6
CONTINUOUS
10
135.671
20
-195.335
11
135.67
21
-195.335
0
LINE
8
BLACK
6
CONTINUOUS
10
135.67
20
-195.335
11
135.469
21
-195.4
0
LINE
8
BLACK
6
CONTINUOUS
10
135.469
20
-195.4
11
135.233
21
-195.477
0
LINE
8
BLACK
6
CONTINUOUS
10
135.233
20
-195.477
11
134.806
21
-195.657
0
LINE
8
BLACK
6
CONTINUOUS
10
134.806
20
-195.657
11
134.803
21
-195.658
0
LINE
8
BLACK
6
CONTINUOUS
10
134.803
20
-195.658
11
134.803
21
-195.658
0
LINE
8
BLACK
6
CONTINUOUS
10
134.803
20
-195.658
11
134.398
21
-195.87
0
LINE
8
BLACK
6
CONTINUOUS
10
134.398
20
-195.87
11
134.398
21
-195.87
0
LINE
8
BLACK
6
CONTINUOUS
10
134.398
20
-195.87
11
134.395
21
-195.871
0
LINE
8
BLACK
6
CONTINUOUS
10
134.395
20
-195.871
11
134.393
21
-195.873
0
LINE
8
BLACK
6
CONTINUOUS
10
134.393
20
-195.873
11
134.006
21
-196.118
0
LINE
8
BLACK
6
CONTINUOUS
10
134.006
20
-196.118
11
134.006
21
-196.118
0
LINE
8
BLACK
6
CONTINUOUS
10
134.006
20
-196.118
11
134.004
21
-196.119
0
LINE
8
BLACK
6
CONTINUOUS
10
134.004
20
-196.119
11
134.002
21
-196.121
0
LINE
8
BLACK
6
CONTINUOUS
10
134.002
20
-196.121
11
134.002
21
-196.121
0
LINE
8
BLACK
6
CONTINUOUS
10
134.002
20
-196.121
11
133.769
21
-196.298
0
LINE
8
BLACK
6
CONTINUOUS
10
133.769
20
-196.298
11
133.635
21
-196.399
0
LINE
8
BLACK
6
CONTINUOUS
10
133.635
20
-196.399
11
133.291
21
-196.709
0
LINE
8
BLACK
6
CONTINUOUS
10
133.291
20
-196.709
11
132.974
21
-197.047
0
LINE
8
BLACK
6
CONTINUOUS
10
132.974
20
-197.047
11
132.687
21
-197.41
0
LINE
8
BLACK
6
CONTINUOUS
10
132.687
20
-197.41
11
132.519
21
-197.663
0
LINE
8
BLACK
6
CONTINUOUS
10
132.519
20
-197.663
11
132.437
21
-197.786
0
LINE
8
BLACK
6
CONTINUOUS
10
132.437
20
-197.786
11
132.43
21
-197.796
0
LINE
8
BLACK
6
CONTINUOUS
10
132.43
20
-197.796
11
132.207
21
-198.201
0
LINE
8
BLACK
6
CONTINUOUS
10
132.207
20
-198.201
11
132.019
21
-198.624
0
LINE
8
BLACK
6
CONTINUOUS
10
132.019
20
-198.624
11
131.867
21
-199.062
0
LINE
8
BLACK
6
CONTINUOUS
10
131.867
20
-199.062
11
131.751
21
-199.51
0
LINE
8
BLACK
6
CONTINUOUS
10
131.751
20
-199.51
11
131.674
21
-199.967
0
LINE
8
BLACK
6
CONTINUOUS
10
131.674
20
-199.967
11
131.674
21
-199.97
0
LINE
8
BLACK
6
CONTINUOUS
10
131.674
20
-199.97
11
131.637
21
-200.408
0
LINE
8
BLACK
6
CONTINUOUS
10
131.637
20
-200.408
11
131.635
21
-200.428
0
LINE
8
BLACK
6
CONTINUOUS
10
131.635
20
-200.428
11
131.635
21
-200.892
0
LINE
8
BLACK
6
CONTINUOUS
10
131.635
20
-200.892
11
131.636
21
-200.894
0
LINE
8
BLACK
6
CONTINUOUS
10
131.636
20
-200.894
11
131.636
21
-200.894
0
LINE
8
BLACK
6
CONTINUOUS
10
131.636
20
-200.894
11
131.637
21
-200.911
0
LINE
8
BLACK
6
CONTINUOUS
10
131.637
20
-200.911
11
131.674
21
-201.353
0
LINE
8
BLACK
6
CONTINUOUS
10
131.674
20
-201.353
11
131.751
21
-201.81
0
LINE
8
BLACK
6
CONTINUOUS
10
131.751
20
-201.81
11
131.752
21
-201.812
0
LINE
8
BLACK
6
CONTINUOUS
10
131.752
20
-201.812
11
131.752
21
-201.812
0
LINE
8
BLACK
6
CONTINUOUS
10
131.752
20
-201.812
11
131.853
21
-202.205
0
LINE
8
BLACK
6
CONTINUOUS
10
131.853
20
-202.205
11
131.867
21
-202.258
0
LINE
8
BLACK
6
CONTINUOUS
10
131.867
20
-202.258
11
132.019
21
-202.696
0
LINE
8
BLACK
6
CONTINUOUS
10
132.019
20
-202.696
11
132.207
21
-203.119
0
LINE
8
BLACK
6
CONTINUOUS
10
132.207
20
-203.119
11
132.43
21
-203.524
0
LINE
8
BLACK
6
CONTINUOUS
10
132.43
20
-203.524
11
132.687
21
-203.91
0
LINE
8
BLACK
6
CONTINUOUS
10
132.687
20
-203.91
11
132.974
21
-204.273
0
LINE
8
BLACK
6
CONTINUOUS
10
132.974
20
-204.273
11
133.291
21
-204.611
0
LINE
8
BLACK
6
CONTINUOUS
10
133.291
20
-204.611
11
133.635
21
-204.921
0
LINE
8
BLACK
6
CONTINUOUS
10
133.635
20
-204.921
11
133.637
21
-204.922
0
LINE
8
BLACK
6
CONTINUOUS
10
133.637
20
-204.922
11
133.637
21
-204.922
0
LINE
8
BLACK
6
CONTINUOUS
10
133.637
20
-204.922
11
133.962
21
-205.168
0
LINE
8
BLACK
6
CONTINUOUS
10
133.962
20
-205.168
11
134.004
21
-205.201
0
LINE
8
BLACK
6
CONTINUOUS
10
134.004
20
-205.201
11
134.006
21
-205.202
0
LINE
8
BLACK
6
CONTINUOUS
10
134.006
20
-205.202
11
134.006
21
-205.202
0
LINE
8
BLACK
6
CONTINUOUS
10
134.006
20
-205.202
11
134.321
21
-205.401
0
LINE
8
BLACK
6
CONTINUOUS
10
134.321
20
-205.401
11
134.395
21
-205.449
0
LINE
8
BLACK
6
CONTINUOUS
10
134.395
20
-205.449
11
134.398
21
-205.45
0
LINE
8
BLACK
6
CONTINUOUS
10
134.398
20
-205.45
11
134.398
21
-205.45
0
LINE
8
BLACK
6
CONTINUOUS
10
134.398
20
-205.45
11
134.803
21
-205.662
0
LINE
8
BLACK
6
CONTINUOUS
10
134.803
20
-205.662
11
134.803
21
-205.662
0
LINE
8
BLACK
6
CONTINUOUS
10
134.803
20
-205.662
11
134.806
21
-205.663
0
LINE
8
BLACK
6
CONTINUOUS
10
134.806
20
-205.663
11
135.233
21
-205.843
0
LINE
8
BLACK
6
CONTINUOUS
10
135.233
20
-205.843
11
135.235
21
-205.843
0
LINE
8
BLACK
6
CONTINUOUS
10
135.235
20
-205.843
11
135.235
21
-205.843
0
LINE
8
BLACK
6
CONTINUOUS
10
135.235
20
-205.843
11
135.67
21
-205.985
0
LINE
8
BLACK
6
CONTINUOUS
10
135.67
20
-205.985
11
135.671
21
-205.985
0
LINE
8
BLACK
6
CONTINUOUS
10
135.671
20
-205.985
11
135.673
21
-205.986
0
LINE
8
BLACK
6
CONTINUOUS
10
135.673
20
-205.986
11
135.916
21
-206.043
0
LINE
8
BLACK
6
CONTINUOUS
10
135.916
20
-206.043
11
136.121
21
-206.091
0
LINE
8
BLACK
6
CONTINUOUS
10
136.121
20
-206.091
11
136.121
21
-206.091
0
LINE
8
BLACK
6
CONTINUOUS
10
136.121
20
-206.091
11
136.124
21
-206.092
0
LINE
8
BLACK
6
CONTINUOUS
10
136.124
20
-206.092
11
136.582
21
-206.159
0
LINE
8
BLACK
6
CONTINUOUS
10
136.582
20
-206.159
11
136.585
21
-206.159
0
LINE
8
BLACK
6
CONTINUOUS
10
136.585
20
-206.159
11
136.585
21
-206.159
0
LINE
8
BLACK
6
CONTINUOUS
10
136.585
20
-206.159
11
136.834
21
-206.175
0
LINE
8
BLACK
6
CONTINUOUS
10
136.834
20
-206.175
11
137.044
21
-206.188
0
LINE
8
BLACK
6
CONTINUOUS
10
137.044
20
-206.188
11
137.047
21
-206.188
0
LINE
8
BLACK
6
CONTINUOUS
10
137.047
20
-206.188
11
137.047
21
-206.188
0
LINE
8
BLACK
6
CONTINUOUS
10
137.047
20
-206.188
11
137.222
21
-206.185
0
LINE
8
BLACK
6
CONTINUOUS
10
137.222
20
-206.185
11
137.507
21
-206.179
0
LINE
8
BLACK
6
CONTINUOUS
10
137.507
20
-206.179
11
137.968
21
-206.13
0
LINE
8
BLACK
6
CONTINUOUS
10
137.968
20
-206.13
11
138.423
21
-206.043
0
LINE
8
BLACK
6
CONTINUOUS
10
138.423
20
-206.043
11
138.425
21
-206.043
0
LINE
8
BLACK
6
CONTINUOUS
10
138.425
20
-206.043
11
138.425
21
-206.043
0
LINE
8
BLACK
6
CONTINUOUS
10
138.425
20
-206.043
11
138.866
21
-205.92
0
LINE
8
BLACK
6
CONTINUOUS
10
138.866
20
-205.92
11
138.866
21
-205.92
0
LINE
8
BLACK
6
CONTINUOUS
10
138.866
20
-205.92
11
138.869
21
-205.919
0
LINE
8
BLACK
6
CONTINUOUS
10
138.869
20
-205.919
11
139.076
21
-205.842
0
LINE
8
BLACK
6
CONTINUOUS
10
139.076
20
-205.842
11
139.3
21
-205.758
0
LINE
8
BLACK
6
CONTINUOUS
10
139.3
20
-205.758
11
139.3
21
-205.758
0
LINE
8
BLACK
6
CONTINUOUS
10
139.3
20
-205.758
11
139.303
21
-205.757
0
LINE
8
BLACK
6
CONTINUOUS
10
139.303
20
-205.757
11
139.722
21
-205.56
0
LINE
8
BLACK
6
CONTINUOUS
10
139.722
20
-205.56
11
140.123
21
-205.329
0
LINE
8
BLACK
6
CONTINUOUS
10
140.123
20
-205.329
11
140.503
21
-205.064
0
LINE
8
BLACK
6
CONTINUOUS
10
140.503
20
-205.064
11
140.746
21
-204.863
0
LINE
8
BLACK
6
CONTINUOUS
10
140.746
20
-204.863
11
140.858
21
-204.771
0
LINE
8
BLACK
6
CONTINUOUS
10
140.858
20
-204.771
11
140.858
21
-204.771
0
LINE
8
BLACK
6
CONTINUOUS
10
140.858
20
-204.771
11
140.86
21
-204.769
0
LINE
8
BLACK
6
CONTINUOUS
10
140.86
20
-204.769
11
140.883
21
-204.747
0
LINE
8
BLACK
6
CONTINUOUS
10
140.883
20
-204.747
11
141.189
21
-204.447
0
LINE
8
BLACK
6
CONTINUOUS
10
141.189
20
-204.447
11
141.191
21
-204.445
0
LINE
8
BLACK
6
CONTINUOUS
10
141.191
20
-204.445
11
141.193
21
-204.443
0
LINE
8
BLACK
6
CONTINUOUS
10
141.193
20
-204.443
11
141.193
21
-204.443
0
LINE
8
BLACK
6
CONTINUOUS
10
141.193
20
-204.443
11
141.492
21
-204.097
0
LINE
8
BLACK
6
CONTINUOUS
10
141.492
20
-204.097
11
141.493
21
-204.095
0
LINE
8
BLACK
6
CONTINUOUS
10
141.493
20
-204.095
11
141.766
21
-203.72
0
LINE
8
BLACK
6
CONTINUOUS
10
141.766
20
-203.72
11
141.791
21
-203.679
0
LINE
8
BLACK
6
CONTINUOUS
10
141.791
20
-203.679
11
141.953
21
-203.411
0
LINE
8
BLACK
6
CONTINUOUS
10
141.953
20
-203.411
11
142.006
21
-203.324
0
LINE
8
BLACK
6
CONTINUOUS
10
142.006
20
-203.324
11
142.211
21
-202.909
0
LINE
8
BLACK
6
CONTINUOUS
10
142.211
20
-202.909
11
142.382
21
-202.478
0
LINE
8
BLACK
6
CONTINUOUS
10
142.382
20
-202.478
11
142.516
21
-202.035
0
LINE
8
BLACK
6
CONTINUOUS
10
142.516
20
-202.035
11
142.567
21
-201.796
0
LINE
8
BLACK
6
CONTINUOUS
10
142.567
20
-201.796
11
142.612
21
-201.585
0
LINE
8
BLACK
6
CONTINUOUS
10
142.612
20
-201.585
11
142.612
21
-201.582
0
LINE
8
BLACK
6
CONTINUOUS
10
142.612
20
-201.582
11
142.67
21
-201.123
0
LINE
8
BLACK
6
CONTINUOUS
10
142.67
20
-201.123
11
142.673
21
-201.064
0
LINE
8
BLACK
6
CONTINUOUS
10
142.673
20
-201.064
11
142.68
21
-200.892
0
LINE
8
BLACK
6
CONTINUOUS
10
142.68
20
-200.892
11
142.689
21
-200.663
0
LINE
8
BLACK
6
CONTINUOUS
10
142.689
20
-200.663
11
142.689
21
-200.66
0
LINE
8
BLACK
6
CONTINUOUS
10
104.589
20
-200.66
11
104.57
21
-200.197
0
LINE
8
BLACK
6
CONTINUOUS
10
104.57
20
-200.197
11
104.512
21
-199.738
0
LINE
8
BLACK
6
CONTINUOUS
10
104.512
20
-199.738
11
104.45
21
-199.448
0
LINE
8
BLACK
6
CONTINUOUS
10
104.45
20
-199.448
11
104.416
21
-199.287
0
LINE
8
BLACK
6
CONTINUOUS
10
104.416
20
-199.287
11
104.416
21
-199.287
0
LINE
8
BLACK
6
CONTINUOUS
10
104.416
20
-199.287
11
104.416
21
-199.285
0
LINE
8
BLACK
6
CONTINUOUS
10
104.416
20
-199.285
11
104.282
21
-198.842
0
LINE
8
BLACK
6
CONTINUOUS
10
104.282
20
-198.842
11
104.111
21
-198.411
0
LINE
8
BLACK
6
CONTINUOUS
10
104.111
20
-198.411
11
103.906
21
-197.996
0
LINE
8
BLACK
6
CONTINUOUS
10
103.906
20
-197.996
11
103.766
21
-197.766
0
LINE
8
BLACK
6
CONTINUOUS
10
103.766
20
-197.766
11
103.667
21
-197.602
0
LINE
8
BLACK
6
CONTINUOUS
10
103.667
20
-197.602
11
103.667
21
-197.602
0
LINE
8
BLACK
6
CONTINUOUS
10
103.667
20
-197.602
11
103.666
21
-197.6
0
LINE
8
BLACK
6
CONTINUOUS
10
103.666
20
-197.6
11
103.393
21
-197.225
0
LINE
8
BLACK
6
CONTINUOUS
10
103.393
20
-197.225
11
103.334
21
-197.156
0
LINE
8
BLACK
6
CONTINUOUS
10
103.334
20
-197.156
11
103.093
21
-196.877
0
LINE
8
BLACK
6
CONTINUOUS
10
103.093
20
-196.877
11
103.093
21
-196.877
0
LINE
8
BLACK
6
CONTINUOUS
10
103.093
20
-196.877
11
103.091
21
-196.875
0
LINE
8
BLACK
6
CONTINUOUS
10
103.091
20
-196.875
11
102.76
21
-196.551
0
LINE
8
BLACK
6
CONTINUOUS
10
102.76
20
-196.551
11
102.758
21
-196.549
0
LINE
8
BLACK
6
CONTINUOUS
10
102.758
20
-196.549
11
102.758
21
-196.549
0
LINE
8
BLACK
6
CONTINUOUS
10
102.758
20
-196.549
11
102.439
21
-196.285
0
LINE
8
BLACK
6
CONTINUOUS
10
102.439
20
-196.285
11
102.403
21
-196.256
0
LINE
8
BLACK
6
CONTINUOUS
10
102.403
20
-196.256
11
102.023
21
-195.991
0
LINE
8
BLACK
6
CONTINUOUS
10
102.023
20
-195.991
11
101.622
21
-195.76
0
LINE
8
BLACK
6
CONTINUOUS
10
101.622
20
-195.76
11
101.203
21
-195.563
0
LINE
8
BLACK
6
CONTINUOUS
10
101.203
20
-195.563
11
101.2
21
-195.562
0
LINE
8
BLACK
6
CONTINUOUS
10
101.2
20
-195.562
11
101.2
21
-195.562
0
LINE
8
BLACK
6
CONTINUOUS
10
101.2
20
-195.562
11
100.771
21
-195.402
0
LINE
8
BLACK
6
CONTINUOUS
10
100.771
20
-195.402
11
100.769
21
-195.401
0
LINE
8
BLACK
6
CONTINUOUS
10
100.769
20
-195.401
11
100.766
21
-195.4
0
LINE
8
BLACK
6
CONTINUOUS
10
100.766
20
-195.4
11
100.766
21
-195.4
0
LINE
8
BLACK
6
CONTINUOUS
10
100.766
20
-195.4
11
100.325
21
-195.277
0
LINE
8
BLACK
6
CONTINUOUS
10
100.325
20
-195.277
11
100.325
21
-195.277
0
LINE
8
BLACK
6
CONTINUOUS
10
100.325
20
-195.277
11
100.323
21
-195.277
0
LINE
8
BLACK
6
CONTINUOUS
10
100.323
20
-195.277
11
99.8678
21
-195.19
0
LINE
8
BLACK
6
CONTINUOUS
10
99.8678
20
-195.19
11
99.4072
21
-195.141
0
LINE
8
BLACK
6
CONTINUOUS
10
99.4072
20
-195.141
11
99.1225
21
-195.135
0
LINE
8
BLACK
6
CONTINUOUS
10
99.1225
20
-195.135
11
98.9468
21
-195.132
0
LINE
8
BLACK
6
CONTINUOUS
10
98.9468
20
-195.132
11
98.9468
21
-195.132
0
LINE
8
BLACK
6
CONTINUOUS
10
98.9468
20
-195.132
11
98.9442
21
-195.132
0
LINE
8
BLACK
6
CONTINUOUS
10
98.9442
20
-195.132
11
98.7337
21
-195.145
0
LINE
8
BLACK
6
CONTINUOUS
10
98.7337
20
-195.145
11
98.4847
21
-195.161
0
LINE
8
BLACK
6
CONTINUOUS
10
98.4847
20
-195.161
11
98.4847
21
-195.161
0
LINE
8
BLACK
6
CONTINUOUS
10
98.4847
20
-195.161
11
98.482
21
-195.161
0
LINE
8
BLACK
6
CONTINUOUS
10
98.482
20
-195.161
11
98.0239
21
-195.228
0
LINE
8
BLACK
6
CONTINUOUS
10
98.0239
20
-195.228
11
98.0213
21
-195.229
0
LINE
8
BLACK
6
CONTINUOUS
10
98.0213
20
-195.229
11
98.0213
21
-195.229
0
LINE
8
BLACK
6
CONTINUOUS
10
98.0213
20
-195.229
11
97.8456
21
-195.27
0
LINE
8
BLACK
6
CONTINUOUS
10
97.8456
20
-195.27
11
97.573
21
-195.334
0
LINE
8
BLACK
6
CONTINUOUS
10
97.573
20
-195.334
11
97.5705
21
-195.335
0
LINE
8
BLACK
6
CONTINUOUS
10
97.5705
20
-195.335
11
97.5705
21
-195.335
0
LINE
8
BLACK
6
CONTINUOUS
10
97.5705
20
-195.335
11
97.3692
21
-195.4
0
LINE
8
BLACK
6
CONTINUOUS
10
97.3692
20
-195.4
11
97.1326
21
-195.477
0
LINE
8
BLACK
6
CONTINUOUS
10
97.1326
20
-195.477
11
96.7057
21
-195.657
0
LINE
8
BLACK
6
CONTINUOUS
10
96.7057
20
-195.657
11
96.7033
21
-195.658
0
LINE
8
BLACK
6
CONTINUOUS
10
96.7033
20
-195.658
11
96.7033
21
-195.658
0
LINE
8
BLACK
6
CONTINUOUS
10
96.7033
20
-195.658
11
96.2976
21
-195.87
0
LINE
8
BLACK
6
CONTINUOUS
10
96.2976
20
-195.87
11
96.2976
21
-195.87
0
LINE
8
BLACK
6
CONTINUOUS
10
96.2976
20
-195.87
11
96.2953
21
-195.871
0
LINE
8
BLACK
6
CONTINUOUS
10
96.2953
20
-195.871
11
96.293
21
-195.873
0
LINE
8
BLACK
6
CONTINUOUS
10
96.293
20
-195.873
11
95.9065
21
-196.118
0
LINE
8
BLACK
6
CONTINUOUS
10
95.9065
20
-196.118
11
95.9065
21
-196.118
0
LINE
8
BLACK
6
CONTINUOUS
10
95.9065
20
-196.118
11
95.9042
21
-196.119
0
LINE
8
BLACK
6
CONTINUOUS
10
95.9042
20
-196.119
11
95.9021
21
-196.121
0
LINE
8
BLACK
6
CONTINUOUS
10
95.9021
20
-196.121
11
95.9021
21
-196.121
0
LINE
8
BLACK
6
CONTINUOUS
10
95.9021
20
-196.121
11
95.6692
21
-196.298
0
LINE
8
BLACK
6
CONTINUOUS
10
95.6692
20
-196.298
11
95.5354
21
-196.399
0
LINE
8
BLACK
6
CONTINUOUS
10
95.5354
20
-196.399
11
95.1912
21
-196.709
0
LINE
8
BLACK
6
CONTINUOUS
10
95.1912
20
-196.709
11
94.8742
21
-197.047
0
LINE
8
BLACK
6
CONTINUOUS
10
94.8742
20
-197.047
11
94.5866
21
-197.41
0
LINE
8
BLACK
6
CONTINUOUS
10
94.5866
20
-197.41
11
94.4186
21
-197.663
0
LINE
8
BLACK
6
CONTINUOUS
10
94.4186
20
-197.663
11
94.3365
21
-197.786
0
LINE
8
BLACK
6
CONTINUOUS
10
94.3365
20
-197.786
11
94.3303
21
-197.796
0
LINE
8
BLACK
6
CONTINUOUS
10
94.3303
20
-197.796
11
94.1072
21
-198.201
0
LINE
8
BLACK
6
CONTINUOUS
10
94.1072
20
-198.201
11
93.9188
21
-198.624
0
LINE
8
BLACK
6
CONTINUOUS
10
93.9188
20
-198.624
11
93.7665
21
-199.062
0
LINE
8
BLACK
6
CONTINUOUS
10
93.7665
20
-199.062
11
93.6513
21
-199.51
0
LINE
8
BLACK
6
CONTINUOUS
10
93.6513
20
-199.51
11
93.5741
21
-199.967
0
LINE
8
BLACK
6
CONTINUOUS
10
93.5741
20
-199.967
11
93.5739
21
-199.97
0
LINE
8
BLACK
6
CONTINUOUS
10
93.5739
20
-199.97
11
93.5371
21
-200.408
0
LINE
8
BLACK
6
CONTINUOUS
10
93.5371
20
-200.408
11
93.5354
21
-200.428
0
LINE
8
BLACK
6
CONTINUOUS
10
93.5354
20
-200.428
11
93.5354
21
-200.892
0
LINE
8
BLACK
6
CONTINUOUS
10
93.5354
20
-200.892
11
93.5356
21
-200.894
0
LINE
8
BLACK
6
CONTINUOUS
10
93.5356
20
-200.894
11
93.5356
21
-200.894
0
LINE
8
BLACK
6
CONTINUOUS
10
93.5356
20
-200.894
11
93.537
21
-200.911
0
LINE
8
BLACK
6
CONTINUOUS
10
93.537
20
-200.911
11
93.5741
21
-201.353
0
LINE
8
BLACK
6
CONTINUOUS
10
93.5741
20
-201.353
11
93.6513
21
-201.81
0
LINE
8
BLACK
6
CONTINUOUS
10
93.6513
20
-201.81
11
93.652
21
-201.812
0
LINE
8
BLACK
6
CONTINUOUS
10
93.652
20
-201.812
11
93.652
21
-201.812
0
LINE
8
BLACK
6
CONTINUOUS
10
93.652
20
-201.812
11
93.753
21
-202.205
0
LINE
8
BLACK
6
CONTINUOUS
10
93.753
20
-202.205
11
93.7665
21
-202.258
0
LINE
8
BLACK
6
CONTINUOUS
10
93.7665
20
-202.258
11
93.9188
21
-202.696
0
LINE
8
BLACK
6
CONTINUOUS
10
93.9188
20
-202.696
11
94.1072
21
-203.119
0
LINE
8
BLACK
6
CONTINUOUS
10
94.1072
20
-203.119
11
94.3303
21
-203.524
0
LINE
8
BLACK
6
CONTINUOUS
10
94.3303
20
-203.524
11
94.5866
21
-203.91
0
LINE
8
BLACK
6
CONTINUOUS
10
94.5866
20
-203.91
11
94.8742
21
-204.273
0
LINE
8
BLACK
6
CONTINUOUS
10
94.8742
20
-204.273
11
95.1912
21
-204.611
0
LINE
8
BLACK
6
CONTINUOUS
10
95.1912
20
-204.611
11
95.5354
21
-204.921
0
LINE
8
BLACK
6
CONTINUOUS
10
95.5354
20
-204.921
11
95.5375
21
-204.922
0
LINE
8
BLACK
6
CONTINUOUS
10
95.5375
20
-204.922
11
95.5375
21
-204.922
0
LINE
8
BLACK
6
CONTINUOUS
10
95.5375
20
-204.922
11
95.8619
21
-205.168
0
LINE
8
BLACK
6
CONTINUOUS
10
95.8619
20
-205.168
11
95.9042
21
-205.201
0
LINE
8
BLACK
6
CONTINUOUS
10
95.9042
20
-205.201
11
95.9065
21
-205.202
0
LINE
8
BLACK
6
CONTINUOUS
10
95.9065
20
-205.202
11
95.9065
21
-205.202
0
LINE
8
BLACK
6
CONTINUOUS
10
95.9065
20
-205.202
11
96.2206
21
-205.401
0
LINE
8
BLACK
6
CONTINUOUS
10
96.2206
20
-205.401
11
96.2953
21
-205.449
0
LINE
8
BLACK
6
CONTINUOUS
10
96.2953
20
-205.449
11
96.2976
21
-205.45
0
LINE
8
BLACK
6
CONTINUOUS
10
96.2976
20
-205.45
11
96.2976
21
-205.45
0
LINE
8
BLACK
6
CONTINUOUS
10
96.2976
20
-205.45
11
96.7033
21
-205.662
0
LINE
8
BLACK
6
CONTINUOUS
10
96.7033
20
-205.662
11
96.7033
21
-205.662
0
LINE
8
BLACK
6
CONTINUOUS
10
96.7033
20
-205.662
11
96.7057
21
-205.663
0
LINE
8
BLACK
6
CONTINUOUS
10
96.7057
20
-205.663
11
97.1326
21
-205.843
0
LINE
8
BLACK
6
CONTINUOUS
10
97.1326
20
-205.843
11
97.1351
21
-205.843
0
LINE
8
BLACK
6
CONTINUOUS
10
97.1351
20
-205.843
11
97.1351
21
-205.843
0
LINE
8
BLACK
6
CONTINUOUS
10
97.1351
20
-205.843
11
97.5705
21
-205.985
0
LINE
8
BLACK
6
CONTINUOUS
10
97.5705
20
-205.985
11
97.5705
21
-205.985
0
LINE
8
BLACK
6
CONTINUOUS
10
97.5705
20
-205.985
11
97.573
21
-205.986
0
LINE
8
BLACK
6
CONTINUOUS
10
97.573
20
-205.986
11
97.8156
21
-206.043
0
LINE
8
BLACK
6
CONTINUOUS
10
97.8156
20
-206.043
11
98.0213
21
-206.091
0
LINE
8
BLACK
6
CONTINUOUS
10
98.0213
20
-206.091
11
98.0213
21
-206.091
0
LINE
8
BLACK
6
CONTINUOUS
10
98.0213
20
-206.091
11
98.0239
21
-206.092
0
LINE
8
BLACK
6
CONTINUOUS
10
98.0239
20
-206.092
11
98.4225
21
-206.15
0
LINE
8
BLACK
6
CONTINUOUS
10
98.4225
20
-206.15
11
98.487
21
-206.18
0
LINE
8
BLACK
6
CONTINUOUS
10
98.487
20
-206.18
11
98.5251
21
-206.24
0
LINE
8
BLACK
6
CONTINUOUS
10
98.5251
20
-206.24
11
98.5249
21
-206.311
0
LINE
8
BLACK
6
CONTINUOUS
10
98.5249
20
-206.311
11
98.4863
21
-206.371
0
LINE
8
BLACK
6
CONTINUOUS
10
98.4863
20
-206.371
11
98.4523
21
-206.391
0
LINE
8
BLACK
6
CONTINUOUS
10
98.4523
20
-206.391
11
98.3778
21
-206.422
0
LINE
8
BLACK
6
CONTINUOUS
10
98.3778
20
-206.422
11
98.369
21
-206.427
0
LINE
8
BLACK
6
CONTINUOUS
10
98.369
20
-206.427
11
98.2016
21
-206.529
0
LINE
8
BLACK
6
CONTINUOUS
10
98.2016
20
-206.529
11
98.1921
21
-206.54
0
LINE
8
BLACK
6
CONTINUOUS
10
98.1921
20
-206.54
11
98.1959
21
-206.549
0
LINE
8
BLACK
6
CONTINUOUS
10
98.1959
20
-206.549
11
98.5584
21
-206.911
0
LINE
8
BLACK
6
CONTINUOUS
10
98.5584
20
-206.911
11
98.6854
21
-206.845
0
LINE
8
BLACK
6
CONTINUOUS
10
98.6854
20
-206.845
11
98.8726
21
-206.79
0
LINE
8
BLACK
6
CONTINUOUS
10
98.8726
20
-206.79
11
99.067
21
-206.772
0
LINE
8
BLACK
6
CONTINUOUS
10
99.067
20
-206.772
11
99.2611
21
-206.792
0
LINE
8
BLACK
6
CONTINUOUS
10
99.2611
20
-206.792
11
99.4475
21
-206.85
0
LINE
8
BLACK
6
CONTINUOUS
10
99.4475
20
-206.85
11
99.5612
21
-206.912
0
LINE
8
BLACK
6
CONTINUOUS
10
99.5612
20
-206.912
11
99.9211
21
-206.552
0
LINE
8
BLACK
6
CONTINUOUS
10
99.9211
20
-206.552
11
99.9278
21
-206.539
0
LINE
8
BLACK
6
CONTINUOUS
10
99.9278
20
-206.539
11
99.9221
21
-206.532
0
LINE
8
BLACK
6
CONTINUOUS
10
99.9221
20
-206.532
11
99.751
21
-206.427
0
LINE
8
BLACK
6
CONTINUOUS
10
99.751
20
-206.427
11
99.7422
21
-206.422
0
LINE
8
BLACK
6
CONTINUOUS
10
99.7422
20
-206.422
11
99.6634
21
-206.39
0
LINE
8
BLACK
6
CONTINUOUS
10
99.6634
20
-206.39
11
99.6081
21
-206.345
0
LINE
8
BLACK
6
CONTINUOUS
10
99.6081
20
-206.345
11
99.5857
21
-206.278
0
LINE
8
BLACK
6
CONTINUOUS
10
99.5857
20
-206.278
11
99.6032
21
-206.209
0
LINE
8
BLACK
6
CONTINUOUS
10
99.6032
20
-206.209
11
99.6552
21
-206.161
0
LINE
8
BLACK
6
CONTINUOUS
10
99.6552
20
-206.161
11
99.6984
21
-206.148
0
LINE
8
BLACK
6
CONTINUOUS
10
99.6984
20
-206.148
11
99.7892
21
-206.138
0
LINE
8
BLACK
6
CONTINUOUS
10
99.7892
20
-206.138
11
99.8678
21
-206.13
0
LINE
8
BLACK
6
CONTINUOUS
10
99.8678
20
-206.13
11
100.323
21
-206.043
0
LINE
8
BLACK
6
CONTINUOUS
10
100.323
20
-206.043
11
100.325
21
-206.043
0
LINE
8
BLACK
6
CONTINUOUS
10
100.325
20
-206.043
11
100.325
21
-206.043
0
LINE
8
BLACK
6
CONTINUOUS
10
100.325
20
-206.043
11
100.766
21
-205.92
0
LINE
8
BLACK
6
CONTINUOUS
10
100.766
20
-205.92
11
100.766
21
-205.92
0
LINE
8
BLACK
6
CONTINUOUS
10
100.766
20
-205.92
11
100.769
21
-205.919
0
LINE
8
BLACK
6
CONTINUOUS
10
100.769
20
-205.919
11
100.976
21
-205.842
0
LINE
8
BLACK
6
CONTINUOUS
10
100.976
20
-205.842
11
101.2
21
-205.758
0
LINE
8
BLACK
6
CONTINUOUS
10
101.2
20
-205.758
11
101.2
21
-205.758
0
LINE
8
BLACK
6
CONTINUOUS
10
101.2
20
-205.758
11
101.203
21
-205.757
0
LINE
8
BLACK
6
CONTINUOUS
10
101.203
20
-205.757
11
101.622
21
-205.56
0
LINE
8
BLACK
6
CONTINUOUS
10
101.622
20
-205.56
11
102.023
21
-205.329
0
LINE
8
BLACK
6
CONTINUOUS
10
102.023
20
-205.329
11
102.403
21
-205.064
0
LINE
8
BLACK
6
CONTINUOUS
10
102.403
20
-205.064
11
102.646
21
-204.863
0
LINE
8
BLACK
6
CONTINUOUS
10
102.646
20
-204.863
11
102.758
21
-204.771
0
LINE
8
BLACK
6
CONTINUOUS
10
102.758
20
-204.771
11
102.758
21
-204.771
0
LINE
8
BLACK
6
CONTINUOUS
10
102.758
20
-204.771
11
102.76
21
-204.769
0
LINE
8
BLACK
6
CONTINUOUS
10
102.76
20
-204.769
11
102.783
21
-204.747
0
LINE
8
BLACK
6
CONTINUOUS
10
102.783
20
-204.747
11
103.089
21
-204.447
0
LINE
8
BLACK
6
CONTINUOUS
10
103.089
20
-204.447
11
103.091
21
-204.445
0
LINE
8
BLACK
6
CONTINUOUS
10
103.091
20
-204.445
11
103.093
21
-204.443
0
LINE
8
BLACK
6
CONTINUOUS
10
103.093
20
-204.443
11
103.093
21
-204.443
0
LINE
8
BLACK
6
CONTINUOUS
10
103.093
20
-204.443
11
103.392
21
-204.097
0
LINE
8
BLACK
6
CONTINUOUS
10
103.392
20
-204.097
11
103.393
21
-204.095
0
LINE
8
BLACK
6
CONTINUOUS
10
103.393
20
-204.095
11
103.666
21
-203.72
0
LINE
8
BLACK
6
CONTINUOUS
10
103.666
20
-203.72
11
103.691
21
-203.679
0
LINE
8
BLACK
6
CONTINUOUS
10
103.691
20
-203.679
11
103.853
21
-203.411
0
LINE
8
BLACK
6
CONTINUOUS
10
103.853
20
-203.411
11
103.906
21
-203.324
0
LINE
8
BLACK
6
CONTINUOUS
10
103.906
20
-203.324
11
104.111
21
-202.909
0
LINE
8
BLACK
6
CONTINUOUS
10
104.111
20
-202.909
11
104.282
21
-202.478
0
LINE
8
BLACK
6
CONTINUOUS
10
104.282
20
-202.478
11
104.416
21
-202.035
0
LINE
8
BLACK
6
CONTINUOUS
10
104.416
20
-202.035
11
104.467
21
-201.796
0
LINE
8
BLACK
6
CONTINUOUS
10
104.467
20
-201.796
11
104.511
21
-201.585
0
LINE
8
BLACK
6
CONTINUOUS
10
104.511
20
-201.585
11
104.512
21
-201.582
0
LINE
8
BLACK
6
CONTINUOUS
10
104.512
20
-201.582
11
104.57
21
-201.123
0
LINE
8
BLACK
6
CONTINUOUS
10
104.57
20
-201.123
11
104.573
21
-201.064
0
LINE
8
BLACK
6
CONTINUOUS
10
104.573
20
-201.064
11
104.58
21
-200.892
0
LINE
8
BLACK
6
CONTINUOUS
10
104.58
20
-200.892
11
104.589
21
-200.663
0
LINE
8
BLACK
6
CONTINUOUS
10
104.589
20
-200.663
11
104.589
21
-200.66
0
LINE
8
BLACK
6
CONTINUOUS
10
258.636
20
-200.894
11
258.637
21
-200.911
0
LINE
8
BLACK
6
CONTINUOUS
10
258.637
20
-200.911
11
258.674
21
-201.353
0
LINE
8
BLACK
6
CONTINUOUS
10
258.674
20
-201.353
11
258.751
21
-201.81
0
LINE
8
BLACK
6
CONTINUOUS
10
258.751
20
-201.81
11
258.752
21
-201.812
0
LINE
8
BLACK
6
CONTINUOUS
10
258.752
20
-201.812
11
258.752
21
-201.812
0
LINE
8
BLACK
6
CONTINUOUS
10
258.752
20
-201.812
11
258.853
21
-202.205
0
LINE
8
BLACK
6
CONTINUOUS
10
258.853
20
-202.205
11
258.867
21
-202.258
0
LINE
8
BLACK
6
CONTINUOUS
10
258.867
20
-202.258
11
259.019
21
-202.696
0
LINE
8
BLACK
6
CONTINUOUS
10
259.019
20
-202.696
11
259.207
21
-203.119
0
LINE
8
BLACK
6
CONTINUOUS
10
259.207
20
-203.119
11
259.43
21
-203.524
0
LINE
8
BLACK
6
CONTINUOUS
10
259.43
20
-203.524
11
259.687
21
-203.91
0
LINE
8
BLACK
6
CONTINUOUS
10
259.687
20
-203.91
11
259.974
21
-204.273
0
LINE
8
BLACK
6
CONTINUOUS
10
259.974
20
-204.273
11
260.291
21
-204.611
0
LINE
8
BLACK
6
CONTINUOUS
10
260.291
20
-204.611
11
260.635
21
-204.921
0
LINE
8
BLACK
6
CONTINUOUS
10
260.635
20
-204.921
11
260.637
21
-204.922
0
LINE
8
BLACK
6
CONTINUOUS
10
260.637
20
-204.922
11
260.637
21
-204.922
0
LINE
8
BLACK
6
CONTINUOUS
10
260.637
20
-204.922
11
260.962
21
-205.168
0
LINE
8
BLACK
6
CONTINUOUS
10
260.962
20
-205.168
11
261.004
21
-205.201
0
LINE
8
BLACK
6
CONTINUOUS
10
261.004
20
-205.201
11
261.006
21
-205.202
0
LINE
8
BLACK
6
CONTINUOUS
10
261.006
20
-205.202
11
261.006
21
-205.202
0
LINE
8
BLACK
6
CONTINUOUS
10
261.006
20
-205.202
11
261.321
21
-205.401
0
LINE
8
BLACK
6
CONTINUOUS
10
261.321
20
-205.401
11
261.395
21
-205.449
0
LINE
8
BLACK
6
CONTINUOUS
10
261.395
20
-205.449
11
261.398
21
-205.45
0
LINE
8
BLACK
6
CONTINUOUS
10
261.398
20
-205.45
11
261.398
21
-205.45
0
LINE
8
BLACK
6
CONTINUOUS
10
261.398
20
-205.45
11
261.803
21
-205.662
0
LINE
8
BLACK
6
CONTINUOUS
10
261.803
20
-205.662
11
261.803
21
-205.662
0
LINE
8
BLACK
6
CONTINUOUS
10
261.803
20
-205.662
11
261.806
21
-205.663
0
LINE
8
BLACK
6
CONTINUOUS
10
261.806
20
-205.663
11
262.233
21
-205.843
0
LINE
8
BLACK
6
CONTINUOUS
10
262.233
20
-205.843
11
262.235
21
-205.843
0
LINE
8
BLACK
6
CONTINUOUS
10
262.235
20
-205.843
11
262.235
21
-205.843
0
LINE
8
BLACK
6
CONTINUOUS
10
262.235
20
-205.843
11
262.67
21
-205.985
0
LINE
8
BLACK
6
CONTINUOUS
10
262.67
20
-205.985
11
262.671
21
-205.985
0
LINE
8
BLACK
6
CONTINUOUS
10
262.671
20
-205.985
11
262.673
21
-205.986
0
LINE
8
BLACK
6
CONTINUOUS
10
262.673
20
-205.986
11
262.916
21
-206.043
0
LINE
8
BLACK
6
CONTINUOUS
10
262.916
20
-206.043
11
263.121
21
-206.091
0
LINE
8
BLACK
6
CONTINUOUS
10
263.121
20
-206.091
11
263.121
21
-206.091
0
LINE
8
BLACK
6
CONTINUOUS
10
263.121
20
-206.091
11
263.124
21
-206.092
0
LINE
8
BLACK
6
CONTINUOUS
10
263.124
20
-206.092
11
263.582
21
-206.159
0
LINE
8
BLACK
6
CONTINUOUS
10
263.582
20
-206.159
11
263.585
21
-206.159
0
LINE
8
BLACK
6
CONTINUOUS
10
263.585
20
-206.159
11
263.585
21
-206.159
0
LINE
8
BLACK
6
CONTINUOUS
10
263.585
20
-206.159
11
263.834
21
-206.175
0
LINE
8
BLACK
6
CONTINUOUS
10
263.834
20
-206.175
11
264.044
21
-206.188
0
LINE
8
BLACK
6
CONTINUOUS
10
264.044
20
-206.188
11
264.047
21
-206.188
0
LINE
8
BLACK
6
CONTINUOUS
10
264.047
20
-206.188
11
264.047
21
-206.188
0
LINE
8
BLACK
6
CONTINUOUS
10
264.047
20
-206.188
11
264.222
21
-206.185
0
LINE
8
BLACK
6
CONTINUOUS
10
264.222
20
-206.185
11
264.507
21
-206.179
0
LINE
8
BLACK
6
CONTINUOUS
10
264.507
20
-206.179
11
264.968
21
-206.13
0
LINE
8
BLACK
6
CONTINUOUS
10
264.968
20
-206.13
11
265.423
21
-206.043
0
LINE
8
BLACK
6
CONTINUOUS
10
265.423
20
-206.043
11
265.425
21
-206.043
0
LINE
8
BLACK
6
CONTINUOUS
10
265.425
20
-206.043
11
265.425
21
-206.043
0
LINE
8
BLACK
6
CONTINUOUS
10
265.425
20
-206.043
11
265.866
21
-205.92
0
LINE
8
BLACK
6
CONTINUOUS
10
265.866
20
-205.92
11
265.866
21
-205.92
0
LINE
8
BLACK
6
CONTINUOUS
10
265.866
20
-205.92
11
265.869
21
-205.919
0
LINE
8
BLACK
6
CONTINUOUS
10
265.869
20
-205.919
11
266.076
21
-205.842
0
LINE
8
BLACK
6
CONTINUOUS
10
266.076
20
-205.842
11
266.3
21
-205.758
0
LINE
8
BLACK
6
CONTINUOUS
10
266.3
20
-205.758
11
266.3
21
-205.758
0
LINE
8
BLACK
6
CONTINUOUS
10
266.3
20
-205.758
11
266.303
21
-205.757
0
LINE
8
BLACK
6
CONTINUOUS
10
266.303
20
-205.757
11
266.722
21
-205.56
0
LINE
8
BLACK
6
CONTINUOUS
10
266.722
20
-205.56
11
267.123
21
-205.329
0
LINE
8
BLACK
6
CONTINUOUS
10
267.123
20
-205.329
11
267.503
21
-205.064
0
LINE
8
BLACK
6
CONTINUOUS
10
267.503
20
-205.064
11
267.746
21
-204.863
0
LINE
8
BLACK
6
CONTINUOUS
10
267.746
20
-204.863
11
267.858
21
-204.771
0
LINE
8
BLACK
6
CONTINUOUS
10
267.858
20
-204.771
11
267.858
21
-204.771
0
LINE
8
BLACK
6
CONTINUOUS
10
267.858
20
-204.771
11
267.86
21
-204.769
0
LINE
8
BLACK
6
CONTINUOUS
10
267.86
20
-204.769
11
267.883
21
-204.747
0
LINE
8
BLACK
6
CONTINUOUS
10
267.883
20
-204.747
11
268.189
21
-204.447
0
LINE
8
BLACK
6
CONTINUOUS
10
268.189
20
-204.447
11
268.191
21
-204.445
0
LINE
8
BLACK
6
CONTINUOUS
10
268.191
20
-204.445
11
268.193
21
-204.443
0
LINE
8
BLACK
6
CONTINUOUS
10
268.193
20
-204.443
11
268.193
21
-204.443
0
LINE
8
BLACK
6
CONTINUOUS
10
268.193
20
-204.443
11
268.492
21
-204.097
0
LINE
8
BLACK
6
CONTINUOUS
10
268.492
20
-204.097
11
268.493
21
-204.095
0
LINE
8
BLACK
6
CONTINUOUS
10
268.493
20
-204.095
11
268.766
21
-203.72
0
LINE
8
BLACK
6
CONTINUOUS
10
268.766
20
-203.72
11
268.791
21
-203.679
0
LINE
8
BLACK
6
CONTINUOUS
10
268.791
20
-203.679
11
268.953
21
-203.411
0
LINE
8
BLACK
6
CONTINUOUS
10
268.953
20
-203.411
11
269.006
21
-203.324
0
LINE
8
BLACK
6
CONTINUOUS
10
269.006
20
-203.324
11
269.211
21
-202.909
0
LINE
8
BLACK
6
CONTINUOUS
10
269.211
20
-202.909
11
269.382
21
-202.478
0
LINE
8
BLACK
6
CONTINUOUS
10
269.382
20
-202.478
11
269.516
21
-202.035
0
LINE
8
BLACK
6
CONTINUOUS
10
269.516
20
-202.035
11
269.567
21
-201.796
0
LINE
8
BLACK
6
CONTINUOUS
10
269.567
20
-201.796
11
269.611
21
-201.585
0
LINE
8
BLACK
6
CONTINUOUS
10
269.611
20
-201.585
11
269.612
21
-201.582
0
LINE
8
BLACK
6
CONTINUOUS
10
269.612
20
-201.582
11
269.67
21
-201.123
0
LINE
8
BLACK
6
CONTINUOUS
10
269.67
20
-201.123
11
269.673
21
-201.064
0
LINE
8
BLACK
6
CONTINUOUS
10
269.673
20
-201.064
11
269.689
21
-200.663
0
LINE
8
BLACK
6
CONTINUOUS
10
269.689
20
-200.663
11
269.689
21
-200.66
0
LINE
8
BLACK
6
CONTINUOUS
10
269.689
20
-200.66
11
269.684
21
-200.535
0
LINE
8
BLACK
6
CONTINUOUS
10
269.684
20
-200.535
11
269.67
21
-200.197
0
LINE
8
BLACK
6
CONTINUOUS
10
269.67
20
-200.197
11
269.612
21
-199.738
0
LINE
8
BLACK
6
CONTINUOUS
10
269.612
20
-199.738
11
269.55
21
-199.448
0
LINE
8
BLACK
6
CONTINUOUS
10
269.55
20
-199.448
11
269.516
21
-199.287
0
LINE
8
BLACK
6
CONTINUOUS
10
269.516
20
-199.287
11
269.516
21
-199.287
0
LINE
8
BLACK
6
CONTINUOUS
10
269.516
20
-199.287
11
269.516
21
-199.285
0
LINE
8
BLACK
6
CONTINUOUS
10
269.516
20
-199.285
11
269.382
21
-198.842
0
LINE
8
BLACK
6
CONTINUOUS
10
269.382
20
-198.842
11
269.211
21
-198.411
0
LINE
8
BLACK
6
CONTINUOUS
10
269.211
20
-198.411
11
269.006
21
-197.996
0
LINE
8
BLACK
6
CONTINUOUS
10
269.006
20
-197.996
11
268.866
21
-197.766
0
LINE
8
BLACK
6
CONTINUOUS
10
268.866
20
-197.766
11
268.767
21
-197.602
0
LINE
8
BLACK
6
CONTINUOUS
10
268.767
20
-197.602
11
268.767
21
-197.602
0
LINE
8
BLACK
6
CONTINUOUS
10
268.767
20
-197.602
11
268.766
21
-197.6
0
LINE
8
BLACK
6
CONTINUOUS
10
268.766
20
-197.6
11
268.493
21
-197.225
0
LINE
8
BLACK
6
CONTINUOUS
10
268.493
20
-197.225
11
268.434
21
-197.156
0
LINE
8
BLACK
6
CONTINUOUS
10
268.434
20
-197.156
11
268.193
21
-196.877
0
LINE
8
BLACK
6
CONTINUOUS
10
268.193
20
-196.877
11
268.193
21
-196.877
0
LINE
8
BLACK
6
CONTINUOUS
10
268.193
20
-196.877
11
268.191
21
-196.875
0
LINE
8
BLACK
6
CONTINUOUS
10
268.191
20
-196.875
11
267.86
21
-196.551
0
LINE
8
BLACK
6
CONTINUOUS
10
267.86
20
-196.551
11
267.858
21
-196.549
0
LINE
8
BLACK
6
CONTINUOUS
10
267.858
20
-196.549
11
267.858
21
-196.549
0
LINE
8
BLACK
6
CONTINUOUS
10
267.858
20
-196.549
11
267.539
21
-196.285
0
LINE
8
BLACK
6
CONTINUOUS
10
267.539
20
-196.285
11
267.503
21
-196.256
0
LINE
8
BLACK
6
CONTINUOUS
10
267.503
20
-196.256
11
267.123
21
-195.991
0
LINE
8
BLACK
6
CONTINUOUS
10
267.123
20
-195.991
11
266.722
21
-195.76
0
LINE
8
BLACK
6
CONTINUOUS
10
266.722
20
-195.76
11
266.303
21
-195.563
0
LINE
8
BLACK
6
CONTINUOUS
10
266.303
20
-195.563
11
266.3
21
-195.562
0
LINE
8
BLACK
6
CONTINUOUS
10
266.3
20
-195.562
11
266.3
21
-195.562
0
LINE
8
BLACK
6
CONTINUOUS
10
266.3
20
-195.562
11
265.871
21
-195.402
0
LINE
8
BLACK
6
CONTINUOUS
10
265.871
20
-195.402
11
265.869
21
-195.401
0
LINE
8
BLACK
6
CONTINUOUS
10
265.869
20
-195.401
11
265.866
21
-195.4
0
LINE
8
BLACK
6
CONTINUOUS
10
265.866
20
-195.4
11
265.866
21
-195.4
0
LINE
8
BLACK
6
CONTINUOUS
10
265.866
20
-195.4
11
265.425
21
-195.277
0
LINE
8
BLACK
6
CONTINUOUS
10
265.425
20
-195.277
11
265.425
21
-195.277
0
LINE
8
BLACK
6
CONTINUOUS
10
265.425
20
-195.277
11
265.423
21
-195.277
0
LINE
8
BLACK
6
CONTINUOUS
10
265.423
20
-195.277
11
264.968
21
-195.19
0
LINE
8
BLACK
6
CONTINUOUS
10
264.968
20
-195.19
11
264.507
21
-195.141
0
LINE
8
BLACK
6
CONTINUOUS
10
264.507
20
-195.141
11
264.222
21
-195.135
0
LINE
8
BLACK
6
CONTINUOUS
10
264.222
20
-195.135
11
264.047
21
-195.132
0
LINE
8
BLACK
6
CONTINUOUS
10
264.047
20
-195.132
11
264.047
21
-195.132
0
LINE
8
BLACK
6
CONTINUOUS
10
264.047
20
-195.132
11
264.044
21
-195.132
0
LINE
8
BLACK
6
CONTINUOUS
10
264.044
20
-195.132
11
263.834
21
-195.145
0
LINE
8
BLACK
6
CONTINUOUS
10
263.834
20
-195.145
11
263.585
21
-195.161
0
LINE
8
BLACK
6
CONTINUOUS
10
263.585
20
-195.161
11
263.585
21
-195.161
0
LINE
8
BLACK
6
CONTINUOUS
10
263.585
20
-195.161
11
263.582
21
-195.161
0
LINE
8
BLACK
6
CONTINUOUS
10
263.582
20
-195.161
11
263.124
21
-195.228
0
LINE
8
BLACK
6
CONTINUOUS
10
263.124
20
-195.228
11
263.121
21
-195.229
0
LINE
8
BLACK
6
CONTINUOUS
10
263.121
20
-195.229
11
263.121
21
-195.229
0
LINE
8
BLACK
6
CONTINUOUS
10
263.121
20
-195.229
11
262.946
21
-195.27
0
LINE
8
BLACK
6
CONTINUOUS
10
262.946
20
-195.27
11
262.673
21
-195.334
0
LINE
8
BLACK
6
CONTINUOUS
10
262.673
20
-195.334
11
262.671
21
-195.335
0
LINE
8
BLACK
6
CONTINUOUS
10
262.671
20
-195.335
11
262.67
21
-195.335
0
LINE
8
BLACK
6
CONTINUOUS
10
262.67
20
-195.335
11
262.469
21
-195.4
0
LINE
8
BLACK
6
CONTINUOUS
10
262.469
20
-195.4
11
262.233
21
-195.477
0
LINE
8
BLACK
6
CONTINUOUS
10
262.233
20
-195.477
11
261.806
21
-195.657
0
LINE
8
BLACK
6
CONTINUOUS
10
261.806
20
-195.657
11
261.803
21
-195.658
0
LINE
8
BLACK
6
CONTINUOUS
10
261.803
20
-195.658
11
261.803
21
-195.658
0
LINE
8
BLACK
6
CONTINUOUS
10
261.803
20
-195.658
11
261.398
21
-195.87
0
LINE
8
BLACK
6
CONTINUOUS
10
261.398
20
-195.87
11
261.398
21
-195.87
0
LINE
8
BLACK
6
CONTINUOUS
10
261.398
20
-195.87
11
261.395
21
-195.871
0
LINE
8
BLACK
6
CONTINUOUS
10
261.395
20
-195.871
11
261.393
21
-195.873
0
LINE
8
BLACK
6
CONTINUOUS
10
261.393
20
-195.873
11
261.006
21
-196.118
0
LINE
8
BLACK
6
CONTINUOUS
10
261.006
20
-196.118
11
261.006
21
-196.118
0
LINE
8
BLACK
6
CONTINUOUS
10
261.006
20
-196.118
11
261.004
21
-196.119
0
LINE
8
BLACK
6
CONTINUOUS
10
261.004
20
-196.119
11
261.002
21
-196.121
0
LINE
8
BLACK
6
CONTINUOUS
10
261.002
20
-196.121
11
261.002
21
-196.121
0
LINE
8
BLACK
6
CONTINUOUS
10
261.002
20
-196.121
11
260.769
21
-196.298
0
LINE
8
BLACK
6
CONTINUOUS
10
260.769
20
-196.298
11
260.635
21
-196.399
0
LINE
8
BLACK
6
CONTINUOUS
10
260.635
20
-196.399
11
260.291
21
-196.709
0
LINE
8
BLACK
6
CONTINUOUS
10
260.291
20
-196.709
11
259.974
21
-197.047
0
LINE
8
BLACK
6
CONTINUOUS
10
259.974
20
-197.047
11
259.687
21
-197.41
0
LINE
8
BLACK
6
CONTINUOUS
10
259.687
20
-197.41
11
259.519
21
-197.663
0
LINE
8
BLACK
6
CONTINUOUS
10
259.519
20
-197.663
11
259.437
21
-197.786
0
LINE
8
BLACK
6
CONTINUOUS
10
259.437
20
-197.786
11
259.43
21
-197.796
0
LINE
8
BLACK
6
CONTINUOUS
10
259.43
20
-197.796
11
259.207
21
-198.201
0
LINE
8
BLACK
6
CONTINUOUS
10
259.207
20
-198.201
11
259.019
21
-198.624
0
LINE
8
BLACK
6
CONTINUOUS
10
259.019
20
-198.624
11
258.867
21
-199.062
0
LINE
8
BLACK
6
CONTINUOUS
10
258.867
20
-199.062
11
258.751
21
-199.51
0
LINE
8
BLACK
6
CONTINUOUS
10
258.751
20
-199.51
11
258.674
21
-199.967
0
LINE
8
BLACK
6
CONTINUOUS
10
258.674
20
-199.967
11
258.674
21
-199.97
0
LINE
8
BLACK
6
CONTINUOUS
10
258.674
20
-199.97
11
258.637
21
-200.408
0
LINE
8
BLACK
6
CONTINUOUS
10
258.637
20
-200.408
11
258.635
21
-200.428
0
LINE
8
BLACK
6
CONTINUOUS
10
258.635
20
-200.428
11
258.635
21
-200.892
0
LINE
8
BLACK
6
CONTINUOUS
10
258.635
20
-200.892
11
258.636
21
-200.894
0
LINE
8
BLACK
6
CONTINUOUS
10
258.636
20
-200.894
11
258.636
21
-200.894
0
CIRCLE
8
BLACK
10
99.06
20
-207.772
40
0.5
  0
ENDSEC
  0
EOF
