  0
SECTION
  2
HEADER
  9
$ANGBASE
  50
0.0
  9
$ANGDIR
  70
1
  9
$MEASUREMENT
  70
1
  0
ENDSEC
  0
SECTION
  2
TABLES
  0
TABLE
  2
LTYPE
  70
4
  0
LTYPE
  5
40F
  2
CONTINUOUS
  70
0
  3
Solid line
  72
65
  73
0
  40
0.0
  0
LTYPE
  5
410
  2
DASHDOT
 70
0
  3
Dash Dot ____ _ ____ _
 72
65
 73
4
 40
2.0
 49
1.25
 49
-0.25
 49
0.25
 49
-0.25
  0
LTYPE
  5
411
  2
DASHED
 70
0
  3
Dashed __ __ __ __ __
 72
65
 73
2
 40
0.75
 49
0.5
 49
-0.25
  0
LTYPE
  5
43B
  2
DOTTED
 70
0
  3
Dotted .  .  .  .
 72
65
 73
2
 40
0.2
 49
0.0
 49
-0.2
  0
ENDTAB
  0
TABLE
  2
STYLE
  70
4
  0
STYLE
  2
KICAD
  70
0
  40
0
  41
1
  42
1
  50
0
  71
0
  3
isocp.shx
  0
STYLE
  2
KICADB
  70
0
  40
0
  41
1
  42
1
  50
0
  71
0
  3
isocp.shx
  0
STYLE
  2
KICADI
  70
0
  40
0
  41
1
  42
1
  50
15
  71
0
  3
isocp.shx
  0
STYLE
  2
KICADBI
  70
0
  40
0
  41
1
  42
1
  50
15
  71
0
  3
isocp.shx
  0
ENDTAB
  0
TABLE
  2
LAYER
  70
1
  0
LAYER
  2
BLACK
  70
0
  62
7
  6
CONTINUOUS
  0
ENDTAB
  0
ENDSEC
  0
SECTION
  2
ENTITIES
0
LINE
8
BLACK
6
CONTINUOUS
10
493.119
20
-173.394
11
493.136
21
-173.442
0
LINE
8
BLACK
6
CONTINUOUS
10
493.136
20
-173.442
11
493.136
21
-174.442
0
LINE
8
BLACK
6
CONTINUOUS
10
493.136
20
-174.442
11
493.135
21
-174.452
0
LINE
8
BLACK
6
CONTINUOUS
10
493.135
20
-174.452
11
493.135
21
-174.455
0
LINE
8
BLACK
6
CONTINUOUS
10
493.135
20
-174.455
11
493.134
21
-174.458
0
LINE
8
BLACK
6
CONTINUOUS
10
493.134
20
-174.458
11
493.132
21
-174.468
0
LINE
8
BLACK
6
CONTINUOUS
10
493.132
20
-174.468
11
493.119
21
-174.483
0
LINE
8
BLACK
6
CONTINUOUS
10
493.119
20
-174.483
11
493.11
21
-174.5
0
LINE
8
BLACK
6
CONTINUOUS
10
493.11
20
-174.5
11
493.103
21
-174.502
0
LINE
8
BLACK
6
CONTINUOUS
10
493.103
20
-174.502
11
493.099
21
-174.507
0
LINE
8
BLACK
6
CONTINUOUS
10
493.099
20
-174.507
11
493.08
21
-174.511
0
LINE
8
BLACK
6
CONTINUOUS
10
493.08
20
-174.511
11
493.061
21
-174.517
0
LINE
8
BLACK
6
CONTINUOUS
10
493.061
20
-174.517
11
492.585
21
-174.517
0
LINE
8
BLACK
6
CONTINUOUS
10
492.585
20
-174.517
11
492.56
21
-174.513
0
LINE
8
BLACK
6
CONTINUOUS
10
492.56
20
-174.513
11
492.52
21
-174.48
0
LINE
8
BLACK
6
CONTINUOUS
10
492.52
20
-174.48
11
492.511
21
-174.429
0
LINE
8
BLACK
6
CONTINUOUS
10
492.511
20
-174.429
11
492.537
21
-174.385
0
LINE
8
BLACK
6
CONTINUOUS
10
492.537
20
-174.385
11
492.585
21
-174.367
0
LINE
8
BLACK
6
CONTINUOUS
10
492.585
20
-174.367
11
492.986
21
-174.367
0
LINE
8
BLACK
6
CONTINUOUS
10
492.986
20
-174.367
11
492.986
21
-173.442
0
LINE
8
BLACK
6
CONTINUOUS
10
492.986
20
-173.442
11
492.991
21
-173.417
0
LINE
8
BLACK
6
CONTINUOUS
10
492.991
20
-173.417
11
493.024
21
-173.377
0
LINE
8
BLACK
6
CONTINUOUS
10
493.024
20
-173.377
11
493.074
21
-173.369
0
LINE
8
BLACK
6
CONTINUOUS
10
493.074
20
-173.369
11
493.119
21
-173.394
0
LINE
8
BLACK
6
CONTINUOUS
10
489.417
20
-173.371
11
489.418
21
-173.371
0
LINE
8
BLACK
6
CONTINUOUS
10
489.418
20
-173.371
11
489.561
21
-173.419
0
LINE
8
BLACK
6
CONTINUOUS
10
489.561
20
-173.419
11
489.584
21
-173.431
0
LINE
8
BLACK
6
CONTINUOUS
10
489.584
20
-173.431
11
489.587
21
-173.435
0
LINE
8
BLACK
6
CONTINUOUS
10
489.587
20
-173.435
11
489.591
21
-173.437
0
LINE
8
BLACK
6
CONTINUOUS
10
489.591
20
-173.437
11
489.686
21
-173.532
0
LINE
8
BLACK
6
CONTINUOUS
10
489.686
20
-173.532
11
489.699
21
-173.551
0
LINE
8
BLACK
6
CONTINUOUS
10
489.699
20
-173.551
11
489.7
21
-173.552
0
LINE
8
BLACK
6
CONTINUOUS
10
489.7
20
-173.552
11
489.748
21
-173.647
0
LINE
8
BLACK
6
CONTINUOUS
10
489.748
20
-173.647
11
489.751
21
-173.659
0
LINE
8
BLACK
6
CONTINUOUS
10
489.751
20
-173.659
11
489.753
21
-173.662
0
LINE
8
BLACK
6
CONTINUOUS
10
489.753
20
-173.662
11
489.801
21
-173.853
0
LINE
8
BLACK
6
CONTINUOUS
10
489.801
20
-173.853
11
489.802
21
-173.868
0
LINE
8
BLACK
6
CONTINUOUS
10
489.802
20
-173.868
11
489.803
21
-173.871
0
LINE
8
BLACK
6
CONTINUOUS
10
489.803
20
-173.871
11
489.803
21
-174.014
0
LINE
8
BLACK
6
CONTINUOUS
10
489.803
20
-174.014
11
489.8
21
-174.029
0
LINE
8
BLACK
6
CONTINUOUS
10
489.8
20
-174.029
11
489.801
21
-174.032
0
LINE
8
BLACK
6
CONTINUOUS
10
489.801
20
-174.032
11
489.753
21
-174.222
0
LINE
8
BLACK
6
CONTINUOUS
10
489.753
20
-174.222
11
489.748
21
-174.234
0
LINE
8
BLACK
6
CONTINUOUS
10
489.748
20
-174.234
11
489.748
21
-174.238
0
LINE
8
BLACK
6
CONTINUOUS
10
489.748
20
-174.238
11
489.7
21
-174.333
0
LINE
8
BLACK
6
CONTINUOUS
10
489.7
20
-174.333
11
489.687
21
-174.351
0
LINE
8
BLACK
6
CONTINUOUS
10
489.687
20
-174.351
11
489.686
21
-174.353
0
LINE
8
BLACK
6
CONTINUOUS
10
489.686
20
-174.353
11
489.591
21
-174.448
0
LINE
8
BLACK
6
CONTINUOUS
10
489.591
20
-174.448
11
489.569
21
-174.463
0
LINE
8
BLACK
6
CONTINUOUS
10
489.569
20
-174.463
11
489.565
21
-174.463
0
LINE
8
BLACK
6
CONTINUOUS
10
489.565
20
-174.463
11
489.561
21
-174.466
0
LINE
8
BLACK
6
CONTINUOUS
10
489.561
20
-174.466
11
489.418
21
-174.514
0
LINE
8
BLACK
6
CONTINUOUS
10
489.418
20
-174.514
11
489.396
21
-174.517
0
LINE
8
BLACK
6
CONTINUOUS
10
489.396
20
-174.517
11
489.395
21
-174.517
0
LINE
8
BLACK
6
CONTINUOUS
10
489.395
20
-174.517
11
489.3
21
-174.517
0
LINE
8
BLACK
6
CONTINUOUS
10
489.3
20
-174.517
11
489.277
21
-174.513
0
LINE
8
BLACK
6
CONTINUOUS
10
489.277
20
-174.513
11
489.276
21
-174.514
0
LINE
8
BLACK
6
CONTINUOUS
10
489.276
20
-174.514
11
489.133
21
-174.466
0
LINE
8
BLACK
6
CONTINUOUS
10
489.133
20
-174.466
11
489.11
21
-174.454
0
LINE
8
BLACK
6
CONTINUOUS
10
489.11
20
-174.454
11
489.108
21
-174.45
0
LINE
8
BLACK
6
CONTINUOUS
10
489.108
20
-174.45
11
489.104
21
-174.448
0
LINE
8
BLACK
6
CONTINUOUS
10
489.104
20
-174.448
11
489.056
21
-174.4
0
LINE
8
BLACK
6
CONTINUOUS
10
489.056
20
-174.4
11
489.041
21
-174.379
0
LINE
8
BLACK
6
CONTINUOUS
10
489.041
20
-174.379
11
489.037
21
-174.328
0
LINE
8
BLACK
6
CONTINUOUS
10
489.037
20
-174.328
11
489.066
21
-174.286
0
LINE
8
BLACK
6
CONTINUOUS
10
489.066
20
-174.286
11
489.116
21
-174.272
0
LINE
8
BLACK
6
CONTINUOUS
10
489.116
20
-174.272
11
489.162
21
-174.294
0
LINE
8
BLACK
6
CONTINUOUS
10
489.162
20
-174.294
11
489.197
21
-174.329
0
LINE
8
BLACK
6
CONTINUOUS
10
489.197
20
-174.329
11
489.312
21
-174.367
0
LINE
8
BLACK
6
CONTINUOUS
10
489.312
20
-174.367
11
489.383
21
-174.367
0
LINE
8
BLACK
6
CONTINUOUS
10
489.383
20
-174.367
11
489.497
21
-174.329
0
LINE
8
BLACK
6
CONTINUOUS
10
489.497
20
-174.329
11
489.571
21
-174.255
0
LINE
8
BLACK
6
CONTINUOUS
10
489.571
20
-174.255
11
489.61
21
-174.178
0
LINE
8
BLACK
6
CONTINUOUS
10
489.61
20
-174.178
11
489.653
21
-174.005
0
LINE
8
BLACK
6
CONTINUOUS
10
489.653
20
-174.005
11
489.653
21
-173.88
0
LINE
8
BLACK
6
CONTINUOUS
10
489.653
20
-173.88
11
489.61
21
-173.707
0
LINE
8
BLACK
6
CONTINUOUS
10
489.61
20
-173.707
11
489.571
21
-173.63
0
LINE
8
BLACK
6
CONTINUOUS
10
489.571
20
-173.63
11
489.497
21
-173.556
0
LINE
8
BLACK
6
CONTINUOUS
10
489.497
20
-173.556
11
489.383
21
-173.517
0
LINE
8
BLACK
6
CONTINUOUS
10
489.383
20
-173.517
11
489.312
21
-173.517
0
LINE
8
BLACK
6
CONTINUOUS
10
489.312
20
-173.517
11
489.197
21
-173.556
0
LINE
8
BLACK
6
CONTINUOUS
10
489.197
20
-173.556
11
489.162
21
-173.591
0
LINE
8
BLACK
6
CONTINUOUS
10
489.162
20
-173.591
11
489.141
21
-173.606
0
LINE
8
BLACK
6
CONTINUOUS
10
489.141
20
-173.606
11
489.09
21
-173.61
0
LINE
8
BLACK
6
CONTINUOUS
10
489.09
20
-173.61
11
489.048
21
-173.581
0
LINE
8
BLACK
6
CONTINUOUS
10
489.048
20
-173.581
11
489.034
21
-173.531
0
LINE
8
BLACK
6
CONTINUOUS
10
489.034
20
-173.531
11
489.056
21
-173.485
0
LINE
8
BLACK
6
CONTINUOUS
10
489.056
20
-173.485
11
489.104
21
-173.437
0
LINE
8
BLACK
6
CONTINUOUS
10
489.104
20
-173.437
11
489.125
21
-173.422
0
LINE
8
BLACK
6
CONTINUOUS
10
489.125
20
-173.422
11
489.129
21
-173.422
0
LINE
8
BLACK
6
CONTINUOUS
10
489.129
20
-173.422
11
489.133
21
-173.419
0
LINE
8
BLACK
6
CONTINUOUS
10
489.133
20
-173.419
11
489.276
21
-173.371
0
LINE
8
BLACK
6
CONTINUOUS
10
489.276
20
-173.371
11
489.298
21
-173.368
0
LINE
8
BLACK
6
CONTINUOUS
10
489.298
20
-173.368
11
489.3
21
-173.367
0
LINE
8
BLACK
6
CONTINUOUS
10
489.3
20
-173.367
11
489.395
21
-173.367
0
LINE
8
BLACK
6
CONTINUOUS
10
489.395
20
-173.367
11
489.417
21
-173.371
0
LINE
8
BLACK
6
CONTINUOUS
10
490.547
20
-173.394
11
490.565
21
-173.442
0
LINE
8
BLACK
6
CONTINUOUS
10
490.565
20
-173.442
11
490.565
21
-174.442
0
LINE
8
BLACK
6
CONTINUOUS
10
490.565
20
-174.442
11
490.563
21
-174.452
0
LINE
8
BLACK
6
CONTINUOUS
10
490.563
20
-174.452
11
490.564
21
-174.455
0
LINE
8
BLACK
6
CONTINUOUS
10
490.564
20
-174.455
11
490.562
21
-174.458
0
LINE
8
BLACK
6
CONTINUOUS
10
490.562
20
-174.458
11
490.56
21
-174.468
0
LINE
8
BLACK
6
CONTINUOUS
10
490.56
20
-174.468
11
490.548
21
-174.483
0
LINE
8
BLACK
6
CONTINUOUS
10
490.548
20
-174.483
11
490.538
21
-174.5
0
LINE
8
BLACK
6
CONTINUOUS
10
490.538
20
-174.5
11
490.532
21
-174.502
0
LINE
8
BLACK
6
CONTINUOUS
10
490.532
20
-174.502
11
490.527
21
-174.507
0
LINE
8
BLACK
6
CONTINUOUS
10
490.527
20
-174.507
11
490.508
21
-174.511
0
LINE
8
BLACK
6
CONTINUOUS
10
490.508
20
-174.511
11
490.49
21
-174.517
0
LINE
8
BLACK
6
CONTINUOUS
10
490.49
20
-174.517
11
490.014
21
-174.517
0
LINE
8
BLACK
6
CONTINUOUS
10
490.014
20
-174.517
11
489.988
21
-174.513
0
LINE
8
BLACK
6
CONTINUOUS
10
489.988
20
-174.513
11
489.949
21
-174.48
0
LINE
8
BLACK
6
CONTINUOUS
10
489.949
20
-174.48
11
489.94
21
-174.429
0
LINE
8
BLACK
6
CONTINUOUS
10
489.94
20
-174.429
11
489.966
21
-174.385
0
LINE
8
BLACK
6
CONTINUOUS
10
489.966
20
-174.385
11
490.014
21
-174.367
0
LINE
8
BLACK
6
CONTINUOUS
10
490.014
20
-174.367
11
490.415
21
-174.367
0
LINE
8
BLACK
6
CONTINUOUS
10
490.415
20
-174.367
11
490.415
21
-173.442
0
LINE
8
BLACK
6
CONTINUOUS
10
490.415
20
-173.442
11
490.42
21
-173.417
0
LINE
8
BLACK
6
CONTINUOUS
10
490.42
20
-173.417
11
490.452
21
-173.377
0
LINE
8
BLACK
6
CONTINUOUS
10
490.452
20
-173.377
11
490.503
21
-173.369
0
LINE
8
BLACK
6
CONTINUOUS
10
490.503
20
-173.369
11
490.547
21
-173.394
0
LINE
8
BLACK
6
CONTINUOUS
10
491.024
20
-173.394
11
491.041
21
-173.442
0
LINE
8
BLACK
6
CONTINUOUS
10
491.041
20
-173.442
11
491.041
21
-174.144
0
LINE
8
BLACK
6
CONTINUOUS
10
491.041
20
-174.144
11
491.079
21
-174.259
0
LINE
8
BLACK
6
CONTINUOUS
10
491.079
20
-174.259
11
491.15
21
-174.329
0
LINE
8
BLACK
6
CONTINUOUS
10
491.15
20
-174.329
11
491.264
21
-174.367
0
LINE
8
BLACK
6
CONTINUOUS
10
491.264
20
-174.367
11
491.347
21
-174.367
0
LINE
8
BLACK
6
CONTINUOUS
10
491.347
20
-174.367
11
491.373
21
-174.372
0
LINE
8
BLACK
6
CONTINUOUS
10
491.373
20
-174.372
11
491.412
21
-174.405
0
LINE
8
BLACK
6
CONTINUOUS
10
491.412
20
-174.405
11
491.421
21
-174.455
0
LINE
8
BLACK
6
CONTINUOUS
10
491.421
20
-174.455
11
491.395
21
-174.5
0
LINE
8
BLACK
6
CONTINUOUS
10
491.395
20
-174.5
11
491.347
21
-174.517
0
LINE
8
BLACK
6
CONTINUOUS
10
491.347
20
-174.517
11
491.252
21
-174.517
0
LINE
8
BLACK
6
CONTINUOUS
10
491.252
20
-174.517
11
491.23
21
-174.513
0
LINE
8
BLACK
6
CONTINUOUS
10
491.23
20
-174.513
11
491.228
21
-174.514
0
LINE
8
BLACK
6
CONTINUOUS
10
491.228
20
-174.514
11
491.085
21
-174.466
0
LINE
8
BLACK
6
CONTINUOUS
10
491.085
20
-174.466
11
491.062
21
-174.454
0
LINE
8
BLACK
6
CONTINUOUS
10
491.062
20
-174.454
11
491.06
21
-174.45
0
LINE
8
BLACK
6
CONTINUOUS
10
491.06
20
-174.45
11
491.056
21
-174.448
0
LINE
8
BLACK
6
CONTINUOUS
10
491.056
20
-174.448
11
490.961
21
-174.353
0
LINE
8
BLACK
6
CONTINUOUS
10
490.961
20
-174.353
11
490.946
21
-174.331
0
LINE
8
BLACK
6
CONTINUOUS
10
490.946
20
-174.331
11
490.945
21
-174.327
0
LINE
8
BLACK
6
CONTINUOUS
10
490.945
20
-174.327
11
490.943
21
-174.323
0
LINE
8
BLACK
6
CONTINUOUS
10
490.943
20
-174.323
11
490.895
21
-174.18
0
LINE
8
BLACK
6
CONTINUOUS
10
490.895
20
-174.18
11
490.892
21
-174.158
0
LINE
8
BLACK
6
CONTINUOUS
10
490.892
20
-174.158
11
490.891
21
-174.157
0
LINE
8
BLACK
6
CONTINUOUS
10
490.891
20
-174.157
11
490.891
21
-173.442
0
LINE
8
BLACK
6
CONTINUOUS
10
490.891
20
-173.442
11
490.896
21
-173.417
0
LINE
8
BLACK
6
CONTINUOUS
10
490.896
20
-173.417
11
490.929
21
-173.377
0
LINE
8
BLACK
6
CONTINUOUS
10
490.929
20
-173.377
11
490.979
21
-173.369
0
LINE
8
BLACK
6
CONTINUOUS
10
490.979
20
-173.369
11
491.024
21
-173.394
0
LINE
8
BLACK
6
CONTINUOUS
10
488.452
20
-173.394
11
488.47
21
-173.442
0
LINE
8
BLACK
6
CONTINUOUS
10
488.47
20
-173.442
11
488.47
21
-174.144
0
LINE
8
BLACK
6
CONTINUOUS
10
488.47
20
-174.144
11
488.508
21
-174.259
0
LINE
8
BLACK
6
CONTINUOUS
10
488.508
20
-174.259
11
488.578
21
-174.329
0
LINE
8
BLACK
6
CONTINUOUS
10
488.578
20
-174.329
11
488.693
21
-174.367
0
LINE
8
BLACK
6
CONTINUOUS
10
488.693
20
-174.367
11
488.776
21
-174.367
0
LINE
8
BLACK
6
CONTINUOUS
10
488.776
20
-174.367
11
488.801
21
-174.372
0
LINE
8
BLACK
6
CONTINUOUS
10
488.801
20
-174.372
11
488.841
21
-174.405
0
LINE
8
BLACK
6
CONTINUOUS
10
488.841
20
-174.405
11
488.85
21
-174.455
0
LINE
8
BLACK
6
CONTINUOUS
10
488.85
20
-174.455
11
488.824
21
-174.5
0
LINE
8
BLACK
6
CONTINUOUS
10
488.824
20
-174.5
11
488.776
21
-174.517
0
LINE
8
BLACK
6
CONTINUOUS
10
488.776
20
-174.517
11
488.68
21
-174.517
0
LINE
8
BLACK
6
CONTINUOUS
10
488.68
20
-174.517
11
488.658
21
-174.513
0
LINE
8
BLACK
6
CONTINUOUS
10
488.658
20
-174.513
11
488.657
21
-174.514
0
LINE
8
BLACK
6
CONTINUOUS
10
488.657
20
-174.514
11
488.514
21
-174.466
0
LINE
8
BLACK
6
CONTINUOUS
10
488.514
20
-174.466
11
488.491
21
-174.454
0
LINE
8
BLACK
6
CONTINUOUS
10
488.491
20
-174.454
11
488.489
21
-174.45
0
LINE
8
BLACK
6
CONTINUOUS
10
488.489
20
-174.45
11
488.485
21
-174.448
0
LINE
8
BLACK
6
CONTINUOUS
10
488.485
20
-174.448
11
488.389
21
-174.353
0
LINE
8
BLACK
6
CONTINUOUS
10
488.389
20
-174.353
11
488.374
21
-174.331
0
LINE
8
BLACK
6
CONTINUOUS
10
488.374
20
-174.331
11
488.374
21
-174.327
0
LINE
8
BLACK
6
CONTINUOUS
10
488.374
20
-174.327
11
488.371
21
-174.323
0
LINE
8
BLACK
6
CONTINUOUS
10
488.371
20
-174.323
11
488.324
21
-174.18
0
LINE
8
BLACK
6
CONTINUOUS
10
488.324
20
-174.18
11
488.32
21
-174.158
0
LINE
8
BLACK
6
CONTINUOUS
10
488.32
20
-174.158
11
488.32
21
-174.157
0
LINE
8
BLACK
6
CONTINUOUS
10
488.32
20
-174.157
11
488.32
21
-173.442
0
LINE
8
BLACK
6
CONTINUOUS
10
488.32
20
-173.442
11
488.324
21
-173.417
0
LINE
8
BLACK
6
CONTINUOUS
10
488.324
20
-173.417
11
488.357
21
-173.377
0
LINE
8
BLACK
6
CONTINUOUS
10
488.357
20
-173.377
11
488.408
21
-173.369
0
LINE
8
BLACK
6
CONTINUOUS
10
488.408
20
-173.369
11
488.452
21
-173.394
0
LINE
8
BLACK
6
CONTINUOUS
10
491.988
20
-173.371
11
491.99
21
-173.371
0
LINE
8
BLACK
6
CONTINUOUS
10
491.99
20
-173.371
11
492.133
21
-173.419
0
LINE
8
BLACK
6
CONTINUOUS
10
492.133
20
-173.419
11
492.156
21
-173.431
0
LINE
8
BLACK
6
CONTINUOUS
10
492.156
20
-173.431
11
492.158
21
-173.435
0
LINE
8
BLACK
6
CONTINUOUS
10
492.158
20
-173.435
11
492.162
21
-173.437
0
LINE
8
BLACK
6
CONTINUOUS
10
492.162
20
-173.437
11
492.257
21
-173.532
0
LINE
8
BLACK
6
CONTINUOUS
10
492.257
20
-173.532
11
492.27
21
-173.551
0
LINE
8
BLACK
6
CONTINUOUS
10
492.27
20
-173.551
11
492.271
21
-173.552
0
LINE
8
BLACK
6
CONTINUOUS
10
492.271
20
-173.552
11
492.319
21
-173.647
0
LINE
8
BLACK
6
CONTINUOUS
10
492.319
20
-173.647
11
492.323
21
-173.659
0
LINE
8
BLACK
6
CONTINUOUS
10
492.323
20
-173.659
11
492.325
21
-173.662
0
LINE
8
BLACK
6
CONTINUOUS
10
492.325
20
-173.662
11
492.372
21
-173.853
0
LINE
8
BLACK
6
CONTINUOUS
10
492.372
20
-173.853
11
492.373
21
-173.868
0
LINE
8
BLACK
6
CONTINUOUS
10
492.373
20
-173.868
11
492.375
21
-173.871
0
LINE
8
BLACK
6
CONTINUOUS
10
492.375
20
-173.871
11
492.375
21
-174.014
0
LINE
8
BLACK
6
CONTINUOUS
10
492.375
20
-174.014
11
492.372
21
-174.029
0
LINE
8
BLACK
6
CONTINUOUS
10
492.372
20
-174.029
11
492.372
21
-174.032
0
LINE
8
BLACK
6
CONTINUOUS
10
492.372
20
-174.032
11
492.325
21
-174.222
0
LINE
8
BLACK
6
CONTINUOUS
10
492.325
20
-174.222
11
492.319
21
-174.234
0
LINE
8
BLACK
6
CONTINUOUS
10
492.319
20
-174.234
11
492.319
21
-174.238
0
LINE
8
BLACK
6
CONTINUOUS
10
492.319
20
-174.238
11
492.271
21
-174.333
0
LINE
8
BLACK
6
CONTINUOUS
10
492.271
20
-174.333
11
492.258
21
-174.351
0
LINE
8
BLACK
6
CONTINUOUS
10
492.258
20
-174.351
11
492.257
21
-174.353
0
LINE
8
BLACK
6
CONTINUOUS
10
492.257
20
-174.353
11
492.162
21
-174.448
0
LINE
8
BLACK
6
CONTINUOUS
10
492.162
20
-174.448
11
492.141
21
-174.463
0
LINE
8
BLACK
6
CONTINUOUS
10
492.141
20
-174.463
11
492.136
21
-174.463
0
LINE
8
BLACK
6
CONTINUOUS
10
492.136
20
-174.463
11
492.133
21
-174.466
0
LINE
8
BLACK
6
CONTINUOUS
10
492.133
20
-174.466
11
491.99
21
-174.514
0
LINE
8
BLACK
6
CONTINUOUS
10
491.99
20
-174.514
11
491.968
21
-174.517
0
LINE
8
BLACK
6
CONTINUOUS
10
491.968
20
-174.517
11
491.966
21
-174.517
0
LINE
8
BLACK
6
CONTINUOUS
10
491.966
20
-174.517
11
491.871
21
-174.517
0
LINE
8
BLACK
6
CONTINUOUS
10
491.871
20
-174.517
11
491.849
21
-174.513
0
LINE
8
BLACK
6
CONTINUOUS
10
491.849
20
-174.513
11
491.847
21
-174.514
0
LINE
8
BLACK
6
CONTINUOUS
10
491.847
20
-174.514
11
491.704
21
-174.466
0
LINE
8
BLACK
6
CONTINUOUS
10
491.704
20
-174.466
11
491.681
21
-174.454
0
LINE
8
BLACK
6
CONTINUOUS
10
491.681
20
-174.454
11
491.679
21
-174.45
0
LINE
8
BLACK
6
CONTINUOUS
10
491.679
20
-174.45
11
491.675
21
-174.448
0
LINE
8
BLACK
6
CONTINUOUS
10
491.675
20
-174.448
11
491.627
21
-174.4
0
LINE
8
BLACK
6
CONTINUOUS
10
491.627
20
-174.4
11
491.613
21
-174.379
0
LINE
8
BLACK
6
CONTINUOUS
10
491.613
20
-174.379
11
491.608
21
-174.328
0
LINE
8
BLACK
6
CONTINUOUS
10
491.608
20
-174.328
11
491.637
21
-174.286
0
LINE
8
BLACK
6
CONTINUOUS
10
491.637
20
-174.286
11
491.687
21
-174.272
0
LINE
8
BLACK
6
CONTINUOUS
10
491.687
20
-174.272
11
491.734
21
-174.294
0
LINE
8
BLACK
6
CONTINUOUS
10
491.734
20
-174.294
11
491.769
21
-174.329
0
LINE
8
BLACK
6
CONTINUOUS
10
491.769
20
-174.329
11
491.883
21
-174.367
0
LINE
8
BLACK
6
CONTINUOUS
10
491.883
20
-174.367
11
491.954
21
-174.367
0
LINE
8
BLACK
6
CONTINUOUS
10
491.954
20
-174.367
11
492.069
21
-174.329
0
LINE
8
BLACK
6
CONTINUOUS
10
492.069
20
-174.329
11
492.143
21
-174.255
0
LINE
8
BLACK
6
CONTINUOUS
10
492.143
20
-174.255
11
492.181
21
-174.178
0
LINE
8
BLACK
6
CONTINUOUS
10
492.181
20
-174.178
11
492.225
21
-174.005
0
LINE
8
BLACK
6
CONTINUOUS
10
492.225
20
-174.005
11
492.225
21
-173.88
0
LINE
8
BLACK
6
CONTINUOUS
10
492.225
20
-173.88
11
492.181
21
-173.707
0
LINE
8
BLACK
6
CONTINUOUS
10
492.181
20
-173.707
11
492.143
21
-173.63
0
LINE
8
BLACK
6
CONTINUOUS
10
492.143
20
-173.63
11
492.069
21
-173.556
0
LINE
8
BLACK
6
CONTINUOUS
10
492.069
20
-173.556
11
491.954
21
-173.517
0
LINE
8
BLACK
6
CONTINUOUS
10
491.954
20
-173.517
11
491.883
21
-173.517
0
LINE
8
BLACK
6
CONTINUOUS
10
491.883
20
-173.517
11
491.769
21
-173.556
0
LINE
8
BLACK
6
CONTINUOUS
10
491.769
20
-173.556
11
491.734
21
-173.591
0
LINE
8
BLACK
6
CONTINUOUS
10
491.734
20
-173.591
11
491.712
21
-173.606
0
LINE
8
BLACK
6
CONTINUOUS
10
491.712
20
-173.606
11
491.661
21
-173.61
0
LINE
8
BLACK
6
CONTINUOUS
10
491.661
20
-173.61
11
491.619
21
-173.581
0
LINE
8
BLACK
6
CONTINUOUS
10
491.619
20
-173.581
11
491.606
21
-173.531
0
LINE
8
BLACK
6
CONTINUOUS
10
491.606
20
-173.531
11
491.627
21
-173.485
0
LINE
8
BLACK
6
CONTINUOUS
10
491.627
20
-173.485
11
491.675
21
-173.437
0
LINE
8
BLACK
6
CONTINUOUS
10
491.675
20
-173.437
11
491.696
21
-173.422
0
LINE
8
BLACK
6
CONTINUOUS
10
491.696
20
-173.422
11
491.701
21
-173.422
0
LINE
8
BLACK
6
CONTINUOUS
10
491.701
20
-173.422
11
491.704
21
-173.419
0
LINE
8
BLACK
6
CONTINUOUS
10
491.704
20
-173.419
11
491.847
21
-173.371
0
LINE
8
BLACK
6
CONTINUOUS
10
491.847
20
-173.371
11
491.869
21
-173.368
0
LINE
8
BLACK
6
CONTINUOUS
10
491.869
20
-173.368
11
491.871
21
-173.367
0
LINE
8
BLACK
6
CONTINUOUS
10
491.871
20
-173.367
11
491.966
21
-173.367
0
LINE
8
BLACK
6
CONTINUOUS
10
491.966
20
-173.367
11
491.988
21
-173.371
0
LINE
8
BLACK
6
CONTINUOUS
10
493.595
20
-173.394
11
493.613
21
-173.442
0
LINE
8
BLACK
6
CONTINUOUS
10
493.613
20
-173.442
11
493.613
21
-174.144
0
LINE
8
BLACK
6
CONTINUOUS
10
493.613
20
-174.144
11
493.651
21
-174.259
0
LINE
8
BLACK
6
CONTINUOUS
10
493.651
20
-174.259
11
493.721
21
-174.329
0
LINE
8
BLACK
6
CONTINUOUS
10
493.721
20
-174.329
11
493.836
21
-174.367
0
LINE
8
BLACK
6
CONTINUOUS
10
493.836
20
-174.367
11
493.919
21
-174.367
0
LINE
8
BLACK
6
CONTINUOUS
10
493.919
20
-174.367
11
493.944
21
-174.372
0
LINE
8
BLACK
6
CONTINUOUS
10
493.944
20
-174.372
11
493.984
21
-174.405
0
LINE
8
BLACK
6
CONTINUOUS
10
493.984
20
-174.405
11
493.992
21
-174.455
0
LINE
8
BLACK
6
CONTINUOUS
10
493.992
20
-174.455
11
493.967
21
-174.5
0
LINE
8
BLACK
6
CONTINUOUS
10
493.967
20
-174.5
11
493.919
21
-174.517
0
LINE
8
BLACK
6
CONTINUOUS
10
493.919
20
-174.517
11
493.823
21
-174.517
0
LINE
8
BLACK
6
CONTINUOUS
10
493.823
20
-174.517
11
493.801
21
-174.513
0
LINE
8
BLACK
6
CONTINUOUS
10
493.801
20
-174.513
11
493.8
21
-174.514
0
LINE
8
BLACK
6
CONTINUOUS
10
493.8
20
-174.514
11
493.657
21
-174.466
0
LINE
8
BLACK
6
CONTINUOUS
10
493.657
20
-174.466
11
493.634
21
-174.454
0
LINE
8
BLACK
6
CONTINUOUS
10
493.634
20
-174.454
11
493.632
21
-174.45
0
LINE
8
BLACK
6
CONTINUOUS
10
493.632
20
-174.45
11
493.627
21
-174.448
0
LINE
8
BLACK
6
CONTINUOUS
10
493.627
20
-174.448
11
493.532
21
-174.353
0
LINE
8
BLACK
6
CONTINUOUS
10
493.532
20
-174.353
11
493.517
21
-174.331
0
LINE
8
BLACK
6
CONTINUOUS
10
493.517
20
-174.331
11
493.517
21
-174.327
0
LINE
8
BLACK
6
CONTINUOUS
10
493.517
20
-174.327
11
493.514
21
-174.323
0
LINE
8
BLACK
6
CONTINUOUS
10
493.514
20
-174.323
11
493.466
21
-174.18
0
LINE
8
BLACK
6
CONTINUOUS
10
493.466
20
-174.18
11
493.463
21
-174.158
0
LINE
8
BLACK
6
CONTINUOUS
10
493.463
20
-174.158
11
493.463
21
-174.157
0
LINE
8
BLACK
6
CONTINUOUS
10
493.463
20
-174.157
11
493.463
21
-173.442
0
LINE
8
BLACK
6
CONTINUOUS
10
493.463
20
-173.442
11
493.467
21
-173.417
0
LINE
8
BLACK
6
CONTINUOUS
10
493.467
20
-173.417
11
493.5
21
-173.377
0
LINE
8
BLACK
6
CONTINUOUS
10
493.5
20
-173.377
11
493.551
21
-173.369
0
LINE
8
BLACK
6
CONTINUOUS
10
493.551
20
-173.369
11
493.595
21
-173.394
0
LINE
8
BLACK
6
CONTINUOUS
10
487.976
20
-173.394
11
487.994
21
-173.442
0
LINE
8
BLACK
6
CONTINUOUS
10
487.994
20
-173.442
11
487.994
21
-174.442
0
LINE
8
BLACK
6
CONTINUOUS
10
487.994
20
-174.442
11
487.992
21
-174.452
0
LINE
8
BLACK
6
CONTINUOUS
10
487.992
20
-174.452
11
487.992
21
-174.455
0
LINE
8
BLACK
6
CONTINUOUS
10
487.992
20
-174.455
11
487.991
21
-174.458
0
LINE
8
BLACK
6
CONTINUOUS
10
487.991
20
-174.458
11
487.989
21
-174.468
0
LINE
8
BLACK
6
CONTINUOUS
10
487.989
20
-174.468
11
487.977
21
-174.483
0
LINE
8
BLACK
6
CONTINUOUS
10
487.977
20
-174.483
11
487.967
21
-174.5
0
LINE
8
BLACK
6
CONTINUOUS
10
487.967
20
-174.5
11
487.96
21
-174.502
0
LINE
8
BLACK
6
CONTINUOUS
10
487.96
20
-174.502
11
487.956
21
-174.507
0
LINE
8
BLACK
6
CONTINUOUS
10
487.956
20
-174.507
11
487.937
21
-174.511
0
LINE
8
BLACK
6
CONTINUOUS
10
487.937
20
-174.511
11
487.919
21
-174.517
0
LINE
8
BLACK
6
CONTINUOUS
10
487.919
20
-174.517
11
487.442
21
-174.517
0
LINE
8
BLACK
6
CONTINUOUS
10
487.442
20
-174.517
11
487.417
21
-174.513
0
LINE
8
BLACK
6
CONTINUOUS
10
487.417
20
-174.513
11
487.377
21
-174.48
0
LINE
8
BLACK
6
CONTINUOUS
10
487.377
20
-174.48
11
487.369
21
-174.429
0
LINE
8
BLACK
6
CONTINUOUS
10
487.369
20
-174.429
11
487.394
21
-174.385
0
LINE
8
BLACK
6
CONTINUOUS
10
487.394
20
-174.385
11
487.442
21
-174.367
0
LINE
8
BLACK
6
CONTINUOUS
10
487.442
20
-174.367
11
487.844
21
-174.367
0
LINE
8
BLACK
6
CONTINUOUS
10
487.844
20
-174.367
11
487.844
21
-173.442
0
LINE
8
BLACK
6
CONTINUOUS
10
487.844
20
-173.442
11
487.848
21
-173.417
0
LINE
8
BLACK
6
CONTINUOUS
10
487.848
20
-173.417
11
487.881
21
-173.377
0
LINE
8
BLACK
6
CONTINUOUS
10
487.881
20
-173.377
11
487.932
21
-173.369
0
LINE
8
BLACK
6
CONTINUOUS
10
487.932
20
-173.369
11
487.976
21
-173.394
0
LINE
8
BLACK
6
CONTINUOUS
10
486.845
20
-173.371
11
486.847
21
-173.371
0
LINE
8
BLACK
6
CONTINUOUS
10
486.847
20
-173.371
11
486.99
21
-173.419
0
LINE
8
BLACK
6
CONTINUOUS
10
486.99
20
-173.419
11
487.013
21
-173.431
0
LINE
8
BLACK
6
CONTINUOUS
10
487.013
20
-173.431
11
487.015
21
-173.435
0
LINE
8
BLACK
6
CONTINUOUS
10
487.015
20
-173.435
11
487.019
21
-173.437
0
LINE
8
BLACK
6
CONTINUOUS
10
487.019
20
-173.437
11
487.114
21
-173.532
0
LINE
8
BLACK
6
CONTINUOUS
10
487.114
20
-173.532
11
487.127
21
-173.551
0
LINE
8
BLACK
6
CONTINUOUS
10
487.127
20
-173.551
11
487.129
21
-173.552
0
LINE
8
BLACK
6
CONTINUOUS
10
487.129
20
-173.552
11
487.176
21
-173.647
0
LINE
8
BLACK
6
CONTINUOUS
10
487.176
20
-173.647
11
487.18
21
-173.659
0
LINE
8
BLACK
6
CONTINUOUS
10
487.18
20
-173.659
11
487.182
21
-173.662
0
LINE
8
BLACK
6
CONTINUOUS
10
487.182
20
-173.662
11
487.229
21
-173.853
0
LINE
8
BLACK
6
CONTINUOUS
10
487.229
20
-173.853
11
487.23
21
-173.868
0
LINE
8
BLACK
6
CONTINUOUS
10
487.23
20
-173.868
11
487.232
21
-173.871
0
LINE
8
BLACK
6
CONTINUOUS
10
487.232
20
-173.871
11
487.232
21
-174.014
0
LINE
8
BLACK
6
CONTINUOUS
10
487.232
20
-174.014
11
487.229
21
-174.029
0
LINE
8
BLACK
6
CONTINUOUS
10
487.229
20
-174.029
11
487.229
21
-174.032
0
LINE
8
BLACK
6
CONTINUOUS
10
487.229
20
-174.032
11
487.182
21
-174.222
0
LINE
8
BLACK
6
CONTINUOUS
10
487.182
20
-174.222
11
487.177
21
-174.234
0
LINE
8
BLACK
6
CONTINUOUS
10
487.177
20
-174.234
11
487.176
21
-174.238
0
LINE
8
BLACK
6
CONTINUOUS
10
487.176
20
-174.238
11
487.129
21
-174.333
0
LINE
8
BLACK
6
CONTINUOUS
10
487.129
20
-174.333
11
487.115
21
-174.351
0
LINE
8
BLACK
6
CONTINUOUS
10
487.115
20
-174.351
11
487.114
21
-174.353
0
LINE
8
BLACK
6
CONTINUOUS
10
487.114
20
-174.353
11
487.019
21
-174.448
0
LINE
8
BLACK
6
CONTINUOUS
10
487.019
20
-174.448
11
486.998
21
-174.463
0
LINE
8
BLACK
6
CONTINUOUS
10
486.998
20
-174.463
11
486.993
21
-174.463
0
LINE
8
BLACK
6
CONTINUOUS
10
486.993
20
-174.463
11
486.99
21
-174.466
0
LINE
8
BLACK
6
CONTINUOUS
10
486.99
20
-174.466
11
486.847
21
-174.514
0
LINE
8
BLACK
6
CONTINUOUS
10
486.847
20
-174.514
11
486.825
21
-174.517
0
LINE
8
BLACK
6
CONTINUOUS
10
486.825
20
-174.517
11
486.823
21
-174.517
0
LINE
8
BLACK
6
CONTINUOUS
10
486.823
20
-174.517
11
486.728
21
-174.517
0
LINE
8
BLACK
6
CONTINUOUS
10
486.728
20
-174.517
11
486.706
21
-174.513
0
LINE
8
BLACK
6
CONTINUOUS
10
486.706
20
-174.513
11
486.704
21
-174.514
0
LINE
8
BLACK
6
CONTINUOUS
10
486.704
20
-174.514
11
486.562
21
-174.466
0
LINE
8
BLACK
6
CONTINUOUS
10
486.562
20
-174.466
11
486.539
21
-174.454
0
LINE
8
BLACK
6
CONTINUOUS
10
486.539
20
-174.454
11
486.536
21
-174.45
0
LINE
8
BLACK
6
CONTINUOUS
10
486.536
20
-174.45
11
486.532
21
-174.448
0
LINE
8
BLACK
6
CONTINUOUS
10
486.532
20
-174.448
11
486.485
21
-174.4
0
LINE
8
BLACK
6
CONTINUOUS
10
486.485
20
-174.4
11
486.47
21
-174.379
0
LINE
8
BLACK
6
CONTINUOUS
10
486.47
20
-174.379
11
486.465
21
-174.328
0
LINE
8
BLACK
6
CONTINUOUS
10
486.465
20
-174.328
11
486.495
21
-174.286
0
LINE
8
BLACK
6
CONTINUOUS
10
486.495
20
-174.286
11
486.544
21
-174.272
0
LINE
8
BLACK
6
CONTINUOUS
10
486.544
20
-174.272
11
486.591
21
-174.294
0
LINE
8
BLACK
6
CONTINUOUS
10
486.591
20
-174.294
11
486.626
21
-174.329
0
LINE
8
BLACK
6
CONTINUOUS
10
486.626
20
-174.329
11
486.74
21
-174.367
0
LINE
8
BLACK
6
CONTINUOUS
10
486.74
20
-174.367
11
486.811
21
-174.367
0
LINE
8
BLACK
6
CONTINUOUS
10
486.811
20
-174.367
11
486.926
21
-174.329
0
LINE
8
BLACK
6
CONTINUOUS
10
486.926
20
-174.329
11
487
21
-174.255
0
LINE
8
BLACK
6
CONTINUOUS
10
487
20
-174.255
11
487.038
21
-174.178
0
LINE
8
BLACK
6
CONTINUOUS
10
487.038
20
-174.178
11
487.082
21
-174.005
0
LINE
8
BLACK
6
CONTINUOUS
10
487.082
20
-174.005
11
487.082
21
-173.88
0
LINE
8
BLACK
6
CONTINUOUS
10
487.082
20
-173.88
11
487.038
21
-173.707
0
LINE
8
BLACK
6
CONTINUOUS
10
487.038
20
-173.707
11
487
21
-173.63
0
LINE
8
BLACK
6
CONTINUOUS
10
487
20
-173.63
11
486.926
21
-173.556
0
LINE
8
BLACK
6
CONTINUOUS
10
486.926
20
-173.556
11
486.811
21
-173.517
0
LINE
8
BLACK
6
CONTINUOUS
10
486.811
20
-173.517
11
486.74
21
-173.517
0
LINE
8
BLACK
6
CONTINUOUS
10
486.74
20
-173.517
11
486.626
21
-173.556
0
LINE
8
BLACK
6
CONTINUOUS
10
486.626
20
-173.556
11
486.591
21
-173.591
0
LINE
8
BLACK
6
CONTINUOUS
10
486.591
20
-173.591
11
486.569
21
-173.606
0
LINE
8
BLACK
6
CONTINUOUS
10
486.569
20
-173.606
11
486.518
21
-173.61
0
LINE
8
BLACK
6
CONTINUOUS
10
486.518
20
-173.61
11
486.476
21
-173.581
0
LINE
8
BLACK
6
CONTINUOUS
10
486.476
20
-173.581
11
486.463
21
-173.531
0
LINE
8
BLACK
6
CONTINUOUS
10
486.463
20
-173.531
11
486.485
21
-173.485
0
LINE
8
BLACK
6
CONTINUOUS
10
486.485
20
-173.485
11
486.532
21
-173.437
0
LINE
8
BLACK
6
CONTINUOUS
10
486.532
20
-173.437
11
486.554
21
-173.422
0
LINE
8
BLACK
6
CONTINUOUS
10
486.554
20
-173.422
11
486.558
21
-173.422
0
LINE
8
BLACK
6
CONTINUOUS
10
486.558
20
-173.422
11
486.562
21
-173.419
0
LINE
8
BLACK
6
CONTINUOUS
10
486.562
20
-173.419
11
486.704
21
-173.371
0
LINE
8
BLACK
6
CONTINUOUS
10
486.704
20
-173.371
11
486.727
21
-173.368
0
LINE
8
BLACK
6
CONTINUOUS
10
486.727
20
-173.368
11
486.728
21
-173.367
0
LINE
8
BLACK
6
CONTINUOUS
10
486.728
20
-173.367
11
486.823
21
-173.367
0
LINE
8
BLACK
6
CONTINUOUS
10
486.823
20
-173.367
11
486.845
21
-173.371
0
LINE
8
BLACK
6
CONTINUOUS
10
494.56
20
-173.371
11
494.561
21
-173.371
0
LINE
8
BLACK
6
CONTINUOUS
10
494.561
20
-173.371
11
494.704
21
-173.419
0
LINE
8
BLACK
6
CONTINUOUS
10
494.704
20
-173.419
11
494.727
21
-173.431
0
LINE
8
BLACK
6
CONTINUOUS
10
494.727
20
-173.431
11
494.729
21
-173.435
0
LINE
8
BLACK
6
CONTINUOUS
10
494.729
20
-173.435
11
494.734
21
-173.437
0
LINE
8
BLACK
6
CONTINUOUS
10
494.734
20
-173.437
11
494.829
21
-173.532
0
LINE
8
BLACK
6
CONTINUOUS
10
494.829
20
-173.532
11
494.842
21
-173.551
0
LINE
8
BLACK
6
CONTINUOUS
10
494.842
20
-173.551
11
494.843
21
-173.552
0
LINE
8
BLACK
6
CONTINUOUS
10
494.843
20
-173.552
11
494.89
21
-173.647
0
LINE
8
BLACK
6
CONTINUOUS
10
494.89
20
-173.647
11
494.894
21
-173.659
0
LINE
8
BLACK
6
CONTINUOUS
10
494.894
20
-173.659
11
494.896
21
-173.662
0
LINE
8
BLACK
6
CONTINUOUS
10
494.896
20
-173.662
11
494.944
21
-173.853
0
LINE
8
BLACK
6
CONTINUOUS
10
494.944
20
-173.853
11
494.945
21
-173.868
0
LINE
8
BLACK
6
CONTINUOUS
10
494.945
20
-173.868
11
494.946
21
-173.871
0
LINE
8
BLACK
6
CONTINUOUS
10
494.946
20
-173.871
11
494.946
21
-174.014
0
LINE
8
BLACK
6
CONTINUOUS
10
494.946
20
-174.014
11
494.943
21
-174.029
0
LINE
8
BLACK
6
CONTINUOUS
10
494.943
20
-174.029
11
494.944
21
-174.032
0
LINE
8
BLACK
6
CONTINUOUS
10
494.944
20
-174.032
11
494.896
21
-174.222
0
LINE
8
BLACK
6
CONTINUOUS
10
494.896
20
-174.222
11
494.891
21
-174.234
0
LINE
8
BLACK
6
CONTINUOUS
10
494.891
20
-174.234
11
494.89
21
-174.238
0
LINE
8
BLACK
6
CONTINUOUS
10
494.89
20
-174.238
11
494.843
21
-174.333
0
LINE
8
BLACK
6
CONTINUOUS
10
494.843
20
-174.333
11
494.829
21
-174.351
0
LINE
8
BLACK
6
CONTINUOUS
10
494.829
20
-174.351
11
494.829
21
-174.353
0
LINE
8
BLACK
6
CONTINUOUS
10
494.829
20
-174.353
11
494.734
21
-174.448
0
LINE
8
BLACK
6
CONTINUOUS
10
494.734
20
-174.448
11
494.712
21
-174.463
0
LINE
8
BLACK
6
CONTINUOUS
10
494.712
20
-174.463
11
494.708
21
-174.463
0
LINE
8
BLACK
6
CONTINUOUS
10
494.708
20
-174.463
11
494.704
21
-174.466
0
LINE
8
BLACK
6
CONTINUOUS
10
494.704
20
-174.466
11
494.561
21
-174.514
0
LINE
8
BLACK
6
CONTINUOUS
10
494.561
20
-174.514
11
494.539
21
-174.517
0
LINE
8
BLACK
6
CONTINUOUS
10
494.539
20
-174.517
11
494.538
21
-174.517
0
LINE
8
BLACK
6
CONTINUOUS
10
494.538
20
-174.517
11
494.442
21
-174.517
0
LINE
8
BLACK
6
CONTINUOUS
10
494.442
20
-174.517
11
494.42
21
-174.513
0
LINE
8
BLACK
6
CONTINUOUS
10
494.42
20
-174.513
11
494.419
21
-174.514
0
LINE
8
BLACK
6
CONTINUOUS
10
494.419
20
-174.514
11
494.276
21
-174.466
0
LINE
8
BLACK
6
CONTINUOUS
10
494.276
20
-174.466
11
494.253
21
-174.454
0
LINE
8
BLACK
6
CONTINUOUS
10
494.253
20
-174.454
11
494.251
21
-174.45
0
LINE
8
BLACK
6
CONTINUOUS
10
494.251
20
-174.45
11
494.246
21
-174.448
0
LINE
8
BLACK
6
CONTINUOUS
10
494.246
20
-174.448
11
494.199
21
-174.4
0
LINE
8
BLACK
6
CONTINUOUS
10
494.199
20
-174.4
11
494.184
21
-174.379
0
LINE
8
BLACK
6
CONTINUOUS
10
494.184
20
-174.379
11
494.179
21
-174.328
0
LINE
8
BLACK
6
CONTINUOUS
10
494.179
20
-174.328
11
494.209
21
-174.286
0
LINE
8
BLACK
6
CONTINUOUS
10
494.209
20
-174.286
11
494.258
21
-174.272
0
LINE
8
BLACK
6
CONTINUOUS
10
494.258
20
-174.272
11
494.305
21
-174.294
0
LINE
8
BLACK
6
CONTINUOUS
10
494.305
20
-174.294
11
494.34
21
-174.329
0
LINE
8
BLACK
6
CONTINUOUS
10
494.34
20
-174.329
11
494.455
21
-174.367
0
LINE
8
BLACK
6
CONTINUOUS
10
494.455
20
-174.367
11
494.525
21
-174.367
0
LINE
8
BLACK
6
CONTINUOUS
10
494.525
20
-174.367
11
494.64
21
-174.329
0
LINE
8
BLACK
6
CONTINUOUS
10
494.64
20
-174.329
11
494.714
21
-174.255
0
LINE
8
BLACK
6
CONTINUOUS
10
494.714
20
-174.255
11
494.753
21
-174.178
0
LINE
8
BLACK
6
CONTINUOUS
10
494.753
20
-174.178
11
494.796
21
-174.005
0
LINE
8
BLACK
6
CONTINUOUS
10
494.796
20
-174.005
11
494.796
21
-173.88
0
LINE
8
BLACK
6
CONTINUOUS
10
494.796
20
-173.88
11
494.753
21
-173.707
0
LINE
8
BLACK
6
CONTINUOUS
10
494.753
20
-173.707
11
494.714
21
-173.63
0
LINE
8
BLACK
6
CONTINUOUS
10
494.714
20
-173.63
11
494.64
21
-173.556
0
LINE
8
BLACK
6
CONTINUOUS
10
494.64
20
-173.556
11
494.525
21
-173.517
0
LINE
8
BLACK
6
CONTINUOUS
10
494.525
20
-173.517
11
494.455
21
-173.517
0
LINE
8
BLACK
6
CONTINUOUS
10
494.455
20
-173.517
11
494.34
21
-173.556
0
LINE
8
BLACK
6
CONTINUOUS
10
494.34
20
-173.556
11
494.305
21
-173.591
0
LINE
8
BLACK
6
CONTINUOUS
10
494.305
20
-173.591
11
494.284
21
-173.606
0
LINE
8
BLACK
6
CONTINUOUS
10
494.284
20
-173.606
11
494.232
21
-173.61
0
LINE
8
BLACK
6
CONTINUOUS
10
494.232
20
-173.61
11
494.19
21
-173.581
0
LINE
8
BLACK
6
CONTINUOUS
10
494.19
20
-173.581
11
494.177
21
-173.531
0
LINE
8
BLACK
6
CONTINUOUS
10
494.177
20
-173.531
11
494.199
21
-173.485
0
LINE
8
BLACK
6
CONTINUOUS
10
494.199
20
-173.485
11
494.246
21
-173.437
0
LINE
8
BLACK
6
CONTINUOUS
10
494.246
20
-173.437
11
494.268
21
-173.422
0
LINE
8
BLACK
6
CONTINUOUS
10
494.268
20
-173.422
11
494.272
21
-173.422
0
LINE
8
BLACK
6
CONTINUOUS
10
494.272
20
-173.422
11
494.276
21
-173.419
0
LINE
8
BLACK
6
CONTINUOUS
10
494.276
20
-173.419
11
494.419
21
-173.371
0
LINE
8
BLACK
6
CONTINUOUS
10
494.419
20
-173.371
11
494.441
21
-173.368
0
LINE
8
BLACK
6
CONTINUOUS
10
494.441
20
-173.368
11
494.442
21
-173.367
0
LINE
8
BLACK
6
CONTINUOUS
10
494.442
20
-173.367
11
494.538
21
-173.367
0
LINE
8
BLACK
6
CONTINUOUS
10
494.538
20
-173.367
11
494.56
21
-173.371
0
LINE
8
BLACK
6
CONTINUOUS
10
496.166
20
-173.394
11
496.184
21
-173.442
0
LINE
8
BLACK
6
CONTINUOUS
10
496.184
20
-173.442
11
496.184
21
-174.144
0
LINE
8
BLACK
6
CONTINUOUS
10
496.184
20
-174.144
11
496.222
21
-174.259
0
LINE
8
BLACK
6
CONTINUOUS
10
496.222
20
-174.259
11
496.292
21
-174.329
0
LINE
8
BLACK
6
CONTINUOUS
10
496.292
20
-174.329
11
496.407
21
-174.367
0
LINE
8
BLACK
6
CONTINUOUS
10
496.407
20
-174.367
11
496.49
21
-174.367
0
LINE
8
BLACK
6
CONTINUOUS
10
496.49
20
-174.367
11
496.516
21
-174.372
0
LINE
8
BLACK
6
CONTINUOUS
10
496.516
20
-174.372
11
496.555
21
-174.405
0
LINE
8
BLACK
6
CONTINUOUS
10
496.555
20
-174.405
11
496.564
21
-174.455
0
LINE
8
BLACK
6
CONTINUOUS
10
496.564
20
-174.455
11
496.538
21
-174.5
0
LINE
8
BLACK
6
CONTINUOUS
10
496.538
20
-174.5
11
496.49
21
-174.517
0
LINE
8
BLACK
6
CONTINUOUS
10
496.49
20
-174.517
11
496.395
21
-174.517
0
LINE
8
BLACK
6
CONTINUOUS
10
496.395
20
-174.517
11
496.373
21
-174.513
0
LINE
8
BLACK
6
CONTINUOUS
10
496.373
20
-174.513
11
496.371
21
-174.514
0
LINE
8
BLACK
6
CONTINUOUS
10
496.371
20
-174.514
11
496.228
21
-174.466
0
LINE
8
BLACK
6
CONTINUOUS
10
496.228
20
-174.466
11
496.205
21
-174.454
0
LINE
8
BLACK
6
CONTINUOUS
10
496.205
20
-174.454
11
496.203
21
-174.45
0
LINE
8
BLACK
6
CONTINUOUS
10
496.203
20
-174.45
11
496.199
21
-174.448
0
LINE
8
BLACK
6
CONTINUOUS
10
496.199
20
-174.448
11
496.104
21
-174.353
0
LINE
8
BLACK
6
CONTINUOUS
10
496.104
20
-174.353
11
496.089
21
-174.331
0
LINE
8
BLACK
6
CONTINUOUS
10
496.089
20
-174.331
11
496.088
21
-174.327
0
LINE
8
BLACK
6
CONTINUOUS
10
496.088
20
-174.327
11
496.086
21
-174.323
0
LINE
8
BLACK
6
CONTINUOUS
10
496.086
20
-174.323
11
496.038
21
-174.18
0
LINE
8
BLACK
6
CONTINUOUS
10
496.038
20
-174.18
11
496.035
21
-174.158
0
LINE
8
BLACK
6
CONTINUOUS
10
496.035
20
-174.158
11
496.034
21
-174.157
0
LINE
8
BLACK
6
CONTINUOUS
10
496.034
20
-174.157
11
496.034
21
-173.442
0
LINE
8
BLACK
6
CONTINUOUS
10
496.034
20
-173.442
11
496.039
21
-173.417
0
LINE
8
BLACK
6
CONTINUOUS
10
496.039
20
-173.417
11
496.072
21
-173.377
0
LINE
8
BLACK
6
CONTINUOUS
10
496.072
20
-173.377
11
496.122
21
-173.369
0
LINE
8
BLACK
6
CONTINUOUS
10
496.122
20
-173.369
11
496.166
21
-173.394
0
LINE
8
BLACK
6
CONTINUOUS
10
495.69
20
-173.394
11
495.708
21
-173.442
0
LINE
8
BLACK
6
CONTINUOUS
10
495.708
20
-173.442
11
495.708
21
-174.442
0
LINE
8
BLACK
6
CONTINUOUS
10
495.708
20
-174.442
11
495.706
21
-174.452
0
LINE
8
BLACK
6
CONTINUOUS
10
495.706
20
-174.452
11
495.707
21
-174.455
0
LINE
8
BLACK
6
CONTINUOUS
10
495.707
20
-174.455
11
495.705
21
-174.458
0
LINE
8
BLACK
6
CONTINUOUS
10
495.705
20
-174.458
11
495.703
21
-174.468
0
LINE
8
BLACK
6
CONTINUOUS
10
495.703
20
-174.468
11
495.691
21
-174.483
0
LINE
8
BLACK
6
CONTINUOUS
10
495.691
20
-174.483
11
495.681
21
-174.5
0
LINE
8
BLACK
6
CONTINUOUS
10
495.681
20
-174.5
11
495.675
21
-174.502
0
LINE
8
BLACK
6
CONTINUOUS
10
495.675
20
-174.502
11
495.67
21
-174.507
0
LINE
8
BLACK
6
CONTINUOUS
10
495.67
20
-174.507
11
495.651
21
-174.511
0
LINE
8
BLACK
6
CONTINUOUS
10
495.651
20
-174.511
11
495.633
21
-174.517
0
LINE
8
BLACK
6
CONTINUOUS
10
495.633
20
-174.517
11
495.157
21
-174.517
0
LINE
8
BLACK
6
CONTINUOUS
10
495.157
20
-174.517
11
495.131
21
-174.513
0
LINE
8
BLACK
6
CONTINUOUS
10
495.131
20
-174.513
11
495.092
21
-174.48
0
LINE
8
BLACK
6
CONTINUOUS
10
495.092
20
-174.48
11
495.083
21
-174.429
0
LINE
8
BLACK
6
CONTINUOUS
10
495.083
20
-174.429
11
495.108
21
-174.385
0
LINE
8
BLACK
6
CONTINUOUS
10
495.108
20
-174.385
11
495.157
21
-174.367
0
LINE
8
BLACK
6
CONTINUOUS
10
495.157
20
-174.367
11
495.558
21
-174.367
0
LINE
8
BLACK
6
CONTINUOUS
10
495.558
20
-174.367
11
495.558
21
-173.442
0
LINE
8
BLACK
6
CONTINUOUS
10
495.558
20
-173.442
11
495.562
21
-173.417
0
LINE
8
BLACK
6
CONTINUOUS
10
495.562
20
-173.417
11
495.595
21
-173.377
0
LINE
8
BLACK
6
CONTINUOUS
10
495.595
20
-173.377
11
495.646
21
-173.369
0
LINE
8
BLACK
6
CONTINUOUS
10
495.646
20
-173.369
11
495.69
21
-173.394
0
CIRCLE
8
BLACK
10
99.06
20
-207.772
40
0.5
  0
ENDSEC
  0
EOF
