  0
SECTION
  2
HEADER
  9
$ANGBASE
  50
0.0
  9
$ANGDIR
  70
1
  9
$MEASUREMENT
  70
1
  0
ENDSEC
  0
SECTION
  2
TABLES
  0
TABLE
  2
LTYPE
  70
4
  0
LTYPE
  5
40F
  2
CONTINUOUS
  70
0
  3
Solid line
  72
65
  73
0
  40
0.0
  0
LTYPE
  5
410
  2
DASHDOT
 70
0
  3
Dash Dot ____ _ ____ _
 72
65
 73
4
 40
2.0
 49
1.25
 49
-0.25
 49
0.25
 49
-0.25
  0
LTYPE
  5
411
  2
DASHED
 70
0
  3
Dashed __ __ __ __ __
 72
65
 73
2
 40
0.75
 49
0.5
 49
-0.25
  0
LTYPE
  5
43B
  2
DOTTED
 70
0
  3
Dotted .  .  .  .
 72
65
 73
2
 40
0.2
 49
0.0
 49
-0.2
  0
ENDTAB
  0
TABLE
  2
STYLE
  70
4
  0
STYLE
  2
KICAD
  70
0
  40
0
  41
1
  42
1
  50
0
  71
0
  3
isocp.shx
  0
STYLE
  2
KICADB
  70
0
  40
0
  41
1
  42
1
  50
0
  71
0
  3
isocp.shx
  0
STYLE
  2
KICADI
  70
0
  40
0
  41
1
  42
1
  50
15
  71
0
  3
isocp.shx
  0
STYLE
  2
KICADBI
  70
0
  40
0
  41
1
  42
1
  50
15
  71
0
  3
isocp.shx
  0
ENDTAB
  0
TABLE
  2
LAYER
  70
1
  0
LAYER
  2
BLACK
  70
0
  62
7
  6
CONTINUOUS
  0
ENDTAB
  0
ENDSEC
  0
SECTION
  2
ENTITIES
0
LINE
8
BLACK
6
CONTINUOUS
10
67.2923
20
-238.778
11
67.285
21
-238.76
0
LINE
8
BLACK
6
CONTINUOUS
10
67.285
20
-238.76
11
67.285
21
-168.91
0
LINE
8
BLACK
6
CONTINUOUS
10
67.285
20
-168.91
11
67.2923
21
-168.892
0
LINE
8
BLACK
6
CONTINUOUS
10
67.2923
20
-168.892
11
67.31
21
-168.885
0
LINE
8
BLACK
6
CONTINUOUS
10
67.31
20
-168.885
11
499.11
21
-168.885
0
LINE
8
BLACK
6
CONTINUOUS
10
499.11
20
-168.885
11
499.128
21
-168.892
0
LINE
8
BLACK
6
CONTINUOUS
10
499.128
20
-168.892
11
499.135
21
-168.91
0
LINE
8
BLACK
6
CONTINUOUS
10
499.135
20
-168.91
11
499.135
21
-238.76
0
LINE
8
BLACK
6
CONTINUOUS
10
499.135
20
-238.76
11
499.128
21
-238.778
0
LINE
8
BLACK
6
CONTINUOUS
10
499.128
20
-238.778
11
499.11
21
-238.785
0
LINE
8
BLACK
6
CONTINUOUS
10
499.11
20
-238.785
11
67.31
21
-238.785
0
LINE
8
BLACK
6
CONTINUOUS
10
67.31
20
-238.785
11
67.2923
21
-238.778
0
LINE
8
BLACK
6
CONTINUOUS
10
67.335
20
-168.935
11
67.335
21
-238.735
0
LINE
8
BLACK
6
CONTINUOUS
10
67.335
20
-238.735
11
499.085
21
-238.735
0
LINE
8
BLACK
6
CONTINUOUS
10
499.085
20
-238.735
11
499.085
21
-168.935
0
LINE
8
BLACK
6
CONTINUOUS
10
499.085
20
-168.935
11
67.335
21
-168.935
0
LINE
8
BLACK
6
CONTINUOUS
10
94.0951
20
-199.785
11
94.1903
21
-199.355
0
LINE
8
BLACK
6
CONTINUOUS
10
94.1903
20
-199.355
11
94.3225
21
-198.936
0
LINE
8
BLACK
6
CONTINUOUS
10
94.3225
20
-198.936
11
94.4908
21
-198.529
0
LINE
8
BLACK
6
CONTINUOUS
10
94.4908
20
-198.529
11
94.6939
21
-198.139
0
LINE
8
BLACK
6
CONTINUOUS
10
94.6939
20
-198.139
11
94.9302
21
-197.768
0
LINE
8
BLACK
6
CONTINUOUS
10
94.9302
20
-197.768
11
95.198
21
-197.419
0
LINE
8
BLACK
6
CONTINUOUS
10
95.198
20
-197.419
11
95.4951
21
-197.095
0
LINE
8
BLACK
6
CONTINUOUS
10
95.4951
20
-197.095
11
95.8194
21
-196.798
0
LINE
8
BLACK
6
CONTINUOUS
10
95.8194
20
-196.798
11
96.1683
21
-196.53
0
LINE
8
BLACK
6
CONTINUOUS
10
96.1683
20
-196.53
11
96.5392
21
-196.294
0
LINE
8
BLACK
6
CONTINUOUS
10
96.5392
20
-196.294
11
96.9294
21
-196.091
0
LINE
8
BLACK
6
CONTINUOUS
10
96.9294
20
-196.091
11
97.3357
21
-195.923
0
LINE
8
BLACK
6
CONTINUOUS
10
97.3357
20
-195.923
11
97.7552
21
-195.79
0
LINE
8
BLACK
6
CONTINUOUS
10
97.7552
20
-195.79
11
98.1846
21
-195.695
0
LINE
8
BLACK
6
CONTINUOUS
10
98.1846
20
-195.695
11
98.6206
21
-195.638
0
LINE
8
BLACK
6
CONTINUOUS
10
98.6206
20
-195.638
11
99.06
21
-195.618
0
LINE
8
BLACK
6
CONTINUOUS
10
99.06
20
-195.618
11
99.4994
21
-195.638
0
LINE
8
BLACK
6
CONTINUOUS
10
99.4994
20
-195.638
11
99.9354
21
-195.695
0
LINE
8
BLACK
6
CONTINUOUS
10
99.9354
20
-195.695
11
100.365
21
-195.79
0
LINE
8
BLACK
6
CONTINUOUS
10
100.365
20
-195.79
11
100.784
21
-195.923
0
LINE
8
BLACK
6
CONTINUOUS
10
100.784
20
-195.923
11
101.191
21
-196.091
0
LINE
8
BLACK
6
CONTINUOUS
10
101.191
20
-196.091
11
101.581
21
-196.294
0
LINE
8
BLACK
6
CONTINUOUS
10
101.581
20
-196.294
11
101.952
21
-196.53
0
LINE
8
BLACK
6
CONTINUOUS
10
101.952
20
-196.53
11
102.301
21
-196.798
0
LINE
8
BLACK
6
CONTINUOUS
10
102.301
20
-196.798
11
102.625
21
-197.095
0
LINE
8
BLACK
6
CONTINUOUS
10
102.625
20
-197.095
11
102.922
21
-197.419
0
LINE
8
BLACK
6
CONTINUOUS
10
102.922
20
-197.419
11
103.19
21
-197.768
0
LINE
8
BLACK
6
CONTINUOUS
10
103.19
20
-197.768
11
103.426
21
-198.139
0
LINE
8
BLACK
6
CONTINUOUS
10
103.426
20
-198.139
11
103.629
21
-198.529
0
LINE
8
BLACK
6
CONTINUOUS
10
103.629
20
-198.529
11
103.797
21
-198.936
0
LINE
8
BLACK
6
CONTINUOUS
10
103.797
20
-198.936
11
103.93
21
-199.355
0
LINE
8
BLACK
6
CONTINUOUS
10
103.93
20
-199.355
11
104.025
21
-199.785
0
LINE
8
BLACK
6
CONTINUOUS
10
104.025
20
-199.785
11
104.082
21
-200.221
0
LINE
8
BLACK
6
CONTINUOUS
10
104.082
20
-200.221
11
104.102
21
-200.66
0
LINE
8
BLACK
6
CONTINUOUS
10
104.102
20
-200.66
11
104.082
21
-201.099
0
LINE
8
BLACK
6
CONTINUOUS
10
104.082
20
-201.099
11
104.025
21
-201.535
0
LINE
8
BLACK
6
CONTINUOUS
10
104.025
20
-201.535
11
103.93
21
-201.965
0
LINE
8
BLACK
6
CONTINUOUS
10
103.93
20
-201.965
11
103.797
21
-202.384
0
LINE
8
BLACK
6
CONTINUOUS
10
103.797
20
-202.384
11
103.629
21
-202.791
0
LINE
8
BLACK
6
CONTINUOUS
10
103.629
20
-202.791
11
103.426
21
-203.181
0
LINE
8
BLACK
6
CONTINUOUS
10
103.426
20
-203.181
11
103.19
21
-203.552
0
LINE
8
BLACK
6
CONTINUOUS
10
103.19
20
-203.552
11
102.922
21
-203.901
0
LINE
8
BLACK
6
CONTINUOUS
10
102.922
20
-203.901
11
102.625
21
-204.225
0
LINE
8
BLACK
6
CONTINUOUS
10
102.625
20
-204.225
11
102.301
21
-204.522
0
LINE
8
BLACK
6
CONTINUOUS
10
102.301
20
-204.522
11
101.952
21
-204.79
0
LINE
8
BLACK
6
CONTINUOUS
10
101.952
20
-204.79
11
101.581
21
-205.026
0
LINE
8
BLACK
6
CONTINUOUS
10
101.581
20
-205.026
11
101.191
21
-205.229
0
LINE
8
BLACK
6
CONTINUOUS
10
101.191
20
-205.229
11
100.784
21
-205.397
0
LINE
8
BLACK
6
CONTINUOUS
10
100.784
20
-205.397
11
100.365
21
-205.53
0
LINE
8
BLACK
6
CONTINUOUS
10
100.365
20
-205.53
11
99.9354
21
-205.625
0
LINE
8
BLACK
6
CONTINUOUS
10
99.9354
20
-205.625
11
99.4994
21
-205.682
0
LINE
8
BLACK
6
CONTINUOUS
10
99.4994
20
-205.682
11
99.06
21
-205.701
0
LINE
8
BLACK
6
CONTINUOUS
10
99.06
20
-205.701
11
98.6206
21
-205.682
0
LINE
8
BLACK
6
CONTINUOUS
10
98.6206
20
-205.682
11
98.1846
21
-205.625
0
LINE
8
BLACK
6
CONTINUOUS
10
98.1846
20
-205.625
11
97.7552
21
-205.53
0
LINE
8
BLACK
6
CONTINUOUS
10
97.7552
20
-205.53
11
97.3357
21
-205.397
0
LINE
8
BLACK
6
CONTINUOUS
10
97.3357
20
-205.397
11
96.9294
21
-205.229
0
LINE
8
BLACK
6
CONTINUOUS
10
96.9294
20
-205.229
11
96.5392
21
-205.026
0
LINE
8
BLACK
6
CONTINUOUS
10
96.5392
20
-205.026
11
96.1683
21
-204.79
0
LINE
8
BLACK
6
CONTINUOUS
10
96.1683
20
-204.79
11
95.8194
21
-204.522
0
LINE
8
BLACK
6
CONTINUOUS
10
95.8194
20
-204.522
11
95.4951
21
-204.225
0
LINE
8
BLACK
6
CONTINUOUS
10
95.4951
20
-204.225
11
95.198
21
-203.901
0
LINE
8
BLACK
6
CONTINUOUS
10
95.198
20
-203.901
11
94.9302
21
-203.552
0
LINE
8
BLACK
6
CONTINUOUS
10
94.9302
20
-203.552
11
94.6939
21
-203.181
0
LINE
8
BLACK
6
CONTINUOUS
10
94.6939
20
-203.181
11
94.4908
21
-202.791
0
LINE
8
BLACK
6
CONTINUOUS
10
94.4908
20
-202.791
11
94.3225
21
-202.384
0
LINE
8
BLACK
6
CONTINUOUS
10
94.3225
20
-202.384
11
94.1903
21
-201.965
0
LINE
8
BLACK
6
CONTINUOUS
10
94.1903
20
-201.965
11
94.0951
21
-201.535
0
LINE
8
BLACK
6
CONTINUOUS
10
94.0951
20
-201.535
11
94.0377
21
-201.099
0
LINE
8
BLACK
6
CONTINUOUS
10
94.0377
20
-201.099
11
94.0185
21
-200.66
0
LINE
8
BLACK
6
CONTINUOUS
10
94.0185
20
-200.66
11
94.0242
21
-200.529
0
LINE
8
BLACK
6
CONTINUOUS
10
94.0242
20
-200.529
11
94.0377
21
-200.221
0
LINE
8
BLACK
6
CONTINUOUS
10
94.0377
20
-200.221
11
94.0951
21
-199.785
0
LINE
8
BLACK
6
CONTINUOUS
10
94.121
20
-201.416
11
94.2077
21
-201.852
0
LINE
8
BLACK
6
CONTINUOUS
10
94.2077
20
-201.852
11
94.3329
21
-202.278
0
LINE
8
BLACK
6
CONTINUOUS
10
94.3329
20
-202.278
11
94.4954
21
-202.692
0
LINE
8
BLACK
6
CONTINUOUS
10
94.4954
20
-202.692
11
94.6942
21
-203.09
0
LINE
8
BLACK
6
CONTINUOUS
10
94.6942
20
-203.09
11
94.9275
21
-203.468
0
LINE
8
BLACK
6
CONTINUOUS
10
94.9275
20
-203.468
11
95.1935
21
-203.825
0
LINE
8
BLACK
6
CONTINUOUS
10
95.1935
20
-203.825
11
95.4901
21
-204.156
0
LINE
8
BLACK
6
CONTINUOUS
10
95.4901
20
-204.156
11
95.815
21
-204.459
0
LINE
8
BLACK
6
CONTINUOUS
10
95.815
20
-204.459
11
96.1656
21
-204.733
0
LINE
8
BLACK
6
CONTINUOUS
10
96.1656
20
-204.733
11
96.5391
21
-204.974
0
LINE
8
BLACK
6
CONTINUOUS
10
96.5391
20
-204.974
11
96.9326
21
-205.181
0
LINE
8
BLACK
6
CONTINUOUS
10
96.9326
20
-205.181
11
97.3429
21
-205.352
0
LINE
8
BLACK
6
CONTINUOUS
10
97.3429
20
-205.352
11
97.7668
21
-205.486
0
LINE
8
BLACK
6
CONTINUOUS
10
97.7668
20
-205.486
11
98.201
21
-205.582
0
LINE
8
BLACK
6
CONTINUOUS
10
98.201
20
-205.582
11
98.6419
21
-205.639
0
LINE
8
BLACK
6
CONTINUOUS
10
98.6419
20
-205.639
11
99.0862
21
-205.656
0
LINE
8
BLACK
6
CONTINUOUS
10
99.0862
20
-205.656
11
99.5302
21
-205.634
0
LINE
8
BLACK
6
CONTINUOUS
10
99.5302
20
-205.634
11
99.9705
21
-205.573
0
LINE
8
BLACK
6
CONTINUOUS
10
99.9705
20
-205.573
11
100.404
21
-205.472
0
LINE
8
BLACK
6
CONTINUOUS
10
100.404
20
-205.472
11
100.826
21
-205.334
0
LINE
8
BLACK
6
CONTINUOUS
10
100.826
20
-205.334
11
101.235
21
-205.158
0
LINE
8
BLACK
6
CONTINUOUS
10
101.235
20
-205.158
11
101.626
21
-204.947
0
LINE
8
BLACK
6
CONTINUOUS
10
101.626
20
-204.947
11
101.997
21
-204.702
0
LINE
8
BLACK
6
CONTINUOUS
10
101.997
20
-204.702
11
102.345
21
-204.425
0
LINE
8
BLACK
6
CONTINUOUS
10
102.345
20
-204.425
11
102.666
21
-204.118
0
LINE
8
BLACK
6
CONTINUOUS
10
102.666
20
-204.118
11
102.959
21
-203.784
0
LINE
8
BLACK
6
CONTINUOUS
10
102.959
20
-203.784
11
103.222
21
-203.425
0
LINE
8
BLACK
6
CONTINUOUS
10
103.222
20
-203.425
11
103.451
21
-203.044
0
LINE
8
BLACK
6
CONTINUOUS
10
103.451
20
-203.044
11
103.646
21
-202.644
0
LINE
8
BLACK
6
CONTINUOUS
10
103.646
20
-202.644
11
103.804
21
-202.229
0
LINE
8
BLACK
6
CONTINUOUS
10
103.804
20
-202.229
11
103.925
21
-201.801
0
LINE
8
BLACK
6
CONTINUOUS
10
103.925
20
-201.801
11
104.007
21
-201.364
0
LINE
8
BLACK
6
CONTINUOUS
10
104.007
20
-201.364
11
104.05
21
-200.921
0
LINE
8
BLACK
6
CONTINUOUS
10
104.05
20
-200.921
11
104.057
21
-200.66
0
LINE
8
BLACK
6
CONTINUOUS
10
104.057
20
-200.66
11
104.037
21
-200.216
0
LINE
8
BLACK
6
CONTINUOUS
10
104.037
20
-200.216
11
103.978
21
-199.775
0
LINE
8
BLACK
6
CONTINUOUS
10
103.978
20
-199.775
11
103.879
21
-199.342
0
LINE
8
BLACK
6
CONTINUOUS
10
103.879
20
-199.342
11
103.743
21
-198.918
0
LINE
8
BLACK
6
CONTINUOUS
10
103.743
20
-198.918
11
103.57
21
-198.509
0
LINE
8
BLACK
6
CONTINUOUS
10
103.57
20
-198.509
11
103.361
21
-198.117
0
LINE
8
BLACK
6
CONTINUOUS
10
103.361
20
-198.117
11
103.118
21
-197.744
0
LINE
8
BLACK
6
CONTINUOUS
10
103.118
20
-197.744
11
102.842
21
-197.395
0
LINE
8
BLACK
6
CONTINUOUS
10
102.842
20
-197.395
11
102.537
21
-197.072
0
LINE
8
BLACK
6
CONTINUOUS
10
102.537
20
-197.072
11
102.204
21
-196.777
0
LINE
8
BLACK
6
CONTINUOUS
10
102.204
20
-196.777
11
101.847
21
-196.513
0
LINE
8
BLACK
6
CONTINUOUS
10
101.847
20
-196.513
11
101.467
21
-196.282
0
LINE
8
BLACK
6
CONTINUOUS
10
101.467
20
-196.282
11
101.068
21
-196.085
0
LINE
8
BLACK
6
CONTINUOUS
10
101.068
20
-196.085
11
100.654
21
-195.924
0
LINE
8
BLACK
6
CONTINUOUS
10
100.654
20
-195.924
11
100.226
21
-195.802
0
LINE
8
BLACK
6
CONTINUOUS
10
100.226
20
-195.802
11
99.7899
21
-195.717
0
LINE
8
BLACK
6
CONTINUOUS
10
99.7899
20
-195.717
11
99.3476
21
-195.672
0
LINE
8
BLACK
6
CONTINUOUS
10
99.3476
20
-195.672
11
98.9031
21
-195.666
0
LINE
8
BLACK
6
CONTINUOUS
10
98.9031
20
-195.666
11
98.4597
21
-195.7
0
LINE
8
BLACK
6
CONTINUOUS
10
98.4597
20
-195.7
11
98.0212
21
-195.773
0
LINE
8
BLACK
6
CONTINUOUS
10
98.0212
20
-195.773
11
97.5908
21
-195.884
0
LINE
8
BLACK
6
CONTINUOUS
10
97.5908
20
-195.884
11
97.1721
21
-196.034
0
LINE
8
BLACK
6
CONTINUOUS
10
97.1721
20
-196.034
11
96.7683
21
-196.22
0
LINE
8
BLACK
6
CONTINUOUS
10
96.7683
20
-196.22
11
96.3827
21
-196.441
0
LINE
8
BLACK
6
CONTINUOUS
10
96.3827
20
-196.441
11
96.0183
21
-196.696
0
LINE
8
BLACK
6
CONTINUOUS
10
96.0183
20
-196.696
11
95.678
21
-196.982
0
LINE
8
BLACK
6
CONTINUOUS
10
95.678
20
-196.982
11
95.3644
21
-197.297
0
LINE
8
BLACK
6
CONTINUOUS
10
95.3644
20
-197.297
11
95.0801
21
-197.639
0
LINE
8
BLACK
6
CONTINUOUS
10
95.0801
20
-197.639
11
94.8273
21
-198.005
0
LINE
8
BLACK
6
CONTINUOUS
10
94.8273
20
-198.005
11
94.6081
21
-198.392
0
LINE
8
BLACK
6
CONTINUOUS
10
94.6081
20
-198.392
11
94.424
21
-198.796
0
LINE
8
BLACK
6
CONTINUOUS
10
94.424
20
-198.796
11
94.2767
21
-199.216
0
LINE
8
BLACK
6
CONTINUOUS
10
94.2767
20
-199.216
11
94.1673
21
-199.647
0
LINE
8
BLACK
6
CONTINUOUS
10
94.1673
20
-199.647
11
94.0966
21
-200.086
0
LINE
8
BLACK
6
CONTINUOUS
10
94.0966
20
-200.086
11
94.0652
21
-200.529
0
LINE
8
BLACK
6
CONTINUOUS
10
94.0652
20
-200.529
11
94.0733
21
-200.974
0
LINE
8
BLACK
6
CONTINUOUS
10
94.0733
20
-200.974
11
94.121
21
-201.416
0
LINE
8
BLACK
6
CONTINUOUS
10
227.445
20
-199.785
11
227.54
21
-199.355
0
LINE
8
BLACK
6
CONTINUOUS
10
227.54
20
-199.355
11
227.673
21
-198.936
0
LINE
8
BLACK
6
CONTINUOUS
10
227.673
20
-198.936
11
227.841
21
-198.529
0
LINE
8
BLACK
6
CONTINUOUS
10
227.841
20
-198.529
11
228.044
21
-198.139
0
LINE
8
BLACK
6
CONTINUOUS
10
228.044
20
-198.139
11
228.28
21
-197.768
0
LINE
8
BLACK
6
CONTINUOUS
10
228.28
20
-197.768
11
228.548
21
-197.419
0
LINE
8
BLACK
6
CONTINUOUS
10
228.548
20
-197.419
11
228.845
21
-197.095
0
LINE
8
BLACK
6
CONTINUOUS
10
228.845
20
-197.095
11
229.169
21
-196.798
0
LINE
8
BLACK
6
CONTINUOUS
10
229.169
20
-196.798
11
229.518
21
-196.53
0
LINE
8
BLACK
6
CONTINUOUS
10
229.518
20
-196.53
11
229.889
21
-196.294
0
LINE
8
BLACK
6
CONTINUOUS
10
229.889
20
-196.294
11
230.279
21
-196.091
0
LINE
8
BLACK
6
CONTINUOUS
10
230.279
20
-196.091
11
230.686
21
-195.923
0
LINE
8
BLACK
6
CONTINUOUS
10
230.686
20
-195.923
11
231.105
21
-195.79
0
LINE
8
BLACK
6
CONTINUOUS
10
231.105
20
-195.79
11
231.535
21
-195.695
0
LINE
8
BLACK
6
CONTINUOUS
10
231.535
20
-195.695
11
231.971
21
-195.638
0
LINE
8
BLACK
6
CONTINUOUS
10
231.971
20
-195.638
11
232.41
21
-195.618
0
LINE
8
BLACK
6
CONTINUOUS
10
232.41
20
-195.618
11
232.849
21
-195.638
0
LINE
8
BLACK
6
CONTINUOUS
10
232.849
20
-195.638
11
233.285
21
-195.695
0
LINE
8
BLACK
6
CONTINUOUS
10
233.285
20
-195.695
11
233.715
21
-195.79
0
LINE
8
BLACK
6
CONTINUOUS
10
233.715
20
-195.79
11
234.134
21
-195.923
0
LINE
8
BLACK
6
CONTINUOUS
10
234.134
20
-195.923
11
234.541
21
-196.091
0
LINE
8
BLACK
6
CONTINUOUS
10
234.541
20
-196.091
11
234.931
21
-196.294
0
LINE
8
BLACK
6
CONTINUOUS
10
234.931
20
-196.294
11
235.302
21
-196.53
0
LINE
8
BLACK
6
CONTINUOUS
10
235.302
20
-196.53
11
235.651
21
-196.798
0
LINE
8
BLACK
6
CONTINUOUS
10
235.651
20
-196.798
11
235.975
21
-197.095
0
LINE
8
BLACK
6
CONTINUOUS
10
235.975
20
-197.095
11
236.272
21
-197.419
0
LINE
8
BLACK
6
CONTINUOUS
10
236.272
20
-197.419
11
236.54
21
-197.768
0
LINE
8
BLACK
6
CONTINUOUS
10
236.54
20
-197.768
11
236.776
21
-198.139
0
LINE
8
BLACK
6
CONTINUOUS
10
236.776
20
-198.139
11
236.979
21
-198.529
0
LINE
8
BLACK
6
CONTINUOUS
10
236.979
20
-198.529
11
237.147
21
-198.936
0
LINE
8
BLACK
6
CONTINUOUS
10
237.147
20
-198.936
11
237.28
21
-199.355
0
LINE
8
BLACK
6
CONTINUOUS
10
237.28
20
-199.355
11
237.375
21
-199.785
0
LINE
8
BLACK
6
CONTINUOUS
10
237.375
20
-199.785
11
237.432
21
-200.221
0
LINE
8
BLACK
6
CONTINUOUS
10
237.432
20
-200.221
11
237.451
21
-200.66
0
LINE
8
BLACK
6
CONTINUOUS
10
237.451
20
-200.66
11
237.432
21
-201.099
0
LINE
8
BLACK
6
CONTINUOUS
10
237.432
20
-201.099
11
237.375
21
-201.535
0
LINE
8
BLACK
6
CONTINUOUS
10
237.375
20
-201.535
11
237.28
21
-201.965
0
LINE
8
BLACK
6
CONTINUOUS
10
237.28
20
-201.965
11
237.147
21
-202.384
0
LINE
8
BLACK
6
CONTINUOUS
10
237.147
20
-202.384
11
236.979
21
-202.791
0
LINE
8
BLACK
6
CONTINUOUS
10
236.979
20
-202.791
11
236.776
21
-203.181
0
LINE
8
BLACK
6
CONTINUOUS
10
236.776
20
-203.181
11
236.54
21
-203.552
0
LINE
8
BLACK
6
CONTINUOUS
10
236.54
20
-203.552
11
236.272
21
-203.901
0
LINE
8
BLACK
6
CONTINUOUS
10
236.272
20
-203.901
11
235.975
21
-204.225
0
LINE
8
BLACK
6
CONTINUOUS
10
235.975
20
-204.225
11
235.651
21
-204.522
0
LINE
8
BLACK
6
CONTINUOUS
10
235.651
20
-204.522
11
235.302
21
-204.79
0
LINE
8
BLACK
6
CONTINUOUS
10
235.302
20
-204.79
11
234.931
21
-205.026
0
LINE
8
BLACK
6
CONTINUOUS
10
234.931
20
-205.026
11
234.541
21
-205.229
0
LINE
8
BLACK
6
CONTINUOUS
10
234.541
20
-205.229
11
234.134
21
-205.397
0
LINE
8
BLACK
6
CONTINUOUS
10
234.134
20
-205.397
11
233.715
21
-205.53
0
LINE
8
BLACK
6
CONTINUOUS
10
233.715
20
-205.53
11
233.285
21
-205.625
0
LINE
8
BLACK
6
CONTINUOUS
10
233.285
20
-205.625
11
232.849
21
-205.682
0
LINE
8
BLACK
6
CONTINUOUS
10
232.849
20
-205.682
11
232.41
21
-205.701
0
LINE
8
BLACK
6
CONTINUOUS
10
232.41
20
-205.701
11
231.971
21
-205.682
0
LINE
8
BLACK
6
CONTINUOUS
10
231.971
20
-205.682
11
231.535
21
-205.625
0
LINE
8
BLACK
6
CONTINUOUS
10
231.535
20
-205.625
11
231.105
21
-205.53
0
LINE
8
BLACK
6
CONTINUOUS
10
231.105
20
-205.53
11
230.686
21
-205.397
0
LINE
8
BLACK
6
CONTINUOUS
10
230.686
20
-205.397
11
230.279
21
-205.229
0
LINE
8
BLACK
6
CONTINUOUS
10
230.279
20
-205.229
11
229.889
21
-205.026
0
LINE
8
BLACK
6
CONTINUOUS
10
229.889
20
-205.026
11
229.518
21
-204.79
0
LINE
8
BLACK
6
CONTINUOUS
10
229.518
20
-204.79
11
229.169
21
-204.522
0
LINE
8
BLACK
6
CONTINUOUS
10
229.169
20
-204.522
11
228.845
21
-204.225
0
LINE
8
BLACK
6
CONTINUOUS
10
228.845
20
-204.225
11
228.548
21
-203.901
0
LINE
8
BLACK
6
CONTINUOUS
10
228.548
20
-203.901
11
228.28
21
-203.552
0
LINE
8
BLACK
6
CONTINUOUS
10
228.28
20
-203.552
11
228.044
21
-203.181
0
LINE
8
BLACK
6
CONTINUOUS
10
228.044
20
-203.181
11
227.841
21
-202.791
0
LINE
8
BLACK
6
CONTINUOUS
10
227.841
20
-202.791
11
227.673
21
-202.384
0
LINE
8
BLACK
6
CONTINUOUS
10
227.673
20
-202.384
11
227.54
21
-201.965
0
LINE
8
BLACK
6
CONTINUOUS
10
227.54
20
-201.965
11
227.445
21
-201.535
0
LINE
8
BLACK
6
CONTINUOUS
10
227.445
20
-201.535
11
227.388
21
-201.099
0
LINE
8
BLACK
6
CONTINUOUS
10
227.388
20
-201.099
11
227.368
21
-200.66
0
LINE
8
BLACK
6
CONTINUOUS
10
227.368
20
-200.66
11
227.374
21
-200.529
0
LINE
8
BLACK
6
CONTINUOUS
10
227.374
20
-200.529
11
227.388
21
-200.221
0
LINE
8
BLACK
6
CONTINUOUS
10
227.388
20
-200.221
11
227.445
21
-199.785
0
LINE
8
BLACK
6
CONTINUOUS
10
227.471
20
-201.416
11
227.558
21
-201.852
0
LINE
8
BLACK
6
CONTINUOUS
10
227.558
20
-201.852
11
227.683
21
-202.278
0
LINE
8
BLACK
6
CONTINUOUS
10
227.683
20
-202.278
11
227.845
21
-202.692
0
LINE
8
BLACK
6
CONTINUOUS
10
227.845
20
-202.692
11
228.044
21
-203.09
0
LINE
8
BLACK
6
CONTINUOUS
10
228.044
20
-203.09
11
228.277
21
-203.468
0
LINE
8
BLACK
6
CONTINUOUS
10
228.277
20
-203.468
11
228.543
21
-203.825
0
LINE
8
BLACK
6
CONTINUOUS
10
228.543
20
-203.825
11
228.84
21
-204.156
0
LINE
8
BLACK
6
CONTINUOUS
10
228.84
20
-204.156
11
229.165
21
-204.459
0
LINE
8
BLACK
6
CONTINUOUS
10
229.165
20
-204.459
11
229.516
21
-204.733
0
LINE
8
BLACK
6
CONTINUOUS
10
229.516
20
-204.733
11
229.889
21
-204.974
0
LINE
8
BLACK
6
CONTINUOUS
10
229.889
20
-204.974
11
230.283
21
-205.181
0
LINE
8
BLACK
6
CONTINUOUS
10
230.283
20
-205.181
11
230.693
21
-205.352
0
LINE
8
BLACK
6
CONTINUOUS
10
230.693
20
-205.352
11
231.117
21
-205.486
0
LINE
8
BLACK
6
CONTINUOUS
10
231.117
20
-205.486
11
231.551
21
-205.582
0
LINE
8
BLACK
6
CONTINUOUS
10
231.551
20
-205.582
11
231.992
21
-205.639
0
LINE
8
BLACK
6
CONTINUOUS
10
231.992
20
-205.639
11
232.436
21
-205.656
0
LINE
8
BLACK
6
CONTINUOUS
10
232.436
20
-205.656
11
232.88
21
-205.634
0
LINE
8
BLACK
6
CONTINUOUS
10
232.88
20
-205.634
11
233.321
21
-205.573
0
LINE
8
BLACK
6
CONTINUOUS
10
233.321
20
-205.573
11
233.754
21
-205.472
0
LINE
8
BLACK
6
CONTINUOUS
10
233.754
20
-205.472
11
234.176
21
-205.334
0
LINE
8
BLACK
6
CONTINUOUS
10
234.176
20
-205.334
11
234.585
21
-205.158
0
LINE
8
BLACK
6
CONTINUOUS
10
234.585
20
-205.158
11
234.976
21
-204.947
0
LINE
8
BLACK
6
CONTINUOUS
10
234.976
20
-204.947
11
235.347
21
-204.702
0
LINE
8
BLACK
6
CONTINUOUS
10
235.347
20
-204.702
11
235.695
21
-204.425
0
LINE
8
BLACK
6
CONTINUOUS
10
235.695
20
-204.425
11
236.016
21
-204.118
0
LINE
8
BLACK
6
CONTINUOUS
10
236.016
20
-204.118
11
236.309
21
-203.784
0
LINE
8
BLACK
6
CONTINUOUS
10
236.309
20
-203.784
11
236.572
21
-203.425
0
LINE
8
BLACK
6
CONTINUOUS
10
236.572
20
-203.425
11
236.801
21
-203.044
0
LINE
8
BLACK
6
CONTINUOUS
10
236.801
20
-203.044
11
236.996
21
-202.644
0
LINE
8
BLACK
6
CONTINUOUS
10
236.996
20
-202.644
11
237.154
21
-202.229
0
LINE
8
BLACK
6
CONTINUOUS
10
237.154
20
-202.229
11
237.275
21
-201.801
0
LINE
8
BLACK
6
CONTINUOUS
10
237.275
20
-201.801
11
237.357
21
-201.364
0
LINE
8
BLACK
6
CONTINUOUS
10
237.357
20
-201.364
11
237.4
21
-200.921
0
LINE
8
BLACK
6
CONTINUOUS
10
237.4
20
-200.921
11
237.407
21
-200.66
0
LINE
8
BLACK
6
CONTINUOUS
10
237.407
20
-200.66
11
237.387
21
-200.216
0
LINE
8
BLACK
6
CONTINUOUS
10
237.387
20
-200.216
11
237.328
21
-199.775
0
LINE
8
BLACK
6
CONTINUOUS
10
237.328
20
-199.775
11
237.229
21
-199.342
0
LINE
8
BLACK
6
CONTINUOUS
10
237.229
20
-199.342
11
237.093
21
-198.918
0
LINE
8
BLACK
6
CONTINUOUS
10
237.093
20
-198.918
11
236.92
21
-198.509
0
LINE
8
BLACK
6
CONTINUOUS
10
236.92
20
-198.509
11
236.711
21
-198.117
0
LINE
8
BLACK
6
CONTINUOUS
10
236.711
20
-198.117
11
236.468
21
-197.744
0
LINE
8
BLACK
6
CONTINUOUS
10
236.468
20
-197.744
11
236.192
21
-197.395
0
LINE
8
BLACK
6
CONTINUOUS
10
236.192
20
-197.395
11
235.887
21
-197.072
0
LINE
8
BLACK
6
CONTINUOUS
10
235.887
20
-197.072
11
235.554
21
-196.777
0
LINE
8
BLACK
6
CONTINUOUS
10
235.554
20
-196.777
11
235.197
21
-196.513
0
LINE
8
BLACK
6
CONTINUOUS
10
235.197
20
-196.513
11
234.817
21
-196.282
0
LINE
8
BLACK
6
CONTINUOUS
10
234.817
20
-196.282
11
234.418
21
-196.085
0
LINE
8
BLACK
6
CONTINUOUS
10
234.418
20
-196.085
11
234.004
21
-195.924
0
LINE
8
BLACK
6
CONTINUOUS
10
234.004
20
-195.924
11
233.576
21
-195.802
0
LINE
8
BLACK
6
CONTINUOUS
10
233.576
20
-195.802
11
233.14
21
-195.717
0
LINE
8
BLACK
6
CONTINUOUS
10
233.14
20
-195.717
11
232.698
21
-195.672
0
LINE
8
BLACK
6
CONTINUOUS
10
232.698
20
-195.672
11
232.253
21
-195.666
0
LINE
8
BLACK
6
CONTINUOUS
10
232.253
20
-195.666
11
231.81
21
-195.7
0
LINE
8
BLACK
6
CONTINUOUS
10
231.81
20
-195.7
11
231.371
21
-195.773
0
LINE
8
BLACK
6
CONTINUOUS
10
231.371
20
-195.773
11
230.941
21
-195.884
0
LINE
8
BLACK
6
CONTINUOUS
10
230.941
20
-195.884
11
230.522
21
-196.034
0
LINE
8
BLACK
6
CONTINUOUS
10
230.522
20
-196.034
11
230.118
21
-196.22
0
LINE
8
BLACK
6
CONTINUOUS
10
230.118
20
-196.22
11
229.733
21
-196.441
0
LINE
8
BLACK
6
CONTINUOUS
10
229.733
20
-196.441
11
229.368
21
-196.696
0
LINE
8
BLACK
6
CONTINUOUS
10
229.368
20
-196.696
11
229.028
21
-196.982
0
LINE
8
BLACK
6
CONTINUOUS
10
229.028
20
-196.982
11
228.714
21
-197.297
0
LINE
8
BLACK
6
CONTINUOUS
10
228.714
20
-197.297
11
228.43
21
-197.639
0
LINE
8
BLACK
6
CONTINUOUS
10
228.43
20
-197.639
11
228.177
21
-198.005
0
LINE
8
BLACK
6
CONTINUOUS
10
228.177
20
-198.005
11
227.958
21
-198.392
0
LINE
8
BLACK
6
CONTINUOUS
10
227.958
20
-198.392
11
227.774
21
-198.796
0
LINE
8
BLACK
6
CONTINUOUS
10
227.774
20
-198.796
11
227.627
21
-199.216
0
LINE
8
BLACK
6
CONTINUOUS
10
227.627
20
-199.216
11
227.517
21
-199.647
0
LINE
8
BLACK
6
CONTINUOUS
10
227.517
20
-199.647
11
227.447
21
-200.086
0
LINE
8
BLACK
6
CONTINUOUS
10
227.447
20
-200.086
11
227.415
21
-200.529
0
LINE
8
BLACK
6
CONTINUOUS
10
227.415
20
-200.529
11
227.423
21
-200.974
0
LINE
8
BLACK
6
CONTINUOUS
10
227.423
20
-200.974
11
227.471
21
-201.416
0
LINE
8
BLACK
6
CONTINUOUS
10
163.945
20
-199.785
11
164.04
21
-199.355
0
LINE
8
BLACK
6
CONTINUOUS
10
164.04
20
-199.355
11
164.173
21
-198.936
0
LINE
8
BLACK
6
CONTINUOUS
10
164.173
20
-198.936
11
164.341
21
-198.529
0
LINE
8
BLACK
6
CONTINUOUS
10
164.341
20
-198.529
11
164.544
21
-198.139
0
LINE
8
BLACK
6
CONTINUOUS
10
164.544
20
-198.139
11
164.78
21
-197.768
0
LINE
8
BLACK
6
CONTINUOUS
10
164.78
20
-197.768
11
165.048
21
-197.419
0
LINE
8
BLACK
6
CONTINUOUS
10
165.048
20
-197.419
11
165.345
21
-197.095
0
LINE
8
BLACK
6
CONTINUOUS
10
165.345
20
-197.095
11
165.669
21
-196.798
0
LINE
8
BLACK
6
CONTINUOUS
10
165.669
20
-196.798
11
166.018
21
-196.53
0
LINE
8
BLACK
6
CONTINUOUS
10
166.018
20
-196.53
11
166.389
21
-196.294
0
LINE
8
BLACK
6
CONTINUOUS
10
166.389
20
-196.294
11
166.779
21
-196.091
0
LINE
8
BLACK
6
CONTINUOUS
10
166.779
20
-196.091
11
167.186
21
-195.923
0
LINE
8
BLACK
6
CONTINUOUS
10
167.186
20
-195.923
11
167.605
21
-195.79
0
LINE
8
BLACK
6
CONTINUOUS
10
167.605
20
-195.79
11
168.035
21
-195.695
0
LINE
8
BLACK
6
CONTINUOUS
10
168.035
20
-195.695
11
168.471
21
-195.638
0
LINE
8
BLACK
6
CONTINUOUS
10
168.471
20
-195.638
11
168.91
21
-195.618
0
LINE
8
BLACK
6
CONTINUOUS
10
168.91
20
-195.618
11
169.349
21
-195.638
0
LINE
8
BLACK
6
CONTINUOUS
10
169.349
20
-195.638
11
169.785
21
-195.695
0
LINE
8
BLACK
6
CONTINUOUS
10
169.785
20
-195.695
11
170.215
21
-195.79
0
LINE
8
BLACK
6
CONTINUOUS
10
170.215
20
-195.79
11
170.634
21
-195.923
0
LINE
8
BLACK
6
CONTINUOUS
10
170.634
20
-195.923
11
171.041
21
-196.091
0
LINE
8
BLACK
6
CONTINUOUS
10
171.041
20
-196.091
11
171.431
21
-196.294
0
LINE
8
BLACK
6
CONTINUOUS
10
171.431
20
-196.294
11
171.802
21
-196.53
0
LINE
8
BLACK
6
CONTINUOUS
10
171.802
20
-196.53
11
172.151
21
-196.798
0
LINE
8
BLACK
6
CONTINUOUS
10
172.151
20
-196.798
11
172.475
21
-197.095
0
LINE
8
BLACK
6
CONTINUOUS
10
172.475
20
-197.095
11
172.772
21
-197.419
0
LINE
8
BLACK
6
CONTINUOUS
10
172.772
20
-197.419
11
173.04
21
-197.768
0
LINE
8
BLACK
6
CONTINUOUS
10
173.04
20
-197.768
11
173.276
21
-198.139
0
LINE
8
BLACK
6
CONTINUOUS
10
173.276
20
-198.139
11
173.479
21
-198.529
0
LINE
8
BLACK
6
CONTINUOUS
10
173.479
20
-198.529
11
173.647
21
-198.936
0
LINE
8
BLACK
6
CONTINUOUS
10
173.647
20
-198.936
11
173.78
21
-199.355
0
LINE
8
BLACK
6
CONTINUOUS
10
173.78
20
-199.355
11
173.875
21
-199.785
0
LINE
8
BLACK
6
CONTINUOUS
10
173.875
20
-199.785
11
173.932
21
-200.221
0
LINE
8
BLACK
6
CONTINUOUS
10
173.932
20
-200.221
11
173.951
21
-200.66
0
LINE
8
BLACK
6
CONTINUOUS
10
173.951
20
-200.66
11
173.932
21
-201.099
0
LINE
8
BLACK
6
CONTINUOUS
10
173.932
20
-201.099
11
173.875
21
-201.535
0
LINE
8
BLACK
6
CONTINUOUS
10
173.875
20
-201.535
11
173.78
21
-201.965
0
LINE
8
BLACK
6
CONTINUOUS
10
173.78
20
-201.965
11
173.647
21
-202.384
0
LINE
8
BLACK
6
CONTINUOUS
10
173.647
20
-202.384
11
173.479
21
-202.791
0
LINE
8
BLACK
6
CONTINUOUS
10
173.479
20
-202.791
11
173.276
21
-203.181
0
LINE
8
BLACK
6
CONTINUOUS
10
173.276
20
-203.181
11
173.04
21
-203.552
0
LINE
8
BLACK
6
CONTINUOUS
10
173.04
20
-203.552
11
172.772
21
-203.901
0
LINE
8
BLACK
6
CONTINUOUS
10
172.772
20
-203.901
11
172.475
21
-204.225
0
LINE
8
BLACK
6
CONTINUOUS
10
172.475
20
-204.225
11
172.151
21
-204.522
0
LINE
8
BLACK
6
CONTINUOUS
10
172.151
20
-204.522
11
171.802
21
-204.79
0
LINE
8
BLACK
6
CONTINUOUS
10
171.802
20
-204.79
11
171.431
21
-205.026
0
LINE
8
BLACK
6
CONTINUOUS
10
171.431
20
-205.026
11
171.041
21
-205.229
0
LINE
8
BLACK
6
CONTINUOUS
10
171.041
20
-205.229
11
170.634
21
-205.397
0
LINE
8
BLACK
6
CONTINUOUS
10
170.634
20
-205.397
11
170.215
21
-205.53
0
LINE
8
BLACK
6
CONTINUOUS
10
170.215
20
-205.53
11
169.785
21
-205.625
0
LINE
8
BLACK
6
CONTINUOUS
10
169.785
20
-205.625
11
169.349
21
-205.682
0
LINE
8
BLACK
6
CONTINUOUS
10
169.349
20
-205.682
11
168.91
21
-205.701
0
LINE
8
BLACK
6
CONTINUOUS
10
168.91
20
-205.701
11
168.471
21
-205.682
0
LINE
8
BLACK
6
CONTINUOUS
10
168.471
20
-205.682
11
168.035
21
-205.625
0
LINE
8
BLACK
6
CONTINUOUS
10
168.035
20
-205.625
11
167.605
21
-205.53
0
LINE
8
BLACK
6
CONTINUOUS
10
167.605
20
-205.53
11
167.186
21
-205.397
0
LINE
8
BLACK
6
CONTINUOUS
10
167.186
20
-205.397
11
166.779
21
-205.229
0
LINE
8
BLACK
6
CONTINUOUS
10
166.779
20
-205.229
11
166.389
21
-205.026
0
LINE
8
BLACK
6
CONTINUOUS
10
166.389
20
-205.026
11
166.018
21
-204.79
0
LINE
8
BLACK
6
CONTINUOUS
10
166.018
20
-204.79
11
165.669
21
-204.522
0
LINE
8
BLACK
6
CONTINUOUS
10
165.669
20
-204.522
11
165.345
21
-204.225
0
LINE
8
BLACK
6
CONTINUOUS
10
165.345
20
-204.225
11
165.048
21
-203.901
0
LINE
8
BLACK
6
CONTINUOUS
10
165.048
20
-203.901
11
164.78
21
-203.552
0
LINE
8
BLACK
6
CONTINUOUS
10
164.78
20
-203.552
11
164.544
21
-203.181
0
LINE
8
BLACK
6
CONTINUOUS
10
164.544
20
-203.181
11
164.341
21
-202.791
0
LINE
8
BLACK
6
CONTINUOUS
10
164.341
20
-202.791
11
164.173
21
-202.384
0
LINE
8
BLACK
6
CONTINUOUS
10
164.173
20
-202.384
11
164.04
21
-201.965
0
LINE
8
BLACK
6
CONTINUOUS
10
164.04
20
-201.965
11
163.945
21
-201.535
0
LINE
8
BLACK
6
CONTINUOUS
10
163.945
20
-201.535
11
163.888
21
-201.099
0
LINE
8
BLACK
6
CONTINUOUS
10
163.888
20
-201.099
11
163.868
21
-200.66
0
LINE
8
BLACK
6
CONTINUOUS
10
163.868
20
-200.66
11
163.874
21
-200.529
0
LINE
8
BLACK
6
CONTINUOUS
10
163.874
20
-200.529
11
163.888
21
-200.221
0
LINE
8
BLACK
6
CONTINUOUS
10
163.888
20
-200.221
11
163.945
21
-199.785
0
LINE
8
BLACK
6
CONTINUOUS
10
163.971
20
-201.416
11
164.058
21
-201.852
0
LINE
8
BLACK
6
CONTINUOUS
10
164.058
20
-201.852
11
164.183
21
-202.278
0
LINE
8
BLACK
6
CONTINUOUS
10
164.183
20
-202.278
11
164.345
21
-202.692
0
LINE
8
BLACK
6
CONTINUOUS
10
164.345
20
-202.692
11
164.544
21
-203.09
0
LINE
8
BLACK
6
CONTINUOUS
10
164.544
20
-203.09
11
164.777
21
-203.468
0
LINE
8
BLACK
6
CONTINUOUS
10
164.777
20
-203.468
11
165.043
21
-203.825
0
LINE
8
BLACK
6
CONTINUOUS
10
165.043
20
-203.825
11
165.34
21
-204.156
0
LINE
8
BLACK
6
CONTINUOUS
10
165.34
20
-204.156
11
165.665
21
-204.459
0
LINE
8
BLACK
6
CONTINUOUS
10
165.665
20
-204.459
11
166.016
21
-204.733
0
LINE
8
BLACK
6
CONTINUOUS
10
166.016
20
-204.733
11
166.389
21
-204.974
0
LINE
8
BLACK
6
CONTINUOUS
10
166.389
20
-204.974
11
166.783
21
-205.181
0
LINE
8
BLACK
6
CONTINUOUS
10
166.783
20
-205.181
11
167.193
21
-205.352
0
LINE
8
BLACK
6
CONTINUOUS
10
167.193
20
-205.352
11
167.617
21
-205.486
0
LINE
8
BLACK
6
CONTINUOUS
10
167.617
20
-205.486
11
168.051
21
-205.582
0
LINE
8
BLACK
6
CONTINUOUS
10
168.051
20
-205.582
11
168.492
21
-205.639
0
LINE
8
BLACK
6
CONTINUOUS
10
168.492
20
-205.639
11
168.936
21
-205.656
0
LINE
8
BLACK
6
CONTINUOUS
10
168.936
20
-205.656
11
169.38
21
-205.634
0
LINE
8
BLACK
6
CONTINUOUS
10
169.38
20
-205.634
11
169.821
21
-205.573
0
LINE
8
BLACK
6
CONTINUOUS
10
169.821
20
-205.573
11
170.254
21
-205.472
0
LINE
8
BLACK
6
CONTINUOUS
10
170.254
20
-205.472
11
170.676
21
-205.334
0
LINE
8
BLACK
6
CONTINUOUS
10
170.676
20
-205.334
11
171.085
21
-205.158
0
LINE
8
BLACK
6
CONTINUOUS
10
171.085
20
-205.158
11
171.476
21
-204.947
0
LINE
8
BLACK
6
CONTINUOUS
10
171.476
20
-204.947
11
171.847
21
-204.702
0
LINE
8
BLACK
6
CONTINUOUS
10
171.847
20
-204.702
11
172.195
21
-204.425
0
LINE
8
BLACK
6
CONTINUOUS
10
172.195
20
-204.425
11
172.516
21
-204.118
0
LINE
8
BLACK
6
CONTINUOUS
10
172.516
20
-204.118
11
172.809
21
-203.784
0
LINE
8
BLACK
6
CONTINUOUS
10
172.809
20
-203.784
11
173.072
21
-203.425
0
LINE
8
BLACK
6
CONTINUOUS
10
173.072
20
-203.425
11
173.301
21
-203.044
0
LINE
8
BLACK
6
CONTINUOUS
10
173.301
20
-203.044
11
173.496
21
-202.644
0
LINE
8
BLACK
6
CONTINUOUS
10
173.496
20
-202.644
11
173.654
21
-202.229
0
LINE
8
BLACK
6
CONTINUOUS
10
173.654
20
-202.229
11
173.775
21
-201.801
0
LINE
8
BLACK
6
CONTINUOUS
10
173.775
20
-201.801
11
173.857
21
-201.364
0
LINE
8
BLACK
6
CONTINUOUS
10
173.857
20
-201.364
11
173.9
21
-200.921
0
LINE
8
BLACK
6
CONTINUOUS
10
173.9
20
-200.921
11
173.907
21
-200.66
0
LINE
8
BLACK
6
CONTINUOUS
10
173.907
20
-200.66
11
173.887
21
-200.216
0
LINE
8
BLACK
6
CONTINUOUS
10
173.887
20
-200.216
11
173.828
21
-199.775
0
LINE
8
BLACK
6
CONTINUOUS
10
173.828
20
-199.775
11
173.729
21
-199.342
0
LINE
8
BLACK
6
CONTINUOUS
10
173.729
20
-199.342
11
173.593
21
-198.918
0
LINE
8
BLACK
6
CONTINUOUS
10
173.593
20
-198.918
11
173.42
21
-198.509
0
LINE
8
BLACK
6
CONTINUOUS
10
173.42
20
-198.509
11
173.211
21
-198.117
0
LINE
8
BLACK
6
CONTINUOUS
10
173.211
20
-198.117
11
172.968
21
-197.744
0
LINE
8
BLACK
6
CONTINUOUS
10
172.968
20
-197.744
11
172.692
21
-197.395
0
LINE
8
BLACK
6
CONTINUOUS
10
172.692
20
-197.395
11
172.387
21
-197.072
0
LINE
8
BLACK
6
CONTINUOUS
10
172.387
20
-197.072
11
172.054
21
-196.777
0
LINE
8
BLACK
6
CONTINUOUS
10
172.054
20
-196.777
11
171.697
21
-196.513
0
LINE
8
BLACK
6
CONTINUOUS
10
171.697
20
-196.513
11
171.317
21
-196.282
0
LINE
8
BLACK
6
CONTINUOUS
10
171.317
20
-196.282
11
170.918
21
-196.085
0
LINE
8
BLACK
6
CONTINUOUS
10
170.918
20
-196.085
11
170.504
21
-195.924
0
LINE
8
BLACK
6
CONTINUOUS
10
170.504
20
-195.924
11
170.076
21
-195.802
0
LINE
8
BLACK
6
CONTINUOUS
10
170.076
20
-195.802
11
169.64
21
-195.717
0
LINE
8
BLACK
6
CONTINUOUS
10
169.64
20
-195.717
11
169.198
21
-195.672
0
LINE
8
BLACK
6
CONTINUOUS
10
169.198
20
-195.672
11
168.753
21
-195.666
0
LINE
8
BLACK
6
CONTINUOUS
10
168.753
20
-195.666
11
168.31
21
-195.7
0
LINE
8
BLACK
6
CONTINUOUS
10
168.31
20
-195.7
11
167.871
21
-195.773
0
LINE
8
BLACK
6
CONTINUOUS
10
167.871
20
-195.773
11
167.441
21
-195.884
0
LINE
8
BLACK
6
CONTINUOUS
10
167.441
20
-195.884
11
167.022
21
-196.034
0
LINE
8
BLACK
6
CONTINUOUS
10
167.022
20
-196.034
11
166.618
21
-196.22
0
LINE
8
BLACK
6
CONTINUOUS
10
166.618
20
-196.22
11
166.233
21
-196.441
0
LINE
8
BLACK
6
CONTINUOUS
10
166.233
20
-196.441
11
165.868
21
-196.696
0
LINE
8
BLACK
6
CONTINUOUS
10
165.868
20
-196.696
11
165.528
21
-196.982
0
LINE
8
BLACK
6
CONTINUOUS
10
165.528
20
-196.982
11
165.214
21
-197.297
0
LINE
8
BLACK
6
CONTINUOUS
10
165.214
20
-197.297
11
164.93
21
-197.639
0
LINE
8
BLACK
6
CONTINUOUS
10
164.93
20
-197.639
11
164.677
21
-198.005
0
LINE
8
BLACK
6
CONTINUOUS
10
164.677
20
-198.005
11
164.458
21
-198.392
0
LINE
8
BLACK
6
CONTINUOUS
10
164.458
20
-198.392
11
164.274
21
-198.796
0
LINE
8
BLACK
6
CONTINUOUS
10
164.274
20
-198.796
11
164.127
21
-199.216
0
LINE
8
BLACK
6
CONTINUOUS
10
164.127
20
-199.216
11
164.017
21
-199.647
0
LINE
8
BLACK
6
CONTINUOUS
10
164.017
20
-199.647
11
163.947
21
-200.086
0
LINE
8
BLACK
6
CONTINUOUS
10
163.947
20
-200.086
11
163.915
21
-200.529
0
LINE
8
BLACK
6
CONTINUOUS
10
163.915
20
-200.529
11
163.923
21
-200.974
0
LINE
8
BLACK
6
CONTINUOUS
10
163.923
20
-200.974
11
163.971
21
-201.416
0
LINE
8
BLACK
6
CONTINUOUS
10
195.695
20
-199.785
11
195.79
21
-199.355
0
LINE
8
BLACK
6
CONTINUOUS
10
195.79
20
-199.355
11
195.923
21
-198.936
0
LINE
8
BLACK
6
CONTINUOUS
10
195.923
20
-198.936
11
196.091
21
-198.529
0
LINE
8
BLACK
6
CONTINUOUS
10
196.091
20
-198.529
11
196.294
21
-198.139
0
LINE
8
BLACK
6
CONTINUOUS
10
196.294
20
-198.139
11
196.53
21
-197.768
0
LINE
8
BLACK
6
CONTINUOUS
10
196.53
20
-197.768
11
196.798
21
-197.419
0
LINE
8
BLACK
6
CONTINUOUS
10
196.798
20
-197.419
11
197.095
21
-197.095
0
LINE
8
BLACK
6
CONTINUOUS
10
197.095
20
-197.095
11
197.419
21
-196.798
0
LINE
8
BLACK
6
CONTINUOUS
10
197.419
20
-196.798
11
197.768
21
-196.53
0
LINE
8
BLACK
6
CONTINUOUS
10
197.768
20
-196.53
11
198.139
21
-196.294
0
LINE
8
BLACK
6
CONTINUOUS
10
198.139
20
-196.294
11
198.529
21
-196.091
0
LINE
8
BLACK
6
CONTINUOUS
10
198.529
20
-196.091
11
198.936
21
-195.923
0
LINE
8
BLACK
6
CONTINUOUS
10
198.936
20
-195.923
11
199.355
21
-195.79
0
LINE
8
BLACK
6
CONTINUOUS
10
199.355
20
-195.79
11
199.785
21
-195.695
0
LINE
8
BLACK
6
CONTINUOUS
10
199.785
20
-195.695
11
200.221
21
-195.638
0
LINE
8
BLACK
6
CONTINUOUS
10
200.221
20
-195.638
11
200.66
21
-195.618
0
LINE
8
BLACK
6
CONTINUOUS
10
200.66
20
-195.618
11
201.099
21
-195.638
0
LINE
8
BLACK
6
CONTINUOUS
10
201.099
20
-195.638
11
201.535
21
-195.695
0
LINE
8
BLACK
6
CONTINUOUS
10
201.535
20
-195.695
11
201.965
21
-195.79
0
LINE
8
BLACK
6
CONTINUOUS
10
201.965
20
-195.79
11
202.384
21
-195.923
0
LINE
8
BLACK
6
CONTINUOUS
10
202.384
20
-195.923
11
202.791
21
-196.091
0
LINE
8
BLACK
6
CONTINUOUS
10
202.791
20
-196.091
11
203.181
21
-196.294
0
LINE
8
BLACK
6
CONTINUOUS
10
203.181
20
-196.294
11
203.552
21
-196.53
0
LINE
8
BLACK
6
CONTINUOUS
10
203.552
20
-196.53
11
203.901
21
-196.798
0
LINE
8
BLACK
6
CONTINUOUS
10
203.901
20
-196.798
11
204.225
21
-197.095
0
LINE
8
BLACK
6
CONTINUOUS
10
204.225
20
-197.095
11
204.522
21
-197.419
0
LINE
8
BLACK
6
CONTINUOUS
10
204.522
20
-197.419
11
204.79
21
-197.768
0
LINE
8
BLACK
6
CONTINUOUS
10
204.79
20
-197.768
11
205.026
21
-198.139
0
LINE
8
BLACK
6
CONTINUOUS
10
205.026
20
-198.139
11
205.229
21
-198.529
0
LINE
8
BLACK
6
CONTINUOUS
10
205.229
20
-198.529
11
205.397
21
-198.936
0
LINE
8
BLACK
6
CONTINUOUS
10
205.397
20
-198.936
11
205.53
21
-199.355
0
LINE
8
BLACK
6
CONTINUOUS
10
205.53
20
-199.355
11
205.625
21
-199.785
0
LINE
8
BLACK
6
CONTINUOUS
10
205.625
20
-199.785
11
205.682
21
-200.221
0
LINE
8
BLACK
6
CONTINUOUS
10
205.682
20
-200.221
11
205.701
21
-200.66
0
LINE
8
BLACK
6
CONTINUOUS
10
205.701
20
-200.66
11
205.682
21
-201.099
0
LINE
8
BLACK
6
CONTINUOUS
10
205.682
20
-201.099
11
205.625
21
-201.535
0
LINE
8
BLACK
6
CONTINUOUS
10
205.625
20
-201.535
11
205.53
21
-201.965
0
LINE
8
BLACK
6
CONTINUOUS
10
205.53
20
-201.965
11
205.397
21
-202.384
0
LINE
8
BLACK
6
CONTINUOUS
10
205.397
20
-202.384
11
205.229
21
-202.791
0
LINE
8
BLACK
6
CONTINUOUS
10
205.229
20
-202.791
11
205.026
21
-203.181
0
LINE
8
BLACK
6
CONTINUOUS
10
205.026
20
-203.181
11
204.79
21
-203.552
0
LINE
8
BLACK
6
CONTINUOUS
10
204.79
20
-203.552
11
204.522
21
-203.901
0
LINE
8
BLACK
6
CONTINUOUS
10
204.522
20
-203.901
11
204.225
21
-204.225
0
LINE
8
BLACK
6
CONTINUOUS
10
204.225
20
-204.225
11
203.901
21
-204.522
0
LINE
8
BLACK
6
CONTINUOUS
10
203.901
20
-204.522
11
203.552
21
-204.79
0
LINE
8
BLACK
6
CONTINUOUS
10
203.552
20
-204.79
11
203.181
21
-205.026
0
LINE
8
BLACK
6
CONTINUOUS
10
203.181
20
-205.026
11
202.791
21
-205.229
0
LINE
8
BLACK
6
CONTINUOUS
10
202.791
20
-205.229
11
202.384
21
-205.397
0
LINE
8
BLACK
6
CONTINUOUS
10
202.384
20
-205.397
11
201.965
21
-205.53
0
LINE
8
BLACK
6
CONTINUOUS
10
201.965
20
-205.53
11
201.535
21
-205.625
0
LINE
8
BLACK
6
CONTINUOUS
10
201.535
20
-205.625
11
201.099
21
-205.682
0
LINE
8
BLACK
6
CONTINUOUS
10
201.099
20
-205.682
11
200.66
21
-205.701
0
LINE
8
BLACK
6
CONTINUOUS
10
200.66
20
-205.701
11
200.221
21
-205.682
0
LINE
8
BLACK
6
CONTINUOUS
10
200.221
20
-205.682
11
199.785
21
-205.625
0
LINE
8
BLACK
6
CONTINUOUS
10
199.785
20
-205.625
11
199.355
21
-205.53
0
LINE
8
BLACK
6
CONTINUOUS
10
199.355
20
-205.53
11
198.936
21
-205.397
0
LINE
8
BLACK
6
CONTINUOUS
10
198.936
20
-205.397
11
198.529
21
-205.229
0
LINE
8
BLACK
6
CONTINUOUS
10
198.529
20
-205.229
11
198.139
21
-205.026
0
LINE
8
BLACK
6
CONTINUOUS
10
198.139
20
-205.026
11
197.768
21
-204.79
0
LINE
8
BLACK
6
CONTINUOUS
10
197.768
20
-204.79
11
197.419
21
-204.522
0
LINE
8
BLACK
6
CONTINUOUS
10
197.419
20
-204.522
11
197.095
21
-204.225
0
LINE
8
BLACK
6
CONTINUOUS
10
197.095
20
-204.225
11
196.798
21
-203.901
0
LINE
8
BLACK
6
CONTINUOUS
10
196.798
20
-203.901
11
196.53
21
-203.552
0
LINE
8
BLACK
6
CONTINUOUS
10
196.53
20
-203.552
11
196.294
21
-203.181
0
LINE
8
BLACK
6
CONTINUOUS
10
196.294
20
-203.181
11
196.091
21
-202.791
0
LINE
8
BLACK
6
CONTINUOUS
10
196.091
20
-202.791
11
195.923
21
-202.384
0
LINE
8
BLACK
6
CONTINUOUS
10
195.923
20
-202.384
11
195.79
21
-201.965
0
LINE
8
BLACK
6
CONTINUOUS
10
195.79
20
-201.965
11
195.695
21
-201.535
0
LINE
8
BLACK
6
CONTINUOUS
10
195.695
20
-201.535
11
195.638
21
-201.099
0
LINE
8
BLACK
6
CONTINUOUS
10
195.638
20
-201.099
11
195.618
21
-200.66
0
LINE
8
BLACK
6
CONTINUOUS
10
195.618
20
-200.66
11
195.624
21
-200.529
0
LINE
8
BLACK
6
CONTINUOUS
10
195.624
20
-200.529
11
195.638
21
-200.221
0
LINE
8
BLACK
6
CONTINUOUS
10
195.638
20
-200.221
11
195.695
21
-199.785
0
LINE
8
BLACK
6
CONTINUOUS
10
195.721
20
-201.416
11
195.808
21
-201.852
0
LINE
8
BLACK
6
CONTINUOUS
10
195.808
20
-201.852
11
195.933
21
-202.278
0
LINE
8
BLACK
6
CONTINUOUS
10
195.933
20
-202.278
11
196.095
21
-202.692
0
LINE
8
BLACK
6
CONTINUOUS
10
196.095
20
-202.692
11
196.294
21
-203.09
0
LINE
8
BLACK
6
CONTINUOUS
10
196.294
20
-203.09
11
196.527
21
-203.468
0
LINE
8
BLACK
6
CONTINUOUS
10
196.527
20
-203.468
11
196.793
21
-203.825
0
LINE
8
BLACK
6
CONTINUOUS
10
196.793
20
-203.825
11
197.09
21
-204.156
0
LINE
8
BLACK
6
CONTINUOUS
10
197.09
20
-204.156
11
197.415
21
-204.459
0
LINE
8
BLACK
6
CONTINUOUS
10
197.415
20
-204.459
11
197.766
21
-204.733
0
LINE
8
BLACK
6
CONTINUOUS
10
197.766
20
-204.733
11
198.139
21
-204.974
0
LINE
8
BLACK
6
CONTINUOUS
10
198.139
20
-204.974
11
198.533
21
-205.181
0
LINE
8
BLACK
6
CONTINUOUS
10
198.533
20
-205.181
11
198.943
21
-205.352
0
LINE
8
BLACK
6
CONTINUOUS
10
198.943
20
-205.352
11
199.367
21
-205.486
0
LINE
8
BLACK
6
CONTINUOUS
10
199.367
20
-205.486
11
199.801
21
-205.582
0
LINE
8
BLACK
6
CONTINUOUS
10
199.801
20
-205.582
11
200.242
21
-205.639
0
LINE
8
BLACK
6
CONTINUOUS
10
200.242
20
-205.639
11
200.686
21
-205.656
0
LINE
8
BLACK
6
CONTINUOUS
10
200.686
20
-205.656
11
201.13
21
-205.634
0
LINE
8
BLACK
6
CONTINUOUS
10
201.13
20
-205.634
11
201.571
21
-205.573
0
LINE
8
BLACK
6
CONTINUOUS
10
201.571
20
-205.573
11
202.004
21
-205.472
0
LINE
8
BLACK
6
CONTINUOUS
10
202.004
20
-205.472
11
202.426
21
-205.334
0
LINE
8
BLACK
6
CONTINUOUS
10
202.426
20
-205.334
11
202.835
21
-205.158
0
LINE
8
BLACK
6
CONTINUOUS
10
202.835
20
-205.158
11
203.226
21
-204.947
0
LINE
8
BLACK
6
CONTINUOUS
10
203.226
20
-204.947
11
203.597
21
-204.702
0
LINE
8
BLACK
6
CONTINUOUS
10
203.597
20
-204.702
11
203.945
21
-204.425
0
LINE
8
BLACK
6
CONTINUOUS
10
203.945
20
-204.425
11
204.266
21
-204.118
0
LINE
8
BLACK
6
CONTINUOUS
10
204.266
20
-204.118
11
204.559
21
-203.784
0
LINE
8
BLACK
6
CONTINUOUS
10
204.559
20
-203.784
11
204.822
21
-203.425
0
LINE
8
BLACK
6
CONTINUOUS
10
204.822
20
-203.425
11
205.051
21
-203.044
0
LINE
8
BLACK
6
CONTINUOUS
10
205.051
20
-203.044
11
205.246
21
-202.644
0
LINE
8
BLACK
6
CONTINUOUS
10
205.246
20
-202.644
11
205.404
21
-202.229
0
LINE
8
BLACK
6
CONTINUOUS
10
205.404
20
-202.229
11
205.525
21
-201.801
0
LINE
8
BLACK
6
CONTINUOUS
10
205.525
20
-201.801
11
205.607
21
-201.364
0
LINE
8
BLACK
6
CONTINUOUS
10
205.607
20
-201.364
11
205.65
21
-200.921
0
LINE
8
BLACK
6
CONTINUOUS
10
205.65
20
-200.921
11
205.657
21
-200.66
0
LINE
8
BLACK
6
CONTINUOUS
10
205.657
20
-200.66
11
205.637
21
-200.216
0
LINE
8
BLACK
6
CONTINUOUS
10
205.637
20
-200.216
11
205.578
21
-199.775
0
LINE
8
BLACK
6
CONTINUOUS
10
205.578
20
-199.775
11
205.479
21
-199.342
0
LINE
8
BLACK
6
CONTINUOUS
10
205.479
20
-199.342
11
205.343
21
-198.918
0
LINE
8
BLACK
6
CONTINUOUS
10
205.343
20
-198.918
11
205.17
21
-198.509
0
LINE
8
BLACK
6
CONTINUOUS
10
205.17
20
-198.509
11
204.961
21
-198.117
0
LINE
8
BLACK
6
CONTINUOUS
10
204.961
20
-198.117
11
204.718
21
-197.744
0
LINE
8
BLACK
6
CONTINUOUS
10
204.718
20
-197.744
11
204.442
21
-197.395
0
LINE
8
BLACK
6
CONTINUOUS
10
204.442
20
-197.395
11
204.137
21
-197.072
0
LINE
8
BLACK
6
CONTINUOUS
10
204.137
20
-197.072
11
203.804
21
-196.777
0
LINE
8
BLACK
6
CONTINUOUS
10
203.804
20
-196.777
11
203.447
21
-196.513
0
LINE
8
BLACK
6
CONTINUOUS
10
203.447
20
-196.513
11
203.067
21
-196.282
0
LINE
8
BLACK
6
CONTINUOUS
10
203.067
20
-196.282
11
202.668
21
-196.085
0
LINE
8
BLACK
6
CONTINUOUS
10
202.668
20
-196.085
11
202.254
21
-195.924
0
LINE
8
BLACK
6
CONTINUOUS
10
202.254
20
-195.924
11
201.826
21
-195.802
0
LINE
8
BLACK
6
CONTINUOUS
10
201.826
20
-195.802
11
201.39
21
-195.717
0
LINE
8
BLACK
6
CONTINUOUS
10
201.39
20
-195.717
11
200.948
21
-195.672
0
LINE
8
BLACK
6
CONTINUOUS
10
200.948
20
-195.672
11
200.503
21
-195.666
0
LINE
8
BLACK
6
CONTINUOUS
10
200.503
20
-195.666
11
200.06
21
-195.7
0
LINE
8
BLACK
6
CONTINUOUS
10
200.06
20
-195.7
11
199.621
21
-195.773
0
LINE
8
BLACK
6
CONTINUOUS
10
199.621
20
-195.773
11
199.191
21
-195.884
0
LINE
8
BLACK
6
CONTINUOUS
10
199.191
20
-195.884
11
198.772
21
-196.034
0
LINE
8
BLACK
6
CONTINUOUS
10
198.772
20
-196.034
11
198.368
21
-196.22
0
LINE
8
BLACK
6
CONTINUOUS
10
198.368
20
-196.22
11
197.983
21
-196.441
0
LINE
8
BLACK
6
CONTINUOUS
10
197.983
20
-196.441
11
197.618
21
-196.696
0
LINE
8
BLACK
6
CONTINUOUS
10
197.618
20
-196.696
11
197.278
21
-196.982
0
LINE
8
BLACK
6
CONTINUOUS
10
197.278
20
-196.982
11
196.964
21
-197.297
0
LINE
8
BLACK
6
CONTINUOUS
10
196.964
20
-197.297
11
196.68
21
-197.639
0
LINE
8
BLACK
6
CONTINUOUS
10
196.68
20
-197.639
11
196.427
21
-198.005
0
LINE
8
BLACK
6
CONTINUOUS
10
196.427
20
-198.005
11
196.208
21
-198.392
0
LINE
8
BLACK
6
CONTINUOUS
10
196.208
20
-198.392
11
196.024
21
-198.796
0
LINE
8
BLACK
6
CONTINUOUS
10
196.024
20
-198.796
11
195.877
21
-199.216
0
LINE
8
BLACK
6
CONTINUOUS
10
195.877
20
-199.216
11
195.767
21
-199.647
0
LINE
8
BLACK
6
CONTINUOUS
10
195.767
20
-199.647
11
195.697
21
-200.086
0
LINE
8
BLACK
6
CONTINUOUS
10
195.697
20
-200.086
11
195.665
21
-200.529
0
LINE
8
BLACK
6
CONTINUOUS
10
195.665
20
-200.529
11
195.673
21
-200.974
0
LINE
8
BLACK
6
CONTINUOUS
10
195.673
20
-200.974
11
195.721
21
-201.416
0
LINE
8
BLACK
6
CONTINUOUS
10
132.195
20
-199.785
11
132.29
21
-199.355
0
LINE
8
BLACK
6
CONTINUOUS
10
132.29
20
-199.355
11
132.423
21
-198.936
0
LINE
8
BLACK
6
CONTINUOUS
10
132.423
20
-198.936
11
132.591
21
-198.529
0
LINE
8
BLACK
6
CONTINUOUS
10
132.591
20
-198.529
11
132.794
21
-198.139
0
LINE
8
BLACK
6
CONTINUOUS
10
132.794
20
-198.139
11
133.03
21
-197.768
0
LINE
8
BLACK
6
CONTINUOUS
10
133.03
20
-197.768
11
133.298
21
-197.419
0
LINE
8
BLACK
6
CONTINUOUS
10
133.298
20
-197.419
11
133.595
21
-197.095
0
LINE
8
BLACK
6
CONTINUOUS
10
133.595
20
-197.095
11
133.919
21
-196.798
0
LINE
8
BLACK
6
CONTINUOUS
10
133.919
20
-196.798
11
134.268
21
-196.53
0
LINE
8
BLACK
6
CONTINUOUS
10
134.268
20
-196.53
11
134.639
21
-196.294
0
LINE
8
BLACK
6
CONTINUOUS
10
134.639
20
-196.294
11
135.029
21
-196.091
0
LINE
8
BLACK
6
CONTINUOUS
10
135.029
20
-196.091
11
135.436
21
-195.923
0
LINE
8
BLACK
6
CONTINUOUS
10
135.436
20
-195.923
11
135.855
21
-195.79
0
LINE
8
BLACK
6
CONTINUOUS
10
135.855
20
-195.79
11
136.285
21
-195.695
0
LINE
8
BLACK
6
CONTINUOUS
10
136.285
20
-195.695
11
136.721
21
-195.638
0
LINE
8
BLACK
6
CONTINUOUS
10
136.721
20
-195.638
11
137.16
21
-195.618
0
LINE
8
BLACK
6
CONTINUOUS
10
137.16
20
-195.618
11
137.599
21
-195.638
0
LINE
8
BLACK
6
CONTINUOUS
10
137.599
20
-195.638
11
138.035
21
-195.695
0
LINE
8
BLACK
6
CONTINUOUS
10
138.035
20
-195.695
11
138.465
21
-195.79
0
LINE
8
BLACK
6
CONTINUOUS
10
138.465
20
-195.79
11
138.884
21
-195.923
0
LINE
8
BLACK
6
CONTINUOUS
10
138.884
20
-195.923
11
139.291
21
-196.091
0
LINE
8
BLACK
6
CONTINUOUS
10
139.291
20
-196.091
11
139.681
21
-196.294
0
LINE
8
BLACK
6
CONTINUOUS
10
139.681
20
-196.294
11
140.052
21
-196.53
0
LINE
8
BLACK
6
CONTINUOUS
10
140.052
20
-196.53
11
140.401
21
-196.798
0
LINE
8
BLACK
6
CONTINUOUS
10
140.401
20
-196.798
11
140.725
21
-197.095
0
LINE
8
BLACK
6
CONTINUOUS
10
140.725
20
-197.095
11
141.022
21
-197.419
0
LINE
8
BLACK
6
CONTINUOUS
10
141.022
20
-197.419
11
141.29
21
-197.768
0
LINE
8
BLACK
6
CONTINUOUS
10
141.29
20
-197.768
11
141.526
21
-198.139
0
LINE
8
BLACK
6
CONTINUOUS
10
141.526
20
-198.139
11
141.729
21
-198.529
0
LINE
8
BLACK
6
CONTINUOUS
10
141.729
20
-198.529
11
141.897
21
-198.936
0
LINE
8
BLACK
6
CONTINUOUS
10
141.897
20
-198.936
11
142.03
21
-199.355
0
LINE
8
BLACK
6
CONTINUOUS
10
142.03
20
-199.355
11
142.125
21
-199.785
0
LINE
8
BLACK
6
CONTINUOUS
10
142.125
20
-199.785
11
142.182
21
-200.221
0
LINE
8
BLACK
6
CONTINUOUS
10
142.182
20
-200.221
11
142.201
21
-200.66
0
LINE
8
BLACK
6
CONTINUOUS
10
142.201
20
-200.66
11
142.182
21
-201.099
0
LINE
8
BLACK
6
CONTINUOUS
10
142.182
20
-201.099
11
142.125
21
-201.535
0
LINE
8
BLACK
6
CONTINUOUS
10
142.125
20
-201.535
11
142.03
21
-201.965
0
LINE
8
BLACK
6
CONTINUOUS
10
142.03
20
-201.965
11
141.897
21
-202.384
0
LINE
8
BLACK
6
CONTINUOUS
10
141.897
20
-202.384
11
141.729
21
-202.791
0
LINE
8
BLACK
6
CONTINUOUS
10
141.729
20
-202.791
11
141.526
21
-203.181
0
LINE
8
BLACK
6
CONTINUOUS
10
141.526
20
-203.181
11
141.29
21
-203.552
0
LINE
8
BLACK
6
CONTINUOUS
10
141.29
20
-203.552
11
141.022
21
-203.901
0
LINE
8
BLACK
6
CONTINUOUS
10
141.022
20
-203.901
11
140.725
21
-204.225
0
LINE
8
BLACK
6
CONTINUOUS
10
140.725
20
-204.225
11
140.401
21
-204.522
0
LINE
8
BLACK
6
CONTINUOUS
10
140.401
20
-204.522
11
140.052
21
-204.79
0
LINE
8
BLACK
6
CONTINUOUS
10
140.052
20
-204.79
11
139.681
21
-205.026
0
LINE
8
BLACK
6
CONTINUOUS
10
139.681
20
-205.026
11
139.291
21
-205.229
0
LINE
8
BLACK
6
CONTINUOUS
10
139.291
20
-205.229
11
138.884
21
-205.397
0
LINE
8
BLACK
6
CONTINUOUS
10
138.884
20
-205.397
11
138.465
21
-205.53
0
LINE
8
BLACK
6
CONTINUOUS
10
138.465
20
-205.53
11
138.035
21
-205.625
0
LINE
8
BLACK
6
CONTINUOUS
10
138.035
20
-205.625
11
137.599
21
-205.682
0
LINE
8
BLACK
6
CONTINUOUS
10
137.599
20
-205.682
11
137.16
21
-205.701
0
LINE
8
BLACK
6
CONTINUOUS
10
137.16
20
-205.701
11
136.721
21
-205.682
0
LINE
8
BLACK
6
CONTINUOUS
10
136.721
20
-205.682
11
136.285
21
-205.625
0
LINE
8
BLACK
6
CONTINUOUS
10
136.285
20
-205.625
11
135.855
21
-205.53
0
LINE
8
BLACK
6
CONTINUOUS
10
135.855
20
-205.53
11
135.436
21
-205.397
0
LINE
8
BLACK
6
CONTINUOUS
10
135.436
20
-205.397
11
135.029
21
-205.229
0
LINE
8
BLACK
6
CONTINUOUS
10
135.029
20
-205.229
11
134.639
21
-205.026
0
LINE
8
BLACK
6
CONTINUOUS
10
134.639
20
-205.026
11
134.268
21
-204.79
0
LINE
8
BLACK
6
CONTINUOUS
10
134.268
20
-204.79
11
133.919
21
-204.522
0
LINE
8
BLACK
6
CONTINUOUS
10
133.919
20
-204.522
11
133.595
21
-204.225
0
LINE
8
BLACK
6
CONTINUOUS
10
133.595
20
-204.225
11
133.298
21
-203.901
0
LINE
8
BLACK
6
CONTINUOUS
10
133.298
20
-203.901
11
133.03
21
-203.552
0
LINE
8
BLACK
6
CONTINUOUS
10
133.03
20
-203.552
11
132.794
21
-203.181
0
LINE
8
BLACK
6
CONTINUOUS
10
132.794
20
-203.181
11
132.591
21
-202.791
0
LINE
8
BLACK
6
CONTINUOUS
10
132.591
20
-202.791
11
132.423
21
-202.384
0
LINE
8
BLACK
6
CONTINUOUS
10
132.423
20
-202.384
11
132.29
21
-201.965
0
LINE
8
BLACK
6
CONTINUOUS
10
132.29
20
-201.965
11
132.195
21
-201.535
0
LINE
8
BLACK
6
CONTINUOUS
10
132.195
20
-201.535
11
132.138
21
-201.099
0
LINE
8
BLACK
6
CONTINUOUS
10
132.138
20
-201.099
11
132.118
21
-200.66
0
LINE
8
BLACK
6
CONTINUOUS
10
132.118
20
-200.66
11
132.124
21
-200.529
0
LINE
8
BLACK
6
CONTINUOUS
10
132.124
20
-200.529
11
132.138
21
-200.221
0
LINE
8
BLACK
6
CONTINUOUS
10
132.138
20
-200.221
11
132.195
21
-199.785
0
LINE
8
BLACK
6
CONTINUOUS
10
132.221
20
-201.416
11
132.308
21
-201.852
0
LINE
8
BLACK
6
CONTINUOUS
10
132.308
20
-201.852
11
132.433
21
-202.278
0
LINE
8
BLACK
6
CONTINUOUS
10
132.433
20
-202.278
11
132.595
21
-202.692
0
LINE
8
BLACK
6
CONTINUOUS
10
132.595
20
-202.692
11
132.794
21
-203.09
0
LINE
8
BLACK
6
CONTINUOUS
10
132.794
20
-203.09
11
133.027
21
-203.468
0
LINE
8
BLACK
6
CONTINUOUS
10
133.027
20
-203.468
11
133.293
21
-203.825
0
LINE
8
BLACK
6
CONTINUOUS
10
133.293
20
-203.825
11
133.59
21
-204.156
0
LINE
8
BLACK
6
CONTINUOUS
10
133.59
20
-204.156
11
133.915
21
-204.459
0
LINE
8
BLACK
6
CONTINUOUS
10
133.915
20
-204.459
11
134.266
21
-204.733
0
LINE
8
BLACK
6
CONTINUOUS
10
134.266
20
-204.733
11
134.639
21
-204.974
0
LINE
8
BLACK
6
CONTINUOUS
10
134.639
20
-204.974
11
135.033
21
-205.181
0
LINE
8
BLACK
6
CONTINUOUS
10
135.033
20
-205.181
11
135.443
21
-205.352
0
LINE
8
BLACK
6
CONTINUOUS
10
135.443
20
-205.352
11
135.867
21
-205.486
0
LINE
8
BLACK
6
CONTINUOUS
10
135.867
20
-205.486
11
136.301
21
-205.582
0
LINE
8
BLACK
6
CONTINUOUS
10
136.301
20
-205.582
11
136.742
21
-205.639
0
LINE
8
BLACK
6
CONTINUOUS
10
136.742
20
-205.639
11
137.186
21
-205.656
0
LINE
8
BLACK
6
CONTINUOUS
10
137.186
20
-205.656
11
137.63
21
-205.634
0
LINE
8
BLACK
6
CONTINUOUS
10
137.63
20
-205.634
11
138.071
21
-205.573
0
LINE
8
BLACK
6
CONTINUOUS
10
138.071
20
-205.573
11
138.504
21
-205.472
0
LINE
8
BLACK
6
CONTINUOUS
10
138.504
20
-205.472
11
138.926
21
-205.334
0
LINE
8
BLACK
6
CONTINUOUS
10
138.926
20
-205.334
11
139.335
21
-205.158
0
LINE
8
BLACK
6
CONTINUOUS
10
139.335
20
-205.158
11
139.726
21
-204.947
0
LINE
8
BLACK
6
CONTINUOUS
10
139.726
20
-204.947
11
140.097
21
-204.702
0
LINE
8
BLACK
6
CONTINUOUS
10
140.097
20
-204.702
11
140.445
21
-204.425
0
LINE
8
BLACK
6
CONTINUOUS
10
140.445
20
-204.425
11
140.766
21
-204.118
0
LINE
8
BLACK
6
CONTINUOUS
10
140.766
20
-204.118
11
141.059
21
-203.784
0
LINE
8
BLACK
6
CONTINUOUS
10
141.059
20
-203.784
11
141.322
21
-203.425
0
LINE
8
BLACK
6
CONTINUOUS
10
141.322
20
-203.425
11
141.551
21
-203.044
0
LINE
8
BLACK
6
CONTINUOUS
10
141.551
20
-203.044
11
141.746
21
-202.644
0
LINE
8
BLACK
6
CONTINUOUS
10
141.746
20
-202.644
11
141.904
21
-202.229
0
LINE
8
BLACK
6
CONTINUOUS
10
141.904
20
-202.229
11
142.025
21
-201.801
0
LINE
8
BLACK
6
CONTINUOUS
10
142.025
20
-201.801
11
142.107
21
-201.364
0
LINE
8
BLACK
6
CONTINUOUS
10
142.107
20
-201.364
11
142.15
21
-200.921
0
LINE
8
BLACK
6
CONTINUOUS
10
142.15
20
-200.921
11
142.157
21
-200.66
0
LINE
8
BLACK
6
CONTINUOUS
10
142.157
20
-200.66
11
142.137
21
-200.216
0
LINE
8
BLACK
6
CONTINUOUS
10
142.137
20
-200.216
11
142.078
21
-199.775
0
LINE
8
BLACK
6
CONTINUOUS
10
142.078
20
-199.775
11
141.979
21
-199.342
0
LINE
8
BLACK
6
CONTINUOUS
10
141.979
20
-199.342
11
141.843
21
-198.918
0
LINE
8
BLACK
6
CONTINUOUS
10
141.843
20
-198.918
11
141.67
21
-198.509
0
LINE
8
BLACK
6
CONTINUOUS
10
141.67
20
-198.509
11
141.461
21
-198.117
0
LINE
8
BLACK
6
CONTINUOUS
10
141.461
20
-198.117
11
141.218
21
-197.744
0
LINE
8
BLACK
6
CONTINUOUS
10
141.218
20
-197.744
11
140.942
21
-197.395
0
LINE
8
BLACK
6
CONTINUOUS
10
140.942
20
-197.395
11
140.637
21
-197.072
0
LINE
8
BLACK
6
CONTINUOUS
10
140.637
20
-197.072
11
140.304
21
-196.777
0
LINE
8
BLACK
6
CONTINUOUS
10
140.304
20
-196.777
11
139.947
21
-196.513
0
LINE
8
BLACK
6
CONTINUOUS
10
139.947
20
-196.513
11
139.567
21
-196.282
0
LINE
8
BLACK
6
CONTINUOUS
10
139.567
20
-196.282
11
139.168
21
-196.085
0
LINE
8
BLACK
6
CONTINUOUS
10
139.168
20
-196.085
11
138.754
21
-195.924
0
LINE
8
BLACK
6
CONTINUOUS
10
138.754
20
-195.924
11
138.326
21
-195.802
0
LINE
8
BLACK
6
CONTINUOUS
10
138.326
20
-195.802
11
137.89
21
-195.717
0
LINE
8
BLACK
6
CONTINUOUS
10
137.89
20
-195.717
11
137.448
21
-195.672
0
LINE
8
BLACK
6
CONTINUOUS
10
137.448
20
-195.672
11
137.003
21
-195.666
0
LINE
8
BLACK
6
CONTINUOUS
10
137.003
20
-195.666
11
136.56
21
-195.7
0
LINE
8
BLACK
6
CONTINUOUS
10
136.56
20
-195.7
11
136.121
21
-195.773
0
LINE
8
BLACK
6
CONTINUOUS
10
136.121
20
-195.773
11
135.691
21
-195.884
0
LINE
8
BLACK
6
CONTINUOUS
10
135.691
20
-195.884
11
135.272
21
-196.034
0
LINE
8
BLACK
6
CONTINUOUS
10
135.272
20
-196.034
11
134.868
21
-196.22
0
LINE
8
BLACK
6
CONTINUOUS
10
134.868
20
-196.22
11
134.483
21
-196.441
0
LINE
8
BLACK
6
CONTINUOUS
10
134.483
20
-196.441
11
134.118
21
-196.696
0
LINE
8
BLACK
6
CONTINUOUS
10
134.118
20
-196.696
11
133.778
21
-196.982
0
LINE
8
BLACK
6
CONTINUOUS
10
133.778
20
-196.982
11
133.464
21
-197.297
0
LINE
8
BLACK
6
CONTINUOUS
10
133.464
20
-197.297
11
133.18
21
-197.639
0
LINE
8
BLACK
6
CONTINUOUS
10
133.18
20
-197.639
11
132.927
21
-198.005
0
LINE
8
BLACK
6
CONTINUOUS
10
132.927
20
-198.005
11
132.708
21
-198.392
0
LINE
8
BLACK
6
CONTINUOUS
10
132.708
20
-198.392
11
132.524
21
-198.796
0
LINE
8
BLACK
6
CONTINUOUS
10
132.524
20
-198.796
11
132.377
21
-199.216
0
LINE
8
BLACK
6
CONTINUOUS
10
132.377
20
-199.216
11
132.267
21
-199.647
0
LINE
8
BLACK
6
CONTINUOUS
10
132.267
20
-199.647
11
132.197
21
-200.086
0
LINE
8
BLACK
6
CONTINUOUS
10
132.197
20
-200.086
11
132.165
21
-200.529
0
LINE
8
BLACK
6
CONTINUOUS
10
132.165
20
-200.529
11
132.173
21
-200.974
0
LINE
8
BLACK
6
CONTINUOUS
10
132.173
20
-200.974
11
132.221
21
-201.416
0
LINE
8
BLACK
6
CONTINUOUS
10
259.195
20
-199.785
11
259.29
21
-199.355
0
LINE
8
BLACK
6
CONTINUOUS
10
259.29
20
-199.355
11
259.423
21
-198.936
0
LINE
8
BLACK
6
CONTINUOUS
10
259.423
20
-198.936
11
259.591
21
-198.529
0
LINE
8
BLACK
6
CONTINUOUS
10
259.591
20
-198.529
11
259.794
21
-198.139
0
LINE
8
BLACK
6
CONTINUOUS
10
259.794
20
-198.139
11
260.03
21
-197.768
0
LINE
8
BLACK
6
CONTINUOUS
10
260.03
20
-197.768
11
260.298
21
-197.419
0
LINE
8
BLACK
6
CONTINUOUS
10
260.298
20
-197.419
11
260.595
21
-197.095
0
LINE
8
BLACK
6
CONTINUOUS
10
260.595
20
-197.095
11
260.919
21
-196.798
0
LINE
8
BLACK
6
CONTINUOUS
10
260.919
20
-196.798
11
261.268
21
-196.53
0
LINE
8
BLACK
6
CONTINUOUS
10
261.268
20
-196.53
11
261.639
21
-196.294
0
LINE
8
BLACK
6
CONTINUOUS
10
261.639
20
-196.294
11
262.029
21
-196.091
0
LINE
8
BLACK
6
CONTINUOUS
10
262.029
20
-196.091
11
262.436
21
-195.923
0
LINE
8
BLACK
6
CONTINUOUS
10
262.436
20
-195.923
11
262.855
21
-195.79
0
LINE
8
BLACK
6
CONTINUOUS
10
262.855
20
-195.79
11
263.285
21
-195.695
0
LINE
8
BLACK
6
CONTINUOUS
10
263.285
20
-195.695
11
263.721
21
-195.638
0
LINE
8
BLACK
6
CONTINUOUS
10
263.721
20
-195.638
11
264.16
21
-195.618
0
LINE
8
BLACK
6
CONTINUOUS
10
264.16
20
-195.618
11
264.599
21
-195.638
0
LINE
8
BLACK
6
CONTINUOUS
10
264.599
20
-195.638
11
265.035
21
-195.695
0
LINE
8
BLACK
6
CONTINUOUS
10
265.035
20
-195.695
11
265.465
21
-195.79
0
LINE
8
BLACK
6
CONTINUOUS
10
265.465
20
-195.79
11
265.884
21
-195.923
0
LINE
8
BLACK
6
CONTINUOUS
10
265.884
20
-195.923
11
266.291
21
-196.091
0
LINE
8
BLACK
6
CONTINUOUS
10
266.291
20
-196.091
11
266.681
21
-196.294
0
LINE
8
BLACK
6
CONTINUOUS
10
266.681
20
-196.294
11
267.052
21
-196.53
0
LINE
8
BLACK
6
CONTINUOUS
10
267.052
20
-196.53
11
267.401
21
-196.798
0
LINE
8
BLACK
6
CONTINUOUS
10
267.401
20
-196.798
11
267.725
21
-197.095
0
LINE
8
BLACK
6
CONTINUOUS
10
267.725
20
-197.095
11
268.022
21
-197.419
0
LINE
8
BLACK
6
CONTINUOUS
10
268.022
20
-197.419
11
268.29
21
-197.768
0
LINE
8
BLACK
6
CONTINUOUS
10
268.29
20
-197.768
11
268.526
21
-198.139
0
LINE
8
BLACK
6
CONTINUOUS
10
268.526
20
-198.139
11
268.729
21
-198.529
0
LINE
8
BLACK
6
CONTINUOUS
10
268.729
20
-198.529
11
268.897
21
-198.936
0
LINE
8
BLACK
6
CONTINUOUS
10
268.897
20
-198.936
11
269.03
21
-199.355
0
LINE
8
BLACK
6
CONTINUOUS
10
269.03
20
-199.355
11
269.125
21
-199.785
0
LINE
8
BLACK
6
CONTINUOUS
10
269.125
20
-199.785
11
269.182
21
-200.221
0
LINE
8
BLACK
6
CONTINUOUS
10
269.182
20
-200.221
11
269.202
21
-200.66
0
LINE
8
BLACK
6
CONTINUOUS
10
269.202
20
-200.66
11
269.182
21
-201.099
0
LINE
8
BLACK
6
CONTINUOUS
10
269.182
20
-201.099
11
269.125
21
-201.535
0
LINE
8
BLACK
6
CONTINUOUS
10
269.125
20
-201.535
11
269.03
21
-201.965
0
LINE
8
BLACK
6
CONTINUOUS
10
269.03
20
-201.965
11
268.897
21
-202.384
0
LINE
8
BLACK
6
CONTINUOUS
10
268.897
20
-202.384
11
268.729
21
-202.791
0
LINE
8
BLACK
6
CONTINUOUS
10
268.729
20
-202.791
11
268.526
21
-203.181
0
LINE
8
BLACK
6
CONTINUOUS
10
268.526
20
-203.181
11
268.29
21
-203.552
0
LINE
8
BLACK
6
CONTINUOUS
10
268.29
20
-203.552
11
268.022
21
-203.901
0
LINE
8
BLACK
6
CONTINUOUS
10
268.022
20
-203.901
11
267.725
21
-204.225
0
LINE
8
BLACK
6
CONTINUOUS
10
267.725
20
-204.225
11
267.401
21
-204.522
0
LINE
8
BLACK
6
CONTINUOUS
10
267.401
20
-204.522
11
267.052
21
-204.79
0
LINE
8
BLACK
6
CONTINUOUS
10
267.052
20
-204.79
11
266.681
21
-205.026
0
LINE
8
BLACK
6
CONTINUOUS
10
266.681
20
-205.026
11
266.291
21
-205.229
0
LINE
8
BLACK
6
CONTINUOUS
10
266.291
20
-205.229
11
265.884
21
-205.397
0
LINE
8
BLACK
6
CONTINUOUS
10
265.884
20
-205.397
11
265.465
21
-205.53
0
LINE
8
BLACK
6
CONTINUOUS
10
265.465
20
-205.53
11
265.035
21
-205.625
0
LINE
8
BLACK
6
CONTINUOUS
10
265.035
20
-205.625
11
264.599
21
-205.682
0
LINE
8
BLACK
6
CONTINUOUS
10
264.599
20
-205.682
11
264.16
21
-205.701
0
LINE
8
BLACK
6
CONTINUOUS
10
264.16
20
-205.701
11
263.721
21
-205.682
0
LINE
8
BLACK
6
CONTINUOUS
10
263.721
20
-205.682
11
263.285
21
-205.625
0
LINE
8
BLACK
6
CONTINUOUS
10
263.285
20
-205.625
11
262.855
21
-205.53
0
LINE
8
BLACK
6
CONTINUOUS
10
262.855
20
-205.53
11
262.436
21
-205.397
0
LINE
8
BLACK
6
CONTINUOUS
10
262.436
20
-205.397
11
262.029
21
-205.229
0
LINE
8
BLACK
6
CONTINUOUS
10
262.029
20
-205.229
11
261.639
21
-205.026
0
LINE
8
BLACK
6
CONTINUOUS
10
261.639
20
-205.026
11
261.268
21
-204.79
0
LINE
8
BLACK
6
CONTINUOUS
10
261.268
20
-204.79
11
260.919
21
-204.522
0
LINE
8
BLACK
6
CONTINUOUS
10
260.919
20
-204.522
11
260.595
21
-204.225
0
LINE
8
BLACK
6
CONTINUOUS
10
260.595
20
-204.225
11
260.298
21
-203.901
0
LINE
8
BLACK
6
CONTINUOUS
10
260.298
20
-203.901
11
260.03
21
-203.552
0
LINE
8
BLACK
6
CONTINUOUS
10
260.03
20
-203.552
11
259.794
21
-203.181
0
LINE
8
BLACK
6
CONTINUOUS
10
259.794
20
-203.181
11
259.591
21
-202.791
0
LINE
8
BLACK
6
CONTINUOUS
10
259.591
20
-202.791
11
259.423
21
-202.384
0
LINE
8
BLACK
6
CONTINUOUS
10
259.423
20
-202.384
11
259.29
21
-201.965
0
LINE
8
BLACK
6
CONTINUOUS
10
259.29
20
-201.965
11
259.195
21
-201.535
0
LINE
8
BLACK
6
CONTINUOUS
10
259.195
20
-201.535
11
259.138
21
-201.099
0
LINE
8
BLACK
6
CONTINUOUS
10
259.138
20
-201.099
11
259.118
21
-200.66
0
LINE
8
BLACK
6
CONTINUOUS
10
259.118
20
-200.66
11
259.124
21
-200.529
0
LINE
8
BLACK
6
CONTINUOUS
10
259.124
20
-200.529
11
259.138
21
-200.221
0
LINE
8
BLACK
6
CONTINUOUS
10
259.138
20
-200.221
11
259.195
21
-199.785
0
LINE
8
BLACK
6
CONTINUOUS
10
259.221
20
-201.416
11
259.308
21
-201.852
0
LINE
8
BLACK
6
CONTINUOUS
10
259.308
20
-201.852
11
259.433
21
-202.278
0
LINE
8
BLACK
6
CONTINUOUS
10
259.433
20
-202.278
11
259.595
21
-202.692
0
LINE
8
BLACK
6
CONTINUOUS
10
259.595
20
-202.692
11
259.794
21
-203.09
0
LINE
8
BLACK
6
CONTINUOUS
10
259.794
20
-203.09
11
260.027
21
-203.468
0
LINE
8
BLACK
6
CONTINUOUS
10
260.027
20
-203.468
11
260.293
21
-203.825
0
LINE
8
BLACK
6
CONTINUOUS
10
260.293
20
-203.825
11
260.59
21
-204.156
0
LINE
8
BLACK
6
CONTINUOUS
10
260.59
20
-204.156
11
260.915
21
-204.459
0
LINE
8
BLACK
6
CONTINUOUS
10
260.915
20
-204.459
11
261.266
21
-204.733
0
LINE
8
BLACK
6
CONTINUOUS
10
261.266
20
-204.733
11
261.639
21
-204.974
0
LINE
8
BLACK
6
CONTINUOUS
10
261.639
20
-204.974
11
262.033
21
-205.181
0
LINE
8
BLACK
6
CONTINUOUS
10
262.033
20
-205.181
11
262.443
21
-205.352
0
LINE
8
BLACK
6
CONTINUOUS
10
262.443
20
-205.352
11
262.867
21
-205.486
0
LINE
8
BLACK
6
CONTINUOUS
10
262.867
20
-205.486
11
263.301
21
-205.582
0
LINE
8
BLACK
6
CONTINUOUS
10
263.301
20
-205.582
11
263.742
21
-205.639
0
LINE
8
BLACK
6
CONTINUOUS
10
263.742
20
-205.639
11
264.186
21
-205.656
0
LINE
8
BLACK
6
CONTINUOUS
10
264.186
20
-205.656
11
264.63
21
-205.634
0
LINE
8
BLACK
6
CONTINUOUS
10
264.63
20
-205.634
11
265.071
21
-205.573
0
LINE
8
BLACK
6
CONTINUOUS
10
265.071
20
-205.573
11
265.504
21
-205.472
0
LINE
8
BLACK
6
CONTINUOUS
10
265.504
20
-205.472
11
265.926
21
-205.334
0
LINE
8
BLACK
6
CONTINUOUS
10
265.926
20
-205.334
11
266.335
21
-205.158
0
LINE
8
BLACK
6
CONTINUOUS
10
266.335
20
-205.158
11
266.726
21
-204.947
0
LINE
8
BLACK
6
CONTINUOUS
10
266.726
20
-204.947
11
267.097
21
-204.702
0
LINE
8
BLACK
6
CONTINUOUS
10
267.097
20
-204.702
11
267.445
21
-204.425
0
LINE
8
BLACK
6
CONTINUOUS
10
267.445
20
-204.425
11
267.766
21
-204.118
0
LINE
8
BLACK
6
CONTINUOUS
10
267.766
20
-204.118
11
268.059
21
-203.784
0
LINE
8
BLACK
6
CONTINUOUS
10
268.059
20
-203.784
11
268.322
21
-203.425
0
LINE
8
BLACK
6
CONTINUOUS
10
268.322
20
-203.425
11
268.551
21
-203.044
0
LINE
8
BLACK
6
CONTINUOUS
10
268.551
20
-203.044
11
268.746
21
-202.644
0
LINE
8
BLACK
6
CONTINUOUS
10
268.746
20
-202.644
11
268.904
21
-202.229
0
LINE
8
BLACK
6
CONTINUOUS
10
268.904
20
-202.229
11
269.025
21
-201.801
0
LINE
8
BLACK
6
CONTINUOUS
10
269.025
20
-201.801
11
269.107
21
-201.364
0
LINE
8
BLACK
6
CONTINUOUS
10
269.107
20
-201.364
11
269.15
21
-200.921
0
LINE
8
BLACK
6
CONTINUOUS
10
269.15
20
-200.921
11
269.157
21
-200.66
0
LINE
8
BLACK
6
CONTINUOUS
10
269.157
20
-200.66
11
269.137
21
-200.216
0
LINE
8
BLACK
6
CONTINUOUS
10
269.137
20
-200.216
11
269.078
21
-199.775
0
LINE
8
BLACK
6
CONTINUOUS
10
269.078
20
-199.775
11
268.979
21
-199.342
0
LINE
8
BLACK
6
CONTINUOUS
10
268.979
20
-199.342
11
268.843
21
-198.918
0
LINE
8
BLACK
6
CONTINUOUS
10
268.843
20
-198.918
11
268.67
21
-198.509
0
LINE
8
BLACK
6
CONTINUOUS
10
268.67
20
-198.509
11
268.461
21
-198.117
0
LINE
8
BLACK
6
CONTINUOUS
10
268.461
20
-198.117
11
268.218
21
-197.744
0
LINE
8
BLACK
6
CONTINUOUS
10
268.218
20
-197.744
11
267.942
21
-197.395
0
LINE
8
BLACK
6
CONTINUOUS
10
267.942
20
-197.395
11
267.637
21
-197.072
0
LINE
8
BLACK
6
CONTINUOUS
10
267.637
20
-197.072
11
267.304
21
-196.777
0
LINE
8
BLACK
6
CONTINUOUS
10
267.304
20
-196.777
11
266.947
21
-196.513
0
LINE
8
BLACK
6
CONTINUOUS
10
266.947
20
-196.513
11
266.567
21
-196.282
0
LINE
8
BLACK
6
CONTINUOUS
10
266.567
20
-196.282
11
266.168
21
-196.085
0
LINE
8
BLACK
6
CONTINUOUS
10
266.168
20
-196.085
11
265.754
21
-195.924
0
LINE
8
BLACK
6
CONTINUOUS
10
265.754
20
-195.924
11
265.326
21
-195.802
0
LINE
8
BLACK
6
CONTINUOUS
10
265.326
20
-195.802
11
264.89
21
-195.717
0
LINE
8
BLACK
6
CONTINUOUS
10
264.89
20
-195.717
11
264.448
21
-195.672
0
LINE
8
BLACK
6
CONTINUOUS
10
264.448
20
-195.672
11
264.003
21
-195.666
0
LINE
8
BLACK
6
CONTINUOUS
10
264.003
20
-195.666
11
263.56
21
-195.7
0
LINE
8
BLACK
6
CONTINUOUS
10
263.56
20
-195.7
11
263.121
21
-195.773
0
LINE
8
BLACK
6
CONTINUOUS
10
263.121
20
-195.773
11
262.691
21
-195.884
0
LINE
8
BLACK
6
CONTINUOUS
10
262.691
20
-195.884
11
262.272
21
-196.034
0
LINE
8
BLACK
6
CONTINUOUS
10
262.272
20
-196.034
11
261.868
21
-196.22
0
LINE
8
BLACK
6
CONTINUOUS
10
261.868
20
-196.22
11
261.483
21
-196.441
0
LINE
8
BLACK
6
CONTINUOUS
10
261.483
20
-196.441
11
261.118
21
-196.696
0
LINE
8
BLACK
6
CONTINUOUS
10
261.118
20
-196.696
11
260.778
21
-196.982
0
LINE
8
BLACK
6
CONTINUOUS
10
260.778
20
-196.982
11
260.464
21
-197.297
0
LINE
8
BLACK
6
CONTINUOUS
10
260.464
20
-197.297
11
260.18
21
-197.639
0
LINE
8
BLACK
6
CONTINUOUS
10
260.18
20
-197.639
11
259.927
21
-198.005
0
LINE
8
BLACK
6
CONTINUOUS
10
259.927
20
-198.005
11
259.708
21
-198.392
0
LINE
8
BLACK
6
CONTINUOUS
10
259.708
20
-198.392
11
259.524
21
-198.796
0
LINE
8
BLACK
6
CONTINUOUS
10
259.524
20
-198.796
11
259.377
21
-199.216
0
LINE
8
BLACK
6
CONTINUOUS
10
259.377
20
-199.216
11
259.267
21
-199.647
0
LINE
8
BLACK
6
CONTINUOUS
10
259.267
20
-199.647
11
259.197
21
-200.086
0
LINE
8
BLACK
6
CONTINUOUS
10
259.197
20
-200.086
11
259.165
21
-200.529
0
LINE
8
BLACK
6
CONTINUOUS
10
259.165
20
-200.529
11
259.173
21
-200.974
0
LINE
8
BLACK
6
CONTINUOUS
10
259.173
20
-200.974
11
259.221
21
-201.416
0
LINE
8
BLACK
6
CONTINUOUS
10
431.369
20
-200.124
11
431.438
21
-199.727
0
LINE
8
BLACK
6
CONTINUOUS
10
431.438
20
-199.727
11
431.544
21
-199.339
0
LINE
8
BLACK
6
CONTINUOUS
10
431.544
20
-199.339
11
431.687
21
-198.962
0
LINE
8
BLACK
6
CONTINUOUS
10
431.687
20
-198.962
11
431.864
21
-198.601
0
LINE
8
BLACK
6
CONTINUOUS
10
431.864
20
-198.601
11
432.074
21
-198.257
0
LINE
8
BLACK
6
CONTINUOUS
10
432.074
20
-198.257
11
432.316
21
-197.935
0
LINE
8
BLACK
6
CONTINUOUS
10
432.316
20
-197.935
11
432.587
21
-197.637
0
LINE
8
BLACK
6
CONTINUOUS
10
432.587
20
-197.637
11
432.885
21
-197.366
0
LINE
8
BLACK
6
CONTINUOUS
10
432.885
20
-197.366
11
433.207
21
-197.124
0
LINE
8
BLACK
6
CONTINUOUS
10
433.207
20
-197.124
11
433.551
21
-196.914
0
LINE
8
BLACK
6
CONTINUOUS
10
433.551
20
-196.914
11
433.912
21
-196.737
0
LINE
8
BLACK
6
CONTINUOUS
10
433.912
20
-196.737
11
434.289
21
-196.594
0
LINE
8
BLACK
6
CONTINUOUS
10
434.289
20
-196.594
11
434.677
21
-196.488
0
LINE
8
BLACK
6
CONTINUOUS
10
434.677
20
-196.488
11
435.074
21
-196.419
0
LINE
8
BLACK
6
CONTINUOUS
10
435.074
20
-196.419
11
435.476
21
-196.387
0
LINE
8
BLACK
6
CONTINUOUS
10
435.476
20
-196.387
11
435.878
21
-196.393
0
LINE
8
BLACK
6
CONTINUOUS
10
435.878
20
-196.393
11
436.279
21
-196.438
0
LINE
8
BLACK
6
CONTINUOUS
10
436.279
20
-196.438
11
436.673
21
-196.519
0
LINE
8
BLACK
6
CONTINUOUS
10
436.673
20
-196.519
11
437.058
21
-196.638
0
LINE
8
BLACK
6
CONTINUOUS
10
437.058
20
-196.638
11
437.43
21
-196.792
0
LINE
8
BLACK
6
CONTINUOUS
10
437.43
20
-196.792
11
437.786
21
-196.98
0
LINE
8
BLACK
6
CONTINUOUS
10
437.786
20
-196.98
11
438.123
21
-197.201
0
LINE
8
BLACK
6
CONTINUOUS
10
438.123
20
-197.201
11
438.437
21
-197.453
0
LINE
8
BLACK
6
CONTINUOUS
10
438.437
20
-197.453
11
438.726
21
-197.734
0
LINE
8
BLACK
6
CONTINUOUS
10
438.726
20
-197.734
11
438.988
21
-198.04
0
LINE
8
BLACK
6
CONTINUOUS
10
438.988
20
-198.04
11
439.22
21
-198.369
0
LINE
8
BLACK
6
CONTINUOUS
10
439.22
20
-198.369
11
439.419
21
-198.719
0
LINE
8
BLACK
6
CONTINUOUS
10
439.419
20
-198.719
11
439.585
21
-199.086
0
LINE
8
BLACK
6
CONTINUOUS
10
439.585
20
-199.086
11
439.715
21
-199.467
0
LINE
8
BLACK
6
CONTINUOUS
10
439.715
20
-199.467
11
439.809
21
-199.859
0
LINE
8
BLACK
6
CONTINUOUS
10
439.809
20
-199.859
11
439.866
21
-200.258
0
LINE
8
BLACK
6
CONTINUOUS
10
439.866
20
-200.258
11
439.885
21
-200.66
0
LINE
8
BLACK
6
CONTINUOUS
10
439.885
20
-200.66
11
439.877
21
-200.928
0
LINE
8
BLACK
6
CONTINUOUS
10
439.877
20
-200.928
11
439.832
21
-201.329
0
LINE
8
BLACK
6
CONTINUOUS
10
439.832
20
-201.329
11
439.751
21
-201.723
0
LINE
8
BLACK
6
CONTINUOUS
10
439.751
20
-201.723
11
439.632
21
-202.108
0
LINE
8
BLACK
6
CONTINUOUS
10
439.632
20
-202.108
11
439.478
21
-202.48
0
LINE
8
BLACK
6
CONTINUOUS
10
439.478
20
-202.48
11
439.29
21
-202.836
0
LINE
8
BLACK
6
CONTINUOUS
10
439.29
20
-202.836
11
439.069
21
-203.173
0
LINE
8
BLACK
6
CONTINUOUS
10
439.069
20
-203.173
11
438.817
21
-203.487
0
LINE
8
BLACK
6
CONTINUOUS
10
438.817
20
-203.487
11
438.536
21
-203.776
0
LINE
8
BLACK
6
CONTINUOUS
10
438.536
20
-203.776
11
438.23
21
-204.038
0
LINE
8
BLACK
6
CONTINUOUS
10
438.23
20
-204.038
11
437.901
21
-204.27
0
LINE
8
BLACK
6
CONTINUOUS
10
437.901
20
-204.27
11
437.551
21
-204.469
0
LINE
8
BLACK
6
CONTINUOUS
10
437.551
20
-204.469
11
437.184
21
-204.635
0
LINE
8
BLACK
6
CONTINUOUS
10
437.184
20
-204.635
11
436.803
21
-204.765
0
LINE
8
BLACK
6
CONTINUOUS
10
436.803
20
-204.765
11
436.411
21
-204.859
0
LINE
8
BLACK
6
CONTINUOUS
10
436.411
20
-204.859
11
436.012
21
-204.916
0
LINE
8
BLACK
6
CONTINUOUS
10
436.012
20
-204.916
11
435.61
21
-204.935
0
LINE
8
BLACK
6
CONTINUOUS
10
435.61
20
-204.935
11
435.208
21
-204.916
0
LINE
8
BLACK
6
CONTINUOUS
10
435.208
20
-204.916
11
434.809
21
-204.859
0
LINE
8
BLACK
6
CONTINUOUS
10
434.809
20
-204.859
11
434.417
21
-204.765
0
LINE
8
BLACK
6
CONTINUOUS
10
434.417
20
-204.765
11
434.036
21
-204.635
0
LINE
8
BLACK
6
CONTINUOUS
10
434.036
20
-204.635
11
433.669
21
-204.469
0
LINE
8
BLACK
6
CONTINUOUS
10
433.669
20
-204.469
11
433.319
21
-204.27
0
LINE
8
BLACK
6
CONTINUOUS
10
433.319
20
-204.27
11
432.99
21
-204.038
0
LINE
8
BLACK
6
CONTINUOUS
10
432.99
20
-204.038
11
432.684
21
-203.776
0
LINE
8
BLACK
6
CONTINUOUS
10
432.684
20
-203.776
11
432.403
21
-203.487
0
LINE
8
BLACK
6
CONTINUOUS
10
432.403
20
-203.487
11
432.151
21
-203.173
0
LINE
8
BLACK
6
CONTINUOUS
10
432.151
20
-203.173
11
431.93
21
-202.836
0
LINE
8
BLACK
6
CONTINUOUS
10
431.93
20
-202.836
11
431.742
21
-202.48
0
LINE
8
BLACK
6
CONTINUOUS
10
431.742
20
-202.48
11
431.588
21
-202.108
0
LINE
8
BLACK
6
CONTINUOUS
10
431.588
20
-202.108
11
431.469
21
-201.723
0
LINE
8
BLACK
6
CONTINUOUS
10
431.469
20
-201.723
11
431.388
21
-201.329
0
LINE
8
BLACK
6
CONTINUOUS
10
431.388
20
-201.329
11
431.343
21
-200.928
0
LINE
8
BLACK
6
CONTINUOUS
10
431.343
20
-200.928
11
431.337
21
-200.527
0
LINE
8
BLACK
6
CONTINUOUS
10
431.337
20
-200.527
11
431.337
21
-200.526
0
LINE
8
BLACK
6
CONTINUOUS
10
431.337
20
-200.526
11
431.369
21
-200.124
0
LINE
8
BLACK
6
CONTINUOUS
10
431.432
20
-201.322
11
431.513
21
-201.712
0
LINE
8
BLACK
6
CONTINUOUS
10
431.513
20
-201.712
11
431.63
21
-202.093
0
LINE
8
BLACK
6
CONTINUOUS
10
431.63
20
-202.093
11
431.783
21
-202.461
0
LINE
8
BLACK
6
CONTINUOUS
10
431.783
20
-202.461
11
431.969
21
-202.813
0
LINE
8
BLACK
6
CONTINUOUS
10
431.969
20
-202.813
11
432.188
21
-203.146
0
LINE
8
BLACK
6
CONTINUOUS
10
432.188
20
-203.146
11
432.437
21
-203.457
0
LINE
8
BLACK
6
CONTINUOUS
10
432.437
20
-203.457
11
432.715
21
-203.743
0
LINE
8
BLACK
6
CONTINUOUS
10
432.715
20
-203.743
11
433.018
21
-204.002
0
LINE
8
BLACK
6
CONTINUOUS
10
433.018
20
-204.002
11
433.344
21
-204.231
0
LINE
8
BLACK
6
CONTINUOUS
10
433.344
20
-204.231
11
433.69
21
-204.429
0
LINE
8
BLACK
6
CONTINUOUS
10
433.69
20
-204.429
11
434.053
21
-204.593
0
LINE
8
BLACK
6
CONTINUOUS
10
434.053
20
-204.593
11
434.43
21
-204.722
0
LINE
8
BLACK
6
CONTINUOUS
10
434.43
20
-204.722
11
434.817
21
-204.815
0
LINE
8
BLACK
6
CONTINUOUS
10
434.817
20
-204.815
11
435.212
21
-204.871
0
LINE
8
BLACK
6
CONTINUOUS
10
435.212
20
-204.871
11
435.61
21
-204.89
0
LINE
8
BLACK
6
CONTINUOUS
10
435.61
20
-204.89
11
436.008
21
-204.871
0
LINE
8
BLACK
6
CONTINUOUS
10
436.008
20
-204.871
11
436.403
21
-204.815
0
LINE
8
BLACK
6
CONTINUOUS
10
436.403
20
-204.815
11
436.79
21
-204.722
0
LINE
8
BLACK
6
CONTINUOUS
10
436.79
20
-204.722
11
437.167
21
-204.593
0
LINE
8
BLACK
6
CONTINUOUS
10
437.167
20
-204.593
11
437.53
21
-204.429
0
LINE
8
BLACK
6
CONTINUOUS
10
437.53
20
-204.429
11
437.876
21
-204.231
0
LINE
8
BLACK
6
CONTINUOUS
10
437.876
20
-204.231
11
438.202
21
-204.002
0
LINE
8
BLACK
6
CONTINUOUS
10
438.202
20
-204.002
11
438.505
21
-203.743
0
LINE
8
BLACK
6
CONTINUOUS
10
438.505
20
-203.743
11
438.783
21
-203.457
0
LINE
8
BLACK
6
CONTINUOUS
10
438.783
20
-203.457
11
439.032
21
-203.146
0
LINE
8
BLACK
6
CONTINUOUS
10
439.032
20
-203.146
11
439.251
21
-202.813
0
LINE
8
BLACK
6
CONTINUOUS
10
439.251
20
-202.813
11
439.437
21
-202.461
0
LINE
8
BLACK
6
CONTINUOUS
10
439.437
20
-202.461
11
439.59
21
-202.093
0
LINE
8
BLACK
6
CONTINUOUS
10
439.59
20
-202.093
11
439.707
21
-201.712
0
LINE
8
BLACK
6
CONTINUOUS
10
439.707
20
-201.712
11
439.788
21
-201.322
0
LINE
8
BLACK
6
CONTINUOUS
10
439.788
20
-201.322
11
439.831
21
-200.926
0
LINE
8
BLACK
6
CONTINUOUS
10
439.831
20
-200.926
11
439.84
21
-200.66
0
LINE
8
BLACK
6
CONTINUOUS
10
439.84
20
-200.66
11
439.821
21
-200.262
0
LINE
8
BLACK
6
CONTINUOUS
10
439.821
20
-200.262
11
439.765
21
-199.867
0
LINE
8
BLACK
6
CONTINUOUS
10
439.765
20
-199.867
11
439.672
21
-199.48
0
LINE
8
BLACK
6
CONTINUOUS
10
439.672
20
-199.48
11
439.543
21
-199.103
0
LINE
8
BLACK
6
CONTINUOUS
10
439.543
20
-199.103
11
439.379
21
-198.74
0
LINE
8
BLACK
6
CONTINUOUS
10
439.379
20
-198.74
11
439.181
21
-198.394
0
LINE
8
BLACK
6
CONTINUOUS
10
439.181
20
-198.394
11
438.952
21
-198.068
0
LINE
8
BLACK
6
CONTINUOUS
10
438.952
20
-198.068
11
438.693
21
-197.765
0
LINE
8
BLACK
6
CONTINUOUS
10
438.693
20
-197.765
11
438.407
21
-197.487
0
LINE
8
BLACK
6
CONTINUOUS
10
438.407
20
-197.487
11
438.096
21
-197.238
0
LINE
8
BLACK
6
CONTINUOUS
10
438.096
20
-197.238
11
437.763
21
-197.019
0
LINE
8
BLACK
6
CONTINUOUS
10
437.763
20
-197.019
11
437.411
21
-196.833
0
LINE
8
BLACK
6
CONTINUOUS
10
437.411
20
-196.833
11
437.043
21
-196.68
0
LINE
8
BLACK
6
CONTINUOUS
10
437.043
20
-196.68
11
436.662
21
-196.563
0
LINE
8
BLACK
6
CONTINUOUS
10
436.662
20
-196.563
11
436.272
21
-196.482
0
LINE
8
BLACK
6
CONTINUOUS
10
436.272
20
-196.482
11
435.876
21
-196.439
0
LINE
8
BLACK
6
CONTINUOUS
10
435.876
20
-196.439
11
435.477
21
-196.432
0
LINE
8
BLACK
6
CONTINUOUS
10
435.477
20
-196.432
11
435.08
21
-196.464
0
LINE
8
BLACK
6
CONTINUOUS
10
435.08
20
-196.464
11
434.687
21
-196.532
0
LINE
8
BLACK
6
CONTINUOUS
10
434.687
20
-196.532
11
434.303
21
-196.637
0
LINE
8
BLACK
6
CONTINUOUS
10
434.303
20
-196.637
11
433.93
21
-196.778
0
LINE
8
BLACK
6
CONTINUOUS
10
433.93
20
-196.778
11
433.572
21
-196.953
0
LINE
8
BLACK
6
CONTINUOUS
10
433.572
20
-196.953
11
433.233
21
-197.162
0
LINE
8
BLACK
6
CONTINUOUS
10
433.233
20
-197.162
11
432.914
21
-197.401
0
LINE
8
BLACK
6
CONTINUOUS
10
432.914
20
-197.401
11
432.619
21
-197.669
0
LINE
8
BLACK
6
CONTINUOUS
10
432.619
20
-197.669
11
432.351
21
-197.964
0
LINE
8
BLACK
6
CONTINUOUS
10
432.351
20
-197.964
11
432.112
21
-198.283
0
LINE
8
BLACK
6
CONTINUOUS
10
432.112
20
-198.283
11
431.903
21
-198.622
0
LINE
8
BLACK
6
CONTINUOUS
10
431.903
20
-198.622
11
431.728
21
-198.98
0
LINE
8
BLACK
6
CONTINUOUS
10
431.728
20
-198.98
11
431.587
21
-199.353
0
LINE
8
BLACK
6
CONTINUOUS
10
431.587
20
-199.353
11
431.482
21
-199.737
0
LINE
8
BLACK
6
CONTINUOUS
10
431.482
20
-199.737
11
431.414
21
-200.13
0
LINE
8
BLACK
6
CONTINUOUS
10
431.414
20
-200.13
11
431.382
21
-200.527
0
LINE
8
BLACK
6
CONTINUOUS
10
431.382
20
-200.527
11
431.389
21
-200.926
0
LINE
8
BLACK
6
CONTINUOUS
10
431.389
20
-200.926
11
431.432
21
-201.322
  0
ENDSEC
  0
EOF
