G04 #@! TF.GenerationSoftware,KiCad,Pcbnew,5.1.10-88a1d61d58~90~ubuntu20.04.1*
G04 #@! TF.CreationDate,2021-08-11T09:12:16-04:00*
G04 #@! TF.ProjectId,single_ended_tube_amp_faceplate,73696e67-6c65-45f6-956e-6465645f7475,rev?*
G04 #@! TF.SameCoordinates,Original*
G04 #@! TF.FileFunction,Copper,L1,Top*
G04 #@! TF.FilePolarity,Positive*
%FSLAX46Y46*%
G04 Gerber Fmt 4.6, Leading zero omitted, Abs format (unit mm)*
G04 Created by KiCad (PCBNEW 5.1.10-88a1d61d58~90~ubuntu20.04.1) date 2021-08-11 09:12:16*
%MOMM*%
%LPD*%
G01*
G04 APERTURE LIST*
G04 #@! TA.AperFunction,NonConductor*
%ADD10C,0.254000*%
G04 #@! TD*
G04 #@! TA.AperFunction,NonConductor*
%ADD11C,0.150000*%
G04 #@! TD*
G04 APERTURE END LIST*
D10*
X385174545Y-698909D02*
X385525208Y-804780D01*
X385848625Y-976744D01*
X386132484Y-1208254D01*
X386365965Y-1490486D01*
X386540183Y-1812695D01*
X386648502Y-2162614D01*
X386690001Y-2557452D01*
X386690000Y-48227721D01*
X386651091Y-48624545D01*
X386545220Y-48975206D01*
X386373257Y-49298623D01*
X386141748Y-49582482D01*
X385859514Y-49815965D01*
X385537304Y-49990184D01*
X385187385Y-50098502D01*
X384792557Y-50140000D01*
X2572279Y-50140000D01*
X2175455Y-50101091D01*
X1824794Y-49995220D01*
X1501377Y-49823257D01*
X1217518Y-49591748D01*
X984035Y-49309514D01*
X809816Y-48987304D01*
X701498Y-48637385D01*
X660000Y-48242557D01*
X660000Y-25400000D01*
X45103500Y-25400000D01*
X45195045Y-26417149D01*
X45466738Y-27401607D01*
X45909846Y-28321731D01*
X46510128Y-29147948D01*
X47248290Y-29853703D01*
X48100607Y-30416312D01*
X49039685Y-30817693D01*
X50035340Y-31044945D01*
X51055573Y-31090764D01*
X52067591Y-30953677D01*
X53038867Y-30638090D01*
X53938185Y-30154147D01*
X54736638Y-29517401D01*
X55408565Y-28748319D01*
X55932369Y-27871619D01*
X56291214Y-26915479D01*
X56473568Y-25910630D01*
X56473568Y-25400000D01*
X72884750Y-25400000D01*
X72976295Y-26417149D01*
X73247988Y-27401607D01*
X73691096Y-28321731D01*
X74291378Y-29147948D01*
X75029540Y-29853703D01*
X75881857Y-30416312D01*
X76820935Y-30817693D01*
X77816590Y-31044945D01*
X78836823Y-31090764D01*
X79848841Y-30953677D01*
X80820117Y-30638090D01*
X81719435Y-30154147D01*
X82517888Y-29517401D01*
X83189815Y-28748319D01*
X83713619Y-27871619D01*
X84072464Y-26915479D01*
X84254818Y-25910630D01*
X84254818Y-25400000D01*
X100666000Y-25400000D01*
X100757545Y-26417149D01*
X101029238Y-27401607D01*
X101472346Y-28321731D01*
X102072628Y-29147948D01*
X102810790Y-29853703D01*
X103663107Y-30416312D01*
X104602185Y-30817693D01*
X105597840Y-31044945D01*
X106618073Y-31090764D01*
X107630091Y-30953677D01*
X108601367Y-30638090D01*
X109500685Y-30154147D01*
X110299138Y-29517401D01*
X110971065Y-28748319D01*
X111494869Y-27871619D01*
X111853714Y-26915479D01*
X112036068Y-25910630D01*
X112036068Y-25400000D01*
X128447250Y-25400000D01*
X128538795Y-26417149D01*
X128810488Y-27401607D01*
X129253596Y-28321731D01*
X129853878Y-29147948D01*
X130592040Y-29853703D01*
X131444357Y-30416312D01*
X132383435Y-30817693D01*
X133379090Y-31044945D01*
X134399323Y-31090764D01*
X135411341Y-30953677D01*
X136382617Y-30638090D01*
X137281935Y-30154147D01*
X138080388Y-29517401D01*
X138752315Y-28748319D01*
X139276119Y-27871619D01*
X139634964Y-26915479D01*
X139817318Y-25910630D01*
X139817318Y-25400000D01*
X156228500Y-25400000D01*
X156320045Y-26417149D01*
X156591738Y-27401607D01*
X157034846Y-28321731D01*
X157635128Y-29147948D01*
X158373290Y-29853703D01*
X159225607Y-30416312D01*
X160164685Y-30817693D01*
X161160340Y-31044945D01*
X162180573Y-31090764D01*
X163192591Y-30953677D01*
X164163867Y-30638090D01*
X165063185Y-30154147D01*
X165861638Y-29517401D01*
X166533565Y-28748319D01*
X167057369Y-27871619D01*
X167416214Y-26915479D01*
X167598568Y-25910630D01*
X167598568Y-24889370D01*
X167570112Y-24732561D01*
X350179350Y-24732561D01*
X350179350Y-26067439D01*
X350353586Y-27390897D01*
X350699078Y-28680290D01*
X351209914Y-29913556D01*
X351877353Y-31069594D01*
X352689975Y-32128624D01*
X353633876Y-33072525D01*
X354692906Y-33885147D01*
X355848944Y-34552586D01*
X357082210Y-35063422D01*
X358371603Y-35408914D01*
X359695061Y-35583150D01*
X361029939Y-35583150D01*
X362353397Y-35408914D01*
X363642790Y-35063422D01*
X364876056Y-34552586D01*
X366032094Y-33885147D01*
X367091124Y-33072525D01*
X368035025Y-32128624D01*
X368847647Y-31069594D01*
X369515086Y-29913556D01*
X370025922Y-28680290D01*
X370371414Y-27390897D01*
X370545650Y-26067439D01*
X370545650Y-24732561D01*
X370371414Y-23409103D01*
X370025922Y-22119710D01*
X369515086Y-20886444D01*
X368847647Y-19730406D01*
X368035025Y-18671376D01*
X367091124Y-17727475D01*
X366032094Y-16914853D01*
X364876056Y-16247414D01*
X363642790Y-15736578D01*
X362353397Y-15391086D01*
X361029939Y-15216850D01*
X359695061Y-15216850D01*
X358371603Y-15391086D01*
X357082210Y-15736578D01*
X355848944Y-16247414D01*
X354692906Y-16914853D01*
X353633876Y-17727475D01*
X352689975Y-18671376D01*
X351877353Y-19730406D01*
X351209914Y-20886444D01*
X350699078Y-22119710D01*
X350353586Y-23409103D01*
X350179350Y-24732561D01*
X167570112Y-24732561D01*
X167416214Y-23884521D01*
X167057369Y-22928381D01*
X166533565Y-22051681D01*
X165861638Y-21282599D01*
X165063185Y-20645853D01*
X164163867Y-20161910D01*
X163192591Y-19846323D01*
X162180573Y-19709236D01*
X161160340Y-19755055D01*
X160164685Y-19982307D01*
X159225607Y-20383688D01*
X158373290Y-20946297D01*
X157635128Y-21652052D01*
X157034846Y-22478269D01*
X156591738Y-23398393D01*
X156320045Y-24382851D01*
X156228500Y-25400000D01*
X139817318Y-25400000D01*
X139817318Y-24889370D01*
X139634964Y-23884521D01*
X139276119Y-22928381D01*
X138752315Y-22051681D01*
X138080388Y-21282599D01*
X137281935Y-20645853D01*
X136382617Y-20161910D01*
X135411341Y-19846323D01*
X134399323Y-19709236D01*
X133379090Y-19755055D01*
X132383435Y-19982307D01*
X131444357Y-20383688D01*
X130592040Y-20946297D01*
X129853878Y-21652052D01*
X129253596Y-22478269D01*
X128810488Y-23398393D01*
X128538795Y-24382851D01*
X128447250Y-25400000D01*
X112036068Y-25400000D01*
X112036068Y-24889370D01*
X111853714Y-23884521D01*
X111494869Y-22928381D01*
X110971065Y-22051681D01*
X110299138Y-21282599D01*
X109500685Y-20645853D01*
X108601367Y-20161910D01*
X107630091Y-19846323D01*
X106618073Y-19709236D01*
X105597840Y-19755055D01*
X104602185Y-19982307D01*
X103663107Y-20383688D01*
X102810790Y-20946297D01*
X102072628Y-21652052D01*
X101472346Y-22478269D01*
X101029238Y-23398393D01*
X100757545Y-24382851D01*
X100666000Y-25400000D01*
X84254818Y-25400000D01*
X84254818Y-24889370D01*
X84072464Y-23884521D01*
X83713619Y-22928381D01*
X83189815Y-22051681D01*
X82517888Y-21282599D01*
X81719435Y-20645853D01*
X80820117Y-20161910D01*
X79848841Y-19846323D01*
X78836823Y-19709236D01*
X77816590Y-19755055D01*
X76820935Y-19982307D01*
X75881857Y-20383688D01*
X75029540Y-20946297D01*
X74291378Y-21652052D01*
X73691096Y-22478269D01*
X73247988Y-23398393D01*
X72976295Y-24382851D01*
X72884750Y-25400000D01*
X56473568Y-25400000D01*
X56473568Y-24889370D01*
X56291214Y-23884521D01*
X55932369Y-22928381D01*
X55408565Y-22051681D01*
X54736638Y-21282599D01*
X53938185Y-20645853D01*
X53038867Y-20161910D01*
X52067591Y-19846323D01*
X51055573Y-19709236D01*
X50035340Y-19755055D01*
X49039685Y-19982307D01*
X48100607Y-20383688D01*
X47248290Y-20946297D01*
X46510128Y-21652052D01*
X45909846Y-22478269D01*
X45466738Y-23398393D01*
X45195045Y-24382851D01*
X45103500Y-25400000D01*
X660000Y-25400000D01*
X660000Y-19050000D01*
X13353500Y-19050000D01*
X13445045Y-20067149D01*
X13716738Y-21051607D01*
X14159846Y-21971731D01*
X14760128Y-22797948D01*
X15498290Y-23503703D01*
X16350607Y-24066312D01*
X17289685Y-24467693D01*
X18285340Y-24694945D01*
X19305573Y-24740764D01*
X20317591Y-24603677D01*
X21288867Y-24288090D01*
X22188185Y-23804147D01*
X22986638Y-23167401D01*
X23658565Y-22398319D01*
X24182369Y-21521619D01*
X24541214Y-20565479D01*
X24723568Y-19560630D01*
X24723568Y-18539370D01*
X24541214Y-17534521D01*
X24182369Y-16578381D01*
X23658565Y-15701681D01*
X22986638Y-14932599D01*
X22188185Y-14295853D01*
X21288867Y-13811910D01*
X20317591Y-13496323D01*
X19305573Y-13359236D01*
X18285340Y-13405055D01*
X17289685Y-13632307D01*
X16350607Y-14033688D01*
X15498290Y-14596297D01*
X14760128Y-15302052D01*
X14159846Y-16128269D01*
X13716738Y-17048393D01*
X13445045Y-18032851D01*
X13353500Y-19050000D01*
X660000Y-19050000D01*
X660000Y-2572279D01*
X698909Y-2175455D01*
X804780Y-1824792D01*
X976744Y-1501375D01*
X1208254Y-1217516D01*
X1490486Y-984035D01*
X1812695Y-809817D01*
X2162614Y-701498D01*
X2557443Y-660000D01*
X384777721Y-660000D01*
X385174545Y-698909D01*
G04 #@! TA.AperFunction,NonConductor*
D11*
G36*
X385174545Y-698909D02*
G01*
X385525208Y-804780D01*
X385848625Y-976744D01*
X386132484Y-1208254D01*
X386365965Y-1490486D01*
X386540183Y-1812695D01*
X386648502Y-2162614D01*
X386690001Y-2557452D01*
X386690000Y-48227721D01*
X386651091Y-48624545D01*
X386545220Y-48975206D01*
X386373257Y-49298623D01*
X386141748Y-49582482D01*
X385859514Y-49815965D01*
X385537304Y-49990184D01*
X385187385Y-50098502D01*
X384792557Y-50140000D01*
X2572279Y-50140000D01*
X2175455Y-50101091D01*
X1824794Y-49995220D01*
X1501377Y-49823257D01*
X1217518Y-49591748D01*
X984035Y-49309514D01*
X809816Y-48987304D01*
X701498Y-48637385D01*
X660000Y-48242557D01*
X660000Y-25400000D01*
X45103500Y-25400000D01*
X45195045Y-26417149D01*
X45466738Y-27401607D01*
X45909846Y-28321731D01*
X46510128Y-29147948D01*
X47248290Y-29853703D01*
X48100607Y-30416312D01*
X49039685Y-30817693D01*
X50035340Y-31044945D01*
X51055573Y-31090764D01*
X52067591Y-30953677D01*
X53038867Y-30638090D01*
X53938185Y-30154147D01*
X54736638Y-29517401D01*
X55408565Y-28748319D01*
X55932369Y-27871619D01*
X56291214Y-26915479D01*
X56473568Y-25910630D01*
X56473568Y-25400000D01*
X72884750Y-25400000D01*
X72976295Y-26417149D01*
X73247988Y-27401607D01*
X73691096Y-28321731D01*
X74291378Y-29147948D01*
X75029540Y-29853703D01*
X75881857Y-30416312D01*
X76820935Y-30817693D01*
X77816590Y-31044945D01*
X78836823Y-31090764D01*
X79848841Y-30953677D01*
X80820117Y-30638090D01*
X81719435Y-30154147D01*
X82517888Y-29517401D01*
X83189815Y-28748319D01*
X83713619Y-27871619D01*
X84072464Y-26915479D01*
X84254818Y-25910630D01*
X84254818Y-25400000D01*
X100666000Y-25400000D01*
X100757545Y-26417149D01*
X101029238Y-27401607D01*
X101472346Y-28321731D01*
X102072628Y-29147948D01*
X102810790Y-29853703D01*
X103663107Y-30416312D01*
X104602185Y-30817693D01*
X105597840Y-31044945D01*
X106618073Y-31090764D01*
X107630091Y-30953677D01*
X108601367Y-30638090D01*
X109500685Y-30154147D01*
X110299138Y-29517401D01*
X110971065Y-28748319D01*
X111494869Y-27871619D01*
X111853714Y-26915479D01*
X112036068Y-25910630D01*
X112036068Y-25400000D01*
X128447250Y-25400000D01*
X128538795Y-26417149D01*
X128810488Y-27401607D01*
X129253596Y-28321731D01*
X129853878Y-29147948D01*
X130592040Y-29853703D01*
X131444357Y-30416312D01*
X132383435Y-30817693D01*
X133379090Y-31044945D01*
X134399323Y-31090764D01*
X135411341Y-30953677D01*
X136382617Y-30638090D01*
X137281935Y-30154147D01*
X138080388Y-29517401D01*
X138752315Y-28748319D01*
X139276119Y-27871619D01*
X139634964Y-26915479D01*
X139817318Y-25910630D01*
X139817318Y-25400000D01*
X156228500Y-25400000D01*
X156320045Y-26417149D01*
X156591738Y-27401607D01*
X157034846Y-28321731D01*
X157635128Y-29147948D01*
X158373290Y-29853703D01*
X159225607Y-30416312D01*
X160164685Y-30817693D01*
X161160340Y-31044945D01*
X162180573Y-31090764D01*
X163192591Y-30953677D01*
X164163867Y-30638090D01*
X165063185Y-30154147D01*
X165861638Y-29517401D01*
X166533565Y-28748319D01*
X167057369Y-27871619D01*
X167416214Y-26915479D01*
X167598568Y-25910630D01*
X167598568Y-24889370D01*
X167570112Y-24732561D01*
X350179350Y-24732561D01*
X350179350Y-26067439D01*
X350353586Y-27390897D01*
X350699078Y-28680290D01*
X351209914Y-29913556D01*
X351877353Y-31069594D01*
X352689975Y-32128624D01*
X353633876Y-33072525D01*
X354692906Y-33885147D01*
X355848944Y-34552586D01*
X357082210Y-35063422D01*
X358371603Y-35408914D01*
X359695061Y-35583150D01*
X361029939Y-35583150D01*
X362353397Y-35408914D01*
X363642790Y-35063422D01*
X364876056Y-34552586D01*
X366032094Y-33885147D01*
X367091124Y-33072525D01*
X368035025Y-32128624D01*
X368847647Y-31069594D01*
X369515086Y-29913556D01*
X370025922Y-28680290D01*
X370371414Y-27390897D01*
X370545650Y-26067439D01*
X370545650Y-24732561D01*
X370371414Y-23409103D01*
X370025922Y-22119710D01*
X369515086Y-20886444D01*
X368847647Y-19730406D01*
X368035025Y-18671376D01*
X367091124Y-17727475D01*
X366032094Y-16914853D01*
X364876056Y-16247414D01*
X363642790Y-15736578D01*
X362353397Y-15391086D01*
X361029939Y-15216850D01*
X359695061Y-15216850D01*
X358371603Y-15391086D01*
X357082210Y-15736578D01*
X355848944Y-16247414D01*
X354692906Y-16914853D01*
X353633876Y-17727475D01*
X352689975Y-18671376D01*
X351877353Y-19730406D01*
X351209914Y-20886444D01*
X350699078Y-22119710D01*
X350353586Y-23409103D01*
X350179350Y-24732561D01*
X167570112Y-24732561D01*
X167416214Y-23884521D01*
X167057369Y-22928381D01*
X166533565Y-22051681D01*
X165861638Y-21282599D01*
X165063185Y-20645853D01*
X164163867Y-20161910D01*
X163192591Y-19846323D01*
X162180573Y-19709236D01*
X161160340Y-19755055D01*
X160164685Y-19982307D01*
X159225607Y-20383688D01*
X158373290Y-20946297D01*
X157635128Y-21652052D01*
X157034846Y-22478269D01*
X156591738Y-23398393D01*
X156320045Y-24382851D01*
X156228500Y-25400000D01*
X139817318Y-25400000D01*
X139817318Y-24889370D01*
X139634964Y-23884521D01*
X139276119Y-22928381D01*
X138752315Y-22051681D01*
X138080388Y-21282599D01*
X137281935Y-20645853D01*
X136382617Y-20161910D01*
X135411341Y-19846323D01*
X134399323Y-19709236D01*
X133379090Y-19755055D01*
X132383435Y-19982307D01*
X131444357Y-20383688D01*
X130592040Y-20946297D01*
X129853878Y-21652052D01*
X129253596Y-22478269D01*
X128810488Y-23398393D01*
X128538795Y-24382851D01*
X128447250Y-25400000D01*
X112036068Y-25400000D01*
X112036068Y-24889370D01*
X111853714Y-23884521D01*
X111494869Y-22928381D01*
X110971065Y-22051681D01*
X110299138Y-21282599D01*
X109500685Y-20645853D01*
X108601367Y-20161910D01*
X107630091Y-19846323D01*
X106618073Y-19709236D01*
X105597840Y-19755055D01*
X104602185Y-19982307D01*
X103663107Y-20383688D01*
X102810790Y-20946297D01*
X102072628Y-21652052D01*
X101472346Y-22478269D01*
X101029238Y-23398393D01*
X100757545Y-24382851D01*
X100666000Y-25400000D01*
X84254818Y-25400000D01*
X84254818Y-24889370D01*
X84072464Y-23884521D01*
X83713619Y-22928381D01*
X83189815Y-22051681D01*
X82517888Y-21282599D01*
X81719435Y-20645853D01*
X80820117Y-20161910D01*
X79848841Y-19846323D01*
X78836823Y-19709236D01*
X77816590Y-19755055D01*
X76820935Y-19982307D01*
X75881857Y-20383688D01*
X75029540Y-20946297D01*
X74291378Y-21652052D01*
X73691096Y-22478269D01*
X73247988Y-23398393D01*
X72976295Y-24382851D01*
X72884750Y-25400000D01*
X56473568Y-25400000D01*
X56473568Y-24889370D01*
X56291214Y-23884521D01*
X55932369Y-22928381D01*
X55408565Y-22051681D01*
X54736638Y-21282599D01*
X53938185Y-20645853D01*
X53038867Y-20161910D01*
X52067591Y-19846323D01*
X51055573Y-19709236D01*
X50035340Y-19755055D01*
X49039685Y-19982307D01*
X48100607Y-20383688D01*
X47248290Y-20946297D01*
X46510128Y-21652052D01*
X45909846Y-22478269D01*
X45466738Y-23398393D01*
X45195045Y-24382851D01*
X45103500Y-25400000D01*
X660000Y-25400000D01*
X660000Y-19050000D01*
X13353500Y-19050000D01*
X13445045Y-20067149D01*
X13716738Y-21051607D01*
X14159846Y-21971731D01*
X14760128Y-22797948D01*
X15498290Y-23503703D01*
X16350607Y-24066312D01*
X17289685Y-24467693D01*
X18285340Y-24694945D01*
X19305573Y-24740764D01*
X20317591Y-24603677D01*
X21288867Y-24288090D01*
X22188185Y-23804147D01*
X22986638Y-23167401D01*
X23658565Y-22398319D01*
X24182369Y-21521619D01*
X24541214Y-20565479D01*
X24723568Y-19560630D01*
X24723568Y-18539370D01*
X24541214Y-17534521D01*
X24182369Y-16578381D01*
X23658565Y-15701681D01*
X22986638Y-14932599D01*
X22188185Y-14295853D01*
X21288867Y-13811910D01*
X20317591Y-13496323D01*
X19305573Y-13359236D01*
X18285340Y-13405055D01*
X17289685Y-13632307D01*
X16350607Y-14033688D01*
X15498290Y-14596297D01*
X14760128Y-15302052D01*
X14159846Y-16128269D01*
X13716738Y-17048393D01*
X13445045Y-18032851D01*
X13353500Y-19050000D01*
X660000Y-19050000D01*
X660000Y-2572279D01*
X698909Y-2175455D01*
X804780Y-1824792D01*
X976744Y-1501375D01*
X1208254Y-1217516D01*
X1490486Y-984035D01*
X1812695Y-809817D01*
X2162614Y-701498D01*
X2557443Y-660000D01*
X384777721Y-660000D01*
X385174545Y-698909D01*
G37*
G04 #@! TD.AperFunction*
M02*
