M48
; DRILL file {KiCad 5.1.12-84ad8e8a86~92~ubuntu20.04.1} date Sun 12 Dec 2021 07:41:45 PM EST
; FORMAT={-:-/ absolute / metric / decimal}
; #@! TF.CreationDate,2021-12-12T19:41:45-05:00
; #@! TF.GenerationSoftware,Kicad,Pcbnew,5.1.12-84ad8e8a86~92~ubuntu20.04.1
; #@! TF.FileFunction,Plated,1,2,PTH
FMAT,2
METRIC
T1C0.800
T2C1.000
T3C1.100
T4C1.200
T5C1.300
T6C1.550
T7C1.600
T8C1.800
T9C3.200
T10C3.200
%
G90
G05
T1
X43.815Y-53.34
X53.975Y-53.34
X63.58Y-55.88
X68.58Y-55.88
X99.06Y-78.74
X99.06Y-83.82
X99.14Y-55.88
X104.14Y-55.88
X109.22Y-78.74
X109.22Y-83.82
X113.03Y-71.12
X113.03Y-73.62
X114.3Y-86.995
X118.11Y-71.12
X118.11Y-81.28
X119.3Y-86.995
X144.86Y-50.8
X149.86Y-50.8
X160.02Y-76.2
X160.02Y-81.28
X160.02Y-86.36
X165.1Y-92.075
X165.1Y-94.575
X170.18Y-76.2
X170.18Y-81.28
X170.18Y-86.36
T2
X36.83Y-58.58
X36.83Y-68.58
X129.7Y-50.8
X129.7Y-58.42
X139.7Y-50.8
X139.7Y-58.42
T3
X-21.59Y-94.615
X-21.59Y-104.775
X-21.59Y-107.95
X-21.59Y-118.11
X-16.51Y-94.615
X-16.51Y-104.775
X-16.51Y-107.95
X-16.51Y-118.11
X-11.43Y-94.615
X-11.43Y-104.775
X-11.43Y-107.95
X-11.43Y-118.11
X-6.35Y-94.615
X-6.35Y-104.775
X-6.35Y-107.95
X-6.35Y-118.11
T4
X-46.99Y-57.15
X-46.99Y-87.63
X-38.1Y-61.976
X-38.1Y-79.756
X-30.6Y-61.976
X-30.6Y-79.756
X-21.59Y-57.15
X-21.59Y-87.63
X-11.43Y-60.706
X-11.43Y-81.026
X-3.93Y-60.706
X-3.93Y-81.026
X8.89Y-60.706
X8.89Y-81.026
X16.39Y-60.706
X16.39Y-81.026
X26.67Y-57.15
X26.67Y-87.63
X43.815Y-58.42
X43.815Y-78.74
X46.935Y-45.085
X51.435Y-45.085
X52.07Y-58.42
X52.07Y-78.74
X57.15Y-114.3
X63.5Y-106.68
X77.47Y-114.3
X83.82Y-63.5
X83.82Y-106.68
X88.9Y-114.3
X88.9Y-121.8
X93.98Y-71.12
X93.98Y-91.44
X93.98Y-106.68
X104.14Y-63.5
X114.3Y-106.68
X119.96Y-45.02
X121.92Y-114.3
X121.92Y-121.8
X124.46Y-45.02
X124.46Y-104.14
X135.78Y-45.02
X140.28Y-45.02
X142.24Y-63.5
X144.78Y-45.02
X144.78Y-104.14
X151.765Y-104.14
X151.765Y-124.46
X154.885Y-45.085
X154.94Y-71.12
X154.94Y-91.44
X159.385Y-45.085
X162.56Y-63.5
T5
X73.66Y-92.99
X134.62Y-92.99
T6
X-40.64Y-100.33
X-40.36Y-47.836
X-35.84Y-100.33
X-35.56Y-47.836
X-0.938Y-48.006
X3.81Y-100.33
X3.862Y-48.006
X8.61Y-100.33
X8.662Y-48.006
X13.41Y-100.33
X13.462Y-48.006
X18.21Y-100.33
X18.262Y-48.006
X53.34Y-93.98
X53.34Y-98.78
X53.34Y-113.03
X53.34Y-117.83
T7
X-45.72Y-95.25
X-40.64Y-95.25
X-35.56Y-95.25
X-30.48Y-95.25
T8
X63.16Y-78.74
X65.165Y-72.568
X65.165Y-84.912
X70.415Y-68.754
X76.905Y-68.754
X76.905Y-88.726
X82.155Y-72.568
X82.155Y-84.912
X84.16Y-78.74
X124.12Y-78.74
X126.125Y-72.568
X126.125Y-84.912
X131.375Y-68.754
X137.865Y-68.754
X137.865Y-88.726
X143.115Y-72.568
X143.115Y-84.912
X145.12Y-78.74
T9
X-48.26Y-115.57
X25.4Y-33.02
X25.4Y-115.57
X38.1Y-33.02
X38.1Y-124.46
X60.96Y-63.5
X73.66Y-64.49
X86.36Y-93.98
X121.92Y-63.5
X134.62Y-64.49
X147.32Y-93.98
X167.64Y-33.02
X167.64Y-124.46
T10
X-48.26Y-33.02
T0
M30
