G04 #@! TF.GenerationSoftware,KiCad,Pcbnew,5.1.12-84ad8e8a86~92~ubuntu20.04.1*
G04 #@! TF.CreationDate,2021-12-12T19:41:42-05:00*
G04 #@! TF.ProjectId,it_is_the_champion,69745f69-735f-4746-9865-5f6368616d70,0.1*
G04 #@! TF.SameCoordinates,Original*
G04 #@! TF.FileFunction,Profile,NP*
%FSLAX46Y46*%
G04 Gerber Fmt 4.6, Leading zero omitted, Abs format (unit mm)*
G04 Created by KiCad (PCBNEW 5.1.12-84ad8e8a86~92~ubuntu20.04.1) date 2021-12-12 19:41:42*
%MOMM*%
%LPD*%
G01*
G04 APERTURE LIST*
G04 #@! TA.AperFunction,Profile*
%ADD10C,0.100000*%
G04 #@! TD*
G04 APERTURE END LIST*
D10*
X33020000Y-38100000D02*
X33020000Y-33020000D01*
X30480000Y-38100000D02*
X30480000Y-33020000D01*
X33020000Y-43180000D02*
X33020000Y-60960000D01*
X30480000Y-60960000D02*
X30480000Y-43180000D01*
X33020000Y-82550000D02*
X33020000Y-66040000D01*
X30480000Y-66040000D02*
X30480000Y-82550000D01*
X33020000Y-105410000D02*
X33020000Y-87630000D01*
X30480000Y-105410000D02*
X30480000Y-87630000D01*
X33020000Y-124460000D02*
X33020000Y-110490000D01*
X30480000Y-115570000D02*
X30480000Y-110490000D01*
X30480000Y-110490000D02*
G75*
G02*
X33020000Y-110490000I1270000J0D01*
G01*
X33020000Y-105410000D02*
G75*
G02*
X30480000Y-105410000I-1270000J0D01*
G01*
X30480000Y-87630000D02*
G75*
G02*
X33020000Y-87630000I1270000J0D01*
G01*
X33020000Y-82550000D02*
G75*
G02*
X30480000Y-82550000I-1270000J0D01*
G01*
X30480000Y-66040000D02*
G75*
G02*
X33020000Y-66040000I1270000J0D01*
G01*
X33020000Y-60960000D02*
G75*
G02*
X30480000Y-60960000I-1270000J0D01*
G01*
X30480000Y-43180000D02*
G75*
G02*
X33020000Y-43180000I1270000J0D01*
G01*
X33020000Y-38100000D02*
G75*
G02*
X30480000Y-38100000I-1270000J0D01*
G01*
X30480000Y-115570000D02*
G75*
G02*
X25400000Y-120650000I-5080000J0D01*
G01*
X25400000Y-27940000D02*
G75*
G02*
X30480000Y-33020000I0J-5080000D01*
G01*
X-53340000Y-33020000D02*
G75*
G02*
X-48260000Y-27940000I5080000J0D01*
G01*
X-48260000Y-120650000D02*
G75*
G02*
X-53340000Y-115570000I0J5080000D01*
G01*
X25400000Y-120650000D02*
X-48260000Y-120650000D01*
X-48260000Y-27940000D02*
X25400000Y-27940000D01*
X-53340000Y-115570000D02*
X-53340000Y-33020000D01*
X172720000Y-124460000D02*
G75*
G02*
X167640000Y-129540000I-5080000J0D01*
G01*
X167640000Y-27940000D02*
G75*
G02*
X172720000Y-33020000I0J-5080000D01*
G01*
X38100000Y-129540000D02*
G75*
G02*
X33020000Y-124460000I0J5080000D01*
G01*
X33020000Y-33020000D02*
G75*
G02*
X38100000Y-27940000I5080000J0D01*
G01*
X38100000Y-27940000D02*
X167640000Y-27940000D01*
X33020000Y-33020000D02*
X33020000Y-33020000D01*
X167640000Y-129540000D02*
X38100000Y-129540000D01*
X172720000Y-33020000D02*
X172720000Y-124460000D01*
M02*
