G04 #@! TF.GenerationSoftware,KiCad,Pcbnew,5.1.12-84ad8e8a86~92~ubuntu20.04.1*
G04 #@! TF.CreationDate,2021-12-12T19:41:42-05:00*
G04 #@! TF.ProjectId,it_is_the_champion,69745f69-735f-4746-9865-5f6368616d70,0.1*
G04 #@! TF.SameCoordinates,Original*
G04 #@! TF.FileFunction,Legend,Bot*
G04 #@! TF.FilePolarity,Positive*
%FSLAX46Y46*%
G04 Gerber Fmt 4.6, Leading zero omitted, Abs format (unit mm)*
G04 Created by KiCad (PCBNEW 5.1.12-84ad8e8a86~92~ubuntu20.04.1) date 2021-12-12 19:41:42*
%MOMM*%
%LPD*%
G01*
G04 APERTURE LIST*
%ADD10C,0.100000*%
%ADD11C,0.120000*%
%ADD12C,0.150000*%
%ADD13C,0.500000*%
%ADD14O,2.400000X2.400000*%
%ADD15C,2.400000*%
%ADD16C,2.000000*%
%ADD17C,2.500000*%
%ADD18O,3.500000X3.500000*%
%ADD19C,4.000000*%
%ADD20C,6.000000*%
%ADD21C,1.000000*%
%ADD22C,2.800000*%
%ADD23C,2.550000*%
%ADD24R,2.400000X2.400000*%
%ADD25C,5.600000*%
%ADD26C,5.599999*%
%ADD27C,1.600000*%
%ADD28O,1.600000X1.600000*%
%ADD29O,2.200000X2.200000*%
%ADD30R,2.200000X2.200000*%
%ADD31R,1.600000X1.600000*%
%ADD32R,3.200000X3.200000*%
%ADD33C,3.200000*%
G04 APERTURE END LIST*
D10*
X33020000Y-110280000D02*
G75*
G03*
X30480000Y-110280000I-1270000J0D01*
G01*
X33020000Y-105620000D02*
G75*
G02*
X30480000Y-105620000I-1270000J0D01*
G01*
X33020000Y-87420000D02*
G75*
G03*
X30480000Y-87420000I-1270000J0D01*
G01*
X33020000Y-82760000D02*
G75*
G02*
X30480000Y-82760000I-1270000J0D01*
G01*
X33020000Y-65830000D02*
G75*
G03*
X30480000Y-65830000I-1270000J0D01*
G01*
X33020000Y-61170000D02*
G75*
G02*
X30480000Y-61170000I-1270000J0D01*
G01*
X33020000Y-42970000D02*
G75*
G03*
X30480000Y-42970000I-1270000J0D01*
G01*
X33020000Y-38310000D02*
G75*
G02*
X30480000Y-38310000I-1270000J0D01*
G01*
D11*
X71120000Y-62230000D02*
X63703402Y-69447175D01*
X76200000Y-62230000D02*
X83589644Y-69418380D01*
X63730355Y-88061621D02*
X71120000Y-95250000D01*
X76200000Y-95250000D02*
X83595923Y-88054927D01*
X86280000Y-78740000D02*
G75*
G03*
X86280000Y-78740000I-12620000J0D01*
G01*
X83595923Y-88054927D02*
G75*
G03*
X87279487Y-78740000I-9935923J9314927D01*
G01*
X71120000Y-95250000D02*
G75*
G03*
X76200000Y-95250000I2540000J2540000D01*
G01*
X76200000Y-62230000D02*
G75*
G03*
X71120000Y-62230000I-2540000J-2540000D01*
G01*
X87279487Y-78740000D02*
G75*
G03*
X83589644Y-69418380I-13619487J0D01*
G01*
X63703402Y-69447175D02*
G75*
G03*
X63730356Y-88061620I9956598J-9292825D01*
G01*
X132080000Y-62230000D02*
X124663402Y-69447175D01*
X137160000Y-62230000D02*
X144549644Y-69418380D01*
X124690355Y-88061621D02*
X132080000Y-95250000D01*
X137160000Y-95250000D02*
X144555923Y-88054927D01*
X147240000Y-78740000D02*
G75*
G03*
X147240000Y-78740000I-12620000J0D01*
G01*
X144555923Y-88054927D02*
G75*
G03*
X148239487Y-78740000I-9935923J9314927D01*
G01*
X132080000Y-95250000D02*
G75*
G03*
X137160000Y-95250000I2540000J2540000D01*
G01*
X137160000Y-62230000D02*
G75*
G03*
X132080000Y-62230000I-2540000J-2540000D01*
G01*
X148239487Y-78740000D02*
G75*
G03*
X144549644Y-69418380I-13619487J0D01*
G01*
X124663402Y-69447175D02*
G75*
G03*
X124690356Y-88061620I9956598J-9292825D01*
G01*
D12*
X74469523Y-97242380D02*
X74136190Y-98242380D01*
X73802857Y-97242380D01*
X73517142Y-97337619D02*
X73469523Y-97290000D01*
X73374285Y-97242380D01*
X73136190Y-97242380D01*
X73040952Y-97290000D01*
X72993333Y-97337619D01*
X72945714Y-97432857D01*
X72945714Y-97528095D01*
X72993333Y-97670952D01*
X73564761Y-98242380D01*
X72945714Y-98242380D01*
X135429523Y-97242380D02*
X135096190Y-98242380D01*
X134762857Y-97242380D01*
X133905714Y-98242380D02*
X134477142Y-98242380D01*
X134191428Y-98242380D02*
X134191428Y-97242380D01*
X134286666Y-97385238D01*
X134381904Y-97480476D01*
X134477142Y-97528095D01*
%LPC*%
D13*
X30650000Y-107150000D03*
X30650000Y-108750000D03*
X32850000Y-108750000D03*
X32850000Y-107150000D03*
X30650000Y-107950000D03*
X32850000Y-107950000D03*
X30650000Y-84290000D03*
X30650000Y-85890000D03*
X32850000Y-85890000D03*
X32850000Y-84290000D03*
X30650000Y-85090000D03*
X32850000Y-85090000D03*
X30650000Y-62700000D03*
X30650000Y-64300000D03*
X32850000Y-64300000D03*
X32850000Y-62700000D03*
X30650000Y-63500000D03*
X32850000Y-63500000D03*
X30650000Y-39840000D03*
X30650000Y-41440000D03*
X32850000Y-41440000D03*
X32850000Y-39840000D03*
X30650000Y-40640000D03*
X32850000Y-40640000D03*
D14*
X142240000Y-63500000D03*
D15*
X162560000Y-63500000D03*
G36*
G01*
X52435000Y-44335000D02*
X52435000Y-45835000D01*
G75*
G02*
X52185000Y-46085000I-250000J0D01*
G01*
X50685000Y-46085000D01*
G75*
G02*
X50435000Y-45835000I0J250000D01*
G01*
X50435000Y-44335000D01*
G75*
G02*
X50685000Y-44085000I250000J0D01*
G01*
X52185000Y-44085000D01*
G75*
G02*
X52435000Y-44335000I0J-250000D01*
G01*
G37*
D16*
X46935000Y-45085000D03*
D17*
X51435000Y-33085000D03*
X46935000Y-33085000D03*
G36*
G01*
X160385000Y-44335000D02*
X160385000Y-45835000D01*
G75*
G02*
X160135000Y-46085000I-250000J0D01*
G01*
X158635000Y-46085000D01*
G75*
G02*
X158385000Y-45835000I0J250000D01*
G01*
X158385000Y-44335000D01*
G75*
G02*
X158635000Y-44085000I250000J0D01*
G01*
X160135000Y-44085000D01*
G75*
G02*
X160385000Y-44335000I0J-250000D01*
G01*
G37*
D16*
X154885000Y-45085000D03*
D17*
X159385000Y-33085000D03*
X154885000Y-33085000D03*
D18*
X65165322Y-84911745D03*
X63160000Y-78740000D03*
X65165322Y-72568255D03*
X70415322Y-68753907D03*
X76904678Y-68753907D03*
X82154678Y-72568255D03*
X84160000Y-78740000D03*
X82154678Y-84911745D03*
X76904678Y-88726093D03*
D19*
X73660000Y-92990000D03*
D20*
X73660000Y-64490000D03*
D21*
X73660000Y-78740000D03*
D18*
X126125322Y-84911745D03*
X124120000Y-78740000D03*
X126125322Y-72568255D03*
X131375322Y-68753907D03*
X137864678Y-68753907D03*
X143114678Y-72568255D03*
X145120000Y-78740000D03*
X143114678Y-84911745D03*
X137864678Y-88726093D03*
D19*
X134620000Y-92990000D03*
D20*
X134620000Y-64490000D03*
D21*
X134620000Y-78740000D03*
D14*
X151765000Y-124460000D03*
D15*
X151765000Y-104140000D03*
D14*
X93980000Y-106680000D03*
D15*
X114300000Y-106680000D03*
D14*
X77470000Y-114300000D03*
D15*
X57150000Y-114300000D03*
D22*
X39540000Y-98780000D03*
X39540000Y-93980000D03*
D23*
X53340000Y-98780000D03*
G36*
G01*
X52314999Y-92705000D02*
X54365001Y-92705000D01*
G75*
G02*
X54615000Y-92954999I0J-249999D01*
G01*
X54615000Y-95005001D01*
G75*
G02*
X54365001Y-95255000I-249999J0D01*
G01*
X52314999Y-95255000D01*
G75*
G02*
X52065000Y-95005001I0J249999D01*
G01*
X52065000Y-92954999D01*
G75*
G02*
X52314999Y-92705000I249999J0D01*
G01*
G37*
D22*
X39540000Y-117830000D03*
X39540000Y-113030000D03*
D23*
X53340000Y-117830000D03*
G36*
G01*
X52314999Y-111755000D02*
X54365001Y-111755000D01*
G75*
G02*
X54615000Y-112004999I0J-249999D01*
G01*
X54615000Y-114055001D01*
G75*
G02*
X54365001Y-114305000I-249999J0D01*
G01*
X52314999Y-114305000D01*
G75*
G02*
X52065000Y-114055001I0J249999D01*
G01*
X52065000Y-112004999D01*
G75*
G02*
X52314999Y-111755000I249999J0D01*
G01*
G37*
D15*
X121920000Y-121800000D03*
D24*
X121920000Y-114300000D03*
D15*
X88900000Y-121800000D03*
D24*
X88900000Y-114300000D03*
D22*
X-938000Y-34206000D03*
X3862000Y-34206000D03*
X8662000Y-34206000D03*
X13462000Y-34206000D03*
X18262000Y-34206000D03*
D23*
X-938000Y-48006000D03*
X3862000Y-48006000D03*
X8662000Y-48006000D03*
X13462000Y-48006000D03*
G36*
G01*
X19537000Y-46980999D02*
X19537000Y-49031001D01*
G75*
G02*
X19287001Y-49281000I-249999J0D01*
G01*
X17236999Y-49281000D01*
G75*
G02*
X16987000Y-49031001I0J249999D01*
G01*
X16987000Y-46980999D01*
G75*
G02*
X17236999Y-46731000I249999J0D01*
G01*
X19287001Y-46731000D01*
G75*
G02*
X19537000Y-46980999I0J-249999D01*
G01*
G37*
D25*
X-48260000Y-115570000D03*
X25400000Y-115570000D03*
D26*
X-48260000Y-33020000D03*
D25*
X25400000Y-33020000D03*
X86360000Y-93980000D03*
X60960000Y-63500000D03*
X147320000Y-93980000D03*
X121920000Y-63500000D03*
X38100000Y-124460000D03*
X167640000Y-124460000D03*
X167640000Y-33020000D03*
X38100000Y-33020000D03*
D22*
X-40360000Y-34036000D03*
X-35560000Y-34036000D03*
D23*
X-40360000Y-47836000D03*
G36*
G01*
X-34285000Y-46810999D02*
X-34285000Y-48861001D01*
G75*
G02*
X-34534999Y-49111000I-249999J0D01*
G01*
X-36585001Y-49111000D01*
G75*
G02*
X-36835000Y-48861001I0J249999D01*
G01*
X-36835000Y-46810999D01*
G75*
G02*
X-36585001Y-46561000I249999J0D01*
G01*
X-34534999Y-46561000D01*
G75*
G02*
X-34285000Y-46810999I0J-249999D01*
G01*
G37*
D14*
X43815000Y-58420000D03*
D15*
X43815000Y-78740000D03*
D14*
X52070000Y-78740000D03*
D15*
X52070000Y-58420000D03*
D14*
X83820000Y-63500000D03*
D15*
X104140000Y-63500000D03*
D27*
X144860000Y-50800000D03*
X149860000Y-50800000D03*
D15*
X26670000Y-57150000D03*
D14*
X26670000Y-87630000D03*
D28*
X43815000Y-53340000D03*
D27*
X53975000Y-53340000D03*
D28*
X109220000Y-83820000D03*
D27*
X99060000Y-83820000D03*
D28*
X109220000Y-78740000D03*
D27*
X99060000Y-78740000D03*
D28*
X118110000Y-81280000D03*
D27*
X118110000Y-71120000D03*
D28*
X170180000Y-86360000D03*
D27*
X160020000Y-86360000D03*
D28*
X170180000Y-76200000D03*
D27*
X160020000Y-76200000D03*
D28*
X170180000Y-81280000D03*
D27*
X160020000Y-81280000D03*
D29*
X-6350000Y-94615000D03*
D30*
X-6350000Y-104775000D03*
D29*
X-6350000Y-107950000D03*
D30*
X-6350000Y-118110000D03*
D29*
X-16510000Y-94615000D03*
D30*
X-16510000Y-104775000D03*
D29*
X-16510000Y-107950000D03*
D30*
X-16510000Y-118110000D03*
D29*
X-11430000Y-104775000D03*
D30*
X-11430000Y-94615000D03*
D29*
X-11430000Y-118110000D03*
D30*
X-11430000Y-107950000D03*
D29*
X-21590000Y-104775000D03*
D30*
X-21590000Y-94615000D03*
D29*
X-21590000Y-118110000D03*
D30*
X-21590000Y-107950000D03*
D15*
X-3930000Y-60706000D03*
D24*
X-11430000Y-60706000D03*
D15*
X16390000Y-81026000D03*
D24*
X8890000Y-81026000D03*
D15*
X-3930000Y-81026000D03*
D24*
X-11430000Y-81026000D03*
D16*
X36830000Y-68580000D03*
X36830000Y-58580000D03*
D27*
X68580000Y-55880000D03*
X63580000Y-55880000D03*
X99140000Y-55880000D03*
X104140000Y-55880000D03*
X119300000Y-86995000D03*
X114300000Y-86995000D03*
D16*
X139700000Y-50800000D03*
X129700000Y-50800000D03*
X139700000Y-58420000D03*
X129700000Y-58420000D03*
D27*
X165100000Y-94575000D03*
D31*
X165100000Y-92075000D03*
D15*
X-30600000Y-61976000D03*
D24*
X-38100000Y-61976000D03*
D15*
X-30600000Y-79756000D03*
D24*
X-38100000Y-79756000D03*
G36*
G01*
X-41915000Y-101355001D02*
X-41915000Y-99304999D01*
G75*
G02*
X-41665001Y-99055000I249999J0D01*
G01*
X-39614999Y-99055000D01*
G75*
G02*
X-39365000Y-99304999I0J-249999D01*
G01*
X-39365000Y-101355001D01*
G75*
G02*
X-39614999Y-101605000I-249999J0D01*
G01*
X-41665001Y-101605000D01*
G75*
G02*
X-41915000Y-101355001I0J249999D01*
G01*
G37*
D23*
X-35840000Y-100330000D03*
D22*
X-40640000Y-114130000D03*
X-35840000Y-114130000D03*
D15*
X16390000Y-60706000D03*
D24*
X8890000Y-60706000D03*
D17*
X119960000Y-33020000D03*
X124460000Y-33020000D03*
D16*
X119960000Y-45020000D03*
G36*
G01*
X125460000Y-44270000D02*
X125460000Y-45770000D01*
G75*
G02*
X125210000Y-46020000I-250000J0D01*
G01*
X123710000Y-46020000D01*
G75*
G02*
X123460000Y-45770000I0J250000D01*
G01*
X123460000Y-44270000D01*
G75*
G02*
X123710000Y-44020000I250000J0D01*
G01*
X125210000Y-44020000D01*
G75*
G02*
X125460000Y-44270000I0J-250000D01*
G01*
G37*
D17*
X135780000Y-33020000D03*
X140280000Y-33020000D03*
X144780000Y-33020000D03*
D16*
X135780000Y-45020000D03*
X140280000Y-45020000D03*
G36*
G01*
X145780000Y-44270000D02*
X145780000Y-45770000D01*
G75*
G02*
X145530000Y-46020000I-250000J0D01*
G01*
X144030000Y-46020000D01*
G75*
G02*
X143780000Y-45770000I0J250000D01*
G01*
X143780000Y-44270000D01*
G75*
G02*
X144030000Y-44020000I250000J0D01*
G01*
X145530000Y-44020000D01*
G75*
G02*
X145780000Y-44270000I0J-250000D01*
G01*
G37*
D32*
X-45720000Y-95250000D03*
D33*
X-40640000Y-95250000D03*
X-35560000Y-95250000D03*
X-30480000Y-95250000D03*
G36*
G01*
X2535000Y-101355001D02*
X2535000Y-99304999D01*
G75*
G02*
X2784999Y-99055000I249999J0D01*
G01*
X4835001Y-99055000D01*
G75*
G02*
X5085000Y-99304999I0J-249999D01*
G01*
X5085000Y-101355001D01*
G75*
G02*
X4835001Y-101605000I-249999J0D01*
G01*
X2784999Y-101605000D01*
G75*
G02*
X2535000Y-101355001I0J249999D01*
G01*
G37*
D23*
X8610000Y-100330000D03*
X13410000Y-100330000D03*
X18210000Y-100330000D03*
D22*
X3810000Y-114130000D03*
X8610000Y-114130000D03*
X13410000Y-114130000D03*
X18210000Y-114130000D03*
D15*
X-46990000Y-57150000D03*
D14*
X-46990000Y-87630000D03*
D15*
X-21590000Y-57150000D03*
D14*
X-21590000Y-87630000D03*
D15*
X83820000Y-106680000D03*
D14*
X63500000Y-106680000D03*
X93980000Y-71120000D03*
D15*
X93980000Y-91440000D03*
D14*
X124460000Y-104140000D03*
D15*
X144780000Y-104140000D03*
D14*
X154940000Y-71120000D03*
D15*
X154940000Y-91440000D03*
D27*
X113030000Y-73620000D03*
D31*
X113030000Y-71120000D03*
M02*
