M48
; DRILL file {KiCad 5.1.12-84ad8e8a86~92~ubuntu20.04.1} date Sun 12 Dec 2021 07:41:45 PM EST
; FORMAT={-:-/ absolute / metric / decimal}
; #@! TF.CreationDate,2021-12-12T19:41:45-05:00
; #@! TF.GenerationSoftware,Kicad,Pcbnew,5.1.12-84ad8e8a86~92~ubuntu20.04.1
; #@! TF.FileFunction,NonPlated,1,2,NPTH
FMAT,2
METRIC
T1C0.500
T2C1.000
T3C2.500
T4C2.800
%
G90
G05
T1
X30.65Y-39.84
X30.65Y-40.64
X30.65Y-41.44
X30.65Y-62.7
X30.65Y-63.5
X30.65Y-64.3
X30.65Y-84.29
X30.65Y-85.09
X30.65Y-85.89
X30.65Y-107.15
X30.65Y-107.95
X30.65Y-108.75
X32.85Y-39.84
X32.85Y-40.64
X32.85Y-41.44
X32.85Y-62.7
X32.85Y-63.5
X32.85Y-64.3
X32.85Y-84.29
X32.85Y-85.09
X32.85Y-85.89
X32.85Y-107.15
X32.85Y-107.95
X32.85Y-108.75
T2
X73.66Y-78.74
X134.62Y-78.74
T3
X46.935Y-33.085
X51.435Y-33.085
X119.96Y-33.02
X124.46Y-33.02
X135.78Y-33.02
X140.28Y-33.02
X144.78Y-33.02
X154.885Y-33.085
X159.385Y-33.085
T4
X-40.64Y-114.13
X-40.36Y-34.036
X-35.84Y-114.13
X-35.56Y-34.036
X-0.938Y-34.206
X3.81Y-114.13
X3.862Y-34.206
X8.61Y-114.13
X8.662Y-34.206
X13.41Y-114.13
X13.462Y-34.206
X18.21Y-114.13
X18.262Y-34.206
X39.54Y-93.98
X39.54Y-98.78
X39.54Y-113.03
X39.54Y-117.83
T0
M30
