%FSLAX45Y45*%
G04 Gerber Fmt 4.5, Leading zero omitted, Abs format (unit mm)*
G04 Created by KiCad (PCBNEW 5.1.12-84ad8e8a86~92~ubuntu20.04.1) date 2021-12-12 19:41:44*
%MOMM*%
%LPD*%
G01*
G04 APERTURE LIST*
%TA.AperFunction,Profile*%
%ADD10C,0.100000*%
%TD*%
%ADD11C,0.200000*%
%ADD12C,0.300000*%
G04 APERTURE END LIST*
D10*
X3302000Y-3810000D02*
X3302000Y-3302000D01*
X3048000Y-3810000D02*
X3048000Y-3302000D01*
X3302000Y-4318000D02*
X3302000Y-6096000D01*
X3048000Y-6096000D02*
X3048000Y-4318000D01*
X3302000Y-8255000D02*
X3302000Y-6604000D01*
X3048000Y-6604000D02*
X3048000Y-8255000D01*
X3302000Y-10541000D02*
X3302000Y-8763000D01*
X3048000Y-10541000D02*
X3048000Y-8763000D01*
X3302000Y-12446000D02*
X3302000Y-11049000D01*
X3048000Y-11557000D02*
X3048000Y-11049000D01*
X3048000Y-11049000D02*
G75*
G02*
X3302000Y-11049000I127000J0D01*
G01*
X3302000Y-10541000D02*
G75*
G02*
X3048000Y-10541000I-127000J0D01*
G01*
X3048000Y-8763000D02*
G75*
G02*
X3302000Y-8763000I127000J0D01*
G01*
X3302000Y-8255000D02*
G75*
G02*
X3048000Y-8255000I-127000J0D01*
G01*
X3048000Y-6604000D02*
G75*
G02*
X3302000Y-6604000I127000J0D01*
G01*
X3302000Y-6096000D02*
G75*
G02*
X3048000Y-6096000I-127000J0D01*
G01*
X3048000Y-4318000D02*
G75*
G02*
X3302000Y-4318000I127000J0D01*
G01*
X3302000Y-3810000D02*
G75*
G02*
X3048000Y-3810000I-127000J0D01*
G01*
X3048000Y-11557000D02*
G75*
G02*
X2540000Y-12065000I-508000J0D01*
G01*
X2540000Y-2794000D02*
G75*
G02*
X3048000Y-3302000I0J-508000D01*
G01*
X-5334000Y-3302000D02*
G75*
G02*
X-4826000Y-2794000I508000J0D01*
G01*
X-4826000Y-12065000D02*
G75*
G02*
X-5334000Y-11557000I0J508000D01*
G01*
X2540000Y-12065000D02*
X-4826000Y-12065000D01*
X-4826000Y-2794000D02*
X2540000Y-2794000D01*
X-5334000Y-11557000D02*
X-5334000Y-3302000D01*
X17272000Y-12446000D02*
G75*
G02*
X16764000Y-12954000I-508000J0D01*
G01*
X16764000Y-2794000D02*
G75*
G02*
X17272000Y-3302000I0J-508000D01*
G01*
X3810000Y-12954000D02*
G75*
G02*
X3302000Y-12446000I0J508000D01*
G01*
X3302000Y-3302000D02*
G75*
G02*
X3810000Y-2794000I508000J0D01*
G01*
X3810000Y-2794000D02*
X16764000Y-2794000D01*
X3302000Y-3302000D02*
X3302000Y-3302000D01*
X16764000Y-12954000D02*
X3810000Y-12954000D01*
X17272000Y-3302000D02*
X17272000Y-12446000D01*
D11*
X3040000Y-3959000D02*
X3090000Y-4009000D01*
X3090000Y-3959000D02*
X3040000Y-4009000D01*
X3040000Y-4039000D02*
X3090000Y-4089000D01*
X3090000Y-4039000D02*
X3040000Y-4089000D01*
X3040000Y-4119000D02*
X3090000Y-4169000D01*
X3090000Y-4119000D02*
X3040000Y-4169000D01*
X3040000Y-6245000D02*
X3090000Y-6295000D01*
X3090000Y-6245000D02*
X3040000Y-6295000D01*
X3040000Y-6325000D02*
X3090000Y-6375000D01*
X3090000Y-6325000D02*
X3040000Y-6375000D01*
X3040000Y-6405000D02*
X3090000Y-6455000D01*
X3090000Y-6405000D02*
X3040000Y-6455000D01*
X3040000Y-8404000D02*
X3090000Y-8454000D01*
X3090000Y-8404000D02*
X3040000Y-8454000D01*
X3040000Y-8484000D02*
X3090000Y-8534000D01*
X3090000Y-8484000D02*
X3040000Y-8534000D01*
X3040000Y-8564000D02*
X3090000Y-8614000D01*
X3090000Y-8564000D02*
X3040000Y-8614000D01*
X3040000Y-10690000D02*
X3090000Y-10740000D01*
X3090000Y-10690000D02*
X3040000Y-10740000D01*
X3040000Y-10770000D02*
X3090000Y-10820000D01*
X3090000Y-10770000D02*
X3040000Y-10820000D01*
X3040000Y-10850000D02*
X3090000Y-10900000D01*
X3090000Y-10850000D02*
X3040000Y-10900000D01*
X3260000Y-3959000D02*
X3310000Y-4009000D01*
X3310000Y-3959000D02*
X3260000Y-4009000D01*
X3260000Y-4039000D02*
X3310000Y-4089000D01*
X3310000Y-4039000D02*
X3260000Y-4089000D01*
X3260000Y-4119000D02*
X3310000Y-4169000D01*
X3310000Y-4119000D02*
X3260000Y-4169000D01*
X3260000Y-6245000D02*
X3310000Y-6295000D01*
X3310000Y-6245000D02*
X3260000Y-6295000D01*
X3260000Y-6325000D02*
X3310000Y-6375000D01*
X3310000Y-6325000D02*
X3260000Y-6375000D01*
X3260000Y-6405000D02*
X3310000Y-6455000D01*
X3310000Y-6405000D02*
X3260000Y-6455000D01*
X3260000Y-8404000D02*
X3310000Y-8454000D01*
X3310000Y-8404000D02*
X3260000Y-8454000D01*
X3260000Y-8484000D02*
X3310000Y-8534000D01*
X3310000Y-8484000D02*
X3260000Y-8534000D01*
X3260000Y-8564000D02*
X3310000Y-8614000D01*
X3310000Y-8564000D02*
X3260000Y-8614000D01*
X3260000Y-10690000D02*
X3310000Y-10740000D01*
X3310000Y-10690000D02*
X3260000Y-10740000D01*
X3260000Y-10770000D02*
X3310000Y-10820000D01*
X3310000Y-10770000D02*
X3260000Y-10820000D01*
X3260000Y-10850000D02*
X3310000Y-10900000D01*
X3310000Y-10850000D02*
X3260000Y-10900000D01*
X7416000Y-7874000D02*
G75*
G03*
X7416000Y-7874000I-50000J0D01*
G01*
X13512000Y-7874000D02*
G75*
G03*
X13512000Y-7874000I-50000J0D01*
G01*
X4693500Y-3183500D02*
X4693500Y-3433500D01*
X4568500Y-3308500D02*
X4818500Y-3308500D01*
X5143500Y-3183500D02*
X5143500Y-3433500D01*
X5018500Y-3308500D02*
X5268500Y-3308500D01*
X11996000Y-3177000D02*
X11996000Y-3427000D01*
X11871000Y-3302000D02*
X12121000Y-3302000D01*
X12446000Y-3177000D02*
X12446000Y-3427000D01*
X12321000Y-3302000D02*
X12571000Y-3302000D01*
X13578000Y-3177000D02*
X13578000Y-3427000D01*
X13453000Y-3302000D02*
X13703000Y-3302000D01*
X14028000Y-3177000D02*
X14028000Y-3427000D01*
X13903000Y-3302000D02*
X14153000Y-3302000D01*
X14478000Y-3177000D02*
X14478000Y-3427000D01*
X14353000Y-3302000D02*
X14603000Y-3302000D01*
X15488500Y-3183500D02*
X15488500Y-3433500D01*
X15363500Y-3308500D02*
X15613500Y-3308500D01*
X15938500Y-3183500D02*
X15938500Y-3433500D01*
X15813500Y-3308500D02*
X16063500Y-3308500D01*
X-3965004Y-11511996D02*
X-3965004Y-11314004D01*
X-4162996Y-11314004D01*
X-4162996Y-11511996D01*
X-3965004Y-11511996D01*
X-3937004Y-3502596D02*
X-3937004Y-3304604D01*
X-4134996Y-3304604D01*
X-4134996Y-3502596D01*
X-3937004Y-3502596D01*
X-3485004Y-11511996D02*
X-3485004Y-11314004D01*
X-3682996Y-11314004D01*
X-3682996Y-11511996D01*
X-3485004Y-11511996D01*
X-3457004Y-3502596D02*
X-3457004Y-3304604D01*
X-3654996Y-3304604D01*
X-3654996Y-3502596D01*
X-3457004Y-3502596D01*
X5196Y-3519596D02*
X5196Y-3321604D01*
X-192796Y-3321604D01*
X-192796Y-3519596D01*
X5196Y-3519596D01*
X479996Y-11511996D02*
X479996Y-11314004D01*
X282004Y-11314004D01*
X282004Y-11511996D01*
X479996Y-11511996D01*
X485196Y-3519596D02*
X485196Y-3321604D01*
X287204Y-3321604D01*
X287204Y-3519596D01*
X485196Y-3519596D01*
X959996Y-11511996D02*
X959996Y-11314004D01*
X762004Y-11314004D01*
X762004Y-11511996D01*
X959996Y-11511996D01*
X965196Y-3519596D02*
X965196Y-3321604D01*
X767204Y-3321604D01*
X767204Y-3519596D01*
X965196Y-3519596D01*
X1439996Y-11511996D02*
X1439996Y-11314004D01*
X1242004Y-11314004D01*
X1242004Y-11511996D01*
X1439996Y-11511996D01*
X1445196Y-3519596D02*
X1445196Y-3321604D01*
X1247204Y-3321604D01*
X1247204Y-3519596D01*
X1445196Y-3519596D01*
X1919996Y-11511996D02*
X1919996Y-11314004D01*
X1722004Y-11314004D01*
X1722004Y-11511996D01*
X1919996Y-11511996D01*
X1925196Y-3519596D02*
X1925196Y-3321604D01*
X1727204Y-3321604D01*
X1727204Y-3519596D01*
X1925196Y-3519596D01*
X4052996Y-9496996D02*
X4052996Y-9299004D01*
X3855004Y-9299004D01*
X3855004Y-9496996D01*
X4052996Y-9496996D01*
X4052996Y-9976996D02*
X4052996Y-9779004D01*
X3855004Y-9779004D01*
X3855004Y-9976996D01*
X4052996Y-9976996D01*
X4052996Y-11401996D02*
X4052996Y-11204004D01*
X3855004Y-11204004D01*
X3855004Y-11401996D01*
X4052996Y-11401996D01*
X4052996Y-11881996D02*
X4052996Y-11684004D01*
X3855004Y-11684004D01*
X3855004Y-11881996D01*
X4052996Y-11881996D01*
D12*
X-5052572Y-13424714D02*
X-5052572Y-13124714D01*
X-4981143Y-13124714D01*
X-4938286Y-13139000D01*
X-4909714Y-13167571D01*
X-4895429Y-13196143D01*
X-4881143Y-13253286D01*
X-4881143Y-13296143D01*
X-4895429Y-13353286D01*
X-4909714Y-13381857D01*
X-4938286Y-13410429D01*
X-4981143Y-13424714D01*
X-5052572Y-13424714D01*
X-4752572Y-13424714D02*
X-4752572Y-13224714D01*
X-4752572Y-13281857D02*
X-4738286Y-13253286D01*
X-4724000Y-13239000D01*
X-4695429Y-13224714D01*
X-4666857Y-13224714D01*
X-4566857Y-13424714D02*
X-4566857Y-13224714D01*
X-4566857Y-13124714D02*
X-4581143Y-13139000D01*
X-4566857Y-13153286D01*
X-4552572Y-13139000D01*
X-4566857Y-13124714D01*
X-4566857Y-13153286D01*
X-4381143Y-13424714D02*
X-4409714Y-13410429D01*
X-4424000Y-13381857D01*
X-4424000Y-13124714D01*
X-4224000Y-13424714D02*
X-4252572Y-13410429D01*
X-4266857Y-13381857D01*
X-4266857Y-13124714D01*
X-3881143Y-13424714D02*
X-3881143Y-13124714D01*
X-3781143Y-13339000D01*
X-3681143Y-13124714D01*
X-3681143Y-13424714D01*
X-3409714Y-13424714D02*
X-3409714Y-13267571D01*
X-3424000Y-13239000D01*
X-3452571Y-13224714D01*
X-3509714Y-13224714D01*
X-3538286Y-13239000D01*
X-3409714Y-13410429D02*
X-3438286Y-13424714D01*
X-3509714Y-13424714D01*
X-3538286Y-13410429D01*
X-3552571Y-13381857D01*
X-3552571Y-13353286D01*
X-3538286Y-13324714D01*
X-3509714Y-13310429D01*
X-3438286Y-13310429D01*
X-3409714Y-13296143D01*
X-3266857Y-13224714D02*
X-3266857Y-13524714D01*
X-3266857Y-13239000D02*
X-3238286Y-13224714D01*
X-3181143Y-13224714D01*
X-3152571Y-13239000D01*
X-3138286Y-13253286D01*
X-3124000Y-13281857D01*
X-3124000Y-13367571D01*
X-3138286Y-13396143D01*
X-3152571Y-13410429D01*
X-3181143Y-13424714D01*
X-3238286Y-13424714D01*
X-3266857Y-13410429D01*
X-2995429Y-13396143D02*
X-2981143Y-13410429D01*
X-2995429Y-13424714D01*
X-3009714Y-13410429D01*
X-2995429Y-13396143D01*
X-2995429Y-13424714D01*
X-2995429Y-13239000D02*
X-2981143Y-13253286D01*
X-2995429Y-13267571D01*
X-3009714Y-13253286D01*
X-2995429Y-13239000D01*
X-2995429Y-13267571D01*
X-5389000Y-13894000D02*
X-5339000Y-13944000D01*
X-5339000Y-13894000D02*
X-5389000Y-13944000D01*
X-4995429Y-13754714D02*
X-4966857Y-13754714D01*
X-4938286Y-13769000D01*
X-4924000Y-13783286D01*
X-4909714Y-13811857D01*
X-4895429Y-13869000D01*
X-4895429Y-13940429D01*
X-4909714Y-13997571D01*
X-4924000Y-14026143D01*
X-4938286Y-14040429D01*
X-4966857Y-14054714D01*
X-4995429Y-14054714D01*
X-5024000Y-14040429D01*
X-5038286Y-14026143D01*
X-5052572Y-13997571D01*
X-5066857Y-13940429D01*
X-5066857Y-13869000D01*
X-5052572Y-13811857D01*
X-5038286Y-13783286D01*
X-5024000Y-13769000D01*
X-4995429Y-13754714D01*
X-4766857Y-14026143D02*
X-4752572Y-14040429D01*
X-4766857Y-14054714D01*
X-4781143Y-14040429D01*
X-4766857Y-14026143D01*
X-4766857Y-14054714D01*
X-4481143Y-13754714D02*
X-4624000Y-13754714D01*
X-4638286Y-13897571D01*
X-4624000Y-13883286D01*
X-4595429Y-13869000D01*
X-4524000Y-13869000D01*
X-4495429Y-13883286D01*
X-4481143Y-13897571D01*
X-4466857Y-13926143D01*
X-4466857Y-13997571D01*
X-4481143Y-14026143D01*
X-4495429Y-14040429D01*
X-4524000Y-14054714D01*
X-4595429Y-14054714D01*
X-4624000Y-14040429D01*
X-4638286Y-14026143D01*
X-4281143Y-13754714D02*
X-4252572Y-13754714D01*
X-4224000Y-13769000D01*
X-4209714Y-13783286D01*
X-4195429Y-13811857D01*
X-4181143Y-13869000D01*
X-4181143Y-13940429D01*
X-4195429Y-13997571D01*
X-4209714Y-14026143D01*
X-4224000Y-14040429D01*
X-4252572Y-14054714D01*
X-4281143Y-14054714D01*
X-4309714Y-14040429D01*
X-4324000Y-14026143D01*
X-4338286Y-13997571D01*
X-4352572Y-13940429D01*
X-4352572Y-13869000D01*
X-4338286Y-13811857D01*
X-4324000Y-13783286D01*
X-4309714Y-13769000D01*
X-4281143Y-13754714D01*
X-3995429Y-13754714D02*
X-3966857Y-13754714D01*
X-3938286Y-13769000D01*
X-3924000Y-13783286D01*
X-3909714Y-13811857D01*
X-3895429Y-13869000D01*
X-3895429Y-13940429D01*
X-3909714Y-13997571D01*
X-3924000Y-14026143D01*
X-3938286Y-14040429D01*
X-3966857Y-14054714D01*
X-3995429Y-14054714D01*
X-4024000Y-14040429D01*
X-4038286Y-14026143D01*
X-4052571Y-13997571D01*
X-4066857Y-13940429D01*
X-4066857Y-13869000D01*
X-4052571Y-13811857D01*
X-4038286Y-13783286D01*
X-4024000Y-13769000D01*
X-3995429Y-13754714D01*
X-3766857Y-14054714D02*
X-3766857Y-13854714D01*
X-3766857Y-13883286D02*
X-3752571Y-13869000D01*
X-3724000Y-13854714D01*
X-3681143Y-13854714D01*
X-3652571Y-13869000D01*
X-3638286Y-13897571D01*
X-3638286Y-14054714D01*
X-3638286Y-13897571D02*
X-3624000Y-13869000D01*
X-3595429Y-13854714D01*
X-3552571Y-13854714D01*
X-3524000Y-13869000D01*
X-3509714Y-13897571D01*
X-3509714Y-14054714D01*
X-3366857Y-14054714D02*
X-3366857Y-13854714D01*
X-3366857Y-13883286D02*
X-3352571Y-13869000D01*
X-3324000Y-13854714D01*
X-3281143Y-13854714D01*
X-3252571Y-13869000D01*
X-3238286Y-13897571D01*
X-3238286Y-14054714D01*
X-3238286Y-13897571D02*
X-3224000Y-13869000D01*
X-3195429Y-13854714D01*
X-3152571Y-13854714D01*
X-3124000Y-13869000D01*
X-3109714Y-13897571D01*
X-3109714Y-14054714D01*
X-2524000Y-13740429D02*
X-2781143Y-14126143D01*
X-2138286Y-13754714D02*
X-2109714Y-13754714D01*
X-2081143Y-13769000D01*
X-2066857Y-13783286D01*
X-2052571Y-13811857D01*
X-2038286Y-13869000D01*
X-2038286Y-13940429D01*
X-2052571Y-13997571D01*
X-2066857Y-14026143D01*
X-2081143Y-14040429D01*
X-2109714Y-14054714D01*
X-2138286Y-14054714D01*
X-2166857Y-14040429D01*
X-2181143Y-14026143D01*
X-2195429Y-13997571D01*
X-2209714Y-13940429D01*
X-2209714Y-13869000D01*
X-2195429Y-13811857D01*
X-2181143Y-13783286D01*
X-2166857Y-13769000D01*
X-2138286Y-13754714D01*
X-1909714Y-14026143D02*
X-1895429Y-14040429D01*
X-1909714Y-14054714D01*
X-1924000Y-14040429D01*
X-1909714Y-14026143D01*
X-1909714Y-14054714D01*
X-1709714Y-13754714D02*
X-1681143Y-13754714D01*
X-1652571Y-13769000D01*
X-1638286Y-13783286D01*
X-1624000Y-13811857D01*
X-1609714Y-13869000D01*
X-1609714Y-13940429D01*
X-1624000Y-13997571D01*
X-1638286Y-14026143D01*
X-1652571Y-14040429D01*
X-1681143Y-14054714D01*
X-1709714Y-14054714D01*
X-1738286Y-14040429D01*
X-1752571Y-14026143D01*
X-1766857Y-13997571D01*
X-1781143Y-13940429D01*
X-1781143Y-13869000D01*
X-1766857Y-13811857D01*
X-1752571Y-13783286D01*
X-1738286Y-13769000D01*
X-1709714Y-13754714D01*
X-1324000Y-14054714D02*
X-1495429Y-14054714D01*
X-1409714Y-14054714D02*
X-1409714Y-13754714D01*
X-1438286Y-13797571D01*
X-1466857Y-13826143D01*
X-1495429Y-13840429D01*
X-1181143Y-14054714D02*
X-1124000Y-14054714D01*
X-1095429Y-14040429D01*
X-1081143Y-14026143D01*
X-1052572Y-13983286D01*
X-1038286Y-13926143D01*
X-1038286Y-13811857D01*
X-1052572Y-13783286D01*
X-1066857Y-13769000D01*
X-1095429Y-13754714D01*
X-1152572Y-13754714D01*
X-1181143Y-13769000D01*
X-1195429Y-13783286D01*
X-1209714Y-13811857D01*
X-1209714Y-13883286D01*
X-1195429Y-13911857D01*
X-1181143Y-13926143D01*
X-1152572Y-13940429D01*
X-1095429Y-13940429D01*
X-1066857Y-13926143D01*
X-1052572Y-13911857D01*
X-1038286Y-13883286D01*
X-938286Y-13754714D02*
X-738286Y-13754714D01*
X-866857Y-14054714D01*
X-638286Y-13754714D02*
X-638286Y-13811857D01*
X-524000Y-13754714D02*
X-524000Y-13811857D01*
X-81143Y-14169000D02*
X-95429Y-14154714D01*
X-124000Y-14111857D01*
X-138286Y-14083286D01*
X-152572Y-14040429D01*
X-166857Y-13969000D01*
X-166857Y-13911857D01*
X-152572Y-13840429D01*
X-138286Y-13797571D01*
X-124000Y-13769000D01*
X-95429Y-13726143D01*
X-81143Y-13711857D01*
X18857Y-13783286D02*
X33143Y-13769000D01*
X61714Y-13754714D01*
X133143Y-13754714D01*
X161714Y-13769000D01*
X176000Y-13783286D01*
X190286Y-13811857D01*
X190286Y-13840429D01*
X176000Y-13883286D01*
X4571Y-14054714D01*
X190286Y-14054714D01*
X447428Y-13854714D02*
X447428Y-14054714D01*
X376000Y-13740429D02*
X304571Y-13954714D01*
X490286Y-13954714D01*
X833143Y-14054714D02*
X833143Y-13754714D01*
X961714Y-14054714D02*
X961714Y-13897571D01*
X947428Y-13869000D01*
X918857Y-13854714D01*
X876000Y-13854714D01*
X847428Y-13869000D01*
X833143Y-13883286D01*
X1147428Y-14054714D02*
X1118857Y-14040429D01*
X1104571Y-14026143D01*
X1090286Y-13997571D01*
X1090286Y-13911857D01*
X1104571Y-13883286D01*
X1118857Y-13869000D01*
X1147428Y-13854714D01*
X1190286Y-13854714D01*
X1218857Y-13869000D01*
X1233143Y-13883286D01*
X1247428Y-13911857D01*
X1247428Y-13997571D01*
X1233143Y-14026143D01*
X1218857Y-14040429D01*
X1190286Y-14054714D01*
X1147428Y-14054714D01*
X1418857Y-14054714D02*
X1390286Y-14040429D01*
X1376000Y-14011857D01*
X1376000Y-13754714D01*
X1647428Y-14040429D02*
X1618857Y-14054714D01*
X1561714Y-14054714D01*
X1533143Y-14040429D01*
X1518857Y-14011857D01*
X1518857Y-13897571D01*
X1533143Y-13869000D01*
X1561714Y-13854714D01*
X1618857Y-13854714D01*
X1647428Y-13869000D01*
X1661714Y-13897571D01*
X1661714Y-13926143D01*
X1518857Y-13954714D01*
X1776000Y-14040429D02*
X1804571Y-14054714D01*
X1861714Y-14054714D01*
X1890286Y-14040429D01*
X1904571Y-14011857D01*
X1904571Y-13997571D01*
X1890286Y-13969000D01*
X1861714Y-13954714D01*
X1818857Y-13954714D01*
X1790286Y-13940429D01*
X1776000Y-13911857D01*
X1776000Y-13897571D01*
X1790286Y-13869000D01*
X1818857Y-13854714D01*
X1861714Y-13854714D01*
X1890286Y-13869000D01*
X2004571Y-14169000D02*
X2018857Y-14154714D01*
X2047428Y-14111857D01*
X2061714Y-14083286D01*
X2076000Y-14040429D01*
X2090286Y-13969000D01*
X2090286Y-13911857D01*
X2076000Y-13840429D01*
X2061714Y-13797571D01*
X2047428Y-13769000D01*
X2018857Y-13726143D01*
X2004571Y-13711857D01*
X2547428Y-14169000D02*
X2533143Y-14154714D01*
X2504571Y-14111857D01*
X2490286Y-14083286D01*
X2476000Y-14040429D01*
X2461714Y-13969000D01*
X2461714Y-13911857D01*
X2476000Y-13840429D01*
X2490286Y-13797571D01*
X2504571Y-13769000D01*
X2533143Y-13726143D01*
X2547428Y-13711857D01*
X2661714Y-13854714D02*
X2661714Y-14054714D01*
X2661714Y-13883286D02*
X2676000Y-13869000D01*
X2704571Y-13854714D01*
X2747428Y-13854714D01*
X2776000Y-13869000D01*
X2790286Y-13897571D01*
X2790286Y-14054714D01*
X2976000Y-14054714D02*
X2947428Y-14040429D01*
X2933143Y-14026143D01*
X2918857Y-13997571D01*
X2918857Y-13911857D01*
X2933143Y-13883286D01*
X2947428Y-13869000D01*
X2976000Y-13854714D01*
X3018857Y-13854714D01*
X3047428Y-13869000D01*
X3061714Y-13883286D01*
X3076000Y-13911857D01*
X3076000Y-13997571D01*
X3061714Y-14026143D01*
X3047428Y-14040429D01*
X3018857Y-14054714D01*
X2976000Y-14054714D01*
X3161714Y-13854714D02*
X3276000Y-13854714D01*
X3204571Y-13754714D02*
X3204571Y-14011857D01*
X3218857Y-14040429D01*
X3247428Y-14054714D01*
X3276000Y-14054714D01*
X3604571Y-13854714D02*
X3604571Y-14154714D01*
X3604571Y-13869000D02*
X3633143Y-13854714D01*
X3690286Y-13854714D01*
X3718857Y-13869000D01*
X3733143Y-13883286D01*
X3747428Y-13911857D01*
X3747428Y-13997571D01*
X3733143Y-14026143D01*
X3718857Y-14040429D01*
X3690286Y-14054714D01*
X3633143Y-14054714D01*
X3604571Y-14040429D01*
X3918857Y-14054714D02*
X3890286Y-14040429D01*
X3876000Y-14011857D01*
X3876000Y-13754714D01*
X4161714Y-14054714D02*
X4161714Y-13897571D01*
X4147428Y-13869000D01*
X4118857Y-13854714D01*
X4061714Y-13854714D01*
X4033143Y-13869000D01*
X4161714Y-14040429D02*
X4133143Y-14054714D01*
X4061714Y-14054714D01*
X4033143Y-14040429D01*
X4018857Y-14011857D01*
X4018857Y-13983286D01*
X4033143Y-13954714D01*
X4061714Y-13940429D01*
X4133143Y-13940429D01*
X4161714Y-13926143D01*
X4261714Y-13854714D02*
X4376000Y-13854714D01*
X4304571Y-13754714D02*
X4304571Y-14011857D01*
X4318857Y-14040429D01*
X4347428Y-14054714D01*
X4376000Y-14054714D01*
X4590286Y-14040429D02*
X4561714Y-14054714D01*
X4504571Y-14054714D01*
X4476000Y-14040429D01*
X4461714Y-14011857D01*
X4461714Y-13897571D01*
X4476000Y-13869000D01*
X4504571Y-13854714D01*
X4561714Y-13854714D01*
X4590286Y-13869000D01*
X4604571Y-13897571D01*
X4604571Y-13926143D01*
X4461714Y-13954714D01*
X4861714Y-14054714D02*
X4861714Y-13754714D01*
X4861714Y-14040429D02*
X4833143Y-14054714D01*
X4776000Y-14054714D01*
X4747428Y-14040429D01*
X4733143Y-14026143D01*
X4718857Y-13997571D01*
X4718857Y-13911857D01*
X4733143Y-13883286D01*
X4747428Y-13869000D01*
X4776000Y-13854714D01*
X4833143Y-13854714D01*
X4861714Y-13869000D01*
X4976000Y-14169000D02*
X4990286Y-14154714D01*
X5018857Y-14111857D01*
X5033143Y-14083286D01*
X5047428Y-14040429D01*
X5061714Y-13969000D01*
X5061714Y-13911857D01*
X5047428Y-13840429D01*
X5033143Y-13797571D01*
X5018857Y-13769000D01*
X4990286Y-13726143D01*
X4976000Y-13711857D01*
X-5339000Y-14315000D02*
G75*
G03*
X-5339000Y-14315000I-50000J0D01*
G01*
X-4895429Y-14450714D02*
X-5066857Y-14450714D01*
X-4981143Y-14450714D02*
X-4981143Y-14150714D01*
X-5009714Y-14193571D01*
X-5038286Y-14222143D01*
X-5066857Y-14236429D01*
X-4766857Y-14422143D02*
X-4752572Y-14436429D01*
X-4766857Y-14450714D01*
X-4781143Y-14436429D01*
X-4766857Y-14422143D01*
X-4766857Y-14450714D01*
X-4566857Y-14150714D02*
X-4538286Y-14150714D01*
X-4509714Y-14165000D01*
X-4495429Y-14179286D01*
X-4481143Y-14207857D01*
X-4466857Y-14265000D01*
X-4466857Y-14336429D01*
X-4481143Y-14393571D01*
X-4495429Y-14422143D01*
X-4509714Y-14436429D01*
X-4538286Y-14450714D01*
X-4566857Y-14450714D01*
X-4595429Y-14436429D01*
X-4609714Y-14422143D01*
X-4624000Y-14393571D01*
X-4638286Y-14336429D01*
X-4638286Y-14265000D01*
X-4624000Y-14207857D01*
X-4609714Y-14179286D01*
X-4595429Y-14165000D01*
X-4566857Y-14150714D01*
X-4281143Y-14150714D02*
X-4252572Y-14150714D01*
X-4224000Y-14165000D01*
X-4209714Y-14179286D01*
X-4195429Y-14207857D01*
X-4181143Y-14265000D01*
X-4181143Y-14336429D01*
X-4195429Y-14393571D01*
X-4209714Y-14422143D01*
X-4224000Y-14436429D01*
X-4252572Y-14450714D01*
X-4281143Y-14450714D01*
X-4309714Y-14436429D01*
X-4324000Y-14422143D01*
X-4338286Y-14393571D01*
X-4352572Y-14336429D01*
X-4352572Y-14265000D01*
X-4338286Y-14207857D01*
X-4324000Y-14179286D01*
X-4309714Y-14165000D01*
X-4281143Y-14150714D01*
X-3995429Y-14150714D02*
X-3966857Y-14150714D01*
X-3938286Y-14165000D01*
X-3924000Y-14179286D01*
X-3909714Y-14207857D01*
X-3895429Y-14265000D01*
X-3895429Y-14336429D01*
X-3909714Y-14393571D01*
X-3924000Y-14422143D01*
X-3938286Y-14436429D01*
X-3966857Y-14450714D01*
X-3995429Y-14450714D01*
X-4024000Y-14436429D01*
X-4038286Y-14422143D01*
X-4052571Y-14393571D01*
X-4066857Y-14336429D01*
X-4066857Y-14265000D01*
X-4052571Y-14207857D01*
X-4038286Y-14179286D01*
X-4024000Y-14165000D01*
X-3995429Y-14150714D01*
X-3766857Y-14450714D02*
X-3766857Y-14250714D01*
X-3766857Y-14279286D02*
X-3752571Y-14265000D01*
X-3724000Y-14250714D01*
X-3681143Y-14250714D01*
X-3652571Y-14265000D01*
X-3638286Y-14293571D01*
X-3638286Y-14450714D01*
X-3638286Y-14293571D02*
X-3624000Y-14265000D01*
X-3595429Y-14250714D01*
X-3552571Y-14250714D01*
X-3524000Y-14265000D01*
X-3509714Y-14293571D01*
X-3509714Y-14450714D01*
X-3366857Y-14450714D02*
X-3366857Y-14250714D01*
X-3366857Y-14279286D02*
X-3352571Y-14265000D01*
X-3324000Y-14250714D01*
X-3281143Y-14250714D01*
X-3252571Y-14265000D01*
X-3238286Y-14293571D01*
X-3238286Y-14450714D01*
X-3238286Y-14293571D02*
X-3224000Y-14265000D01*
X-3195429Y-14250714D01*
X-3152571Y-14250714D01*
X-3124000Y-14265000D01*
X-3109714Y-14293571D01*
X-3109714Y-14450714D01*
X-2524000Y-14136429D02*
X-2781143Y-14522143D01*
X-2138286Y-14150714D02*
X-2109714Y-14150714D01*
X-2081143Y-14165000D01*
X-2066857Y-14179286D01*
X-2052571Y-14207857D01*
X-2038286Y-14265000D01*
X-2038286Y-14336429D01*
X-2052571Y-14393571D01*
X-2066857Y-14422143D01*
X-2081143Y-14436429D01*
X-2109714Y-14450714D01*
X-2138286Y-14450714D01*
X-2166857Y-14436429D01*
X-2181143Y-14422143D01*
X-2195429Y-14393571D01*
X-2209714Y-14336429D01*
X-2209714Y-14265000D01*
X-2195429Y-14207857D01*
X-2181143Y-14179286D01*
X-2166857Y-14165000D01*
X-2138286Y-14150714D01*
X-1909714Y-14422143D02*
X-1895429Y-14436429D01*
X-1909714Y-14450714D01*
X-1924000Y-14436429D01*
X-1909714Y-14422143D01*
X-1909714Y-14450714D01*
X-1709714Y-14150714D02*
X-1681143Y-14150714D01*
X-1652571Y-14165000D01*
X-1638286Y-14179286D01*
X-1624000Y-14207857D01*
X-1609714Y-14265000D01*
X-1609714Y-14336429D01*
X-1624000Y-14393571D01*
X-1638286Y-14422143D01*
X-1652571Y-14436429D01*
X-1681143Y-14450714D01*
X-1709714Y-14450714D01*
X-1738286Y-14436429D01*
X-1752571Y-14422143D01*
X-1766857Y-14393571D01*
X-1781143Y-14336429D01*
X-1781143Y-14265000D01*
X-1766857Y-14207857D01*
X-1752571Y-14179286D01*
X-1738286Y-14165000D01*
X-1709714Y-14150714D01*
X-1509714Y-14150714D02*
X-1324000Y-14150714D01*
X-1424000Y-14265000D01*
X-1381143Y-14265000D01*
X-1352572Y-14279286D01*
X-1338286Y-14293571D01*
X-1324000Y-14322143D01*
X-1324000Y-14393571D01*
X-1338286Y-14422143D01*
X-1352572Y-14436429D01*
X-1381143Y-14450714D01*
X-1466857Y-14450714D01*
X-1495429Y-14436429D01*
X-1509714Y-14422143D01*
X-1181143Y-14450714D02*
X-1124000Y-14450714D01*
X-1095429Y-14436429D01*
X-1081143Y-14422143D01*
X-1052572Y-14379286D01*
X-1038286Y-14322143D01*
X-1038286Y-14207857D01*
X-1052572Y-14179286D01*
X-1066857Y-14165000D01*
X-1095429Y-14150714D01*
X-1152572Y-14150714D01*
X-1181143Y-14165000D01*
X-1195429Y-14179286D01*
X-1209714Y-14207857D01*
X-1209714Y-14279286D01*
X-1195429Y-14307857D01*
X-1181143Y-14322143D01*
X-1152572Y-14336429D01*
X-1095429Y-14336429D01*
X-1066857Y-14322143D01*
X-1052572Y-14307857D01*
X-1038286Y-14279286D01*
X-781143Y-14250714D02*
X-781143Y-14450714D01*
X-852571Y-14136429D02*
X-924000Y-14350714D01*
X-738286Y-14350714D01*
X-638286Y-14150714D02*
X-638286Y-14207857D01*
X-524000Y-14150714D02*
X-524000Y-14207857D01*
X-81143Y-14565000D02*
X-95429Y-14550714D01*
X-124000Y-14507857D01*
X-138286Y-14479286D01*
X-152572Y-14436429D01*
X-166857Y-14365000D01*
X-166857Y-14307857D01*
X-152572Y-14236429D01*
X-138286Y-14193571D01*
X-124000Y-14165000D01*
X-95429Y-14122143D01*
X-81143Y-14107857D01*
X18857Y-14179286D02*
X33143Y-14165000D01*
X61714Y-14150714D01*
X133143Y-14150714D01*
X161714Y-14165000D01*
X176000Y-14179286D01*
X190286Y-14207857D01*
X190286Y-14236429D01*
X176000Y-14279286D01*
X4571Y-14450714D01*
X190286Y-14450714D01*
X547428Y-14450714D02*
X547428Y-14150714D01*
X676000Y-14450714D02*
X676000Y-14293571D01*
X661714Y-14265000D01*
X633143Y-14250714D01*
X590286Y-14250714D01*
X561714Y-14265000D01*
X547428Y-14279286D01*
X861714Y-14450714D02*
X833143Y-14436429D01*
X818857Y-14422143D01*
X804571Y-14393571D01*
X804571Y-14307857D01*
X818857Y-14279286D01*
X833143Y-14265000D01*
X861714Y-14250714D01*
X904571Y-14250714D01*
X933143Y-14265000D01*
X947428Y-14279286D01*
X961714Y-14307857D01*
X961714Y-14393571D01*
X947428Y-14422143D01*
X933143Y-14436429D01*
X904571Y-14450714D01*
X861714Y-14450714D01*
X1133143Y-14450714D02*
X1104571Y-14436429D01*
X1090286Y-14407857D01*
X1090286Y-14150714D01*
X1361714Y-14436429D02*
X1333143Y-14450714D01*
X1276000Y-14450714D01*
X1247428Y-14436429D01*
X1233143Y-14407857D01*
X1233143Y-14293571D01*
X1247428Y-14265000D01*
X1276000Y-14250714D01*
X1333143Y-14250714D01*
X1361714Y-14265000D01*
X1376000Y-14293571D01*
X1376000Y-14322143D01*
X1233143Y-14350714D01*
X1490286Y-14436429D02*
X1518857Y-14450714D01*
X1576000Y-14450714D01*
X1604571Y-14436429D01*
X1618857Y-14407857D01*
X1618857Y-14393571D01*
X1604571Y-14365000D01*
X1576000Y-14350714D01*
X1533143Y-14350714D01*
X1504571Y-14336429D01*
X1490286Y-14307857D01*
X1490286Y-14293571D01*
X1504571Y-14265000D01*
X1533143Y-14250714D01*
X1576000Y-14250714D01*
X1604571Y-14265000D01*
X1718857Y-14565000D02*
X1733143Y-14550714D01*
X1761714Y-14507857D01*
X1776000Y-14479286D01*
X1790286Y-14436429D01*
X1804571Y-14365000D01*
X1804571Y-14307857D01*
X1790286Y-14236429D01*
X1776000Y-14193571D01*
X1761714Y-14165000D01*
X1733143Y-14122143D01*
X1718857Y-14107857D01*
X2261714Y-14565000D02*
X2247428Y-14550714D01*
X2218857Y-14507857D01*
X2204571Y-14479286D01*
X2190286Y-14436429D01*
X2176000Y-14365000D01*
X2176000Y-14307857D01*
X2190286Y-14236429D01*
X2204571Y-14193571D01*
X2218857Y-14165000D01*
X2247428Y-14122143D01*
X2261714Y-14107857D01*
X2376000Y-14250714D02*
X2376000Y-14450714D01*
X2376000Y-14279286D02*
X2390286Y-14265000D01*
X2418857Y-14250714D01*
X2461714Y-14250714D01*
X2490286Y-14265000D01*
X2504571Y-14293571D01*
X2504571Y-14450714D01*
X2690286Y-14450714D02*
X2661714Y-14436429D01*
X2647428Y-14422143D01*
X2633143Y-14393571D01*
X2633143Y-14307857D01*
X2647428Y-14279286D01*
X2661714Y-14265000D01*
X2690286Y-14250714D01*
X2733143Y-14250714D01*
X2761714Y-14265000D01*
X2776000Y-14279286D01*
X2790286Y-14307857D01*
X2790286Y-14393571D01*
X2776000Y-14422143D01*
X2761714Y-14436429D01*
X2733143Y-14450714D01*
X2690286Y-14450714D01*
X2876000Y-14250714D02*
X2990286Y-14250714D01*
X2918857Y-14150714D02*
X2918857Y-14407857D01*
X2933143Y-14436429D01*
X2961714Y-14450714D01*
X2990286Y-14450714D01*
X3318857Y-14250714D02*
X3318857Y-14550714D01*
X3318857Y-14265000D02*
X3347428Y-14250714D01*
X3404571Y-14250714D01*
X3433143Y-14265000D01*
X3447428Y-14279286D01*
X3461714Y-14307857D01*
X3461714Y-14393571D01*
X3447428Y-14422143D01*
X3433143Y-14436429D01*
X3404571Y-14450714D01*
X3347428Y-14450714D01*
X3318857Y-14436429D01*
X3633143Y-14450714D02*
X3604571Y-14436429D01*
X3590286Y-14407857D01*
X3590286Y-14150714D01*
X3876000Y-14450714D02*
X3876000Y-14293571D01*
X3861714Y-14265000D01*
X3833143Y-14250714D01*
X3776000Y-14250714D01*
X3747428Y-14265000D01*
X3876000Y-14436429D02*
X3847428Y-14450714D01*
X3776000Y-14450714D01*
X3747428Y-14436429D01*
X3733143Y-14407857D01*
X3733143Y-14379286D01*
X3747428Y-14350714D01*
X3776000Y-14336429D01*
X3847428Y-14336429D01*
X3876000Y-14322143D01*
X3976000Y-14250714D02*
X4090286Y-14250714D01*
X4018857Y-14150714D02*
X4018857Y-14407857D01*
X4033143Y-14436429D01*
X4061714Y-14450714D01*
X4090286Y-14450714D01*
X4304571Y-14436429D02*
X4276000Y-14450714D01*
X4218857Y-14450714D01*
X4190286Y-14436429D01*
X4176000Y-14407857D01*
X4176000Y-14293571D01*
X4190286Y-14265000D01*
X4218857Y-14250714D01*
X4276000Y-14250714D01*
X4304571Y-14265000D01*
X4318857Y-14293571D01*
X4318857Y-14322143D01*
X4176000Y-14350714D01*
X4576000Y-14450714D02*
X4576000Y-14150714D01*
X4576000Y-14436429D02*
X4547428Y-14450714D01*
X4490286Y-14450714D01*
X4461714Y-14436429D01*
X4447428Y-14422143D01*
X4433143Y-14393571D01*
X4433143Y-14307857D01*
X4447428Y-14279286D01*
X4461714Y-14265000D01*
X4490286Y-14250714D01*
X4547428Y-14250714D01*
X4576000Y-14265000D01*
X4690286Y-14565000D02*
X4704571Y-14550714D01*
X4733143Y-14507857D01*
X4747428Y-14479286D01*
X4761714Y-14436429D01*
X4776000Y-14365000D01*
X4776000Y-14307857D01*
X4761714Y-14236429D01*
X4747428Y-14193571D01*
X4733143Y-14165000D01*
X4704571Y-14122143D01*
X4690286Y-14107857D01*
X-5464000Y-14586000D02*
X-5464000Y-14836000D01*
X-5589000Y-14711000D02*
X-5339000Y-14711000D01*
X-5066857Y-14575286D02*
X-5052572Y-14561000D01*
X-5024000Y-14546714D01*
X-4952572Y-14546714D01*
X-4924000Y-14561000D01*
X-4909714Y-14575286D01*
X-4895429Y-14603857D01*
X-4895429Y-14632429D01*
X-4909714Y-14675286D01*
X-5081143Y-14846714D01*
X-4895429Y-14846714D01*
X-4766857Y-14818143D02*
X-4752572Y-14832429D01*
X-4766857Y-14846714D01*
X-4781143Y-14832429D01*
X-4766857Y-14818143D01*
X-4766857Y-14846714D01*
X-4481143Y-14546714D02*
X-4624000Y-14546714D01*
X-4638286Y-14689571D01*
X-4624000Y-14675286D01*
X-4595429Y-14661000D01*
X-4524000Y-14661000D01*
X-4495429Y-14675286D01*
X-4481143Y-14689571D01*
X-4466857Y-14718143D01*
X-4466857Y-14789571D01*
X-4481143Y-14818143D01*
X-4495429Y-14832429D01*
X-4524000Y-14846714D01*
X-4595429Y-14846714D01*
X-4624000Y-14832429D01*
X-4638286Y-14818143D01*
X-4281143Y-14546714D02*
X-4252572Y-14546714D01*
X-4224000Y-14561000D01*
X-4209714Y-14575286D01*
X-4195429Y-14603857D01*
X-4181143Y-14661000D01*
X-4181143Y-14732429D01*
X-4195429Y-14789571D01*
X-4209714Y-14818143D01*
X-4224000Y-14832429D01*
X-4252572Y-14846714D01*
X-4281143Y-14846714D01*
X-4309714Y-14832429D01*
X-4324000Y-14818143D01*
X-4338286Y-14789571D01*
X-4352572Y-14732429D01*
X-4352572Y-14661000D01*
X-4338286Y-14603857D01*
X-4324000Y-14575286D01*
X-4309714Y-14561000D01*
X-4281143Y-14546714D01*
X-3995429Y-14546714D02*
X-3966857Y-14546714D01*
X-3938286Y-14561000D01*
X-3924000Y-14575286D01*
X-3909714Y-14603857D01*
X-3895429Y-14661000D01*
X-3895429Y-14732429D01*
X-3909714Y-14789571D01*
X-3924000Y-14818143D01*
X-3938286Y-14832429D01*
X-3966857Y-14846714D01*
X-3995429Y-14846714D01*
X-4024000Y-14832429D01*
X-4038286Y-14818143D01*
X-4052571Y-14789571D01*
X-4066857Y-14732429D01*
X-4066857Y-14661000D01*
X-4052571Y-14603857D01*
X-4038286Y-14575286D01*
X-4024000Y-14561000D01*
X-3995429Y-14546714D01*
X-3766857Y-14846714D02*
X-3766857Y-14646714D01*
X-3766857Y-14675286D02*
X-3752571Y-14661000D01*
X-3724000Y-14646714D01*
X-3681143Y-14646714D01*
X-3652571Y-14661000D01*
X-3638286Y-14689571D01*
X-3638286Y-14846714D01*
X-3638286Y-14689571D02*
X-3624000Y-14661000D01*
X-3595429Y-14646714D01*
X-3552571Y-14646714D01*
X-3524000Y-14661000D01*
X-3509714Y-14689571D01*
X-3509714Y-14846714D01*
X-3366857Y-14846714D02*
X-3366857Y-14646714D01*
X-3366857Y-14675286D02*
X-3352571Y-14661000D01*
X-3324000Y-14646714D01*
X-3281143Y-14646714D01*
X-3252571Y-14661000D01*
X-3238286Y-14689571D01*
X-3238286Y-14846714D01*
X-3238286Y-14689571D02*
X-3224000Y-14661000D01*
X-3195429Y-14646714D01*
X-3152571Y-14646714D01*
X-3124000Y-14661000D01*
X-3109714Y-14689571D01*
X-3109714Y-14846714D01*
X-2524000Y-14532429D02*
X-2781143Y-14918143D01*
X-2138286Y-14546714D02*
X-2109714Y-14546714D01*
X-2081143Y-14561000D01*
X-2066857Y-14575286D01*
X-2052571Y-14603857D01*
X-2038286Y-14661000D01*
X-2038286Y-14732429D01*
X-2052571Y-14789571D01*
X-2066857Y-14818143D01*
X-2081143Y-14832429D01*
X-2109714Y-14846714D01*
X-2138286Y-14846714D01*
X-2166857Y-14832429D01*
X-2181143Y-14818143D01*
X-2195429Y-14789571D01*
X-2209714Y-14732429D01*
X-2209714Y-14661000D01*
X-2195429Y-14603857D01*
X-2181143Y-14575286D01*
X-2166857Y-14561000D01*
X-2138286Y-14546714D01*
X-1909714Y-14818143D02*
X-1895429Y-14832429D01*
X-1909714Y-14846714D01*
X-1924000Y-14832429D01*
X-1909714Y-14818143D01*
X-1909714Y-14846714D01*
X-1709714Y-14546714D02*
X-1681143Y-14546714D01*
X-1652571Y-14561000D01*
X-1638286Y-14575286D01*
X-1624000Y-14603857D01*
X-1609714Y-14661000D01*
X-1609714Y-14732429D01*
X-1624000Y-14789571D01*
X-1638286Y-14818143D01*
X-1652571Y-14832429D01*
X-1681143Y-14846714D01*
X-1709714Y-14846714D01*
X-1738286Y-14832429D01*
X-1752571Y-14818143D01*
X-1766857Y-14789571D01*
X-1781143Y-14732429D01*
X-1781143Y-14661000D01*
X-1766857Y-14603857D01*
X-1752571Y-14575286D01*
X-1738286Y-14561000D01*
X-1709714Y-14546714D01*
X-1466857Y-14846714D02*
X-1409714Y-14846714D01*
X-1381143Y-14832429D01*
X-1366857Y-14818143D01*
X-1338286Y-14775286D01*
X-1324000Y-14718143D01*
X-1324000Y-14603857D01*
X-1338286Y-14575286D01*
X-1352572Y-14561000D01*
X-1381143Y-14546714D01*
X-1438286Y-14546714D01*
X-1466857Y-14561000D01*
X-1481143Y-14575286D01*
X-1495429Y-14603857D01*
X-1495429Y-14675286D01*
X-1481143Y-14703857D01*
X-1466857Y-14718143D01*
X-1438286Y-14732429D01*
X-1381143Y-14732429D01*
X-1352572Y-14718143D01*
X-1338286Y-14703857D01*
X-1324000Y-14675286D01*
X-1152572Y-14675286D02*
X-1181143Y-14661000D01*
X-1195429Y-14646714D01*
X-1209714Y-14618143D01*
X-1209714Y-14603857D01*
X-1195429Y-14575286D01*
X-1181143Y-14561000D01*
X-1152572Y-14546714D01*
X-1095429Y-14546714D01*
X-1066857Y-14561000D01*
X-1052572Y-14575286D01*
X-1038286Y-14603857D01*
X-1038286Y-14618143D01*
X-1052572Y-14646714D01*
X-1066857Y-14661000D01*
X-1095429Y-14675286D01*
X-1152572Y-14675286D01*
X-1181143Y-14689571D01*
X-1195429Y-14703857D01*
X-1209714Y-14732429D01*
X-1209714Y-14789571D01*
X-1195429Y-14818143D01*
X-1181143Y-14832429D01*
X-1152572Y-14846714D01*
X-1095429Y-14846714D01*
X-1066857Y-14832429D01*
X-1052572Y-14818143D01*
X-1038286Y-14789571D01*
X-1038286Y-14732429D01*
X-1052572Y-14703857D01*
X-1066857Y-14689571D01*
X-1095429Y-14675286D01*
X-781143Y-14646714D02*
X-781143Y-14846714D01*
X-852571Y-14532429D02*
X-924000Y-14746714D01*
X-738286Y-14746714D01*
X-638286Y-14546714D02*
X-638286Y-14603857D01*
X-524000Y-14546714D02*
X-524000Y-14603857D01*
X-81143Y-14961000D02*
X-95429Y-14946714D01*
X-124000Y-14903857D01*
X-138286Y-14875286D01*
X-152572Y-14832429D01*
X-166857Y-14761000D01*
X-166857Y-14703857D01*
X-152572Y-14632429D01*
X-138286Y-14589571D01*
X-124000Y-14561000D01*
X-95429Y-14518143D01*
X-81143Y-14503857D01*
X47428Y-14846714D02*
X104571Y-14846714D01*
X133143Y-14832429D01*
X147428Y-14818143D01*
X176000Y-14775286D01*
X190286Y-14718143D01*
X190286Y-14603857D01*
X176000Y-14575286D01*
X161714Y-14561000D01*
X133143Y-14546714D01*
X76000Y-14546714D01*
X47428Y-14561000D01*
X33143Y-14575286D01*
X18857Y-14603857D01*
X18857Y-14675286D01*
X33143Y-14703857D01*
X47428Y-14718143D01*
X76000Y-14732429D01*
X133143Y-14732429D01*
X161714Y-14718143D01*
X176000Y-14703857D01*
X190286Y-14675286D01*
X547428Y-14846714D02*
X547428Y-14546714D01*
X676000Y-14846714D02*
X676000Y-14689571D01*
X661714Y-14661000D01*
X633143Y-14646714D01*
X590286Y-14646714D01*
X561714Y-14661000D01*
X547428Y-14675286D01*
X861714Y-14846714D02*
X833143Y-14832429D01*
X818857Y-14818143D01*
X804571Y-14789571D01*
X804571Y-14703857D01*
X818857Y-14675286D01*
X833143Y-14661000D01*
X861714Y-14646714D01*
X904571Y-14646714D01*
X933143Y-14661000D01*
X947428Y-14675286D01*
X961714Y-14703857D01*
X961714Y-14789571D01*
X947428Y-14818143D01*
X933143Y-14832429D01*
X904571Y-14846714D01*
X861714Y-14846714D01*
X1133143Y-14846714D02*
X1104571Y-14832429D01*
X1090286Y-14803857D01*
X1090286Y-14546714D01*
X1361714Y-14832429D02*
X1333143Y-14846714D01*
X1276000Y-14846714D01*
X1247428Y-14832429D01*
X1233143Y-14803857D01*
X1233143Y-14689571D01*
X1247428Y-14661000D01*
X1276000Y-14646714D01*
X1333143Y-14646714D01*
X1361714Y-14661000D01*
X1376000Y-14689571D01*
X1376000Y-14718143D01*
X1233143Y-14746714D01*
X1490286Y-14832429D02*
X1518857Y-14846714D01*
X1576000Y-14846714D01*
X1604571Y-14832429D01*
X1618857Y-14803857D01*
X1618857Y-14789571D01*
X1604571Y-14761000D01*
X1576000Y-14746714D01*
X1533143Y-14746714D01*
X1504571Y-14732429D01*
X1490286Y-14703857D01*
X1490286Y-14689571D01*
X1504571Y-14661000D01*
X1533143Y-14646714D01*
X1576000Y-14646714D01*
X1604571Y-14661000D01*
X1718857Y-14961000D02*
X1733143Y-14946714D01*
X1761714Y-14903857D01*
X1776000Y-14875286D01*
X1790286Y-14832429D01*
X1804571Y-14761000D01*
X1804571Y-14703857D01*
X1790286Y-14632429D01*
X1776000Y-14589571D01*
X1761714Y-14561000D01*
X1733143Y-14518143D01*
X1718857Y-14503857D01*
X2261714Y-14961000D02*
X2247428Y-14946714D01*
X2218857Y-14903857D01*
X2204571Y-14875286D01*
X2190286Y-14832429D01*
X2176000Y-14761000D01*
X2176000Y-14703857D01*
X2190286Y-14632429D01*
X2204571Y-14589571D01*
X2218857Y-14561000D01*
X2247428Y-14518143D01*
X2261714Y-14503857D01*
X2376000Y-14646714D02*
X2376000Y-14846714D01*
X2376000Y-14675286D02*
X2390286Y-14661000D01*
X2418857Y-14646714D01*
X2461714Y-14646714D01*
X2490286Y-14661000D01*
X2504571Y-14689571D01*
X2504571Y-14846714D01*
X2690286Y-14846714D02*
X2661714Y-14832429D01*
X2647428Y-14818143D01*
X2633143Y-14789571D01*
X2633143Y-14703857D01*
X2647428Y-14675286D01*
X2661714Y-14661000D01*
X2690286Y-14646714D01*
X2733143Y-14646714D01*
X2761714Y-14661000D01*
X2776000Y-14675286D01*
X2790286Y-14703857D01*
X2790286Y-14789571D01*
X2776000Y-14818143D01*
X2761714Y-14832429D01*
X2733143Y-14846714D01*
X2690286Y-14846714D01*
X2876000Y-14646714D02*
X2990286Y-14646714D01*
X2918857Y-14546714D02*
X2918857Y-14803857D01*
X2933143Y-14832429D01*
X2961714Y-14846714D01*
X2990286Y-14846714D01*
X3318857Y-14646714D02*
X3318857Y-14946714D01*
X3318857Y-14661000D02*
X3347428Y-14646714D01*
X3404571Y-14646714D01*
X3433143Y-14661000D01*
X3447428Y-14675286D01*
X3461714Y-14703857D01*
X3461714Y-14789571D01*
X3447428Y-14818143D01*
X3433143Y-14832429D01*
X3404571Y-14846714D01*
X3347428Y-14846714D01*
X3318857Y-14832429D01*
X3633143Y-14846714D02*
X3604571Y-14832429D01*
X3590286Y-14803857D01*
X3590286Y-14546714D01*
X3876000Y-14846714D02*
X3876000Y-14689571D01*
X3861714Y-14661000D01*
X3833143Y-14646714D01*
X3776000Y-14646714D01*
X3747428Y-14661000D01*
X3876000Y-14832429D02*
X3847428Y-14846714D01*
X3776000Y-14846714D01*
X3747428Y-14832429D01*
X3733143Y-14803857D01*
X3733143Y-14775286D01*
X3747428Y-14746714D01*
X3776000Y-14732429D01*
X3847428Y-14732429D01*
X3876000Y-14718143D01*
X3976000Y-14646714D02*
X4090286Y-14646714D01*
X4018857Y-14546714D02*
X4018857Y-14803857D01*
X4033143Y-14832429D01*
X4061714Y-14846714D01*
X4090286Y-14846714D01*
X4304571Y-14832429D02*
X4276000Y-14846714D01*
X4218857Y-14846714D01*
X4190286Y-14832429D01*
X4176000Y-14803857D01*
X4176000Y-14689571D01*
X4190286Y-14661000D01*
X4218857Y-14646714D01*
X4276000Y-14646714D01*
X4304571Y-14661000D01*
X4318857Y-14689571D01*
X4318857Y-14718143D01*
X4176000Y-14746714D01*
X4576000Y-14846714D02*
X4576000Y-14546714D01*
X4576000Y-14832429D02*
X4547428Y-14846714D01*
X4490286Y-14846714D01*
X4461714Y-14832429D01*
X4447428Y-14818143D01*
X4433143Y-14789571D01*
X4433143Y-14703857D01*
X4447428Y-14675286D01*
X4461714Y-14661000D01*
X4490286Y-14646714D01*
X4547428Y-14646714D01*
X4576000Y-14661000D01*
X4690286Y-14961000D02*
X4704571Y-14946714D01*
X4733143Y-14903857D01*
X4747428Y-14875286D01*
X4761714Y-14832429D01*
X4776000Y-14761000D01*
X4776000Y-14703857D01*
X4761714Y-14632429D01*
X4747428Y-14589571D01*
X4733143Y-14561000D01*
X4704571Y-14518143D01*
X4690286Y-14503857D01*
X-5380004Y-15205996D02*
X-5380004Y-15008004D01*
X-5577996Y-15008004D01*
X-5577996Y-15205996D01*
X-5380004Y-15205996D01*
X-5066857Y-14971286D02*
X-5052572Y-14957000D01*
X-5024000Y-14942714D01*
X-4952572Y-14942714D01*
X-4924000Y-14957000D01*
X-4909714Y-14971286D01*
X-4895429Y-14999857D01*
X-4895429Y-15028429D01*
X-4909714Y-15071286D01*
X-5081143Y-15242714D01*
X-4895429Y-15242714D01*
X-4766857Y-15214143D02*
X-4752572Y-15228429D01*
X-4766857Y-15242714D01*
X-4781143Y-15228429D01*
X-4766857Y-15214143D01*
X-4766857Y-15242714D01*
X-4581143Y-15071286D02*
X-4609714Y-15057000D01*
X-4624000Y-15042714D01*
X-4638286Y-15014143D01*
X-4638286Y-14999857D01*
X-4624000Y-14971286D01*
X-4609714Y-14957000D01*
X-4581143Y-14942714D01*
X-4524000Y-14942714D01*
X-4495429Y-14957000D01*
X-4481143Y-14971286D01*
X-4466857Y-14999857D01*
X-4466857Y-15014143D01*
X-4481143Y-15042714D01*
X-4495429Y-15057000D01*
X-4524000Y-15071286D01*
X-4581143Y-15071286D01*
X-4609714Y-15085571D01*
X-4624000Y-15099857D01*
X-4638286Y-15128429D01*
X-4638286Y-15185571D01*
X-4624000Y-15214143D01*
X-4609714Y-15228429D01*
X-4581143Y-15242714D01*
X-4524000Y-15242714D01*
X-4495429Y-15228429D01*
X-4481143Y-15214143D01*
X-4466857Y-15185571D01*
X-4466857Y-15128429D01*
X-4481143Y-15099857D01*
X-4495429Y-15085571D01*
X-4524000Y-15071286D01*
X-4281143Y-14942714D02*
X-4252572Y-14942714D01*
X-4224000Y-14957000D01*
X-4209714Y-14971286D01*
X-4195429Y-14999857D01*
X-4181143Y-15057000D01*
X-4181143Y-15128429D01*
X-4195429Y-15185571D01*
X-4209714Y-15214143D01*
X-4224000Y-15228429D01*
X-4252572Y-15242714D01*
X-4281143Y-15242714D01*
X-4309714Y-15228429D01*
X-4324000Y-15214143D01*
X-4338286Y-15185571D01*
X-4352572Y-15128429D01*
X-4352572Y-15057000D01*
X-4338286Y-14999857D01*
X-4324000Y-14971286D01*
X-4309714Y-14957000D01*
X-4281143Y-14942714D01*
X-3995429Y-14942714D02*
X-3966857Y-14942714D01*
X-3938286Y-14957000D01*
X-3924000Y-14971286D01*
X-3909714Y-14999857D01*
X-3895429Y-15057000D01*
X-3895429Y-15128429D01*
X-3909714Y-15185571D01*
X-3924000Y-15214143D01*
X-3938286Y-15228429D01*
X-3966857Y-15242714D01*
X-3995429Y-15242714D01*
X-4024000Y-15228429D01*
X-4038286Y-15214143D01*
X-4052571Y-15185571D01*
X-4066857Y-15128429D01*
X-4066857Y-15057000D01*
X-4052571Y-14999857D01*
X-4038286Y-14971286D01*
X-4024000Y-14957000D01*
X-3995429Y-14942714D01*
X-3766857Y-15242714D02*
X-3766857Y-15042714D01*
X-3766857Y-15071286D02*
X-3752571Y-15057000D01*
X-3724000Y-15042714D01*
X-3681143Y-15042714D01*
X-3652571Y-15057000D01*
X-3638286Y-15085571D01*
X-3638286Y-15242714D01*
X-3638286Y-15085571D02*
X-3624000Y-15057000D01*
X-3595429Y-15042714D01*
X-3552571Y-15042714D01*
X-3524000Y-15057000D01*
X-3509714Y-15085571D01*
X-3509714Y-15242714D01*
X-3366857Y-15242714D02*
X-3366857Y-15042714D01*
X-3366857Y-15071286D02*
X-3352571Y-15057000D01*
X-3324000Y-15042714D01*
X-3281143Y-15042714D01*
X-3252571Y-15057000D01*
X-3238286Y-15085571D01*
X-3238286Y-15242714D01*
X-3238286Y-15085571D02*
X-3224000Y-15057000D01*
X-3195429Y-15042714D01*
X-3152571Y-15042714D01*
X-3124000Y-15057000D01*
X-3109714Y-15085571D01*
X-3109714Y-15242714D01*
X-2524000Y-14928429D02*
X-2781143Y-15314143D01*
X-2138286Y-14942714D02*
X-2109714Y-14942714D01*
X-2081143Y-14957000D01*
X-2066857Y-14971286D01*
X-2052571Y-14999857D01*
X-2038286Y-15057000D01*
X-2038286Y-15128429D01*
X-2052571Y-15185571D01*
X-2066857Y-15214143D01*
X-2081143Y-15228429D01*
X-2109714Y-15242714D01*
X-2138286Y-15242714D01*
X-2166857Y-15228429D01*
X-2181143Y-15214143D01*
X-2195429Y-15185571D01*
X-2209714Y-15128429D01*
X-2209714Y-15057000D01*
X-2195429Y-14999857D01*
X-2181143Y-14971286D01*
X-2166857Y-14957000D01*
X-2138286Y-14942714D01*
X-1909714Y-15214143D02*
X-1895429Y-15228429D01*
X-1909714Y-15242714D01*
X-1924000Y-15228429D01*
X-1909714Y-15214143D01*
X-1909714Y-15242714D01*
X-1609714Y-15242714D02*
X-1781143Y-15242714D01*
X-1695429Y-15242714D02*
X-1695429Y-14942714D01*
X-1724000Y-14985571D01*
X-1752571Y-15014143D01*
X-1781143Y-15028429D01*
X-1324000Y-15242714D02*
X-1495429Y-15242714D01*
X-1409714Y-15242714D02*
X-1409714Y-14942714D01*
X-1438286Y-14985571D01*
X-1466857Y-15014143D01*
X-1495429Y-15028429D01*
X-1138286Y-14942714D02*
X-1109714Y-14942714D01*
X-1081143Y-14957000D01*
X-1066857Y-14971286D01*
X-1052572Y-14999857D01*
X-1038286Y-15057000D01*
X-1038286Y-15128429D01*
X-1052572Y-15185571D01*
X-1066857Y-15214143D01*
X-1081143Y-15228429D01*
X-1109714Y-15242714D01*
X-1138286Y-15242714D01*
X-1166857Y-15228429D01*
X-1181143Y-15214143D01*
X-1195429Y-15185571D01*
X-1209714Y-15128429D01*
X-1209714Y-15057000D01*
X-1195429Y-14999857D01*
X-1181143Y-14971286D01*
X-1166857Y-14957000D01*
X-1138286Y-14942714D01*
X-924000Y-14971286D02*
X-909714Y-14957000D01*
X-881143Y-14942714D01*
X-809714Y-14942714D01*
X-781143Y-14957000D01*
X-766857Y-14971286D01*
X-752571Y-14999857D01*
X-752571Y-15028429D01*
X-766857Y-15071286D01*
X-938286Y-15242714D01*
X-752571Y-15242714D01*
X-638286Y-14942714D02*
X-638286Y-14999857D01*
X-524000Y-14942714D02*
X-524000Y-14999857D01*
X-81143Y-15357000D02*
X-95429Y-15342714D01*
X-124000Y-15299857D01*
X-138286Y-15271286D01*
X-152572Y-15228429D01*
X-166857Y-15157000D01*
X-166857Y-15099857D01*
X-152572Y-15028429D01*
X-138286Y-14985571D01*
X-124000Y-14957000D01*
X-95429Y-14914143D01*
X-81143Y-14899857D01*
X190286Y-15242714D02*
X18857Y-15242714D01*
X104571Y-15242714D02*
X104571Y-14942714D01*
X76000Y-14985571D01*
X47428Y-15014143D01*
X18857Y-15028429D01*
X290286Y-14942714D02*
X490286Y-14942714D01*
X361714Y-15242714D01*
X833143Y-15242714D02*
X833143Y-14942714D01*
X961714Y-15242714D02*
X961714Y-15085571D01*
X947428Y-15057000D01*
X918857Y-15042714D01*
X876000Y-15042714D01*
X847428Y-15057000D01*
X833143Y-15071286D01*
X1147428Y-15242714D02*
X1118857Y-15228429D01*
X1104571Y-15214143D01*
X1090286Y-15185571D01*
X1090286Y-15099857D01*
X1104571Y-15071286D01*
X1118857Y-15057000D01*
X1147428Y-15042714D01*
X1190286Y-15042714D01*
X1218857Y-15057000D01*
X1233143Y-15071286D01*
X1247428Y-15099857D01*
X1247428Y-15185571D01*
X1233143Y-15214143D01*
X1218857Y-15228429D01*
X1190286Y-15242714D01*
X1147428Y-15242714D01*
X1418857Y-15242714D02*
X1390286Y-15228429D01*
X1376000Y-15199857D01*
X1376000Y-14942714D01*
X1647428Y-15228429D02*
X1618857Y-15242714D01*
X1561714Y-15242714D01*
X1533143Y-15228429D01*
X1518857Y-15199857D01*
X1518857Y-15085571D01*
X1533143Y-15057000D01*
X1561714Y-15042714D01*
X1618857Y-15042714D01*
X1647428Y-15057000D01*
X1661714Y-15085571D01*
X1661714Y-15114143D01*
X1518857Y-15142714D01*
X1776000Y-15228429D02*
X1804571Y-15242714D01*
X1861714Y-15242714D01*
X1890286Y-15228429D01*
X1904571Y-15199857D01*
X1904571Y-15185571D01*
X1890286Y-15157000D01*
X1861714Y-15142714D01*
X1818857Y-15142714D01*
X1790286Y-15128429D01*
X1776000Y-15099857D01*
X1776000Y-15085571D01*
X1790286Y-15057000D01*
X1818857Y-15042714D01*
X1861714Y-15042714D01*
X1890286Y-15057000D01*
X2004571Y-15357000D02*
X2018857Y-15342714D01*
X2047428Y-15299857D01*
X2061714Y-15271286D01*
X2076000Y-15228429D01*
X2090286Y-15157000D01*
X2090286Y-15099857D01*
X2076000Y-15028429D01*
X2061714Y-14985571D01*
X2047428Y-14957000D01*
X2018857Y-14914143D01*
X2004571Y-14899857D01*
X2547428Y-15357000D02*
X2533143Y-15342714D01*
X2504571Y-15299857D01*
X2490286Y-15271286D01*
X2476000Y-15228429D01*
X2461714Y-15157000D01*
X2461714Y-15099857D01*
X2476000Y-15028429D01*
X2490286Y-14985571D01*
X2504571Y-14957000D01*
X2533143Y-14914143D01*
X2547428Y-14899857D01*
X2661714Y-15042714D02*
X2661714Y-15242714D01*
X2661714Y-15071286D02*
X2676000Y-15057000D01*
X2704571Y-15042714D01*
X2747428Y-15042714D01*
X2776000Y-15057000D01*
X2790286Y-15085571D01*
X2790286Y-15242714D01*
X2976000Y-15242714D02*
X2947428Y-15228429D01*
X2933143Y-15214143D01*
X2918857Y-15185571D01*
X2918857Y-15099857D01*
X2933143Y-15071286D01*
X2947428Y-15057000D01*
X2976000Y-15042714D01*
X3018857Y-15042714D01*
X3047428Y-15057000D01*
X3061714Y-15071286D01*
X3076000Y-15099857D01*
X3076000Y-15185571D01*
X3061714Y-15214143D01*
X3047428Y-15228429D01*
X3018857Y-15242714D01*
X2976000Y-15242714D01*
X3161714Y-15042714D02*
X3276000Y-15042714D01*
X3204571Y-14942714D02*
X3204571Y-15199857D01*
X3218857Y-15228429D01*
X3247428Y-15242714D01*
X3276000Y-15242714D01*
X3604571Y-15042714D02*
X3604571Y-15342714D01*
X3604571Y-15057000D02*
X3633143Y-15042714D01*
X3690286Y-15042714D01*
X3718857Y-15057000D01*
X3733143Y-15071286D01*
X3747428Y-15099857D01*
X3747428Y-15185571D01*
X3733143Y-15214143D01*
X3718857Y-15228429D01*
X3690286Y-15242714D01*
X3633143Y-15242714D01*
X3604571Y-15228429D01*
X3918857Y-15242714D02*
X3890286Y-15228429D01*
X3876000Y-15199857D01*
X3876000Y-14942714D01*
X4161714Y-15242714D02*
X4161714Y-15085571D01*
X4147428Y-15057000D01*
X4118857Y-15042714D01*
X4061714Y-15042714D01*
X4033143Y-15057000D01*
X4161714Y-15228429D02*
X4133143Y-15242714D01*
X4061714Y-15242714D01*
X4033143Y-15228429D01*
X4018857Y-15199857D01*
X4018857Y-15171286D01*
X4033143Y-15142714D01*
X4061714Y-15128429D01*
X4133143Y-15128429D01*
X4161714Y-15114143D01*
X4261714Y-15042714D02*
X4376000Y-15042714D01*
X4304571Y-14942714D02*
X4304571Y-15199857D01*
X4318857Y-15228429D01*
X4347428Y-15242714D01*
X4376000Y-15242714D01*
X4590286Y-15228429D02*
X4561714Y-15242714D01*
X4504571Y-15242714D01*
X4476000Y-15228429D01*
X4461714Y-15199857D01*
X4461714Y-15085571D01*
X4476000Y-15057000D01*
X4504571Y-15042714D01*
X4561714Y-15042714D01*
X4590286Y-15057000D01*
X4604571Y-15085571D01*
X4604571Y-15114143D01*
X4461714Y-15142714D01*
X4861714Y-15242714D02*
X4861714Y-14942714D01*
X4861714Y-15228429D02*
X4833143Y-15242714D01*
X4776000Y-15242714D01*
X4747428Y-15228429D01*
X4733143Y-15214143D01*
X4718857Y-15185571D01*
X4718857Y-15099857D01*
X4733143Y-15071286D01*
X4747428Y-15057000D01*
X4776000Y-15042714D01*
X4833143Y-15042714D01*
X4861714Y-15057000D01*
X4976000Y-15357000D02*
X4990286Y-15342714D01*
X5018857Y-15299857D01*
X5033143Y-15271286D01*
X5047428Y-15228429D01*
X5061714Y-15157000D01*
X5061714Y-15099857D01*
X5047428Y-15028429D01*
X5033143Y-14985571D01*
X5018857Y-14957000D01*
X4990286Y-14914143D01*
X4976000Y-14899857D01*
M02*
