G04 #@! TF.GenerationSoftware,KiCad,Pcbnew,5.1.12-84ad8e8a86~92~ubuntu20.04.1*
G04 #@! TF.CreationDate,2021-12-12T19:41:42-05:00*
G04 #@! TF.ProjectId,it_is_the_champion,69745f69-735f-4746-9865-5f6368616d70,0.1*
G04 #@! TF.SameCoordinates,Original*
G04 #@! TF.FileFunction,Copper,L1,Top*
G04 #@! TF.FilePolarity,Positive*
%FSLAX46Y46*%
G04 Gerber Fmt 4.6, Leading zero omitted, Abs format (unit mm)*
G04 Created by KiCad (PCBNEW 5.1.12-84ad8e8a86~92~ubuntu20.04.1) date 2021-12-12 19:41:42*
%MOMM*%
%LPD*%
G01*
G04 APERTURE LIST*
G04 #@! TA.AperFunction,ComponentPad*
%ADD10O,2.400000X2.400000*%
G04 #@! TD*
G04 #@! TA.AperFunction,ComponentPad*
%ADD11C,2.400000*%
G04 #@! TD*
G04 #@! TA.AperFunction,ComponentPad*
%ADD12C,2.000000*%
G04 #@! TD*
G04 #@! TA.AperFunction,ComponentPad*
%ADD13O,3.500000X3.500000*%
G04 #@! TD*
G04 #@! TA.AperFunction,ComponentPad*
%ADD14C,4.000000*%
G04 #@! TD*
G04 #@! TA.AperFunction,ComponentPad*
%ADD15C,6.000000*%
G04 #@! TD*
G04 #@! TA.AperFunction,ComponentPad*
%ADD16C,2.550000*%
G04 #@! TD*
G04 #@! TA.AperFunction,ComponentPad*
%ADD17R,2.400000X2.400000*%
G04 #@! TD*
G04 #@! TA.AperFunction,ComponentPad*
%ADD18C,5.600000*%
G04 #@! TD*
G04 #@! TA.AperFunction,ComponentPad*
%ADD19C,5.599999*%
G04 #@! TD*
G04 #@! TA.AperFunction,ComponentPad*
%ADD20C,1.600000*%
G04 #@! TD*
G04 #@! TA.AperFunction,ComponentPad*
%ADD21O,1.600000X1.600000*%
G04 #@! TD*
G04 #@! TA.AperFunction,ComponentPad*
%ADD22O,2.200000X2.200000*%
G04 #@! TD*
G04 #@! TA.AperFunction,ComponentPad*
%ADD23R,2.200000X2.200000*%
G04 #@! TD*
G04 #@! TA.AperFunction,ComponentPad*
%ADD24R,1.600000X1.600000*%
G04 #@! TD*
G04 #@! TA.AperFunction,ComponentPad*
%ADD25R,3.200000X3.200000*%
G04 #@! TD*
G04 #@! TA.AperFunction,ComponentPad*
%ADD26C,3.200000*%
G04 #@! TD*
G04 #@! TA.AperFunction,Conductor*
%ADD27C,2.000000*%
G04 #@! TD*
G04 #@! TA.AperFunction,Conductor*
%ADD28C,2.500000*%
G04 #@! TD*
G04 #@! TA.AperFunction,Conductor*
%ADD29C,3.500001*%
G04 #@! TD*
G04 #@! TA.AperFunction,Conductor*
%ADD30C,3.500000*%
G04 #@! TD*
G04 APERTURE END LIST*
D10*
X142240000Y-63500000D03*
D11*
X162560000Y-63500000D03*
G04 #@! TA.AperFunction,ComponentPad*
G36*
G01*
X52435000Y-44335000D02*
X52435000Y-45835000D01*
G75*
G02*
X52185000Y-46085000I-250000J0D01*
G01*
X50685000Y-46085000D01*
G75*
G02*
X50435000Y-45835000I0J250000D01*
G01*
X50435000Y-44335000D01*
G75*
G02*
X50685000Y-44085000I250000J0D01*
G01*
X52185000Y-44085000D01*
G75*
G02*
X52435000Y-44335000I0J-250000D01*
G01*
G37*
G04 #@! TD.AperFunction*
D12*
X46935000Y-45085000D03*
G04 #@! TA.AperFunction,ComponentPad*
G36*
G01*
X160385000Y-44335000D02*
X160385000Y-45835000D01*
G75*
G02*
X160135000Y-46085000I-250000J0D01*
G01*
X158635000Y-46085000D01*
G75*
G02*
X158385000Y-45835000I0J250000D01*
G01*
X158385000Y-44335000D01*
G75*
G02*
X158635000Y-44085000I250000J0D01*
G01*
X160135000Y-44085000D01*
G75*
G02*
X160385000Y-44335000I0J-250000D01*
G01*
G37*
G04 #@! TD.AperFunction*
X154885000Y-45085000D03*
D13*
X65165322Y-84911745D03*
X63160000Y-78740000D03*
X65165322Y-72568255D03*
X70415322Y-68753907D03*
X76904678Y-68753907D03*
X82154678Y-72568255D03*
X84160000Y-78740000D03*
X82154678Y-84911745D03*
X76904678Y-88726093D03*
D14*
X73660000Y-92990000D03*
D15*
X73660000Y-64490000D03*
D13*
X126125322Y-84911745D03*
X124120000Y-78740000D03*
X126125322Y-72568255D03*
X131375322Y-68753907D03*
X137864678Y-68753907D03*
X143114678Y-72568255D03*
X145120000Y-78740000D03*
X143114678Y-84911745D03*
X137864678Y-88726093D03*
D14*
X134620000Y-92990000D03*
D15*
X134620000Y-64490000D03*
D10*
X151765000Y-124460000D03*
D11*
X151765000Y-104140000D03*
D10*
X93980000Y-106680000D03*
D11*
X114300000Y-106680000D03*
D10*
X77470000Y-114300000D03*
D11*
X57150000Y-114300000D03*
D16*
X53340000Y-98780000D03*
G04 #@! TA.AperFunction,ComponentPad*
G36*
G01*
X52314999Y-92705000D02*
X54365001Y-92705000D01*
G75*
G02*
X54615000Y-92954999I0J-249999D01*
G01*
X54615000Y-95005001D01*
G75*
G02*
X54365001Y-95255000I-249999J0D01*
G01*
X52314999Y-95255000D01*
G75*
G02*
X52065000Y-95005001I0J249999D01*
G01*
X52065000Y-92954999D01*
G75*
G02*
X52314999Y-92705000I249999J0D01*
G01*
G37*
G04 #@! TD.AperFunction*
X53340000Y-117830000D03*
G04 #@! TA.AperFunction,ComponentPad*
G36*
G01*
X52314999Y-111755000D02*
X54365001Y-111755000D01*
G75*
G02*
X54615000Y-112004999I0J-249999D01*
G01*
X54615000Y-114055001D01*
G75*
G02*
X54365001Y-114305000I-249999J0D01*
G01*
X52314999Y-114305000D01*
G75*
G02*
X52065000Y-114055001I0J249999D01*
G01*
X52065000Y-112004999D01*
G75*
G02*
X52314999Y-111755000I249999J0D01*
G01*
G37*
G04 #@! TD.AperFunction*
D11*
X121920000Y-121800000D03*
D17*
X121920000Y-114300000D03*
D11*
X88900000Y-121800000D03*
D17*
X88900000Y-114300000D03*
D16*
X-938000Y-48006000D03*
X3862000Y-48006000D03*
X8662000Y-48006000D03*
X13462000Y-48006000D03*
G04 #@! TA.AperFunction,ComponentPad*
G36*
G01*
X19537000Y-46980999D02*
X19537000Y-49031001D01*
G75*
G02*
X19287001Y-49281000I-249999J0D01*
G01*
X17236999Y-49281000D01*
G75*
G02*
X16987000Y-49031001I0J249999D01*
G01*
X16987000Y-46980999D01*
G75*
G02*
X17236999Y-46731000I249999J0D01*
G01*
X19287001Y-46731000D01*
G75*
G02*
X19537000Y-46980999I0J-249999D01*
G01*
G37*
G04 #@! TD.AperFunction*
D18*
X-48260000Y-115570000D03*
X25400000Y-115570000D03*
D19*
X-48260000Y-33020000D03*
D18*
X25400000Y-33020000D03*
X86360000Y-93980000D03*
X60960000Y-63500000D03*
X147320000Y-93980000D03*
X121920000Y-63500000D03*
X38100000Y-124460000D03*
X167640000Y-124460000D03*
X167640000Y-33020000D03*
X38100000Y-33020000D03*
D16*
X-40360000Y-47836000D03*
G04 #@! TA.AperFunction,ComponentPad*
G36*
G01*
X-34285000Y-46810999D02*
X-34285000Y-48861001D01*
G75*
G02*
X-34534999Y-49111000I-249999J0D01*
G01*
X-36585001Y-49111000D01*
G75*
G02*
X-36835000Y-48861001I0J249999D01*
G01*
X-36835000Y-46810999D01*
G75*
G02*
X-36585001Y-46561000I249999J0D01*
G01*
X-34534999Y-46561000D01*
G75*
G02*
X-34285000Y-46810999I0J-249999D01*
G01*
G37*
G04 #@! TD.AperFunction*
D10*
X43815000Y-58420000D03*
D11*
X43815000Y-78740000D03*
D10*
X52070000Y-78740000D03*
D11*
X52070000Y-58420000D03*
D10*
X83820000Y-63500000D03*
D11*
X104140000Y-63500000D03*
D20*
X144860000Y-50800000D03*
X149860000Y-50800000D03*
D11*
X26670000Y-57150000D03*
D10*
X26670000Y-87630000D03*
D21*
X43815000Y-53340000D03*
D20*
X53975000Y-53340000D03*
D21*
X109220000Y-83820000D03*
D20*
X99060000Y-83820000D03*
D21*
X109220000Y-78740000D03*
D20*
X99060000Y-78740000D03*
D21*
X118110000Y-81280000D03*
D20*
X118110000Y-71120000D03*
D21*
X170180000Y-86360000D03*
D20*
X160020000Y-86360000D03*
D21*
X170180000Y-76200000D03*
D20*
X160020000Y-76200000D03*
D21*
X170180000Y-81280000D03*
D20*
X160020000Y-81280000D03*
D22*
X-6350000Y-94615000D03*
D23*
X-6350000Y-104775000D03*
D22*
X-6350000Y-107950000D03*
D23*
X-6350000Y-118110000D03*
D22*
X-16510000Y-94615000D03*
D23*
X-16510000Y-104775000D03*
D22*
X-16510000Y-107950000D03*
D23*
X-16510000Y-118110000D03*
D22*
X-11430000Y-104775000D03*
D23*
X-11430000Y-94615000D03*
D22*
X-11430000Y-118110000D03*
D23*
X-11430000Y-107950000D03*
D22*
X-21590000Y-104775000D03*
D23*
X-21590000Y-94615000D03*
D22*
X-21590000Y-118110000D03*
D23*
X-21590000Y-107950000D03*
D11*
X-3930000Y-60706000D03*
D17*
X-11430000Y-60706000D03*
D11*
X16390000Y-81026000D03*
D17*
X8890000Y-81026000D03*
D11*
X-3930000Y-81026000D03*
D17*
X-11430000Y-81026000D03*
D12*
X36830000Y-68580000D03*
X36830000Y-58580000D03*
D20*
X68580000Y-55880000D03*
X63580000Y-55880000D03*
X99140000Y-55880000D03*
X104140000Y-55880000D03*
X119300000Y-86995000D03*
X114300000Y-86995000D03*
D12*
X139700000Y-50800000D03*
X129700000Y-50800000D03*
X139700000Y-58420000D03*
X129700000Y-58420000D03*
D20*
X165100000Y-94575000D03*
D24*
X165100000Y-92075000D03*
D11*
X-30600000Y-61976000D03*
D17*
X-38100000Y-61976000D03*
D11*
X-30600000Y-79756000D03*
D17*
X-38100000Y-79756000D03*
G04 #@! TA.AperFunction,ComponentPad*
G36*
G01*
X-41915000Y-101355001D02*
X-41915000Y-99304999D01*
G75*
G02*
X-41665001Y-99055000I249999J0D01*
G01*
X-39614999Y-99055000D01*
G75*
G02*
X-39365000Y-99304999I0J-249999D01*
G01*
X-39365000Y-101355001D01*
G75*
G02*
X-39614999Y-101605000I-249999J0D01*
G01*
X-41665001Y-101605000D01*
G75*
G02*
X-41915000Y-101355001I0J249999D01*
G01*
G37*
G04 #@! TD.AperFunction*
D16*
X-35840000Y-100330000D03*
D11*
X16390000Y-60706000D03*
D17*
X8890000Y-60706000D03*
D12*
X119960000Y-45020000D03*
G04 #@! TA.AperFunction,ComponentPad*
G36*
G01*
X125460000Y-44270000D02*
X125460000Y-45770000D01*
G75*
G02*
X125210000Y-46020000I-250000J0D01*
G01*
X123710000Y-46020000D01*
G75*
G02*
X123460000Y-45770000I0J250000D01*
G01*
X123460000Y-44270000D01*
G75*
G02*
X123710000Y-44020000I250000J0D01*
G01*
X125210000Y-44020000D01*
G75*
G02*
X125460000Y-44270000I0J-250000D01*
G01*
G37*
G04 #@! TD.AperFunction*
X135780000Y-45020000D03*
X140280000Y-45020000D03*
G04 #@! TA.AperFunction,ComponentPad*
G36*
G01*
X145780000Y-44270000D02*
X145780000Y-45770000D01*
G75*
G02*
X145530000Y-46020000I-250000J0D01*
G01*
X144030000Y-46020000D01*
G75*
G02*
X143780000Y-45770000I0J250000D01*
G01*
X143780000Y-44270000D01*
G75*
G02*
X144030000Y-44020000I250000J0D01*
G01*
X145530000Y-44020000D01*
G75*
G02*
X145780000Y-44270000I0J-250000D01*
G01*
G37*
G04 #@! TD.AperFunction*
D25*
X-45720000Y-95250000D03*
D26*
X-40640000Y-95250000D03*
X-35560000Y-95250000D03*
X-30480000Y-95250000D03*
G04 #@! TA.AperFunction,ComponentPad*
G36*
G01*
X2535000Y-101355001D02*
X2535000Y-99304999D01*
G75*
G02*
X2784999Y-99055000I249999J0D01*
G01*
X4835001Y-99055000D01*
G75*
G02*
X5085000Y-99304999I0J-249999D01*
G01*
X5085000Y-101355001D01*
G75*
G02*
X4835001Y-101605000I-249999J0D01*
G01*
X2784999Y-101605000D01*
G75*
G02*
X2535000Y-101355001I0J249999D01*
G01*
G37*
G04 #@! TD.AperFunction*
D16*
X8610000Y-100330000D03*
X13410000Y-100330000D03*
X18210000Y-100330000D03*
D11*
X-46990000Y-57150000D03*
D10*
X-46990000Y-87630000D03*
D11*
X-21590000Y-57150000D03*
D10*
X-21590000Y-87630000D03*
D11*
X83820000Y-106680000D03*
D10*
X63500000Y-106680000D03*
X93980000Y-71120000D03*
D11*
X93980000Y-91440000D03*
D10*
X124460000Y-104140000D03*
D11*
X144780000Y-104140000D03*
D10*
X154940000Y-71120000D03*
D11*
X154940000Y-91440000D03*
D20*
X113030000Y-73620000D03*
D24*
X113030000Y-71120000D03*
D27*
X-48260000Y-33020000D02*
X-48260000Y-44069000D01*
X-44493000Y-47836000D02*
X-40360000Y-47836000D01*
X-48260000Y-44069000D02*
X-44493000Y-47836000D01*
X165100000Y-92075000D02*
X163195000Y-92075000D01*
X160020000Y-88900000D02*
X160020000Y-86360000D01*
X163195000Y-92075000D02*
X160020000Y-88900000D01*
X153491745Y-72568255D02*
X154940000Y-71120000D01*
X143114678Y-72568255D02*
X153491745Y-72568255D01*
D28*
X154940000Y-71120000D02*
X158750000Y-71120000D01*
X162560000Y-67310000D02*
X162560000Y-63500000D01*
X158750000Y-71120000D02*
X162560000Y-67310000D01*
X162560000Y-63500000D02*
X162560000Y-60960000D01*
X162560000Y-60960000D02*
X160020000Y-58420000D01*
X160020000Y-58420000D02*
X148590000Y-58420000D01*
X144860000Y-54690000D02*
X144860000Y-50800000D01*
X148590000Y-58420000D02*
X144860000Y-54690000D01*
D27*
X149860000Y-50800000D02*
X149860000Y-48260000D01*
X146620000Y-45020000D02*
X144780000Y-45020000D01*
X149860000Y-48260000D02*
X146620000Y-45020000D01*
X139700000Y-50800000D02*
X139700000Y-58420000D01*
D28*
X142240000Y-60960000D02*
X139700000Y-58420000D01*
X142240000Y-63500000D02*
X142240000Y-60960000D01*
D27*
X129700000Y-55600000D02*
X129700000Y-58420000D01*
X140280000Y-45020000D02*
X129700000Y-55600000D01*
X135320000Y-45020000D02*
X135780000Y-45020000D01*
X129700000Y-50640000D02*
X135320000Y-45020000D01*
X129700000Y-50800000D02*
X129700000Y-50640000D01*
X124677067Y-71120000D02*
X126125322Y-72568255D01*
X118110000Y-71120000D02*
X124677067Y-71120000D01*
X113030000Y-71120000D02*
X118110000Y-71120000D01*
X121205000Y-86995000D02*
X119300000Y-86995000D01*
X123288255Y-84911745D02*
X121205000Y-86995000D01*
X126125322Y-84911745D02*
X123288255Y-84911745D01*
X104140000Y-63500000D02*
X104140000Y-55880000D01*
X104140000Y-73660000D02*
X104140000Y-63500000D01*
X114300000Y-83820000D02*
X104140000Y-73660000D01*
X114300000Y-86995000D02*
X114300000Y-83820000D01*
X92531745Y-72568255D02*
X93980000Y-71120000D01*
X82154678Y-72568255D02*
X92531745Y-72568255D01*
X82154678Y-67310680D02*
X79613998Y-64770000D01*
X82154678Y-72568255D02*
X82154678Y-67310680D01*
X79613998Y-64770000D02*
X79613998Y-61833998D01*
X73660000Y-55880000D02*
X68580000Y-55880000D01*
X79613998Y-61833998D02*
X73660000Y-55880000D01*
X54610000Y-55880000D02*
X52070000Y-58420000D01*
X63580000Y-55880000D02*
X54610000Y-55880000D01*
X65165322Y-84911745D02*
X42088255Y-84911745D01*
X36830000Y-79653490D02*
X36830000Y-68580000D01*
X42088255Y-84911745D02*
X36830000Y-79653490D01*
X121920000Y-114300000D02*
X114300000Y-106680000D01*
X127000000Y-109220000D02*
X121920000Y-114300000D01*
X139700000Y-109220000D02*
X127000000Y-109220000D01*
X144780000Y-104140000D02*
X139700000Y-109220000D01*
X151765000Y-104140000D02*
X144145000Y-111760000D01*
X144145000Y-111760000D02*
X129540000Y-111760000D01*
X127000000Y-114300000D02*
X121920000Y-114300000D01*
X129540000Y-111760000D02*
X127000000Y-114300000D01*
X77470000Y-114300000D02*
X88900000Y-114300000D01*
X83820000Y-109220000D02*
X88900000Y-114300000D01*
X83820000Y-106680000D02*
X83820000Y-109220000D01*
X93980000Y-109220000D02*
X88900000Y-114300000D01*
X93980000Y-106680000D02*
X93980000Y-109220000D01*
X63160000Y-78740000D02*
X43815000Y-78740000D01*
X57150000Y-114300000D02*
X55880000Y-113030000D01*
X55880000Y-113030000D02*
X53340000Y-113030000D01*
D29*
X13410000Y-100330000D02*
X8610000Y-100330000D01*
D30*
X13462000Y-56134000D02*
X8890000Y-60706000D01*
X13462000Y-48006000D02*
X13462000Y-56134000D01*
X-11430000Y-48768000D02*
X-11430000Y-60706000D01*
X-4318000Y-41656000D02*
X-11430000Y-48768000D01*
X13187000Y-41656000D02*
X-4318000Y-41656000D01*
X18262000Y-46731000D02*
X13187000Y-41656000D01*
X18262000Y-48006000D02*
X18262000Y-46731000D01*
X18210000Y-100330000D02*
X18210000Y-104345000D01*
X18210000Y-104345000D02*
X15240000Y-107315000D01*
X15240000Y-107315000D02*
X0Y-107315000D01*
X0Y-107315000D02*
X-2540000Y-109855000D01*
X-2540000Y-109855000D02*
X-2540000Y-116205000D01*
X-4445000Y-118110000D02*
X-6350000Y-118110000D01*
X-2540000Y-116205000D02*
X-4445000Y-118110000D01*
X16390000Y-81026000D02*
X16390000Y-89528000D01*
X11303000Y-94615000D02*
X-6350000Y-94615000D01*
X16390000Y-89528000D02*
X11303000Y-94615000D01*
D27*
X170180000Y-90755002D02*
X170180000Y-86360000D01*
X166360002Y-94575000D02*
X170180000Y-90755002D01*
X165100000Y-94575000D02*
X166360002Y-94575000D01*
X53340000Y-98552000D02*
X53340000Y-98780000D01*
X65087285Y-96266000D02*
X55626000Y-96266000D01*
X75438000Y-85915285D02*
X65087285Y-96266000D01*
X75438000Y-70220585D02*
X75438000Y-85915285D01*
X55626000Y-96266000D02*
X53340000Y-98552000D01*
X76904678Y-68753907D02*
X75438000Y-70220585D01*
X132842000Y-70220585D02*
X131375322Y-68753907D01*
X132842000Y-86233000D02*
X132842000Y-70220585D01*
X123485011Y-95589989D02*
X132842000Y-86233000D01*
X119103726Y-95589989D02*
X123485011Y-95589989D01*
X115913716Y-98780000D02*
X119103726Y-95589989D01*
X53340000Y-98780000D02*
X115913716Y-98780000D01*
X71882000Y-86360000D02*
X71882000Y-70220585D01*
X71882000Y-70220585D02*
X70415322Y-68753907D01*
X64262000Y-93980000D02*
X71882000Y-86360000D01*
X53340000Y-93980000D02*
X64262000Y-93980000D01*
X50292000Y-97028000D02*
X53340000Y-93980000D01*
X50292000Y-99568000D02*
X50292000Y-97028000D01*
X137864678Y-68753907D02*
X136398000Y-70220585D01*
X136398000Y-70220585D02*
X136398000Y-85915285D01*
X136398000Y-85915285D02*
X124523285Y-97790000D01*
X51979001Y-101255001D02*
X50292000Y-99568000D01*
X124523285Y-97790000D02*
X120015000Y-97790000D01*
X120015000Y-97790000D02*
X116549999Y-101255001D01*
X116549999Y-101255001D02*
X51979001Y-101255001D01*
X36830000Y-58580000D02*
X36830000Y-55245000D01*
X36830000Y-55245000D02*
X43815000Y-48260000D01*
X48250000Y-48260000D02*
X51490000Y-45020000D01*
X43815000Y-48260000D02*
X48250000Y-48260000D01*
X170180000Y-55760000D02*
X159440000Y-45020000D01*
X170180000Y-76200000D02*
X170180000Y-55760000D01*
X170180000Y-76200000D02*
X170180000Y-77470000D01*
X170180000Y-77470000D02*
X168910000Y-78740000D01*
X168910000Y-78740000D02*
X161290000Y-78740000D01*
X160020000Y-80010000D02*
X160020000Y-81280000D01*
X161290000Y-78740000D02*
X160020000Y-80010000D01*
M02*
