%FSLAX45Y45*%
G04 Gerber Fmt 4.5, Leading zero omitted, Abs format (unit mm)*
G04 Created by KiCad (PCBNEW 5.1.12-84ad8e8a86~92~ubuntu20.04.1) date 2021-12-12 19:41:44*
%MOMM*%
%LPD*%
G01*
G04 APERTURE LIST*
%TA.AperFunction,Profile*%
%ADD10C,0.100000*%
%TD*%
%ADD11C,0.200000*%
%ADD12C,0.300000*%
G04 APERTURE END LIST*
D10*
X3302000Y-3810000D02*
X3302000Y-3302000D01*
X3048000Y-3810000D02*
X3048000Y-3302000D01*
X3302000Y-4318000D02*
X3302000Y-6096000D01*
X3048000Y-6096000D02*
X3048000Y-4318000D01*
X3302000Y-8255000D02*
X3302000Y-6604000D01*
X3048000Y-6604000D02*
X3048000Y-8255000D01*
X3302000Y-10541000D02*
X3302000Y-8763000D01*
X3048000Y-10541000D02*
X3048000Y-8763000D01*
X3302000Y-12446000D02*
X3302000Y-11049000D01*
X3048000Y-11557000D02*
X3048000Y-11049000D01*
X3048000Y-11049000D02*
G75*
G02*
X3302000Y-11049000I127000J0D01*
G01*
X3302000Y-10541000D02*
G75*
G02*
X3048000Y-10541000I-127000J0D01*
G01*
X3048000Y-8763000D02*
G75*
G02*
X3302000Y-8763000I127000J0D01*
G01*
X3302000Y-8255000D02*
G75*
G02*
X3048000Y-8255000I-127000J0D01*
G01*
X3048000Y-6604000D02*
G75*
G02*
X3302000Y-6604000I127000J0D01*
G01*
X3302000Y-6096000D02*
G75*
G02*
X3048000Y-6096000I-127000J0D01*
G01*
X3048000Y-4318000D02*
G75*
G02*
X3302000Y-4318000I127000J0D01*
G01*
X3302000Y-3810000D02*
G75*
G02*
X3048000Y-3810000I-127000J0D01*
G01*
X3048000Y-11557000D02*
G75*
G02*
X2540000Y-12065000I-508000J0D01*
G01*
X2540000Y-2794000D02*
G75*
G02*
X3048000Y-3302000I0J-508000D01*
G01*
X-5334000Y-3302000D02*
G75*
G02*
X-4826000Y-2794000I508000J0D01*
G01*
X-4826000Y-12065000D02*
G75*
G02*
X-5334000Y-11557000I0J508000D01*
G01*
X2540000Y-12065000D02*
X-4826000Y-12065000D01*
X-4826000Y-2794000D02*
X2540000Y-2794000D01*
X-5334000Y-11557000D02*
X-5334000Y-3302000D01*
X17272000Y-12446000D02*
G75*
G02*
X16764000Y-12954000I-508000J0D01*
G01*
X16764000Y-2794000D02*
G75*
G02*
X17272000Y-3302000I0J-508000D01*
G01*
X3810000Y-12954000D02*
G75*
G02*
X3302000Y-12446000I0J508000D01*
G01*
X3302000Y-3302000D02*
G75*
G02*
X3810000Y-2794000I508000J0D01*
G01*
X3810000Y-2794000D02*
X16764000Y-2794000D01*
X3302000Y-3302000D02*
X3302000Y-3302000D01*
X16764000Y-12954000D02*
X3810000Y-12954000D01*
X17272000Y-3302000D02*
X17272000Y-12446000D01*
D11*
X4341500Y-5294000D02*
X4421500Y-5374000D01*
X4421500Y-5294000D02*
X4341500Y-5374000D01*
X5357500Y-5294000D02*
X5437500Y-5374000D01*
X5437500Y-5294000D02*
X5357500Y-5374000D01*
X6318000Y-5548000D02*
X6398000Y-5628000D01*
X6398000Y-5548000D02*
X6318000Y-5628000D01*
X6818000Y-5548000D02*
X6898000Y-5628000D01*
X6898000Y-5548000D02*
X6818000Y-5628000D01*
X9866000Y-7834000D02*
X9946000Y-7914000D01*
X9946000Y-7834000D02*
X9866000Y-7914000D01*
X9866000Y-8342000D02*
X9946000Y-8422000D01*
X9946000Y-8342000D02*
X9866000Y-8422000D01*
X9874000Y-5548000D02*
X9954000Y-5628000D01*
X9954000Y-5548000D02*
X9874000Y-5628000D01*
X10374000Y-5548000D02*
X10454000Y-5628000D01*
X10454000Y-5548000D02*
X10374000Y-5628000D01*
X10882000Y-7834000D02*
X10962000Y-7914000D01*
X10962000Y-7834000D02*
X10882000Y-7914000D01*
X10882000Y-8342000D02*
X10962000Y-8422000D01*
X10962000Y-8342000D02*
X10882000Y-8422000D01*
X11263000Y-7072000D02*
X11343000Y-7152000D01*
X11343000Y-7072000D02*
X11263000Y-7152000D01*
X11263000Y-7322000D02*
X11343000Y-7402000D01*
X11343000Y-7322000D02*
X11263000Y-7402000D01*
X11390000Y-8659500D02*
X11470000Y-8739500D01*
X11470000Y-8659500D02*
X11390000Y-8739500D01*
X11771000Y-7072000D02*
X11851000Y-7152000D01*
X11851000Y-7072000D02*
X11771000Y-7152000D01*
X11771000Y-8088000D02*
X11851000Y-8168000D01*
X11851000Y-8088000D02*
X11771000Y-8168000D01*
X11890000Y-8659500D02*
X11970000Y-8739500D01*
X11970000Y-8659500D02*
X11890000Y-8739500D01*
X14446000Y-5040000D02*
X14526000Y-5120000D01*
X14526000Y-5040000D02*
X14446000Y-5120000D01*
X14946000Y-5040000D02*
X15026000Y-5120000D01*
X15026000Y-5040000D02*
X14946000Y-5120000D01*
X15962000Y-7580000D02*
X16042000Y-7660000D01*
X16042000Y-7580000D02*
X15962000Y-7660000D01*
X15962000Y-8088000D02*
X16042000Y-8168000D01*
X16042000Y-8088000D02*
X15962000Y-8168000D01*
X15962000Y-8596000D02*
X16042000Y-8676000D01*
X16042000Y-8596000D02*
X15962000Y-8676000D01*
X16470000Y-9167500D02*
X16550000Y-9247500D01*
X16550000Y-9167500D02*
X16470000Y-9247500D01*
X16470000Y-9417500D02*
X16550000Y-9497500D01*
X16550000Y-9417500D02*
X16470000Y-9497500D01*
X16978000Y-7580000D02*
X17058000Y-7660000D01*
X17058000Y-7580000D02*
X16978000Y-7660000D01*
X16978000Y-8088000D02*
X17058000Y-8168000D01*
X17058000Y-8088000D02*
X16978000Y-8168000D01*
X16978000Y-8596000D02*
X17058000Y-8676000D01*
X17058000Y-8596000D02*
X16978000Y-8676000D01*
X3733000Y-5858000D02*
G75*
G03*
X3733000Y-5858000I-50000J0D01*
G01*
X3733000Y-6858000D02*
G75*
G03*
X3733000Y-6858000I-50000J0D01*
G01*
X13020000Y-5080000D02*
G75*
G03*
X13020000Y-5080000I-50000J0D01*
G01*
X13020000Y-5842000D02*
G75*
G03*
X13020000Y-5842000I-50000J0D01*
G01*
X14020000Y-5080000D02*
G75*
G03*
X14020000Y-5080000I-50000J0D01*
G01*
X14020000Y-5842000D02*
G75*
G03*
X14020000Y-5842000I-50000J0D01*
G01*
X-2159000Y-9406500D02*
X-2159000Y-9516500D01*
X-2214000Y-9461500D02*
X-2104000Y-9461500D01*
X-2159000Y-10422500D02*
X-2159000Y-10532500D01*
X-2214000Y-10477500D02*
X-2104000Y-10477500D01*
X-2159000Y-10740000D02*
X-2159000Y-10850000D01*
X-2214000Y-10795000D02*
X-2104000Y-10795000D01*
X-2159000Y-11756000D02*
X-2159000Y-11866000D01*
X-2214000Y-11811000D02*
X-2104000Y-11811000D01*
X-1651000Y-9406500D02*
X-1651000Y-9516500D01*
X-1706000Y-9461500D02*
X-1596000Y-9461500D01*
X-1651000Y-10422500D02*
X-1651000Y-10532500D01*
X-1706000Y-10477500D02*
X-1596000Y-10477500D01*
X-1651000Y-10740000D02*
X-1651000Y-10850000D01*
X-1706000Y-10795000D02*
X-1596000Y-10795000D01*
X-1651000Y-11756000D02*
X-1651000Y-11866000D01*
X-1706000Y-11811000D02*
X-1596000Y-11811000D01*
X-1143000Y-9406500D02*
X-1143000Y-9516500D01*
X-1198000Y-9461500D02*
X-1088000Y-9461500D01*
X-1143000Y-10422500D02*
X-1143000Y-10532500D01*
X-1198000Y-10477500D02*
X-1088000Y-10477500D01*
X-1143000Y-10740000D02*
X-1143000Y-10850000D01*
X-1198000Y-10795000D02*
X-1088000Y-10795000D01*
X-1143000Y-11756000D02*
X-1143000Y-11866000D01*
X-1198000Y-11811000D02*
X-1088000Y-11811000D01*
X-635000Y-9406500D02*
X-635000Y-9516500D01*
X-690000Y-9461500D02*
X-580000Y-9461500D01*
X-635000Y-10422500D02*
X-635000Y-10532500D01*
X-690000Y-10477500D02*
X-580000Y-10477500D01*
X-635000Y-10740000D02*
X-635000Y-10850000D01*
X-690000Y-10795000D02*
X-580000Y-10795000D01*
X-635000Y-11756000D02*
X-635000Y-11866000D01*
X-690000Y-11811000D02*
X-580000Y-11811000D01*
X-4656573Y-5757427D02*
X-4656573Y-5672573D01*
X-4741427Y-5672573D01*
X-4741427Y-5757427D01*
X-4656573Y-5757427D01*
X-4656573Y-8805427D02*
X-4656573Y-8720573D01*
X-4741427Y-8720573D01*
X-4741427Y-8805427D01*
X-4656573Y-8805427D01*
X-3767573Y-6240027D02*
X-3767573Y-6155173D01*
X-3852427Y-6155173D01*
X-3852427Y-6240027D01*
X-3767573Y-6240027D01*
X-3767573Y-8018027D02*
X-3767573Y-7933173D01*
X-3852427Y-7933173D01*
X-3852427Y-8018027D01*
X-3767573Y-8018027D01*
X-3017573Y-6240027D02*
X-3017573Y-6155173D01*
X-3102427Y-6155173D01*
X-3102427Y-6240027D01*
X-3017573Y-6240027D01*
X-3017573Y-8018027D02*
X-3017573Y-7933173D01*
X-3102427Y-7933173D01*
X-3102427Y-8018027D01*
X-3017573Y-8018027D01*
X-2116573Y-5757427D02*
X-2116573Y-5672573D01*
X-2201427Y-5672573D01*
X-2201427Y-5757427D01*
X-2116573Y-5757427D01*
X-2116573Y-8805427D02*
X-2116573Y-8720573D01*
X-2201427Y-8720573D01*
X-2201427Y-8805427D01*
X-2116573Y-8805427D01*
X-1100573Y-6113027D02*
X-1100573Y-6028173D01*
X-1185427Y-6028173D01*
X-1185427Y-6113027D01*
X-1100573Y-6113027D01*
X-1100573Y-8145027D02*
X-1100573Y-8060173D01*
X-1185427Y-8060173D01*
X-1185427Y-8145027D01*
X-1100573Y-8145027D01*
X-350573Y-6113027D02*
X-350573Y-6028173D01*
X-435427Y-6028173D01*
X-435427Y-6113027D01*
X-350573Y-6113027D01*
X-350573Y-8145027D02*
X-350573Y-8060173D01*
X-435427Y-8060173D01*
X-435427Y-8145027D01*
X-350573Y-8145027D01*
X931427Y-6113027D02*
X931427Y-6028173D01*
X846573Y-6028173D01*
X846573Y-6113027D01*
X931427Y-6113027D01*
X931427Y-8145027D02*
X931427Y-8060173D01*
X846573Y-8060173D01*
X846573Y-8145027D01*
X931427Y-8145027D01*
X1681427Y-6113027D02*
X1681427Y-6028173D01*
X1596573Y-6028173D01*
X1596573Y-6113027D01*
X1681427Y-6113027D01*
X1681427Y-8145027D02*
X1681427Y-8060173D01*
X1596573Y-8060173D01*
X1596573Y-8145027D01*
X1681427Y-8145027D01*
X2709427Y-5757427D02*
X2709427Y-5672573D01*
X2624573Y-5672573D01*
X2624573Y-5757427D01*
X2709427Y-5757427D01*
X2709427Y-8805427D02*
X2709427Y-8720573D01*
X2624573Y-8720573D01*
X2624573Y-8805427D01*
X2709427Y-8805427D01*
X4423927Y-5884427D02*
X4423927Y-5799573D01*
X4339073Y-5799573D01*
X4339073Y-5884427D01*
X4423927Y-5884427D01*
X4423927Y-7916427D02*
X4423927Y-7831573D01*
X4339073Y-7831573D01*
X4339073Y-7916427D01*
X4423927Y-7916427D01*
X4735927Y-4550927D02*
X4735927Y-4466073D01*
X4651073Y-4466073D01*
X4651073Y-4550927D01*
X4735927Y-4550927D01*
X5185927Y-4550927D02*
X5185927Y-4466073D01*
X5101073Y-4466073D01*
X5101073Y-4550927D01*
X5185927Y-4550927D01*
X5249427Y-5884427D02*
X5249427Y-5799573D01*
X5164573Y-5799573D01*
X5164573Y-5884427D01*
X5249427Y-5884427D01*
X5249427Y-7916427D02*
X5249427Y-7831573D01*
X5164573Y-7831573D01*
X5164573Y-7916427D01*
X5249427Y-7916427D01*
X5757427Y-11472427D02*
X5757427Y-11387573D01*
X5672573Y-11387573D01*
X5672573Y-11472427D01*
X5757427Y-11472427D01*
X6392427Y-10710427D02*
X6392427Y-10625573D01*
X6307573Y-10625573D01*
X6307573Y-10710427D01*
X6392427Y-10710427D01*
X7789427Y-11472427D02*
X7789427Y-11387573D01*
X7704573Y-11387573D01*
X7704573Y-11472427D01*
X7789427Y-11472427D01*
X8424427Y-6392427D02*
X8424427Y-6307573D01*
X8339573Y-6307573D01*
X8339573Y-6392427D01*
X8424427Y-6392427D01*
X8424427Y-10710427D02*
X8424427Y-10625573D01*
X8339573Y-10625573D01*
X8339573Y-10710427D01*
X8424427Y-10710427D01*
X8932427Y-11472427D02*
X8932427Y-11387573D01*
X8847573Y-11387573D01*
X8847573Y-11472427D01*
X8932427Y-11472427D01*
X8932427Y-12222427D02*
X8932427Y-12137573D01*
X8847573Y-12137573D01*
X8847573Y-12222427D01*
X8932427Y-12222427D01*
X9440427Y-7154427D02*
X9440427Y-7069573D01*
X9355573Y-7069573D01*
X9355573Y-7154427D01*
X9440427Y-7154427D01*
X9440427Y-9186427D02*
X9440427Y-9101573D01*
X9355573Y-9101573D01*
X9355573Y-9186427D01*
X9440427Y-9186427D01*
X9440427Y-10710427D02*
X9440427Y-10625573D01*
X9355573Y-10625573D01*
X9355573Y-10710427D01*
X9440427Y-10710427D01*
X10456427Y-6392427D02*
X10456427Y-6307573D01*
X10371573Y-6307573D01*
X10371573Y-6392427D01*
X10456427Y-6392427D01*
X11472427Y-10710427D02*
X11472427Y-10625573D01*
X11387573Y-10625573D01*
X11387573Y-10710427D01*
X11472427Y-10710427D01*
X12038427Y-4544427D02*
X12038427Y-4459573D01*
X11953573Y-4459573D01*
X11953573Y-4544427D01*
X12038427Y-4544427D01*
X12234427Y-11472427D02*
X12234427Y-11387573D01*
X12149573Y-11387573D01*
X12149573Y-11472427D01*
X12234427Y-11472427D01*
X12234427Y-12222427D02*
X12234427Y-12137573D01*
X12149573Y-12137573D01*
X12149573Y-12222427D01*
X12234427Y-12222427D01*
X12488427Y-4544427D02*
X12488427Y-4459573D01*
X12403573Y-4459573D01*
X12403573Y-4544427D01*
X12488427Y-4544427D01*
X12488427Y-10456427D02*
X12488427Y-10371573D01*
X12403573Y-10371573D01*
X12403573Y-10456427D01*
X12488427Y-10456427D01*
X13620427Y-4544427D02*
X13620427Y-4459573D01*
X13535573Y-4459573D01*
X13535573Y-4544427D01*
X13620427Y-4544427D01*
X14070427Y-4544427D02*
X14070427Y-4459573D01*
X13985573Y-4459573D01*
X13985573Y-4544427D01*
X14070427Y-4544427D01*
X14266427Y-6392427D02*
X14266427Y-6307573D01*
X14181573Y-6307573D01*
X14181573Y-6392427D01*
X14266427Y-6392427D01*
X14520427Y-4544427D02*
X14520427Y-4459573D01*
X14435573Y-4459573D01*
X14435573Y-4544427D01*
X14520427Y-4544427D01*
X14520427Y-10456427D02*
X14520427Y-10371573D01*
X14435573Y-10371573D01*
X14435573Y-10456427D01*
X14520427Y-10456427D01*
X15218927Y-10456427D02*
X15218927Y-10371573D01*
X15134073Y-10371573D01*
X15134073Y-10456427D01*
X15218927Y-10456427D01*
X15218927Y-12488427D02*
X15218927Y-12403573D01*
X15134073Y-12403573D01*
X15134073Y-12488427D01*
X15218927Y-12488427D01*
X15530927Y-4550927D02*
X15530927Y-4466073D01*
X15446073Y-4466073D01*
X15446073Y-4550927D01*
X15530927Y-4550927D01*
X15536427Y-7154427D02*
X15536427Y-7069573D01*
X15451573Y-7069573D01*
X15451573Y-7154427D01*
X15536427Y-7154427D01*
X15536427Y-9186427D02*
X15536427Y-9101573D01*
X15451573Y-9101573D01*
X15451573Y-9186427D01*
X15536427Y-9186427D01*
X15980927Y-4550927D02*
X15980927Y-4466073D01*
X15896073Y-4466073D01*
X15896073Y-4550927D01*
X15980927Y-4550927D01*
X16298427Y-6392427D02*
X16298427Y-6307573D01*
X16213573Y-6307573D01*
X16213573Y-6392427D01*
X16298427Y-6392427D01*
X7366000Y-9364000D02*
X7431000Y-9299000D01*
X7366000Y-9234000D01*
X7301000Y-9299000D01*
X7366000Y-9364000D01*
X13462000Y-9364000D02*
X13527000Y-9299000D01*
X13462000Y-9234000D01*
X13397000Y-9299000D01*
X13462000Y-9364000D01*
X-4141500Y-9955500D02*
X-3986500Y-10110500D01*
X-3986500Y-9955500D02*
X-4141500Y-10110500D01*
X-3986500Y-10033000D02*
G75*
G03*
X-3986500Y-10033000I-77500J0D01*
G01*
X-4113500Y-4706100D02*
X-3958500Y-4861100D01*
X-3958500Y-4706100D02*
X-4113500Y-4861100D01*
X-3958500Y-4783600D02*
G75*
G03*
X-3958500Y-4783600I-77500J0D01*
G01*
X-3661500Y-9955500D02*
X-3506500Y-10110500D01*
X-3506500Y-9955500D02*
X-3661500Y-10110500D01*
X-3506500Y-10033000D02*
G75*
G03*
X-3506500Y-10033000I-77500J0D01*
G01*
X-3633500Y-4706100D02*
X-3478500Y-4861100D01*
X-3478500Y-4706100D02*
X-3633500Y-4861100D01*
X-3478500Y-4783600D02*
G75*
G03*
X-3478500Y-4783600I-77500J0D01*
G01*
X-171300Y-4723100D02*
X-16300Y-4878100D01*
X-16300Y-4723100D02*
X-171300Y-4878100D01*
X-16300Y-4800600D02*
G75*
G03*
X-16300Y-4800600I-77500J0D01*
G01*
X303500Y-9955500D02*
X458500Y-10110500D01*
X458500Y-9955500D02*
X303500Y-10110500D01*
X458500Y-10033000D02*
G75*
G03*
X458500Y-10033000I-77500J0D01*
G01*
X308700Y-4723100D02*
X463700Y-4878100D01*
X463700Y-4723100D02*
X308700Y-4878100D01*
X463700Y-4800600D02*
G75*
G03*
X463700Y-4800600I-77500J0D01*
G01*
X783500Y-9955500D02*
X938500Y-10110500D01*
X938500Y-9955500D02*
X783500Y-10110500D01*
X938500Y-10033000D02*
G75*
G03*
X938500Y-10033000I-77500J0D01*
G01*
X788700Y-4723100D02*
X943700Y-4878100D01*
X943700Y-4723100D02*
X788700Y-4878100D01*
X943700Y-4800600D02*
G75*
G03*
X943700Y-4800600I-77500J0D01*
G01*
X1263500Y-9955500D02*
X1418500Y-10110500D01*
X1418500Y-9955500D02*
X1263500Y-10110500D01*
X1418500Y-10033000D02*
G75*
G03*
X1418500Y-10033000I-77500J0D01*
G01*
X1268700Y-4723100D02*
X1423700Y-4878100D01*
X1423700Y-4723100D02*
X1268700Y-4878100D01*
X1423700Y-4800600D02*
G75*
G03*
X1423700Y-4800600I-77500J0D01*
G01*
X1743500Y-9955500D02*
X1898500Y-10110500D01*
X1898500Y-9955500D02*
X1743500Y-10110500D01*
X1898500Y-10033000D02*
G75*
G03*
X1898500Y-10033000I-77500J0D01*
G01*
X1748700Y-4723100D02*
X1903700Y-4878100D01*
X1903700Y-4723100D02*
X1748700Y-4878100D01*
X1903700Y-4800600D02*
G75*
G03*
X1903700Y-4800600I-77500J0D01*
G01*
X5256500Y-9320500D02*
X5411500Y-9475500D01*
X5411500Y-9320500D02*
X5256500Y-9475500D01*
X5411500Y-9398000D02*
G75*
G03*
X5411500Y-9398000I-77500J0D01*
G01*
X5256500Y-9800500D02*
X5411500Y-9955500D01*
X5411500Y-9800500D02*
X5256500Y-9955500D01*
X5411500Y-9878000D02*
G75*
G03*
X5411500Y-9878000I-77500J0D01*
G01*
X5256500Y-11225500D02*
X5411500Y-11380500D01*
X5411500Y-11225500D02*
X5256500Y-11380500D01*
X5411500Y-11303000D02*
G75*
G03*
X5411500Y-11303000I-77500J0D01*
G01*
X5256500Y-11705500D02*
X5411500Y-11860500D01*
X5411500Y-11705500D02*
X5256500Y-11860500D01*
X5411500Y-11783000D02*
G75*
G03*
X5411500Y-11783000I-77500J0D01*
G01*
X-4652000Y-9445000D02*
X-4492000Y-9605000D01*
X-4492000Y-9445000D02*
X-4652000Y-9605000D01*
X-4572000Y-9445000D02*
X-4572000Y-9605000D01*
X-4652000Y-9525000D02*
X-4492000Y-9525000D01*
X-4144000Y-9445000D02*
X-3984000Y-9605000D01*
X-3984000Y-9445000D02*
X-4144000Y-9605000D01*
X-4064000Y-9445000D02*
X-4064000Y-9605000D01*
X-4144000Y-9525000D02*
X-3984000Y-9525000D01*
X-3636000Y-9445000D02*
X-3476000Y-9605000D01*
X-3476000Y-9445000D02*
X-3636000Y-9605000D01*
X-3556000Y-9445000D02*
X-3556000Y-9605000D01*
X-3636000Y-9525000D02*
X-3476000Y-9525000D01*
X-3128000Y-9445000D02*
X-2968000Y-9605000D01*
X-2968000Y-9445000D02*
X-3128000Y-9605000D01*
X-3048000Y-9445000D02*
X-3048000Y-9605000D01*
X-3128000Y-9525000D02*
X-2968000Y-9525000D01*
X6226000Y-7784000D02*
X6406000Y-7964000D01*
X6406000Y-7784000D02*
X6226000Y-7964000D01*
X6379640Y-7937640D02*
X6379640Y-7810360D01*
X6252360Y-7810360D01*
X6252360Y-7937640D01*
X6379640Y-7937640D01*
X6426532Y-7166825D02*
X6606532Y-7346825D01*
X6606532Y-7166825D02*
X6426532Y-7346825D01*
X6580172Y-7320466D02*
X6580172Y-7193185D01*
X6452892Y-7193185D01*
X6452892Y-7320466D01*
X6580172Y-7320466D01*
X6426532Y-8401175D02*
X6606532Y-8581175D01*
X6606532Y-8401175D02*
X6426532Y-8581175D01*
X6580172Y-8554815D02*
X6580172Y-8427534D01*
X6452892Y-8427534D01*
X6452892Y-8554815D01*
X6580172Y-8554815D01*
X6951532Y-6785391D02*
X7131532Y-6965391D01*
X7131532Y-6785391D02*
X6951532Y-6965391D01*
X7105172Y-6939031D02*
X7105172Y-6811750D01*
X6977892Y-6811750D01*
X6977892Y-6939031D01*
X7105172Y-6939031D01*
X7600468Y-6785391D02*
X7780468Y-6965391D01*
X7780468Y-6785391D02*
X7600468Y-6965391D01*
X7754108Y-6939031D02*
X7754108Y-6811750D01*
X7626828Y-6811750D01*
X7626828Y-6939031D01*
X7754108Y-6939031D01*
X7600468Y-8782609D02*
X7780468Y-8962609D01*
X7780468Y-8782609D02*
X7600468Y-8962609D01*
X7754108Y-8936250D02*
X7754108Y-8808969D01*
X7626828Y-8808969D01*
X7626828Y-8936250D01*
X7754108Y-8936250D01*
X8125468Y-7166825D02*
X8305468Y-7346825D01*
X8305468Y-7166825D02*
X8125468Y-7346825D01*
X8279108Y-7320466D02*
X8279108Y-7193185D01*
X8151828Y-7193185D01*
X8151828Y-7320466D01*
X8279108Y-7320466D01*
X8125468Y-8401175D02*
X8305468Y-8581175D01*
X8305468Y-8401175D02*
X8125468Y-8581175D01*
X8279108Y-8554815D02*
X8279108Y-8427534D01*
X8151828Y-8427534D01*
X8151828Y-8554815D01*
X8279108Y-8554815D01*
X8326000Y-7784000D02*
X8506000Y-7964000D01*
X8506000Y-7784000D02*
X8326000Y-7964000D01*
X8479640Y-7937640D02*
X8479640Y-7810360D01*
X8352360Y-7810360D01*
X8352360Y-7937640D01*
X8479640Y-7937640D01*
X12322000Y-7784000D02*
X12502000Y-7964000D01*
X12502000Y-7784000D02*
X12322000Y-7964000D01*
X12475640Y-7937640D02*
X12475640Y-7810360D01*
X12348360Y-7810360D01*
X12348360Y-7937640D01*
X12475640Y-7937640D01*
X12522532Y-7166825D02*
X12702532Y-7346825D01*
X12702532Y-7166825D02*
X12522532Y-7346825D01*
X12676172Y-7320466D02*
X12676172Y-7193185D01*
X12548892Y-7193185D01*
X12548892Y-7320466D01*
X12676172Y-7320466D01*
X12522532Y-8401175D02*
X12702532Y-8581175D01*
X12702532Y-8401175D02*
X12522532Y-8581175D01*
X12676172Y-8554815D02*
X12676172Y-8427534D01*
X12548892Y-8427534D01*
X12548892Y-8554815D01*
X12676172Y-8554815D01*
X13047532Y-6785391D02*
X13227532Y-6965391D01*
X13227532Y-6785391D02*
X13047532Y-6965391D01*
X13201172Y-6939031D02*
X13201172Y-6811750D01*
X13073892Y-6811750D01*
X13073892Y-6939031D01*
X13201172Y-6939031D01*
X13696468Y-6785391D02*
X13876468Y-6965391D01*
X13876468Y-6785391D02*
X13696468Y-6965391D01*
X13850108Y-6939031D02*
X13850108Y-6811750D01*
X13722828Y-6811750D01*
X13722828Y-6939031D01*
X13850108Y-6939031D01*
X13696468Y-8782609D02*
X13876468Y-8962609D01*
X13876468Y-8782609D02*
X13696468Y-8962609D01*
X13850108Y-8936250D02*
X13850108Y-8808969D01*
X13722828Y-8808969D01*
X13722828Y-8936250D01*
X13850108Y-8936250D01*
X14221468Y-7166825D02*
X14401468Y-7346825D01*
X14401468Y-7166825D02*
X14221468Y-7346825D01*
X14375108Y-7320466D02*
X14375108Y-7193185D01*
X14247828Y-7193185D01*
X14247828Y-7320466D01*
X14375108Y-7320466D01*
X14221468Y-8401175D02*
X14401468Y-8581175D01*
X14401468Y-8401175D02*
X14221468Y-8581175D01*
X14375108Y-8554815D02*
X14375108Y-8427534D01*
X14247828Y-8427534D01*
X14247828Y-8554815D01*
X14375108Y-8554815D01*
X14422000Y-7784000D02*
X14602000Y-7964000D01*
X14602000Y-7784000D02*
X14422000Y-7964000D01*
X14575640Y-7937640D02*
X14575640Y-7810360D01*
X14448360Y-7810360D01*
X14448360Y-7937640D01*
X14575640Y-7937640D01*
X-4986000Y-11397000D02*
X-4666000Y-11717000D01*
X-4666000Y-11397000D02*
X-4986000Y-11717000D01*
X-4826000Y-11717000D02*
X-4666000Y-11557000D01*
X-4826000Y-11397000D01*
X-4986000Y-11557000D01*
X-4826000Y-11717000D01*
X2380000Y-3142000D02*
X2700000Y-3462000D01*
X2700000Y-3142000D02*
X2380000Y-3462000D01*
X2540000Y-3462000D02*
X2700000Y-3302000D01*
X2540000Y-3142000D01*
X2380000Y-3302000D01*
X2540000Y-3462000D01*
X2380000Y-11397000D02*
X2700000Y-11717000D01*
X2700000Y-11397000D02*
X2380000Y-11717000D01*
X2540000Y-11717000D02*
X2700000Y-11557000D01*
X2540000Y-11397000D01*
X2380000Y-11557000D01*
X2540000Y-11717000D01*
X3650000Y-3142000D02*
X3970000Y-3462000D01*
X3970000Y-3142000D02*
X3650000Y-3462000D01*
X3810000Y-3462000D02*
X3970000Y-3302000D01*
X3810000Y-3142000D01*
X3650000Y-3302000D01*
X3810000Y-3462000D01*
X3650000Y-12286000D02*
X3970000Y-12606000D01*
X3970000Y-12286000D02*
X3650000Y-12606000D01*
X3810000Y-12606000D02*
X3970000Y-12446000D01*
X3810000Y-12286000D01*
X3650000Y-12446000D01*
X3810000Y-12606000D01*
X5936000Y-6190000D02*
X6256000Y-6510000D01*
X6256000Y-6190000D02*
X5936000Y-6510000D01*
X6096000Y-6510000D02*
X6256000Y-6350000D01*
X6096000Y-6190000D01*
X5936000Y-6350000D01*
X6096000Y-6510000D01*
X7206000Y-6289000D02*
X7526000Y-6609000D01*
X7526000Y-6289000D02*
X7206000Y-6609000D01*
X7366000Y-6609000D02*
X7526000Y-6449000D01*
X7366000Y-6289000D01*
X7206000Y-6449000D01*
X7366000Y-6609000D01*
X8476000Y-9238000D02*
X8796000Y-9558000D01*
X8796000Y-9238000D02*
X8476000Y-9558000D01*
X8636000Y-9558000D02*
X8796000Y-9398000D01*
X8636000Y-9238000D01*
X8476000Y-9398000D01*
X8636000Y-9558000D01*
X12032000Y-6190000D02*
X12352000Y-6510000D01*
X12352000Y-6190000D02*
X12032000Y-6510000D01*
X12192000Y-6510000D02*
X12352000Y-6350000D01*
X12192000Y-6190000D01*
X12032000Y-6350000D01*
X12192000Y-6510000D01*
X13302000Y-6289000D02*
X13622000Y-6609000D01*
X13622000Y-6289000D02*
X13302000Y-6609000D01*
X13462000Y-6609000D02*
X13622000Y-6449000D01*
X13462000Y-6289000D01*
X13302000Y-6449000D01*
X13462000Y-6609000D01*
X14572000Y-9238000D02*
X14892000Y-9558000D01*
X14892000Y-9238000D02*
X14572000Y-9558000D01*
X14732000Y-9558000D02*
X14892000Y-9398000D01*
X14732000Y-9238000D01*
X14572000Y-9398000D01*
X14732000Y-9558000D01*
X16604000Y-3142000D02*
X16924000Y-3462000D01*
X16924000Y-3142000D02*
X16604000Y-3462000D01*
X16764000Y-3462000D02*
X16924000Y-3302000D01*
X16764000Y-3142000D01*
X16604000Y-3302000D01*
X16764000Y-3462000D01*
X16604000Y-12286000D02*
X16924000Y-12606000D01*
X16924000Y-12286000D02*
X16604000Y-12606000D01*
X16764000Y-12606000D02*
X16924000Y-12446000D01*
X16764000Y-12286000D01*
X16604000Y-12446000D01*
X16764000Y-12606000D01*
X-4826000Y-3142000D02*
X-4826000Y-3462000D01*
X-4986000Y-3302000D02*
X-4666000Y-3302000D01*
X-4666000Y-3302000D02*
G75*
G03*
X-4666000Y-3302000I-160000J0D01*
G01*
D12*
X-5052572Y-13424714D02*
X-5052572Y-13124714D01*
X-4981143Y-13124714D01*
X-4938286Y-13139000D01*
X-4909714Y-13167571D01*
X-4895429Y-13196143D01*
X-4881143Y-13253286D01*
X-4881143Y-13296143D01*
X-4895429Y-13353286D01*
X-4909714Y-13381857D01*
X-4938286Y-13410429D01*
X-4981143Y-13424714D01*
X-5052572Y-13424714D01*
X-4752572Y-13424714D02*
X-4752572Y-13224714D01*
X-4752572Y-13281857D02*
X-4738286Y-13253286D01*
X-4724000Y-13239000D01*
X-4695429Y-13224714D01*
X-4666857Y-13224714D01*
X-4566857Y-13424714D02*
X-4566857Y-13224714D01*
X-4566857Y-13124714D02*
X-4581143Y-13139000D01*
X-4566857Y-13153286D01*
X-4552572Y-13139000D01*
X-4566857Y-13124714D01*
X-4566857Y-13153286D01*
X-4381143Y-13424714D02*
X-4409714Y-13410429D01*
X-4424000Y-13381857D01*
X-4424000Y-13124714D01*
X-4224000Y-13424714D02*
X-4252572Y-13410429D01*
X-4266857Y-13381857D01*
X-4266857Y-13124714D01*
X-3881143Y-13424714D02*
X-3881143Y-13124714D01*
X-3781143Y-13339000D01*
X-3681143Y-13124714D01*
X-3681143Y-13424714D01*
X-3409714Y-13424714D02*
X-3409714Y-13267571D01*
X-3424000Y-13239000D01*
X-3452571Y-13224714D01*
X-3509714Y-13224714D01*
X-3538286Y-13239000D01*
X-3409714Y-13410429D02*
X-3438286Y-13424714D01*
X-3509714Y-13424714D01*
X-3538286Y-13410429D01*
X-3552571Y-13381857D01*
X-3552571Y-13353286D01*
X-3538286Y-13324714D01*
X-3509714Y-13310429D01*
X-3438286Y-13310429D01*
X-3409714Y-13296143D01*
X-3266857Y-13224714D02*
X-3266857Y-13524714D01*
X-3266857Y-13239000D02*
X-3238286Y-13224714D01*
X-3181143Y-13224714D01*
X-3152571Y-13239000D01*
X-3138286Y-13253286D01*
X-3124000Y-13281857D01*
X-3124000Y-13367571D01*
X-3138286Y-13396143D01*
X-3152571Y-13410429D01*
X-3181143Y-13424714D01*
X-3238286Y-13424714D01*
X-3266857Y-13410429D01*
X-2995429Y-13396143D02*
X-2981143Y-13410429D01*
X-2995429Y-13424714D01*
X-3009714Y-13410429D01*
X-2995429Y-13396143D01*
X-2995429Y-13424714D01*
X-2995429Y-13239000D02*
X-2981143Y-13253286D01*
X-2995429Y-13267571D01*
X-3009714Y-13253286D01*
X-2995429Y-13239000D01*
X-2995429Y-13267571D01*
X-5419000Y-13879000D02*
X-5339000Y-13959000D01*
X-5339000Y-13879000D02*
X-5419000Y-13959000D01*
X-4995429Y-13754714D02*
X-4966857Y-13754714D01*
X-4938286Y-13769000D01*
X-4924000Y-13783286D01*
X-4909714Y-13811857D01*
X-4895429Y-13869000D01*
X-4895429Y-13940429D01*
X-4909714Y-13997571D01*
X-4924000Y-14026143D01*
X-4938286Y-14040429D01*
X-4966857Y-14054714D01*
X-4995429Y-14054714D01*
X-5024000Y-14040429D01*
X-5038286Y-14026143D01*
X-5052572Y-13997571D01*
X-5066857Y-13940429D01*
X-5066857Y-13869000D01*
X-5052572Y-13811857D01*
X-5038286Y-13783286D01*
X-5024000Y-13769000D01*
X-4995429Y-13754714D01*
X-4766857Y-14026143D02*
X-4752572Y-14040429D01*
X-4766857Y-14054714D01*
X-4781143Y-14040429D01*
X-4766857Y-14026143D01*
X-4766857Y-14054714D01*
X-4581143Y-13883286D02*
X-4609714Y-13869000D01*
X-4624000Y-13854714D01*
X-4638286Y-13826143D01*
X-4638286Y-13811857D01*
X-4624000Y-13783286D01*
X-4609714Y-13769000D01*
X-4581143Y-13754714D01*
X-4524000Y-13754714D01*
X-4495429Y-13769000D01*
X-4481143Y-13783286D01*
X-4466857Y-13811857D01*
X-4466857Y-13826143D01*
X-4481143Y-13854714D01*
X-4495429Y-13869000D01*
X-4524000Y-13883286D01*
X-4581143Y-13883286D01*
X-4609714Y-13897571D01*
X-4624000Y-13911857D01*
X-4638286Y-13940429D01*
X-4638286Y-13997571D01*
X-4624000Y-14026143D01*
X-4609714Y-14040429D01*
X-4581143Y-14054714D01*
X-4524000Y-14054714D01*
X-4495429Y-14040429D01*
X-4481143Y-14026143D01*
X-4466857Y-13997571D01*
X-4466857Y-13940429D01*
X-4481143Y-13911857D01*
X-4495429Y-13897571D01*
X-4524000Y-13883286D01*
X-4281143Y-13754714D02*
X-4252572Y-13754714D01*
X-4224000Y-13769000D01*
X-4209714Y-13783286D01*
X-4195429Y-13811857D01*
X-4181143Y-13869000D01*
X-4181143Y-13940429D01*
X-4195429Y-13997571D01*
X-4209714Y-14026143D01*
X-4224000Y-14040429D01*
X-4252572Y-14054714D01*
X-4281143Y-14054714D01*
X-4309714Y-14040429D01*
X-4324000Y-14026143D01*
X-4338286Y-13997571D01*
X-4352572Y-13940429D01*
X-4352572Y-13869000D01*
X-4338286Y-13811857D01*
X-4324000Y-13783286D01*
X-4309714Y-13769000D01*
X-4281143Y-13754714D01*
X-3995429Y-13754714D02*
X-3966857Y-13754714D01*
X-3938286Y-13769000D01*
X-3924000Y-13783286D01*
X-3909714Y-13811857D01*
X-3895429Y-13869000D01*
X-3895429Y-13940429D01*
X-3909714Y-13997571D01*
X-3924000Y-14026143D01*
X-3938286Y-14040429D01*
X-3966857Y-14054714D01*
X-3995429Y-14054714D01*
X-4024000Y-14040429D01*
X-4038286Y-14026143D01*
X-4052571Y-13997571D01*
X-4066857Y-13940429D01*
X-4066857Y-13869000D01*
X-4052571Y-13811857D01*
X-4038286Y-13783286D01*
X-4024000Y-13769000D01*
X-3995429Y-13754714D01*
X-3766857Y-14054714D02*
X-3766857Y-13854714D01*
X-3766857Y-13883286D02*
X-3752571Y-13869000D01*
X-3724000Y-13854714D01*
X-3681143Y-13854714D01*
X-3652571Y-13869000D01*
X-3638286Y-13897571D01*
X-3638286Y-14054714D01*
X-3638286Y-13897571D02*
X-3624000Y-13869000D01*
X-3595429Y-13854714D01*
X-3552571Y-13854714D01*
X-3524000Y-13869000D01*
X-3509714Y-13897571D01*
X-3509714Y-14054714D01*
X-3366857Y-14054714D02*
X-3366857Y-13854714D01*
X-3366857Y-13883286D02*
X-3352571Y-13869000D01*
X-3324000Y-13854714D01*
X-3281143Y-13854714D01*
X-3252571Y-13869000D01*
X-3238286Y-13897571D01*
X-3238286Y-14054714D01*
X-3238286Y-13897571D02*
X-3224000Y-13869000D01*
X-3195429Y-13854714D01*
X-3152571Y-13854714D01*
X-3124000Y-13869000D01*
X-3109714Y-13897571D01*
X-3109714Y-14054714D01*
X-2524000Y-13740429D02*
X-2781143Y-14126143D01*
X-2138286Y-13754714D02*
X-2109714Y-13754714D01*
X-2081143Y-13769000D01*
X-2066857Y-13783286D01*
X-2052571Y-13811857D01*
X-2038286Y-13869000D01*
X-2038286Y-13940429D01*
X-2052571Y-13997571D01*
X-2066857Y-14026143D01*
X-2081143Y-14040429D01*
X-2109714Y-14054714D01*
X-2138286Y-14054714D01*
X-2166857Y-14040429D01*
X-2181143Y-14026143D01*
X-2195429Y-13997571D01*
X-2209714Y-13940429D01*
X-2209714Y-13869000D01*
X-2195429Y-13811857D01*
X-2181143Y-13783286D01*
X-2166857Y-13769000D01*
X-2138286Y-13754714D01*
X-1909714Y-14026143D02*
X-1895429Y-14040429D01*
X-1909714Y-14054714D01*
X-1924000Y-14040429D01*
X-1909714Y-14026143D01*
X-1909714Y-14054714D01*
X-1709714Y-13754714D02*
X-1681143Y-13754714D01*
X-1652571Y-13769000D01*
X-1638286Y-13783286D01*
X-1624000Y-13811857D01*
X-1609714Y-13869000D01*
X-1609714Y-13940429D01*
X-1624000Y-13997571D01*
X-1638286Y-14026143D01*
X-1652571Y-14040429D01*
X-1681143Y-14054714D01*
X-1709714Y-14054714D01*
X-1738286Y-14040429D01*
X-1752571Y-14026143D01*
X-1766857Y-13997571D01*
X-1781143Y-13940429D01*
X-1781143Y-13869000D01*
X-1766857Y-13811857D01*
X-1752571Y-13783286D01*
X-1738286Y-13769000D01*
X-1709714Y-13754714D01*
X-1509714Y-13754714D02*
X-1324000Y-13754714D01*
X-1424000Y-13869000D01*
X-1381143Y-13869000D01*
X-1352572Y-13883286D01*
X-1338286Y-13897571D01*
X-1324000Y-13926143D01*
X-1324000Y-13997571D01*
X-1338286Y-14026143D01*
X-1352572Y-14040429D01*
X-1381143Y-14054714D01*
X-1466857Y-14054714D01*
X-1495429Y-14040429D01*
X-1509714Y-14026143D01*
X-1038286Y-14054714D02*
X-1209714Y-14054714D01*
X-1124000Y-14054714D02*
X-1124000Y-13754714D01*
X-1152572Y-13797571D01*
X-1181143Y-13826143D01*
X-1209714Y-13840429D01*
X-766857Y-13754714D02*
X-909714Y-13754714D01*
X-924000Y-13897571D01*
X-909714Y-13883286D01*
X-881143Y-13869000D01*
X-809714Y-13869000D01*
X-781143Y-13883286D01*
X-766857Y-13897571D01*
X-752571Y-13926143D01*
X-752571Y-13997571D01*
X-766857Y-14026143D01*
X-781143Y-14040429D01*
X-809714Y-14054714D01*
X-881143Y-14054714D01*
X-909714Y-14040429D01*
X-924000Y-14026143D01*
X-638286Y-13754714D02*
X-638286Y-13811857D01*
X-524000Y-13754714D02*
X-524000Y-13811857D01*
X-81143Y-14169000D02*
X-95429Y-14154714D01*
X-124000Y-14111857D01*
X-138286Y-14083286D01*
X-152572Y-14040429D01*
X-166857Y-13969000D01*
X-166857Y-13911857D01*
X-152572Y-13840429D01*
X-138286Y-13797571D01*
X-124000Y-13769000D01*
X-95429Y-13726143D01*
X-81143Y-13711857D01*
X18857Y-13783286D02*
X33143Y-13769000D01*
X61714Y-13754714D01*
X133143Y-13754714D01*
X161714Y-13769000D01*
X176000Y-13783286D01*
X190286Y-13811857D01*
X190286Y-13840429D01*
X176000Y-13883286D01*
X4571Y-14054714D01*
X190286Y-14054714D01*
X447428Y-13754714D02*
X390286Y-13754714D01*
X361714Y-13769000D01*
X347428Y-13783286D01*
X318857Y-13826143D01*
X304571Y-13883286D01*
X304571Y-13997571D01*
X318857Y-14026143D01*
X333143Y-14040429D01*
X361714Y-14054714D01*
X418857Y-14054714D01*
X447428Y-14040429D01*
X461714Y-14026143D01*
X476000Y-13997571D01*
X476000Y-13926143D01*
X461714Y-13897571D01*
X447428Y-13883286D01*
X418857Y-13869000D01*
X361714Y-13869000D01*
X333143Y-13883286D01*
X318857Y-13897571D01*
X304571Y-13926143D01*
X833143Y-14054714D02*
X833143Y-13754714D01*
X961714Y-14054714D02*
X961714Y-13897571D01*
X947428Y-13869000D01*
X918857Y-13854714D01*
X876000Y-13854714D01*
X847428Y-13869000D01*
X833143Y-13883286D01*
X1147428Y-14054714D02*
X1118857Y-14040429D01*
X1104571Y-14026143D01*
X1090286Y-13997571D01*
X1090286Y-13911857D01*
X1104571Y-13883286D01*
X1118857Y-13869000D01*
X1147428Y-13854714D01*
X1190286Y-13854714D01*
X1218857Y-13869000D01*
X1233143Y-13883286D01*
X1247428Y-13911857D01*
X1247428Y-13997571D01*
X1233143Y-14026143D01*
X1218857Y-14040429D01*
X1190286Y-14054714D01*
X1147428Y-14054714D01*
X1418857Y-14054714D02*
X1390286Y-14040429D01*
X1376000Y-14011857D01*
X1376000Y-13754714D01*
X1647428Y-14040429D02*
X1618857Y-14054714D01*
X1561714Y-14054714D01*
X1533143Y-14040429D01*
X1518857Y-14011857D01*
X1518857Y-13897571D01*
X1533143Y-13869000D01*
X1561714Y-13854714D01*
X1618857Y-13854714D01*
X1647428Y-13869000D01*
X1661714Y-13897571D01*
X1661714Y-13926143D01*
X1518857Y-13954714D01*
X1776000Y-14040429D02*
X1804571Y-14054714D01*
X1861714Y-14054714D01*
X1890286Y-14040429D01*
X1904571Y-14011857D01*
X1904571Y-13997571D01*
X1890286Y-13969000D01*
X1861714Y-13954714D01*
X1818857Y-13954714D01*
X1790286Y-13940429D01*
X1776000Y-13911857D01*
X1776000Y-13897571D01*
X1790286Y-13869000D01*
X1818857Y-13854714D01*
X1861714Y-13854714D01*
X1890286Y-13869000D01*
X2004571Y-14169000D02*
X2018857Y-14154714D01*
X2047428Y-14111857D01*
X2061714Y-14083286D01*
X2076000Y-14040429D01*
X2090286Y-13969000D01*
X2090286Y-13911857D01*
X2076000Y-13840429D01*
X2061714Y-13797571D01*
X2047428Y-13769000D01*
X2018857Y-13726143D01*
X2004571Y-13711857D01*
X-5339000Y-14315000D02*
G75*
G03*
X-5339000Y-14315000I-50000J0D01*
G01*
X-4895429Y-14450714D02*
X-5066857Y-14450714D01*
X-4981143Y-14450714D02*
X-4981143Y-14150714D01*
X-5009714Y-14193571D01*
X-5038286Y-14222143D01*
X-5066857Y-14236429D01*
X-4766857Y-14422143D02*
X-4752572Y-14436429D01*
X-4766857Y-14450714D01*
X-4781143Y-14436429D01*
X-4766857Y-14422143D01*
X-4766857Y-14450714D01*
X-4566857Y-14150714D02*
X-4538286Y-14150714D01*
X-4509714Y-14165000D01*
X-4495429Y-14179286D01*
X-4481143Y-14207857D01*
X-4466857Y-14265000D01*
X-4466857Y-14336429D01*
X-4481143Y-14393571D01*
X-4495429Y-14422143D01*
X-4509714Y-14436429D01*
X-4538286Y-14450714D01*
X-4566857Y-14450714D01*
X-4595429Y-14436429D01*
X-4609714Y-14422143D01*
X-4624000Y-14393571D01*
X-4638286Y-14336429D01*
X-4638286Y-14265000D01*
X-4624000Y-14207857D01*
X-4609714Y-14179286D01*
X-4595429Y-14165000D01*
X-4566857Y-14150714D01*
X-4281143Y-14150714D02*
X-4252572Y-14150714D01*
X-4224000Y-14165000D01*
X-4209714Y-14179286D01*
X-4195429Y-14207857D01*
X-4181143Y-14265000D01*
X-4181143Y-14336429D01*
X-4195429Y-14393571D01*
X-4209714Y-14422143D01*
X-4224000Y-14436429D01*
X-4252572Y-14450714D01*
X-4281143Y-14450714D01*
X-4309714Y-14436429D01*
X-4324000Y-14422143D01*
X-4338286Y-14393571D01*
X-4352572Y-14336429D01*
X-4352572Y-14265000D01*
X-4338286Y-14207857D01*
X-4324000Y-14179286D01*
X-4309714Y-14165000D01*
X-4281143Y-14150714D01*
X-3995429Y-14150714D02*
X-3966857Y-14150714D01*
X-3938286Y-14165000D01*
X-3924000Y-14179286D01*
X-3909714Y-14207857D01*
X-3895429Y-14265000D01*
X-3895429Y-14336429D01*
X-3909714Y-14393571D01*
X-3924000Y-14422143D01*
X-3938286Y-14436429D01*
X-3966857Y-14450714D01*
X-3995429Y-14450714D01*
X-4024000Y-14436429D01*
X-4038286Y-14422143D01*
X-4052571Y-14393571D01*
X-4066857Y-14336429D01*
X-4066857Y-14265000D01*
X-4052571Y-14207857D01*
X-4038286Y-14179286D01*
X-4024000Y-14165000D01*
X-3995429Y-14150714D01*
X-3766857Y-14450714D02*
X-3766857Y-14250714D01*
X-3766857Y-14279286D02*
X-3752571Y-14265000D01*
X-3724000Y-14250714D01*
X-3681143Y-14250714D01*
X-3652571Y-14265000D01*
X-3638286Y-14293571D01*
X-3638286Y-14450714D01*
X-3638286Y-14293571D02*
X-3624000Y-14265000D01*
X-3595429Y-14250714D01*
X-3552571Y-14250714D01*
X-3524000Y-14265000D01*
X-3509714Y-14293571D01*
X-3509714Y-14450714D01*
X-3366857Y-14450714D02*
X-3366857Y-14250714D01*
X-3366857Y-14279286D02*
X-3352571Y-14265000D01*
X-3324000Y-14250714D01*
X-3281143Y-14250714D01*
X-3252571Y-14265000D01*
X-3238286Y-14293571D01*
X-3238286Y-14450714D01*
X-3238286Y-14293571D02*
X-3224000Y-14265000D01*
X-3195429Y-14250714D01*
X-3152571Y-14250714D01*
X-3124000Y-14265000D01*
X-3109714Y-14293571D01*
X-3109714Y-14450714D01*
X-2524000Y-14136429D02*
X-2781143Y-14522143D01*
X-2138286Y-14150714D02*
X-2109714Y-14150714D01*
X-2081143Y-14165000D01*
X-2066857Y-14179286D01*
X-2052571Y-14207857D01*
X-2038286Y-14265000D01*
X-2038286Y-14336429D01*
X-2052571Y-14393571D01*
X-2066857Y-14422143D01*
X-2081143Y-14436429D01*
X-2109714Y-14450714D01*
X-2138286Y-14450714D01*
X-2166857Y-14436429D01*
X-2181143Y-14422143D01*
X-2195429Y-14393571D01*
X-2209714Y-14336429D01*
X-2209714Y-14265000D01*
X-2195429Y-14207857D01*
X-2181143Y-14179286D01*
X-2166857Y-14165000D01*
X-2138286Y-14150714D01*
X-1909714Y-14422143D02*
X-1895429Y-14436429D01*
X-1909714Y-14450714D01*
X-1924000Y-14436429D01*
X-1909714Y-14422143D01*
X-1909714Y-14450714D01*
X-1709714Y-14150714D02*
X-1681143Y-14150714D01*
X-1652571Y-14165000D01*
X-1638286Y-14179286D01*
X-1624000Y-14207857D01*
X-1609714Y-14265000D01*
X-1609714Y-14336429D01*
X-1624000Y-14393571D01*
X-1638286Y-14422143D01*
X-1652571Y-14436429D01*
X-1681143Y-14450714D01*
X-1709714Y-14450714D01*
X-1738286Y-14436429D01*
X-1752571Y-14422143D01*
X-1766857Y-14393571D01*
X-1781143Y-14336429D01*
X-1781143Y-14265000D01*
X-1766857Y-14207857D01*
X-1752571Y-14179286D01*
X-1738286Y-14165000D01*
X-1709714Y-14150714D01*
X-1509714Y-14150714D02*
X-1324000Y-14150714D01*
X-1424000Y-14265000D01*
X-1381143Y-14265000D01*
X-1352572Y-14279286D01*
X-1338286Y-14293571D01*
X-1324000Y-14322143D01*
X-1324000Y-14393571D01*
X-1338286Y-14422143D01*
X-1352572Y-14436429D01*
X-1381143Y-14450714D01*
X-1466857Y-14450714D01*
X-1495429Y-14436429D01*
X-1509714Y-14422143D01*
X-1181143Y-14450714D02*
X-1124000Y-14450714D01*
X-1095429Y-14436429D01*
X-1081143Y-14422143D01*
X-1052572Y-14379286D01*
X-1038286Y-14322143D01*
X-1038286Y-14207857D01*
X-1052572Y-14179286D01*
X-1066857Y-14165000D01*
X-1095429Y-14150714D01*
X-1152572Y-14150714D01*
X-1181143Y-14165000D01*
X-1195429Y-14179286D01*
X-1209714Y-14207857D01*
X-1209714Y-14279286D01*
X-1195429Y-14307857D01*
X-1181143Y-14322143D01*
X-1152572Y-14336429D01*
X-1095429Y-14336429D01*
X-1066857Y-14322143D01*
X-1052572Y-14307857D01*
X-1038286Y-14279286D01*
X-781143Y-14250714D02*
X-781143Y-14450714D01*
X-852571Y-14136429D02*
X-924000Y-14350714D01*
X-738286Y-14350714D01*
X-638286Y-14150714D02*
X-638286Y-14207857D01*
X-524000Y-14150714D02*
X-524000Y-14207857D01*
X-81143Y-14565000D02*
X-95429Y-14550714D01*
X-124000Y-14507857D01*
X-138286Y-14479286D01*
X-152572Y-14436429D01*
X-166857Y-14365000D01*
X-166857Y-14307857D01*
X-152572Y-14236429D01*
X-138286Y-14193571D01*
X-124000Y-14165000D01*
X-95429Y-14122143D01*
X-81143Y-14107857D01*
X161714Y-14150714D02*
X104571Y-14150714D01*
X76000Y-14165000D01*
X61714Y-14179286D01*
X33143Y-14222143D01*
X18857Y-14279286D01*
X18857Y-14393571D01*
X33143Y-14422143D01*
X47428Y-14436429D01*
X76000Y-14450714D01*
X133143Y-14450714D01*
X161714Y-14436429D01*
X176000Y-14422143D01*
X190286Y-14393571D01*
X190286Y-14322143D01*
X176000Y-14293571D01*
X161714Y-14279286D01*
X133143Y-14265000D01*
X76000Y-14265000D01*
X47428Y-14279286D01*
X33143Y-14293571D01*
X18857Y-14322143D01*
X547428Y-14450714D02*
X547428Y-14150714D01*
X676000Y-14450714D02*
X676000Y-14293571D01*
X661714Y-14265000D01*
X633143Y-14250714D01*
X590286Y-14250714D01*
X561714Y-14265000D01*
X547428Y-14279286D01*
X861714Y-14450714D02*
X833143Y-14436429D01*
X818857Y-14422143D01*
X804571Y-14393571D01*
X804571Y-14307857D01*
X818857Y-14279286D01*
X833143Y-14265000D01*
X861714Y-14250714D01*
X904571Y-14250714D01*
X933143Y-14265000D01*
X947428Y-14279286D01*
X961714Y-14307857D01*
X961714Y-14393571D01*
X947428Y-14422143D01*
X933143Y-14436429D01*
X904571Y-14450714D01*
X861714Y-14450714D01*
X1133143Y-14450714D02*
X1104571Y-14436429D01*
X1090286Y-14407857D01*
X1090286Y-14150714D01*
X1361714Y-14436429D02*
X1333143Y-14450714D01*
X1276000Y-14450714D01*
X1247428Y-14436429D01*
X1233143Y-14407857D01*
X1233143Y-14293571D01*
X1247428Y-14265000D01*
X1276000Y-14250714D01*
X1333143Y-14250714D01*
X1361714Y-14265000D01*
X1376000Y-14293571D01*
X1376000Y-14322143D01*
X1233143Y-14350714D01*
X1490286Y-14436429D02*
X1518857Y-14450714D01*
X1576000Y-14450714D01*
X1604571Y-14436429D01*
X1618857Y-14407857D01*
X1618857Y-14393571D01*
X1604571Y-14365000D01*
X1576000Y-14350714D01*
X1533143Y-14350714D01*
X1504571Y-14336429D01*
X1490286Y-14307857D01*
X1490286Y-14293571D01*
X1504571Y-14265000D01*
X1533143Y-14250714D01*
X1576000Y-14250714D01*
X1604571Y-14265000D01*
X1718857Y-14565000D02*
X1733143Y-14550714D01*
X1761714Y-14507857D01*
X1776000Y-14479286D01*
X1790286Y-14436429D01*
X1804571Y-14365000D01*
X1804571Y-14307857D01*
X1790286Y-14236429D01*
X1776000Y-14193571D01*
X1761714Y-14165000D01*
X1733143Y-14122143D01*
X1718857Y-14107857D01*
X-5394000Y-14656000D02*
X-5394000Y-14766000D01*
X-5449000Y-14711000D02*
X-5339000Y-14711000D01*
X-4895429Y-14846714D02*
X-5066857Y-14846714D01*
X-4981143Y-14846714D02*
X-4981143Y-14546714D01*
X-5009714Y-14589571D01*
X-5038286Y-14618143D01*
X-5066857Y-14632429D01*
X-4766857Y-14818143D02*
X-4752572Y-14832429D01*
X-4766857Y-14846714D01*
X-4781143Y-14832429D01*
X-4766857Y-14818143D01*
X-4766857Y-14846714D01*
X-4466857Y-14846714D02*
X-4638286Y-14846714D01*
X-4552572Y-14846714D02*
X-4552572Y-14546714D01*
X-4581143Y-14589571D01*
X-4609714Y-14618143D01*
X-4638286Y-14632429D01*
X-4281143Y-14546714D02*
X-4252572Y-14546714D01*
X-4224000Y-14561000D01*
X-4209714Y-14575286D01*
X-4195429Y-14603857D01*
X-4181143Y-14661000D01*
X-4181143Y-14732429D01*
X-4195429Y-14789571D01*
X-4209714Y-14818143D01*
X-4224000Y-14832429D01*
X-4252572Y-14846714D01*
X-4281143Y-14846714D01*
X-4309714Y-14832429D01*
X-4324000Y-14818143D01*
X-4338286Y-14789571D01*
X-4352572Y-14732429D01*
X-4352572Y-14661000D01*
X-4338286Y-14603857D01*
X-4324000Y-14575286D01*
X-4309714Y-14561000D01*
X-4281143Y-14546714D01*
X-3995429Y-14546714D02*
X-3966857Y-14546714D01*
X-3938286Y-14561000D01*
X-3924000Y-14575286D01*
X-3909714Y-14603857D01*
X-3895429Y-14661000D01*
X-3895429Y-14732429D01*
X-3909714Y-14789571D01*
X-3924000Y-14818143D01*
X-3938286Y-14832429D01*
X-3966857Y-14846714D01*
X-3995429Y-14846714D01*
X-4024000Y-14832429D01*
X-4038286Y-14818143D01*
X-4052571Y-14789571D01*
X-4066857Y-14732429D01*
X-4066857Y-14661000D01*
X-4052571Y-14603857D01*
X-4038286Y-14575286D01*
X-4024000Y-14561000D01*
X-3995429Y-14546714D01*
X-3766857Y-14846714D02*
X-3766857Y-14646714D01*
X-3766857Y-14675286D02*
X-3752571Y-14661000D01*
X-3724000Y-14646714D01*
X-3681143Y-14646714D01*
X-3652571Y-14661000D01*
X-3638286Y-14689571D01*
X-3638286Y-14846714D01*
X-3638286Y-14689571D02*
X-3624000Y-14661000D01*
X-3595429Y-14646714D01*
X-3552571Y-14646714D01*
X-3524000Y-14661000D01*
X-3509714Y-14689571D01*
X-3509714Y-14846714D01*
X-3366857Y-14846714D02*
X-3366857Y-14646714D01*
X-3366857Y-14675286D02*
X-3352571Y-14661000D01*
X-3324000Y-14646714D01*
X-3281143Y-14646714D01*
X-3252571Y-14661000D01*
X-3238286Y-14689571D01*
X-3238286Y-14846714D01*
X-3238286Y-14689571D02*
X-3224000Y-14661000D01*
X-3195429Y-14646714D01*
X-3152571Y-14646714D01*
X-3124000Y-14661000D01*
X-3109714Y-14689571D01*
X-3109714Y-14846714D01*
X-2524000Y-14532429D02*
X-2781143Y-14918143D01*
X-2138286Y-14546714D02*
X-2109714Y-14546714D01*
X-2081143Y-14561000D01*
X-2066857Y-14575286D01*
X-2052571Y-14603857D01*
X-2038286Y-14661000D01*
X-2038286Y-14732429D01*
X-2052571Y-14789571D01*
X-2066857Y-14818143D01*
X-2081143Y-14832429D01*
X-2109714Y-14846714D01*
X-2138286Y-14846714D01*
X-2166857Y-14832429D01*
X-2181143Y-14818143D01*
X-2195429Y-14789571D01*
X-2209714Y-14732429D01*
X-2209714Y-14661000D01*
X-2195429Y-14603857D01*
X-2181143Y-14575286D01*
X-2166857Y-14561000D01*
X-2138286Y-14546714D01*
X-1909714Y-14818143D02*
X-1895429Y-14832429D01*
X-1909714Y-14846714D01*
X-1924000Y-14832429D01*
X-1909714Y-14818143D01*
X-1909714Y-14846714D01*
X-1709714Y-14546714D02*
X-1681143Y-14546714D01*
X-1652571Y-14561000D01*
X-1638286Y-14575286D01*
X-1624000Y-14603857D01*
X-1609714Y-14661000D01*
X-1609714Y-14732429D01*
X-1624000Y-14789571D01*
X-1638286Y-14818143D01*
X-1652571Y-14832429D01*
X-1681143Y-14846714D01*
X-1709714Y-14846714D01*
X-1738286Y-14832429D01*
X-1752571Y-14818143D01*
X-1766857Y-14789571D01*
X-1781143Y-14732429D01*
X-1781143Y-14661000D01*
X-1766857Y-14603857D01*
X-1752571Y-14575286D01*
X-1738286Y-14561000D01*
X-1709714Y-14546714D01*
X-1352572Y-14646714D02*
X-1352572Y-14846714D01*
X-1424000Y-14532429D02*
X-1495429Y-14746714D01*
X-1309714Y-14746714D01*
X-1224000Y-14546714D02*
X-1038286Y-14546714D01*
X-1138286Y-14661000D01*
X-1095429Y-14661000D01*
X-1066857Y-14675286D01*
X-1052572Y-14689571D01*
X-1038286Y-14718143D01*
X-1038286Y-14789571D01*
X-1052572Y-14818143D01*
X-1066857Y-14832429D01*
X-1095429Y-14846714D01*
X-1181143Y-14846714D01*
X-1209714Y-14832429D01*
X-1224000Y-14818143D01*
X-938286Y-14546714D02*
X-752571Y-14546714D01*
X-852571Y-14661000D01*
X-809714Y-14661000D01*
X-781143Y-14675286D01*
X-766857Y-14689571D01*
X-752571Y-14718143D01*
X-752571Y-14789571D01*
X-766857Y-14818143D01*
X-781143Y-14832429D01*
X-809714Y-14846714D01*
X-895429Y-14846714D01*
X-924000Y-14832429D01*
X-938286Y-14818143D01*
X-638286Y-14546714D02*
X-638286Y-14603857D01*
X-524000Y-14546714D02*
X-524000Y-14603857D01*
X-81143Y-14961000D02*
X-95429Y-14946714D01*
X-124000Y-14903857D01*
X-138286Y-14875286D01*
X-152572Y-14832429D01*
X-166857Y-14761000D01*
X-166857Y-14703857D01*
X-152572Y-14632429D01*
X-138286Y-14589571D01*
X-124000Y-14561000D01*
X-95429Y-14518143D01*
X-81143Y-14503857D01*
X190286Y-14846714D02*
X18857Y-14846714D01*
X104571Y-14846714D02*
X104571Y-14546714D01*
X76000Y-14589571D01*
X47428Y-14618143D01*
X18857Y-14632429D01*
X447428Y-14546714D02*
X390286Y-14546714D01*
X361714Y-14561000D01*
X347428Y-14575286D01*
X318857Y-14618143D01*
X304571Y-14675286D01*
X304571Y-14789571D01*
X318857Y-14818143D01*
X333143Y-14832429D01*
X361714Y-14846714D01*
X418857Y-14846714D01*
X447428Y-14832429D01*
X461714Y-14818143D01*
X476000Y-14789571D01*
X476000Y-14718143D01*
X461714Y-14689571D01*
X447428Y-14675286D01*
X418857Y-14661000D01*
X361714Y-14661000D01*
X333143Y-14675286D01*
X318857Y-14689571D01*
X304571Y-14718143D01*
X833143Y-14846714D02*
X833143Y-14546714D01*
X961714Y-14846714D02*
X961714Y-14689571D01*
X947428Y-14661000D01*
X918857Y-14646714D01*
X876000Y-14646714D01*
X847428Y-14661000D01*
X833143Y-14675286D01*
X1147428Y-14846714D02*
X1118857Y-14832429D01*
X1104571Y-14818143D01*
X1090286Y-14789571D01*
X1090286Y-14703857D01*
X1104571Y-14675286D01*
X1118857Y-14661000D01*
X1147428Y-14646714D01*
X1190286Y-14646714D01*
X1218857Y-14661000D01*
X1233143Y-14675286D01*
X1247428Y-14703857D01*
X1247428Y-14789571D01*
X1233143Y-14818143D01*
X1218857Y-14832429D01*
X1190286Y-14846714D01*
X1147428Y-14846714D01*
X1418857Y-14846714D02*
X1390286Y-14832429D01*
X1376000Y-14803857D01*
X1376000Y-14546714D01*
X1647428Y-14832429D02*
X1618857Y-14846714D01*
X1561714Y-14846714D01*
X1533143Y-14832429D01*
X1518857Y-14803857D01*
X1518857Y-14689571D01*
X1533143Y-14661000D01*
X1561714Y-14646714D01*
X1618857Y-14646714D01*
X1647428Y-14661000D01*
X1661714Y-14689571D01*
X1661714Y-14718143D01*
X1518857Y-14746714D01*
X1776000Y-14832429D02*
X1804571Y-14846714D01*
X1861714Y-14846714D01*
X1890286Y-14832429D01*
X1904571Y-14803857D01*
X1904571Y-14789571D01*
X1890286Y-14761000D01*
X1861714Y-14746714D01*
X1818857Y-14746714D01*
X1790286Y-14732429D01*
X1776000Y-14703857D01*
X1776000Y-14689571D01*
X1790286Y-14661000D01*
X1818857Y-14646714D01*
X1861714Y-14646714D01*
X1890286Y-14661000D01*
X2004571Y-14961000D02*
X2018857Y-14946714D01*
X2047428Y-14903857D01*
X2061714Y-14875286D01*
X2076000Y-14832429D01*
X2090286Y-14761000D01*
X2090286Y-14703857D01*
X2076000Y-14632429D01*
X2061714Y-14589571D01*
X2047428Y-14561000D01*
X2018857Y-14518143D01*
X2004571Y-14503857D01*
X-5356573Y-15149427D02*
X-5356573Y-15064573D01*
X-5441427Y-15064573D01*
X-5441427Y-15149427D01*
X-5356573Y-15149427D01*
X-4895429Y-15242714D02*
X-5066857Y-15242714D01*
X-4981143Y-15242714D02*
X-4981143Y-14942714D01*
X-5009714Y-14985571D01*
X-5038286Y-15014143D01*
X-5066857Y-15028429D01*
X-4766857Y-15214143D02*
X-4752572Y-15228429D01*
X-4766857Y-15242714D01*
X-4781143Y-15228429D01*
X-4766857Y-15214143D01*
X-4766857Y-15242714D01*
X-4638286Y-14971286D02*
X-4624000Y-14957000D01*
X-4595429Y-14942714D01*
X-4524000Y-14942714D01*
X-4495429Y-14957000D01*
X-4481143Y-14971286D01*
X-4466857Y-14999857D01*
X-4466857Y-15028429D01*
X-4481143Y-15071286D01*
X-4652572Y-15242714D01*
X-4466857Y-15242714D01*
X-4281143Y-14942714D02*
X-4252572Y-14942714D01*
X-4224000Y-14957000D01*
X-4209714Y-14971286D01*
X-4195429Y-14999857D01*
X-4181143Y-15057000D01*
X-4181143Y-15128429D01*
X-4195429Y-15185571D01*
X-4209714Y-15214143D01*
X-4224000Y-15228429D01*
X-4252572Y-15242714D01*
X-4281143Y-15242714D01*
X-4309714Y-15228429D01*
X-4324000Y-15214143D01*
X-4338286Y-15185571D01*
X-4352572Y-15128429D01*
X-4352572Y-15057000D01*
X-4338286Y-14999857D01*
X-4324000Y-14971286D01*
X-4309714Y-14957000D01*
X-4281143Y-14942714D01*
X-3995429Y-14942714D02*
X-3966857Y-14942714D01*
X-3938286Y-14957000D01*
X-3924000Y-14971286D01*
X-3909714Y-14999857D01*
X-3895429Y-15057000D01*
X-3895429Y-15128429D01*
X-3909714Y-15185571D01*
X-3924000Y-15214143D01*
X-3938286Y-15228429D01*
X-3966857Y-15242714D01*
X-3995429Y-15242714D01*
X-4024000Y-15228429D01*
X-4038286Y-15214143D01*
X-4052571Y-15185571D01*
X-4066857Y-15128429D01*
X-4066857Y-15057000D01*
X-4052571Y-14999857D01*
X-4038286Y-14971286D01*
X-4024000Y-14957000D01*
X-3995429Y-14942714D01*
X-3766857Y-15242714D02*
X-3766857Y-15042714D01*
X-3766857Y-15071286D02*
X-3752571Y-15057000D01*
X-3724000Y-15042714D01*
X-3681143Y-15042714D01*
X-3652571Y-15057000D01*
X-3638286Y-15085571D01*
X-3638286Y-15242714D01*
X-3638286Y-15085571D02*
X-3624000Y-15057000D01*
X-3595429Y-15042714D01*
X-3552571Y-15042714D01*
X-3524000Y-15057000D01*
X-3509714Y-15085571D01*
X-3509714Y-15242714D01*
X-3366857Y-15242714D02*
X-3366857Y-15042714D01*
X-3366857Y-15071286D02*
X-3352571Y-15057000D01*
X-3324000Y-15042714D01*
X-3281143Y-15042714D01*
X-3252571Y-15057000D01*
X-3238286Y-15085571D01*
X-3238286Y-15242714D01*
X-3238286Y-15085571D02*
X-3224000Y-15057000D01*
X-3195429Y-15042714D01*
X-3152571Y-15042714D01*
X-3124000Y-15057000D01*
X-3109714Y-15085571D01*
X-3109714Y-15242714D01*
X-2524000Y-14928429D02*
X-2781143Y-15314143D01*
X-2138286Y-14942714D02*
X-2109714Y-14942714D01*
X-2081143Y-14957000D01*
X-2066857Y-14971286D01*
X-2052571Y-14999857D01*
X-2038286Y-15057000D01*
X-2038286Y-15128429D01*
X-2052571Y-15185571D01*
X-2066857Y-15214143D01*
X-2081143Y-15228429D01*
X-2109714Y-15242714D01*
X-2138286Y-15242714D01*
X-2166857Y-15228429D01*
X-2181143Y-15214143D01*
X-2195429Y-15185571D01*
X-2209714Y-15128429D01*
X-2209714Y-15057000D01*
X-2195429Y-14999857D01*
X-2181143Y-14971286D01*
X-2166857Y-14957000D01*
X-2138286Y-14942714D01*
X-1909714Y-15214143D02*
X-1895429Y-15228429D01*
X-1909714Y-15242714D01*
X-1924000Y-15228429D01*
X-1909714Y-15214143D01*
X-1909714Y-15242714D01*
X-1709714Y-14942714D02*
X-1681143Y-14942714D01*
X-1652571Y-14957000D01*
X-1638286Y-14971286D01*
X-1624000Y-14999857D01*
X-1609714Y-15057000D01*
X-1609714Y-15128429D01*
X-1624000Y-15185571D01*
X-1638286Y-15214143D01*
X-1652571Y-15228429D01*
X-1681143Y-15242714D01*
X-1709714Y-15242714D01*
X-1738286Y-15228429D01*
X-1752571Y-15214143D01*
X-1766857Y-15185571D01*
X-1781143Y-15128429D01*
X-1781143Y-15057000D01*
X-1766857Y-14999857D01*
X-1752571Y-14971286D01*
X-1738286Y-14957000D01*
X-1709714Y-14942714D01*
X-1352572Y-15042714D02*
X-1352572Y-15242714D01*
X-1424000Y-14928429D02*
X-1495429Y-15142714D01*
X-1309714Y-15142714D01*
X-1224000Y-14942714D02*
X-1024000Y-14942714D01*
X-1152572Y-15242714D01*
X-924000Y-14971286D02*
X-909714Y-14957000D01*
X-881143Y-14942714D01*
X-809714Y-14942714D01*
X-781143Y-14957000D01*
X-766857Y-14971286D01*
X-752571Y-14999857D01*
X-752571Y-15028429D01*
X-766857Y-15071286D01*
X-938286Y-15242714D01*
X-752571Y-15242714D01*
X-638286Y-14942714D02*
X-638286Y-14999857D01*
X-524000Y-14942714D02*
X-524000Y-14999857D01*
X-81143Y-15357000D02*
X-95429Y-15342714D01*
X-124000Y-15299857D01*
X-138286Y-15271286D01*
X-152572Y-15228429D01*
X-166857Y-15157000D01*
X-166857Y-15099857D01*
X-152572Y-15028429D01*
X-138286Y-14985571D01*
X-124000Y-14957000D01*
X-95429Y-14914143D01*
X-81143Y-14899857D01*
X176000Y-14942714D02*
X33143Y-14942714D01*
X18857Y-15085571D01*
X33143Y-15071286D01*
X61714Y-15057000D01*
X133143Y-15057000D01*
X161714Y-15071286D01*
X176000Y-15085571D01*
X190286Y-15114143D01*
X190286Y-15185571D01*
X176000Y-15214143D01*
X161714Y-15228429D01*
X133143Y-15242714D01*
X61714Y-15242714D01*
X33143Y-15228429D01*
X18857Y-15214143D01*
X290286Y-14942714D02*
X476000Y-14942714D01*
X376000Y-15057000D01*
X418857Y-15057000D01*
X447428Y-15071286D01*
X461714Y-15085571D01*
X476000Y-15114143D01*
X476000Y-15185571D01*
X461714Y-15214143D01*
X447428Y-15228429D01*
X418857Y-15242714D01*
X333143Y-15242714D01*
X304571Y-15228429D01*
X290286Y-15214143D01*
X833143Y-15242714D02*
X833143Y-14942714D01*
X961714Y-15242714D02*
X961714Y-15085571D01*
X947428Y-15057000D01*
X918857Y-15042714D01*
X876000Y-15042714D01*
X847428Y-15057000D01*
X833143Y-15071286D01*
X1147428Y-15242714D02*
X1118857Y-15228429D01*
X1104571Y-15214143D01*
X1090286Y-15185571D01*
X1090286Y-15099857D01*
X1104571Y-15071286D01*
X1118857Y-15057000D01*
X1147428Y-15042714D01*
X1190286Y-15042714D01*
X1218857Y-15057000D01*
X1233143Y-15071286D01*
X1247428Y-15099857D01*
X1247428Y-15185571D01*
X1233143Y-15214143D01*
X1218857Y-15228429D01*
X1190286Y-15242714D01*
X1147428Y-15242714D01*
X1418857Y-15242714D02*
X1390286Y-15228429D01*
X1376000Y-15199857D01*
X1376000Y-14942714D01*
X1647428Y-15228429D02*
X1618857Y-15242714D01*
X1561714Y-15242714D01*
X1533143Y-15228429D01*
X1518857Y-15199857D01*
X1518857Y-15085571D01*
X1533143Y-15057000D01*
X1561714Y-15042714D01*
X1618857Y-15042714D01*
X1647428Y-15057000D01*
X1661714Y-15085571D01*
X1661714Y-15114143D01*
X1518857Y-15142714D01*
X1776000Y-15228429D02*
X1804571Y-15242714D01*
X1861714Y-15242714D01*
X1890286Y-15228429D01*
X1904571Y-15199857D01*
X1904571Y-15185571D01*
X1890286Y-15157000D01*
X1861714Y-15142714D01*
X1818857Y-15142714D01*
X1790286Y-15128429D01*
X1776000Y-15099857D01*
X1776000Y-15085571D01*
X1790286Y-15057000D01*
X1818857Y-15042714D01*
X1861714Y-15042714D01*
X1890286Y-15057000D01*
X2004571Y-15357000D02*
X2018857Y-15342714D01*
X2047428Y-15299857D01*
X2061714Y-15271286D01*
X2076000Y-15228429D01*
X2090286Y-15157000D01*
X2090286Y-15099857D01*
X2076000Y-15028429D01*
X2061714Y-14985571D01*
X2047428Y-14957000D01*
X2018857Y-14914143D01*
X2004571Y-14899857D01*
X-5404000Y-15568000D02*
X-5339000Y-15503000D01*
X-5404000Y-15438000D01*
X-5469000Y-15503000D01*
X-5404000Y-15568000D01*
X-4895429Y-15638714D02*
X-5066857Y-15638714D01*
X-4981143Y-15638714D02*
X-4981143Y-15338714D01*
X-5009714Y-15381571D01*
X-5038286Y-15410143D01*
X-5066857Y-15424429D01*
X-4766857Y-15610143D02*
X-4752572Y-15624429D01*
X-4766857Y-15638714D01*
X-4781143Y-15624429D01*
X-4766857Y-15610143D01*
X-4766857Y-15638714D01*
X-4652572Y-15338714D02*
X-4466857Y-15338714D01*
X-4566857Y-15453000D01*
X-4524000Y-15453000D01*
X-4495429Y-15467286D01*
X-4481143Y-15481571D01*
X-4466857Y-15510143D01*
X-4466857Y-15581571D01*
X-4481143Y-15610143D01*
X-4495429Y-15624429D01*
X-4524000Y-15638714D01*
X-4609714Y-15638714D01*
X-4638286Y-15624429D01*
X-4652572Y-15610143D01*
X-4281143Y-15338714D02*
X-4252572Y-15338714D01*
X-4224000Y-15353000D01*
X-4209714Y-15367286D01*
X-4195429Y-15395857D01*
X-4181143Y-15453000D01*
X-4181143Y-15524429D01*
X-4195429Y-15581571D01*
X-4209714Y-15610143D01*
X-4224000Y-15624429D01*
X-4252572Y-15638714D01*
X-4281143Y-15638714D01*
X-4309714Y-15624429D01*
X-4324000Y-15610143D01*
X-4338286Y-15581571D01*
X-4352572Y-15524429D01*
X-4352572Y-15453000D01*
X-4338286Y-15395857D01*
X-4324000Y-15367286D01*
X-4309714Y-15353000D01*
X-4281143Y-15338714D01*
X-3995429Y-15338714D02*
X-3966857Y-15338714D01*
X-3938286Y-15353000D01*
X-3924000Y-15367286D01*
X-3909714Y-15395857D01*
X-3895429Y-15453000D01*
X-3895429Y-15524429D01*
X-3909714Y-15581571D01*
X-3924000Y-15610143D01*
X-3938286Y-15624429D01*
X-3966857Y-15638714D01*
X-3995429Y-15638714D01*
X-4024000Y-15624429D01*
X-4038286Y-15610143D01*
X-4052571Y-15581571D01*
X-4066857Y-15524429D01*
X-4066857Y-15453000D01*
X-4052571Y-15395857D01*
X-4038286Y-15367286D01*
X-4024000Y-15353000D01*
X-3995429Y-15338714D01*
X-3766857Y-15638714D02*
X-3766857Y-15438714D01*
X-3766857Y-15467286D02*
X-3752571Y-15453000D01*
X-3724000Y-15438714D01*
X-3681143Y-15438714D01*
X-3652571Y-15453000D01*
X-3638286Y-15481571D01*
X-3638286Y-15638714D01*
X-3638286Y-15481571D02*
X-3624000Y-15453000D01*
X-3595429Y-15438714D01*
X-3552571Y-15438714D01*
X-3524000Y-15453000D01*
X-3509714Y-15481571D01*
X-3509714Y-15638714D01*
X-3366857Y-15638714D02*
X-3366857Y-15438714D01*
X-3366857Y-15467286D02*
X-3352571Y-15453000D01*
X-3324000Y-15438714D01*
X-3281143Y-15438714D01*
X-3252571Y-15453000D01*
X-3238286Y-15481571D01*
X-3238286Y-15638714D01*
X-3238286Y-15481571D02*
X-3224000Y-15453000D01*
X-3195429Y-15438714D01*
X-3152571Y-15438714D01*
X-3124000Y-15453000D01*
X-3109714Y-15481571D01*
X-3109714Y-15638714D01*
X-2524000Y-15324429D02*
X-2781143Y-15710143D01*
X-2138286Y-15338714D02*
X-2109714Y-15338714D01*
X-2081143Y-15353000D01*
X-2066857Y-15367286D01*
X-2052571Y-15395857D01*
X-2038286Y-15453000D01*
X-2038286Y-15524429D01*
X-2052571Y-15581571D01*
X-2066857Y-15610143D01*
X-2081143Y-15624429D01*
X-2109714Y-15638714D01*
X-2138286Y-15638714D01*
X-2166857Y-15624429D01*
X-2181143Y-15610143D01*
X-2195429Y-15581571D01*
X-2209714Y-15524429D01*
X-2209714Y-15453000D01*
X-2195429Y-15395857D01*
X-2181143Y-15367286D01*
X-2166857Y-15353000D01*
X-2138286Y-15338714D01*
X-1909714Y-15610143D02*
X-1895429Y-15624429D01*
X-1909714Y-15638714D01*
X-1924000Y-15624429D01*
X-1909714Y-15610143D01*
X-1909714Y-15638714D01*
X-1709714Y-15338714D02*
X-1681143Y-15338714D01*
X-1652571Y-15353000D01*
X-1638286Y-15367286D01*
X-1624000Y-15395857D01*
X-1609714Y-15453000D01*
X-1609714Y-15524429D01*
X-1624000Y-15581571D01*
X-1638286Y-15610143D01*
X-1652571Y-15624429D01*
X-1681143Y-15638714D01*
X-1709714Y-15638714D01*
X-1738286Y-15624429D01*
X-1752571Y-15610143D01*
X-1766857Y-15581571D01*
X-1781143Y-15524429D01*
X-1781143Y-15453000D01*
X-1766857Y-15395857D01*
X-1752571Y-15367286D01*
X-1738286Y-15353000D01*
X-1709714Y-15338714D01*
X-1338286Y-15338714D02*
X-1481143Y-15338714D01*
X-1495429Y-15481571D01*
X-1481143Y-15467286D01*
X-1452571Y-15453000D01*
X-1381143Y-15453000D01*
X-1352572Y-15467286D01*
X-1338286Y-15481571D01*
X-1324000Y-15510143D01*
X-1324000Y-15581571D01*
X-1338286Y-15610143D01*
X-1352572Y-15624429D01*
X-1381143Y-15638714D01*
X-1452571Y-15638714D01*
X-1481143Y-15624429D01*
X-1495429Y-15610143D01*
X-1038286Y-15638714D02*
X-1209714Y-15638714D01*
X-1124000Y-15638714D02*
X-1124000Y-15338714D01*
X-1152572Y-15381571D01*
X-1181143Y-15410143D01*
X-1209714Y-15424429D01*
X-924000Y-15367286D02*
X-909714Y-15353000D01*
X-881143Y-15338714D01*
X-809714Y-15338714D01*
X-781143Y-15353000D01*
X-766857Y-15367286D01*
X-752571Y-15395857D01*
X-752571Y-15424429D01*
X-766857Y-15467286D01*
X-938286Y-15638714D01*
X-752571Y-15638714D01*
X-638286Y-15338714D02*
X-638286Y-15395857D01*
X-524000Y-15338714D02*
X-524000Y-15395857D01*
X-81143Y-15753000D02*
X-95429Y-15738714D01*
X-124000Y-15695857D01*
X-138286Y-15667286D01*
X-152572Y-15624429D01*
X-166857Y-15553000D01*
X-166857Y-15495857D01*
X-152572Y-15424429D01*
X-138286Y-15381571D01*
X-124000Y-15353000D01*
X-95429Y-15310143D01*
X-81143Y-15295857D01*
X18857Y-15367286D02*
X33143Y-15353000D01*
X61714Y-15338714D01*
X133143Y-15338714D01*
X161714Y-15353000D01*
X176000Y-15367286D01*
X190286Y-15395857D01*
X190286Y-15424429D01*
X176000Y-15467286D01*
X4571Y-15638714D01*
X190286Y-15638714D01*
X547428Y-15638714D02*
X547428Y-15338714D01*
X676000Y-15638714D02*
X676000Y-15481571D01*
X661714Y-15453000D01*
X633143Y-15438714D01*
X590286Y-15438714D01*
X561714Y-15453000D01*
X547428Y-15467286D01*
X861714Y-15638714D02*
X833143Y-15624429D01*
X818857Y-15610143D01*
X804571Y-15581571D01*
X804571Y-15495857D01*
X818857Y-15467286D01*
X833143Y-15453000D01*
X861714Y-15438714D01*
X904571Y-15438714D01*
X933143Y-15453000D01*
X947428Y-15467286D01*
X961714Y-15495857D01*
X961714Y-15581571D01*
X947428Y-15610143D01*
X933143Y-15624429D01*
X904571Y-15638714D01*
X861714Y-15638714D01*
X1133143Y-15638714D02*
X1104571Y-15624429D01*
X1090286Y-15595857D01*
X1090286Y-15338714D01*
X1361714Y-15624429D02*
X1333143Y-15638714D01*
X1276000Y-15638714D01*
X1247428Y-15624429D01*
X1233143Y-15595857D01*
X1233143Y-15481571D01*
X1247428Y-15453000D01*
X1276000Y-15438714D01*
X1333143Y-15438714D01*
X1361714Y-15453000D01*
X1376000Y-15481571D01*
X1376000Y-15510143D01*
X1233143Y-15538714D01*
X1490286Y-15624429D02*
X1518857Y-15638714D01*
X1576000Y-15638714D01*
X1604571Y-15624429D01*
X1618857Y-15595857D01*
X1618857Y-15581571D01*
X1604571Y-15553000D01*
X1576000Y-15538714D01*
X1533143Y-15538714D01*
X1504571Y-15524429D01*
X1490286Y-15495857D01*
X1490286Y-15481571D01*
X1504571Y-15453000D01*
X1533143Y-15438714D01*
X1576000Y-15438714D01*
X1604571Y-15453000D01*
X1718857Y-15753000D02*
X1733143Y-15738714D01*
X1761714Y-15695857D01*
X1776000Y-15667286D01*
X1790286Y-15624429D01*
X1804571Y-15553000D01*
X1804571Y-15495857D01*
X1790286Y-15424429D01*
X1776000Y-15381571D01*
X1761714Y-15353000D01*
X1733143Y-15310143D01*
X1718857Y-15295857D01*
X-5494000Y-15821500D02*
X-5339000Y-15976500D01*
X-5339000Y-15821500D02*
X-5494000Y-15976500D01*
X-5339000Y-15899000D02*
G75*
G03*
X-5339000Y-15899000I-77500J0D01*
G01*
X-4895429Y-16034714D02*
X-5066857Y-16034714D01*
X-4981143Y-16034714D02*
X-4981143Y-15734714D01*
X-5009714Y-15777571D01*
X-5038286Y-15806143D01*
X-5066857Y-15820429D01*
X-4766857Y-16006143D02*
X-4752572Y-16020429D01*
X-4766857Y-16034714D01*
X-4781143Y-16020429D01*
X-4766857Y-16006143D01*
X-4766857Y-16034714D01*
X-4481143Y-15734714D02*
X-4624000Y-15734714D01*
X-4638286Y-15877571D01*
X-4624000Y-15863286D01*
X-4595429Y-15849000D01*
X-4524000Y-15849000D01*
X-4495429Y-15863286D01*
X-4481143Y-15877571D01*
X-4466857Y-15906143D01*
X-4466857Y-15977571D01*
X-4481143Y-16006143D01*
X-4495429Y-16020429D01*
X-4524000Y-16034714D01*
X-4595429Y-16034714D01*
X-4624000Y-16020429D01*
X-4638286Y-16006143D01*
X-4195429Y-15734714D02*
X-4338286Y-15734714D01*
X-4352572Y-15877571D01*
X-4338286Y-15863286D01*
X-4309714Y-15849000D01*
X-4238286Y-15849000D01*
X-4209714Y-15863286D01*
X-4195429Y-15877571D01*
X-4181143Y-15906143D01*
X-4181143Y-15977571D01*
X-4195429Y-16006143D01*
X-4209714Y-16020429D01*
X-4238286Y-16034714D01*
X-4309714Y-16034714D01*
X-4338286Y-16020429D01*
X-4352572Y-16006143D01*
X-3995429Y-15734714D02*
X-3966857Y-15734714D01*
X-3938286Y-15749000D01*
X-3924000Y-15763286D01*
X-3909714Y-15791857D01*
X-3895429Y-15849000D01*
X-3895429Y-15920429D01*
X-3909714Y-15977571D01*
X-3924000Y-16006143D01*
X-3938286Y-16020429D01*
X-3966857Y-16034714D01*
X-3995429Y-16034714D01*
X-4024000Y-16020429D01*
X-4038286Y-16006143D01*
X-4052571Y-15977571D01*
X-4066857Y-15920429D01*
X-4066857Y-15849000D01*
X-4052571Y-15791857D01*
X-4038286Y-15763286D01*
X-4024000Y-15749000D01*
X-3995429Y-15734714D01*
X-3766857Y-16034714D02*
X-3766857Y-15834714D01*
X-3766857Y-15863286D02*
X-3752571Y-15849000D01*
X-3724000Y-15834714D01*
X-3681143Y-15834714D01*
X-3652571Y-15849000D01*
X-3638286Y-15877571D01*
X-3638286Y-16034714D01*
X-3638286Y-15877571D02*
X-3624000Y-15849000D01*
X-3595429Y-15834714D01*
X-3552571Y-15834714D01*
X-3524000Y-15849000D01*
X-3509714Y-15877571D01*
X-3509714Y-16034714D01*
X-3366857Y-16034714D02*
X-3366857Y-15834714D01*
X-3366857Y-15863286D02*
X-3352571Y-15849000D01*
X-3324000Y-15834714D01*
X-3281143Y-15834714D01*
X-3252571Y-15849000D01*
X-3238286Y-15877571D01*
X-3238286Y-16034714D01*
X-3238286Y-15877571D02*
X-3224000Y-15849000D01*
X-3195429Y-15834714D01*
X-3152571Y-15834714D01*
X-3124000Y-15849000D01*
X-3109714Y-15877571D01*
X-3109714Y-16034714D01*
X-2524000Y-15720429D02*
X-2781143Y-16106143D01*
X-2138286Y-15734714D02*
X-2109714Y-15734714D01*
X-2081143Y-15749000D01*
X-2066857Y-15763286D01*
X-2052571Y-15791857D01*
X-2038286Y-15849000D01*
X-2038286Y-15920429D01*
X-2052571Y-15977571D01*
X-2066857Y-16006143D01*
X-2081143Y-16020429D01*
X-2109714Y-16034714D01*
X-2138286Y-16034714D01*
X-2166857Y-16020429D01*
X-2181143Y-16006143D01*
X-2195429Y-15977571D01*
X-2209714Y-15920429D01*
X-2209714Y-15849000D01*
X-2195429Y-15791857D01*
X-2181143Y-15763286D01*
X-2166857Y-15749000D01*
X-2138286Y-15734714D01*
X-1909714Y-16006143D02*
X-1895429Y-16020429D01*
X-1909714Y-16034714D01*
X-1924000Y-16020429D01*
X-1909714Y-16006143D01*
X-1909714Y-16034714D01*
X-1709714Y-15734714D02*
X-1681143Y-15734714D01*
X-1652571Y-15749000D01*
X-1638286Y-15763286D01*
X-1624000Y-15791857D01*
X-1609714Y-15849000D01*
X-1609714Y-15920429D01*
X-1624000Y-15977571D01*
X-1638286Y-16006143D01*
X-1652571Y-16020429D01*
X-1681143Y-16034714D01*
X-1709714Y-16034714D01*
X-1738286Y-16020429D01*
X-1752571Y-16006143D01*
X-1766857Y-15977571D01*
X-1781143Y-15920429D01*
X-1781143Y-15849000D01*
X-1766857Y-15791857D01*
X-1752571Y-15763286D01*
X-1738286Y-15749000D01*
X-1709714Y-15734714D01*
X-1352572Y-15734714D02*
X-1409714Y-15734714D01*
X-1438286Y-15749000D01*
X-1452571Y-15763286D01*
X-1481143Y-15806143D01*
X-1495429Y-15863286D01*
X-1495429Y-15977571D01*
X-1481143Y-16006143D01*
X-1466857Y-16020429D01*
X-1438286Y-16034714D01*
X-1381143Y-16034714D01*
X-1352572Y-16020429D01*
X-1338286Y-16006143D01*
X-1324000Y-15977571D01*
X-1324000Y-15906143D01*
X-1338286Y-15877571D01*
X-1352572Y-15863286D01*
X-1381143Y-15849000D01*
X-1438286Y-15849000D01*
X-1466857Y-15863286D01*
X-1481143Y-15877571D01*
X-1495429Y-15906143D01*
X-1038286Y-16034714D02*
X-1209714Y-16034714D01*
X-1124000Y-16034714D02*
X-1124000Y-15734714D01*
X-1152572Y-15777571D01*
X-1181143Y-15806143D01*
X-1209714Y-15820429D01*
X-852571Y-15734714D02*
X-824000Y-15734714D01*
X-795429Y-15749000D01*
X-781143Y-15763286D01*
X-766857Y-15791857D01*
X-752571Y-15849000D01*
X-752571Y-15920429D01*
X-766857Y-15977571D01*
X-781143Y-16006143D01*
X-795429Y-16020429D01*
X-824000Y-16034714D01*
X-852571Y-16034714D01*
X-881143Y-16020429D01*
X-895429Y-16006143D01*
X-909714Y-15977571D01*
X-924000Y-15920429D01*
X-924000Y-15849000D01*
X-909714Y-15791857D01*
X-895429Y-15763286D01*
X-881143Y-15749000D01*
X-852571Y-15734714D01*
X-638286Y-15734714D02*
X-638286Y-15791857D01*
X-524000Y-15734714D02*
X-524000Y-15791857D01*
X-81143Y-16149000D02*
X-95429Y-16134714D01*
X-124000Y-16091857D01*
X-138286Y-16063286D01*
X-152572Y-16020429D01*
X-166857Y-15949000D01*
X-166857Y-15891857D01*
X-152572Y-15820429D01*
X-138286Y-15777571D01*
X-124000Y-15749000D01*
X-95429Y-15706143D01*
X-81143Y-15691857D01*
X190286Y-16034714D02*
X18857Y-16034714D01*
X104571Y-16034714D02*
X104571Y-15734714D01*
X76000Y-15777571D01*
X47428Y-15806143D01*
X18857Y-15820429D01*
X290286Y-15734714D02*
X490286Y-15734714D01*
X361714Y-16034714D01*
X833143Y-16034714D02*
X833143Y-15734714D01*
X961714Y-16034714D02*
X961714Y-15877571D01*
X947428Y-15849000D01*
X918857Y-15834714D01*
X876000Y-15834714D01*
X847428Y-15849000D01*
X833143Y-15863286D01*
X1147428Y-16034714D02*
X1118857Y-16020429D01*
X1104571Y-16006143D01*
X1090286Y-15977571D01*
X1090286Y-15891857D01*
X1104571Y-15863286D01*
X1118857Y-15849000D01*
X1147428Y-15834714D01*
X1190286Y-15834714D01*
X1218857Y-15849000D01*
X1233143Y-15863286D01*
X1247428Y-15891857D01*
X1247428Y-15977571D01*
X1233143Y-16006143D01*
X1218857Y-16020429D01*
X1190286Y-16034714D01*
X1147428Y-16034714D01*
X1418857Y-16034714D02*
X1390286Y-16020429D01*
X1376000Y-15991857D01*
X1376000Y-15734714D01*
X1647428Y-16020429D02*
X1618857Y-16034714D01*
X1561714Y-16034714D01*
X1533143Y-16020429D01*
X1518857Y-15991857D01*
X1518857Y-15877571D01*
X1533143Y-15849000D01*
X1561714Y-15834714D01*
X1618857Y-15834714D01*
X1647428Y-15849000D01*
X1661714Y-15877571D01*
X1661714Y-15906143D01*
X1518857Y-15934714D01*
X1776000Y-16020429D02*
X1804571Y-16034714D01*
X1861714Y-16034714D01*
X1890286Y-16020429D01*
X1904571Y-15991857D01*
X1904571Y-15977571D01*
X1890286Y-15949000D01*
X1861714Y-15934714D01*
X1818857Y-15934714D01*
X1790286Y-15920429D01*
X1776000Y-15891857D01*
X1776000Y-15877571D01*
X1790286Y-15849000D01*
X1818857Y-15834714D01*
X1861714Y-15834714D01*
X1890286Y-15849000D01*
X2004571Y-16149000D02*
X2018857Y-16134714D01*
X2047428Y-16091857D01*
X2061714Y-16063286D01*
X2076000Y-16020429D01*
X2090286Y-15949000D01*
X2090286Y-15891857D01*
X2076000Y-15820429D01*
X2061714Y-15777571D01*
X2047428Y-15749000D01*
X2018857Y-15706143D01*
X2004571Y-15691857D01*
X-5499000Y-16215000D02*
X-5339000Y-16375000D01*
X-5339000Y-16215000D02*
X-5499000Y-16375000D01*
X-5419000Y-16215000D02*
X-5419000Y-16375000D01*
X-5499000Y-16295000D02*
X-5339000Y-16295000D01*
X-4895429Y-16430714D02*
X-5066857Y-16430714D01*
X-4981143Y-16430714D02*
X-4981143Y-16130714D01*
X-5009714Y-16173571D01*
X-5038286Y-16202143D01*
X-5066857Y-16216429D01*
X-4766857Y-16402143D02*
X-4752572Y-16416429D01*
X-4766857Y-16430714D01*
X-4781143Y-16416429D01*
X-4766857Y-16402143D01*
X-4766857Y-16430714D01*
X-4495429Y-16130714D02*
X-4552572Y-16130714D01*
X-4581143Y-16145000D01*
X-4595429Y-16159286D01*
X-4624000Y-16202143D01*
X-4638286Y-16259286D01*
X-4638286Y-16373571D01*
X-4624000Y-16402143D01*
X-4609714Y-16416429D01*
X-4581143Y-16430714D01*
X-4524000Y-16430714D01*
X-4495429Y-16416429D01*
X-4481143Y-16402143D01*
X-4466857Y-16373571D01*
X-4466857Y-16302143D01*
X-4481143Y-16273571D01*
X-4495429Y-16259286D01*
X-4524000Y-16245000D01*
X-4581143Y-16245000D01*
X-4609714Y-16259286D01*
X-4624000Y-16273571D01*
X-4638286Y-16302143D01*
X-4281143Y-16130714D02*
X-4252572Y-16130714D01*
X-4224000Y-16145000D01*
X-4209714Y-16159286D01*
X-4195429Y-16187857D01*
X-4181143Y-16245000D01*
X-4181143Y-16316429D01*
X-4195429Y-16373571D01*
X-4209714Y-16402143D01*
X-4224000Y-16416429D01*
X-4252572Y-16430714D01*
X-4281143Y-16430714D01*
X-4309714Y-16416429D01*
X-4324000Y-16402143D01*
X-4338286Y-16373571D01*
X-4352572Y-16316429D01*
X-4352572Y-16245000D01*
X-4338286Y-16187857D01*
X-4324000Y-16159286D01*
X-4309714Y-16145000D01*
X-4281143Y-16130714D01*
X-3995429Y-16130714D02*
X-3966857Y-16130714D01*
X-3938286Y-16145000D01*
X-3924000Y-16159286D01*
X-3909714Y-16187857D01*
X-3895429Y-16245000D01*
X-3895429Y-16316429D01*
X-3909714Y-16373571D01*
X-3924000Y-16402143D01*
X-3938286Y-16416429D01*
X-3966857Y-16430714D01*
X-3995429Y-16430714D01*
X-4024000Y-16416429D01*
X-4038286Y-16402143D01*
X-4052571Y-16373571D01*
X-4066857Y-16316429D01*
X-4066857Y-16245000D01*
X-4052571Y-16187857D01*
X-4038286Y-16159286D01*
X-4024000Y-16145000D01*
X-3995429Y-16130714D01*
X-3766857Y-16430714D02*
X-3766857Y-16230714D01*
X-3766857Y-16259286D02*
X-3752571Y-16245000D01*
X-3724000Y-16230714D01*
X-3681143Y-16230714D01*
X-3652571Y-16245000D01*
X-3638286Y-16273571D01*
X-3638286Y-16430714D01*
X-3638286Y-16273571D02*
X-3624000Y-16245000D01*
X-3595429Y-16230714D01*
X-3552571Y-16230714D01*
X-3524000Y-16245000D01*
X-3509714Y-16273571D01*
X-3509714Y-16430714D01*
X-3366857Y-16430714D02*
X-3366857Y-16230714D01*
X-3366857Y-16259286D02*
X-3352571Y-16245000D01*
X-3324000Y-16230714D01*
X-3281143Y-16230714D01*
X-3252571Y-16245000D01*
X-3238286Y-16273571D01*
X-3238286Y-16430714D01*
X-3238286Y-16273571D02*
X-3224000Y-16245000D01*
X-3195429Y-16230714D01*
X-3152571Y-16230714D01*
X-3124000Y-16245000D01*
X-3109714Y-16273571D01*
X-3109714Y-16430714D01*
X-2524000Y-16116429D02*
X-2781143Y-16502143D01*
X-2138286Y-16130714D02*
X-2109714Y-16130714D01*
X-2081143Y-16145000D01*
X-2066857Y-16159286D01*
X-2052571Y-16187857D01*
X-2038286Y-16245000D01*
X-2038286Y-16316429D01*
X-2052571Y-16373571D01*
X-2066857Y-16402143D01*
X-2081143Y-16416429D01*
X-2109714Y-16430714D01*
X-2138286Y-16430714D01*
X-2166857Y-16416429D01*
X-2181143Y-16402143D01*
X-2195429Y-16373571D01*
X-2209714Y-16316429D01*
X-2209714Y-16245000D01*
X-2195429Y-16187857D01*
X-2181143Y-16159286D01*
X-2166857Y-16145000D01*
X-2138286Y-16130714D01*
X-1909714Y-16402143D02*
X-1895429Y-16416429D01*
X-1909714Y-16430714D01*
X-1924000Y-16416429D01*
X-1909714Y-16402143D01*
X-1909714Y-16430714D01*
X-1709714Y-16130714D02*
X-1681143Y-16130714D01*
X-1652571Y-16145000D01*
X-1638286Y-16159286D01*
X-1624000Y-16187857D01*
X-1609714Y-16245000D01*
X-1609714Y-16316429D01*
X-1624000Y-16373571D01*
X-1638286Y-16402143D01*
X-1652571Y-16416429D01*
X-1681143Y-16430714D01*
X-1709714Y-16430714D01*
X-1738286Y-16416429D01*
X-1752571Y-16402143D01*
X-1766857Y-16373571D01*
X-1781143Y-16316429D01*
X-1781143Y-16245000D01*
X-1766857Y-16187857D01*
X-1752571Y-16159286D01*
X-1738286Y-16145000D01*
X-1709714Y-16130714D01*
X-1352572Y-16130714D02*
X-1409714Y-16130714D01*
X-1438286Y-16145000D01*
X-1452571Y-16159286D01*
X-1481143Y-16202143D01*
X-1495429Y-16259286D01*
X-1495429Y-16373571D01*
X-1481143Y-16402143D01*
X-1466857Y-16416429D01*
X-1438286Y-16430714D01*
X-1381143Y-16430714D01*
X-1352572Y-16416429D01*
X-1338286Y-16402143D01*
X-1324000Y-16373571D01*
X-1324000Y-16302143D01*
X-1338286Y-16273571D01*
X-1352572Y-16259286D01*
X-1381143Y-16245000D01*
X-1438286Y-16245000D01*
X-1466857Y-16259286D01*
X-1481143Y-16273571D01*
X-1495429Y-16302143D01*
X-1224000Y-16130714D02*
X-1038286Y-16130714D01*
X-1138286Y-16245000D01*
X-1095429Y-16245000D01*
X-1066857Y-16259286D01*
X-1052572Y-16273571D01*
X-1038286Y-16302143D01*
X-1038286Y-16373571D01*
X-1052572Y-16402143D01*
X-1066857Y-16416429D01*
X-1095429Y-16430714D01*
X-1181143Y-16430714D01*
X-1209714Y-16416429D01*
X-1224000Y-16402143D01*
X-852571Y-16130714D02*
X-824000Y-16130714D01*
X-795429Y-16145000D01*
X-781143Y-16159286D01*
X-766857Y-16187857D01*
X-752571Y-16245000D01*
X-752571Y-16316429D01*
X-766857Y-16373571D01*
X-781143Y-16402143D01*
X-795429Y-16416429D01*
X-824000Y-16430714D01*
X-852571Y-16430714D01*
X-881143Y-16416429D01*
X-895429Y-16402143D01*
X-909714Y-16373571D01*
X-924000Y-16316429D01*
X-924000Y-16245000D01*
X-909714Y-16187857D01*
X-895429Y-16159286D01*
X-881143Y-16145000D01*
X-852571Y-16130714D01*
X-638286Y-16130714D02*
X-638286Y-16187857D01*
X-524000Y-16130714D02*
X-524000Y-16187857D01*
X-81143Y-16545000D02*
X-95429Y-16530714D01*
X-124000Y-16487857D01*
X-138286Y-16459286D01*
X-152572Y-16416429D01*
X-166857Y-16345000D01*
X-166857Y-16287857D01*
X-152572Y-16216429D01*
X-138286Y-16173571D01*
X-124000Y-16145000D01*
X-95429Y-16102143D01*
X-81143Y-16087857D01*
X161714Y-16230714D02*
X161714Y-16430714D01*
X90286Y-16116429D02*
X18857Y-16330714D01*
X204571Y-16330714D01*
X547428Y-16430714D02*
X547428Y-16130714D01*
X676000Y-16430714D02*
X676000Y-16273571D01*
X661714Y-16245000D01*
X633143Y-16230714D01*
X590286Y-16230714D01*
X561714Y-16245000D01*
X547428Y-16259286D01*
X861714Y-16430714D02*
X833143Y-16416429D01*
X818857Y-16402143D01*
X804571Y-16373571D01*
X804571Y-16287857D01*
X818857Y-16259286D01*
X833143Y-16245000D01*
X861714Y-16230714D01*
X904571Y-16230714D01*
X933143Y-16245000D01*
X947428Y-16259286D01*
X961714Y-16287857D01*
X961714Y-16373571D01*
X947428Y-16402143D01*
X933143Y-16416429D01*
X904571Y-16430714D01*
X861714Y-16430714D01*
X1133143Y-16430714D02*
X1104571Y-16416429D01*
X1090286Y-16387857D01*
X1090286Y-16130714D01*
X1361714Y-16416429D02*
X1333143Y-16430714D01*
X1276000Y-16430714D01*
X1247428Y-16416429D01*
X1233143Y-16387857D01*
X1233143Y-16273571D01*
X1247428Y-16245000D01*
X1276000Y-16230714D01*
X1333143Y-16230714D01*
X1361714Y-16245000D01*
X1376000Y-16273571D01*
X1376000Y-16302143D01*
X1233143Y-16330714D01*
X1490286Y-16416429D02*
X1518857Y-16430714D01*
X1576000Y-16430714D01*
X1604571Y-16416429D01*
X1618857Y-16387857D01*
X1618857Y-16373571D01*
X1604571Y-16345000D01*
X1576000Y-16330714D01*
X1533143Y-16330714D01*
X1504571Y-16316429D01*
X1490286Y-16287857D01*
X1490286Y-16273571D01*
X1504571Y-16245000D01*
X1533143Y-16230714D01*
X1576000Y-16230714D01*
X1604571Y-16245000D01*
X1718857Y-16545000D02*
X1733143Y-16530714D01*
X1761714Y-16487857D01*
X1776000Y-16459286D01*
X1790286Y-16416429D01*
X1804571Y-16345000D01*
X1804571Y-16287857D01*
X1790286Y-16216429D01*
X1776000Y-16173571D01*
X1761714Y-16145000D01*
X1733143Y-16102143D01*
X1718857Y-16087857D01*
X-5519000Y-16601000D02*
X-5339000Y-16781000D01*
X-5339000Y-16601000D02*
X-5519000Y-16781000D01*
X-5365360Y-16754640D02*
X-5365360Y-16627360D01*
X-5492640Y-16627360D01*
X-5492640Y-16754640D01*
X-5365360Y-16754640D01*
X-4895429Y-16826714D02*
X-5066857Y-16826714D01*
X-4981143Y-16826714D02*
X-4981143Y-16526714D01*
X-5009714Y-16569571D01*
X-5038286Y-16598143D01*
X-5066857Y-16612429D01*
X-4766857Y-16798143D02*
X-4752572Y-16812429D01*
X-4766857Y-16826714D01*
X-4781143Y-16812429D01*
X-4766857Y-16798143D01*
X-4766857Y-16826714D01*
X-4581143Y-16655286D02*
X-4609714Y-16641000D01*
X-4624000Y-16626714D01*
X-4638286Y-16598143D01*
X-4638286Y-16583857D01*
X-4624000Y-16555286D01*
X-4609714Y-16541000D01*
X-4581143Y-16526714D01*
X-4524000Y-16526714D01*
X-4495429Y-16541000D01*
X-4481143Y-16555286D01*
X-4466857Y-16583857D01*
X-4466857Y-16598143D01*
X-4481143Y-16626714D01*
X-4495429Y-16641000D01*
X-4524000Y-16655286D01*
X-4581143Y-16655286D01*
X-4609714Y-16669571D01*
X-4624000Y-16683857D01*
X-4638286Y-16712429D01*
X-4638286Y-16769571D01*
X-4624000Y-16798143D01*
X-4609714Y-16812429D01*
X-4581143Y-16826714D01*
X-4524000Y-16826714D01*
X-4495429Y-16812429D01*
X-4481143Y-16798143D01*
X-4466857Y-16769571D01*
X-4466857Y-16712429D01*
X-4481143Y-16683857D01*
X-4495429Y-16669571D01*
X-4524000Y-16655286D01*
X-4281143Y-16526714D02*
X-4252572Y-16526714D01*
X-4224000Y-16541000D01*
X-4209714Y-16555286D01*
X-4195429Y-16583857D01*
X-4181143Y-16641000D01*
X-4181143Y-16712429D01*
X-4195429Y-16769571D01*
X-4209714Y-16798143D01*
X-4224000Y-16812429D01*
X-4252572Y-16826714D01*
X-4281143Y-16826714D01*
X-4309714Y-16812429D01*
X-4324000Y-16798143D01*
X-4338286Y-16769571D01*
X-4352572Y-16712429D01*
X-4352572Y-16641000D01*
X-4338286Y-16583857D01*
X-4324000Y-16555286D01*
X-4309714Y-16541000D01*
X-4281143Y-16526714D01*
X-3995429Y-16526714D02*
X-3966857Y-16526714D01*
X-3938286Y-16541000D01*
X-3924000Y-16555286D01*
X-3909714Y-16583857D01*
X-3895429Y-16641000D01*
X-3895429Y-16712429D01*
X-3909714Y-16769571D01*
X-3924000Y-16798143D01*
X-3938286Y-16812429D01*
X-3966857Y-16826714D01*
X-3995429Y-16826714D01*
X-4024000Y-16812429D01*
X-4038286Y-16798143D01*
X-4052571Y-16769571D01*
X-4066857Y-16712429D01*
X-4066857Y-16641000D01*
X-4052571Y-16583857D01*
X-4038286Y-16555286D01*
X-4024000Y-16541000D01*
X-3995429Y-16526714D01*
X-3766857Y-16826714D02*
X-3766857Y-16626714D01*
X-3766857Y-16655286D02*
X-3752571Y-16641000D01*
X-3724000Y-16626714D01*
X-3681143Y-16626714D01*
X-3652571Y-16641000D01*
X-3638286Y-16669571D01*
X-3638286Y-16826714D01*
X-3638286Y-16669571D02*
X-3624000Y-16641000D01*
X-3595429Y-16626714D01*
X-3552571Y-16626714D01*
X-3524000Y-16641000D01*
X-3509714Y-16669571D01*
X-3509714Y-16826714D01*
X-3366857Y-16826714D02*
X-3366857Y-16626714D01*
X-3366857Y-16655286D02*
X-3352571Y-16641000D01*
X-3324000Y-16626714D01*
X-3281143Y-16626714D01*
X-3252571Y-16641000D01*
X-3238286Y-16669571D01*
X-3238286Y-16826714D01*
X-3238286Y-16669571D02*
X-3224000Y-16641000D01*
X-3195429Y-16626714D01*
X-3152571Y-16626714D01*
X-3124000Y-16641000D01*
X-3109714Y-16669571D01*
X-3109714Y-16826714D01*
X-2524000Y-16512429D02*
X-2781143Y-16898143D01*
X-2138286Y-16526714D02*
X-2109714Y-16526714D01*
X-2081143Y-16541000D01*
X-2066857Y-16555286D01*
X-2052571Y-16583857D01*
X-2038286Y-16641000D01*
X-2038286Y-16712429D01*
X-2052571Y-16769571D01*
X-2066857Y-16798143D01*
X-2081143Y-16812429D01*
X-2109714Y-16826714D01*
X-2138286Y-16826714D01*
X-2166857Y-16812429D01*
X-2181143Y-16798143D01*
X-2195429Y-16769571D01*
X-2209714Y-16712429D01*
X-2209714Y-16641000D01*
X-2195429Y-16583857D01*
X-2181143Y-16555286D01*
X-2166857Y-16541000D01*
X-2138286Y-16526714D01*
X-1909714Y-16798143D02*
X-1895429Y-16812429D01*
X-1909714Y-16826714D01*
X-1924000Y-16812429D01*
X-1909714Y-16798143D01*
X-1909714Y-16826714D01*
X-1709714Y-16526714D02*
X-1681143Y-16526714D01*
X-1652571Y-16541000D01*
X-1638286Y-16555286D01*
X-1624000Y-16583857D01*
X-1609714Y-16641000D01*
X-1609714Y-16712429D01*
X-1624000Y-16769571D01*
X-1638286Y-16798143D01*
X-1652571Y-16812429D01*
X-1681143Y-16826714D01*
X-1709714Y-16826714D01*
X-1738286Y-16812429D01*
X-1752571Y-16798143D01*
X-1766857Y-16769571D01*
X-1781143Y-16712429D01*
X-1781143Y-16641000D01*
X-1766857Y-16583857D01*
X-1752571Y-16555286D01*
X-1738286Y-16541000D01*
X-1709714Y-16526714D01*
X-1509714Y-16526714D02*
X-1309714Y-16526714D01*
X-1438286Y-16826714D01*
X-1138286Y-16526714D02*
X-1109714Y-16526714D01*
X-1081143Y-16541000D01*
X-1066857Y-16555286D01*
X-1052572Y-16583857D01*
X-1038286Y-16641000D01*
X-1038286Y-16712429D01*
X-1052572Y-16769571D01*
X-1066857Y-16798143D01*
X-1081143Y-16812429D01*
X-1109714Y-16826714D01*
X-1138286Y-16826714D01*
X-1166857Y-16812429D01*
X-1181143Y-16798143D01*
X-1195429Y-16769571D01*
X-1209714Y-16712429D01*
X-1209714Y-16641000D01*
X-1195429Y-16583857D01*
X-1181143Y-16555286D01*
X-1166857Y-16541000D01*
X-1138286Y-16526714D01*
X-895429Y-16826714D02*
X-838286Y-16826714D01*
X-809714Y-16812429D01*
X-795429Y-16798143D01*
X-766857Y-16755286D01*
X-752571Y-16698143D01*
X-752571Y-16583857D01*
X-766857Y-16555286D01*
X-781143Y-16541000D01*
X-809714Y-16526714D01*
X-866857Y-16526714D01*
X-895429Y-16541000D01*
X-909714Y-16555286D01*
X-924000Y-16583857D01*
X-924000Y-16655286D01*
X-909714Y-16683857D01*
X-895429Y-16698143D01*
X-866857Y-16712429D01*
X-809714Y-16712429D01*
X-781143Y-16698143D01*
X-766857Y-16683857D01*
X-752571Y-16655286D01*
X-638286Y-16526714D02*
X-638286Y-16583857D01*
X-524000Y-16526714D02*
X-524000Y-16583857D01*
X-81143Y-16941000D02*
X-95429Y-16926714D01*
X-124000Y-16883857D01*
X-138286Y-16855286D01*
X-152572Y-16812429D01*
X-166857Y-16741000D01*
X-166857Y-16683857D01*
X-152572Y-16612429D01*
X-138286Y-16569571D01*
X-124000Y-16541000D01*
X-95429Y-16498143D01*
X-81143Y-16483857D01*
X190286Y-16826714D02*
X18857Y-16826714D01*
X104571Y-16826714D02*
X104571Y-16526714D01*
X76000Y-16569571D01*
X47428Y-16598143D01*
X18857Y-16612429D01*
X361714Y-16655286D02*
X333143Y-16641000D01*
X318857Y-16626714D01*
X304571Y-16598143D01*
X304571Y-16583857D01*
X318857Y-16555286D01*
X333143Y-16541000D01*
X361714Y-16526714D01*
X418857Y-16526714D01*
X447428Y-16541000D01*
X461714Y-16555286D01*
X476000Y-16583857D01*
X476000Y-16598143D01*
X461714Y-16626714D01*
X447428Y-16641000D01*
X418857Y-16655286D01*
X361714Y-16655286D01*
X333143Y-16669571D01*
X318857Y-16683857D01*
X304571Y-16712429D01*
X304571Y-16769571D01*
X318857Y-16798143D01*
X333143Y-16812429D01*
X361714Y-16826714D01*
X418857Y-16826714D01*
X447428Y-16812429D01*
X461714Y-16798143D01*
X476000Y-16769571D01*
X476000Y-16712429D01*
X461714Y-16683857D01*
X447428Y-16669571D01*
X418857Y-16655286D01*
X833143Y-16826714D02*
X833143Y-16526714D01*
X961714Y-16826714D02*
X961714Y-16669571D01*
X947428Y-16641000D01*
X918857Y-16626714D01*
X876000Y-16626714D01*
X847428Y-16641000D01*
X833143Y-16655286D01*
X1147428Y-16826714D02*
X1118857Y-16812429D01*
X1104571Y-16798143D01*
X1090286Y-16769571D01*
X1090286Y-16683857D01*
X1104571Y-16655286D01*
X1118857Y-16641000D01*
X1147428Y-16626714D01*
X1190286Y-16626714D01*
X1218857Y-16641000D01*
X1233143Y-16655286D01*
X1247428Y-16683857D01*
X1247428Y-16769571D01*
X1233143Y-16798143D01*
X1218857Y-16812429D01*
X1190286Y-16826714D01*
X1147428Y-16826714D01*
X1418857Y-16826714D02*
X1390286Y-16812429D01*
X1376000Y-16783857D01*
X1376000Y-16526714D01*
X1647428Y-16812429D02*
X1618857Y-16826714D01*
X1561714Y-16826714D01*
X1533143Y-16812429D01*
X1518857Y-16783857D01*
X1518857Y-16669571D01*
X1533143Y-16641000D01*
X1561714Y-16626714D01*
X1618857Y-16626714D01*
X1647428Y-16641000D01*
X1661714Y-16669571D01*
X1661714Y-16698143D01*
X1518857Y-16726714D01*
X1776000Y-16812429D02*
X1804571Y-16826714D01*
X1861714Y-16826714D01*
X1890286Y-16812429D01*
X1904571Y-16783857D01*
X1904571Y-16769571D01*
X1890286Y-16741000D01*
X1861714Y-16726714D01*
X1818857Y-16726714D01*
X1790286Y-16712429D01*
X1776000Y-16683857D01*
X1776000Y-16669571D01*
X1790286Y-16641000D01*
X1818857Y-16626714D01*
X1861714Y-16626714D01*
X1890286Y-16641000D01*
X2004571Y-16941000D02*
X2018857Y-16926714D01*
X2047428Y-16883857D01*
X2061714Y-16855286D01*
X2076000Y-16812429D01*
X2090286Y-16741000D01*
X2090286Y-16683857D01*
X2076000Y-16612429D01*
X2061714Y-16569571D01*
X2047428Y-16541000D01*
X2018857Y-16498143D01*
X2004571Y-16483857D01*
X-5659000Y-16927000D02*
X-5339000Y-17247000D01*
X-5339000Y-16927000D02*
X-5659000Y-17247000D01*
X-5499000Y-17247000D02*
X-5339000Y-17087000D01*
X-5499000Y-16927000D01*
X-5659000Y-17087000D01*
X-5499000Y-17247000D01*
X-5081143Y-16922714D02*
X-4895429Y-16922714D01*
X-4995429Y-17037000D01*
X-4952572Y-17037000D01*
X-4924000Y-17051286D01*
X-4909714Y-17065572D01*
X-4895429Y-17094143D01*
X-4895429Y-17165572D01*
X-4909714Y-17194143D01*
X-4924000Y-17208429D01*
X-4952572Y-17222714D01*
X-5038286Y-17222714D01*
X-5066857Y-17208429D01*
X-5081143Y-17194143D01*
X-4766857Y-17194143D02*
X-4752572Y-17208429D01*
X-4766857Y-17222714D01*
X-4781143Y-17208429D01*
X-4766857Y-17194143D01*
X-4766857Y-17222714D01*
X-4638286Y-16951286D02*
X-4624000Y-16937000D01*
X-4595429Y-16922714D01*
X-4524000Y-16922714D01*
X-4495429Y-16937000D01*
X-4481143Y-16951286D01*
X-4466857Y-16979857D01*
X-4466857Y-17008429D01*
X-4481143Y-17051286D01*
X-4652572Y-17222714D01*
X-4466857Y-17222714D01*
X-4281143Y-16922714D02*
X-4252572Y-16922714D01*
X-4224000Y-16937000D01*
X-4209714Y-16951286D01*
X-4195429Y-16979857D01*
X-4181143Y-17037000D01*
X-4181143Y-17108429D01*
X-4195429Y-17165572D01*
X-4209714Y-17194143D01*
X-4224000Y-17208429D01*
X-4252572Y-17222714D01*
X-4281143Y-17222714D01*
X-4309714Y-17208429D01*
X-4324000Y-17194143D01*
X-4338286Y-17165572D01*
X-4352572Y-17108429D01*
X-4352572Y-17037000D01*
X-4338286Y-16979857D01*
X-4324000Y-16951286D01*
X-4309714Y-16937000D01*
X-4281143Y-16922714D01*
X-3995429Y-16922714D02*
X-3966857Y-16922714D01*
X-3938286Y-16937000D01*
X-3924000Y-16951286D01*
X-3909714Y-16979857D01*
X-3895429Y-17037000D01*
X-3895429Y-17108429D01*
X-3909714Y-17165572D01*
X-3924000Y-17194143D01*
X-3938286Y-17208429D01*
X-3966857Y-17222714D01*
X-3995429Y-17222714D01*
X-4024000Y-17208429D01*
X-4038286Y-17194143D01*
X-4052571Y-17165572D01*
X-4066857Y-17108429D01*
X-4066857Y-17037000D01*
X-4052571Y-16979857D01*
X-4038286Y-16951286D01*
X-4024000Y-16937000D01*
X-3995429Y-16922714D01*
X-3766857Y-17222714D02*
X-3766857Y-17022714D01*
X-3766857Y-17051286D02*
X-3752571Y-17037000D01*
X-3724000Y-17022714D01*
X-3681143Y-17022714D01*
X-3652571Y-17037000D01*
X-3638286Y-17065572D01*
X-3638286Y-17222714D01*
X-3638286Y-17065572D02*
X-3624000Y-17037000D01*
X-3595429Y-17022714D01*
X-3552571Y-17022714D01*
X-3524000Y-17037000D01*
X-3509714Y-17065572D01*
X-3509714Y-17222714D01*
X-3366857Y-17222714D02*
X-3366857Y-17022714D01*
X-3366857Y-17051286D02*
X-3352571Y-17037000D01*
X-3324000Y-17022714D01*
X-3281143Y-17022714D01*
X-3252571Y-17037000D01*
X-3238286Y-17065572D01*
X-3238286Y-17222714D01*
X-3238286Y-17065572D02*
X-3224000Y-17037000D01*
X-3195429Y-17022714D01*
X-3152571Y-17022714D01*
X-3124000Y-17037000D01*
X-3109714Y-17065572D01*
X-3109714Y-17222714D01*
X-2524000Y-16908429D02*
X-2781143Y-17294143D01*
X-2138286Y-16922714D02*
X-2109714Y-16922714D01*
X-2081143Y-16937000D01*
X-2066857Y-16951286D01*
X-2052571Y-16979857D01*
X-2038286Y-17037000D01*
X-2038286Y-17108429D01*
X-2052571Y-17165572D01*
X-2066857Y-17194143D01*
X-2081143Y-17208429D01*
X-2109714Y-17222714D01*
X-2138286Y-17222714D01*
X-2166857Y-17208429D01*
X-2181143Y-17194143D01*
X-2195429Y-17165572D01*
X-2209714Y-17108429D01*
X-2209714Y-17037000D01*
X-2195429Y-16979857D01*
X-2181143Y-16951286D01*
X-2166857Y-16937000D01*
X-2138286Y-16922714D01*
X-1909714Y-17194143D02*
X-1895429Y-17208429D01*
X-1909714Y-17222714D01*
X-1924000Y-17208429D01*
X-1909714Y-17194143D01*
X-1909714Y-17222714D01*
X-1609714Y-17222714D02*
X-1781143Y-17222714D01*
X-1695429Y-17222714D02*
X-1695429Y-16922714D01*
X-1724000Y-16965572D01*
X-1752571Y-16994143D01*
X-1781143Y-17008429D01*
X-1495429Y-16951286D02*
X-1481143Y-16937000D01*
X-1452571Y-16922714D01*
X-1381143Y-16922714D01*
X-1352572Y-16937000D01*
X-1338286Y-16951286D01*
X-1324000Y-16979857D01*
X-1324000Y-17008429D01*
X-1338286Y-17051286D01*
X-1509714Y-17222714D01*
X-1324000Y-17222714D01*
X-1066857Y-16922714D02*
X-1124000Y-16922714D01*
X-1152572Y-16937000D01*
X-1166857Y-16951286D01*
X-1195429Y-16994143D01*
X-1209714Y-17051286D01*
X-1209714Y-17165572D01*
X-1195429Y-17194143D01*
X-1181143Y-17208429D01*
X-1152572Y-17222714D01*
X-1095429Y-17222714D01*
X-1066857Y-17208429D01*
X-1052572Y-17194143D01*
X-1038286Y-17165572D01*
X-1038286Y-17094143D01*
X-1052572Y-17065572D01*
X-1066857Y-17051286D01*
X-1095429Y-17037000D01*
X-1152572Y-17037000D01*
X-1181143Y-17051286D01*
X-1195429Y-17065572D01*
X-1209714Y-17094143D01*
X-852571Y-16922714D02*
X-824000Y-16922714D01*
X-795429Y-16937000D01*
X-781143Y-16951286D01*
X-766857Y-16979857D01*
X-752571Y-17037000D01*
X-752571Y-17108429D01*
X-766857Y-17165572D01*
X-781143Y-17194143D01*
X-795429Y-17208429D01*
X-824000Y-17222714D01*
X-852571Y-17222714D01*
X-881143Y-17208429D01*
X-895429Y-17194143D01*
X-909714Y-17165572D01*
X-924000Y-17108429D01*
X-924000Y-17037000D01*
X-909714Y-16979857D01*
X-895429Y-16951286D01*
X-881143Y-16937000D01*
X-852571Y-16922714D01*
X-638286Y-16922714D02*
X-638286Y-16979857D01*
X-524000Y-16922714D02*
X-524000Y-16979857D01*
X-81143Y-17337000D02*
X-95429Y-17322714D01*
X-124000Y-17279857D01*
X-138286Y-17251286D01*
X-152572Y-17208429D01*
X-166857Y-17137000D01*
X-166857Y-17079857D01*
X-152572Y-17008429D01*
X-138286Y-16965572D01*
X-124000Y-16937000D01*
X-95429Y-16894143D01*
X-81143Y-16879857D01*
X190286Y-17222714D02*
X18857Y-17222714D01*
X104571Y-17222714D02*
X104571Y-16922714D01*
X76000Y-16965572D01*
X47428Y-16994143D01*
X18857Y-17008429D01*
X290286Y-16922714D02*
X476000Y-16922714D01*
X376000Y-17037000D01*
X418857Y-17037000D01*
X447428Y-17051286D01*
X461714Y-17065572D01*
X476000Y-17094143D01*
X476000Y-17165572D01*
X461714Y-17194143D01*
X447428Y-17208429D01*
X418857Y-17222714D01*
X333143Y-17222714D01*
X304571Y-17208429D01*
X290286Y-17194143D01*
X833143Y-17222714D02*
X833143Y-16922714D01*
X961714Y-17222714D02*
X961714Y-17065572D01*
X947428Y-17037000D01*
X918857Y-17022714D01*
X876000Y-17022714D01*
X847428Y-17037000D01*
X833143Y-17051286D01*
X1147428Y-17222714D02*
X1118857Y-17208429D01*
X1104571Y-17194143D01*
X1090286Y-17165572D01*
X1090286Y-17079857D01*
X1104571Y-17051286D01*
X1118857Y-17037000D01*
X1147428Y-17022714D01*
X1190286Y-17022714D01*
X1218857Y-17037000D01*
X1233143Y-17051286D01*
X1247428Y-17079857D01*
X1247428Y-17165572D01*
X1233143Y-17194143D01*
X1218857Y-17208429D01*
X1190286Y-17222714D01*
X1147428Y-17222714D01*
X1418857Y-17222714D02*
X1390286Y-17208429D01*
X1376000Y-17179857D01*
X1376000Y-16922714D01*
X1647428Y-17208429D02*
X1618857Y-17222714D01*
X1561714Y-17222714D01*
X1533143Y-17208429D01*
X1518857Y-17179857D01*
X1518857Y-17065572D01*
X1533143Y-17037000D01*
X1561714Y-17022714D01*
X1618857Y-17022714D01*
X1647428Y-17037000D01*
X1661714Y-17065572D01*
X1661714Y-17094143D01*
X1518857Y-17122714D01*
X1776000Y-17208429D02*
X1804571Y-17222714D01*
X1861714Y-17222714D01*
X1890286Y-17208429D01*
X1904571Y-17179857D01*
X1904571Y-17165572D01*
X1890286Y-17137000D01*
X1861714Y-17122714D01*
X1818857Y-17122714D01*
X1790286Y-17108429D01*
X1776000Y-17079857D01*
X1776000Y-17065572D01*
X1790286Y-17037000D01*
X1818857Y-17022714D01*
X1861714Y-17022714D01*
X1890286Y-17037000D01*
X2004571Y-17337000D02*
X2018857Y-17322714D01*
X2047428Y-17279857D01*
X2061714Y-17251286D01*
X2076000Y-17208429D01*
X2090286Y-17137000D01*
X2090286Y-17079857D01*
X2076000Y-17008429D01*
X2061714Y-16965572D01*
X2047428Y-16937000D01*
X2018857Y-16894143D01*
X2004571Y-16879857D01*
X-5499000Y-17377000D02*
X-5499000Y-17697000D01*
X-5659000Y-17537000D02*
X-5339000Y-17537000D01*
X-5339000Y-17537000D02*
G75*
G03*
X-5339000Y-17537000I-160000J0D01*
G01*
X-5081143Y-17372714D02*
X-4895429Y-17372714D01*
X-4995429Y-17487000D01*
X-4952572Y-17487000D01*
X-4924000Y-17501286D01*
X-4909714Y-17515572D01*
X-4895429Y-17544143D01*
X-4895429Y-17615572D01*
X-4909714Y-17644143D01*
X-4924000Y-17658429D01*
X-4952572Y-17672714D01*
X-5038286Y-17672714D01*
X-5066857Y-17658429D01*
X-5081143Y-17644143D01*
X-4766857Y-17644143D02*
X-4752572Y-17658429D01*
X-4766857Y-17672714D01*
X-4781143Y-17658429D01*
X-4766857Y-17644143D01*
X-4766857Y-17672714D01*
X-4638286Y-17401286D02*
X-4624000Y-17387000D01*
X-4595429Y-17372714D01*
X-4524000Y-17372714D01*
X-4495429Y-17387000D01*
X-4481143Y-17401286D01*
X-4466857Y-17429857D01*
X-4466857Y-17458429D01*
X-4481143Y-17501286D01*
X-4652572Y-17672714D01*
X-4466857Y-17672714D01*
X-4281143Y-17372714D02*
X-4252572Y-17372714D01*
X-4224000Y-17387000D01*
X-4209714Y-17401286D01*
X-4195429Y-17429857D01*
X-4181143Y-17487000D01*
X-4181143Y-17558429D01*
X-4195429Y-17615572D01*
X-4209714Y-17644143D01*
X-4224000Y-17658429D01*
X-4252572Y-17672714D01*
X-4281143Y-17672714D01*
X-4309714Y-17658429D01*
X-4324000Y-17644143D01*
X-4338286Y-17615572D01*
X-4352572Y-17558429D01*
X-4352572Y-17487000D01*
X-4338286Y-17429857D01*
X-4324000Y-17401286D01*
X-4309714Y-17387000D01*
X-4281143Y-17372714D01*
X-3995429Y-17372714D02*
X-3966857Y-17372714D01*
X-3938286Y-17387000D01*
X-3924000Y-17401286D01*
X-3909714Y-17429857D01*
X-3895429Y-17487000D01*
X-3895429Y-17558429D01*
X-3909714Y-17615572D01*
X-3924000Y-17644143D01*
X-3938286Y-17658429D01*
X-3966857Y-17672714D01*
X-3995429Y-17672714D01*
X-4024000Y-17658429D01*
X-4038286Y-17644143D01*
X-4052571Y-17615572D01*
X-4066857Y-17558429D01*
X-4066857Y-17487000D01*
X-4052571Y-17429857D01*
X-4038286Y-17401286D01*
X-4024000Y-17387000D01*
X-3995429Y-17372714D01*
X-3766857Y-17672714D02*
X-3766857Y-17472714D01*
X-3766857Y-17501286D02*
X-3752571Y-17487000D01*
X-3724000Y-17472714D01*
X-3681143Y-17472714D01*
X-3652571Y-17487000D01*
X-3638286Y-17515572D01*
X-3638286Y-17672714D01*
X-3638286Y-17515572D02*
X-3624000Y-17487000D01*
X-3595429Y-17472714D01*
X-3552571Y-17472714D01*
X-3524000Y-17487000D01*
X-3509714Y-17515572D01*
X-3509714Y-17672714D01*
X-3366857Y-17672714D02*
X-3366857Y-17472714D01*
X-3366857Y-17501286D02*
X-3352571Y-17487000D01*
X-3324000Y-17472714D01*
X-3281143Y-17472714D01*
X-3252571Y-17487000D01*
X-3238286Y-17515572D01*
X-3238286Y-17672714D01*
X-3238286Y-17515572D02*
X-3224000Y-17487000D01*
X-3195429Y-17472714D01*
X-3152571Y-17472714D01*
X-3124000Y-17487000D01*
X-3109714Y-17515572D01*
X-3109714Y-17672714D01*
X-2524000Y-17358429D02*
X-2781143Y-17744143D01*
X-2138286Y-17372714D02*
X-2109714Y-17372714D01*
X-2081143Y-17387000D01*
X-2066857Y-17401286D01*
X-2052571Y-17429857D01*
X-2038286Y-17487000D01*
X-2038286Y-17558429D01*
X-2052571Y-17615572D01*
X-2066857Y-17644143D01*
X-2081143Y-17658429D01*
X-2109714Y-17672714D01*
X-2138286Y-17672714D01*
X-2166857Y-17658429D01*
X-2181143Y-17644143D01*
X-2195429Y-17615572D01*
X-2209714Y-17558429D01*
X-2209714Y-17487000D01*
X-2195429Y-17429857D01*
X-2181143Y-17401286D01*
X-2166857Y-17387000D01*
X-2138286Y-17372714D01*
X-1909714Y-17644143D02*
X-1895429Y-17658429D01*
X-1909714Y-17672714D01*
X-1924000Y-17658429D01*
X-1909714Y-17644143D01*
X-1909714Y-17672714D01*
X-1609714Y-17672714D02*
X-1781143Y-17672714D01*
X-1695429Y-17672714D02*
X-1695429Y-17372714D01*
X-1724000Y-17415572D01*
X-1752571Y-17444143D01*
X-1781143Y-17458429D01*
X-1495429Y-17401286D02*
X-1481143Y-17387000D01*
X-1452571Y-17372714D01*
X-1381143Y-17372714D01*
X-1352572Y-17387000D01*
X-1338286Y-17401286D01*
X-1324000Y-17429857D01*
X-1324000Y-17458429D01*
X-1338286Y-17501286D01*
X-1509714Y-17672714D01*
X-1324000Y-17672714D01*
X-1066857Y-17372714D02*
X-1124000Y-17372714D01*
X-1152572Y-17387000D01*
X-1166857Y-17401286D01*
X-1195429Y-17444143D01*
X-1209714Y-17501286D01*
X-1209714Y-17615572D01*
X-1195429Y-17644143D01*
X-1181143Y-17658429D01*
X-1152572Y-17672714D01*
X-1095429Y-17672714D01*
X-1066857Y-17658429D01*
X-1052572Y-17644143D01*
X-1038286Y-17615572D01*
X-1038286Y-17544143D01*
X-1052572Y-17515572D01*
X-1066857Y-17501286D01*
X-1095429Y-17487000D01*
X-1152572Y-17487000D01*
X-1181143Y-17501286D01*
X-1195429Y-17515572D01*
X-1209714Y-17544143D01*
X-852571Y-17372714D02*
X-824000Y-17372714D01*
X-795429Y-17387000D01*
X-781143Y-17401286D01*
X-766857Y-17429857D01*
X-752571Y-17487000D01*
X-752571Y-17558429D01*
X-766857Y-17615572D01*
X-781143Y-17644143D01*
X-795429Y-17658429D01*
X-824000Y-17672714D01*
X-852571Y-17672714D01*
X-881143Y-17658429D01*
X-895429Y-17644143D01*
X-909714Y-17615572D01*
X-924000Y-17558429D01*
X-924000Y-17487000D01*
X-909714Y-17429857D01*
X-895429Y-17401286D01*
X-881143Y-17387000D01*
X-852571Y-17372714D01*
X-638286Y-17372714D02*
X-638286Y-17429857D01*
X-524000Y-17372714D02*
X-524000Y-17429857D01*
X-81143Y-17787000D02*
X-95429Y-17772714D01*
X-124000Y-17729857D01*
X-138286Y-17701286D01*
X-152572Y-17658429D01*
X-166857Y-17587000D01*
X-166857Y-17529857D01*
X-152572Y-17458429D01*
X-138286Y-17415572D01*
X-124000Y-17387000D01*
X-95429Y-17344143D01*
X-81143Y-17329857D01*
X190286Y-17672714D02*
X18857Y-17672714D01*
X104571Y-17672714D02*
X104571Y-17372714D01*
X76000Y-17415572D01*
X47428Y-17444143D01*
X18857Y-17458429D01*
X547428Y-17672714D02*
X547428Y-17372714D01*
X676000Y-17672714D02*
X676000Y-17515572D01*
X661714Y-17487000D01*
X633143Y-17472714D01*
X590286Y-17472714D01*
X561714Y-17487000D01*
X547428Y-17501286D01*
X861714Y-17672714D02*
X833143Y-17658429D01*
X818857Y-17644143D01*
X804571Y-17615572D01*
X804571Y-17529857D01*
X818857Y-17501286D01*
X833143Y-17487000D01*
X861714Y-17472714D01*
X904571Y-17472714D01*
X933143Y-17487000D01*
X947428Y-17501286D01*
X961714Y-17529857D01*
X961714Y-17615572D01*
X947428Y-17644143D01*
X933143Y-17658429D01*
X904571Y-17672714D01*
X861714Y-17672714D01*
X1133143Y-17672714D02*
X1104571Y-17658429D01*
X1090286Y-17629857D01*
X1090286Y-17372714D01*
X1361714Y-17658429D02*
X1333143Y-17672714D01*
X1276000Y-17672714D01*
X1247428Y-17658429D01*
X1233143Y-17629857D01*
X1233143Y-17515572D01*
X1247428Y-17487000D01*
X1276000Y-17472714D01*
X1333143Y-17472714D01*
X1361714Y-17487000D01*
X1376000Y-17515572D01*
X1376000Y-17544143D01*
X1233143Y-17572714D01*
X1476000Y-17787000D02*
X1490286Y-17772714D01*
X1518857Y-17729857D01*
X1533143Y-17701286D01*
X1547428Y-17658429D01*
X1561714Y-17587000D01*
X1561714Y-17529857D01*
X1547428Y-17458429D01*
X1533143Y-17415572D01*
X1518857Y-17387000D01*
X1490286Y-17344143D01*
X1476000Y-17329857D01*
M02*
