G04 #@! TF.GenerationSoftware,KiCad,Pcbnew,6.0.6-3a73a75311~116~ubuntu22.04.1*
G04 #@! TF.CreationDate,2022-07-16T14:16:27-04:00*
G04 #@! TF.ProjectId,it_is_the_champion_faceplate,69745f69-735f-4746-9865-5f6368616d70,0*
G04 #@! TF.SameCoordinates,Original*
G04 #@! TF.FileFunction,Copper,L1,Top*
G04 #@! TF.FilePolarity,Positive*
%FSLAX46Y46*%
G04 Gerber Fmt 4.6, Leading zero omitted, Abs format (unit mm)*
G04 Created by KiCad (PCBNEW 6.0.6-3a73a75311~116~ubuntu22.04.1) date 2022-07-16 14:16:27*
%MOMM*%
%LPD*%
G01*
G04 APERTURE LIST*
G04 #@! TA.AperFunction,ComponentPad*
%ADD10C,2.000000*%
G04 #@! TD*
G04 APERTURE END LIST*
D10*
X99060000Y-207772000D03*
G04 #@! TA.AperFunction,Conductor*
G36*
X498544121Y-169438002D02*
G01*
X498590614Y-169491658D01*
X498602000Y-169544000D01*
X498602000Y-238126000D01*
X498581998Y-238194121D01*
X498528342Y-238240614D01*
X498476000Y-238252000D01*
X67944000Y-238252000D01*
X67875879Y-238231998D01*
X67829386Y-238178342D01*
X67818000Y-238126000D01*
X67818000Y-209004670D01*
X98192160Y-209004670D01*
X98197887Y-209012320D01*
X98369042Y-209117205D01*
X98377837Y-209121687D01*
X98587988Y-209208734D01*
X98597373Y-209211783D01*
X98818554Y-209264885D01*
X98828301Y-209266428D01*
X99055070Y-209284275D01*
X99064930Y-209284275D01*
X99291699Y-209266428D01*
X99301446Y-209264885D01*
X99522627Y-209211783D01*
X99532012Y-209208734D01*
X99742163Y-209121687D01*
X99750958Y-209117205D01*
X99918445Y-209014568D01*
X99927907Y-209004110D01*
X99924124Y-208995334D01*
X99072812Y-208144022D01*
X99058868Y-208136408D01*
X99057035Y-208136539D01*
X99050420Y-208140790D01*
X98198920Y-208992290D01*
X98192160Y-209004670D01*
X67818000Y-209004670D01*
X67818000Y-207776930D01*
X97547725Y-207776930D01*
X97565572Y-208003699D01*
X97567115Y-208013446D01*
X97620217Y-208234627D01*
X97623266Y-208244012D01*
X97710313Y-208454163D01*
X97714795Y-208462958D01*
X97817432Y-208630445D01*
X97827890Y-208639907D01*
X97836666Y-208636124D01*
X98687978Y-207784812D01*
X98694356Y-207773132D01*
X99424408Y-207773132D01*
X99424539Y-207774965D01*
X99428790Y-207781580D01*
X100280290Y-208633080D01*
X100292670Y-208639840D01*
X100300320Y-208634113D01*
X100405205Y-208462958D01*
X100409687Y-208454163D01*
X100496734Y-208244012D01*
X100499783Y-208234627D01*
X100552885Y-208013446D01*
X100554428Y-208003699D01*
X100572275Y-207776930D01*
X100572275Y-207767070D01*
X100554428Y-207540301D01*
X100552885Y-207530554D01*
X100499783Y-207309373D01*
X100496734Y-207299988D01*
X100409687Y-207089837D01*
X100405205Y-207081042D01*
X100302568Y-206913555D01*
X100292110Y-206904093D01*
X100283334Y-206907876D01*
X99432022Y-207759188D01*
X99424408Y-207773132D01*
X98694356Y-207773132D01*
X98695592Y-207770868D01*
X98695461Y-207769035D01*
X98691210Y-207762420D01*
X97839710Y-206910920D01*
X97827330Y-206904160D01*
X97819680Y-206909887D01*
X97714795Y-207081042D01*
X97710313Y-207089837D01*
X97623266Y-207299988D01*
X97620217Y-207309373D01*
X97567115Y-207530554D01*
X97565572Y-207540301D01*
X97547725Y-207767070D01*
X97547725Y-207776930D01*
X67818000Y-207776930D01*
X67818000Y-200891551D01*
X93535368Y-200891551D01*
X93535588Y-200894170D01*
X93535588Y-200894172D01*
X93537042Y-200911482D01*
X93574120Y-201353028D01*
X93651350Y-201809644D01*
X93652005Y-201812194D01*
X93652006Y-201812200D01*
X93752955Y-202205367D01*
X93766519Y-202258196D01*
X93918818Y-202695538D01*
X94107178Y-203118602D01*
X94330279Y-203524421D01*
X94586555Y-203910148D01*
X94874209Y-204273077D01*
X95191224Y-204610664D01*
X95535376Y-204920539D01*
X95537460Y-204922121D01*
X95537465Y-204922125D01*
X95861907Y-205168390D01*
X95904250Y-205200530D01*
X95906484Y-205201948D01*
X95906493Y-205201954D01*
X96220567Y-205401271D01*
X96295259Y-205448672D01*
X96297586Y-205449888D01*
X96297592Y-205449892D01*
X96703323Y-205662003D01*
X96703328Y-205662005D01*
X96705661Y-205663225D01*
X97132577Y-205842684D01*
X97135085Y-205843499D01*
X97135088Y-205843500D01*
X97570498Y-205984973D01*
X97570502Y-205984974D01*
X97573013Y-205985790D01*
X97815551Y-206042677D01*
X98021310Y-206090938D01*
X98021317Y-206090939D01*
X98023878Y-206091540D01*
X98422509Y-206150404D01*
X98486976Y-206180142D01*
X98525132Y-206240014D01*
X98524862Y-206311010D01*
X98486251Y-206370590D01*
X98452321Y-206391461D01*
X98377833Y-206422315D01*
X98369042Y-206426795D01*
X98201555Y-206529432D01*
X98192093Y-206539890D01*
X98195876Y-206548666D01*
X99047188Y-207399978D01*
X99061132Y-207407592D01*
X99062965Y-207407461D01*
X99069580Y-207403210D01*
X99921080Y-206551710D01*
X99927840Y-206539330D01*
X99922113Y-206531680D01*
X99750958Y-206426795D01*
X99742163Y-206422313D01*
X99663381Y-206389681D01*
X99608100Y-206345133D01*
X99585679Y-206277770D01*
X99603237Y-206208978D01*
X99655199Y-206160600D01*
X99698428Y-206147962D01*
X99789208Y-206138420D01*
X99867763Y-206130164D01*
X100322662Y-206043387D01*
X100325194Y-206042680D01*
X100325207Y-206042677D01*
X100766166Y-205919559D01*
X100766174Y-205919556D01*
X100768704Y-205918850D01*
X100976254Y-205841663D01*
X101200287Y-205758346D01*
X101200293Y-205758343D01*
X101202760Y-205757426D01*
X101621787Y-205560247D01*
X102022845Y-205328696D01*
X102403120Y-205064398D01*
X102646107Y-204863382D01*
X102757917Y-204770885D01*
X102757923Y-204770879D01*
X102759946Y-204769206D01*
X102782839Y-204746788D01*
X103088946Y-204447025D01*
X103090819Y-204445191D01*
X103092532Y-204443206D01*
X103092539Y-204443199D01*
X103391684Y-204096635D01*
X103393419Y-204094625D01*
X103665623Y-203719969D01*
X103690591Y-203678743D01*
X103852838Y-203410839D01*
X103905522Y-203323848D01*
X104111433Y-202909043D01*
X104281912Y-202478462D01*
X104415763Y-202035126D01*
X104466573Y-201796086D01*
X104511500Y-201584718D01*
X104512047Y-201582145D01*
X104570089Y-201122695D01*
X104572544Y-201064134D01*
X104579777Y-200891551D01*
X131635368Y-200891551D01*
X131635588Y-200894170D01*
X131635588Y-200894172D01*
X131637042Y-200911482D01*
X131674120Y-201353028D01*
X131751350Y-201809644D01*
X131752005Y-201812194D01*
X131752006Y-201812200D01*
X131852955Y-202205367D01*
X131866519Y-202258196D01*
X132018818Y-202695538D01*
X132207178Y-203118602D01*
X132430279Y-203524421D01*
X132686555Y-203910148D01*
X132974209Y-204273077D01*
X133291224Y-204610664D01*
X133635376Y-204920539D01*
X133637460Y-204922121D01*
X133637465Y-204922125D01*
X133961907Y-205168390D01*
X134004250Y-205200530D01*
X134006484Y-205201948D01*
X134006493Y-205201954D01*
X134320567Y-205401271D01*
X134395259Y-205448672D01*
X134397586Y-205449888D01*
X134397592Y-205449892D01*
X134803323Y-205662003D01*
X134803328Y-205662005D01*
X134805661Y-205663225D01*
X135232577Y-205842684D01*
X135235085Y-205843499D01*
X135235088Y-205843500D01*
X135670498Y-205984973D01*
X135670502Y-205984974D01*
X135673013Y-205985790D01*
X135915551Y-206042677D01*
X136121310Y-206090938D01*
X136121317Y-206090939D01*
X136123878Y-206091540D01*
X136582012Y-206159191D01*
X136584653Y-206159357D01*
X136584661Y-206159358D01*
X136833665Y-206175023D01*
X137044199Y-206188269D01*
X137046831Y-206188214D01*
X137046838Y-206188214D01*
X137222475Y-206184535D01*
X137507199Y-206178571D01*
X137967763Y-206130164D01*
X138422662Y-206043387D01*
X138425194Y-206042680D01*
X138425207Y-206042677D01*
X138866166Y-205919559D01*
X138866174Y-205919556D01*
X138868704Y-205918850D01*
X139076254Y-205841663D01*
X139300287Y-205758346D01*
X139300293Y-205758343D01*
X139302760Y-205757426D01*
X139721787Y-205560247D01*
X140122845Y-205328696D01*
X140503120Y-205064398D01*
X140746107Y-204863382D01*
X140857917Y-204770885D01*
X140857923Y-204770879D01*
X140859946Y-204769206D01*
X140882839Y-204746788D01*
X141188946Y-204447025D01*
X141190819Y-204445191D01*
X141192532Y-204443206D01*
X141192539Y-204443199D01*
X141491684Y-204096635D01*
X141493419Y-204094625D01*
X141765623Y-203719969D01*
X141790591Y-203678743D01*
X141952838Y-203410839D01*
X142005522Y-203323848D01*
X142211433Y-202909043D01*
X142381912Y-202478462D01*
X142515763Y-202035126D01*
X142566573Y-201796086D01*
X142611500Y-201584718D01*
X142612047Y-201582145D01*
X142670089Y-201122695D01*
X142672544Y-201064134D01*
X142679777Y-200891551D01*
X163385368Y-200891551D01*
X163385588Y-200894170D01*
X163385588Y-200894172D01*
X163387042Y-200911482D01*
X163424120Y-201353028D01*
X163501350Y-201809644D01*
X163502005Y-201812194D01*
X163502006Y-201812200D01*
X163602955Y-202205367D01*
X163616519Y-202258196D01*
X163768818Y-202695538D01*
X163957178Y-203118602D01*
X164180279Y-203524421D01*
X164436555Y-203910148D01*
X164724209Y-204273077D01*
X165041224Y-204610664D01*
X165385376Y-204920539D01*
X165387460Y-204922121D01*
X165387465Y-204922125D01*
X165711907Y-205168390D01*
X165754250Y-205200530D01*
X165756484Y-205201948D01*
X165756493Y-205201954D01*
X166070567Y-205401271D01*
X166145259Y-205448672D01*
X166147586Y-205449888D01*
X166147592Y-205449892D01*
X166553323Y-205662003D01*
X166553328Y-205662005D01*
X166555661Y-205663225D01*
X166982577Y-205842684D01*
X166985085Y-205843499D01*
X166985088Y-205843500D01*
X167420498Y-205984973D01*
X167420502Y-205984974D01*
X167423013Y-205985790D01*
X167665551Y-206042677D01*
X167871310Y-206090938D01*
X167871317Y-206090939D01*
X167873878Y-206091540D01*
X168332012Y-206159191D01*
X168334653Y-206159357D01*
X168334661Y-206159358D01*
X168583665Y-206175023D01*
X168794199Y-206188269D01*
X168796831Y-206188214D01*
X168796838Y-206188214D01*
X168972475Y-206184535D01*
X169257199Y-206178571D01*
X169717763Y-206130164D01*
X170172662Y-206043387D01*
X170175194Y-206042680D01*
X170175207Y-206042677D01*
X170616166Y-205919559D01*
X170616174Y-205919556D01*
X170618704Y-205918850D01*
X170826254Y-205841663D01*
X171050287Y-205758346D01*
X171050293Y-205758343D01*
X171052760Y-205757426D01*
X171471787Y-205560247D01*
X171872845Y-205328696D01*
X172253120Y-205064398D01*
X172496107Y-204863382D01*
X172607917Y-204770885D01*
X172607923Y-204770879D01*
X172609946Y-204769206D01*
X172632839Y-204746788D01*
X172938946Y-204447025D01*
X172940819Y-204445191D01*
X172942532Y-204443206D01*
X172942539Y-204443199D01*
X173241684Y-204096635D01*
X173243419Y-204094625D01*
X173515623Y-203719969D01*
X173540591Y-203678743D01*
X173702838Y-203410839D01*
X173755522Y-203323848D01*
X173961433Y-202909043D01*
X174131912Y-202478462D01*
X174265763Y-202035126D01*
X174316573Y-201796086D01*
X174361500Y-201584718D01*
X174362047Y-201582145D01*
X174420089Y-201122695D01*
X174422544Y-201064134D01*
X174429777Y-200891551D01*
X195135368Y-200891551D01*
X195135588Y-200894170D01*
X195135588Y-200894172D01*
X195137042Y-200911482D01*
X195174120Y-201353028D01*
X195251350Y-201809644D01*
X195252005Y-201812194D01*
X195252006Y-201812200D01*
X195352955Y-202205367D01*
X195366519Y-202258196D01*
X195518818Y-202695538D01*
X195707178Y-203118602D01*
X195930279Y-203524421D01*
X196186555Y-203910148D01*
X196474209Y-204273077D01*
X196791224Y-204610664D01*
X197135376Y-204920539D01*
X197137460Y-204922121D01*
X197137465Y-204922125D01*
X197461907Y-205168390D01*
X197504250Y-205200530D01*
X197506484Y-205201948D01*
X197506493Y-205201954D01*
X197820567Y-205401271D01*
X197895259Y-205448672D01*
X197897586Y-205449888D01*
X197897592Y-205449892D01*
X198303323Y-205662003D01*
X198303328Y-205662005D01*
X198305661Y-205663225D01*
X198732577Y-205842684D01*
X198735085Y-205843499D01*
X198735088Y-205843500D01*
X199170498Y-205984973D01*
X199170502Y-205984974D01*
X199173013Y-205985790D01*
X199415551Y-206042677D01*
X199621310Y-206090938D01*
X199621317Y-206090939D01*
X199623878Y-206091540D01*
X200082012Y-206159191D01*
X200084653Y-206159357D01*
X200084661Y-206159358D01*
X200333665Y-206175023D01*
X200544199Y-206188269D01*
X200546831Y-206188214D01*
X200546838Y-206188214D01*
X200722475Y-206184535D01*
X201007199Y-206178571D01*
X201467763Y-206130164D01*
X201922662Y-206043387D01*
X201925194Y-206042680D01*
X201925207Y-206042677D01*
X202366166Y-205919559D01*
X202366174Y-205919556D01*
X202368704Y-205918850D01*
X202576254Y-205841663D01*
X202800287Y-205758346D01*
X202800293Y-205758343D01*
X202802760Y-205757426D01*
X203221787Y-205560247D01*
X203622845Y-205328696D01*
X204003120Y-205064398D01*
X204246107Y-204863382D01*
X204357917Y-204770885D01*
X204357923Y-204770879D01*
X204359946Y-204769206D01*
X204382839Y-204746788D01*
X204688946Y-204447025D01*
X204690819Y-204445191D01*
X204692532Y-204443206D01*
X204692539Y-204443199D01*
X204991684Y-204096635D01*
X204993419Y-204094625D01*
X205265623Y-203719969D01*
X205290591Y-203678743D01*
X205452838Y-203410839D01*
X205505522Y-203323848D01*
X205711433Y-202909043D01*
X205881912Y-202478462D01*
X206015763Y-202035126D01*
X206066573Y-201796086D01*
X206111500Y-201584718D01*
X206112047Y-201582145D01*
X206170089Y-201122695D01*
X206172544Y-201064134D01*
X206179777Y-200891551D01*
X226885368Y-200891551D01*
X226885588Y-200894170D01*
X226885588Y-200894172D01*
X226887042Y-200911482D01*
X226924120Y-201353028D01*
X227001350Y-201809644D01*
X227002005Y-201812194D01*
X227002006Y-201812200D01*
X227102955Y-202205367D01*
X227116519Y-202258196D01*
X227268818Y-202695538D01*
X227457178Y-203118602D01*
X227680279Y-203524421D01*
X227936555Y-203910148D01*
X228224209Y-204273077D01*
X228541224Y-204610664D01*
X228885376Y-204920539D01*
X228887460Y-204922121D01*
X228887465Y-204922125D01*
X229211907Y-205168390D01*
X229254250Y-205200530D01*
X229256484Y-205201948D01*
X229256493Y-205201954D01*
X229570567Y-205401271D01*
X229645259Y-205448672D01*
X229647586Y-205449888D01*
X229647592Y-205449892D01*
X230053323Y-205662003D01*
X230053328Y-205662005D01*
X230055661Y-205663225D01*
X230482577Y-205842684D01*
X230485085Y-205843499D01*
X230485088Y-205843500D01*
X230920498Y-205984973D01*
X230920502Y-205984974D01*
X230923013Y-205985790D01*
X231165551Y-206042677D01*
X231371310Y-206090938D01*
X231371317Y-206090939D01*
X231373878Y-206091540D01*
X231832012Y-206159191D01*
X231834653Y-206159357D01*
X231834661Y-206159358D01*
X232083665Y-206175023D01*
X232294199Y-206188269D01*
X232296831Y-206188214D01*
X232296838Y-206188214D01*
X232472475Y-206184535D01*
X232757199Y-206178571D01*
X233217763Y-206130164D01*
X233672662Y-206043387D01*
X233675194Y-206042680D01*
X233675207Y-206042677D01*
X234116166Y-205919559D01*
X234116174Y-205919556D01*
X234118704Y-205918850D01*
X234326254Y-205841663D01*
X234550287Y-205758346D01*
X234550293Y-205758343D01*
X234552760Y-205757426D01*
X234971787Y-205560247D01*
X235372845Y-205328696D01*
X235753120Y-205064398D01*
X235996107Y-204863382D01*
X236107917Y-204770885D01*
X236107923Y-204770879D01*
X236109946Y-204769206D01*
X236132839Y-204746788D01*
X236438946Y-204447025D01*
X236440819Y-204445191D01*
X236442532Y-204443206D01*
X236442539Y-204443199D01*
X236741684Y-204096635D01*
X236743419Y-204094625D01*
X237015623Y-203719969D01*
X237040591Y-203678743D01*
X237202838Y-203410839D01*
X237255522Y-203323848D01*
X237461433Y-202909043D01*
X237631912Y-202478462D01*
X237765763Y-202035126D01*
X237816573Y-201796086D01*
X237861500Y-201584718D01*
X237862047Y-201582145D01*
X237920089Y-201122695D01*
X237922544Y-201064134D01*
X237929777Y-200891551D01*
X258635368Y-200891551D01*
X258635588Y-200894170D01*
X258635588Y-200894172D01*
X258637042Y-200911482D01*
X258674120Y-201353028D01*
X258751350Y-201809644D01*
X258752005Y-201812194D01*
X258752006Y-201812200D01*
X258852955Y-202205367D01*
X258866519Y-202258196D01*
X259018818Y-202695538D01*
X259207178Y-203118602D01*
X259430279Y-203524421D01*
X259686555Y-203910148D01*
X259974209Y-204273077D01*
X260291224Y-204610664D01*
X260635376Y-204920539D01*
X260637460Y-204922121D01*
X260637465Y-204922125D01*
X260961907Y-205168390D01*
X261004250Y-205200530D01*
X261006484Y-205201948D01*
X261006493Y-205201954D01*
X261320567Y-205401271D01*
X261395259Y-205448672D01*
X261397586Y-205449888D01*
X261397592Y-205449892D01*
X261803323Y-205662003D01*
X261803328Y-205662005D01*
X261805661Y-205663225D01*
X262232577Y-205842684D01*
X262235085Y-205843499D01*
X262235088Y-205843500D01*
X262670498Y-205984973D01*
X262670502Y-205984974D01*
X262673013Y-205985790D01*
X262915551Y-206042677D01*
X263121310Y-206090938D01*
X263121317Y-206090939D01*
X263123878Y-206091540D01*
X263582012Y-206159191D01*
X263584653Y-206159357D01*
X263584661Y-206159358D01*
X263833665Y-206175023D01*
X264044199Y-206188269D01*
X264046831Y-206188214D01*
X264046838Y-206188214D01*
X264222475Y-206184535D01*
X264507199Y-206178571D01*
X264967763Y-206130164D01*
X265422662Y-206043387D01*
X265425194Y-206042680D01*
X265425207Y-206042677D01*
X265866166Y-205919559D01*
X265866174Y-205919556D01*
X265868704Y-205918850D01*
X266076254Y-205841663D01*
X266300287Y-205758346D01*
X266300293Y-205758343D01*
X266302760Y-205757426D01*
X266721787Y-205560247D01*
X267122845Y-205328696D01*
X267503120Y-205064398D01*
X267746107Y-204863382D01*
X267857917Y-204770885D01*
X267857923Y-204770879D01*
X267859946Y-204769206D01*
X267882839Y-204746788D01*
X268188946Y-204447025D01*
X268190819Y-204445191D01*
X268192532Y-204443206D01*
X268192539Y-204443199D01*
X268491684Y-204096635D01*
X268493419Y-204094625D01*
X268765623Y-203719969D01*
X268790591Y-203678743D01*
X268952838Y-203410839D01*
X269005522Y-203323848D01*
X269211433Y-202909043D01*
X269381912Y-202478462D01*
X269515763Y-202035126D01*
X269566573Y-201796086D01*
X269611500Y-201584718D01*
X269612047Y-201582145D01*
X269670089Y-201122695D01*
X269672544Y-201064134D01*
X269689371Y-200662648D01*
X269689482Y-200660000D01*
X269684256Y-200535325D01*
X430848836Y-200535325D01*
X430850882Y-200646938D01*
X430856602Y-200959058D01*
X430856901Y-200961833D01*
X430896985Y-201333831D01*
X430902005Y-201380424D01*
X430984686Y-201796086D01*
X430985469Y-201798756D01*
X430985472Y-201798767D01*
X430988663Y-201809644D01*
X431103988Y-202202753D01*
X431105015Y-202205366D01*
X431105015Y-202205367D01*
X431242021Y-202554068D01*
X431258969Y-202597204D01*
X431260224Y-202599715D01*
X431414787Y-202909043D01*
X431448401Y-202976316D01*
X431670784Y-203337088D01*
X431924357Y-203676664D01*
X431926218Y-203678742D01*
X431926219Y-203678743D01*
X432176766Y-203958473D01*
X432207112Y-203992354D01*
X432209149Y-203994257D01*
X432209156Y-203994264D01*
X432318744Y-204096635D01*
X432516811Y-204281658D01*
X432519007Y-204283371D01*
X432519011Y-204283374D01*
X432600340Y-204346801D01*
X432851002Y-204542287D01*
X432953918Y-204608739D01*
X433204694Y-204770664D01*
X433204702Y-204770669D01*
X433207038Y-204772177D01*
X433582100Y-204969507D01*
X433584693Y-204970589D01*
X433970635Y-205131636D01*
X433970640Y-205131638D01*
X433973219Y-205132714D01*
X433975885Y-205133557D01*
X433975890Y-205133559D01*
X434086025Y-205168390D01*
X434377298Y-205260508D01*
X434380028Y-205261111D01*
X434380029Y-205261111D01*
X434788401Y-205351271D01*
X434791137Y-205351875D01*
X434793911Y-205352233D01*
X434793912Y-205352233D01*
X435208689Y-205405735D01*
X435208699Y-205405736D01*
X435211460Y-205406092D01*
X435214247Y-205406202D01*
X435214253Y-205406202D01*
X435460495Y-205415877D01*
X435634938Y-205422731D01*
X435637730Y-205422592D01*
X435637735Y-205422592D01*
X436055415Y-205401799D01*
X436055424Y-205401798D01*
X436058219Y-205401659D01*
X436060996Y-205401271D01*
X436060998Y-205401271D01*
X436135023Y-205390933D01*
X436477951Y-205343043D01*
X436480661Y-205342415D01*
X436480671Y-205342413D01*
X436722223Y-205286423D01*
X436890810Y-205247347D01*
X437237919Y-205133559D01*
X437290876Y-205116199D01*
X437290882Y-205116197D01*
X437293529Y-205115329D01*
X437630421Y-204970589D01*
X437680343Y-204949141D01*
X437680345Y-204949140D01*
X437682917Y-204948035D01*
X438055892Y-204746788D01*
X438409501Y-204513183D01*
X438740944Y-204249069D01*
X439047597Y-203956537D01*
X439252174Y-203723261D01*
X439325180Y-203640014D01*
X439325183Y-203640010D01*
X439327031Y-203637903D01*
X439330833Y-203632700D01*
X439575385Y-203297948D01*
X439577034Y-203295691D01*
X439682259Y-203120914D01*
X439794176Y-202935021D01*
X439794181Y-202935012D01*
X439795627Y-202932610D01*
X439981078Y-202551534D01*
X440131920Y-202155482D01*
X440246958Y-201747589D01*
X440247474Y-201744846D01*
X440324765Y-201333831D01*
X440324767Y-201333819D01*
X440325281Y-201331084D01*
X440345787Y-201120049D01*
X440366054Y-200911482D01*
X440366055Y-200911470D01*
X440366269Y-200909265D01*
X440372796Y-200660000D01*
X440353940Y-200236615D01*
X440349016Y-200199951D01*
X440317375Y-199964383D01*
X440297523Y-199816582D01*
X440203990Y-199403226D01*
X440165878Y-199284874D01*
X440074936Y-199002471D01*
X440074083Y-198999822D01*
X440008128Y-198844062D01*
X439909920Y-198612137D01*
X439909920Y-198612136D01*
X439908830Y-198609563D01*
X439863448Y-198524390D01*
X439710861Y-198238021D01*
X439710861Y-198238020D01*
X439709539Y-198235540D01*
X439523140Y-197950149D01*
X439479329Y-197883071D01*
X439479326Y-197883067D01*
X439477788Y-197880712D01*
X439215413Y-197547891D01*
X438924491Y-197239711D01*
X438607325Y-196958612D01*
X438266426Y-196706821D01*
X438075559Y-196590544D01*
X437906883Y-196487785D01*
X437906876Y-196487781D01*
X437904494Y-196486330D01*
X437783222Y-196426525D01*
X437526907Y-196300125D01*
X437524395Y-196298886D01*
X437129138Y-196145972D01*
X437042580Y-196121070D01*
X436724534Y-196029571D01*
X436724528Y-196029569D01*
X436721853Y-196028800D01*
X436719117Y-196028271D01*
X436719110Y-196028269D01*
X436308511Y-195948829D01*
X436308501Y-195948827D01*
X436305764Y-195948298D01*
X435884166Y-195905102D01*
X435881374Y-195905065D01*
X435881366Y-195905065D01*
X435622847Y-195901681D01*
X435460397Y-195899554D01*
X435457597Y-195899767D01*
X435457596Y-195899767D01*
X435383715Y-195905387D01*
X435037813Y-195931699D01*
X434619759Y-196001283D01*
X434532957Y-196023812D01*
X434212264Y-196107047D01*
X434212253Y-196107050D01*
X434209546Y-196107753D01*
X434082105Y-196153258D01*
X433813064Y-196249323D01*
X433813059Y-196249325D01*
X433810421Y-196250267D01*
X433807881Y-196251438D01*
X433807876Y-196251440D01*
X433704958Y-196298886D01*
X433425546Y-196427697D01*
X433057966Y-196638638D01*
X433055674Y-196640240D01*
X433055666Y-196640245D01*
X432956811Y-196709336D01*
X432710594Y-196881420D01*
X432386178Y-197154120D01*
X432087288Y-197454579D01*
X431816290Y-197780418D01*
X431814696Y-197782725D01*
X431814694Y-197782727D01*
X431665549Y-197998523D01*
X431575331Y-198129057D01*
X431366318Y-198497736D01*
X431365157Y-198500290D01*
X431192062Y-198880989D01*
X431192057Y-198881000D01*
X431190905Y-198883535D01*
X431050483Y-199283401D01*
X431049792Y-199286121D01*
X431049791Y-199286125D01*
X430985064Y-199540989D01*
X430946162Y-199694165D01*
X430878768Y-200112578D01*
X430848836Y-200535325D01*
X269684256Y-200535325D01*
X269670089Y-200197305D01*
X269612047Y-199737855D01*
X269550346Y-199447575D01*
X269516309Y-199287441D01*
X269516307Y-199287433D01*
X269515763Y-199284874D01*
X269381912Y-198841538D01*
X269211433Y-198410957D01*
X269005522Y-197996152D01*
X268866233Y-197766158D01*
X268766989Y-197602286D01*
X268766985Y-197602280D01*
X268765623Y-197600031D01*
X268493419Y-197225375D01*
X268433627Y-197156105D01*
X268192539Y-196876801D01*
X268192532Y-196876794D01*
X268190819Y-196874809D01*
X267859946Y-196550794D01*
X267857923Y-196549121D01*
X267857917Y-196549115D01*
X267539166Y-196285422D01*
X267503120Y-196255602D01*
X267122845Y-195991304D01*
X266721787Y-195759753D01*
X266302760Y-195562574D01*
X266300293Y-195561657D01*
X266300287Y-195561654D01*
X265871164Y-195402065D01*
X265868704Y-195401150D01*
X265866174Y-195400444D01*
X265866166Y-195400441D01*
X265425207Y-195277323D01*
X265425194Y-195277320D01*
X265422662Y-195276613D01*
X264967763Y-195189836D01*
X264507199Y-195141429D01*
X264222475Y-195135465D01*
X264046838Y-195131786D01*
X264046831Y-195131786D01*
X264044199Y-195131731D01*
X263833665Y-195144977D01*
X263584661Y-195160642D01*
X263584653Y-195160643D01*
X263582012Y-195160809D01*
X263123878Y-195228460D01*
X263121317Y-195229061D01*
X263121310Y-195229062D01*
X262945561Y-195270284D01*
X262673013Y-195334210D01*
X262670502Y-195335026D01*
X262670498Y-195335027D01*
X262469174Y-195400441D01*
X262232577Y-195477316D01*
X261805661Y-195656775D01*
X261803328Y-195657995D01*
X261803323Y-195657997D01*
X261397592Y-195870108D01*
X261397586Y-195870112D01*
X261395259Y-195871328D01*
X261393031Y-195872742D01*
X261006493Y-196118046D01*
X261006484Y-196118052D01*
X261004250Y-196119470D01*
X261002143Y-196121069D01*
X261002142Y-196121070D01*
X260769212Y-196297874D01*
X260635376Y-196399461D01*
X260291224Y-196709336D01*
X259974209Y-197046923D01*
X259686555Y-197409852D01*
X259518627Y-197662604D01*
X259436528Y-197786174D01*
X259430279Y-197795579D01*
X259207178Y-198201398D01*
X259018818Y-198624462D01*
X258866519Y-199061804D01*
X258751350Y-199510356D01*
X258674120Y-199966972D01*
X258673900Y-199969595D01*
X258637058Y-200408329D01*
X258635368Y-200428449D01*
X258635368Y-200891551D01*
X237929777Y-200891551D01*
X237939371Y-200662648D01*
X237939482Y-200660000D01*
X237920089Y-200197305D01*
X237862047Y-199737855D01*
X237800346Y-199447575D01*
X237766309Y-199287441D01*
X237766307Y-199287433D01*
X237765763Y-199284874D01*
X237631912Y-198841538D01*
X237461433Y-198410957D01*
X237255522Y-197996152D01*
X237116233Y-197766158D01*
X237016989Y-197602286D01*
X237016985Y-197602280D01*
X237015623Y-197600031D01*
X236743419Y-197225375D01*
X236683627Y-197156105D01*
X236442539Y-196876801D01*
X236442532Y-196876794D01*
X236440819Y-196874809D01*
X236109946Y-196550794D01*
X236107923Y-196549121D01*
X236107917Y-196549115D01*
X235789166Y-196285422D01*
X235753120Y-196255602D01*
X235372845Y-195991304D01*
X234971787Y-195759753D01*
X234552760Y-195562574D01*
X234550293Y-195561657D01*
X234550287Y-195561654D01*
X234121164Y-195402065D01*
X234118704Y-195401150D01*
X234116174Y-195400444D01*
X234116166Y-195400441D01*
X233675207Y-195277323D01*
X233675194Y-195277320D01*
X233672662Y-195276613D01*
X233217763Y-195189836D01*
X232757199Y-195141429D01*
X232472475Y-195135465D01*
X232296838Y-195131786D01*
X232296831Y-195131786D01*
X232294199Y-195131731D01*
X232083665Y-195144977D01*
X231834661Y-195160642D01*
X231834653Y-195160643D01*
X231832012Y-195160809D01*
X231373878Y-195228460D01*
X231371317Y-195229061D01*
X231371310Y-195229062D01*
X231195561Y-195270284D01*
X230923013Y-195334210D01*
X230920502Y-195335026D01*
X230920498Y-195335027D01*
X230719174Y-195400441D01*
X230482577Y-195477316D01*
X230055661Y-195656775D01*
X230053328Y-195657995D01*
X230053323Y-195657997D01*
X229647592Y-195870108D01*
X229647586Y-195870112D01*
X229645259Y-195871328D01*
X229643031Y-195872742D01*
X229256493Y-196118046D01*
X229256484Y-196118052D01*
X229254250Y-196119470D01*
X229252143Y-196121069D01*
X229252142Y-196121070D01*
X229019212Y-196297874D01*
X228885376Y-196399461D01*
X228541224Y-196709336D01*
X228224209Y-197046923D01*
X227936555Y-197409852D01*
X227768627Y-197662604D01*
X227686528Y-197786174D01*
X227680279Y-197795579D01*
X227457178Y-198201398D01*
X227268818Y-198624462D01*
X227116519Y-199061804D01*
X227001350Y-199510356D01*
X226924120Y-199966972D01*
X226923900Y-199969595D01*
X226887058Y-200408329D01*
X226885368Y-200428449D01*
X226885368Y-200891551D01*
X206179777Y-200891551D01*
X206189371Y-200662648D01*
X206189482Y-200660000D01*
X206170089Y-200197305D01*
X206112047Y-199737855D01*
X206050346Y-199447575D01*
X206016309Y-199287441D01*
X206016307Y-199287433D01*
X206015763Y-199284874D01*
X205881912Y-198841538D01*
X205711433Y-198410957D01*
X205505522Y-197996152D01*
X205366233Y-197766158D01*
X205266989Y-197602286D01*
X205266985Y-197602280D01*
X205265623Y-197600031D01*
X204993419Y-197225375D01*
X204933627Y-197156105D01*
X204692539Y-196876801D01*
X204692532Y-196876794D01*
X204690819Y-196874809D01*
X204359946Y-196550794D01*
X204357923Y-196549121D01*
X204357917Y-196549115D01*
X204039166Y-196285422D01*
X204003120Y-196255602D01*
X203622845Y-195991304D01*
X203221787Y-195759753D01*
X202802760Y-195562574D01*
X202800293Y-195561657D01*
X202800287Y-195561654D01*
X202371164Y-195402065D01*
X202368704Y-195401150D01*
X202366174Y-195400444D01*
X202366166Y-195400441D01*
X201925207Y-195277323D01*
X201925194Y-195277320D01*
X201922662Y-195276613D01*
X201467763Y-195189836D01*
X201007199Y-195141429D01*
X200722475Y-195135465D01*
X200546838Y-195131786D01*
X200546831Y-195131786D01*
X200544199Y-195131731D01*
X200333665Y-195144977D01*
X200084661Y-195160642D01*
X200084653Y-195160643D01*
X200082012Y-195160809D01*
X199623878Y-195228460D01*
X199621317Y-195229061D01*
X199621310Y-195229062D01*
X199445561Y-195270284D01*
X199173013Y-195334210D01*
X199170502Y-195335026D01*
X199170498Y-195335027D01*
X198969174Y-195400441D01*
X198732577Y-195477316D01*
X198305661Y-195656775D01*
X198303328Y-195657995D01*
X198303323Y-195657997D01*
X197897592Y-195870108D01*
X197897586Y-195870112D01*
X197895259Y-195871328D01*
X197893031Y-195872742D01*
X197506493Y-196118046D01*
X197506484Y-196118052D01*
X197504250Y-196119470D01*
X197502143Y-196121069D01*
X197502142Y-196121070D01*
X197269212Y-196297874D01*
X197135376Y-196399461D01*
X196791224Y-196709336D01*
X196474209Y-197046923D01*
X196186555Y-197409852D01*
X196018627Y-197662604D01*
X195936528Y-197786174D01*
X195930279Y-197795579D01*
X195707178Y-198201398D01*
X195518818Y-198624462D01*
X195366519Y-199061804D01*
X195251350Y-199510356D01*
X195174120Y-199966972D01*
X195173900Y-199969595D01*
X195137058Y-200408329D01*
X195135368Y-200428449D01*
X195135368Y-200891551D01*
X174429777Y-200891551D01*
X174439371Y-200662648D01*
X174439482Y-200660000D01*
X174420089Y-200197305D01*
X174362047Y-199737855D01*
X174300346Y-199447575D01*
X174266309Y-199287441D01*
X174266307Y-199287433D01*
X174265763Y-199284874D01*
X174131912Y-198841538D01*
X173961433Y-198410957D01*
X173755522Y-197996152D01*
X173616233Y-197766158D01*
X173516989Y-197602286D01*
X173516985Y-197602280D01*
X173515623Y-197600031D01*
X173243419Y-197225375D01*
X173183627Y-197156105D01*
X172942539Y-196876801D01*
X172942532Y-196876794D01*
X172940819Y-196874809D01*
X172609946Y-196550794D01*
X172607923Y-196549121D01*
X172607917Y-196549115D01*
X172289166Y-196285422D01*
X172253120Y-196255602D01*
X171872845Y-195991304D01*
X171471787Y-195759753D01*
X171052760Y-195562574D01*
X171050293Y-195561657D01*
X171050287Y-195561654D01*
X170621164Y-195402065D01*
X170618704Y-195401150D01*
X170616174Y-195400444D01*
X170616166Y-195400441D01*
X170175207Y-195277323D01*
X170175194Y-195277320D01*
X170172662Y-195276613D01*
X169717763Y-195189836D01*
X169257199Y-195141429D01*
X168972475Y-195135465D01*
X168796838Y-195131786D01*
X168796831Y-195131786D01*
X168794199Y-195131731D01*
X168583665Y-195144977D01*
X168334661Y-195160642D01*
X168334653Y-195160643D01*
X168332012Y-195160809D01*
X167873878Y-195228460D01*
X167871317Y-195229061D01*
X167871310Y-195229062D01*
X167695561Y-195270284D01*
X167423013Y-195334210D01*
X167420502Y-195335026D01*
X167420498Y-195335027D01*
X167219174Y-195400441D01*
X166982577Y-195477316D01*
X166555661Y-195656775D01*
X166553328Y-195657995D01*
X166553323Y-195657997D01*
X166147592Y-195870108D01*
X166147586Y-195870112D01*
X166145259Y-195871328D01*
X166143031Y-195872742D01*
X165756493Y-196118046D01*
X165756484Y-196118052D01*
X165754250Y-196119470D01*
X165752143Y-196121069D01*
X165752142Y-196121070D01*
X165519212Y-196297874D01*
X165385376Y-196399461D01*
X165041224Y-196709336D01*
X164724209Y-197046923D01*
X164436555Y-197409852D01*
X164268627Y-197662604D01*
X164186528Y-197786174D01*
X164180279Y-197795579D01*
X163957178Y-198201398D01*
X163768818Y-198624462D01*
X163616519Y-199061804D01*
X163501350Y-199510356D01*
X163424120Y-199966972D01*
X163423900Y-199969595D01*
X163387058Y-200408329D01*
X163385368Y-200428449D01*
X163385368Y-200891551D01*
X142679777Y-200891551D01*
X142689371Y-200662648D01*
X142689482Y-200660000D01*
X142670089Y-200197305D01*
X142612047Y-199737855D01*
X142550346Y-199447575D01*
X142516309Y-199287441D01*
X142516307Y-199287433D01*
X142515763Y-199284874D01*
X142381912Y-198841538D01*
X142211433Y-198410957D01*
X142005522Y-197996152D01*
X141866233Y-197766158D01*
X141766989Y-197602286D01*
X141766985Y-197602280D01*
X141765623Y-197600031D01*
X141493419Y-197225375D01*
X141433627Y-197156105D01*
X141192539Y-196876801D01*
X141192532Y-196876794D01*
X141190819Y-196874809D01*
X140859946Y-196550794D01*
X140857923Y-196549121D01*
X140857917Y-196549115D01*
X140539166Y-196285422D01*
X140503120Y-196255602D01*
X140122845Y-195991304D01*
X139721787Y-195759753D01*
X139302760Y-195562574D01*
X139300293Y-195561657D01*
X139300287Y-195561654D01*
X138871164Y-195402065D01*
X138868704Y-195401150D01*
X138866174Y-195400444D01*
X138866166Y-195400441D01*
X138425207Y-195277323D01*
X138425194Y-195277320D01*
X138422662Y-195276613D01*
X137967763Y-195189836D01*
X137507199Y-195141429D01*
X137222475Y-195135465D01*
X137046838Y-195131786D01*
X137046831Y-195131786D01*
X137044199Y-195131731D01*
X136833665Y-195144977D01*
X136584661Y-195160642D01*
X136584653Y-195160643D01*
X136582012Y-195160809D01*
X136123878Y-195228460D01*
X136121317Y-195229061D01*
X136121310Y-195229062D01*
X135945561Y-195270284D01*
X135673013Y-195334210D01*
X135670502Y-195335026D01*
X135670498Y-195335027D01*
X135469174Y-195400441D01*
X135232577Y-195477316D01*
X134805661Y-195656775D01*
X134803328Y-195657995D01*
X134803323Y-195657997D01*
X134397592Y-195870108D01*
X134397586Y-195870112D01*
X134395259Y-195871328D01*
X134393031Y-195872742D01*
X134006493Y-196118046D01*
X134006484Y-196118052D01*
X134004250Y-196119470D01*
X134002143Y-196121069D01*
X134002142Y-196121070D01*
X133769212Y-196297874D01*
X133635376Y-196399461D01*
X133291224Y-196709336D01*
X132974209Y-197046923D01*
X132686555Y-197409852D01*
X132518627Y-197662604D01*
X132436528Y-197786174D01*
X132430279Y-197795579D01*
X132207178Y-198201398D01*
X132018818Y-198624462D01*
X131866519Y-199061804D01*
X131751350Y-199510356D01*
X131674120Y-199966972D01*
X131673900Y-199969595D01*
X131637058Y-200408329D01*
X131635368Y-200428449D01*
X131635368Y-200891551D01*
X104579777Y-200891551D01*
X104589371Y-200662648D01*
X104589482Y-200660000D01*
X104570089Y-200197305D01*
X104512047Y-199737855D01*
X104450346Y-199447575D01*
X104416309Y-199287441D01*
X104416307Y-199287433D01*
X104415763Y-199284874D01*
X104281912Y-198841538D01*
X104111433Y-198410957D01*
X103905522Y-197996152D01*
X103766233Y-197766158D01*
X103666989Y-197602286D01*
X103666985Y-197602280D01*
X103665623Y-197600031D01*
X103393419Y-197225375D01*
X103333627Y-197156105D01*
X103092539Y-196876801D01*
X103092532Y-196876794D01*
X103090819Y-196874809D01*
X102759946Y-196550794D01*
X102757923Y-196549121D01*
X102757917Y-196549115D01*
X102439166Y-196285422D01*
X102403120Y-196255602D01*
X102022845Y-195991304D01*
X101621787Y-195759753D01*
X101202760Y-195562574D01*
X101200293Y-195561657D01*
X101200287Y-195561654D01*
X100771164Y-195402065D01*
X100768704Y-195401150D01*
X100766174Y-195400444D01*
X100766166Y-195400441D01*
X100325207Y-195277323D01*
X100325194Y-195277320D01*
X100322662Y-195276613D01*
X99867763Y-195189836D01*
X99407199Y-195141429D01*
X99122475Y-195135465D01*
X98946838Y-195131786D01*
X98946831Y-195131786D01*
X98944199Y-195131731D01*
X98733665Y-195144977D01*
X98484661Y-195160642D01*
X98484653Y-195160643D01*
X98482012Y-195160809D01*
X98023878Y-195228460D01*
X98021317Y-195229061D01*
X98021310Y-195229062D01*
X97845561Y-195270284D01*
X97573013Y-195334210D01*
X97570502Y-195335026D01*
X97570498Y-195335027D01*
X97369174Y-195400441D01*
X97132577Y-195477316D01*
X96705661Y-195656775D01*
X96703328Y-195657995D01*
X96703323Y-195657997D01*
X96297592Y-195870108D01*
X96297586Y-195870112D01*
X96295259Y-195871328D01*
X96293031Y-195872742D01*
X95906493Y-196118046D01*
X95906484Y-196118052D01*
X95904250Y-196119470D01*
X95902143Y-196121069D01*
X95902142Y-196121070D01*
X95669212Y-196297874D01*
X95535376Y-196399461D01*
X95191224Y-196709336D01*
X94874209Y-197046923D01*
X94586555Y-197409852D01*
X94418627Y-197662604D01*
X94336528Y-197786174D01*
X94330279Y-197795579D01*
X94107178Y-198201398D01*
X93918818Y-198624462D01*
X93766519Y-199061804D01*
X93651350Y-199510356D01*
X93574120Y-199966972D01*
X93573900Y-199969595D01*
X93537058Y-200408329D01*
X93535368Y-200428449D01*
X93535368Y-200891551D01*
X67818000Y-200891551D01*
X67818000Y-169544000D01*
X67838002Y-169475879D01*
X67891658Y-169429386D01*
X67944000Y-169418000D01*
X498476000Y-169418000D01*
X498544121Y-169438002D01*
G37*
G04 #@! TD.AperFunction*
M02*
