%FSLAX45Y45*%
G04 Gerber Fmt 4.5, Leading zero omitted, Abs format (unit mm)*
G04 Created by KiCad (PCBNEW 6.0.6-3a73a75311~116~ubuntu22.04.1) date 2022-07-16 14:16:27*
%MOMM*%
%LPD*%
G01*
G04 APERTURE LIST*
%TA.AperFunction,Profile*%
%ADD10C,0.050000*%
%TD*%
%ADD11C,0.200000*%
G04 APERTURE END LIST*
D10*
X6731000Y-16891000D02*
X49911000Y-16891000D01*
X14217650Y-20066000D02*
G75*
G03*
X14217650Y-20066000I-501650J0D01*
G01*
X43986000Y-20066000D02*
G75*
G03*
X43986000Y-20066000I-425000J0D01*
G01*
X6731000Y-16891000D02*
X6731000Y-23876000D01*
X23742650Y-20066000D02*
G75*
G03*
X23742650Y-20066000I-501650J0D01*
G01*
X10407650Y-20066000D02*
G75*
G03*
X10407650Y-20066000I-501650J0D01*
G01*
X17392650Y-20066000D02*
G75*
G03*
X17392650Y-20066000I-501650J0D01*
G01*
X6731000Y-23876000D02*
X49911000Y-23876000D01*
X49911000Y-16891000D02*
X49911000Y-23876000D01*
X20567650Y-20066000D02*
G75*
G03*
X20567650Y-20066000I-501650J0D01*
G01*
X26917650Y-20066000D02*
G75*
G03*
X26917650Y-20066000I-501650J0D01*
G01*
D11*
X6986119Y-24188976D02*
X6986119Y-23988976D01*
X7033738Y-23988976D01*
X7062309Y-23998500D01*
X7081357Y-24017548D01*
X7090881Y-24036595D01*
X7100405Y-24074690D01*
X7100405Y-24103262D01*
X7090881Y-24141357D01*
X7081357Y-24160405D01*
X7062309Y-24179452D01*
X7033738Y-24188976D01*
X6986119Y-24188976D01*
X7186119Y-24188976D02*
X7186119Y-24055643D01*
X7186119Y-24093738D02*
X7195643Y-24074690D01*
X7205167Y-24065167D01*
X7224214Y-24055643D01*
X7243262Y-24055643D01*
X7309928Y-24188976D02*
X7309928Y-24055643D01*
X7309928Y-23988976D02*
X7300405Y-23998500D01*
X7309928Y-24008024D01*
X7319452Y-23998500D01*
X7309928Y-23988976D01*
X7309928Y-24008024D01*
X7433738Y-24188976D02*
X7414690Y-24179452D01*
X7405167Y-24160405D01*
X7405167Y-23988976D01*
X7538500Y-24188976D02*
X7519452Y-24179452D01*
X7509928Y-24160405D01*
X7509928Y-23988976D01*
X7767071Y-24188976D02*
X7767071Y-23988976D01*
X7833738Y-24131833D01*
X7900405Y-23988976D01*
X7900405Y-24188976D01*
X8081357Y-24188976D02*
X8081357Y-24084214D01*
X8071833Y-24065167D01*
X8052786Y-24055643D01*
X8014690Y-24055643D01*
X7995643Y-24065167D01*
X8081357Y-24179452D02*
X8062309Y-24188976D01*
X8014690Y-24188976D01*
X7995643Y-24179452D01*
X7986119Y-24160405D01*
X7986119Y-24141357D01*
X7995643Y-24122309D01*
X8014690Y-24112786D01*
X8062309Y-24112786D01*
X8081357Y-24103262D01*
X8176595Y-24055643D02*
X8176595Y-24255643D01*
X8176595Y-24065167D02*
X8195643Y-24055643D01*
X8233738Y-24055643D01*
X8252786Y-24065167D01*
X8262309Y-24074690D01*
X8271833Y-24093738D01*
X8271833Y-24150881D01*
X8262309Y-24169928D01*
X8252786Y-24179452D01*
X8233738Y-24188976D01*
X8195643Y-24188976D01*
X8176595Y-24179452D01*
X8357548Y-24169928D02*
X8367071Y-24179452D01*
X8357548Y-24188976D01*
X8348024Y-24179452D01*
X8357548Y-24169928D01*
X8357548Y-24188976D01*
X8357548Y-24065167D02*
X8367071Y-24074690D01*
X8357548Y-24084214D01*
X8348024Y-24074690D01*
X8357548Y-24065167D01*
X8357548Y-24084214D01*
M02*
