G04 #@! TF.GenerationSoftware,KiCad,Pcbnew,6.0.6-3a73a75311~116~ubuntu22.04.1*
G04 #@! TF.CreationDate,2022-07-16T14:16:27-04:00*
G04 #@! TF.ProjectId,it_is_the_champion_faceplate,69745f69-735f-4746-9865-5f6368616d70,0*
G04 #@! TF.SameCoordinates,Original*
G04 #@! TF.FileFunction,Legend,Top*
G04 #@! TF.FilePolarity,Positive*
%FSLAX46Y46*%
G04 Gerber Fmt 4.6, Leading zero omitted, Abs format (unit mm)*
G04 Created by KiCad (PCBNEW 6.0.6-3a73a75311~116~ubuntu22.04.1) date 2022-07-16 14:16:27*
%MOMM*%
%LPD*%
G01*
G04 APERTURE LIST*
%ADD10C,4.318000*%
%ADD11C,0.508000*%
%ADD12C,1.270000*%
%ADD13C,0.150000*%
%ADD14C,2.000000*%
G04 APERTURE END LIST*
D10*
X106465309Y-200660000D02*
G75*
G03*
X106465309Y-200660000I-7405309J0D01*
G01*
D11*
X252427619Y-219468095D02*
X252427619Y-216081428D01*
X252427619Y-216565238D02*
X252669523Y-216323333D01*
X253153333Y-216081428D01*
X253879047Y-216081428D01*
X254362857Y-216323333D01*
X254604761Y-216807142D01*
X254604761Y-219468095D01*
X254604761Y-216807142D02*
X254846666Y-216323333D01*
X255330476Y-216081428D01*
X256056190Y-216081428D01*
X256540000Y-216323333D01*
X256781904Y-216807142D01*
X256781904Y-219468095D01*
X261378095Y-219468095D02*
X261378095Y-216807142D01*
X261136190Y-216323333D01*
X260652380Y-216081428D01*
X259684761Y-216081428D01*
X259200952Y-216323333D01*
X261378095Y-219226190D02*
X260894285Y-219468095D01*
X259684761Y-219468095D01*
X259200952Y-219226190D01*
X258959047Y-218742380D01*
X258959047Y-218258571D01*
X259200952Y-217774761D01*
X259684761Y-217532857D01*
X260894285Y-217532857D01*
X261378095Y-217290952D01*
X263555238Y-219226190D02*
X264039047Y-219468095D01*
X265006666Y-219468095D01*
X265490476Y-219226190D01*
X265732380Y-218742380D01*
X265732380Y-218500476D01*
X265490476Y-218016666D01*
X265006666Y-217774761D01*
X264280952Y-217774761D01*
X263797142Y-217532857D01*
X263555238Y-217049047D01*
X263555238Y-216807142D01*
X263797142Y-216323333D01*
X264280952Y-216081428D01*
X265006666Y-216081428D01*
X265490476Y-216323333D01*
X267183809Y-216081428D02*
X269119047Y-216081428D01*
X267909523Y-214388095D02*
X267909523Y-218742380D01*
X268151428Y-219226190D01*
X268635238Y-219468095D01*
X269119047Y-219468095D01*
X272747619Y-219226190D02*
X272263809Y-219468095D01*
X271296190Y-219468095D01*
X270812380Y-219226190D01*
X270570476Y-218742380D01*
X270570476Y-216807142D01*
X270812380Y-216323333D01*
X271296190Y-216081428D01*
X272263809Y-216081428D01*
X272747619Y-216323333D01*
X272989523Y-216807142D01*
X272989523Y-217290952D01*
X270570476Y-217774761D01*
X275166666Y-219468095D02*
X275166666Y-216081428D01*
X275166666Y-217049047D02*
X275408571Y-216565238D01*
X275650476Y-216323333D01*
X276134285Y-216081428D01*
X276618095Y-216081428D01*
X132442857Y-216081428D02*
X132442857Y-220193809D01*
X132200952Y-220677619D01*
X131959047Y-220919523D01*
X131475238Y-221161428D01*
X130749523Y-221161428D01*
X130265714Y-220919523D01*
X132442857Y-219226190D02*
X131959047Y-219468095D01*
X130991428Y-219468095D01*
X130507619Y-219226190D01*
X130265714Y-218984285D01*
X130023809Y-218500476D01*
X130023809Y-217049047D01*
X130265714Y-216565238D01*
X130507619Y-216323333D01*
X130991428Y-216081428D01*
X131959047Y-216081428D01*
X132442857Y-216323333D01*
X137039047Y-219468095D02*
X137039047Y-216807142D01*
X136797142Y-216323333D01*
X136313333Y-216081428D01*
X135345714Y-216081428D01*
X134861904Y-216323333D01*
X137039047Y-219226190D02*
X136555238Y-219468095D01*
X135345714Y-219468095D01*
X134861904Y-219226190D01*
X134620000Y-218742380D01*
X134620000Y-218258571D01*
X134861904Y-217774761D01*
X135345714Y-217532857D01*
X136555238Y-217532857D01*
X137039047Y-217290952D01*
X139458095Y-219468095D02*
X139458095Y-216081428D01*
X139458095Y-214388095D02*
X139216190Y-214630000D01*
X139458095Y-214871904D01*
X139700000Y-214630000D01*
X139458095Y-214388095D01*
X139458095Y-214871904D01*
X141877142Y-216081428D02*
X141877142Y-219468095D01*
X141877142Y-216565238D02*
X142119047Y-216323333D01*
X142602857Y-216081428D01*
X143328571Y-216081428D01*
X143812380Y-216323333D01*
X144054285Y-216807142D01*
X144054285Y-219468095D01*
X158387142Y-216081428D02*
X160322380Y-216081428D01*
X159112857Y-214388095D02*
X159112857Y-218742380D01*
X159354761Y-219226190D01*
X159838571Y-219468095D01*
X160322380Y-219468095D01*
X162015714Y-219468095D02*
X162015714Y-216081428D01*
X162015714Y-217049047D02*
X162257619Y-216565238D01*
X162499523Y-216323333D01*
X162983333Y-216081428D01*
X163467142Y-216081428D01*
X167095714Y-219226190D02*
X166611904Y-219468095D01*
X165644285Y-219468095D01*
X165160476Y-219226190D01*
X164918571Y-218742380D01*
X164918571Y-216807142D01*
X165160476Y-216323333D01*
X165644285Y-216081428D01*
X166611904Y-216081428D01*
X167095714Y-216323333D01*
X167337619Y-216807142D01*
X167337619Y-217290952D01*
X164918571Y-217774761D01*
X169514761Y-219468095D02*
X169514761Y-214388095D01*
X169514761Y-216323333D02*
X169998571Y-216081428D01*
X170966190Y-216081428D01*
X171450000Y-216323333D01*
X171691904Y-216565238D01*
X171933809Y-217049047D01*
X171933809Y-218500476D01*
X171691904Y-218984285D01*
X171450000Y-219226190D01*
X170966190Y-219468095D01*
X169998571Y-219468095D01*
X169514761Y-219226190D01*
X174836666Y-219468095D02*
X174352857Y-219226190D01*
X174110952Y-218742380D01*
X174110952Y-214388095D01*
X178707142Y-219226190D02*
X178223333Y-219468095D01*
X177255714Y-219468095D01*
X176771904Y-219226190D01*
X176530000Y-218742380D01*
X176530000Y-216807142D01*
X176771904Y-216323333D01*
X177255714Y-216081428D01*
X178223333Y-216081428D01*
X178707142Y-216323333D01*
X178949047Y-216807142D01*
X178949047Y-217290952D01*
X176530000Y-217774761D01*
X224910952Y-219468095D02*
X224910952Y-214388095D01*
X224910952Y-216323333D02*
X225394761Y-216081428D01*
X226362380Y-216081428D01*
X226846190Y-216323333D01*
X227088095Y-216565238D01*
X227330000Y-217049047D01*
X227330000Y-218500476D01*
X227088095Y-218984285D01*
X226846190Y-219226190D01*
X226362380Y-219468095D01*
X225394761Y-219468095D01*
X224910952Y-219226190D01*
X231684285Y-219468095D02*
X231684285Y-216807142D01*
X231442380Y-216323333D01*
X230958571Y-216081428D01*
X229990952Y-216081428D01*
X229507142Y-216323333D01*
X231684285Y-219226190D02*
X231200476Y-219468095D01*
X229990952Y-219468095D01*
X229507142Y-219226190D01*
X229265238Y-218742380D01*
X229265238Y-218258571D01*
X229507142Y-217774761D01*
X229990952Y-217532857D01*
X231200476Y-217532857D01*
X231684285Y-217290952D01*
X233861428Y-219226190D02*
X234345238Y-219468095D01*
X235312857Y-219468095D01*
X235796666Y-219226190D01*
X236038571Y-218742380D01*
X236038571Y-218500476D01*
X235796666Y-218016666D01*
X235312857Y-217774761D01*
X234587142Y-217774761D01*
X234103333Y-217532857D01*
X233861428Y-217049047D01*
X233861428Y-216807142D01*
X234103333Y-216323333D01*
X234587142Y-216081428D01*
X235312857Y-216081428D01*
X235796666Y-216323333D01*
X237973809Y-219226190D02*
X238457619Y-219468095D01*
X239425238Y-219468095D01*
X239909047Y-219226190D01*
X240150952Y-218742380D01*
X240150952Y-218500476D01*
X239909047Y-218016666D01*
X239425238Y-217774761D01*
X238699523Y-217774761D01*
X238215714Y-217532857D01*
X237973809Y-217049047D01*
X237973809Y-216807142D01*
X238215714Y-216323333D01*
X238699523Y-216081428D01*
X239425238Y-216081428D01*
X239909047Y-216323333D01*
X90714285Y-219468095D02*
X90714285Y-216081428D01*
X90714285Y-214388095D02*
X90472380Y-214630000D01*
X90714285Y-214871904D01*
X90956190Y-214630000D01*
X90714285Y-214388095D01*
X90714285Y-214871904D01*
X93133333Y-216081428D02*
X93133333Y-219468095D01*
X93133333Y-216565238D02*
X93375238Y-216323333D01*
X93859047Y-216081428D01*
X94584761Y-216081428D01*
X95068571Y-216323333D01*
X95310476Y-216807142D01*
X95310476Y-219468095D01*
X97729523Y-216081428D02*
X97729523Y-221161428D01*
X97729523Y-216323333D02*
X98213333Y-216081428D01*
X99180952Y-216081428D01*
X99664761Y-216323333D01*
X99906666Y-216565238D01*
X100148571Y-217049047D01*
X100148571Y-218500476D01*
X99906666Y-218984285D01*
X99664761Y-219226190D01*
X99180952Y-219468095D01*
X98213333Y-219468095D01*
X97729523Y-219226190D01*
X104502857Y-216081428D02*
X104502857Y-219468095D01*
X102325714Y-216081428D02*
X102325714Y-218742380D01*
X102567619Y-219226190D01*
X103051428Y-219468095D01*
X103777142Y-219468095D01*
X104260952Y-219226190D01*
X104502857Y-218984285D01*
X106196190Y-216081428D02*
X108131428Y-216081428D01*
X106921904Y-214388095D02*
X106921904Y-218742380D01*
X107163809Y-219226190D01*
X107647619Y-219468095D01*
X108131428Y-219468095D01*
X189169523Y-219468095D02*
X189169523Y-216081428D01*
X189169523Y-216565238D02*
X189411428Y-216323333D01*
X189895238Y-216081428D01*
X190620952Y-216081428D01*
X191104761Y-216323333D01*
X191346666Y-216807142D01*
X191346666Y-219468095D01*
X191346666Y-216807142D02*
X191588571Y-216323333D01*
X192072380Y-216081428D01*
X192798095Y-216081428D01*
X193281904Y-216323333D01*
X193523809Y-216807142D01*
X193523809Y-219468095D01*
X195942857Y-219468095D02*
X195942857Y-216081428D01*
X195942857Y-214388095D02*
X195700952Y-214630000D01*
X195942857Y-214871904D01*
X196184761Y-214630000D01*
X195942857Y-214388095D01*
X195942857Y-214871904D01*
X200539047Y-219468095D02*
X200539047Y-214388095D01*
X200539047Y-219226190D02*
X200055238Y-219468095D01*
X199087619Y-219468095D01*
X198603809Y-219226190D01*
X198361904Y-218984285D01*
X198120000Y-218500476D01*
X198120000Y-217049047D01*
X198361904Y-216565238D01*
X198603809Y-216323333D01*
X199087619Y-216081428D01*
X200055238Y-216081428D01*
X200539047Y-216323333D01*
X205135238Y-219468095D02*
X205135238Y-214388095D01*
X205135238Y-219226190D02*
X204651428Y-219468095D01*
X203683809Y-219468095D01*
X203200000Y-219226190D01*
X202958095Y-218984285D01*
X202716190Y-218500476D01*
X202716190Y-217049047D01*
X202958095Y-216565238D01*
X203200000Y-216323333D01*
X203683809Y-216081428D01*
X204651428Y-216081428D01*
X205135238Y-216323333D01*
X208280000Y-219468095D02*
X207796190Y-219226190D01*
X207554285Y-218742380D01*
X207554285Y-214388095D01*
X212150476Y-219226190D02*
X211666666Y-219468095D01*
X210699047Y-219468095D01*
X210215238Y-219226190D01*
X209973333Y-218742380D01*
X209973333Y-216807142D01*
X210215238Y-216323333D01*
X210699047Y-216081428D01*
X211666666Y-216081428D01*
X212150476Y-216323333D01*
X212392380Y-216807142D01*
X212392380Y-217290952D01*
X209973333Y-217774761D01*
D12*
X347414547Y-197077390D02*
X347414547Y-190304057D01*
X347414547Y-186917390D02*
X346930738Y-187401200D01*
X347414547Y-187885009D01*
X347898357Y-187401200D01*
X347414547Y-186917390D01*
X347414547Y-187885009D01*
X350801214Y-190304057D02*
X354671690Y-190304057D01*
X352252642Y-186917390D02*
X352252642Y-195625961D01*
X352736452Y-196593580D01*
X353704071Y-197077390D01*
X354671690Y-197077390D01*
X365799309Y-197077390D02*
X365799309Y-190304057D01*
X365799309Y-186917390D02*
X365315500Y-187401200D01*
X365799309Y-187885009D01*
X366283119Y-187401200D01*
X365799309Y-186917390D01*
X365799309Y-187885009D01*
X370153595Y-196593580D02*
X371121214Y-197077390D01*
X373056452Y-197077390D01*
X374024071Y-196593580D01*
X374507880Y-195625961D01*
X374507880Y-195142152D01*
X374024071Y-194174533D01*
X373056452Y-193690723D01*
X371605023Y-193690723D01*
X370637404Y-193206914D01*
X370153595Y-192239295D01*
X370153595Y-191755485D01*
X370637404Y-190787866D01*
X371605023Y-190304057D01*
X373056452Y-190304057D01*
X374024071Y-190787866D01*
X385151690Y-190304057D02*
X389022166Y-190304057D01*
X386603119Y-186917390D02*
X386603119Y-195625961D01*
X387086928Y-196593580D01*
X388054547Y-197077390D01*
X389022166Y-197077390D01*
X392408833Y-197077390D02*
X392408833Y-186917390D01*
X396763119Y-197077390D02*
X396763119Y-191755485D01*
X396279309Y-190787866D01*
X395311690Y-190304057D01*
X393860261Y-190304057D01*
X392892642Y-190787866D01*
X392408833Y-191271676D01*
X405471690Y-196593580D02*
X404504071Y-197077390D01*
X402568833Y-197077390D01*
X401601214Y-196593580D01*
X401117404Y-195625961D01*
X401117404Y-191755485D01*
X401601214Y-190787866D01*
X402568833Y-190304057D01*
X404504071Y-190304057D01*
X405471690Y-190787866D01*
X405955500Y-191755485D01*
X405955500Y-192723104D01*
X401117404Y-193690723D01*
X351768833Y-212951180D02*
X350801214Y-213434990D01*
X348865976Y-213434990D01*
X347898357Y-212951180D01*
X347414547Y-212467371D01*
X346930738Y-211499752D01*
X346930738Y-208596895D01*
X347414547Y-207629276D01*
X347898357Y-207145466D01*
X348865976Y-206661657D01*
X350801214Y-206661657D01*
X351768833Y-207145466D01*
X356123119Y-213434990D02*
X356123119Y-203274990D01*
X360477404Y-213434990D02*
X360477404Y-208113085D01*
X359993595Y-207145466D01*
X359025976Y-206661657D01*
X357574547Y-206661657D01*
X356606928Y-207145466D01*
X356123119Y-207629276D01*
X369669785Y-213434990D02*
X369669785Y-208113085D01*
X369185976Y-207145466D01*
X368218357Y-206661657D01*
X366283119Y-206661657D01*
X365315500Y-207145466D01*
X369669785Y-212951180D02*
X368702166Y-213434990D01*
X366283119Y-213434990D01*
X365315500Y-212951180D01*
X364831690Y-211983561D01*
X364831690Y-211015942D01*
X365315500Y-210048323D01*
X366283119Y-209564514D01*
X368702166Y-209564514D01*
X369669785Y-209080704D01*
X374507880Y-213434990D02*
X374507880Y-206661657D01*
X374507880Y-207629276D02*
X374991690Y-207145466D01*
X375959309Y-206661657D01*
X377410738Y-206661657D01*
X378378357Y-207145466D01*
X378862166Y-208113085D01*
X378862166Y-213434990D01*
X378862166Y-208113085D02*
X379345976Y-207145466D01*
X380313595Y-206661657D01*
X381765023Y-206661657D01*
X382732642Y-207145466D01*
X383216452Y-208113085D01*
X383216452Y-213434990D01*
X388054547Y-206661657D02*
X388054547Y-216821657D01*
X388054547Y-207145466D02*
X389022166Y-206661657D01*
X390957404Y-206661657D01*
X391925023Y-207145466D01*
X392408833Y-207629276D01*
X392892642Y-208596895D01*
X392892642Y-211499752D01*
X392408833Y-212467371D01*
X391925023Y-212951180D01*
X390957404Y-213434990D01*
X389022166Y-213434990D01*
X388054547Y-212951180D01*
X397246928Y-213434990D02*
X397246928Y-206661657D01*
X397246928Y-203274990D02*
X396763119Y-203758800D01*
X397246928Y-204242609D01*
X397730738Y-203758800D01*
X397246928Y-203274990D01*
X397246928Y-204242609D01*
X403536452Y-213434990D02*
X402568833Y-212951180D01*
X402085023Y-212467371D01*
X401601214Y-211499752D01*
X401601214Y-208596895D01*
X402085023Y-207629276D01*
X402568833Y-207145466D01*
X403536452Y-206661657D01*
X404987880Y-206661657D01*
X405955500Y-207145466D01*
X406439309Y-207629276D01*
X406923119Y-208596895D01*
X406923119Y-211499752D01*
X406439309Y-212467371D01*
X405955500Y-212951180D01*
X404987880Y-213434990D01*
X403536452Y-213434990D01*
X411277404Y-206661657D02*
X411277404Y-213434990D01*
X411277404Y-207629276D02*
X411761214Y-207145466D01*
X412728833Y-206661657D01*
X414180261Y-206661657D01*
X415147880Y-207145466D01*
X415631690Y-208113085D01*
X415631690Y-213434990D01*
D13*
X100460000Y-207772000D02*
G75*
G03*
X100460000Y-207772000I-1400000J0D01*
G01*
%LPC*%
D14*
X99060000Y-207772000D03*
M02*
