M48
; DRILL file {KiCad 6.0.6-3a73a75311~116~ubuntu22.04.1} date Sat 16 Jul 2022 02:36:57 PM EDT
; FORMAT={-:-/ absolute / metric / decimal}
; #@! TF.CreationDate,2022-07-16T14:36:57-04:00
; #@! TF.GenerationSoftware,Kicad,Pcbnew,6.0.6-3a73a75311~116~ubuntu22.04.1
; #@! TF.FileFunction,NonPlated,1,2,NPTH
FMAT,2
METRIC
; #@! TA.AperFunction,NonPlated,NPTH,ComponentDrill
T1C1.000
; #@! TA.AperFunction,NonPlated,NPTH,ComponentDrill
T2C2.500
; #@! TA.AperFunction,NonPlated,NPTH,ComponentDrill
T3C2.800
%
G90
G05
T1
X162.56Y-95.25
X223.52Y-95.25
T2
X135.835Y-49.595
X140.335Y-49.595
X208.86Y-49.53
X213.36Y-49.53
X224.68Y-49.53
X229.18Y-49.53
X233.68Y-49.53
X243.785Y-49.595
X248.285Y-49.595
T3
X48.26Y-130.64
X48.54Y-50.546
X53.06Y-130.64
X53.34Y-50.546
X87.962Y-50.716
X92.71Y-130.64
X92.762Y-50.716
X97.51Y-130.64
X97.562Y-50.716
X102.31Y-130.64
X102.362Y-50.716
X107.11Y-130.64
X107.162Y-50.716
X128.44Y-110.49
X128.44Y-115.29
X128.44Y-129.54
X128.44Y-134.34
T0
M30
