%FSLAX45Y45*%
G04 Gerber Fmt 4.5, Leading zero omitted, Abs format (unit mm)*
G04 Created by KiCad (PCBNEW 6.0.6-3a73a75311~116~ubuntu22.04.1) date 2022-07-16 14:36:57*
%MOMM*%
%LPD*%
G01*
G04 APERTURE LIST*
%TA.AperFunction,Profile*%
%ADD10C,0.100000*%
%TD*%
%ADD11C,0.200000*%
%ADD12C,0.080000*%
%ADD13C,0.100000*%
%ADD14C,0.110000*%
%ADD15C,0.120000*%
%ADD16C,0.130000*%
%ADD17C,0.155000*%
%ADD18C,0.160000*%
%ADD19C,0.180000*%
%ADD20C,0.320000*%
G04 APERTURE END LIST*
D10*
X25654000Y-14605000D02*
G75*
G03*
X26162000Y-14097000I0J508000D01*
G01*
X3556000Y-13208000D02*
X3556000Y-4953000D01*
X4064000Y-4445000D02*
X11430000Y-4445000D01*
X11430000Y-13716000D02*
X4064000Y-13716000D01*
X3556000Y-13208000D02*
G75*
G03*
X4064000Y-13716000I508000J0D01*
G01*
X4064000Y-4445000D02*
G75*
G03*
X3556000Y-4953000I0J-508000D01*
G01*
X11938000Y-4953000D02*
G75*
G03*
X11430000Y-4445000I-508000J0D01*
G01*
X11430000Y-13716000D02*
G75*
G03*
X11938000Y-13208000I0J508000D01*
G01*
X11938000Y-13208000D02*
X11938000Y-12700000D01*
X12192000Y-14097000D02*
X12192000Y-12700000D01*
X11938000Y-12192000D02*
X11938000Y-10414000D01*
X12192000Y-12192000D02*
X12192000Y-10414000D01*
X11938000Y-8255000D02*
X11938000Y-9906000D01*
X12192000Y-9906000D02*
X12192000Y-8255000D01*
X11938000Y-7747000D02*
X11938000Y-5969000D01*
X12192000Y-5969000D02*
X12192000Y-7747000D01*
X11938000Y-5461000D02*
X11938000Y-4953000D01*
X12192000Y-5461000D02*
X12192000Y-4953000D01*
X12192000Y-5969000D02*
G75*
G03*
X11938000Y-5969000I-127000J0D01*
G01*
X26162000Y-4953000D02*
X26162000Y-14097000D01*
X11938000Y-12192000D02*
G75*
G03*
X12192000Y-12192000I127000J0D01*
G01*
X12192000Y-12700000D02*
G75*
G03*
X11938000Y-12700000I-127000J0D01*
G01*
X11938000Y-9906000D02*
G75*
G03*
X12192000Y-9906000I127000J0D01*
G01*
X12192000Y-4953000D02*
X12192000Y-4953000D01*
X12700000Y-4445000D02*
X25654000Y-4445000D01*
X12192000Y-14097000D02*
G75*
G03*
X12700000Y-14605000I508000J0D01*
G01*
X12700000Y-4445000D02*
G75*
G03*
X12192000Y-4953000I0J-508000D01*
G01*
X12192000Y-8255000D02*
G75*
G03*
X11938000Y-8255000I-127000J0D01*
G01*
X11938000Y-5461000D02*
G75*
G03*
X12192000Y-5461000I127000J0D01*
G01*
X11938000Y-7747000D02*
G75*
G03*
X12192000Y-7747000I127000J0D01*
G01*
X12192000Y-10414000D02*
G75*
G03*
X11938000Y-10414000I-127000J0D01*
G01*
X25654000Y-14605000D02*
X12700000Y-14605000D01*
X26162000Y-4953000D02*
G75*
G03*
X25654000Y-4445000I-508000J0D01*
G01*
D11*
D12*
X13231500Y-6945000D02*
X13311500Y-7025000D01*
X13311500Y-6945000D02*
X13231500Y-7025000D01*
X14247500Y-6945000D02*
X14327500Y-7025000D01*
X14327500Y-6945000D02*
X14247500Y-7025000D01*
X15208000Y-7199000D02*
X15288000Y-7279000D01*
X15288000Y-7199000D02*
X15208000Y-7279000D01*
X15708000Y-7199000D02*
X15788000Y-7279000D01*
X15788000Y-7199000D02*
X15708000Y-7279000D01*
X18756000Y-9485000D02*
X18836000Y-9565000D01*
X18836000Y-9485000D02*
X18756000Y-9565000D01*
X18756000Y-9993000D02*
X18836000Y-10073000D01*
X18836000Y-9993000D02*
X18756000Y-10073000D01*
X18764000Y-7199000D02*
X18844000Y-7279000D01*
X18844000Y-7199000D02*
X18764000Y-7279000D01*
X19264000Y-7199000D02*
X19344000Y-7279000D01*
X19344000Y-7199000D02*
X19264000Y-7279000D01*
X19772000Y-9485000D02*
X19852000Y-9565000D01*
X19852000Y-9485000D02*
X19772000Y-9565000D01*
X19772000Y-9993000D02*
X19852000Y-10073000D01*
X19852000Y-9993000D02*
X19772000Y-10073000D01*
X20153000Y-8723000D02*
X20233000Y-8803000D01*
X20233000Y-8723000D02*
X20153000Y-8803000D01*
X20153000Y-8973000D02*
X20233000Y-9053000D01*
X20233000Y-8973000D02*
X20153000Y-9053000D01*
X20280000Y-10310500D02*
X20360000Y-10390500D01*
X20360000Y-10310500D02*
X20280000Y-10390500D01*
X20661000Y-8723000D02*
X20741000Y-8803000D01*
X20741000Y-8723000D02*
X20661000Y-8803000D01*
X20661000Y-9739000D02*
X20741000Y-9819000D01*
X20741000Y-9739000D02*
X20661000Y-9819000D01*
X20780000Y-10310500D02*
X20860000Y-10390500D01*
X20860000Y-10310500D02*
X20780000Y-10390500D01*
X23336000Y-6691000D02*
X23416000Y-6771000D01*
X23416000Y-6691000D02*
X23336000Y-6771000D01*
X23836000Y-6691000D02*
X23916000Y-6771000D01*
X23916000Y-6691000D02*
X23836000Y-6771000D01*
X24852000Y-9231000D02*
X24932000Y-9311000D01*
X24932000Y-9231000D02*
X24852000Y-9311000D01*
X24852000Y-9739000D02*
X24932000Y-9819000D01*
X24932000Y-9739000D02*
X24852000Y-9819000D01*
X24852000Y-10247000D02*
X24932000Y-10327000D01*
X24932000Y-10247000D02*
X24852000Y-10327000D01*
X25360000Y-10818500D02*
X25440000Y-10898500D01*
X25440000Y-10818500D02*
X25360000Y-10898500D01*
X25360000Y-11068500D02*
X25440000Y-11148500D01*
X25440000Y-11068500D02*
X25360000Y-11148500D01*
X25868000Y-9231000D02*
X25948000Y-9311000D01*
X25948000Y-9231000D02*
X25868000Y-9311000D01*
X25868000Y-9739000D02*
X25948000Y-9819000D01*
X25948000Y-9739000D02*
X25868000Y-9819000D01*
X25868000Y-10247000D02*
X25948000Y-10327000D01*
X25948000Y-10247000D02*
X25868000Y-10327000D01*
D13*
X12623000Y-7509000D02*
G75*
G03*
X12623000Y-7509000I-50000J0D01*
G01*
X12623000Y-8509000D02*
G75*
G03*
X12623000Y-8509000I-50000J0D01*
G01*
X21910000Y-6731000D02*
G75*
G03*
X21910000Y-6731000I-50000J0D01*
G01*
X21910000Y-7493000D02*
G75*
G03*
X21910000Y-7493000I-50000J0D01*
G01*
X22910000Y-6731000D02*
G75*
G03*
X22910000Y-6731000I-50000J0D01*
G01*
X22910000Y-7493000D02*
G75*
G03*
X22910000Y-7493000I-50000J0D01*
G01*
D14*
X6731000Y-11057500D02*
X6731000Y-11167500D01*
X6676000Y-11112500D02*
X6786000Y-11112500D01*
X6731000Y-12073500D02*
X6731000Y-12183500D01*
X6676000Y-12128500D02*
X6786000Y-12128500D01*
X6731000Y-12391000D02*
X6731000Y-12501000D01*
X6676000Y-12446000D02*
X6786000Y-12446000D01*
X6731000Y-13407000D02*
X6731000Y-13517000D01*
X6676000Y-13462000D02*
X6786000Y-13462000D01*
X7239000Y-11057500D02*
X7239000Y-11167500D01*
X7184000Y-11112500D02*
X7294000Y-11112500D01*
X7239000Y-12073500D02*
X7239000Y-12183500D01*
X7184000Y-12128500D02*
X7294000Y-12128500D01*
X7239000Y-12391000D02*
X7239000Y-12501000D01*
X7184000Y-12446000D02*
X7294000Y-12446000D01*
X7239000Y-13407000D02*
X7239000Y-13517000D01*
X7184000Y-13462000D02*
X7294000Y-13462000D01*
X7747000Y-11057500D02*
X7747000Y-11167500D01*
X7692000Y-11112500D02*
X7802000Y-11112500D01*
X7747000Y-12073500D02*
X7747000Y-12183500D01*
X7692000Y-12128500D02*
X7802000Y-12128500D01*
X7747000Y-12391000D02*
X7747000Y-12501000D01*
X7692000Y-12446000D02*
X7802000Y-12446000D01*
X7747000Y-13407000D02*
X7747000Y-13517000D01*
X7692000Y-13462000D02*
X7802000Y-13462000D01*
X8255000Y-11057500D02*
X8255000Y-11167500D01*
X8200000Y-11112500D02*
X8310000Y-11112500D01*
X8255000Y-12073500D02*
X8255000Y-12183500D01*
X8200000Y-12128500D02*
X8310000Y-12128500D01*
X8255000Y-12391000D02*
X8255000Y-12501000D01*
X8200000Y-12446000D02*
X8310000Y-12446000D01*
X8255000Y-13407000D02*
X8255000Y-13517000D01*
X8200000Y-13462000D02*
X8310000Y-13462000D01*
D15*
X4233427Y-7408427D02*
X4233427Y-7323573D01*
X4148573Y-7323573D01*
X4148573Y-7408427D01*
X4233427Y-7408427D01*
X4233427Y-10456427D02*
X4233427Y-10371573D01*
X4148573Y-10371573D01*
X4148573Y-10456427D01*
X4233427Y-10456427D01*
X5122427Y-7891027D02*
X5122427Y-7806173D01*
X5037573Y-7806173D01*
X5037573Y-7891027D01*
X5122427Y-7891027D01*
X5122427Y-9669027D02*
X5122427Y-9584173D01*
X5037573Y-9584173D01*
X5037573Y-9669027D01*
X5122427Y-9669027D01*
X5872427Y-7891027D02*
X5872427Y-7806173D01*
X5787573Y-7806173D01*
X5787573Y-7891027D01*
X5872427Y-7891027D01*
X5872427Y-9669027D02*
X5872427Y-9584173D01*
X5787573Y-9584173D01*
X5787573Y-9669027D01*
X5872427Y-9669027D01*
X6773427Y-7408427D02*
X6773427Y-7323573D01*
X6688573Y-7323573D01*
X6688573Y-7408427D01*
X6773427Y-7408427D01*
X6773427Y-10456427D02*
X6773427Y-10371573D01*
X6688573Y-10371573D01*
X6688573Y-10456427D01*
X6773427Y-10456427D01*
X7789427Y-7764027D02*
X7789427Y-7679173D01*
X7704573Y-7679173D01*
X7704573Y-7764027D01*
X7789427Y-7764027D01*
X7789427Y-9796027D02*
X7789427Y-9711173D01*
X7704573Y-9711173D01*
X7704573Y-9796027D01*
X7789427Y-9796027D01*
X8539427Y-7764027D02*
X8539427Y-7679173D01*
X8454573Y-7679173D01*
X8454573Y-7764027D01*
X8539427Y-7764027D01*
X8539427Y-9796027D02*
X8539427Y-9711173D01*
X8454573Y-9711173D01*
X8454573Y-9796027D01*
X8539427Y-9796027D01*
X9821427Y-7764027D02*
X9821427Y-7679173D01*
X9736573Y-7679173D01*
X9736573Y-7764027D01*
X9821427Y-7764027D01*
X9821427Y-9796027D02*
X9821427Y-9711173D01*
X9736573Y-9711173D01*
X9736573Y-9796027D01*
X9821427Y-9796027D01*
X10571427Y-7764027D02*
X10571427Y-7679173D01*
X10486573Y-7679173D01*
X10486573Y-7764027D01*
X10571427Y-7764027D01*
X10571427Y-9796027D02*
X10571427Y-9711173D01*
X10486573Y-9711173D01*
X10486573Y-9796027D01*
X10571427Y-9796027D01*
X11599427Y-7408427D02*
X11599427Y-7323573D01*
X11514573Y-7323573D01*
X11514573Y-7408427D01*
X11599427Y-7408427D01*
X11599427Y-10456427D02*
X11599427Y-10371573D01*
X11514573Y-10371573D01*
X11514573Y-10456427D01*
X11599427Y-10456427D01*
X13313927Y-7535427D02*
X13313927Y-7450573D01*
X13229073Y-7450573D01*
X13229073Y-7535427D01*
X13313927Y-7535427D01*
X13313927Y-9567427D02*
X13313927Y-9482573D01*
X13229073Y-9482573D01*
X13229073Y-9567427D01*
X13313927Y-9567427D01*
X13625927Y-6201927D02*
X13625927Y-6117073D01*
X13541073Y-6117073D01*
X13541073Y-6201927D01*
X13625927Y-6201927D01*
X14075927Y-6201927D02*
X14075927Y-6117073D01*
X13991073Y-6117073D01*
X13991073Y-6201927D01*
X14075927Y-6201927D01*
X14139427Y-7535427D02*
X14139427Y-7450573D01*
X14054573Y-7450573D01*
X14054573Y-7535427D01*
X14139427Y-7535427D01*
X14139427Y-9567427D02*
X14139427Y-9482573D01*
X14054573Y-9482573D01*
X14054573Y-9567427D01*
X14139427Y-9567427D01*
X14647427Y-13123427D02*
X14647427Y-13038573D01*
X14562573Y-13038573D01*
X14562573Y-13123427D01*
X14647427Y-13123427D01*
X15282427Y-12361427D02*
X15282427Y-12276573D01*
X15197573Y-12276573D01*
X15197573Y-12361427D01*
X15282427Y-12361427D01*
X16679427Y-13123427D02*
X16679427Y-13038573D01*
X16594573Y-13038573D01*
X16594573Y-13123427D01*
X16679427Y-13123427D01*
X17314427Y-8043427D02*
X17314427Y-7958573D01*
X17229573Y-7958573D01*
X17229573Y-8043427D01*
X17314427Y-8043427D01*
X17314427Y-12361427D02*
X17314427Y-12276573D01*
X17229573Y-12276573D01*
X17229573Y-12361427D01*
X17314427Y-12361427D01*
X17822427Y-13123427D02*
X17822427Y-13038573D01*
X17737573Y-13038573D01*
X17737573Y-13123427D01*
X17822427Y-13123427D01*
X17822427Y-13873427D02*
X17822427Y-13788573D01*
X17737573Y-13788573D01*
X17737573Y-13873427D01*
X17822427Y-13873427D01*
X18330427Y-8805427D02*
X18330427Y-8720573D01*
X18245573Y-8720573D01*
X18245573Y-8805427D01*
X18330427Y-8805427D01*
X18330427Y-10837427D02*
X18330427Y-10752573D01*
X18245573Y-10752573D01*
X18245573Y-10837427D01*
X18330427Y-10837427D01*
X18330427Y-12361427D02*
X18330427Y-12276573D01*
X18245573Y-12276573D01*
X18245573Y-12361427D01*
X18330427Y-12361427D01*
X19346427Y-8043427D02*
X19346427Y-7958573D01*
X19261573Y-7958573D01*
X19261573Y-8043427D01*
X19346427Y-8043427D01*
X20362427Y-12361427D02*
X20362427Y-12276573D01*
X20277573Y-12276573D01*
X20277573Y-12361427D01*
X20362427Y-12361427D01*
X20928427Y-6195427D02*
X20928427Y-6110573D01*
X20843573Y-6110573D01*
X20843573Y-6195427D01*
X20928427Y-6195427D01*
X21124427Y-13123427D02*
X21124427Y-13038573D01*
X21039573Y-13038573D01*
X21039573Y-13123427D01*
X21124427Y-13123427D01*
X21124427Y-13873427D02*
X21124427Y-13788573D01*
X21039573Y-13788573D01*
X21039573Y-13873427D01*
X21124427Y-13873427D01*
X21378427Y-6195427D02*
X21378427Y-6110573D01*
X21293573Y-6110573D01*
X21293573Y-6195427D01*
X21378427Y-6195427D01*
X21378427Y-12107427D02*
X21378427Y-12022573D01*
X21293573Y-12022573D01*
X21293573Y-12107427D01*
X21378427Y-12107427D01*
X22510427Y-6195427D02*
X22510427Y-6110573D01*
X22425573Y-6110573D01*
X22425573Y-6195427D01*
X22510427Y-6195427D01*
X22960427Y-6195427D02*
X22960427Y-6110573D01*
X22875573Y-6110573D01*
X22875573Y-6195427D01*
X22960427Y-6195427D01*
X23156427Y-8043427D02*
X23156427Y-7958573D01*
X23071573Y-7958573D01*
X23071573Y-8043427D01*
X23156427Y-8043427D01*
X23410427Y-6195427D02*
X23410427Y-6110573D01*
X23325573Y-6110573D01*
X23325573Y-6195427D01*
X23410427Y-6195427D01*
X23410427Y-12107427D02*
X23410427Y-12022573D01*
X23325573Y-12022573D01*
X23325573Y-12107427D01*
X23410427Y-12107427D01*
X24108927Y-12107427D02*
X24108927Y-12022573D01*
X24024073Y-12022573D01*
X24024073Y-12107427D01*
X24108927Y-12107427D01*
X24108927Y-14139427D02*
X24108927Y-14054573D01*
X24024073Y-14054573D01*
X24024073Y-14139427D01*
X24108927Y-14139427D01*
X24420927Y-6201927D02*
X24420927Y-6117073D01*
X24336073Y-6117073D01*
X24336073Y-6201927D01*
X24420927Y-6201927D01*
X24426427Y-8805427D02*
X24426427Y-8720573D01*
X24341573Y-8720573D01*
X24341573Y-8805427D01*
X24426427Y-8805427D01*
X24426427Y-10837427D02*
X24426427Y-10752573D01*
X24341573Y-10752573D01*
X24341573Y-10837427D01*
X24426427Y-10837427D01*
X24870927Y-6201927D02*
X24870927Y-6117073D01*
X24786073Y-6117073D01*
X24786073Y-6201927D01*
X24870927Y-6201927D01*
X25188427Y-8043427D02*
X25188427Y-7958573D01*
X25103573Y-7958573D01*
X25103573Y-8043427D01*
X25188427Y-8043427D01*
D16*
X16256000Y-11015000D02*
X16321000Y-10950000D01*
X16256000Y-10885000D01*
X16191000Y-10950000D01*
X16256000Y-11015000D01*
X22352000Y-11015000D02*
X22417000Y-10950000D01*
X22352000Y-10885000D01*
X22287000Y-10950000D01*
X22352000Y-11015000D01*
D17*
X4748500Y-11606500D02*
X4903500Y-11761500D01*
X4903500Y-11606500D02*
X4748500Y-11761500D01*
X4903500Y-11684000D02*
G75*
G03*
X4903500Y-11684000I-77500J0D01*
G01*
X4776500Y-6357100D02*
X4931500Y-6512100D01*
X4931500Y-6357100D02*
X4776500Y-6512100D01*
X4931500Y-6434600D02*
G75*
G03*
X4931500Y-6434600I-77500J0D01*
G01*
X5228500Y-11606500D02*
X5383500Y-11761500D01*
X5383500Y-11606500D02*
X5228500Y-11761500D01*
X5383500Y-11684000D02*
G75*
G03*
X5383500Y-11684000I-77500J0D01*
G01*
X5256500Y-6357100D02*
X5411500Y-6512100D01*
X5411500Y-6357100D02*
X5256500Y-6512100D01*
X5411500Y-6434600D02*
G75*
G03*
X5411500Y-6434600I-77500J0D01*
G01*
X8718700Y-6374100D02*
X8873700Y-6529100D01*
X8873700Y-6374100D02*
X8718700Y-6529100D01*
X8873700Y-6451600D02*
G75*
G03*
X8873700Y-6451600I-77500J0D01*
G01*
X9193500Y-11606500D02*
X9348500Y-11761500D01*
X9348500Y-11606500D02*
X9193500Y-11761500D01*
X9348500Y-11684000D02*
G75*
G03*
X9348500Y-11684000I-77500J0D01*
G01*
X9198700Y-6374100D02*
X9353700Y-6529100D01*
X9353700Y-6374100D02*
X9198700Y-6529100D01*
X9353700Y-6451600D02*
G75*
G03*
X9353700Y-6451600I-77500J0D01*
G01*
X9673500Y-11606500D02*
X9828500Y-11761500D01*
X9828500Y-11606500D02*
X9673500Y-11761500D01*
X9828500Y-11684000D02*
G75*
G03*
X9828500Y-11684000I-77500J0D01*
G01*
X9678700Y-6374100D02*
X9833700Y-6529100D01*
X9833700Y-6374100D02*
X9678700Y-6529100D01*
X9833700Y-6451600D02*
G75*
G03*
X9833700Y-6451600I-77500J0D01*
G01*
X10153500Y-11606500D02*
X10308500Y-11761500D01*
X10308500Y-11606500D02*
X10153500Y-11761500D01*
X10308500Y-11684000D02*
G75*
G03*
X10308500Y-11684000I-77500J0D01*
G01*
X10158700Y-6374100D02*
X10313700Y-6529100D01*
X10313700Y-6374100D02*
X10158700Y-6529100D01*
X10313700Y-6451600D02*
G75*
G03*
X10313700Y-6451600I-77500J0D01*
G01*
X10633500Y-11606500D02*
X10788500Y-11761500D01*
X10788500Y-11606500D02*
X10633500Y-11761500D01*
X10788500Y-11684000D02*
G75*
G03*
X10788500Y-11684000I-77500J0D01*
G01*
X10638700Y-6374100D02*
X10793700Y-6529100D01*
X10793700Y-6374100D02*
X10638700Y-6529100D01*
X10793700Y-6451600D02*
G75*
G03*
X10793700Y-6451600I-77500J0D01*
G01*
X14146500Y-10971500D02*
X14301500Y-11126500D01*
X14301500Y-10971500D02*
X14146500Y-11126500D01*
X14301500Y-11049000D02*
G75*
G03*
X14301500Y-11049000I-77500J0D01*
G01*
X14146500Y-11451500D02*
X14301500Y-11606500D01*
X14301500Y-11451500D02*
X14146500Y-11606500D01*
X14301500Y-11529000D02*
G75*
G03*
X14301500Y-11529000I-77500J0D01*
G01*
X14146500Y-12876500D02*
X14301500Y-13031500D01*
X14301500Y-12876500D02*
X14146500Y-13031500D01*
X14301500Y-12954000D02*
G75*
G03*
X14301500Y-12954000I-77500J0D01*
G01*
X14146500Y-13356500D02*
X14301500Y-13511500D01*
X14301500Y-13356500D02*
X14146500Y-13511500D01*
X14301500Y-13434000D02*
G75*
G03*
X14301500Y-13434000I-77500J0D01*
G01*
D18*
X4238000Y-11096000D02*
X4398000Y-11256000D01*
X4398000Y-11096000D02*
X4238000Y-11256000D01*
X4318000Y-11096000D02*
X4318000Y-11256000D01*
X4238000Y-11176000D02*
X4398000Y-11176000D01*
X4746000Y-11096000D02*
X4906000Y-11256000D01*
X4906000Y-11096000D02*
X4746000Y-11256000D01*
X4826000Y-11096000D02*
X4826000Y-11256000D01*
X4746000Y-11176000D02*
X4906000Y-11176000D01*
X5254000Y-11096000D02*
X5414000Y-11256000D01*
X5414000Y-11096000D02*
X5254000Y-11256000D01*
X5334000Y-11096000D02*
X5334000Y-11256000D01*
X5254000Y-11176000D02*
X5414000Y-11176000D01*
X5762000Y-11096000D02*
X5922000Y-11256000D01*
X5922000Y-11096000D02*
X5762000Y-11256000D01*
X5842000Y-11096000D02*
X5842000Y-11256000D01*
X5762000Y-11176000D02*
X5922000Y-11176000D01*
D19*
X15116000Y-9435000D02*
X15296000Y-9615000D01*
X15296000Y-9435000D02*
X15116000Y-9615000D01*
X15269640Y-9588640D02*
X15269640Y-9461360D01*
X15142360Y-9461360D01*
X15142360Y-9588640D01*
X15269640Y-9588640D01*
X15316532Y-8817826D02*
X15496532Y-8997826D01*
X15496532Y-8817826D02*
X15316532Y-8997826D01*
X15470172Y-8971466D02*
X15470172Y-8844185D01*
X15342892Y-8844185D01*
X15342892Y-8971466D01*
X15470172Y-8971466D01*
X15316532Y-10052175D02*
X15496532Y-10232175D01*
X15496532Y-10052175D02*
X15316532Y-10232175D01*
X15470172Y-10205815D02*
X15470172Y-10078534D01*
X15342892Y-10078534D01*
X15342892Y-10205815D01*
X15470172Y-10205815D01*
X15841532Y-8436391D02*
X16021532Y-8616391D01*
X16021532Y-8436391D02*
X15841532Y-8616391D01*
X15995172Y-8590031D02*
X15995172Y-8462751D01*
X15867892Y-8462751D01*
X15867892Y-8590031D01*
X15995172Y-8590031D01*
X16490468Y-8436391D02*
X16670468Y-8616391D01*
X16670468Y-8436391D02*
X16490468Y-8616391D01*
X16644108Y-8590031D02*
X16644108Y-8462751D01*
X16516828Y-8462751D01*
X16516828Y-8590031D01*
X16644108Y-8590031D01*
X16490468Y-10433609D02*
X16670468Y-10613609D01*
X16670468Y-10433609D02*
X16490468Y-10613609D01*
X16644108Y-10587250D02*
X16644108Y-10459969D01*
X16516828Y-10459969D01*
X16516828Y-10587250D01*
X16644108Y-10587250D01*
X17015468Y-8817826D02*
X17195468Y-8997826D01*
X17195468Y-8817826D02*
X17015468Y-8997826D01*
X17169108Y-8971466D02*
X17169108Y-8844185D01*
X17041828Y-8844185D01*
X17041828Y-8971466D01*
X17169108Y-8971466D01*
X17015468Y-10052175D02*
X17195468Y-10232175D01*
X17195468Y-10052175D02*
X17015468Y-10232175D01*
X17169108Y-10205815D02*
X17169108Y-10078534D01*
X17041828Y-10078534D01*
X17041828Y-10205815D01*
X17169108Y-10205815D01*
X17216000Y-9435000D02*
X17396000Y-9615000D01*
X17396000Y-9435000D02*
X17216000Y-9615000D01*
X17369640Y-9588640D02*
X17369640Y-9461360D01*
X17242360Y-9461360D01*
X17242360Y-9588640D01*
X17369640Y-9588640D01*
X21212000Y-9435000D02*
X21392000Y-9615000D01*
X21392000Y-9435000D02*
X21212000Y-9615000D01*
X21365640Y-9588640D02*
X21365640Y-9461360D01*
X21238360Y-9461360D01*
X21238360Y-9588640D01*
X21365640Y-9588640D01*
X21412532Y-8817826D02*
X21592532Y-8997826D01*
X21592532Y-8817826D02*
X21412532Y-8997826D01*
X21566172Y-8971466D02*
X21566172Y-8844185D01*
X21438892Y-8844185D01*
X21438892Y-8971466D01*
X21566172Y-8971466D01*
X21412532Y-10052175D02*
X21592532Y-10232175D01*
X21592532Y-10052175D02*
X21412532Y-10232175D01*
X21566172Y-10205815D02*
X21566172Y-10078534D01*
X21438892Y-10078534D01*
X21438892Y-10205815D01*
X21566172Y-10205815D01*
X21937532Y-8436391D02*
X22117532Y-8616391D01*
X22117532Y-8436391D02*
X21937532Y-8616391D01*
X22091172Y-8590031D02*
X22091172Y-8462751D01*
X21963892Y-8462751D01*
X21963892Y-8590031D01*
X22091172Y-8590031D01*
X22586468Y-8436391D02*
X22766468Y-8616391D01*
X22766468Y-8436391D02*
X22586468Y-8616391D01*
X22740108Y-8590031D02*
X22740108Y-8462751D01*
X22612828Y-8462751D01*
X22612828Y-8590031D01*
X22740108Y-8590031D01*
X22586468Y-10433609D02*
X22766468Y-10613609D01*
X22766468Y-10433609D02*
X22586468Y-10613609D01*
X22740108Y-10587250D02*
X22740108Y-10459969D01*
X22612828Y-10459969D01*
X22612828Y-10587250D01*
X22740108Y-10587250D01*
X23111468Y-8817826D02*
X23291468Y-8997826D01*
X23291468Y-8817826D02*
X23111468Y-8997826D01*
X23265108Y-8971466D02*
X23265108Y-8844185D01*
X23137828Y-8844185D01*
X23137828Y-8971466D01*
X23265108Y-8971466D01*
X23111468Y-10052175D02*
X23291468Y-10232175D01*
X23291468Y-10052175D02*
X23111468Y-10232175D01*
X23265108Y-10205815D02*
X23265108Y-10078534D01*
X23137828Y-10078534D01*
X23137828Y-10205815D01*
X23265108Y-10205815D01*
X23312000Y-9435000D02*
X23492000Y-9615000D01*
X23492000Y-9435000D02*
X23312000Y-9615000D01*
X23465640Y-9588640D02*
X23465640Y-9461360D01*
X23338360Y-9461360D01*
X23338360Y-9588640D01*
X23465640Y-9588640D01*
D20*
X3904000Y-13048000D02*
X4224000Y-13368000D01*
X4224000Y-13048000D02*
X3904000Y-13368000D01*
X4064000Y-13368000D02*
X4224000Y-13208000D01*
X4064000Y-13048000D01*
X3904000Y-13208000D01*
X4064000Y-13368000D01*
X11270000Y-4793000D02*
X11590000Y-5113000D01*
X11590000Y-4793000D02*
X11270000Y-5113000D01*
X11430000Y-5113000D02*
X11590000Y-4953000D01*
X11430000Y-4793000D01*
X11270000Y-4953000D01*
X11430000Y-5113000D01*
X11270000Y-13048000D02*
X11590000Y-13368000D01*
X11590000Y-13048000D02*
X11270000Y-13368000D01*
X11430000Y-13368000D02*
X11590000Y-13208000D01*
X11430000Y-13048000D01*
X11270000Y-13208000D01*
X11430000Y-13368000D01*
X12540000Y-4793000D02*
X12860000Y-5113000D01*
X12860000Y-4793000D02*
X12540000Y-5113000D01*
X12700000Y-5113000D02*
X12860000Y-4953000D01*
X12700000Y-4793000D01*
X12540000Y-4953000D01*
X12700000Y-5113000D01*
X12540000Y-13937000D02*
X12860000Y-14257000D01*
X12860000Y-13937000D02*
X12540000Y-14257000D01*
X12700000Y-14257000D02*
X12860000Y-14097000D01*
X12700000Y-13937000D01*
X12540000Y-14097000D01*
X12700000Y-14257000D01*
X14826000Y-7841000D02*
X15146000Y-8161000D01*
X15146000Y-7841000D02*
X14826000Y-8161000D01*
X14986000Y-8161000D02*
X15146000Y-8001000D01*
X14986000Y-7841000D01*
X14826000Y-8001000D01*
X14986000Y-8161000D01*
X16096000Y-7940000D02*
X16416000Y-8260000D01*
X16416000Y-7940000D02*
X16096000Y-8260000D01*
X16256000Y-8260000D02*
X16416000Y-8100000D01*
X16256000Y-7940000D01*
X16096000Y-8100000D01*
X16256000Y-8260000D01*
X17366000Y-10889000D02*
X17686000Y-11209000D01*
X17686000Y-10889000D02*
X17366000Y-11209000D01*
X17526000Y-11209000D02*
X17686000Y-11049000D01*
X17526000Y-10889000D01*
X17366000Y-11049000D01*
X17526000Y-11209000D01*
X20922000Y-7841000D02*
X21242000Y-8161000D01*
X21242000Y-7841000D02*
X20922000Y-8161000D01*
X21082000Y-8161000D02*
X21242000Y-8001000D01*
X21082000Y-7841000D01*
X20922000Y-8001000D01*
X21082000Y-8161000D01*
X22192000Y-7940000D02*
X22512000Y-8260000D01*
X22512000Y-7940000D02*
X22192000Y-8260000D01*
X22352000Y-8260000D02*
X22512000Y-8100000D01*
X22352000Y-7940000D01*
X22192000Y-8100000D01*
X22352000Y-8260000D01*
X23462000Y-10889000D02*
X23782000Y-11209000D01*
X23782000Y-10889000D02*
X23462000Y-11209000D01*
X23622000Y-11209000D02*
X23782000Y-11049000D01*
X23622000Y-10889000D01*
X23462000Y-11049000D01*
X23622000Y-11209000D01*
X25494000Y-4793000D02*
X25814000Y-5113000D01*
X25814000Y-4793000D02*
X25494000Y-5113000D01*
X25654000Y-5113000D02*
X25814000Y-4953000D01*
X25654000Y-4793000D01*
X25494000Y-4953000D01*
X25654000Y-5113000D01*
X25494000Y-13937000D02*
X25814000Y-14257000D01*
X25814000Y-13937000D02*
X25494000Y-14257000D01*
X25654000Y-14257000D02*
X25814000Y-14097000D01*
X25654000Y-13937000D01*
X25494000Y-14097000D01*
X25654000Y-14257000D01*
X4064000Y-4793000D02*
X4064000Y-5113000D01*
X3904000Y-4953000D02*
X4224000Y-4953000D01*
X4224000Y-4953000D02*
G75*
G03*
X4224000Y-4953000I-160000J0D01*
G01*
D11*
X3808619Y-14920476D02*
X3808619Y-14720476D01*
X3856238Y-14720476D01*
X3884809Y-14730000D01*
X3903857Y-14749048D01*
X3913381Y-14768095D01*
X3922905Y-14806190D01*
X3922905Y-14834762D01*
X3913381Y-14872857D01*
X3903857Y-14891905D01*
X3884809Y-14910952D01*
X3856238Y-14920476D01*
X3808619Y-14920476D01*
X4008619Y-14920476D02*
X4008619Y-14787143D01*
X4008619Y-14825238D02*
X4018143Y-14806190D01*
X4027667Y-14796667D01*
X4046714Y-14787143D01*
X4065762Y-14787143D01*
X4132428Y-14920476D02*
X4132428Y-14787143D01*
X4132428Y-14720476D02*
X4122905Y-14730000D01*
X4132428Y-14739524D01*
X4141952Y-14730000D01*
X4132428Y-14720476D01*
X4132428Y-14739524D01*
X4256238Y-14920476D02*
X4237190Y-14910952D01*
X4227667Y-14891905D01*
X4227667Y-14720476D01*
X4361000Y-14920476D02*
X4341952Y-14910952D01*
X4332429Y-14891905D01*
X4332429Y-14720476D01*
X4589571Y-14920476D02*
X4589571Y-14720476D01*
X4656238Y-14863333D01*
X4722905Y-14720476D01*
X4722905Y-14920476D01*
X4903857Y-14920476D02*
X4903857Y-14815714D01*
X4894333Y-14796667D01*
X4875286Y-14787143D01*
X4837190Y-14787143D01*
X4818143Y-14796667D01*
X4903857Y-14910952D02*
X4884810Y-14920476D01*
X4837190Y-14920476D01*
X4818143Y-14910952D01*
X4808619Y-14891905D01*
X4808619Y-14872857D01*
X4818143Y-14853809D01*
X4837190Y-14844286D01*
X4884810Y-14844286D01*
X4903857Y-14834762D01*
X4999095Y-14787143D02*
X4999095Y-14987143D01*
X4999095Y-14796667D02*
X5018143Y-14787143D01*
X5056238Y-14787143D01*
X5075286Y-14796667D01*
X5084810Y-14806190D01*
X5094333Y-14825238D01*
X5094333Y-14882381D01*
X5084810Y-14901428D01*
X5075286Y-14910952D01*
X5056238Y-14920476D01*
X5018143Y-14920476D01*
X4999095Y-14910952D01*
X5180048Y-14901428D02*
X5189571Y-14910952D01*
X5180048Y-14920476D01*
X5170524Y-14910952D01*
X5180048Y-14901428D01*
X5180048Y-14920476D01*
X5180048Y-14796667D02*
X5189571Y-14806190D01*
X5180048Y-14815714D01*
X5170524Y-14806190D01*
X5180048Y-14796667D01*
X5180048Y-14815714D01*
D12*
X3471000Y-15210000D02*
X3551000Y-15290000D01*
X3551000Y-15210000D02*
X3471000Y-15290000D01*
D11*
X3846714Y-15140476D02*
X3865762Y-15140476D01*
X3884809Y-15150000D01*
X3894333Y-15159524D01*
X3903857Y-15178571D01*
X3913381Y-15216667D01*
X3913381Y-15264286D01*
X3903857Y-15302381D01*
X3894333Y-15321428D01*
X3884809Y-15330952D01*
X3865762Y-15340476D01*
X3846714Y-15340476D01*
X3827667Y-15330952D01*
X3818143Y-15321428D01*
X3808619Y-15302381D01*
X3799095Y-15264286D01*
X3799095Y-15216667D01*
X3808619Y-15178571D01*
X3818143Y-15159524D01*
X3827667Y-15150000D01*
X3846714Y-15140476D01*
X3999095Y-15321428D02*
X4008619Y-15330952D01*
X3999095Y-15340476D01*
X3989571Y-15330952D01*
X3999095Y-15321428D01*
X3999095Y-15340476D01*
X4122905Y-15226190D02*
X4103857Y-15216667D01*
X4094333Y-15207143D01*
X4084809Y-15188095D01*
X4084809Y-15178571D01*
X4094333Y-15159524D01*
X4103857Y-15150000D01*
X4122905Y-15140476D01*
X4161000Y-15140476D01*
X4180048Y-15150000D01*
X4189571Y-15159524D01*
X4199095Y-15178571D01*
X4199095Y-15188095D01*
X4189571Y-15207143D01*
X4180048Y-15216667D01*
X4161000Y-15226190D01*
X4122905Y-15226190D01*
X4103857Y-15235714D01*
X4094333Y-15245238D01*
X4084809Y-15264286D01*
X4084809Y-15302381D01*
X4094333Y-15321428D01*
X4103857Y-15330952D01*
X4122905Y-15340476D01*
X4161000Y-15340476D01*
X4180048Y-15330952D01*
X4189571Y-15321428D01*
X4199095Y-15302381D01*
X4199095Y-15264286D01*
X4189571Y-15245238D01*
X4180048Y-15235714D01*
X4161000Y-15226190D01*
X4322905Y-15140476D02*
X4341952Y-15140476D01*
X4361000Y-15150000D01*
X4370524Y-15159524D01*
X4380048Y-15178571D01*
X4389571Y-15216667D01*
X4389571Y-15264286D01*
X4380048Y-15302381D01*
X4370524Y-15321428D01*
X4361000Y-15330952D01*
X4341952Y-15340476D01*
X4322905Y-15340476D01*
X4303857Y-15330952D01*
X4294333Y-15321428D01*
X4284810Y-15302381D01*
X4275286Y-15264286D01*
X4275286Y-15216667D01*
X4284810Y-15178571D01*
X4294333Y-15159524D01*
X4303857Y-15150000D01*
X4322905Y-15140476D01*
X4513381Y-15140476D02*
X4532429Y-15140476D01*
X4551476Y-15150000D01*
X4561000Y-15159524D01*
X4570524Y-15178571D01*
X4580048Y-15216667D01*
X4580048Y-15264286D01*
X4570524Y-15302381D01*
X4561000Y-15321428D01*
X4551476Y-15330952D01*
X4532429Y-15340476D01*
X4513381Y-15340476D01*
X4494333Y-15330952D01*
X4484810Y-15321428D01*
X4475286Y-15302381D01*
X4465762Y-15264286D01*
X4465762Y-15216667D01*
X4475286Y-15178571D01*
X4484810Y-15159524D01*
X4494333Y-15150000D01*
X4513381Y-15140476D01*
X4665762Y-15340476D02*
X4665762Y-15207143D01*
X4665762Y-15226190D02*
X4675286Y-15216667D01*
X4694333Y-15207143D01*
X4722905Y-15207143D01*
X4741952Y-15216667D01*
X4751476Y-15235714D01*
X4751476Y-15340476D01*
X4751476Y-15235714D02*
X4761000Y-15216667D01*
X4780048Y-15207143D01*
X4808619Y-15207143D01*
X4827667Y-15216667D01*
X4837190Y-15235714D01*
X4837190Y-15340476D01*
X4932429Y-15340476D02*
X4932429Y-15207143D01*
X4932429Y-15226190D02*
X4941952Y-15216667D01*
X4961000Y-15207143D01*
X4989571Y-15207143D01*
X5008619Y-15216667D01*
X5018143Y-15235714D01*
X5018143Y-15340476D01*
X5018143Y-15235714D02*
X5027667Y-15216667D01*
X5046714Y-15207143D01*
X5075286Y-15207143D01*
X5094333Y-15216667D01*
X5103857Y-15235714D01*
X5103857Y-15340476D01*
X5494333Y-15130952D02*
X5322905Y-15388095D01*
X5751476Y-15140476D02*
X5770524Y-15140476D01*
X5789571Y-15150000D01*
X5799095Y-15159524D01*
X5808619Y-15178571D01*
X5818143Y-15216667D01*
X5818143Y-15264286D01*
X5808619Y-15302381D01*
X5799095Y-15321428D01*
X5789571Y-15330952D01*
X5770524Y-15340476D01*
X5751476Y-15340476D01*
X5732428Y-15330952D01*
X5722905Y-15321428D01*
X5713381Y-15302381D01*
X5703857Y-15264286D01*
X5703857Y-15216667D01*
X5713381Y-15178571D01*
X5722905Y-15159524D01*
X5732428Y-15150000D01*
X5751476Y-15140476D01*
X5903857Y-15321428D02*
X5913381Y-15330952D01*
X5903857Y-15340476D01*
X5894333Y-15330952D01*
X5903857Y-15321428D01*
X5903857Y-15340476D01*
X6037190Y-15140476D02*
X6056238Y-15140476D01*
X6075286Y-15150000D01*
X6084809Y-15159524D01*
X6094333Y-15178571D01*
X6103857Y-15216667D01*
X6103857Y-15264286D01*
X6094333Y-15302381D01*
X6084809Y-15321428D01*
X6075286Y-15330952D01*
X6056238Y-15340476D01*
X6037190Y-15340476D01*
X6018143Y-15330952D01*
X6008619Y-15321428D01*
X5999095Y-15302381D01*
X5989571Y-15264286D01*
X5989571Y-15216667D01*
X5999095Y-15178571D01*
X6008619Y-15159524D01*
X6018143Y-15150000D01*
X6037190Y-15140476D01*
X6170524Y-15140476D02*
X6294333Y-15140476D01*
X6227667Y-15216667D01*
X6256238Y-15216667D01*
X6275286Y-15226190D01*
X6284809Y-15235714D01*
X6294333Y-15254762D01*
X6294333Y-15302381D01*
X6284809Y-15321428D01*
X6275286Y-15330952D01*
X6256238Y-15340476D01*
X6199095Y-15340476D01*
X6180048Y-15330952D01*
X6170524Y-15321428D01*
X6484809Y-15340476D02*
X6370524Y-15340476D01*
X6427667Y-15340476D02*
X6427667Y-15140476D01*
X6408619Y-15169048D01*
X6389571Y-15188095D01*
X6370524Y-15197619D01*
X6665762Y-15140476D02*
X6570524Y-15140476D01*
X6561000Y-15235714D01*
X6570524Y-15226190D01*
X6589571Y-15216667D01*
X6637190Y-15216667D01*
X6656238Y-15226190D01*
X6665762Y-15235714D01*
X6675286Y-15254762D01*
X6675286Y-15302381D01*
X6665762Y-15321428D01*
X6656238Y-15330952D01*
X6637190Y-15340476D01*
X6589571Y-15340476D01*
X6570524Y-15330952D01*
X6561000Y-15321428D01*
X6751476Y-15140476D02*
X6751476Y-15178571D01*
X6827667Y-15140476D02*
X6827667Y-15178571D01*
X7122905Y-15416667D02*
X7113381Y-15407143D01*
X7094333Y-15378571D01*
X7084809Y-15359524D01*
X7075286Y-15330952D01*
X7065762Y-15283333D01*
X7065762Y-15245238D01*
X7075286Y-15197619D01*
X7084809Y-15169048D01*
X7094333Y-15150000D01*
X7113381Y-15121428D01*
X7122905Y-15111905D01*
X7189571Y-15159524D02*
X7199095Y-15150000D01*
X7218143Y-15140476D01*
X7265762Y-15140476D01*
X7284809Y-15150000D01*
X7294333Y-15159524D01*
X7303857Y-15178571D01*
X7303857Y-15197619D01*
X7294333Y-15226190D01*
X7180048Y-15340476D01*
X7303857Y-15340476D01*
X7475286Y-15140476D02*
X7437190Y-15140476D01*
X7418143Y-15150000D01*
X7408619Y-15159524D01*
X7389571Y-15188095D01*
X7380048Y-15226190D01*
X7380048Y-15302381D01*
X7389571Y-15321428D01*
X7399095Y-15330952D01*
X7418143Y-15340476D01*
X7456238Y-15340476D01*
X7475286Y-15330952D01*
X7484809Y-15321428D01*
X7494333Y-15302381D01*
X7494333Y-15254762D01*
X7484809Y-15235714D01*
X7475286Y-15226190D01*
X7456238Y-15216667D01*
X7418143Y-15216667D01*
X7399095Y-15226190D01*
X7389571Y-15235714D01*
X7380048Y-15254762D01*
X7732428Y-15340476D02*
X7732428Y-15140476D01*
X7818143Y-15340476D02*
X7818143Y-15235714D01*
X7808619Y-15216667D01*
X7789571Y-15207143D01*
X7761000Y-15207143D01*
X7741952Y-15216667D01*
X7732428Y-15226190D01*
X7941952Y-15340476D02*
X7922905Y-15330952D01*
X7913381Y-15321428D01*
X7903857Y-15302381D01*
X7903857Y-15245238D01*
X7913381Y-15226190D01*
X7922905Y-15216667D01*
X7941952Y-15207143D01*
X7970524Y-15207143D01*
X7989571Y-15216667D01*
X7999095Y-15226190D01*
X8008619Y-15245238D01*
X8008619Y-15302381D01*
X7999095Y-15321428D01*
X7989571Y-15330952D01*
X7970524Y-15340476D01*
X7941952Y-15340476D01*
X8122905Y-15340476D02*
X8103857Y-15330952D01*
X8094333Y-15311905D01*
X8094333Y-15140476D01*
X8275286Y-15330952D02*
X8256238Y-15340476D01*
X8218143Y-15340476D01*
X8199095Y-15330952D01*
X8189571Y-15311905D01*
X8189571Y-15235714D01*
X8199095Y-15216667D01*
X8218143Y-15207143D01*
X8256238Y-15207143D01*
X8275286Y-15216667D01*
X8284809Y-15235714D01*
X8284809Y-15254762D01*
X8189571Y-15273809D01*
X8361000Y-15330952D02*
X8380048Y-15340476D01*
X8418143Y-15340476D01*
X8437190Y-15330952D01*
X8446714Y-15311905D01*
X8446714Y-15302381D01*
X8437190Y-15283333D01*
X8418143Y-15273809D01*
X8389571Y-15273809D01*
X8370524Y-15264286D01*
X8361000Y-15245238D01*
X8361000Y-15235714D01*
X8370524Y-15216667D01*
X8389571Y-15207143D01*
X8418143Y-15207143D01*
X8437190Y-15216667D01*
X8513381Y-15416667D02*
X8522905Y-15407143D01*
X8541952Y-15378571D01*
X8551476Y-15359524D01*
X8561000Y-15330952D01*
X8570524Y-15283333D01*
X8570524Y-15245238D01*
X8561000Y-15197619D01*
X8551476Y-15169048D01*
X8541952Y-15150000D01*
X8522905Y-15121428D01*
X8513381Y-15111905D01*
D13*
X3551000Y-15514000D02*
G75*
G03*
X3551000Y-15514000I-50000J0D01*
G01*
D11*
X3913381Y-15604476D02*
X3799095Y-15604476D01*
X3856238Y-15604476D02*
X3856238Y-15404476D01*
X3837190Y-15433048D01*
X3818143Y-15452095D01*
X3799095Y-15461619D01*
X3999095Y-15585428D02*
X4008619Y-15594952D01*
X3999095Y-15604476D01*
X3989571Y-15594952D01*
X3999095Y-15585428D01*
X3999095Y-15604476D01*
X4132428Y-15404476D02*
X4151476Y-15404476D01*
X4170524Y-15414000D01*
X4180048Y-15423524D01*
X4189571Y-15442571D01*
X4199095Y-15480667D01*
X4199095Y-15528286D01*
X4189571Y-15566381D01*
X4180048Y-15585428D01*
X4170524Y-15594952D01*
X4151476Y-15604476D01*
X4132428Y-15604476D01*
X4113381Y-15594952D01*
X4103857Y-15585428D01*
X4094333Y-15566381D01*
X4084809Y-15528286D01*
X4084809Y-15480667D01*
X4094333Y-15442571D01*
X4103857Y-15423524D01*
X4113381Y-15414000D01*
X4132428Y-15404476D01*
X4322905Y-15404476D02*
X4341952Y-15404476D01*
X4361000Y-15414000D01*
X4370524Y-15423524D01*
X4380048Y-15442571D01*
X4389571Y-15480667D01*
X4389571Y-15528286D01*
X4380048Y-15566381D01*
X4370524Y-15585428D01*
X4361000Y-15594952D01*
X4341952Y-15604476D01*
X4322905Y-15604476D01*
X4303857Y-15594952D01*
X4294333Y-15585428D01*
X4284810Y-15566381D01*
X4275286Y-15528286D01*
X4275286Y-15480667D01*
X4284810Y-15442571D01*
X4294333Y-15423524D01*
X4303857Y-15414000D01*
X4322905Y-15404476D01*
X4513381Y-15404476D02*
X4532429Y-15404476D01*
X4551476Y-15414000D01*
X4561000Y-15423524D01*
X4570524Y-15442571D01*
X4580048Y-15480667D01*
X4580048Y-15528286D01*
X4570524Y-15566381D01*
X4561000Y-15585428D01*
X4551476Y-15594952D01*
X4532429Y-15604476D01*
X4513381Y-15604476D01*
X4494333Y-15594952D01*
X4484810Y-15585428D01*
X4475286Y-15566381D01*
X4465762Y-15528286D01*
X4465762Y-15480667D01*
X4475286Y-15442571D01*
X4484810Y-15423524D01*
X4494333Y-15414000D01*
X4513381Y-15404476D01*
X4665762Y-15604476D02*
X4665762Y-15471143D01*
X4665762Y-15490190D02*
X4675286Y-15480667D01*
X4694333Y-15471143D01*
X4722905Y-15471143D01*
X4741952Y-15480667D01*
X4751476Y-15499714D01*
X4751476Y-15604476D01*
X4751476Y-15499714D02*
X4761000Y-15480667D01*
X4780048Y-15471143D01*
X4808619Y-15471143D01*
X4827667Y-15480667D01*
X4837190Y-15499714D01*
X4837190Y-15604476D01*
X4932429Y-15604476D02*
X4932429Y-15471143D01*
X4932429Y-15490190D02*
X4941952Y-15480667D01*
X4961000Y-15471143D01*
X4989571Y-15471143D01*
X5008619Y-15480667D01*
X5018143Y-15499714D01*
X5018143Y-15604476D01*
X5018143Y-15499714D02*
X5027667Y-15480667D01*
X5046714Y-15471143D01*
X5075286Y-15471143D01*
X5094333Y-15480667D01*
X5103857Y-15499714D01*
X5103857Y-15604476D01*
X5494333Y-15394952D02*
X5322905Y-15652095D01*
X5751476Y-15404476D02*
X5770524Y-15404476D01*
X5789571Y-15414000D01*
X5799095Y-15423524D01*
X5808619Y-15442571D01*
X5818143Y-15480667D01*
X5818143Y-15528286D01*
X5808619Y-15566381D01*
X5799095Y-15585428D01*
X5789571Y-15594952D01*
X5770524Y-15604476D01*
X5751476Y-15604476D01*
X5732428Y-15594952D01*
X5722905Y-15585428D01*
X5713381Y-15566381D01*
X5703857Y-15528286D01*
X5703857Y-15480667D01*
X5713381Y-15442571D01*
X5722905Y-15423524D01*
X5732428Y-15414000D01*
X5751476Y-15404476D01*
X5903857Y-15585428D02*
X5913381Y-15594952D01*
X5903857Y-15604476D01*
X5894333Y-15594952D01*
X5903857Y-15585428D01*
X5903857Y-15604476D01*
X6037190Y-15404476D02*
X6056238Y-15404476D01*
X6075286Y-15414000D01*
X6084809Y-15423524D01*
X6094333Y-15442571D01*
X6103857Y-15480667D01*
X6103857Y-15528286D01*
X6094333Y-15566381D01*
X6084809Y-15585428D01*
X6075286Y-15594952D01*
X6056238Y-15604476D01*
X6037190Y-15604476D01*
X6018143Y-15594952D01*
X6008619Y-15585428D01*
X5999095Y-15566381D01*
X5989571Y-15528286D01*
X5989571Y-15480667D01*
X5999095Y-15442571D01*
X6008619Y-15423524D01*
X6018143Y-15414000D01*
X6037190Y-15404476D01*
X6170524Y-15404476D02*
X6294333Y-15404476D01*
X6227667Y-15480667D01*
X6256238Y-15480667D01*
X6275286Y-15490190D01*
X6284809Y-15499714D01*
X6294333Y-15518762D01*
X6294333Y-15566381D01*
X6284809Y-15585428D01*
X6275286Y-15594952D01*
X6256238Y-15604476D01*
X6199095Y-15604476D01*
X6180048Y-15594952D01*
X6170524Y-15585428D01*
X6389571Y-15604476D02*
X6427667Y-15604476D01*
X6446714Y-15594952D01*
X6456238Y-15585428D01*
X6475286Y-15556857D01*
X6484809Y-15518762D01*
X6484809Y-15442571D01*
X6475286Y-15423524D01*
X6465762Y-15414000D01*
X6446714Y-15404476D01*
X6408619Y-15404476D01*
X6389571Y-15414000D01*
X6380048Y-15423524D01*
X6370524Y-15442571D01*
X6370524Y-15490190D01*
X6380048Y-15509238D01*
X6389571Y-15518762D01*
X6408619Y-15528286D01*
X6446714Y-15528286D01*
X6465762Y-15518762D01*
X6475286Y-15509238D01*
X6484809Y-15490190D01*
X6656238Y-15471143D02*
X6656238Y-15604476D01*
X6608619Y-15394952D02*
X6561000Y-15537809D01*
X6684809Y-15537809D01*
X6751476Y-15404476D02*
X6751476Y-15442571D01*
X6827667Y-15404476D02*
X6827667Y-15442571D01*
X7122905Y-15680667D02*
X7113381Y-15671143D01*
X7094333Y-15642571D01*
X7084809Y-15623524D01*
X7075286Y-15594952D01*
X7065762Y-15547333D01*
X7065762Y-15509238D01*
X7075286Y-15461619D01*
X7084809Y-15433048D01*
X7094333Y-15414000D01*
X7113381Y-15385428D01*
X7122905Y-15375905D01*
X7284809Y-15404476D02*
X7246714Y-15404476D01*
X7227667Y-15414000D01*
X7218143Y-15423524D01*
X7199095Y-15452095D01*
X7189571Y-15490190D01*
X7189571Y-15566381D01*
X7199095Y-15585428D01*
X7208619Y-15594952D01*
X7227667Y-15604476D01*
X7265762Y-15604476D01*
X7284809Y-15594952D01*
X7294333Y-15585428D01*
X7303857Y-15566381D01*
X7303857Y-15518762D01*
X7294333Y-15499714D01*
X7284809Y-15490190D01*
X7265762Y-15480667D01*
X7227667Y-15480667D01*
X7208619Y-15490190D01*
X7199095Y-15499714D01*
X7189571Y-15518762D01*
X7541952Y-15604476D02*
X7541952Y-15404476D01*
X7627667Y-15604476D02*
X7627667Y-15499714D01*
X7618143Y-15480667D01*
X7599095Y-15471143D01*
X7570524Y-15471143D01*
X7551476Y-15480667D01*
X7541952Y-15490190D01*
X7751476Y-15604476D02*
X7732428Y-15594952D01*
X7722905Y-15585428D01*
X7713381Y-15566381D01*
X7713381Y-15509238D01*
X7722905Y-15490190D01*
X7732428Y-15480667D01*
X7751476Y-15471143D01*
X7780048Y-15471143D01*
X7799095Y-15480667D01*
X7808619Y-15490190D01*
X7818143Y-15509238D01*
X7818143Y-15566381D01*
X7808619Y-15585428D01*
X7799095Y-15594952D01*
X7780048Y-15604476D01*
X7751476Y-15604476D01*
X7932428Y-15604476D02*
X7913381Y-15594952D01*
X7903857Y-15575905D01*
X7903857Y-15404476D01*
X8084809Y-15594952D02*
X8065762Y-15604476D01*
X8027667Y-15604476D01*
X8008619Y-15594952D01*
X7999095Y-15575905D01*
X7999095Y-15499714D01*
X8008619Y-15480667D01*
X8027667Y-15471143D01*
X8065762Y-15471143D01*
X8084809Y-15480667D01*
X8094333Y-15499714D01*
X8094333Y-15518762D01*
X7999095Y-15537809D01*
X8170524Y-15594952D02*
X8189571Y-15604476D01*
X8227667Y-15604476D01*
X8246714Y-15594952D01*
X8256238Y-15575905D01*
X8256238Y-15566381D01*
X8246714Y-15547333D01*
X8227667Y-15537809D01*
X8199095Y-15537809D01*
X8180048Y-15528286D01*
X8170524Y-15509238D01*
X8170524Y-15499714D01*
X8180048Y-15480667D01*
X8199095Y-15471143D01*
X8227667Y-15471143D01*
X8246714Y-15480667D01*
X8322905Y-15680667D02*
X8332428Y-15671143D01*
X8351476Y-15642571D01*
X8361000Y-15623524D01*
X8370524Y-15594952D01*
X8380048Y-15547333D01*
X8380048Y-15509238D01*
X8370524Y-15461619D01*
X8361000Y-15433048D01*
X8351476Y-15414000D01*
X8332428Y-15385428D01*
X8322905Y-15375905D01*
D14*
X3496000Y-15723000D02*
X3496000Y-15833000D01*
X3441000Y-15778000D02*
X3551000Y-15778000D01*
D11*
X3913381Y-15868476D02*
X3799095Y-15868476D01*
X3856238Y-15868476D02*
X3856238Y-15668476D01*
X3837190Y-15697048D01*
X3818143Y-15716095D01*
X3799095Y-15725619D01*
X3999095Y-15849428D02*
X4008619Y-15858952D01*
X3999095Y-15868476D01*
X3989571Y-15858952D01*
X3999095Y-15849428D01*
X3999095Y-15868476D01*
X4199095Y-15868476D02*
X4084809Y-15868476D01*
X4141952Y-15868476D02*
X4141952Y-15668476D01*
X4122905Y-15697048D01*
X4103857Y-15716095D01*
X4084809Y-15725619D01*
X4322905Y-15668476D02*
X4341952Y-15668476D01*
X4361000Y-15678000D01*
X4370524Y-15687524D01*
X4380048Y-15706571D01*
X4389571Y-15744667D01*
X4389571Y-15792286D01*
X4380048Y-15830381D01*
X4370524Y-15849428D01*
X4361000Y-15858952D01*
X4341952Y-15868476D01*
X4322905Y-15868476D01*
X4303857Y-15858952D01*
X4294333Y-15849428D01*
X4284810Y-15830381D01*
X4275286Y-15792286D01*
X4275286Y-15744667D01*
X4284810Y-15706571D01*
X4294333Y-15687524D01*
X4303857Y-15678000D01*
X4322905Y-15668476D01*
X4513381Y-15668476D02*
X4532429Y-15668476D01*
X4551476Y-15678000D01*
X4561000Y-15687524D01*
X4570524Y-15706571D01*
X4580048Y-15744667D01*
X4580048Y-15792286D01*
X4570524Y-15830381D01*
X4561000Y-15849428D01*
X4551476Y-15858952D01*
X4532429Y-15868476D01*
X4513381Y-15868476D01*
X4494333Y-15858952D01*
X4484810Y-15849428D01*
X4475286Y-15830381D01*
X4465762Y-15792286D01*
X4465762Y-15744667D01*
X4475286Y-15706571D01*
X4484810Y-15687524D01*
X4494333Y-15678000D01*
X4513381Y-15668476D01*
X4665762Y-15868476D02*
X4665762Y-15735143D01*
X4665762Y-15754190D02*
X4675286Y-15744667D01*
X4694333Y-15735143D01*
X4722905Y-15735143D01*
X4741952Y-15744667D01*
X4751476Y-15763714D01*
X4751476Y-15868476D01*
X4751476Y-15763714D02*
X4761000Y-15744667D01*
X4780048Y-15735143D01*
X4808619Y-15735143D01*
X4827667Y-15744667D01*
X4837190Y-15763714D01*
X4837190Y-15868476D01*
X4932429Y-15868476D02*
X4932429Y-15735143D01*
X4932429Y-15754190D02*
X4941952Y-15744667D01*
X4961000Y-15735143D01*
X4989571Y-15735143D01*
X5008619Y-15744667D01*
X5018143Y-15763714D01*
X5018143Y-15868476D01*
X5018143Y-15763714D02*
X5027667Y-15744667D01*
X5046714Y-15735143D01*
X5075286Y-15735143D01*
X5094333Y-15744667D01*
X5103857Y-15763714D01*
X5103857Y-15868476D01*
X5494333Y-15658952D02*
X5322905Y-15916095D01*
X5751476Y-15668476D02*
X5770524Y-15668476D01*
X5789571Y-15678000D01*
X5799095Y-15687524D01*
X5808619Y-15706571D01*
X5818143Y-15744667D01*
X5818143Y-15792286D01*
X5808619Y-15830381D01*
X5799095Y-15849428D01*
X5789571Y-15858952D01*
X5770524Y-15868476D01*
X5751476Y-15868476D01*
X5732428Y-15858952D01*
X5722905Y-15849428D01*
X5713381Y-15830381D01*
X5703857Y-15792286D01*
X5703857Y-15744667D01*
X5713381Y-15706571D01*
X5722905Y-15687524D01*
X5732428Y-15678000D01*
X5751476Y-15668476D01*
X5903857Y-15849428D02*
X5913381Y-15858952D01*
X5903857Y-15868476D01*
X5894333Y-15858952D01*
X5903857Y-15849428D01*
X5903857Y-15868476D01*
X6037190Y-15668476D02*
X6056238Y-15668476D01*
X6075286Y-15678000D01*
X6084809Y-15687524D01*
X6094333Y-15706571D01*
X6103857Y-15744667D01*
X6103857Y-15792286D01*
X6094333Y-15830381D01*
X6084809Y-15849428D01*
X6075286Y-15858952D01*
X6056238Y-15868476D01*
X6037190Y-15868476D01*
X6018143Y-15858952D01*
X6008619Y-15849428D01*
X5999095Y-15830381D01*
X5989571Y-15792286D01*
X5989571Y-15744667D01*
X5999095Y-15706571D01*
X6008619Y-15687524D01*
X6018143Y-15678000D01*
X6037190Y-15668476D01*
X6275286Y-15735143D02*
X6275286Y-15868476D01*
X6227667Y-15658952D02*
X6180048Y-15801809D01*
X6303857Y-15801809D01*
X6361000Y-15668476D02*
X6484809Y-15668476D01*
X6418143Y-15744667D01*
X6446714Y-15744667D01*
X6465762Y-15754190D01*
X6475286Y-15763714D01*
X6484809Y-15782762D01*
X6484809Y-15830381D01*
X6475286Y-15849428D01*
X6465762Y-15858952D01*
X6446714Y-15868476D01*
X6389571Y-15868476D01*
X6370524Y-15858952D01*
X6361000Y-15849428D01*
X6551476Y-15668476D02*
X6675286Y-15668476D01*
X6608619Y-15744667D01*
X6637190Y-15744667D01*
X6656238Y-15754190D01*
X6665762Y-15763714D01*
X6675286Y-15782762D01*
X6675286Y-15830381D01*
X6665762Y-15849428D01*
X6656238Y-15858952D01*
X6637190Y-15868476D01*
X6580048Y-15868476D01*
X6561000Y-15858952D01*
X6551476Y-15849428D01*
X6751476Y-15668476D02*
X6751476Y-15706571D01*
X6827667Y-15668476D02*
X6827667Y-15706571D01*
X7122905Y-15944667D02*
X7113381Y-15935143D01*
X7094333Y-15906571D01*
X7084809Y-15887524D01*
X7075286Y-15858952D01*
X7065762Y-15811333D01*
X7065762Y-15773238D01*
X7075286Y-15725619D01*
X7084809Y-15697048D01*
X7094333Y-15678000D01*
X7113381Y-15649428D01*
X7122905Y-15639905D01*
X7303857Y-15868476D02*
X7189571Y-15868476D01*
X7246714Y-15868476D02*
X7246714Y-15668476D01*
X7227667Y-15697048D01*
X7208619Y-15716095D01*
X7189571Y-15725619D01*
X7475286Y-15668476D02*
X7437190Y-15668476D01*
X7418143Y-15678000D01*
X7408619Y-15687524D01*
X7389571Y-15716095D01*
X7380048Y-15754190D01*
X7380048Y-15830381D01*
X7389571Y-15849428D01*
X7399095Y-15858952D01*
X7418143Y-15868476D01*
X7456238Y-15868476D01*
X7475286Y-15858952D01*
X7484809Y-15849428D01*
X7494333Y-15830381D01*
X7494333Y-15782762D01*
X7484809Y-15763714D01*
X7475286Y-15754190D01*
X7456238Y-15744667D01*
X7418143Y-15744667D01*
X7399095Y-15754190D01*
X7389571Y-15763714D01*
X7380048Y-15782762D01*
X7732428Y-15868476D02*
X7732428Y-15668476D01*
X7818143Y-15868476D02*
X7818143Y-15763714D01*
X7808619Y-15744667D01*
X7789571Y-15735143D01*
X7761000Y-15735143D01*
X7741952Y-15744667D01*
X7732428Y-15754190D01*
X7941952Y-15868476D02*
X7922905Y-15858952D01*
X7913381Y-15849428D01*
X7903857Y-15830381D01*
X7903857Y-15773238D01*
X7913381Y-15754190D01*
X7922905Y-15744667D01*
X7941952Y-15735143D01*
X7970524Y-15735143D01*
X7989571Y-15744667D01*
X7999095Y-15754190D01*
X8008619Y-15773238D01*
X8008619Y-15830381D01*
X7999095Y-15849428D01*
X7989571Y-15858952D01*
X7970524Y-15868476D01*
X7941952Y-15868476D01*
X8122905Y-15868476D02*
X8103857Y-15858952D01*
X8094333Y-15839905D01*
X8094333Y-15668476D01*
X8275286Y-15858952D02*
X8256238Y-15868476D01*
X8218143Y-15868476D01*
X8199095Y-15858952D01*
X8189571Y-15839905D01*
X8189571Y-15763714D01*
X8199095Y-15744667D01*
X8218143Y-15735143D01*
X8256238Y-15735143D01*
X8275286Y-15744667D01*
X8284809Y-15763714D01*
X8284809Y-15782762D01*
X8189571Y-15801809D01*
X8361000Y-15858952D02*
X8380048Y-15868476D01*
X8418143Y-15868476D01*
X8437190Y-15858952D01*
X8446714Y-15839905D01*
X8446714Y-15830381D01*
X8437190Y-15811333D01*
X8418143Y-15801809D01*
X8389571Y-15801809D01*
X8370524Y-15792286D01*
X8361000Y-15773238D01*
X8361000Y-15763714D01*
X8370524Y-15744667D01*
X8389571Y-15735143D01*
X8418143Y-15735143D01*
X8437190Y-15744667D01*
X8513381Y-15944667D02*
X8522905Y-15935143D01*
X8541952Y-15906571D01*
X8551476Y-15887524D01*
X8561000Y-15858952D01*
X8570524Y-15811333D01*
X8570524Y-15773238D01*
X8561000Y-15725619D01*
X8551476Y-15697048D01*
X8541952Y-15678000D01*
X8522905Y-15649428D01*
X8513381Y-15639905D01*
D15*
X3533427Y-16084427D02*
X3533427Y-15999573D01*
X3448573Y-15999573D01*
X3448573Y-16084427D01*
X3533427Y-16084427D01*
D11*
X3913381Y-16132476D02*
X3799095Y-16132476D01*
X3856238Y-16132476D02*
X3856238Y-15932476D01*
X3837190Y-15961048D01*
X3818143Y-15980095D01*
X3799095Y-15989619D01*
X3999095Y-16113428D02*
X4008619Y-16122952D01*
X3999095Y-16132476D01*
X3989571Y-16122952D01*
X3999095Y-16113428D01*
X3999095Y-16132476D01*
X4084809Y-15951524D02*
X4094333Y-15942000D01*
X4113381Y-15932476D01*
X4161000Y-15932476D01*
X4180048Y-15942000D01*
X4189571Y-15951524D01*
X4199095Y-15970571D01*
X4199095Y-15989619D01*
X4189571Y-16018190D01*
X4075286Y-16132476D01*
X4199095Y-16132476D01*
X4322905Y-15932476D02*
X4341952Y-15932476D01*
X4361000Y-15942000D01*
X4370524Y-15951524D01*
X4380048Y-15970571D01*
X4389571Y-16008667D01*
X4389571Y-16056286D01*
X4380048Y-16094381D01*
X4370524Y-16113428D01*
X4361000Y-16122952D01*
X4341952Y-16132476D01*
X4322905Y-16132476D01*
X4303857Y-16122952D01*
X4294333Y-16113428D01*
X4284810Y-16094381D01*
X4275286Y-16056286D01*
X4275286Y-16008667D01*
X4284810Y-15970571D01*
X4294333Y-15951524D01*
X4303857Y-15942000D01*
X4322905Y-15932476D01*
X4513381Y-15932476D02*
X4532429Y-15932476D01*
X4551476Y-15942000D01*
X4561000Y-15951524D01*
X4570524Y-15970571D01*
X4580048Y-16008667D01*
X4580048Y-16056286D01*
X4570524Y-16094381D01*
X4561000Y-16113428D01*
X4551476Y-16122952D01*
X4532429Y-16132476D01*
X4513381Y-16132476D01*
X4494333Y-16122952D01*
X4484810Y-16113428D01*
X4475286Y-16094381D01*
X4465762Y-16056286D01*
X4465762Y-16008667D01*
X4475286Y-15970571D01*
X4484810Y-15951524D01*
X4494333Y-15942000D01*
X4513381Y-15932476D01*
X4665762Y-16132476D02*
X4665762Y-15999143D01*
X4665762Y-16018190D02*
X4675286Y-16008667D01*
X4694333Y-15999143D01*
X4722905Y-15999143D01*
X4741952Y-16008667D01*
X4751476Y-16027714D01*
X4751476Y-16132476D01*
X4751476Y-16027714D02*
X4761000Y-16008667D01*
X4780048Y-15999143D01*
X4808619Y-15999143D01*
X4827667Y-16008667D01*
X4837190Y-16027714D01*
X4837190Y-16132476D01*
X4932429Y-16132476D02*
X4932429Y-15999143D01*
X4932429Y-16018190D02*
X4941952Y-16008667D01*
X4961000Y-15999143D01*
X4989571Y-15999143D01*
X5008619Y-16008667D01*
X5018143Y-16027714D01*
X5018143Y-16132476D01*
X5018143Y-16027714D02*
X5027667Y-16008667D01*
X5046714Y-15999143D01*
X5075286Y-15999143D01*
X5094333Y-16008667D01*
X5103857Y-16027714D01*
X5103857Y-16132476D01*
X5494333Y-15922952D02*
X5322905Y-16180095D01*
X5751476Y-15932476D02*
X5770524Y-15932476D01*
X5789571Y-15942000D01*
X5799095Y-15951524D01*
X5808619Y-15970571D01*
X5818143Y-16008667D01*
X5818143Y-16056286D01*
X5808619Y-16094381D01*
X5799095Y-16113428D01*
X5789571Y-16122952D01*
X5770524Y-16132476D01*
X5751476Y-16132476D01*
X5732428Y-16122952D01*
X5722905Y-16113428D01*
X5713381Y-16094381D01*
X5703857Y-16056286D01*
X5703857Y-16008667D01*
X5713381Y-15970571D01*
X5722905Y-15951524D01*
X5732428Y-15942000D01*
X5751476Y-15932476D01*
X5903857Y-16113428D02*
X5913381Y-16122952D01*
X5903857Y-16132476D01*
X5894333Y-16122952D01*
X5903857Y-16113428D01*
X5903857Y-16132476D01*
X6037190Y-15932476D02*
X6056238Y-15932476D01*
X6075286Y-15942000D01*
X6084809Y-15951524D01*
X6094333Y-15970571D01*
X6103857Y-16008667D01*
X6103857Y-16056286D01*
X6094333Y-16094381D01*
X6084809Y-16113428D01*
X6075286Y-16122952D01*
X6056238Y-16132476D01*
X6037190Y-16132476D01*
X6018143Y-16122952D01*
X6008619Y-16113428D01*
X5999095Y-16094381D01*
X5989571Y-16056286D01*
X5989571Y-16008667D01*
X5999095Y-15970571D01*
X6008619Y-15951524D01*
X6018143Y-15942000D01*
X6037190Y-15932476D01*
X6275286Y-15999143D02*
X6275286Y-16132476D01*
X6227667Y-15922952D02*
X6180048Y-16065809D01*
X6303857Y-16065809D01*
X6361000Y-15932476D02*
X6494333Y-15932476D01*
X6408619Y-16132476D01*
X6561000Y-15951524D02*
X6570524Y-15942000D01*
X6589571Y-15932476D01*
X6637190Y-15932476D01*
X6656238Y-15942000D01*
X6665762Y-15951524D01*
X6675286Y-15970571D01*
X6675286Y-15989619D01*
X6665762Y-16018190D01*
X6551476Y-16132476D01*
X6675286Y-16132476D01*
X6751476Y-15932476D02*
X6751476Y-15970571D01*
X6827667Y-15932476D02*
X6827667Y-15970571D01*
X7122905Y-16208667D02*
X7113381Y-16199143D01*
X7094333Y-16170571D01*
X7084809Y-16151524D01*
X7075286Y-16122952D01*
X7065762Y-16075333D01*
X7065762Y-16037238D01*
X7075286Y-15989619D01*
X7084809Y-15961048D01*
X7094333Y-15942000D01*
X7113381Y-15913428D01*
X7122905Y-15903905D01*
X7294333Y-15932476D02*
X7199095Y-15932476D01*
X7189571Y-16027714D01*
X7199095Y-16018190D01*
X7218143Y-16008667D01*
X7265762Y-16008667D01*
X7284809Y-16018190D01*
X7294333Y-16027714D01*
X7303857Y-16046762D01*
X7303857Y-16094381D01*
X7294333Y-16113428D01*
X7284809Y-16122952D01*
X7265762Y-16132476D01*
X7218143Y-16132476D01*
X7199095Y-16122952D01*
X7189571Y-16113428D01*
X7370524Y-15932476D02*
X7494333Y-15932476D01*
X7427667Y-16008667D01*
X7456238Y-16008667D01*
X7475286Y-16018190D01*
X7484809Y-16027714D01*
X7494333Y-16046762D01*
X7494333Y-16094381D01*
X7484809Y-16113428D01*
X7475286Y-16122952D01*
X7456238Y-16132476D01*
X7399095Y-16132476D01*
X7380048Y-16122952D01*
X7370524Y-16113428D01*
X7732428Y-16132476D02*
X7732428Y-15932476D01*
X7818143Y-16132476D02*
X7818143Y-16027714D01*
X7808619Y-16008667D01*
X7789571Y-15999143D01*
X7761000Y-15999143D01*
X7741952Y-16008667D01*
X7732428Y-16018190D01*
X7941952Y-16132476D02*
X7922905Y-16122952D01*
X7913381Y-16113428D01*
X7903857Y-16094381D01*
X7903857Y-16037238D01*
X7913381Y-16018190D01*
X7922905Y-16008667D01*
X7941952Y-15999143D01*
X7970524Y-15999143D01*
X7989571Y-16008667D01*
X7999095Y-16018190D01*
X8008619Y-16037238D01*
X8008619Y-16094381D01*
X7999095Y-16113428D01*
X7989571Y-16122952D01*
X7970524Y-16132476D01*
X7941952Y-16132476D01*
X8122905Y-16132476D02*
X8103857Y-16122952D01*
X8094333Y-16103905D01*
X8094333Y-15932476D01*
X8275286Y-16122952D02*
X8256238Y-16132476D01*
X8218143Y-16132476D01*
X8199095Y-16122952D01*
X8189571Y-16103905D01*
X8189571Y-16027714D01*
X8199095Y-16008667D01*
X8218143Y-15999143D01*
X8256238Y-15999143D01*
X8275286Y-16008667D01*
X8284809Y-16027714D01*
X8284809Y-16046762D01*
X8189571Y-16065809D01*
X8361000Y-16122952D02*
X8380048Y-16132476D01*
X8418143Y-16132476D01*
X8437190Y-16122952D01*
X8446714Y-16103905D01*
X8446714Y-16094381D01*
X8437190Y-16075333D01*
X8418143Y-16065809D01*
X8389571Y-16065809D01*
X8370524Y-16056286D01*
X8361000Y-16037238D01*
X8361000Y-16027714D01*
X8370524Y-16008667D01*
X8389571Y-15999143D01*
X8418143Y-15999143D01*
X8437190Y-16008667D01*
X8513381Y-16208667D02*
X8522905Y-16199143D01*
X8541952Y-16170571D01*
X8551476Y-16151524D01*
X8561000Y-16122952D01*
X8570524Y-16075333D01*
X8570524Y-16037238D01*
X8561000Y-15989619D01*
X8551476Y-15961048D01*
X8541952Y-15942000D01*
X8522905Y-15913428D01*
X8513381Y-15903905D01*
D16*
X3486000Y-16371000D02*
X3551000Y-16306000D01*
X3486000Y-16241000D01*
X3421000Y-16306000D01*
X3486000Y-16371000D01*
D11*
X3913381Y-16396476D02*
X3799095Y-16396476D01*
X3856238Y-16396476D02*
X3856238Y-16196476D01*
X3837190Y-16225048D01*
X3818143Y-16244095D01*
X3799095Y-16253619D01*
X3999095Y-16377428D02*
X4008619Y-16386952D01*
X3999095Y-16396476D01*
X3989571Y-16386952D01*
X3999095Y-16377428D01*
X3999095Y-16396476D01*
X4075286Y-16196476D02*
X4199095Y-16196476D01*
X4132428Y-16272667D01*
X4161000Y-16272667D01*
X4180048Y-16282190D01*
X4189571Y-16291714D01*
X4199095Y-16310762D01*
X4199095Y-16358381D01*
X4189571Y-16377428D01*
X4180048Y-16386952D01*
X4161000Y-16396476D01*
X4103857Y-16396476D01*
X4084809Y-16386952D01*
X4075286Y-16377428D01*
X4322905Y-16196476D02*
X4341952Y-16196476D01*
X4361000Y-16206000D01*
X4370524Y-16215524D01*
X4380048Y-16234571D01*
X4389571Y-16272667D01*
X4389571Y-16320286D01*
X4380048Y-16358381D01*
X4370524Y-16377428D01*
X4361000Y-16386952D01*
X4341952Y-16396476D01*
X4322905Y-16396476D01*
X4303857Y-16386952D01*
X4294333Y-16377428D01*
X4284810Y-16358381D01*
X4275286Y-16320286D01*
X4275286Y-16272667D01*
X4284810Y-16234571D01*
X4294333Y-16215524D01*
X4303857Y-16206000D01*
X4322905Y-16196476D01*
X4513381Y-16196476D02*
X4532429Y-16196476D01*
X4551476Y-16206000D01*
X4561000Y-16215524D01*
X4570524Y-16234571D01*
X4580048Y-16272667D01*
X4580048Y-16320286D01*
X4570524Y-16358381D01*
X4561000Y-16377428D01*
X4551476Y-16386952D01*
X4532429Y-16396476D01*
X4513381Y-16396476D01*
X4494333Y-16386952D01*
X4484810Y-16377428D01*
X4475286Y-16358381D01*
X4465762Y-16320286D01*
X4465762Y-16272667D01*
X4475286Y-16234571D01*
X4484810Y-16215524D01*
X4494333Y-16206000D01*
X4513381Y-16196476D01*
X4665762Y-16396476D02*
X4665762Y-16263143D01*
X4665762Y-16282190D02*
X4675286Y-16272667D01*
X4694333Y-16263143D01*
X4722905Y-16263143D01*
X4741952Y-16272667D01*
X4751476Y-16291714D01*
X4751476Y-16396476D01*
X4751476Y-16291714D02*
X4761000Y-16272667D01*
X4780048Y-16263143D01*
X4808619Y-16263143D01*
X4827667Y-16272667D01*
X4837190Y-16291714D01*
X4837190Y-16396476D01*
X4932429Y-16396476D02*
X4932429Y-16263143D01*
X4932429Y-16282190D02*
X4941952Y-16272667D01*
X4961000Y-16263143D01*
X4989571Y-16263143D01*
X5008619Y-16272667D01*
X5018143Y-16291714D01*
X5018143Y-16396476D01*
X5018143Y-16291714D02*
X5027667Y-16272667D01*
X5046714Y-16263143D01*
X5075286Y-16263143D01*
X5094333Y-16272667D01*
X5103857Y-16291714D01*
X5103857Y-16396476D01*
X5494333Y-16186952D02*
X5322905Y-16444095D01*
X5751476Y-16196476D02*
X5770524Y-16196476D01*
X5789571Y-16206000D01*
X5799095Y-16215524D01*
X5808619Y-16234571D01*
X5818143Y-16272667D01*
X5818143Y-16320286D01*
X5808619Y-16358381D01*
X5799095Y-16377428D01*
X5789571Y-16386952D01*
X5770524Y-16396476D01*
X5751476Y-16396476D01*
X5732428Y-16386952D01*
X5722905Y-16377428D01*
X5713381Y-16358381D01*
X5703857Y-16320286D01*
X5703857Y-16272667D01*
X5713381Y-16234571D01*
X5722905Y-16215524D01*
X5732428Y-16206000D01*
X5751476Y-16196476D01*
X5903857Y-16377428D02*
X5913381Y-16386952D01*
X5903857Y-16396476D01*
X5894333Y-16386952D01*
X5903857Y-16377428D01*
X5903857Y-16396476D01*
X6037190Y-16196476D02*
X6056238Y-16196476D01*
X6075286Y-16206000D01*
X6084809Y-16215524D01*
X6094333Y-16234571D01*
X6103857Y-16272667D01*
X6103857Y-16320286D01*
X6094333Y-16358381D01*
X6084809Y-16377428D01*
X6075286Y-16386952D01*
X6056238Y-16396476D01*
X6037190Y-16396476D01*
X6018143Y-16386952D01*
X6008619Y-16377428D01*
X5999095Y-16358381D01*
X5989571Y-16320286D01*
X5989571Y-16272667D01*
X5999095Y-16234571D01*
X6008619Y-16215524D01*
X6018143Y-16206000D01*
X6037190Y-16196476D01*
X6284809Y-16196476D02*
X6189571Y-16196476D01*
X6180048Y-16291714D01*
X6189571Y-16282190D01*
X6208619Y-16272667D01*
X6256238Y-16272667D01*
X6275286Y-16282190D01*
X6284809Y-16291714D01*
X6294333Y-16310762D01*
X6294333Y-16358381D01*
X6284809Y-16377428D01*
X6275286Y-16386952D01*
X6256238Y-16396476D01*
X6208619Y-16396476D01*
X6189571Y-16386952D01*
X6180048Y-16377428D01*
X6484809Y-16396476D02*
X6370524Y-16396476D01*
X6427667Y-16396476D02*
X6427667Y-16196476D01*
X6408619Y-16225048D01*
X6389571Y-16244095D01*
X6370524Y-16253619D01*
X6561000Y-16215524D02*
X6570524Y-16206000D01*
X6589571Y-16196476D01*
X6637190Y-16196476D01*
X6656238Y-16206000D01*
X6665762Y-16215524D01*
X6675286Y-16234571D01*
X6675286Y-16253619D01*
X6665762Y-16282190D01*
X6551476Y-16396476D01*
X6675286Y-16396476D01*
X6751476Y-16196476D02*
X6751476Y-16234571D01*
X6827667Y-16196476D02*
X6827667Y-16234571D01*
X7122905Y-16472667D02*
X7113381Y-16463143D01*
X7094333Y-16434571D01*
X7084809Y-16415524D01*
X7075286Y-16386952D01*
X7065762Y-16339333D01*
X7065762Y-16301238D01*
X7075286Y-16253619D01*
X7084809Y-16225048D01*
X7094333Y-16206000D01*
X7113381Y-16177428D01*
X7122905Y-16167905D01*
X7189571Y-16215524D02*
X7199095Y-16206000D01*
X7218143Y-16196476D01*
X7265762Y-16196476D01*
X7284809Y-16206000D01*
X7294333Y-16215524D01*
X7303857Y-16234571D01*
X7303857Y-16253619D01*
X7294333Y-16282190D01*
X7180048Y-16396476D01*
X7303857Y-16396476D01*
X7541952Y-16396476D02*
X7541952Y-16196476D01*
X7627667Y-16396476D02*
X7627667Y-16291714D01*
X7618143Y-16272667D01*
X7599095Y-16263143D01*
X7570524Y-16263143D01*
X7551476Y-16272667D01*
X7541952Y-16282190D01*
X7751476Y-16396476D02*
X7732428Y-16386952D01*
X7722905Y-16377428D01*
X7713381Y-16358381D01*
X7713381Y-16301238D01*
X7722905Y-16282190D01*
X7732428Y-16272667D01*
X7751476Y-16263143D01*
X7780048Y-16263143D01*
X7799095Y-16272667D01*
X7808619Y-16282190D01*
X7818143Y-16301238D01*
X7818143Y-16358381D01*
X7808619Y-16377428D01*
X7799095Y-16386952D01*
X7780048Y-16396476D01*
X7751476Y-16396476D01*
X7932428Y-16396476D02*
X7913381Y-16386952D01*
X7903857Y-16367905D01*
X7903857Y-16196476D01*
X8084809Y-16386952D02*
X8065762Y-16396476D01*
X8027667Y-16396476D01*
X8008619Y-16386952D01*
X7999095Y-16367905D01*
X7999095Y-16291714D01*
X8008619Y-16272667D01*
X8027667Y-16263143D01*
X8065762Y-16263143D01*
X8084809Y-16272667D01*
X8094333Y-16291714D01*
X8094333Y-16310762D01*
X7999095Y-16329809D01*
X8170524Y-16386952D02*
X8189571Y-16396476D01*
X8227667Y-16396476D01*
X8246714Y-16386952D01*
X8256238Y-16367905D01*
X8256238Y-16358381D01*
X8246714Y-16339333D01*
X8227667Y-16329809D01*
X8199095Y-16329809D01*
X8180048Y-16320286D01*
X8170524Y-16301238D01*
X8170524Y-16291714D01*
X8180048Y-16272667D01*
X8199095Y-16263143D01*
X8227667Y-16263143D01*
X8246714Y-16272667D01*
X8322905Y-16472667D02*
X8332428Y-16463143D01*
X8351476Y-16434571D01*
X8361000Y-16415524D01*
X8370524Y-16386952D01*
X8380048Y-16339333D01*
X8380048Y-16301238D01*
X8370524Y-16253619D01*
X8361000Y-16225048D01*
X8351476Y-16206000D01*
X8332428Y-16177428D01*
X8322905Y-16167905D01*
D17*
X3396000Y-16492500D02*
X3551000Y-16647500D01*
X3551000Y-16492500D02*
X3396000Y-16647500D01*
X3551000Y-16570000D02*
G75*
G03*
X3551000Y-16570000I-77500J0D01*
G01*
D11*
X3913381Y-16660476D02*
X3799095Y-16660476D01*
X3856238Y-16660476D02*
X3856238Y-16460476D01*
X3837190Y-16489048D01*
X3818143Y-16508095D01*
X3799095Y-16517619D01*
X3999095Y-16641428D02*
X4008619Y-16650952D01*
X3999095Y-16660476D01*
X3989571Y-16650952D01*
X3999095Y-16641428D01*
X3999095Y-16660476D01*
X4189571Y-16460476D02*
X4094333Y-16460476D01*
X4084809Y-16555714D01*
X4094333Y-16546190D01*
X4113381Y-16536667D01*
X4161000Y-16536667D01*
X4180048Y-16546190D01*
X4189571Y-16555714D01*
X4199095Y-16574762D01*
X4199095Y-16622381D01*
X4189571Y-16641428D01*
X4180048Y-16650952D01*
X4161000Y-16660476D01*
X4113381Y-16660476D01*
X4094333Y-16650952D01*
X4084809Y-16641428D01*
X4380048Y-16460476D02*
X4284810Y-16460476D01*
X4275286Y-16555714D01*
X4284810Y-16546190D01*
X4303857Y-16536667D01*
X4351476Y-16536667D01*
X4370524Y-16546190D01*
X4380048Y-16555714D01*
X4389571Y-16574762D01*
X4389571Y-16622381D01*
X4380048Y-16641428D01*
X4370524Y-16650952D01*
X4351476Y-16660476D01*
X4303857Y-16660476D01*
X4284810Y-16650952D01*
X4275286Y-16641428D01*
X4513381Y-16460476D02*
X4532429Y-16460476D01*
X4551476Y-16470000D01*
X4561000Y-16479524D01*
X4570524Y-16498571D01*
X4580048Y-16536667D01*
X4580048Y-16584286D01*
X4570524Y-16622381D01*
X4561000Y-16641428D01*
X4551476Y-16650952D01*
X4532429Y-16660476D01*
X4513381Y-16660476D01*
X4494333Y-16650952D01*
X4484810Y-16641428D01*
X4475286Y-16622381D01*
X4465762Y-16584286D01*
X4465762Y-16536667D01*
X4475286Y-16498571D01*
X4484810Y-16479524D01*
X4494333Y-16470000D01*
X4513381Y-16460476D01*
X4665762Y-16660476D02*
X4665762Y-16527143D01*
X4665762Y-16546190D02*
X4675286Y-16536667D01*
X4694333Y-16527143D01*
X4722905Y-16527143D01*
X4741952Y-16536667D01*
X4751476Y-16555714D01*
X4751476Y-16660476D01*
X4751476Y-16555714D02*
X4761000Y-16536667D01*
X4780048Y-16527143D01*
X4808619Y-16527143D01*
X4827667Y-16536667D01*
X4837190Y-16555714D01*
X4837190Y-16660476D01*
X4932429Y-16660476D02*
X4932429Y-16527143D01*
X4932429Y-16546190D02*
X4941952Y-16536667D01*
X4961000Y-16527143D01*
X4989571Y-16527143D01*
X5008619Y-16536667D01*
X5018143Y-16555714D01*
X5018143Y-16660476D01*
X5018143Y-16555714D02*
X5027667Y-16536667D01*
X5046714Y-16527143D01*
X5075286Y-16527143D01*
X5094333Y-16536667D01*
X5103857Y-16555714D01*
X5103857Y-16660476D01*
X5494333Y-16450952D02*
X5322905Y-16708095D01*
X5751476Y-16460476D02*
X5770524Y-16460476D01*
X5789571Y-16470000D01*
X5799095Y-16479524D01*
X5808619Y-16498571D01*
X5818143Y-16536667D01*
X5818143Y-16584286D01*
X5808619Y-16622381D01*
X5799095Y-16641428D01*
X5789571Y-16650952D01*
X5770524Y-16660476D01*
X5751476Y-16660476D01*
X5732428Y-16650952D01*
X5722905Y-16641428D01*
X5713381Y-16622381D01*
X5703857Y-16584286D01*
X5703857Y-16536667D01*
X5713381Y-16498571D01*
X5722905Y-16479524D01*
X5732428Y-16470000D01*
X5751476Y-16460476D01*
X5903857Y-16641428D02*
X5913381Y-16650952D01*
X5903857Y-16660476D01*
X5894333Y-16650952D01*
X5903857Y-16641428D01*
X5903857Y-16660476D01*
X6037190Y-16460476D02*
X6056238Y-16460476D01*
X6075286Y-16470000D01*
X6084809Y-16479524D01*
X6094333Y-16498571D01*
X6103857Y-16536667D01*
X6103857Y-16584286D01*
X6094333Y-16622381D01*
X6084809Y-16641428D01*
X6075286Y-16650952D01*
X6056238Y-16660476D01*
X6037190Y-16660476D01*
X6018143Y-16650952D01*
X6008619Y-16641428D01*
X5999095Y-16622381D01*
X5989571Y-16584286D01*
X5989571Y-16536667D01*
X5999095Y-16498571D01*
X6008619Y-16479524D01*
X6018143Y-16470000D01*
X6037190Y-16460476D01*
X6275286Y-16460476D02*
X6237190Y-16460476D01*
X6218143Y-16470000D01*
X6208619Y-16479524D01*
X6189571Y-16508095D01*
X6180048Y-16546190D01*
X6180048Y-16622381D01*
X6189571Y-16641428D01*
X6199095Y-16650952D01*
X6218143Y-16660476D01*
X6256238Y-16660476D01*
X6275286Y-16650952D01*
X6284809Y-16641428D01*
X6294333Y-16622381D01*
X6294333Y-16574762D01*
X6284809Y-16555714D01*
X6275286Y-16546190D01*
X6256238Y-16536667D01*
X6218143Y-16536667D01*
X6199095Y-16546190D01*
X6189571Y-16555714D01*
X6180048Y-16574762D01*
X6484809Y-16660476D02*
X6370524Y-16660476D01*
X6427667Y-16660476D02*
X6427667Y-16460476D01*
X6408619Y-16489048D01*
X6389571Y-16508095D01*
X6370524Y-16517619D01*
X6608619Y-16460476D02*
X6627667Y-16460476D01*
X6646714Y-16470000D01*
X6656238Y-16479524D01*
X6665762Y-16498571D01*
X6675286Y-16536667D01*
X6675286Y-16584286D01*
X6665762Y-16622381D01*
X6656238Y-16641428D01*
X6646714Y-16650952D01*
X6627667Y-16660476D01*
X6608619Y-16660476D01*
X6589571Y-16650952D01*
X6580048Y-16641428D01*
X6570524Y-16622381D01*
X6561000Y-16584286D01*
X6561000Y-16536667D01*
X6570524Y-16498571D01*
X6580048Y-16479524D01*
X6589571Y-16470000D01*
X6608619Y-16460476D01*
X6751476Y-16460476D02*
X6751476Y-16498571D01*
X6827667Y-16460476D02*
X6827667Y-16498571D01*
X7122905Y-16736667D02*
X7113381Y-16727143D01*
X7094333Y-16698571D01*
X7084809Y-16679524D01*
X7075286Y-16650952D01*
X7065762Y-16603333D01*
X7065762Y-16565238D01*
X7075286Y-16517619D01*
X7084809Y-16489048D01*
X7094333Y-16470000D01*
X7113381Y-16441428D01*
X7122905Y-16431905D01*
X7303857Y-16660476D02*
X7189571Y-16660476D01*
X7246714Y-16660476D02*
X7246714Y-16460476D01*
X7227667Y-16489048D01*
X7208619Y-16508095D01*
X7189571Y-16517619D01*
X7370524Y-16460476D02*
X7503857Y-16460476D01*
X7418143Y-16660476D01*
X7732428Y-16660476D02*
X7732428Y-16460476D01*
X7818143Y-16660476D02*
X7818143Y-16555714D01*
X7808619Y-16536667D01*
X7789571Y-16527143D01*
X7761000Y-16527143D01*
X7741952Y-16536667D01*
X7732428Y-16546190D01*
X7941952Y-16660476D02*
X7922905Y-16650952D01*
X7913381Y-16641428D01*
X7903857Y-16622381D01*
X7903857Y-16565238D01*
X7913381Y-16546190D01*
X7922905Y-16536667D01*
X7941952Y-16527143D01*
X7970524Y-16527143D01*
X7989571Y-16536667D01*
X7999095Y-16546190D01*
X8008619Y-16565238D01*
X8008619Y-16622381D01*
X7999095Y-16641428D01*
X7989571Y-16650952D01*
X7970524Y-16660476D01*
X7941952Y-16660476D01*
X8122905Y-16660476D02*
X8103857Y-16650952D01*
X8094333Y-16631905D01*
X8094333Y-16460476D01*
X8275286Y-16650952D02*
X8256238Y-16660476D01*
X8218143Y-16660476D01*
X8199095Y-16650952D01*
X8189571Y-16631905D01*
X8189571Y-16555714D01*
X8199095Y-16536667D01*
X8218143Y-16527143D01*
X8256238Y-16527143D01*
X8275286Y-16536667D01*
X8284809Y-16555714D01*
X8284809Y-16574762D01*
X8189571Y-16593809D01*
X8361000Y-16650952D02*
X8380048Y-16660476D01*
X8418143Y-16660476D01*
X8437190Y-16650952D01*
X8446714Y-16631905D01*
X8446714Y-16622381D01*
X8437190Y-16603333D01*
X8418143Y-16593809D01*
X8389571Y-16593809D01*
X8370524Y-16584286D01*
X8361000Y-16565238D01*
X8361000Y-16555714D01*
X8370524Y-16536667D01*
X8389571Y-16527143D01*
X8418143Y-16527143D01*
X8437190Y-16536667D01*
X8513381Y-16736667D02*
X8522905Y-16727143D01*
X8541952Y-16698571D01*
X8551476Y-16679524D01*
X8561000Y-16650952D01*
X8570524Y-16603333D01*
X8570524Y-16565238D01*
X8561000Y-16517619D01*
X8551476Y-16489048D01*
X8541952Y-16470000D01*
X8522905Y-16441428D01*
X8513381Y-16431905D01*
D18*
X3391000Y-16765000D02*
X3551000Y-16925000D01*
X3551000Y-16765000D02*
X3391000Y-16925000D01*
X3471000Y-16765000D02*
X3471000Y-16925000D01*
X3391000Y-16845000D02*
X3551000Y-16845000D01*
D11*
X3913381Y-16935476D02*
X3799095Y-16935476D01*
X3856238Y-16935476D02*
X3856238Y-16735476D01*
X3837190Y-16764048D01*
X3818143Y-16783095D01*
X3799095Y-16792619D01*
X3999095Y-16916429D02*
X4008619Y-16925952D01*
X3999095Y-16935476D01*
X3989571Y-16925952D01*
X3999095Y-16916429D01*
X3999095Y-16935476D01*
X4180048Y-16735476D02*
X4141952Y-16735476D01*
X4122905Y-16745000D01*
X4113381Y-16754524D01*
X4094333Y-16783095D01*
X4084809Y-16821190D01*
X4084809Y-16897381D01*
X4094333Y-16916429D01*
X4103857Y-16925952D01*
X4122905Y-16935476D01*
X4161000Y-16935476D01*
X4180048Y-16925952D01*
X4189571Y-16916429D01*
X4199095Y-16897381D01*
X4199095Y-16849762D01*
X4189571Y-16830714D01*
X4180048Y-16821190D01*
X4161000Y-16811667D01*
X4122905Y-16811667D01*
X4103857Y-16821190D01*
X4094333Y-16830714D01*
X4084809Y-16849762D01*
X4322905Y-16735476D02*
X4341952Y-16735476D01*
X4361000Y-16745000D01*
X4370524Y-16754524D01*
X4380048Y-16773571D01*
X4389571Y-16811667D01*
X4389571Y-16859286D01*
X4380048Y-16897381D01*
X4370524Y-16916429D01*
X4361000Y-16925952D01*
X4341952Y-16935476D01*
X4322905Y-16935476D01*
X4303857Y-16925952D01*
X4294333Y-16916429D01*
X4284810Y-16897381D01*
X4275286Y-16859286D01*
X4275286Y-16811667D01*
X4284810Y-16773571D01*
X4294333Y-16754524D01*
X4303857Y-16745000D01*
X4322905Y-16735476D01*
X4513381Y-16735476D02*
X4532429Y-16735476D01*
X4551476Y-16745000D01*
X4561000Y-16754524D01*
X4570524Y-16773571D01*
X4580048Y-16811667D01*
X4580048Y-16859286D01*
X4570524Y-16897381D01*
X4561000Y-16916429D01*
X4551476Y-16925952D01*
X4532429Y-16935476D01*
X4513381Y-16935476D01*
X4494333Y-16925952D01*
X4484810Y-16916429D01*
X4475286Y-16897381D01*
X4465762Y-16859286D01*
X4465762Y-16811667D01*
X4475286Y-16773571D01*
X4484810Y-16754524D01*
X4494333Y-16745000D01*
X4513381Y-16735476D01*
X4665762Y-16935476D02*
X4665762Y-16802143D01*
X4665762Y-16821190D02*
X4675286Y-16811667D01*
X4694333Y-16802143D01*
X4722905Y-16802143D01*
X4741952Y-16811667D01*
X4751476Y-16830714D01*
X4751476Y-16935476D01*
X4751476Y-16830714D02*
X4761000Y-16811667D01*
X4780048Y-16802143D01*
X4808619Y-16802143D01*
X4827667Y-16811667D01*
X4837190Y-16830714D01*
X4837190Y-16935476D01*
X4932429Y-16935476D02*
X4932429Y-16802143D01*
X4932429Y-16821190D02*
X4941952Y-16811667D01*
X4961000Y-16802143D01*
X4989571Y-16802143D01*
X5008619Y-16811667D01*
X5018143Y-16830714D01*
X5018143Y-16935476D01*
X5018143Y-16830714D02*
X5027667Y-16811667D01*
X5046714Y-16802143D01*
X5075286Y-16802143D01*
X5094333Y-16811667D01*
X5103857Y-16830714D01*
X5103857Y-16935476D01*
X5494333Y-16725952D02*
X5322905Y-16983095D01*
X5751476Y-16735476D02*
X5770524Y-16735476D01*
X5789571Y-16745000D01*
X5799095Y-16754524D01*
X5808619Y-16773571D01*
X5818143Y-16811667D01*
X5818143Y-16859286D01*
X5808619Y-16897381D01*
X5799095Y-16916429D01*
X5789571Y-16925952D01*
X5770524Y-16935476D01*
X5751476Y-16935476D01*
X5732428Y-16925952D01*
X5722905Y-16916429D01*
X5713381Y-16897381D01*
X5703857Y-16859286D01*
X5703857Y-16811667D01*
X5713381Y-16773571D01*
X5722905Y-16754524D01*
X5732428Y-16745000D01*
X5751476Y-16735476D01*
X5903857Y-16916429D02*
X5913381Y-16925952D01*
X5903857Y-16935476D01*
X5894333Y-16925952D01*
X5903857Y-16916429D01*
X5903857Y-16935476D01*
X6037190Y-16735476D02*
X6056238Y-16735476D01*
X6075286Y-16745000D01*
X6084809Y-16754524D01*
X6094333Y-16773571D01*
X6103857Y-16811667D01*
X6103857Y-16859286D01*
X6094333Y-16897381D01*
X6084809Y-16916429D01*
X6075286Y-16925952D01*
X6056238Y-16935476D01*
X6037190Y-16935476D01*
X6018143Y-16925952D01*
X6008619Y-16916429D01*
X5999095Y-16897381D01*
X5989571Y-16859286D01*
X5989571Y-16811667D01*
X5999095Y-16773571D01*
X6008619Y-16754524D01*
X6018143Y-16745000D01*
X6037190Y-16735476D01*
X6275286Y-16735476D02*
X6237190Y-16735476D01*
X6218143Y-16745000D01*
X6208619Y-16754524D01*
X6189571Y-16783095D01*
X6180048Y-16821190D01*
X6180048Y-16897381D01*
X6189571Y-16916429D01*
X6199095Y-16925952D01*
X6218143Y-16935476D01*
X6256238Y-16935476D01*
X6275286Y-16925952D01*
X6284809Y-16916429D01*
X6294333Y-16897381D01*
X6294333Y-16849762D01*
X6284809Y-16830714D01*
X6275286Y-16821190D01*
X6256238Y-16811667D01*
X6218143Y-16811667D01*
X6199095Y-16821190D01*
X6189571Y-16830714D01*
X6180048Y-16849762D01*
X6361000Y-16735476D02*
X6484809Y-16735476D01*
X6418143Y-16811667D01*
X6446714Y-16811667D01*
X6465762Y-16821190D01*
X6475286Y-16830714D01*
X6484809Y-16849762D01*
X6484809Y-16897381D01*
X6475286Y-16916429D01*
X6465762Y-16925952D01*
X6446714Y-16935476D01*
X6389571Y-16935476D01*
X6370524Y-16925952D01*
X6361000Y-16916429D01*
X6608619Y-16735476D02*
X6627667Y-16735476D01*
X6646714Y-16745000D01*
X6656238Y-16754524D01*
X6665762Y-16773571D01*
X6675286Y-16811667D01*
X6675286Y-16859286D01*
X6665762Y-16897381D01*
X6656238Y-16916429D01*
X6646714Y-16925952D01*
X6627667Y-16935476D01*
X6608619Y-16935476D01*
X6589571Y-16925952D01*
X6580048Y-16916429D01*
X6570524Y-16897381D01*
X6561000Y-16859286D01*
X6561000Y-16811667D01*
X6570524Y-16773571D01*
X6580048Y-16754524D01*
X6589571Y-16745000D01*
X6608619Y-16735476D01*
X6751476Y-16735476D02*
X6751476Y-16773571D01*
X6827667Y-16735476D02*
X6827667Y-16773571D01*
X7122905Y-17011667D02*
X7113381Y-17002143D01*
X7094333Y-16973571D01*
X7084809Y-16954524D01*
X7075286Y-16925952D01*
X7065762Y-16878333D01*
X7065762Y-16840238D01*
X7075286Y-16792619D01*
X7084809Y-16764048D01*
X7094333Y-16745000D01*
X7113381Y-16716428D01*
X7122905Y-16706905D01*
X7284809Y-16802143D02*
X7284809Y-16935476D01*
X7237190Y-16725952D02*
X7189571Y-16868810D01*
X7313381Y-16868810D01*
X7541952Y-16935476D02*
X7541952Y-16735476D01*
X7627667Y-16935476D02*
X7627667Y-16830714D01*
X7618143Y-16811667D01*
X7599095Y-16802143D01*
X7570524Y-16802143D01*
X7551476Y-16811667D01*
X7541952Y-16821190D01*
X7751476Y-16935476D02*
X7732428Y-16925952D01*
X7722905Y-16916429D01*
X7713381Y-16897381D01*
X7713381Y-16840238D01*
X7722905Y-16821190D01*
X7732428Y-16811667D01*
X7751476Y-16802143D01*
X7780048Y-16802143D01*
X7799095Y-16811667D01*
X7808619Y-16821190D01*
X7818143Y-16840238D01*
X7818143Y-16897381D01*
X7808619Y-16916429D01*
X7799095Y-16925952D01*
X7780048Y-16935476D01*
X7751476Y-16935476D01*
X7932428Y-16935476D02*
X7913381Y-16925952D01*
X7903857Y-16906905D01*
X7903857Y-16735476D01*
X8084809Y-16925952D02*
X8065762Y-16935476D01*
X8027667Y-16935476D01*
X8008619Y-16925952D01*
X7999095Y-16906905D01*
X7999095Y-16830714D01*
X8008619Y-16811667D01*
X8027667Y-16802143D01*
X8065762Y-16802143D01*
X8084809Y-16811667D01*
X8094333Y-16830714D01*
X8094333Y-16849762D01*
X7999095Y-16868810D01*
X8170524Y-16925952D02*
X8189571Y-16935476D01*
X8227667Y-16935476D01*
X8246714Y-16925952D01*
X8256238Y-16906905D01*
X8256238Y-16897381D01*
X8246714Y-16878333D01*
X8227667Y-16868810D01*
X8199095Y-16868810D01*
X8180048Y-16859286D01*
X8170524Y-16840238D01*
X8170524Y-16830714D01*
X8180048Y-16811667D01*
X8199095Y-16802143D01*
X8227667Y-16802143D01*
X8246714Y-16811667D01*
X8322905Y-17011667D02*
X8332428Y-17002143D01*
X8351476Y-16973571D01*
X8361000Y-16954524D01*
X8370524Y-16925952D01*
X8380048Y-16878333D01*
X8380048Y-16840238D01*
X8370524Y-16792619D01*
X8361000Y-16764048D01*
X8351476Y-16745000D01*
X8332428Y-16716428D01*
X8322905Y-16706905D01*
D19*
X3371000Y-17035000D02*
X3551000Y-17215000D01*
X3551000Y-17035000D02*
X3371000Y-17215000D01*
X3524640Y-17188640D02*
X3524640Y-17061360D01*
X3397360Y-17061360D01*
X3397360Y-17188640D01*
X3524640Y-17188640D01*
D11*
X3913381Y-17215476D02*
X3799095Y-17215476D01*
X3856238Y-17215476D02*
X3856238Y-17015476D01*
X3837190Y-17044048D01*
X3818143Y-17063095D01*
X3799095Y-17072619D01*
X3999095Y-17196429D02*
X4008619Y-17205952D01*
X3999095Y-17215476D01*
X3989571Y-17205952D01*
X3999095Y-17196429D01*
X3999095Y-17215476D01*
X4122905Y-17101190D02*
X4103857Y-17091667D01*
X4094333Y-17082143D01*
X4084809Y-17063095D01*
X4084809Y-17053571D01*
X4094333Y-17034524D01*
X4103857Y-17025000D01*
X4122905Y-17015476D01*
X4161000Y-17015476D01*
X4180048Y-17025000D01*
X4189571Y-17034524D01*
X4199095Y-17053571D01*
X4199095Y-17063095D01*
X4189571Y-17082143D01*
X4180048Y-17091667D01*
X4161000Y-17101190D01*
X4122905Y-17101190D01*
X4103857Y-17110714D01*
X4094333Y-17120238D01*
X4084809Y-17139286D01*
X4084809Y-17177381D01*
X4094333Y-17196429D01*
X4103857Y-17205952D01*
X4122905Y-17215476D01*
X4161000Y-17215476D01*
X4180048Y-17205952D01*
X4189571Y-17196429D01*
X4199095Y-17177381D01*
X4199095Y-17139286D01*
X4189571Y-17120238D01*
X4180048Y-17110714D01*
X4161000Y-17101190D01*
X4322905Y-17015476D02*
X4341952Y-17015476D01*
X4361000Y-17025000D01*
X4370524Y-17034524D01*
X4380048Y-17053571D01*
X4389571Y-17091667D01*
X4389571Y-17139286D01*
X4380048Y-17177381D01*
X4370524Y-17196429D01*
X4361000Y-17205952D01*
X4341952Y-17215476D01*
X4322905Y-17215476D01*
X4303857Y-17205952D01*
X4294333Y-17196429D01*
X4284810Y-17177381D01*
X4275286Y-17139286D01*
X4275286Y-17091667D01*
X4284810Y-17053571D01*
X4294333Y-17034524D01*
X4303857Y-17025000D01*
X4322905Y-17015476D01*
X4513381Y-17015476D02*
X4532429Y-17015476D01*
X4551476Y-17025000D01*
X4561000Y-17034524D01*
X4570524Y-17053571D01*
X4580048Y-17091667D01*
X4580048Y-17139286D01*
X4570524Y-17177381D01*
X4561000Y-17196429D01*
X4551476Y-17205952D01*
X4532429Y-17215476D01*
X4513381Y-17215476D01*
X4494333Y-17205952D01*
X4484810Y-17196429D01*
X4475286Y-17177381D01*
X4465762Y-17139286D01*
X4465762Y-17091667D01*
X4475286Y-17053571D01*
X4484810Y-17034524D01*
X4494333Y-17025000D01*
X4513381Y-17015476D01*
X4665762Y-17215476D02*
X4665762Y-17082143D01*
X4665762Y-17101190D02*
X4675286Y-17091667D01*
X4694333Y-17082143D01*
X4722905Y-17082143D01*
X4741952Y-17091667D01*
X4751476Y-17110714D01*
X4751476Y-17215476D01*
X4751476Y-17110714D02*
X4761000Y-17091667D01*
X4780048Y-17082143D01*
X4808619Y-17082143D01*
X4827667Y-17091667D01*
X4837190Y-17110714D01*
X4837190Y-17215476D01*
X4932429Y-17215476D02*
X4932429Y-17082143D01*
X4932429Y-17101190D02*
X4941952Y-17091667D01*
X4961000Y-17082143D01*
X4989571Y-17082143D01*
X5008619Y-17091667D01*
X5018143Y-17110714D01*
X5018143Y-17215476D01*
X5018143Y-17110714D02*
X5027667Y-17091667D01*
X5046714Y-17082143D01*
X5075286Y-17082143D01*
X5094333Y-17091667D01*
X5103857Y-17110714D01*
X5103857Y-17215476D01*
X5494333Y-17005952D02*
X5322905Y-17263095D01*
X5751476Y-17015476D02*
X5770524Y-17015476D01*
X5789571Y-17025000D01*
X5799095Y-17034524D01*
X5808619Y-17053571D01*
X5818143Y-17091667D01*
X5818143Y-17139286D01*
X5808619Y-17177381D01*
X5799095Y-17196429D01*
X5789571Y-17205952D01*
X5770524Y-17215476D01*
X5751476Y-17215476D01*
X5732428Y-17205952D01*
X5722905Y-17196429D01*
X5713381Y-17177381D01*
X5703857Y-17139286D01*
X5703857Y-17091667D01*
X5713381Y-17053571D01*
X5722905Y-17034524D01*
X5732428Y-17025000D01*
X5751476Y-17015476D01*
X5903857Y-17196429D02*
X5913381Y-17205952D01*
X5903857Y-17215476D01*
X5894333Y-17205952D01*
X5903857Y-17196429D01*
X5903857Y-17215476D01*
X6037190Y-17015476D02*
X6056238Y-17015476D01*
X6075286Y-17025000D01*
X6084809Y-17034524D01*
X6094333Y-17053571D01*
X6103857Y-17091667D01*
X6103857Y-17139286D01*
X6094333Y-17177381D01*
X6084809Y-17196429D01*
X6075286Y-17205952D01*
X6056238Y-17215476D01*
X6037190Y-17215476D01*
X6018143Y-17205952D01*
X6008619Y-17196429D01*
X5999095Y-17177381D01*
X5989571Y-17139286D01*
X5989571Y-17091667D01*
X5999095Y-17053571D01*
X6008619Y-17034524D01*
X6018143Y-17025000D01*
X6037190Y-17015476D01*
X6170524Y-17015476D02*
X6303857Y-17015476D01*
X6218143Y-17215476D01*
X6418143Y-17015476D02*
X6437190Y-17015476D01*
X6456238Y-17025000D01*
X6465762Y-17034524D01*
X6475286Y-17053571D01*
X6484809Y-17091667D01*
X6484809Y-17139286D01*
X6475286Y-17177381D01*
X6465762Y-17196429D01*
X6456238Y-17205952D01*
X6437190Y-17215476D01*
X6418143Y-17215476D01*
X6399095Y-17205952D01*
X6389571Y-17196429D01*
X6380048Y-17177381D01*
X6370524Y-17139286D01*
X6370524Y-17091667D01*
X6380048Y-17053571D01*
X6389571Y-17034524D01*
X6399095Y-17025000D01*
X6418143Y-17015476D01*
X6580048Y-17215476D02*
X6618143Y-17215476D01*
X6637190Y-17205952D01*
X6646714Y-17196429D01*
X6665762Y-17167857D01*
X6675286Y-17129762D01*
X6675286Y-17053571D01*
X6665762Y-17034524D01*
X6656238Y-17025000D01*
X6637190Y-17015476D01*
X6599095Y-17015476D01*
X6580048Y-17025000D01*
X6570524Y-17034524D01*
X6561000Y-17053571D01*
X6561000Y-17101190D01*
X6570524Y-17120238D01*
X6580048Y-17129762D01*
X6599095Y-17139286D01*
X6637190Y-17139286D01*
X6656238Y-17129762D01*
X6665762Y-17120238D01*
X6675286Y-17101190D01*
X6751476Y-17015476D02*
X6751476Y-17053571D01*
X6827667Y-17015476D02*
X6827667Y-17053571D01*
X7122905Y-17291667D02*
X7113381Y-17282143D01*
X7094333Y-17253571D01*
X7084809Y-17234524D01*
X7075286Y-17205952D01*
X7065762Y-17158333D01*
X7065762Y-17120238D01*
X7075286Y-17072619D01*
X7084809Y-17044048D01*
X7094333Y-17025000D01*
X7113381Y-16996429D01*
X7122905Y-16986905D01*
X7303857Y-17215476D02*
X7189571Y-17215476D01*
X7246714Y-17215476D02*
X7246714Y-17015476D01*
X7227667Y-17044048D01*
X7208619Y-17063095D01*
X7189571Y-17072619D01*
X7418143Y-17101190D02*
X7399095Y-17091667D01*
X7389571Y-17082143D01*
X7380048Y-17063095D01*
X7380048Y-17053571D01*
X7389571Y-17034524D01*
X7399095Y-17025000D01*
X7418143Y-17015476D01*
X7456238Y-17015476D01*
X7475286Y-17025000D01*
X7484809Y-17034524D01*
X7494333Y-17053571D01*
X7494333Y-17063095D01*
X7484809Y-17082143D01*
X7475286Y-17091667D01*
X7456238Y-17101190D01*
X7418143Y-17101190D01*
X7399095Y-17110714D01*
X7389571Y-17120238D01*
X7380048Y-17139286D01*
X7380048Y-17177381D01*
X7389571Y-17196429D01*
X7399095Y-17205952D01*
X7418143Y-17215476D01*
X7456238Y-17215476D01*
X7475286Y-17205952D01*
X7484809Y-17196429D01*
X7494333Y-17177381D01*
X7494333Y-17139286D01*
X7484809Y-17120238D01*
X7475286Y-17110714D01*
X7456238Y-17101190D01*
X7732428Y-17215476D02*
X7732428Y-17015476D01*
X7818143Y-17215476D02*
X7818143Y-17110714D01*
X7808619Y-17091667D01*
X7789571Y-17082143D01*
X7761000Y-17082143D01*
X7741952Y-17091667D01*
X7732428Y-17101190D01*
X7941952Y-17215476D02*
X7922905Y-17205952D01*
X7913381Y-17196429D01*
X7903857Y-17177381D01*
X7903857Y-17120238D01*
X7913381Y-17101190D01*
X7922905Y-17091667D01*
X7941952Y-17082143D01*
X7970524Y-17082143D01*
X7989571Y-17091667D01*
X7999095Y-17101190D01*
X8008619Y-17120238D01*
X8008619Y-17177381D01*
X7999095Y-17196429D01*
X7989571Y-17205952D01*
X7970524Y-17215476D01*
X7941952Y-17215476D01*
X8122905Y-17215476D02*
X8103857Y-17205952D01*
X8094333Y-17186905D01*
X8094333Y-17015476D01*
X8275286Y-17205952D02*
X8256238Y-17215476D01*
X8218143Y-17215476D01*
X8199095Y-17205952D01*
X8189571Y-17186905D01*
X8189571Y-17110714D01*
X8199095Y-17091667D01*
X8218143Y-17082143D01*
X8256238Y-17082143D01*
X8275286Y-17091667D01*
X8284809Y-17110714D01*
X8284809Y-17129762D01*
X8189571Y-17148810D01*
X8361000Y-17205952D02*
X8380048Y-17215476D01*
X8418143Y-17215476D01*
X8437190Y-17205952D01*
X8446714Y-17186905D01*
X8446714Y-17177381D01*
X8437190Y-17158333D01*
X8418143Y-17148810D01*
X8389571Y-17148810D01*
X8370524Y-17139286D01*
X8361000Y-17120238D01*
X8361000Y-17110714D01*
X8370524Y-17091667D01*
X8389571Y-17082143D01*
X8418143Y-17082143D01*
X8437190Y-17091667D01*
X8513381Y-17291667D02*
X8522905Y-17282143D01*
X8541952Y-17253571D01*
X8551476Y-17234524D01*
X8561000Y-17205952D01*
X8570524Y-17158333D01*
X8570524Y-17120238D01*
X8561000Y-17072619D01*
X8551476Y-17044048D01*
X8541952Y-17025000D01*
X8522905Y-16996429D01*
X8513381Y-16986905D01*
X3351000Y-17325000D02*
X3551000Y-17525000D01*
X3551000Y-17325000D02*
X3351000Y-17525000D01*
X3451000Y-17525000D02*
X3551000Y-17425000D01*
X3451000Y-17325000D01*
X3351000Y-17425000D01*
X3451000Y-17525000D01*
X3789571Y-17315476D02*
X3913381Y-17315476D01*
X3846714Y-17391667D01*
X3875286Y-17391667D01*
X3894333Y-17401190D01*
X3903857Y-17410714D01*
X3913381Y-17429762D01*
X3913381Y-17477381D01*
X3903857Y-17496429D01*
X3894333Y-17505952D01*
X3875286Y-17515476D01*
X3818143Y-17515476D01*
X3799095Y-17505952D01*
X3789571Y-17496429D01*
X3999095Y-17496429D02*
X4008619Y-17505952D01*
X3999095Y-17515476D01*
X3989571Y-17505952D01*
X3999095Y-17496429D01*
X3999095Y-17515476D01*
X4084809Y-17334524D02*
X4094333Y-17325000D01*
X4113381Y-17315476D01*
X4161000Y-17315476D01*
X4180048Y-17325000D01*
X4189571Y-17334524D01*
X4199095Y-17353571D01*
X4199095Y-17372619D01*
X4189571Y-17401190D01*
X4075286Y-17515476D01*
X4199095Y-17515476D01*
X4322905Y-17315476D02*
X4341952Y-17315476D01*
X4361000Y-17325000D01*
X4370524Y-17334524D01*
X4380048Y-17353571D01*
X4389571Y-17391667D01*
X4389571Y-17439286D01*
X4380048Y-17477381D01*
X4370524Y-17496429D01*
X4361000Y-17505952D01*
X4341952Y-17515476D01*
X4322905Y-17515476D01*
X4303857Y-17505952D01*
X4294333Y-17496429D01*
X4284810Y-17477381D01*
X4275286Y-17439286D01*
X4275286Y-17391667D01*
X4284810Y-17353571D01*
X4294333Y-17334524D01*
X4303857Y-17325000D01*
X4322905Y-17315476D01*
X4513381Y-17315476D02*
X4532429Y-17315476D01*
X4551476Y-17325000D01*
X4561000Y-17334524D01*
X4570524Y-17353571D01*
X4580048Y-17391667D01*
X4580048Y-17439286D01*
X4570524Y-17477381D01*
X4561000Y-17496429D01*
X4551476Y-17505952D01*
X4532429Y-17515476D01*
X4513381Y-17515476D01*
X4494333Y-17505952D01*
X4484810Y-17496429D01*
X4475286Y-17477381D01*
X4465762Y-17439286D01*
X4465762Y-17391667D01*
X4475286Y-17353571D01*
X4484810Y-17334524D01*
X4494333Y-17325000D01*
X4513381Y-17315476D01*
X4665762Y-17515476D02*
X4665762Y-17382143D01*
X4665762Y-17401190D02*
X4675286Y-17391667D01*
X4694333Y-17382143D01*
X4722905Y-17382143D01*
X4741952Y-17391667D01*
X4751476Y-17410714D01*
X4751476Y-17515476D01*
X4751476Y-17410714D02*
X4761000Y-17391667D01*
X4780048Y-17382143D01*
X4808619Y-17382143D01*
X4827667Y-17391667D01*
X4837190Y-17410714D01*
X4837190Y-17515476D01*
X4932429Y-17515476D02*
X4932429Y-17382143D01*
X4932429Y-17401190D02*
X4941952Y-17391667D01*
X4961000Y-17382143D01*
X4989571Y-17382143D01*
X5008619Y-17391667D01*
X5018143Y-17410714D01*
X5018143Y-17515476D01*
X5018143Y-17410714D02*
X5027667Y-17391667D01*
X5046714Y-17382143D01*
X5075286Y-17382143D01*
X5094333Y-17391667D01*
X5103857Y-17410714D01*
X5103857Y-17515476D01*
X5494333Y-17305952D02*
X5322905Y-17563095D01*
X5751476Y-17315476D02*
X5770524Y-17315476D01*
X5789571Y-17325000D01*
X5799095Y-17334524D01*
X5808619Y-17353571D01*
X5818143Y-17391667D01*
X5818143Y-17439286D01*
X5808619Y-17477381D01*
X5799095Y-17496429D01*
X5789571Y-17505952D01*
X5770524Y-17515476D01*
X5751476Y-17515476D01*
X5732428Y-17505952D01*
X5722905Y-17496429D01*
X5713381Y-17477381D01*
X5703857Y-17439286D01*
X5703857Y-17391667D01*
X5713381Y-17353571D01*
X5722905Y-17334524D01*
X5732428Y-17325000D01*
X5751476Y-17315476D01*
X5903857Y-17496429D02*
X5913381Y-17505952D01*
X5903857Y-17515476D01*
X5894333Y-17505952D01*
X5903857Y-17496429D01*
X5903857Y-17515476D01*
X6103857Y-17515476D02*
X5989571Y-17515476D01*
X6046714Y-17515476D02*
X6046714Y-17315476D01*
X6027667Y-17344048D01*
X6008619Y-17363095D01*
X5989571Y-17372619D01*
X6180048Y-17334524D02*
X6189571Y-17325000D01*
X6208619Y-17315476D01*
X6256238Y-17315476D01*
X6275286Y-17325000D01*
X6284809Y-17334524D01*
X6294333Y-17353571D01*
X6294333Y-17372619D01*
X6284809Y-17401190D01*
X6170524Y-17515476D01*
X6294333Y-17515476D01*
X6465762Y-17315476D02*
X6427667Y-17315476D01*
X6408619Y-17325000D01*
X6399095Y-17334524D01*
X6380048Y-17363095D01*
X6370524Y-17401190D01*
X6370524Y-17477381D01*
X6380048Y-17496429D01*
X6389571Y-17505952D01*
X6408619Y-17515476D01*
X6446714Y-17515476D01*
X6465762Y-17505952D01*
X6475286Y-17496429D01*
X6484809Y-17477381D01*
X6484809Y-17429762D01*
X6475286Y-17410714D01*
X6465762Y-17401190D01*
X6446714Y-17391667D01*
X6408619Y-17391667D01*
X6389571Y-17401190D01*
X6380048Y-17410714D01*
X6370524Y-17429762D01*
X6608619Y-17315476D02*
X6627667Y-17315476D01*
X6646714Y-17325000D01*
X6656238Y-17334524D01*
X6665762Y-17353571D01*
X6675286Y-17391667D01*
X6675286Y-17439286D01*
X6665762Y-17477381D01*
X6656238Y-17496429D01*
X6646714Y-17505952D01*
X6627667Y-17515476D01*
X6608619Y-17515476D01*
X6589571Y-17505952D01*
X6580048Y-17496429D01*
X6570524Y-17477381D01*
X6561000Y-17439286D01*
X6561000Y-17391667D01*
X6570524Y-17353571D01*
X6580048Y-17334524D01*
X6589571Y-17325000D01*
X6608619Y-17315476D01*
X6751476Y-17315476D02*
X6751476Y-17353571D01*
X6827667Y-17315476D02*
X6827667Y-17353571D01*
X7122905Y-17591667D02*
X7113381Y-17582143D01*
X7094333Y-17553571D01*
X7084809Y-17534524D01*
X7075286Y-17505952D01*
X7065762Y-17458333D01*
X7065762Y-17420238D01*
X7075286Y-17372619D01*
X7084809Y-17344048D01*
X7094333Y-17325000D01*
X7113381Y-17296429D01*
X7122905Y-17286905D01*
X7303857Y-17515476D02*
X7189571Y-17515476D01*
X7246714Y-17515476D02*
X7246714Y-17315476D01*
X7227667Y-17344048D01*
X7208619Y-17363095D01*
X7189571Y-17372619D01*
X7370524Y-17315476D02*
X7494333Y-17315476D01*
X7427667Y-17391667D01*
X7456238Y-17391667D01*
X7475286Y-17401190D01*
X7484809Y-17410714D01*
X7494333Y-17429762D01*
X7494333Y-17477381D01*
X7484809Y-17496429D01*
X7475286Y-17505952D01*
X7456238Y-17515476D01*
X7399095Y-17515476D01*
X7380048Y-17505952D01*
X7370524Y-17496429D01*
X7732428Y-17515476D02*
X7732428Y-17315476D01*
X7818143Y-17515476D02*
X7818143Y-17410714D01*
X7808619Y-17391667D01*
X7789571Y-17382143D01*
X7761000Y-17382143D01*
X7741952Y-17391667D01*
X7732428Y-17401190D01*
X7941952Y-17515476D02*
X7922905Y-17505952D01*
X7913381Y-17496429D01*
X7903857Y-17477381D01*
X7903857Y-17420238D01*
X7913381Y-17401190D01*
X7922905Y-17391667D01*
X7941952Y-17382143D01*
X7970524Y-17382143D01*
X7989571Y-17391667D01*
X7999095Y-17401190D01*
X8008619Y-17420238D01*
X8008619Y-17477381D01*
X7999095Y-17496429D01*
X7989571Y-17505952D01*
X7970524Y-17515476D01*
X7941952Y-17515476D01*
X8122905Y-17515476D02*
X8103857Y-17505952D01*
X8094333Y-17486905D01*
X8094333Y-17315476D01*
X8275286Y-17505952D02*
X8256238Y-17515476D01*
X8218143Y-17515476D01*
X8199095Y-17505952D01*
X8189571Y-17486905D01*
X8189571Y-17410714D01*
X8199095Y-17391667D01*
X8218143Y-17382143D01*
X8256238Y-17382143D01*
X8275286Y-17391667D01*
X8284809Y-17410714D01*
X8284809Y-17429762D01*
X8189571Y-17448810D01*
X8361000Y-17505952D02*
X8380048Y-17515476D01*
X8418143Y-17515476D01*
X8437190Y-17505952D01*
X8446714Y-17486905D01*
X8446714Y-17477381D01*
X8437190Y-17458333D01*
X8418143Y-17448810D01*
X8389571Y-17448810D01*
X8370524Y-17439286D01*
X8361000Y-17420238D01*
X8361000Y-17410714D01*
X8370524Y-17391667D01*
X8389571Y-17382143D01*
X8418143Y-17382143D01*
X8437190Y-17391667D01*
X8513381Y-17591667D02*
X8522905Y-17582143D01*
X8541952Y-17553571D01*
X8551476Y-17534524D01*
X8561000Y-17505952D01*
X8570524Y-17458333D01*
X8570524Y-17420238D01*
X8561000Y-17372619D01*
X8551476Y-17344048D01*
X8541952Y-17325000D01*
X8522905Y-17296429D01*
X8513381Y-17286905D01*
X3451000Y-17645000D02*
X3451000Y-17845000D01*
X3351000Y-17745000D02*
X3551000Y-17745000D01*
X3551000Y-17745000D02*
G75*
G03*
X3551000Y-17745000I-100000J0D01*
G01*
X3789571Y-17635476D02*
X3913381Y-17635476D01*
X3846714Y-17711667D01*
X3875286Y-17711667D01*
X3894333Y-17721190D01*
X3903857Y-17730714D01*
X3913381Y-17749762D01*
X3913381Y-17797381D01*
X3903857Y-17816429D01*
X3894333Y-17825952D01*
X3875286Y-17835476D01*
X3818143Y-17835476D01*
X3799095Y-17825952D01*
X3789571Y-17816429D01*
X3999095Y-17816429D02*
X4008619Y-17825952D01*
X3999095Y-17835476D01*
X3989571Y-17825952D01*
X3999095Y-17816429D01*
X3999095Y-17835476D01*
X4084809Y-17654524D02*
X4094333Y-17645000D01*
X4113381Y-17635476D01*
X4161000Y-17635476D01*
X4180048Y-17645000D01*
X4189571Y-17654524D01*
X4199095Y-17673571D01*
X4199095Y-17692619D01*
X4189571Y-17721190D01*
X4075286Y-17835476D01*
X4199095Y-17835476D01*
X4322905Y-17635476D02*
X4341952Y-17635476D01*
X4361000Y-17645000D01*
X4370524Y-17654524D01*
X4380048Y-17673571D01*
X4389571Y-17711667D01*
X4389571Y-17759286D01*
X4380048Y-17797381D01*
X4370524Y-17816429D01*
X4361000Y-17825952D01*
X4341952Y-17835476D01*
X4322905Y-17835476D01*
X4303857Y-17825952D01*
X4294333Y-17816429D01*
X4284810Y-17797381D01*
X4275286Y-17759286D01*
X4275286Y-17711667D01*
X4284810Y-17673571D01*
X4294333Y-17654524D01*
X4303857Y-17645000D01*
X4322905Y-17635476D01*
X4513381Y-17635476D02*
X4532429Y-17635476D01*
X4551476Y-17645000D01*
X4561000Y-17654524D01*
X4570524Y-17673571D01*
X4580048Y-17711667D01*
X4580048Y-17759286D01*
X4570524Y-17797381D01*
X4561000Y-17816429D01*
X4551476Y-17825952D01*
X4532429Y-17835476D01*
X4513381Y-17835476D01*
X4494333Y-17825952D01*
X4484810Y-17816429D01*
X4475286Y-17797381D01*
X4465762Y-17759286D01*
X4465762Y-17711667D01*
X4475286Y-17673571D01*
X4484810Y-17654524D01*
X4494333Y-17645000D01*
X4513381Y-17635476D01*
X4665762Y-17835476D02*
X4665762Y-17702143D01*
X4665762Y-17721190D02*
X4675286Y-17711667D01*
X4694333Y-17702143D01*
X4722905Y-17702143D01*
X4741952Y-17711667D01*
X4751476Y-17730714D01*
X4751476Y-17835476D01*
X4751476Y-17730714D02*
X4761000Y-17711667D01*
X4780048Y-17702143D01*
X4808619Y-17702143D01*
X4827667Y-17711667D01*
X4837190Y-17730714D01*
X4837190Y-17835476D01*
X4932429Y-17835476D02*
X4932429Y-17702143D01*
X4932429Y-17721190D02*
X4941952Y-17711667D01*
X4961000Y-17702143D01*
X4989571Y-17702143D01*
X5008619Y-17711667D01*
X5018143Y-17730714D01*
X5018143Y-17835476D01*
X5018143Y-17730714D02*
X5027667Y-17711667D01*
X5046714Y-17702143D01*
X5075286Y-17702143D01*
X5094333Y-17711667D01*
X5103857Y-17730714D01*
X5103857Y-17835476D01*
X5494333Y-17625952D02*
X5322905Y-17883095D01*
X5751476Y-17635476D02*
X5770524Y-17635476D01*
X5789571Y-17645000D01*
X5799095Y-17654524D01*
X5808619Y-17673571D01*
X5818143Y-17711667D01*
X5818143Y-17759286D01*
X5808619Y-17797381D01*
X5799095Y-17816429D01*
X5789571Y-17825952D01*
X5770524Y-17835476D01*
X5751476Y-17835476D01*
X5732428Y-17825952D01*
X5722905Y-17816429D01*
X5713381Y-17797381D01*
X5703857Y-17759286D01*
X5703857Y-17711667D01*
X5713381Y-17673571D01*
X5722905Y-17654524D01*
X5732428Y-17645000D01*
X5751476Y-17635476D01*
X5903857Y-17816429D02*
X5913381Y-17825952D01*
X5903857Y-17835476D01*
X5894333Y-17825952D01*
X5903857Y-17816429D01*
X5903857Y-17835476D01*
X6103857Y-17835476D02*
X5989571Y-17835476D01*
X6046714Y-17835476D02*
X6046714Y-17635476D01*
X6027667Y-17664048D01*
X6008619Y-17683095D01*
X5989571Y-17692619D01*
X6180048Y-17654524D02*
X6189571Y-17645000D01*
X6208619Y-17635476D01*
X6256238Y-17635476D01*
X6275286Y-17645000D01*
X6284809Y-17654524D01*
X6294333Y-17673571D01*
X6294333Y-17692619D01*
X6284809Y-17721190D01*
X6170524Y-17835476D01*
X6294333Y-17835476D01*
X6465762Y-17635476D02*
X6427667Y-17635476D01*
X6408619Y-17645000D01*
X6399095Y-17654524D01*
X6380048Y-17683095D01*
X6370524Y-17721190D01*
X6370524Y-17797381D01*
X6380048Y-17816429D01*
X6389571Y-17825952D01*
X6408619Y-17835476D01*
X6446714Y-17835476D01*
X6465762Y-17825952D01*
X6475286Y-17816429D01*
X6484809Y-17797381D01*
X6484809Y-17749762D01*
X6475286Y-17730714D01*
X6465762Y-17721190D01*
X6446714Y-17711667D01*
X6408619Y-17711667D01*
X6389571Y-17721190D01*
X6380048Y-17730714D01*
X6370524Y-17749762D01*
X6608619Y-17635476D02*
X6627667Y-17635476D01*
X6646714Y-17645000D01*
X6656238Y-17654524D01*
X6665762Y-17673571D01*
X6675286Y-17711667D01*
X6675286Y-17759286D01*
X6665762Y-17797381D01*
X6656238Y-17816429D01*
X6646714Y-17825952D01*
X6627667Y-17835476D01*
X6608619Y-17835476D01*
X6589571Y-17825952D01*
X6580048Y-17816429D01*
X6570524Y-17797381D01*
X6561000Y-17759286D01*
X6561000Y-17711667D01*
X6570524Y-17673571D01*
X6580048Y-17654524D01*
X6589571Y-17645000D01*
X6608619Y-17635476D01*
X6751476Y-17635476D02*
X6751476Y-17673571D01*
X6827667Y-17635476D02*
X6827667Y-17673571D01*
X7122905Y-17911667D02*
X7113381Y-17902143D01*
X7094333Y-17873571D01*
X7084809Y-17854524D01*
X7075286Y-17825952D01*
X7065762Y-17778333D01*
X7065762Y-17740238D01*
X7075286Y-17692619D01*
X7084809Y-17664048D01*
X7094333Y-17645000D01*
X7113381Y-17616429D01*
X7122905Y-17606905D01*
X7303857Y-17835476D02*
X7189571Y-17835476D01*
X7246714Y-17835476D02*
X7246714Y-17635476D01*
X7227667Y-17664048D01*
X7208619Y-17683095D01*
X7189571Y-17692619D01*
X7541952Y-17835476D02*
X7541952Y-17635476D01*
X7627667Y-17835476D02*
X7627667Y-17730714D01*
X7618143Y-17711667D01*
X7599095Y-17702143D01*
X7570524Y-17702143D01*
X7551476Y-17711667D01*
X7541952Y-17721190D01*
X7751476Y-17835476D02*
X7732428Y-17825952D01*
X7722905Y-17816429D01*
X7713381Y-17797381D01*
X7713381Y-17740238D01*
X7722905Y-17721190D01*
X7732428Y-17711667D01*
X7751476Y-17702143D01*
X7780048Y-17702143D01*
X7799095Y-17711667D01*
X7808619Y-17721190D01*
X7818143Y-17740238D01*
X7818143Y-17797381D01*
X7808619Y-17816429D01*
X7799095Y-17825952D01*
X7780048Y-17835476D01*
X7751476Y-17835476D01*
X7932428Y-17835476D02*
X7913381Y-17825952D01*
X7903857Y-17806905D01*
X7903857Y-17635476D01*
X8084809Y-17825952D02*
X8065762Y-17835476D01*
X8027667Y-17835476D01*
X8008619Y-17825952D01*
X7999095Y-17806905D01*
X7999095Y-17730714D01*
X8008619Y-17711667D01*
X8027667Y-17702143D01*
X8065762Y-17702143D01*
X8084809Y-17711667D01*
X8094333Y-17730714D01*
X8094333Y-17749762D01*
X7999095Y-17768810D01*
X8161000Y-17911667D02*
X8170524Y-17902143D01*
X8189571Y-17873571D01*
X8199095Y-17854524D01*
X8208619Y-17825952D01*
X8218143Y-17778333D01*
X8218143Y-17740238D01*
X8208619Y-17692619D01*
X8199095Y-17664048D01*
X8189571Y-17645000D01*
X8170524Y-17616429D01*
X8161000Y-17606905D01*
M02*
