G04 #@! TF.GenerationSoftware,KiCad,Pcbnew,6.0.6-3a73a75311~116~ubuntu22.04.1*
G04 #@! TF.CreationDate,2022-07-16T14:36:57-04:00*
G04 #@! TF.ProjectId,it_is_the_champion,69745f69-735f-4746-9865-5f6368616d70,0.1*
G04 #@! TF.SameCoordinates,Original*
G04 #@! TF.FileFunction,Profile,NP*
%FSLAX46Y46*%
G04 Gerber Fmt 4.6, Leading zero omitted, Abs format (unit mm)*
G04 Created by KiCad (PCBNEW 6.0.6-3a73a75311~116~ubuntu22.04.1) date 2022-07-16 14:36:57*
%MOMM*%
%LPD*%
G01*
G04 APERTURE LIST*
G04 #@! TA.AperFunction,Profile*
%ADD10C,0.100000*%
G04 #@! TD*
G04 APERTURE END LIST*
D10*
X256540000Y-146050000D02*
G75*
G03*
X261620000Y-140970000I0J5080000D01*
G01*
X35560000Y-132080000D02*
X35560000Y-49530000D01*
X40640000Y-44450000D02*
X114300000Y-44450000D01*
X114300000Y-137160000D02*
X40640000Y-137160000D01*
X35560000Y-132080000D02*
G75*
G03*
X40640000Y-137160000I5080000J0D01*
G01*
X40640000Y-44450000D02*
G75*
G03*
X35560000Y-49530000I0J-5080000D01*
G01*
X119380000Y-49530000D02*
G75*
G03*
X114300000Y-44450000I-5080000J0D01*
G01*
X114300000Y-137160000D02*
G75*
G03*
X119380000Y-132080000I0J5080000D01*
G01*
X119380000Y-132080000D02*
X119380000Y-127000000D01*
X121920000Y-140970000D02*
X121920000Y-127000000D01*
X119380000Y-121920000D02*
X119380000Y-104140000D01*
X121920000Y-121920000D02*
X121920000Y-104140000D01*
X119380000Y-82550000D02*
X119380000Y-99060000D01*
X121920000Y-99060000D02*
X121920000Y-82550000D01*
X119380000Y-77470000D02*
X119380000Y-59690000D01*
X121920000Y-59690000D02*
X121920000Y-77470000D01*
X119380000Y-54610000D02*
X119380000Y-49530000D01*
X121920000Y-54610000D02*
X121920000Y-49530000D01*
X121920000Y-59690000D02*
G75*
G03*
X119380000Y-59690000I-1270000J0D01*
G01*
X261620000Y-49530000D02*
X261620000Y-140970000D01*
X119380000Y-121920000D02*
G75*
G03*
X121920000Y-121920000I1270000J0D01*
G01*
X121920000Y-127000000D02*
G75*
G03*
X119380000Y-127000000I-1270000J0D01*
G01*
X119380000Y-99060000D02*
G75*
G03*
X121920000Y-99060000I1270000J0D01*
G01*
X121920000Y-49530000D02*
X121920000Y-49530000D01*
X127000000Y-44450000D02*
X256540000Y-44450000D01*
X121920000Y-140970000D02*
G75*
G03*
X127000000Y-146050000I5080000J0D01*
G01*
X127000000Y-44450000D02*
G75*
G03*
X121920000Y-49530000I0J-5080000D01*
G01*
X121920000Y-82550000D02*
G75*
G03*
X119380000Y-82550000I-1270000J0D01*
G01*
X119380000Y-54610000D02*
G75*
G03*
X121920000Y-54610000I1270000J0D01*
G01*
X119380000Y-77470000D02*
G75*
G03*
X121920000Y-77470000I1270000J0D01*
G01*
X121920000Y-104140000D02*
G75*
G03*
X119380000Y-104140000I-1270000J0D01*
G01*
X256540000Y-146050000D02*
X127000000Y-146050000D01*
X261620000Y-49530000D02*
G75*
G03*
X256540000Y-44450000I-5080000J0D01*
G01*
M02*
