M48
; DRILL file {KiCad 6.0.6-3a73a75311~116~ubuntu22.04.1} date Sat 16 Jul 2022 02:36:57 PM EDT
; FORMAT={-:-/ absolute / metric / decimal}
; #@! TF.CreationDate,2022-07-16T14:36:57-04:00
; #@! TF.GenerationSoftware,Kicad,Pcbnew,6.0.6-3a73a75311~116~ubuntu22.04.1
; #@! TF.FileFunction,Plated,1,2,PTH
FMAT,2
METRIC
; #@! TA.AperFunction,Plated,PTH,ComponentDrill
T1C0.800
; #@! TA.AperFunction,Plated,PTH,ComponentDrill
T2C1.000
; #@! TA.AperFunction,Plated,PTH,ComponentDrill
T3C1.100
; #@! TA.AperFunction,Plated,PTH,ComponentDrill
T4C1.200
; #@! TA.AperFunction,Plated,PTH,ComponentDrill
T5C1.300
; #@! TA.AperFunction,Plated,PTH,ComponentDrill
T6C1.550
; #@! TA.AperFunction,Plated,PTH,ComponentDrill
T7C1.600
; #@! TA.AperFunction,Plated,PTH,ComponentDrill
T8C1.800
; #@! TA.AperFunction,Plated,PTH,ComponentDrill
T9C3.200
; #@! TA.AperFunction,Plated,PTH,ComponentDrill
T10C3.200
%
G90
G05
T1
X132.715Y-69.85
X142.875Y-69.85
X152.48Y-72.39
X157.48Y-72.39
X187.96Y-95.25
X187.96Y-100.33
X188.04Y-72.39
X193.04Y-72.39
X198.12Y-95.25
X198.12Y-100.33
X201.93Y-87.63
X201.93Y-90.13
X203.2Y-103.505
X207.01Y-87.63
X207.01Y-97.79
X208.2Y-103.505
X233.76Y-67.31
X238.76Y-67.31
X248.92Y-92.71
X248.92Y-97.79
X248.92Y-102.87
X254.0Y-108.585
X254.0Y-111.085
X259.08Y-92.71
X259.08Y-97.79
X259.08Y-102.87
T2
X125.73Y-75.09
X125.73Y-85.09
X218.6Y-67.31
X218.6Y-74.93
X228.6Y-67.31
X228.6Y-74.93
T3
X67.31Y-111.125
X67.31Y-121.285
X67.31Y-124.46
X67.31Y-134.62
X72.39Y-111.125
X72.39Y-121.285
X72.39Y-124.46
X72.39Y-134.62
X77.47Y-111.125
X77.47Y-121.285
X77.47Y-124.46
X77.47Y-134.62
X82.55Y-111.125
X82.55Y-121.285
X82.55Y-124.46
X82.55Y-134.62
T4
X41.91Y-73.66
X41.91Y-104.14
X50.8Y-78.486
X50.8Y-96.266
X58.3Y-78.486
X58.3Y-96.266
X67.31Y-73.66
X67.31Y-104.14
X77.47Y-77.216
X77.47Y-97.536
X84.97Y-77.216
X84.97Y-97.536
X97.79Y-77.216
X97.79Y-97.536
X105.29Y-77.216
X105.29Y-97.536
X115.57Y-73.66
X115.57Y-104.14
X132.715Y-74.93
X132.715Y-95.25
X135.835Y-61.595
X140.335Y-61.595
X140.97Y-74.93
X140.97Y-95.25
X146.05Y-130.81
X152.4Y-123.19
X166.37Y-130.81
X172.72Y-80.01
X172.72Y-123.19
X177.8Y-130.81
X177.8Y-138.31
X182.88Y-87.63
X182.88Y-107.95
X182.88Y-123.19
X193.04Y-80.01
X203.2Y-123.19
X208.86Y-61.53
X210.82Y-130.81
X210.82Y-138.31
X213.36Y-61.53
X213.36Y-120.65
X224.68Y-61.53
X229.18Y-61.53
X231.14Y-80.01
X233.68Y-61.53
X233.68Y-120.65
X240.665Y-120.65
X240.665Y-140.97
X243.785Y-61.595
X243.84Y-87.63
X243.84Y-107.95
X248.285Y-61.595
X251.46Y-80.01
T5
X162.56Y-109.5
X223.52Y-109.5
T6
X48.26Y-116.84
X48.54Y-64.346
X53.06Y-116.84
X53.34Y-64.346
X87.962Y-64.516
X92.71Y-116.84
X92.762Y-64.516
X97.51Y-116.84
X97.562Y-64.516
X102.31Y-116.84
X102.362Y-64.516
X107.11Y-116.84
X107.162Y-64.516
X142.24Y-110.49
X142.24Y-115.29
X142.24Y-129.54
X142.24Y-134.34
T7
X43.18Y-111.76
X48.26Y-111.76
X53.34Y-111.76
X58.42Y-111.76
T8
X152.06Y-95.25
X154.065Y-89.078
X154.065Y-101.422
X159.315Y-85.264
X165.805Y-85.264
X165.805Y-105.236
X171.055Y-89.078
X171.055Y-101.422
X173.06Y-95.25
X213.02Y-95.25
X215.025Y-89.078
X215.025Y-101.422
X220.275Y-85.264
X226.765Y-85.264
X226.765Y-105.236
X232.015Y-89.078
X232.015Y-101.422
X234.02Y-95.25
T9
X40.64Y-132.08
X114.3Y-49.53
X114.3Y-132.08
X127.0Y-49.53
X127.0Y-140.97
X149.86Y-80.01
X162.56Y-81.0
X175.26Y-110.49
X210.82Y-80.01
X223.52Y-81.0
X236.22Y-110.49
X256.54Y-49.53
X256.54Y-140.97
T10
X40.64Y-49.53
T0
M30
