G04 #@! TF.GenerationSoftware,KiCad,Pcbnew,6.0.6-3a73a75311~116~ubuntu22.04.1*
G04 #@! TF.CreationDate,2022-07-16T14:16:35-04:00*
G04 #@! TF.ProjectId,it_is_the_champion_rear_panel,69745f69-735f-4746-9865-5f6368616d70,0*
G04 #@! TF.SameCoordinates,Original*
G04 #@! TF.FileFunction,Copper,L2,Bot*
G04 #@! TF.FilePolarity,Positive*
%FSLAX46Y46*%
G04 Gerber Fmt 4.6, Leading zero omitted, Abs format (unit mm)*
G04 Created by KiCad (PCBNEW 6.0.6-3a73a75311~116~ubuntu22.04.1) date 2022-07-16 14:16:35*
%MOMM*%
%LPD*%
G01*
G04 APERTURE LIST*
G04 #@! TA.AperFunction,ComponentPad*
%ADD10C,2.000000*%
G04 #@! TD*
G04 APERTURE END LIST*
D10*
X103886000Y-96520000D03*
G04 #@! TA.AperFunction,NonConductor*
G36*
X243810057Y-71629500D02*
G01*
X243824858Y-71631805D01*
X243824861Y-71631805D01*
X243833730Y-71633186D01*
X243849999Y-71631059D01*
X243874567Y-71630266D01*
X244096985Y-71644844D01*
X244113326Y-71646995D01*
X244357824Y-71695629D01*
X244373743Y-71699895D01*
X244609790Y-71780022D01*
X244625017Y-71786329D01*
X244848592Y-71896584D01*
X244862865Y-71904825D01*
X245070133Y-72043316D01*
X245083210Y-72053349D01*
X245270632Y-72217714D01*
X245282286Y-72229368D01*
X245446651Y-72416790D01*
X245456684Y-72429867D01*
X245595175Y-72637135D01*
X245603416Y-72651408D01*
X245713671Y-72874983D01*
X245719978Y-72890210D01*
X245800105Y-73126257D01*
X245804371Y-73142176D01*
X245853005Y-73386673D01*
X245855156Y-73403014D01*
X245869264Y-73618268D01*
X245868239Y-73641304D01*
X245868196Y-73644854D01*
X245866814Y-73653730D01*
X245868454Y-73666270D01*
X245870936Y-73685251D01*
X245872000Y-73701589D01*
X245872000Y-119330672D01*
X245870500Y-119350056D01*
X245866814Y-119373730D01*
X245868941Y-119389999D01*
X245869734Y-119414567D01*
X245855156Y-119636985D01*
X245853005Y-119653326D01*
X245804371Y-119897824D01*
X245800105Y-119913743D01*
X245719978Y-120149790D01*
X245713671Y-120165017D01*
X245603416Y-120388592D01*
X245595175Y-120402865D01*
X245456684Y-120610133D01*
X245446651Y-120623210D01*
X245282286Y-120810632D01*
X245270632Y-120822286D01*
X245083210Y-120986651D01*
X245070133Y-120996684D01*
X244862865Y-121135175D01*
X244848592Y-121143416D01*
X244625017Y-121253671D01*
X244609790Y-121259978D01*
X244373743Y-121340105D01*
X244357824Y-121344371D01*
X244113327Y-121393005D01*
X244096986Y-121395156D01*
X243881732Y-121409264D01*
X243858696Y-121408239D01*
X243855146Y-121408196D01*
X243846270Y-121406814D01*
X243817762Y-121410542D01*
X243814749Y-121410936D01*
X243798411Y-121412000D01*
X52119328Y-121412000D01*
X52099943Y-121410500D01*
X52085142Y-121408195D01*
X52085139Y-121408195D01*
X52076270Y-121406814D01*
X52060001Y-121408941D01*
X52035433Y-121409734D01*
X51813015Y-121395156D01*
X51796674Y-121393005D01*
X51552176Y-121344371D01*
X51536257Y-121340105D01*
X51300210Y-121259978D01*
X51284983Y-121253671D01*
X51061408Y-121143416D01*
X51047135Y-121135175D01*
X50839867Y-120996684D01*
X50826790Y-120986651D01*
X50639368Y-120822286D01*
X50627714Y-120810632D01*
X50463349Y-120623210D01*
X50453316Y-120610133D01*
X50314825Y-120402865D01*
X50306584Y-120388592D01*
X50196329Y-120165017D01*
X50190022Y-120149790D01*
X50109895Y-119913743D01*
X50105629Y-119897824D01*
X50056995Y-119653327D01*
X50054844Y-119636986D01*
X50040736Y-119421732D01*
X50041761Y-119398696D01*
X50041804Y-119395146D01*
X50043186Y-119386270D01*
X50039064Y-119354748D01*
X50038000Y-119338411D01*
X50038000Y-104895730D01*
X73146814Y-104895730D01*
X73147978Y-104904632D01*
X73147961Y-104906047D01*
X73148249Y-104909058D01*
X73159840Y-105100672D01*
X73164520Y-105178050D01*
X73214370Y-105450075D01*
X73296646Y-105714108D01*
X73298208Y-105717578D01*
X73298210Y-105717584D01*
X73353397Y-105840203D01*
X73410148Y-105966299D01*
X73412117Y-105969556D01*
X73412119Y-105969560D01*
X73496923Y-106109842D01*
X73553220Y-106202969D01*
X73723777Y-106420669D01*
X73919331Y-106616223D01*
X74137031Y-106786780D01*
X74140285Y-106788747D01*
X74370440Y-106927881D01*
X74370444Y-106927883D01*
X74373701Y-106929852D01*
X74499796Y-106986603D01*
X74622416Y-107041790D01*
X74622422Y-107041792D01*
X74625892Y-107043354D01*
X74889925Y-107125630D01*
X75161950Y-107175480D01*
X75165744Y-107175709D01*
X75165748Y-107175710D01*
X75253396Y-107181011D01*
X75403455Y-107190088D01*
X75416737Y-107191603D01*
X75425461Y-107193071D01*
X75431959Y-107193150D01*
X75433141Y-107193165D01*
X75433145Y-107193165D01*
X75438000Y-107193224D01*
X75465588Y-107189273D01*
X75483451Y-107188000D01*
X99768793Y-107188000D01*
X99789697Y-107189746D01*
X99809461Y-107193071D01*
X99815789Y-107193148D01*
X99817141Y-107193165D01*
X99817145Y-107193165D01*
X99822000Y-107193224D01*
X99829541Y-107192144D01*
X99839791Y-107191102D01*
X100094253Y-107175710D01*
X100094258Y-107175709D01*
X100098050Y-107175480D01*
X100370075Y-107125630D01*
X100634108Y-107043354D01*
X100637578Y-107041792D01*
X100637584Y-107041790D01*
X100760204Y-106986603D01*
X100886299Y-106929852D01*
X100889556Y-106927883D01*
X100889560Y-106927881D01*
X101119715Y-106788747D01*
X101122969Y-106786780D01*
X101340669Y-106616223D01*
X101536223Y-106420669D01*
X101706780Y-106202969D01*
X101763077Y-106109842D01*
X101847881Y-105969560D01*
X101847883Y-105969556D01*
X101849852Y-105966299D01*
X101906603Y-105840203D01*
X101961790Y-105717584D01*
X101961792Y-105717578D01*
X101963354Y-105714108D01*
X102045630Y-105450075D01*
X102095480Y-105178050D01*
X102110088Y-104936545D01*
X102111603Y-104923263D01*
X102113071Y-104914539D01*
X102113224Y-104902000D01*
X102109273Y-104874412D01*
X102108000Y-104856549D01*
X102108000Y-96520000D01*
X102372835Y-96520000D01*
X102391465Y-96756711D01*
X102392619Y-96761518D01*
X102392620Y-96761524D01*
X102423249Y-96889101D01*
X102446895Y-96987594D01*
X102448788Y-96992165D01*
X102448789Y-96992167D01*
X102498811Y-97112930D01*
X102537760Y-97206963D01*
X102540346Y-97211183D01*
X102659241Y-97405202D01*
X102659245Y-97405208D01*
X102661824Y-97409416D01*
X102816031Y-97589969D01*
X102996584Y-97744176D01*
X103000792Y-97746755D01*
X103000798Y-97746759D01*
X103194817Y-97865654D01*
X103199037Y-97868240D01*
X103203607Y-97870133D01*
X103203611Y-97870135D01*
X103413833Y-97957211D01*
X103418406Y-97959105D01*
X103498609Y-97978360D01*
X103644476Y-98013380D01*
X103644482Y-98013381D01*
X103649289Y-98014535D01*
X103886000Y-98033165D01*
X104122711Y-98014535D01*
X104127518Y-98013381D01*
X104127524Y-98013380D01*
X104273391Y-97978360D01*
X104353594Y-97959105D01*
X104358167Y-97957211D01*
X104568389Y-97870135D01*
X104568393Y-97870133D01*
X104572963Y-97868240D01*
X104577183Y-97865654D01*
X104771202Y-97746759D01*
X104771208Y-97746755D01*
X104775416Y-97744176D01*
X104955969Y-97589969D01*
X105110176Y-97409416D01*
X105112755Y-97405208D01*
X105112759Y-97405202D01*
X105231654Y-97211183D01*
X105234240Y-97206963D01*
X105260474Y-97143628D01*
X105305022Y-97088347D01*
X105372385Y-97065926D01*
X105441177Y-97083484D01*
X105489555Y-97135446D01*
X105496196Y-97151345D01*
X105578154Y-97392785D01*
X105579480Y-97396691D01*
X105603164Y-97444718D01*
X105689531Y-97619852D01*
X105712018Y-97665452D01*
X105714312Y-97668885D01*
X105875030Y-97909417D01*
X105878503Y-97914615D01*
X105881217Y-97917709D01*
X105881221Y-97917715D01*
X106060502Y-98122144D01*
X106076086Y-98139914D01*
X106079175Y-98142623D01*
X106298285Y-98334779D01*
X106298291Y-98334783D01*
X106301385Y-98337497D01*
X106304811Y-98339786D01*
X106304816Y-98339790D01*
X106409019Y-98409416D01*
X106550547Y-98503982D01*
X106554246Y-98505806D01*
X106554251Y-98505809D01*
X106692022Y-98573749D01*
X106819309Y-98636520D01*
X106823214Y-98637846D01*
X106823215Y-98637846D01*
X107099163Y-98731518D01*
X107099166Y-98731519D01*
X107103070Y-98732844D01*
X107107109Y-98733647D01*
X107107115Y-98733649D01*
X107392934Y-98790502D01*
X107392937Y-98790502D01*
X107396977Y-98791306D01*
X107401088Y-98791575D01*
X107401092Y-98791576D01*
X107691881Y-98810635D01*
X107696000Y-98810905D01*
X107700119Y-98810635D01*
X107990908Y-98791576D01*
X107990912Y-98791575D01*
X107995023Y-98791306D01*
X107999063Y-98790502D01*
X107999066Y-98790502D01*
X108284885Y-98733649D01*
X108284891Y-98733647D01*
X108288930Y-98732844D01*
X108292834Y-98731519D01*
X108292837Y-98731518D01*
X108568785Y-98637846D01*
X108568786Y-98637846D01*
X108572691Y-98636520D01*
X108699978Y-98573749D01*
X108837749Y-98505809D01*
X108837754Y-98505806D01*
X108841453Y-98503982D01*
X108982981Y-98409416D01*
X109087184Y-98339790D01*
X109087189Y-98339786D01*
X109090615Y-98337497D01*
X109093709Y-98334783D01*
X109093715Y-98334779D01*
X109312825Y-98142623D01*
X109315914Y-98139914D01*
X109331498Y-98122144D01*
X109510779Y-97917715D01*
X109510783Y-97917709D01*
X109513497Y-97914615D01*
X109516971Y-97909417D01*
X109677688Y-97668885D01*
X109679982Y-97665452D01*
X109702470Y-97619852D01*
X109788836Y-97444718D01*
X109812520Y-97396691D01*
X109813846Y-97392785D01*
X109907518Y-97116837D01*
X109907519Y-97116834D01*
X109908844Y-97112930D01*
X109914702Y-97083484D01*
X109966502Y-96823066D01*
X109966502Y-96823063D01*
X109967306Y-96819023D01*
X109970225Y-96774491D01*
X118872033Y-96774491D01*
X118909757Y-97282073D01*
X118984996Y-97785464D01*
X119097338Y-98281893D01*
X119098015Y-98284108D01*
X119098019Y-98284122D01*
X119199410Y-98615722D01*
X119246164Y-98768631D01*
X119430655Y-99243000D01*
X119649797Y-99702391D01*
X119902385Y-100144276D01*
X120187028Y-100566225D01*
X120188480Y-100568066D01*
X120188481Y-100568068D01*
X120236685Y-100629206D01*
X120502162Y-100965917D01*
X120503726Y-100967623D01*
X120503734Y-100967633D01*
X120704951Y-101187191D01*
X120846052Y-101341154D01*
X120847768Y-101342768D01*
X120847769Y-101342769D01*
X121140762Y-101618346D01*
X121216807Y-101689871D01*
X121218630Y-101691347D01*
X121233640Y-101703500D01*
X121588042Y-101990438D01*
X121593092Y-101994527D01*
X121598108Y-101998810D01*
X121598767Y-101999403D01*
X121602126Y-102002933D01*
X121612066Y-102010579D01*
X121616335Y-102012919D01*
X121620408Y-102015578D01*
X121620148Y-102015976D01*
X121623729Y-102018492D01*
X121623996Y-102018086D01*
X121631503Y-102023016D01*
X121638228Y-102028956D01*
X121679247Y-102048214D01*
X121686197Y-102051477D01*
X121693195Y-102055033D01*
X121731804Y-102076188D01*
X121739679Y-102080503D01*
X121748446Y-102082434D01*
X121755071Y-102084920D01*
X121761823Y-102086984D01*
X121769948Y-102090799D01*
X121781483Y-102092595D01*
X121822322Y-102098954D01*
X121830035Y-102100403D01*
X121870934Y-102109410D01*
X121881788Y-102111800D01*
X121890741Y-102111193D01*
X121890744Y-102111193D01*
X121933553Y-102108289D01*
X121942079Y-102108000D01*
X129510332Y-102108000D01*
X129521927Y-102108535D01*
X129556757Y-102111754D01*
X129556758Y-102111754D01*
X129565696Y-102112580D01*
X129574502Y-102110865D01*
X129574504Y-102110865D01*
X129593328Y-102107199D01*
X129621542Y-102101705D01*
X129627745Y-102100658D01*
X129641770Y-102098649D01*
X129675159Y-102093868D01*
X129675162Y-102093867D01*
X129684045Y-102092595D01*
X129692212Y-102088882D01*
X129695981Y-102087780D01*
X129699717Y-102086481D01*
X129708528Y-102084765D01*
X129759066Y-102058659D01*
X129764722Y-102055914D01*
X129808345Y-102036080D01*
X129808348Y-102036078D01*
X129816510Y-102032367D01*
X129823304Y-102026513D01*
X129826857Y-102024241D01*
X129829363Y-102022796D01*
X129829349Y-102022774D01*
X129833487Y-102020214D01*
X129837811Y-102017980D01*
X129847934Y-102010579D01*
X129851283Y-102007227D01*
X129853418Y-102005449D01*
X130241370Y-101691347D01*
X130243193Y-101689871D01*
X130319239Y-101618346D01*
X130612231Y-101342769D01*
X130612232Y-101342768D01*
X130613948Y-101341154D01*
X130755049Y-101187191D01*
X130956266Y-100967633D01*
X130956274Y-100967623D01*
X130957838Y-100965917D01*
X131223315Y-100629206D01*
X131271519Y-100568068D01*
X131271520Y-100568066D01*
X131272972Y-100566225D01*
X131557615Y-100144276D01*
X131810203Y-99702391D01*
X132029345Y-99243000D01*
X132213836Y-98768631D01*
X132260590Y-98615722D01*
X132361981Y-98284122D01*
X132361985Y-98284108D01*
X132362662Y-98281893D01*
X132475004Y-97785464D01*
X132550243Y-97282073D01*
X132587967Y-96774491D01*
X132587967Y-96591868D01*
X144267340Y-96591868D01*
X144292046Y-97106219D01*
X144355248Y-97617270D01*
X144355710Y-97619572D01*
X144355712Y-97619584D01*
X144418490Y-97932336D01*
X144456590Y-98122144D01*
X144457229Y-98124425D01*
X144588663Y-98593585D01*
X144595502Y-98617998D01*
X144771201Y-99102041D01*
X144772164Y-99104180D01*
X144772169Y-99104191D01*
X144847239Y-99270839D01*
X144982698Y-99571547D01*
X145228803Y-100023874D01*
X145508130Y-100456476D01*
X145509550Y-100458351D01*
X145509552Y-100458353D01*
X145809206Y-100853848D01*
X145819107Y-100866916D01*
X145820664Y-100868679D01*
X146104460Y-101190017D01*
X146159982Y-101252884D01*
X146528838Y-101612207D01*
X146923597Y-101942862D01*
X147342037Y-102242988D01*
X147781802Y-102510896D01*
X147783904Y-102511969D01*
X147783907Y-102511971D01*
X148238310Y-102744001D01*
X148238318Y-102744005D01*
X148240416Y-102745076D01*
X148715298Y-102944210D01*
X149203774Y-103107178D01*
X149703095Y-103233062D01*
X149705403Y-103233463D01*
X149705409Y-103233464D01*
X149982695Y-103281608D01*
X150210448Y-103321153D01*
X150212795Y-103321381D01*
X150212802Y-103321382D01*
X150720617Y-103370727D01*
X150720628Y-103370728D01*
X150722978Y-103370956D01*
X150725336Y-103371007D01*
X150725345Y-103371008D01*
X151038249Y-103377835D01*
X151237800Y-103382189D01*
X151478840Y-103369346D01*
X151749671Y-103354915D01*
X151749674Y-103354915D01*
X151752015Y-103354790D01*
X152026342Y-103319405D01*
X152260382Y-103289217D01*
X152260392Y-103289215D01*
X152262728Y-103288914D01*
X152767064Y-103184930D01*
X152769328Y-103184283D01*
X152769336Y-103184281D01*
X153259918Y-103044072D01*
X153259927Y-103044069D01*
X153262184Y-103043424D01*
X153264387Y-103042611D01*
X153264394Y-103042609D01*
X153743079Y-102866013D01*
X153743093Y-102866007D01*
X153745300Y-102865193D01*
X154213692Y-102651240D01*
X154664725Y-102402770D01*
X154666675Y-102401497D01*
X154666689Y-102401488D01*
X155093875Y-102122477D01*
X155095858Y-102121182D01*
X155108900Y-102111193D01*
X155318125Y-101950938D01*
X155504664Y-101808060D01*
X155888842Y-101465168D01*
X155931064Y-101421370D01*
X156244593Y-101096133D01*
X156246229Y-101094436D01*
X156574813Y-100697952D01*
X156872744Y-100277946D01*
X156961756Y-100130097D01*
X157137125Y-99838811D01*
X157137129Y-99838804D01*
X157138345Y-99836784D01*
X157171933Y-99770148D01*
X157369056Y-99379061D01*
X157369056Y-99379060D01*
X157370120Y-99376950D01*
X157566766Y-98901032D01*
X157727174Y-98411709D01*
X157838763Y-97959105D01*
X157849878Y-97914021D01*
X157849879Y-97914018D01*
X157850441Y-97911737D01*
X157935875Y-97403929D01*
X157936201Y-97400389D01*
X157982805Y-96893189D01*
X157982993Y-96891145D01*
X157986770Y-96751551D01*
X221805368Y-96751551D01*
X221805588Y-96754170D01*
X221805588Y-96754172D01*
X221809888Y-96805380D01*
X221844120Y-97213028D01*
X221921350Y-97669644D01*
X221922005Y-97672194D01*
X221922006Y-97672200D01*
X222014687Y-98033165D01*
X222036519Y-98118196D01*
X222188818Y-98555538D01*
X222377178Y-98978602D01*
X222600279Y-99384421D01*
X222856555Y-99770148D01*
X223144209Y-100133077D01*
X223278353Y-100275926D01*
X223447901Y-100456476D01*
X223461224Y-100470664D01*
X223805376Y-100780539D01*
X223807460Y-100782121D01*
X223807465Y-100782125D01*
X224114045Y-101014832D01*
X224174250Y-101060530D01*
X224176484Y-101061948D01*
X224176493Y-101061954D01*
X224474553Y-101251108D01*
X224565259Y-101308672D01*
X224567586Y-101309888D01*
X224567592Y-101309892D01*
X224973323Y-101522003D01*
X224973328Y-101522005D01*
X224975661Y-101523225D01*
X225402577Y-101702684D01*
X225405085Y-101703499D01*
X225405088Y-101703500D01*
X225840498Y-101844973D01*
X225840502Y-101844974D01*
X225843013Y-101845790D01*
X226085551Y-101902677D01*
X226291310Y-101950938D01*
X226291317Y-101950939D01*
X226293878Y-101951540D01*
X226752012Y-102019191D01*
X226754653Y-102019357D01*
X226754661Y-102019358D01*
X227003665Y-102035023D01*
X227214199Y-102048269D01*
X227216831Y-102048214D01*
X227216838Y-102048214D01*
X227392475Y-102044535D01*
X227677199Y-102038571D01*
X228137763Y-101990164D01*
X228592662Y-101903387D01*
X228595194Y-101902680D01*
X228595207Y-101902677D01*
X229036166Y-101779559D01*
X229036174Y-101779556D01*
X229038704Y-101778850D01*
X229246254Y-101701663D01*
X229470287Y-101618346D01*
X229470293Y-101618343D01*
X229472760Y-101617426D01*
X229891787Y-101420247D01*
X230292845Y-101188696D01*
X230673120Y-100924398D01*
X230944631Y-100699785D01*
X231027917Y-100630885D01*
X231027923Y-100630879D01*
X231029946Y-100629206D01*
X231090278Y-100570125D01*
X231358946Y-100307025D01*
X231360819Y-100305191D01*
X231362532Y-100303206D01*
X231362539Y-100303199D01*
X231661684Y-99956635D01*
X231663419Y-99954625D01*
X231935623Y-99579969D01*
X232175522Y-99183848D01*
X232381433Y-98769043D01*
X232551912Y-98338462D01*
X232685763Y-97895126D01*
X232692028Y-97865654D01*
X232781500Y-97444718D01*
X232782047Y-97442145D01*
X232840089Y-96982695D01*
X232843841Y-96893189D01*
X232859371Y-96522648D01*
X232859482Y-96520000D01*
X232849777Y-96288449D01*
X232840200Y-96059951D01*
X232840200Y-96059949D01*
X232840089Y-96057305D01*
X232782047Y-95597855D01*
X232718531Y-95299035D01*
X232686309Y-95147441D01*
X232686307Y-95147433D01*
X232685763Y-95144874D01*
X232551912Y-94701538D01*
X232381433Y-94270957D01*
X232175522Y-93856152D01*
X231978544Y-93530902D01*
X231936989Y-93462286D01*
X231936985Y-93462280D01*
X231935623Y-93460031D01*
X231663419Y-93085375D01*
X231551342Y-92955532D01*
X231362539Y-92736801D01*
X231362532Y-92736794D01*
X231360819Y-92734809D01*
X231092378Y-92471932D01*
X231031822Y-92412631D01*
X231031821Y-92412630D01*
X231029946Y-92410794D01*
X231027923Y-92409121D01*
X231027917Y-92409115D01*
X230832475Y-92247432D01*
X230673120Y-92115602D01*
X230292845Y-91851304D01*
X229891787Y-91619753D01*
X229472760Y-91422574D01*
X229470293Y-91421657D01*
X229470287Y-91421654D01*
X229041164Y-91262065D01*
X229038704Y-91261150D01*
X229036174Y-91260444D01*
X229036166Y-91260441D01*
X228595207Y-91137323D01*
X228595194Y-91137320D01*
X228592662Y-91136613D01*
X228137763Y-91049836D01*
X227677199Y-91001429D01*
X227392475Y-90995465D01*
X227216838Y-90991786D01*
X227216831Y-90991786D01*
X227214199Y-90991731D01*
X227020458Y-91003920D01*
X226754661Y-91020642D01*
X226754653Y-91020643D01*
X226752012Y-91020809D01*
X226293878Y-91088460D01*
X226291317Y-91089061D01*
X226291310Y-91089062D01*
X226115561Y-91130284D01*
X225843013Y-91194210D01*
X225840502Y-91195026D01*
X225840498Y-91195027D01*
X225639174Y-91260441D01*
X225402577Y-91337316D01*
X224975661Y-91516775D01*
X224973328Y-91517995D01*
X224973323Y-91517997D01*
X224567592Y-91730108D01*
X224567586Y-91730112D01*
X224565259Y-91731328D01*
X224563031Y-91732742D01*
X224176493Y-91978046D01*
X224176484Y-91978052D01*
X224174250Y-91979470D01*
X224172143Y-91981069D01*
X224172142Y-91981070D01*
X223821224Y-92247432D01*
X223805376Y-92259461D01*
X223461224Y-92569336D01*
X223459420Y-92571257D01*
X223459416Y-92571261D01*
X223367036Y-92669637D01*
X223144209Y-92906923D01*
X222856555Y-93269852D01*
X222688627Y-93522604D01*
X222606528Y-93646174D01*
X222600279Y-93655579D01*
X222377178Y-94061398D01*
X222188818Y-94484462D01*
X222036519Y-94921804D01*
X222035864Y-94924355D01*
X222035861Y-94924365D01*
X221939662Y-95299035D01*
X221921350Y-95370356D01*
X221844120Y-95826972D01*
X221824999Y-96054679D01*
X221807058Y-96268329D01*
X221805368Y-96288449D01*
X221805368Y-96751551D01*
X157986770Y-96751551D01*
X157993036Y-96520000D01*
X157992882Y-96515881D01*
X157973806Y-96007787D01*
X157973806Y-96007785D01*
X157973717Y-96005418D01*
X157915871Y-95493734D01*
X157819821Y-94987826D01*
X157686110Y-94490545D01*
X157535404Y-94061398D01*
X157516272Y-94006918D01*
X157516270Y-94006913D01*
X157515489Y-94004689D01*
X157358485Y-93646174D01*
X157309867Y-93535155D01*
X157309865Y-93535151D01*
X157308920Y-93532993D01*
X157147030Y-93227881D01*
X157068670Y-93080196D01*
X157068666Y-93080190D01*
X157067565Y-93078114D01*
X156951271Y-92893798D01*
X156794050Y-92644617D01*
X156794046Y-92644611D01*
X156792784Y-92642611D01*
X156791376Y-92640711D01*
X156791368Y-92640700D01*
X156529292Y-92287172D01*
X156486122Y-92228937D01*
X156419045Y-92151364D01*
X156150859Y-91841215D01*
X156150849Y-91841204D01*
X156149307Y-91839421D01*
X155784234Y-91476255D01*
X155392960Y-91141484D01*
X155387286Y-91137323D01*
X155134837Y-90952220D01*
X154977686Y-90836992D01*
X154540750Y-90564494D01*
X154538679Y-90563409D01*
X154538672Y-90563405D01*
X154224715Y-90398924D01*
X154084613Y-90325525D01*
X154082465Y-90324598D01*
X154082451Y-90324591D01*
X153614004Y-90122361D01*
X153613996Y-90122358D01*
X153611842Y-90121428D01*
X153125100Y-89953354D01*
X153122828Y-89952756D01*
X153122822Y-89952754D01*
X152629402Y-89822847D01*
X152629390Y-89822844D01*
X152627125Y-89822248D01*
X152624814Y-89821822D01*
X152624806Y-89821820D01*
X152360947Y-89773155D01*
X152120722Y-89728849D01*
X151608741Y-89673682D01*
X151606362Y-89673605D01*
X151606360Y-89673605D01*
X151096425Y-89657134D01*
X151096419Y-89657134D01*
X151094065Y-89657058D01*
X150579592Y-89679071D01*
X150341992Y-89707193D01*
X150070554Y-89739319D01*
X150070544Y-89739321D01*
X150068217Y-89739596D01*
X150065904Y-89740048D01*
X150065902Y-89740048D01*
X149565134Y-89837841D01*
X149565131Y-89837842D01*
X149562820Y-89838293D01*
X149066245Y-89974606D01*
X149064023Y-89975400D01*
X149064018Y-89975401D01*
X148583529Y-90146968D01*
X148581289Y-90147768D01*
X148302032Y-90271809D01*
X148112863Y-90355835D01*
X148112858Y-90355838D01*
X148110682Y-90356804D01*
X148108590Y-90357928D01*
X148108582Y-90357932D01*
X147659157Y-90599417D01*
X147659143Y-90599425D01*
X147657072Y-90600538D01*
X147223014Y-90877596D01*
X147221115Y-90879019D01*
X147221111Y-90879022D01*
X147075004Y-90988523D01*
X146810952Y-91186419D01*
X146809180Y-91187967D01*
X146809172Y-91187974D01*
X146560215Y-91405536D01*
X146423204Y-91525269D01*
X146061954Y-91892238D01*
X145877587Y-92110022D01*
X145748693Y-92262279D01*
X145729237Y-92285261D01*
X145426924Y-92702123D01*
X145425689Y-92704126D01*
X145425684Y-92704134D01*
X145157962Y-93138460D01*
X145157956Y-93138470D01*
X145156718Y-93140479D01*
X144920139Y-93597861D01*
X144919212Y-93600040D01*
X144919209Y-93600046D01*
X144721877Y-94063808D01*
X144718521Y-94071694D01*
X144717763Y-94073927D01*
X144576341Y-94490545D01*
X144552998Y-94559310D01*
X144552409Y-94561595D01*
X144552408Y-94561599D01*
X144501188Y-94760367D01*
X144424501Y-95057965D01*
X144424083Y-95060297D01*
X144424082Y-95060304D01*
X144420396Y-95080895D01*
X144333755Y-95564850D01*
X144281269Y-96077112D01*
X144281206Y-96079446D01*
X144281205Y-96079459D01*
X144277376Y-96220977D01*
X144273147Y-96377267D01*
X144267340Y-96591868D01*
X132587967Y-96591868D01*
X132587967Y-96265509D01*
X132550243Y-95757927D01*
X132475004Y-95254536D01*
X132362662Y-94758107D01*
X132361985Y-94755892D01*
X132361981Y-94755878D01*
X132214523Y-94273616D01*
X132213836Y-94271369D01*
X132029345Y-93797000D01*
X131904438Y-93535155D01*
X131811216Y-93339732D01*
X131811213Y-93339726D01*
X131810203Y-93337609D01*
X131557615Y-92895724D01*
X131272972Y-92473775D01*
X131224764Y-92412631D01*
X130959280Y-92075912D01*
X130957838Y-92074083D01*
X130956274Y-92072377D01*
X130956266Y-92072367D01*
X130615537Y-91700580D01*
X130613948Y-91698846D01*
X130483913Y-91576540D01*
X130244903Y-91351737D01*
X130244898Y-91351732D01*
X130243193Y-91350129D01*
X130227368Y-91337316D01*
X130050615Y-91194210D01*
X129866905Y-91045470D01*
X129861892Y-91041190D01*
X129861233Y-91040597D01*
X129857874Y-91037067D01*
X129847934Y-91029421D01*
X129843665Y-91027081D01*
X129839592Y-91024422D01*
X129839852Y-91024024D01*
X129836271Y-91021508D01*
X129836004Y-91021914D01*
X129828497Y-91016984D01*
X129821772Y-91011044D01*
X129773798Y-90988520D01*
X129766805Y-90984967D01*
X129728196Y-90963812D01*
X129728195Y-90963812D01*
X129720321Y-90959497D01*
X129711554Y-90957566D01*
X129704929Y-90955080D01*
X129698177Y-90953016D01*
X129690052Y-90949201D01*
X129667595Y-90945704D01*
X129637678Y-90941046D01*
X129629965Y-90939597D01*
X129586980Y-90930131D01*
X129578212Y-90928200D01*
X129569259Y-90928807D01*
X129569256Y-90928807D01*
X129526447Y-90931711D01*
X129517921Y-90932000D01*
X121949668Y-90932000D01*
X121938073Y-90931465D01*
X121903243Y-90928246D01*
X121903242Y-90928246D01*
X121894304Y-90927420D01*
X121885498Y-90929135D01*
X121885496Y-90929135D01*
X121873532Y-90931465D01*
X121838458Y-90938295D01*
X121832255Y-90939342D01*
X121820357Y-90941046D01*
X121784841Y-90946132D01*
X121784838Y-90946133D01*
X121775955Y-90947405D01*
X121767788Y-90951118D01*
X121764019Y-90952220D01*
X121760283Y-90953519D01*
X121751472Y-90955235D01*
X121700934Y-90981341D01*
X121695278Y-90984086D01*
X121651655Y-91003920D01*
X121651652Y-91003922D01*
X121643490Y-91007633D01*
X121636696Y-91013487D01*
X121633143Y-91015759D01*
X121630637Y-91017204D01*
X121630651Y-91017226D01*
X121626513Y-91019786D01*
X121622189Y-91022020D01*
X121612066Y-91029421D01*
X121608717Y-91032773D01*
X121606582Y-91034551D01*
X121231685Y-91338083D01*
X121216807Y-91350129D01*
X121215102Y-91351732D01*
X121215097Y-91351737D01*
X120976087Y-91576540D01*
X120846052Y-91698846D01*
X120844463Y-91700580D01*
X120503734Y-92072367D01*
X120503726Y-92072377D01*
X120502162Y-92074083D01*
X120500720Y-92075912D01*
X120235237Y-92412631D01*
X120187028Y-92473775D01*
X119902385Y-92895724D01*
X119649797Y-93337609D01*
X119648787Y-93339726D01*
X119648784Y-93339732D01*
X119555562Y-93535155D01*
X119430655Y-93797000D01*
X119246164Y-94271369D01*
X119245477Y-94273616D01*
X119098019Y-94755878D01*
X119098015Y-94755892D01*
X119097338Y-94758107D01*
X118984996Y-95254536D01*
X118909757Y-95757927D01*
X118872033Y-96265509D01*
X118872033Y-96774491D01*
X109970225Y-96774491D01*
X109971729Y-96751551D01*
X109986635Y-96524119D01*
X109986905Y-96520000D01*
X109971901Y-96291078D01*
X109967576Y-96225092D01*
X109967575Y-96225088D01*
X109967306Y-96220977D01*
X109966502Y-96216934D01*
X109909649Y-95931115D01*
X109909647Y-95931109D01*
X109908844Y-95927070D01*
X109898424Y-95896372D01*
X109813846Y-95647215D01*
X109813846Y-95647214D01*
X109812520Y-95643309D01*
X109705019Y-95425318D01*
X109681809Y-95378252D01*
X109681806Y-95378247D01*
X109679982Y-95374548D01*
X109543218Y-95169865D01*
X109515790Y-95128816D01*
X109515786Y-95128811D01*
X109513497Y-95125385D01*
X109510783Y-95122291D01*
X109510779Y-95122285D01*
X109318623Y-94903175D01*
X109315914Y-94900086D01*
X109154019Y-94758107D01*
X109093715Y-94705221D01*
X109093709Y-94705217D01*
X109090615Y-94702503D01*
X109087189Y-94700214D01*
X109087184Y-94700210D01*
X108844886Y-94538312D01*
X108841453Y-94536018D01*
X108837754Y-94534194D01*
X108837749Y-94534191D01*
X108659755Y-94446415D01*
X108572691Y-94403480D01*
X108568785Y-94402154D01*
X108292837Y-94308482D01*
X108292834Y-94308481D01*
X108288930Y-94307156D01*
X108284891Y-94306353D01*
X108284885Y-94306351D01*
X107999066Y-94249498D01*
X107999063Y-94249498D01*
X107995023Y-94248694D01*
X107990912Y-94248425D01*
X107990908Y-94248424D01*
X107700119Y-94229365D01*
X107696000Y-94229095D01*
X107691881Y-94229365D01*
X107401092Y-94248424D01*
X107401088Y-94248425D01*
X107396977Y-94248694D01*
X107392937Y-94249498D01*
X107392934Y-94249498D01*
X107107115Y-94306351D01*
X107107109Y-94306353D01*
X107103070Y-94307156D01*
X107099166Y-94308481D01*
X107099163Y-94308482D01*
X106823215Y-94402154D01*
X106819309Y-94403480D01*
X106732245Y-94446415D01*
X106554252Y-94534191D01*
X106554247Y-94534194D01*
X106550548Y-94536018D01*
X106547115Y-94538312D01*
X106304816Y-94700210D01*
X106304811Y-94700214D01*
X106301385Y-94702503D01*
X106298291Y-94705217D01*
X106298285Y-94705221D01*
X106237981Y-94758107D01*
X106076086Y-94900086D01*
X106073377Y-94903175D01*
X105881221Y-95122285D01*
X105881217Y-95122291D01*
X105878503Y-95125385D01*
X105876214Y-95128811D01*
X105876210Y-95128816D01*
X105848782Y-95169865D01*
X105712018Y-95374548D01*
X105710194Y-95378247D01*
X105710191Y-95378252D01*
X105686981Y-95425318D01*
X105579480Y-95643309D01*
X105578154Y-95647214D01*
X105578154Y-95647215D01*
X105496196Y-95888655D01*
X105455359Y-95946732D01*
X105389606Y-95973510D01*
X105319814Y-95960489D01*
X105268141Y-95911802D01*
X105260474Y-95896372D01*
X105236135Y-95837611D01*
X105236133Y-95837607D01*
X105234240Y-95833037D01*
X105223262Y-95815123D01*
X105112759Y-95634798D01*
X105112755Y-95634792D01*
X105110176Y-95630584D01*
X104976968Y-95474618D01*
X104959177Y-95453787D01*
X104955969Y-95450031D01*
X104775416Y-95295824D01*
X104771208Y-95293245D01*
X104771202Y-95293241D01*
X104577183Y-95174346D01*
X104572963Y-95171760D01*
X104568393Y-95169867D01*
X104568389Y-95169865D01*
X104358167Y-95082789D01*
X104358165Y-95082788D01*
X104353594Y-95080895D01*
X104267826Y-95060304D01*
X104127524Y-95026620D01*
X104127518Y-95026619D01*
X104122711Y-95025465D01*
X103886000Y-95006835D01*
X103649289Y-95025465D01*
X103644482Y-95026619D01*
X103644476Y-95026620D01*
X103504174Y-95060304D01*
X103418406Y-95080895D01*
X103413835Y-95082788D01*
X103413833Y-95082789D01*
X103203611Y-95169865D01*
X103203607Y-95169867D01*
X103199037Y-95171760D01*
X103194817Y-95174346D01*
X103000798Y-95293241D01*
X103000792Y-95293245D01*
X102996584Y-95295824D01*
X102816031Y-95450031D01*
X102812823Y-95453787D01*
X102795032Y-95474618D01*
X102661824Y-95630584D01*
X102659245Y-95634792D01*
X102659241Y-95634798D01*
X102548738Y-95815123D01*
X102537760Y-95833037D01*
X102535867Y-95837607D01*
X102535865Y-95837611D01*
X102451489Y-96041315D01*
X102446895Y-96052406D01*
X102445740Y-96057218D01*
X102395057Y-96268329D01*
X102391465Y-96283289D01*
X102372835Y-96520000D01*
X102108000Y-96520000D01*
X102108000Y-88191207D01*
X102109746Y-88170303D01*
X102112264Y-88155335D01*
X102113071Y-88150539D01*
X102113224Y-88138000D01*
X102112144Y-88130459D01*
X102111102Y-88120209D01*
X102095710Y-87865747D01*
X102095709Y-87865742D01*
X102095480Y-87861950D01*
X102045630Y-87589925D01*
X101963354Y-87325892D01*
X101924686Y-87239974D01*
X101851416Y-87077177D01*
X101849852Y-87073701D01*
X101809181Y-87006422D01*
X101708747Y-86840285D01*
X101706780Y-86837031D01*
X101536223Y-86619331D01*
X101340669Y-86423777D01*
X101122969Y-86253220D01*
X101063261Y-86217125D01*
X100889560Y-86112119D01*
X100889556Y-86112117D01*
X100886299Y-86110148D01*
X100760203Y-86053397D01*
X100637584Y-85998210D01*
X100637578Y-85998208D01*
X100634108Y-85996646D01*
X100370075Y-85914370D01*
X100098050Y-85864520D01*
X100094256Y-85864291D01*
X100094252Y-85864290D01*
X100006604Y-85858989D01*
X99856545Y-85849912D01*
X99843263Y-85848397D01*
X99834539Y-85846929D01*
X99828041Y-85846850D01*
X99826859Y-85846835D01*
X99826855Y-85846835D01*
X99822000Y-85846776D01*
X99797715Y-85850254D01*
X99794412Y-85850727D01*
X99776549Y-85852000D01*
X75491207Y-85852000D01*
X75470303Y-85850254D01*
X75467137Y-85849721D01*
X75450539Y-85846929D01*
X75444211Y-85846852D01*
X75442859Y-85846835D01*
X75442855Y-85846835D01*
X75438000Y-85846776D01*
X75430517Y-85847848D01*
X75430459Y-85847856D01*
X75420209Y-85848898D01*
X75165747Y-85864290D01*
X75165742Y-85864291D01*
X75161950Y-85864520D01*
X74889925Y-85914370D01*
X74625892Y-85996646D01*
X74622422Y-85998208D01*
X74622416Y-85998210D01*
X74499797Y-86053397D01*
X74373701Y-86110148D01*
X74370444Y-86112117D01*
X74370440Y-86112119D01*
X74196739Y-86217125D01*
X74137031Y-86253220D01*
X73919331Y-86423777D01*
X73723777Y-86619331D01*
X73553220Y-86837031D01*
X73551253Y-86840285D01*
X73450820Y-87006422D01*
X73410148Y-87073701D01*
X73408584Y-87077177D01*
X73335315Y-87239974D01*
X73296646Y-87325892D01*
X73214370Y-87589925D01*
X73164520Y-87861950D01*
X73164291Y-87865744D01*
X73164290Y-87865748D01*
X73149441Y-88111242D01*
X73148197Y-88122771D01*
X73148196Y-88122856D01*
X73146814Y-88131730D01*
X73148638Y-88145678D01*
X73150936Y-88163251D01*
X73152000Y-88179589D01*
X73152000Y-104852672D01*
X73150500Y-104872056D01*
X73146814Y-104895730D01*
X50038000Y-104895730D01*
X50038000Y-96520000D01*
X65273095Y-96520000D01*
X65273365Y-96524119D01*
X65288272Y-96751551D01*
X65292694Y-96819023D01*
X65293498Y-96823063D01*
X65293498Y-96823066D01*
X65345299Y-97083484D01*
X65351156Y-97112930D01*
X65352481Y-97116834D01*
X65352482Y-97116837D01*
X65446154Y-97392785D01*
X65447480Y-97396691D01*
X65471164Y-97444718D01*
X65557531Y-97619852D01*
X65580018Y-97665452D01*
X65582312Y-97668885D01*
X65743030Y-97909417D01*
X65746503Y-97914615D01*
X65749217Y-97917709D01*
X65749221Y-97917715D01*
X65928502Y-98122144D01*
X65944086Y-98139914D01*
X65947175Y-98142623D01*
X66166285Y-98334779D01*
X66166291Y-98334783D01*
X66169385Y-98337497D01*
X66172811Y-98339786D01*
X66172816Y-98339790D01*
X66277019Y-98409416D01*
X66418547Y-98503982D01*
X66422246Y-98505806D01*
X66422251Y-98505809D01*
X66560022Y-98573749D01*
X66687309Y-98636520D01*
X66691214Y-98637846D01*
X66691215Y-98637846D01*
X66967163Y-98731518D01*
X66967166Y-98731519D01*
X66971070Y-98732844D01*
X66975109Y-98733647D01*
X66975115Y-98733649D01*
X67260934Y-98790502D01*
X67260937Y-98790502D01*
X67264977Y-98791306D01*
X67269088Y-98791575D01*
X67269092Y-98791576D01*
X67559881Y-98810635D01*
X67564000Y-98810905D01*
X67568119Y-98810635D01*
X67858908Y-98791576D01*
X67858912Y-98791575D01*
X67863023Y-98791306D01*
X67867063Y-98790502D01*
X67867066Y-98790502D01*
X68152885Y-98733649D01*
X68152891Y-98733647D01*
X68156930Y-98732844D01*
X68160834Y-98731519D01*
X68160837Y-98731518D01*
X68436785Y-98637846D01*
X68436786Y-98637846D01*
X68440691Y-98636520D01*
X68567978Y-98573749D01*
X68705749Y-98505809D01*
X68705754Y-98505806D01*
X68709453Y-98503982D01*
X68850981Y-98409416D01*
X68955184Y-98339790D01*
X68955189Y-98339786D01*
X68958615Y-98337497D01*
X68961709Y-98334783D01*
X68961715Y-98334779D01*
X69180825Y-98142623D01*
X69183914Y-98139914D01*
X69199498Y-98122144D01*
X69378779Y-97917715D01*
X69378783Y-97917709D01*
X69381497Y-97914615D01*
X69384971Y-97909417D01*
X69545688Y-97668885D01*
X69547982Y-97665452D01*
X69570470Y-97619852D01*
X69656836Y-97444718D01*
X69680520Y-97396691D01*
X69681846Y-97392785D01*
X69775518Y-97116837D01*
X69775519Y-97116834D01*
X69776844Y-97112930D01*
X69782702Y-97083484D01*
X69834502Y-96823066D01*
X69834502Y-96823063D01*
X69835306Y-96819023D01*
X69839729Y-96751551D01*
X69854635Y-96524119D01*
X69854905Y-96520000D01*
X69839901Y-96291078D01*
X69835576Y-96225092D01*
X69835575Y-96225088D01*
X69835306Y-96220977D01*
X69834502Y-96216934D01*
X69777649Y-95931115D01*
X69777647Y-95931109D01*
X69776844Y-95927070D01*
X69766424Y-95896372D01*
X69681846Y-95647215D01*
X69681846Y-95647214D01*
X69680520Y-95643309D01*
X69573019Y-95425318D01*
X69549809Y-95378252D01*
X69549806Y-95378247D01*
X69547982Y-95374548D01*
X69411218Y-95169865D01*
X69383790Y-95128816D01*
X69383786Y-95128811D01*
X69381497Y-95125385D01*
X69378783Y-95122291D01*
X69378779Y-95122285D01*
X69186623Y-94903175D01*
X69183914Y-94900086D01*
X69022019Y-94758107D01*
X68961715Y-94705221D01*
X68961709Y-94705217D01*
X68958615Y-94702503D01*
X68955189Y-94700214D01*
X68955184Y-94700210D01*
X68712886Y-94538312D01*
X68709453Y-94536018D01*
X68705754Y-94534194D01*
X68705749Y-94534191D01*
X68527755Y-94446415D01*
X68440691Y-94403480D01*
X68436785Y-94402154D01*
X68160837Y-94308482D01*
X68160834Y-94308481D01*
X68156930Y-94307156D01*
X68152891Y-94306353D01*
X68152885Y-94306351D01*
X67867066Y-94249498D01*
X67867063Y-94249498D01*
X67863023Y-94248694D01*
X67858912Y-94248425D01*
X67858908Y-94248424D01*
X67568119Y-94229365D01*
X67564000Y-94229095D01*
X67559881Y-94229365D01*
X67269092Y-94248424D01*
X67269088Y-94248425D01*
X67264977Y-94248694D01*
X67260937Y-94249498D01*
X67260934Y-94249498D01*
X66975115Y-94306351D01*
X66975109Y-94306353D01*
X66971070Y-94307156D01*
X66967166Y-94308481D01*
X66967163Y-94308482D01*
X66691215Y-94402154D01*
X66687309Y-94403480D01*
X66600245Y-94446415D01*
X66422252Y-94534191D01*
X66422247Y-94534194D01*
X66418548Y-94536018D01*
X66415115Y-94538312D01*
X66172816Y-94700210D01*
X66172811Y-94700214D01*
X66169385Y-94702503D01*
X66166291Y-94705217D01*
X66166285Y-94705221D01*
X66105981Y-94758107D01*
X65944086Y-94900086D01*
X65941377Y-94903175D01*
X65749221Y-95122285D01*
X65749217Y-95122291D01*
X65746503Y-95125385D01*
X65744214Y-95128811D01*
X65744210Y-95128816D01*
X65716782Y-95169865D01*
X65580018Y-95374548D01*
X65578194Y-95378247D01*
X65578191Y-95378252D01*
X65554981Y-95425318D01*
X65447480Y-95643309D01*
X65446154Y-95647214D01*
X65446154Y-95647215D01*
X65361577Y-95896372D01*
X65351156Y-95927070D01*
X65350353Y-95931109D01*
X65350351Y-95931115D01*
X65293498Y-96216934D01*
X65292694Y-96220977D01*
X65292425Y-96225088D01*
X65292424Y-96225092D01*
X65288099Y-96291078D01*
X65273095Y-96520000D01*
X50038000Y-96520000D01*
X50038000Y-73709328D01*
X50039500Y-73689943D01*
X50041805Y-73675142D01*
X50041805Y-73675139D01*
X50043186Y-73666270D01*
X50041059Y-73650001D01*
X50040266Y-73625433D01*
X50054844Y-73403015D01*
X50056995Y-73386674D01*
X50105629Y-73142176D01*
X50109895Y-73126257D01*
X50190022Y-72890210D01*
X50196329Y-72874983D01*
X50306584Y-72651408D01*
X50314825Y-72637135D01*
X50453316Y-72429867D01*
X50463349Y-72416790D01*
X50627714Y-72229368D01*
X50639368Y-72217714D01*
X50826790Y-72053349D01*
X50839867Y-72043316D01*
X51047135Y-71904825D01*
X51061408Y-71896584D01*
X51284983Y-71786329D01*
X51300210Y-71780022D01*
X51536257Y-71699895D01*
X51552176Y-71695629D01*
X51796673Y-71646995D01*
X51813014Y-71644844D01*
X52028268Y-71630736D01*
X52051304Y-71631761D01*
X52054854Y-71631804D01*
X52063730Y-71633186D01*
X52095252Y-71629064D01*
X52111589Y-71628000D01*
X243790672Y-71628000D01*
X243810057Y-71629500D01*
G37*
G04 #@! TD.AperFunction*
M02*
