%FSLAX45Y45*%
G04 Gerber Fmt 4.5, Leading zero omitted, Abs format (unit mm)*
G04 Created by KiCad (PCBNEW 6.0.6-3a73a75311~116~ubuntu22.04.1) date 2022-07-16 14:16:35*
%MOMM*%
%LPD*%
G01*
G04 APERTURE LIST*
%TA.AperFunction,Profile*%
%ADD10C,0.050000*%
%TD*%
%ADD11C,0.200000*%
%ADD12C,0.100000*%
G04 APERTURE END LIST*
D10*
X24384000Y-7112000D02*
X5207000Y-7112000D01*
X24384000Y-12192000D02*
G75*
G03*
X24638000Y-11938000I0J254000D01*
G01*
X23234650Y-9652000D02*
G75*
G03*
X23234650Y-9652000I-501650J0D01*
G01*
X5207000Y-12192000D02*
X24384000Y-12192000D01*
X15748000Y-9652000D02*
G75*
G03*
X15748000Y-9652000I-635000J0D01*
G01*
X24638000Y-11938000D02*
X24638000Y-7366000D01*
X24638000Y-7366000D02*
G75*
G03*
X24384000Y-7112000I-254000J0D01*
G01*
X10947400Y-9652000D02*
G75*
G03*
X10947400Y-9652000I-177800J0D01*
G01*
X7366000Y-8813800D02*
X7366000Y-10490200D01*
X7543800Y-10668000D02*
X9982200Y-10668000D01*
X10160000Y-8813800D02*
G75*
G03*
X9982200Y-8636000I-177800J0D01*
G01*
X6934200Y-9652000D02*
G75*
G03*
X6934200Y-9652000I-177800J0D01*
G01*
X5207000Y-7112000D02*
G75*
G03*
X4953000Y-7366000I0J-254000D01*
G01*
X9982200Y-10668000D02*
G75*
G03*
X10160000Y-10490200I0J177800D01*
G01*
X12192000Y-10160000D02*
X12954000Y-10160000D01*
X10160000Y-8813800D02*
X10160000Y-10490200D01*
X7543800Y-8636000D02*
X9982200Y-8636000D01*
X12954000Y-10160000D02*
G75*
G03*
X12954000Y-9144000I-381000J508000D01*
G01*
X7366000Y-10490200D02*
G75*
G03*
X7543800Y-10668000I177800J0D01*
G01*
X4953000Y-11938000D02*
G75*
G03*
X5207000Y-12192000I254000J0D01*
G01*
X12192000Y-9144000D02*
X12954000Y-9144000D01*
X4953000Y-7366000D02*
X4953000Y-11938000D01*
X12192000Y-9144000D02*
G75*
G03*
X12192000Y-10160000I381000J-508000D01*
G01*
X7543800Y-8636000D02*
G75*
G03*
X7366000Y-8813800I0J-177800D01*
G01*
D11*
D12*
X10338600Y-9602000D02*
X10438600Y-9702000D01*
X10438600Y-9602000D02*
X10338600Y-9702000D01*
D11*
X5208119Y-12504976D02*
X5208119Y-12304976D01*
X5255738Y-12304976D01*
X5284310Y-12314500D01*
X5303357Y-12333548D01*
X5312881Y-12352595D01*
X5322405Y-12390690D01*
X5322405Y-12419262D01*
X5312881Y-12457357D01*
X5303357Y-12476405D01*
X5284310Y-12495452D01*
X5255738Y-12504976D01*
X5208119Y-12504976D01*
X5408119Y-12504976D02*
X5408119Y-12371643D01*
X5408119Y-12409738D02*
X5417643Y-12390690D01*
X5427167Y-12381167D01*
X5446214Y-12371643D01*
X5465262Y-12371643D01*
X5531929Y-12504976D02*
X5531929Y-12371643D01*
X5531929Y-12304976D02*
X5522405Y-12314500D01*
X5531929Y-12324024D01*
X5541452Y-12314500D01*
X5531929Y-12304976D01*
X5531929Y-12324024D01*
X5655738Y-12504976D02*
X5636690Y-12495452D01*
X5627167Y-12476405D01*
X5627167Y-12304976D01*
X5760500Y-12504976D02*
X5741452Y-12495452D01*
X5731928Y-12476405D01*
X5731928Y-12304976D01*
X5989071Y-12504976D02*
X5989071Y-12304976D01*
X6055738Y-12447833D01*
X6122405Y-12304976D01*
X6122405Y-12504976D01*
X6303357Y-12504976D02*
X6303357Y-12400214D01*
X6293833Y-12381167D01*
X6274786Y-12371643D01*
X6236690Y-12371643D01*
X6217643Y-12381167D01*
X6303357Y-12495452D02*
X6284309Y-12504976D01*
X6236690Y-12504976D01*
X6217643Y-12495452D01*
X6208119Y-12476405D01*
X6208119Y-12457357D01*
X6217643Y-12438309D01*
X6236690Y-12428786D01*
X6284309Y-12428786D01*
X6303357Y-12419262D01*
X6398595Y-12371643D02*
X6398595Y-12571643D01*
X6398595Y-12381167D02*
X6417643Y-12371643D01*
X6455738Y-12371643D01*
X6474786Y-12381167D01*
X6484309Y-12390690D01*
X6493833Y-12409738D01*
X6493833Y-12466881D01*
X6484309Y-12485928D01*
X6474786Y-12495452D01*
X6455738Y-12504976D01*
X6417643Y-12504976D01*
X6398595Y-12495452D01*
X6579548Y-12485928D02*
X6589071Y-12495452D01*
X6579548Y-12504976D01*
X6570024Y-12495452D01*
X6579548Y-12485928D01*
X6579548Y-12504976D01*
X6579548Y-12381167D02*
X6589071Y-12390690D01*
X6579548Y-12400214D01*
X6570024Y-12390690D01*
X6579548Y-12381167D01*
X6579548Y-12400214D01*
D12*
X4850500Y-12784500D02*
X4950500Y-12884500D01*
X4950500Y-12784500D02*
X4850500Y-12884500D01*
D11*
X5312881Y-12924976D02*
X5198595Y-12924976D01*
X5255738Y-12924976D02*
X5255738Y-12724976D01*
X5236690Y-12753548D01*
X5217643Y-12772595D01*
X5198595Y-12782119D01*
X5398595Y-12905928D02*
X5408119Y-12915452D01*
X5398595Y-12924976D01*
X5389071Y-12915452D01*
X5398595Y-12905928D01*
X5398595Y-12924976D01*
X5531929Y-12724976D02*
X5550976Y-12724976D01*
X5570024Y-12734500D01*
X5579548Y-12744024D01*
X5589071Y-12763071D01*
X5598595Y-12801167D01*
X5598595Y-12848786D01*
X5589071Y-12886881D01*
X5579548Y-12905928D01*
X5570024Y-12915452D01*
X5550976Y-12924976D01*
X5531929Y-12924976D01*
X5512881Y-12915452D01*
X5503357Y-12905928D01*
X5493833Y-12886881D01*
X5484310Y-12848786D01*
X5484310Y-12801167D01*
X5493833Y-12763071D01*
X5503357Y-12744024D01*
X5512881Y-12734500D01*
X5531929Y-12724976D01*
X5722405Y-12724976D02*
X5741452Y-12724976D01*
X5760500Y-12734500D01*
X5770024Y-12744024D01*
X5779548Y-12763071D01*
X5789071Y-12801167D01*
X5789071Y-12848786D01*
X5779548Y-12886881D01*
X5770024Y-12905928D01*
X5760500Y-12915452D01*
X5741452Y-12924976D01*
X5722405Y-12924976D01*
X5703357Y-12915452D01*
X5693833Y-12905928D01*
X5684309Y-12886881D01*
X5674786Y-12848786D01*
X5674786Y-12801167D01*
X5684309Y-12763071D01*
X5693833Y-12744024D01*
X5703357Y-12734500D01*
X5722405Y-12724976D01*
X5912881Y-12724976D02*
X5931928Y-12724976D01*
X5950976Y-12734500D01*
X5960500Y-12744024D01*
X5970024Y-12763071D01*
X5979548Y-12801167D01*
X5979548Y-12848786D01*
X5970024Y-12886881D01*
X5960500Y-12905928D01*
X5950976Y-12915452D01*
X5931928Y-12924976D01*
X5912881Y-12924976D01*
X5893833Y-12915452D01*
X5884309Y-12905928D01*
X5874786Y-12886881D01*
X5865262Y-12848786D01*
X5865262Y-12801167D01*
X5874786Y-12763071D01*
X5884309Y-12744024D01*
X5893833Y-12734500D01*
X5912881Y-12724976D01*
X6065262Y-12924976D02*
X6065262Y-12791643D01*
X6065262Y-12810690D02*
X6074786Y-12801167D01*
X6093833Y-12791643D01*
X6122405Y-12791643D01*
X6141452Y-12801167D01*
X6150976Y-12820214D01*
X6150976Y-12924976D01*
X6150976Y-12820214D02*
X6160500Y-12801167D01*
X6179548Y-12791643D01*
X6208119Y-12791643D01*
X6227167Y-12801167D01*
X6236690Y-12820214D01*
X6236690Y-12924976D01*
X6331928Y-12924976D02*
X6331928Y-12791643D01*
X6331928Y-12810690D02*
X6341452Y-12801167D01*
X6360500Y-12791643D01*
X6389071Y-12791643D01*
X6408119Y-12801167D01*
X6417643Y-12820214D01*
X6417643Y-12924976D01*
X6417643Y-12820214D02*
X6427167Y-12801167D01*
X6446214Y-12791643D01*
X6474786Y-12791643D01*
X6493833Y-12801167D01*
X6503357Y-12820214D01*
X6503357Y-12924976D01*
X6893833Y-12715452D02*
X6722405Y-12972595D01*
X7150976Y-12724976D02*
X7170024Y-12724976D01*
X7189071Y-12734500D01*
X7198595Y-12744024D01*
X7208119Y-12763071D01*
X7217643Y-12801167D01*
X7217643Y-12848786D01*
X7208119Y-12886881D01*
X7198595Y-12905928D01*
X7189071Y-12915452D01*
X7170024Y-12924976D01*
X7150976Y-12924976D01*
X7131928Y-12915452D01*
X7122405Y-12905928D01*
X7112881Y-12886881D01*
X7103357Y-12848786D01*
X7103357Y-12801167D01*
X7112881Y-12763071D01*
X7122405Y-12744024D01*
X7131928Y-12734500D01*
X7150976Y-12724976D01*
X7303357Y-12905928D02*
X7312881Y-12915452D01*
X7303357Y-12924976D01*
X7293833Y-12915452D01*
X7303357Y-12905928D01*
X7303357Y-12924976D01*
X7436690Y-12724976D02*
X7455738Y-12724976D01*
X7474786Y-12734500D01*
X7484309Y-12744024D01*
X7493833Y-12763071D01*
X7503357Y-12801167D01*
X7503357Y-12848786D01*
X7493833Y-12886881D01*
X7484309Y-12905928D01*
X7474786Y-12915452D01*
X7455738Y-12924976D01*
X7436690Y-12924976D01*
X7417643Y-12915452D01*
X7408119Y-12905928D01*
X7398595Y-12886881D01*
X7389071Y-12848786D01*
X7389071Y-12801167D01*
X7398595Y-12763071D01*
X7408119Y-12744024D01*
X7417643Y-12734500D01*
X7436690Y-12724976D01*
X7570024Y-12724976D02*
X7693833Y-12724976D01*
X7627167Y-12801167D01*
X7655738Y-12801167D01*
X7674786Y-12810690D01*
X7684309Y-12820214D01*
X7693833Y-12839262D01*
X7693833Y-12886881D01*
X7684309Y-12905928D01*
X7674786Y-12915452D01*
X7655738Y-12924976D01*
X7598595Y-12924976D01*
X7579548Y-12915452D01*
X7570024Y-12905928D01*
X7789071Y-12924976D02*
X7827167Y-12924976D01*
X7846214Y-12915452D01*
X7855738Y-12905928D01*
X7874786Y-12877357D01*
X7884309Y-12839262D01*
X7884309Y-12763071D01*
X7874786Y-12744024D01*
X7865262Y-12734500D01*
X7846214Y-12724976D01*
X7808119Y-12724976D01*
X7789071Y-12734500D01*
X7779548Y-12744024D01*
X7770024Y-12763071D01*
X7770024Y-12810690D01*
X7779548Y-12829738D01*
X7789071Y-12839262D01*
X7808119Y-12848786D01*
X7846214Y-12848786D01*
X7865262Y-12839262D01*
X7874786Y-12829738D01*
X7884309Y-12810690D01*
X8055738Y-12791643D02*
X8055738Y-12924976D01*
X8008119Y-12715452D02*
X7960500Y-12858309D01*
X8084309Y-12858309D01*
X8150976Y-12724976D02*
X8150976Y-12763071D01*
X8227167Y-12724976D02*
X8227167Y-12763071D01*
X8522405Y-13001167D02*
X8512881Y-12991643D01*
X8493833Y-12963071D01*
X8484310Y-12944024D01*
X8474786Y-12915452D01*
X8465262Y-12867833D01*
X8465262Y-12829738D01*
X8474786Y-12782119D01*
X8484310Y-12753548D01*
X8493833Y-12734500D01*
X8512881Y-12705928D01*
X8522405Y-12696405D01*
X8703357Y-12924976D02*
X8589071Y-12924976D01*
X8646214Y-12924976D02*
X8646214Y-12724976D01*
X8627167Y-12753548D01*
X8608119Y-12772595D01*
X8589071Y-12782119D01*
X8941452Y-12924976D02*
X8941452Y-12724976D01*
X9027167Y-12924976D02*
X9027167Y-12820214D01*
X9017643Y-12801167D01*
X8998595Y-12791643D01*
X8970024Y-12791643D01*
X8950976Y-12801167D01*
X8941452Y-12810690D01*
X9150976Y-12924976D02*
X9131929Y-12915452D01*
X9122405Y-12905928D01*
X9112881Y-12886881D01*
X9112881Y-12829738D01*
X9122405Y-12810690D01*
X9131929Y-12801167D01*
X9150976Y-12791643D01*
X9179548Y-12791643D01*
X9198595Y-12801167D01*
X9208119Y-12810690D01*
X9217643Y-12829738D01*
X9217643Y-12886881D01*
X9208119Y-12905928D01*
X9198595Y-12915452D01*
X9179548Y-12924976D01*
X9150976Y-12924976D01*
X9331929Y-12924976D02*
X9312881Y-12915452D01*
X9303357Y-12896405D01*
X9303357Y-12724976D01*
X9484310Y-12915452D02*
X9465262Y-12924976D01*
X9427167Y-12924976D01*
X9408119Y-12915452D01*
X9398595Y-12896405D01*
X9398595Y-12820214D01*
X9408119Y-12801167D01*
X9427167Y-12791643D01*
X9465262Y-12791643D01*
X9484310Y-12801167D01*
X9493833Y-12820214D01*
X9493833Y-12839262D01*
X9398595Y-12858309D01*
X9560500Y-13001167D02*
X9570024Y-12991643D01*
X9589071Y-12963071D01*
X9598595Y-12944024D01*
X9608119Y-12915452D01*
X9617643Y-12867833D01*
X9617643Y-12829738D01*
X9608119Y-12782119D01*
X9598595Y-12753548D01*
X9589071Y-12734500D01*
X9570024Y-12705928D01*
X9560500Y-12696405D01*
M02*
