G04 #@! TF.GenerationSoftware,KiCad,Pcbnew,6.0.6-3a73a75311~116~ubuntu22.04.1*
G04 #@! TF.CreationDate,2022-07-16T14:16:35-04:00*
G04 #@! TF.ProjectId,it_is_the_champion_rear_panel,69745f69-735f-4746-9865-5f6368616d70,0*
G04 #@! TF.SameCoordinates,Original*
G04 #@! TF.FileFunction,Legend,Top*
G04 #@! TF.FilePolarity,Positive*
%FSLAX46Y46*%
G04 Gerber Fmt 4.6, Leading zero omitted, Abs format (unit mm)*
G04 Created by KiCad (PCBNEW 6.0.6-3a73a75311~116~ubuntu22.04.1) date 2022-07-16 14:16:35*
%MOMM*%
%LPD*%
G01*
G04 APERTURE LIST*
%ADD10C,1.270000*%
%ADD11C,0.381000*%
%ADD12C,0.150000*%
%ADD13C,2.000000*%
G04 APERTURE END LIST*
D10*
X50165000Y-119380000D02*
G75*
G03*
X52070000Y-121285000I1905000J0D01*
G01*
X243840000Y-121285000D02*
G75*
G03*
X245745000Y-119380000I0J1905000D01*
G01*
X245745000Y-119380000D02*
X245745000Y-73660000D01*
X243840000Y-121285000D02*
X52070000Y-121285000D01*
X243840000Y-71755000D02*
X52070000Y-71755000D01*
X245745000Y-73660000D02*
G75*
G03*
X243840000Y-71755000I-1905000J0D01*
G01*
X52070000Y-71755000D02*
G75*
G03*
X50165000Y-73660000I0J-1905000D01*
G01*
X50165000Y-73660000D02*
X50165000Y-119380000D01*
D11*
X149164523Y-79541309D02*
X149769285Y-79541309D01*
X150071666Y-79692500D01*
X150374047Y-79994880D01*
X150525238Y-80599642D01*
X150525238Y-81657976D01*
X150374047Y-82262738D01*
X150071666Y-82565119D01*
X149769285Y-82716309D01*
X149164523Y-82716309D01*
X148862142Y-82565119D01*
X148559761Y-82262738D01*
X148408571Y-81657976D01*
X148408571Y-80599642D01*
X148559761Y-79994880D01*
X148862142Y-79692500D01*
X149164523Y-79541309D01*
X151885952Y-82716309D02*
X151885952Y-79541309D01*
X153700238Y-82716309D01*
X153700238Y-79541309D01*
X219468095Y-110096148D02*
X219165714Y-109944958D01*
X219014523Y-109793767D01*
X218863333Y-109491386D01*
X218863333Y-109340196D01*
X219014523Y-109037815D01*
X219165714Y-108886625D01*
X219468095Y-108735434D01*
X220072857Y-108735434D01*
X220375238Y-108886625D01*
X220526428Y-109037815D01*
X220677619Y-109340196D01*
X220677619Y-109491386D01*
X220526428Y-109793767D01*
X220375238Y-109944958D01*
X220072857Y-110096148D01*
X219468095Y-110096148D01*
X219165714Y-110247339D01*
X219014523Y-110398529D01*
X218863333Y-110700910D01*
X218863333Y-111305672D01*
X219014523Y-111608053D01*
X219165714Y-111759244D01*
X219468095Y-111910434D01*
X220072857Y-111910434D01*
X220375238Y-111759244D01*
X220526428Y-111608053D01*
X220677619Y-111305672D01*
X220677619Y-110700910D01*
X220526428Y-110398529D01*
X220375238Y-110247339D01*
X220072857Y-110096148D01*
X225062142Y-108735434D02*
X225666904Y-108735434D01*
X225969285Y-108886625D01*
X226271666Y-109189005D01*
X226422857Y-109793767D01*
X226422857Y-110852101D01*
X226271666Y-111456863D01*
X225969285Y-111759244D01*
X225666904Y-111910434D01*
X225062142Y-111910434D01*
X224759761Y-111759244D01*
X224457380Y-111456863D01*
X224306190Y-110852101D01*
X224306190Y-109793767D01*
X224457380Y-109189005D01*
X224759761Y-108886625D01*
X225062142Y-108735434D01*
X227783571Y-111910434D02*
X227783571Y-108735434D01*
X227783571Y-110247339D02*
X229597857Y-110247339D01*
X229597857Y-111910434D02*
X229597857Y-108735434D01*
X231109761Y-111910434D02*
X231109761Y-108735434D01*
X232168095Y-111003291D01*
X233226428Y-108735434D01*
X233226428Y-111910434D01*
X217427023Y-116870994D02*
X217880595Y-117022184D01*
X218636547Y-117022184D01*
X218938928Y-116870994D01*
X219090119Y-116719803D01*
X219241309Y-116417422D01*
X219241309Y-116115041D01*
X219090119Y-115812660D01*
X218938928Y-115661470D01*
X218636547Y-115510279D01*
X218031785Y-115359089D01*
X217729404Y-115207898D01*
X217578214Y-115056708D01*
X217427023Y-114754327D01*
X217427023Y-114451946D01*
X217578214Y-114149565D01*
X217729404Y-113998375D01*
X218031785Y-113847184D01*
X218787738Y-113847184D01*
X219241309Y-113998375D01*
X220602023Y-117022184D02*
X220602023Y-113847184D01*
X221811547Y-113847184D01*
X222113928Y-113998375D01*
X222265119Y-114149565D01*
X222416309Y-114451946D01*
X222416309Y-114905517D01*
X222265119Y-115207898D01*
X222113928Y-115359089D01*
X221811547Y-115510279D01*
X220602023Y-115510279D01*
X223777023Y-115359089D02*
X224835357Y-115359089D01*
X225288928Y-117022184D02*
X223777023Y-117022184D01*
X223777023Y-113847184D01*
X225288928Y-113847184D01*
X226498452Y-116115041D02*
X228010357Y-116115041D01*
X226196071Y-117022184D02*
X227254404Y-113847184D01*
X228312738Y-117022184D01*
X229371071Y-117022184D02*
X229371071Y-113847184D01*
X231185357Y-117022184D02*
X229824642Y-115207898D01*
X231185357Y-113847184D02*
X229371071Y-115661470D01*
X232546071Y-115359089D02*
X233604404Y-115359089D01*
X234057976Y-117022184D02*
X232546071Y-117022184D01*
X232546071Y-113847184D01*
X234057976Y-113847184D01*
X237232976Y-117022184D02*
X236174642Y-115510279D01*
X235418690Y-117022184D02*
X235418690Y-113847184D01*
X236628214Y-113847184D01*
X236930595Y-113998375D01*
X237081785Y-114149565D01*
X237232976Y-114451946D01*
X237232976Y-114905517D01*
X237081785Y-115207898D01*
X236930595Y-115359089D01*
X236628214Y-115510279D01*
X235418690Y-115510279D01*
X119153214Y-110323690D02*
X119304404Y-110172500D01*
X119606785Y-110021309D01*
X120362738Y-110021309D01*
X120665119Y-110172500D01*
X120816309Y-110323690D01*
X120967500Y-110626071D01*
X120967500Y-110928452D01*
X120816309Y-111382023D01*
X119002023Y-113196309D01*
X120967500Y-113196309D01*
X122177023Y-112289166D02*
X123688928Y-112289166D01*
X121874642Y-113196309D02*
X122932976Y-110021309D01*
X123991309Y-113196309D01*
X127317500Y-113045119D02*
X127771071Y-113196309D01*
X128527023Y-113196309D01*
X128829404Y-113045119D01*
X128980595Y-112893928D01*
X129131785Y-112591547D01*
X129131785Y-112289166D01*
X128980595Y-111986785D01*
X128829404Y-111835595D01*
X128527023Y-111684404D01*
X127922261Y-111533214D01*
X127619880Y-111382023D01*
X127468690Y-111230833D01*
X127317500Y-110928452D01*
X127317500Y-110626071D01*
X127468690Y-110323690D01*
X127619880Y-110172500D01*
X127922261Y-110021309D01*
X128678214Y-110021309D01*
X129131785Y-110172500D01*
X131550833Y-111533214D02*
X132004404Y-111684404D01*
X132155595Y-111835595D01*
X132306785Y-112137976D01*
X132306785Y-112591547D01*
X132155595Y-112893928D01*
X132004404Y-113045119D01*
X131702023Y-113196309D01*
X130492500Y-113196309D01*
X130492500Y-110021309D01*
X131550833Y-110021309D01*
X131853214Y-110172500D01*
X132004404Y-110323690D01*
X132155595Y-110626071D01*
X132155595Y-110928452D01*
X132004404Y-111230833D01*
X131853214Y-111382023D01*
X131550833Y-111533214D01*
X130492500Y-111533214D01*
X74627619Y-115736309D02*
X72813333Y-115736309D01*
X73720476Y-115736309D02*
X73720476Y-112561309D01*
X73418095Y-113014880D01*
X73115714Y-113317261D01*
X72813333Y-113468452D01*
X75837142Y-112863690D02*
X75988333Y-112712500D01*
X76290714Y-112561309D01*
X77046666Y-112561309D01*
X77349047Y-112712500D01*
X77500238Y-112863690D01*
X77651428Y-113166071D01*
X77651428Y-113468452D01*
X77500238Y-113922023D01*
X75685952Y-115736309D01*
X77651428Y-115736309D01*
X79616904Y-112561309D02*
X79919285Y-112561309D01*
X80221666Y-112712500D01*
X80372857Y-112863690D01*
X80524047Y-113166071D01*
X80675238Y-113770833D01*
X80675238Y-114526785D01*
X80524047Y-115131547D01*
X80372857Y-115433928D01*
X80221666Y-115585119D01*
X79919285Y-115736309D01*
X79616904Y-115736309D01*
X79314523Y-115585119D01*
X79163333Y-115433928D01*
X79012142Y-115131547D01*
X78860952Y-114526785D01*
X78860952Y-113770833D01*
X79012142Y-113166071D01*
X79163333Y-112863690D01*
X79314523Y-112712500D01*
X79616904Y-112561309D01*
X81582380Y-112561309D02*
X82640714Y-115736309D01*
X83699047Y-112561309D01*
X86722857Y-114526785D02*
X86874047Y-114375595D01*
X87176428Y-114224404D01*
X87781190Y-114526785D01*
X88083571Y-114375595D01*
X88234761Y-114224404D01*
X93224047Y-112561309D02*
X92619285Y-112561309D01*
X92316904Y-112712500D01*
X92165714Y-112863690D01*
X91863333Y-113317261D01*
X91712142Y-113922023D01*
X91712142Y-115131547D01*
X91863333Y-115433928D01*
X92014523Y-115585119D01*
X92316904Y-115736309D01*
X92921666Y-115736309D01*
X93224047Y-115585119D01*
X93375238Y-115433928D01*
X93526428Y-115131547D01*
X93526428Y-114375595D01*
X93375238Y-114073214D01*
X93224047Y-113922023D01*
X92921666Y-113770833D01*
X92316904Y-113770833D01*
X92014523Y-113922023D01*
X91863333Y-114073214D01*
X91712142Y-114375595D01*
X95491904Y-112561309D02*
X95794285Y-112561309D01*
X96096666Y-112712500D01*
X96247857Y-112863690D01*
X96399047Y-113166071D01*
X96550238Y-113770833D01*
X96550238Y-114526785D01*
X96399047Y-115131547D01*
X96247857Y-115433928D01*
X96096666Y-115585119D01*
X95794285Y-115736309D01*
X95491904Y-115736309D01*
X95189523Y-115585119D01*
X95038333Y-115433928D01*
X94887142Y-115131547D01*
X94735952Y-114526785D01*
X94735952Y-113770833D01*
X94887142Y-113166071D01*
X95038333Y-112863690D01*
X95189523Y-112712500D01*
X95491904Y-112561309D01*
X97910952Y-115736309D02*
X97910952Y-112561309D01*
X97910952Y-114073214D02*
X99725238Y-114073214D01*
X99725238Y-115736309D02*
X99725238Y-112561309D01*
X100934761Y-113619642D02*
X102597857Y-113619642D01*
X100934761Y-115736309D01*
X102597857Y-115736309D01*
X148106190Y-110021309D02*
X148710952Y-110021309D01*
X149013333Y-110172500D01*
X149315714Y-110474880D01*
X149466904Y-111079642D01*
X149466904Y-112137976D01*
X149315714Y-112742738D01*
X149013333Y-113045119D01*
X148710952Y-113196309D01*
X148106190Y-113196309D01*
X147803809Y-113045119D01*
X147501428Y-112742738D01*
X147350238Y-112137976D01*
X147350238Y-111079642D01*
X147501428Y-110474880D01*
X147803809Y-110172500D01*
X148106190Y-110021309D01*
X151885952Y-111533214D02*
X150827619Y-111533214D01*
X150827619Y-113196309D02*
X150827619Y-110021309D01*
X152339523Y-110021309D01*
X154607380Y-111533214D02*
X153549047Y-111533214D01*
X153549047Y-113196309D02*
X153549047Y-110021309D01*
X155060952Y-110021309D01*
D12*
X105286000Y-96520000D02*
G75*
G03*
X105286000Y-96520000I-1400000J0D01*
G01*
%LPC*%
D13*
X103886000Y-96520000D03*
M02*
