G04 #@! TF.GenerationSoftware,KiCad,Pcbnew,6.0.6-3a73a75311~116~ubuntu22.04.1*
G04 #@! TF.CreationDate,2022-07-16T14:16:35-04:00*
G04 #@! TF.ProjectId,it_is_the_champion_rear_panel,69745f69-735f-4746-9865-5f6368616d70,0*
G04 #@! TF.SameCoordinates,Original*
G04 #@! TF.FileFunction,Profile,NP*
%FSLAX46Y46*%
G04 Gerber Fmt 4.6, Leading zero omitted, Abs format (unit mm)*
G04 Created by KiCad (PCBNEW 6.0.6-3a73a75311~116~ubuntu22.04.1) date 2022-07-16 14:16:35*
%MOMM*%
%LPD*%
G01*
G04 APERTURE LIST*
G04 #@! TA.AperFunction,Profile*
%ADD10C,0.050000*%
G04 #@! TD*
G04 APERTURE END LIST*
D10*
X243840000Y-71120000D02*
X52070000Y-71120000D01*
X243840000Y-121920000D02*
G75*
G03*
X246380000Y-119380000I0J2540000D01*
G01*
X232346500Y-96520000D02*
G75*
G03*
X232346500Y-96520000I-5016500J0D01*
G01*
X52070000Y-121920000D02*
X243840000Y-121920000D01*
X157480000Y-96520000D02*
G75*
G03*
X157480000Y-96520000I-6350000J0D01*
G01*
X246380000Y-119380000D02*
X246380000Y-73660000D01*
X246380000Y-73660000D02*
G75*
G03*
X243840000Y-71120000I-2540000J0D01*
G01*
X109474000Y-96520000D02*
G75*
G03*
X109474000Y-96520000I-1778000J0D01*
G01*
X73660000Y-88138000D02*
X73660000Y-104902000D01*
X75438000Y-106680000D02*
X99822000Y-106680000D01*
X101600000Y-88138000D02*
G75*
G03*
X99822000Y-86360000I-1778000J0D01*
G01*
X69342000Y-96520000D02*
G75*
G03*
X69342000Y-96520000I-1778000J0D01*
G01*
X52070000Y-71120000D02*
G75*
G03*
X49530000Y-73660000I0J-2540000D01*
G01*
X99822000Y-106680000D02*
G75*
G03*
X101600000Y-104902000I0J1778000D01*
G01*
X121920000Y-101600000D02*
X129540000Y-101600000D01*
X101600000Y-88138000D02*
X101600000Y-104902000D01*
X75438000Y-86360000D02*
X99822000Y-86360000D01*
X129540000Y-101600000D02*
G75*
G03*
X129540000Y-91440000I-3810000J5080000D01*
G01*
X73660000Y-104902000D02*
G75*
G03*
X75438000Y-106680000I1778000J0D01*
G01*
X49530000Y-119380000D02*
G75*
G03*
X52070000Y-121920000I2540000J0D01*
G01*
X121920000Y-91440000D02*
X129540000Y-91440000D01*
X49530000Y-73660000D02*
X49530000Y-119380000D01*
X121920000Y-91440000D02*
G75*
G03*
X121920000Y-101600000I3810000J-5080000D01*
G01*
X75438000Y-86360000D02*
G75*
G03*
X73660000Y-88138000I0J-1778000D01*
G01*
M02*
